<svg width="1920" height="1080" viewBox="0 0 1920 1080" fill="none" xmlns="http://www.w3.org/2000/svg">
<g clip-path="url(#clip0)">
<rect width="1920" height="1080" fill="#F4F7F6"/>
<g opacity="0.7">
<path d="M406.761 116.706V116.679L403.023 37.5422V37.5151H402.996L402.968 37.488L403.009 37.4473L402.887 37.2984L402.941 37.2577L309.854 -90.8675L309.746 -90.7998L309.597 -90.9352L309.624 -91.03L308.865 -91.2738L235.322 -119.066L235.336 -119.079L159.314 -139.869L159.016 -139.964V-139.951L158.88 -139.991L158.758 -139.937L158.745 -139.964L8.09621 -91.03L8.12331 -90.9352L8.10975 -90.9217L7.97432 -90.7998L7.86597 -90.8675L6.78245 -89.3777L-41.4203 -29.2292L-41.5693 -29.1344L-41.5557 -29.0667L-41.7453 -28.8365H-41.7995V-28.8229L-84.7878 36.6347L-85.2212 37.2442L-85.1941 37.2713L-85.289 37.4203L-85.2483 37.4744L-85.2754 37.5015H-85.3025V37.5286V37.5963V195.775V195.843V195.87H-85.2754L-85.2483 195.897L-85.3025 195.952L-85.2077 196.101L-85.2348 196.128L-84.8014 196.724L-41.7995 262.195V262.222H-41.7453L-41.5557 262.452L-41.5693 262.52L-41.4203 262.615L6.78245 322.777L7.85241 324.253L7.96076 324.185L8.09621 324.307L8.10975 324.321L8.08265 324.415L158.704 373.349L158.718 373.322L158.84 373.377L158.975 373.336V373.349L159.273 373.255L235.295 352.465L235.281 352.451L308.811 324.659L309.583 324.415L309.556 324.321L309.705 324.185L309.814 324.253L402.901 196.128L402.847 196.087L402.968 195.938L402.928 195.897L402.955 195.87H402.982V195.843L406.72 116.706H406.761ZM276.902 317.508L222.008 307.296L301.294 260.529L326.581 258.998L320.337 282.104L276.902 317.508ZM4.37164 291.016L-2.88789 235.662L66.1047 296.623L75.3687 320.176L51.4638 321.382L4.37164 291.016ZM-54.6391 23.5784L-4.22874 -0.421376L-40.9598 84.1873L-60.4765 100.25L-69.0092 77.8759L-54.6391 23.5784ZM51.4638 -87.9827L75.3687 -86.7772L66.1047 -63.2244L-2.88789 -2.26335L4.37164 -57.6037L51.4638 -87.9827ZM320.337 -48.6918L326.581 -25.5859L301.281 -27.1164L222.008 -73.8835L276.902 -84.0956L320.337 -48.6918ZM158.054 115.501L82.1271 60.3501L122.204 5.1858L158.054 115.501ZM157.458 116.313L41.4684 116.3L81.5448 61.1356L157.458 116.313ZM253.62 47.4021L159.788 115.582L188.785 26.3278L253.62 47.4021ZM158.772 115.216L122.948 4.94199L187.77 26.0028L158.772 115.216ZM157.458 117.099L81.5448 172.263L41.4684 117.099H157.458ZM158.054 117.912L122.204 228.227L82.1271 173.062L158.054 117.912ZM158.772 118.196L187.77 207.41L122.948 228.47L158.772 118.196ZM159.788 117.83L253.62 186.01L188.772 207.085L159.788 117.83ZM160.208 117.248L254.053 117.234V185.414L160.208 117.248ZM160.208 116.164L254.053 47.998V116.178L160.208 116.164ZM207.395 -32.6017L207.476 -32.4527L207.395 -32.3985L207.286 -32.4798H207.232L207.205 -32.5611L207.286 -32.6965L207.313 -32.6829L207.395 -32.6017ZM32.0012 24.3369L32.0283 24.4452L31.947 24.5942H31.8522L31.8116 24.5129L31.9199 24.364L32.0012 24.3369ZM207.273 266.122L207.191 265.987L207.219 265.906H207.273L207.381 265.825L207.462 265.879L207.381 266.028L207.286 266.109L207.273 266.122ZM315.678 116.801L315.705 116.706L315.678 116.611L315.732 116.557L315.895 116.693L315.732 116.828L315.678 116.801ZM253.877 46.6437L189.016 25.5694L207.435 -31.1525L247.647 24.1879L253.877 46.6437ZM208.343 -31.6942L232.573 -30.2315L246.862 21.3166L208.343 -31.6942ZM207.963 -32.7642L220.857 -72.502L232.275 -31.2879L207.963 -32.7642ZM121.581 4.68466L81.477 59.876L33.2066 24.8109L98.2986 3.65533L121.581 4.68466ZM32.9763 23.7951L41.8476 1.20389L95.3054 3.54697L32.9763 23.7951ZM31.5949 25.6506V91.2843L12.823 41.0907L31.5949 25.6506ZM32.6377 25.61L80.9082 60.6887L40.8047 115.894L32.6513 94.0879V25.61H32.6377ZM31.8116 208.886L31.8658 208.805H31.9605L32.0418 208.954L32.0147 209.062L31.9335 209.021L31.8116 208.886ZM32.9763 209.617L95.3054 229.865L41.8476 232.209L32.9763 209.617ZM33.2201 208.602L81.4906 173.536L121.594 228.728L98.3121 229.744L33.2201 208.602ZM208.343 265.107L246.862 212.096L232.573 263.644L208.343 265.107ZM207.449 264.565L189.029 207.843L253.891 186.769L247.674 209.225L207.449 264.565ZM315.285 115.501L276.617 62.2733L321.421 91.9073L315.285 115.501ZM314.486 116.178H254.839V47.8761L274.112 60.6345L314.486 116.178ZM254.961 47.226L261.137 42.743L273.11 59.2259L254.961 47.226ZM254.717 46.7114L248.988 26.0298L260.798 42.2825L254.717 46.7114ZM206.948 -32.9538L186.293 -46.132L219.95 -72.9083L206.948 -32.9538ZM206.216 -32.4933L143.589 -12.1504L185.657 -45.6309L206.216 -32.4933ZM206.447 -31.4775L188.013 25.2443L123.097 4.15645L141.246 -10.2813L206.447 -31.4775ZM122.542 3.72305L120.213 -3.45522L139.377 -9.68542L122.542 3.72305ZM121.797 3.89913L100.466 2.95104L119.481 -3.22497L121.797 3.89913ZM31.8251 23.9576L-2.1836 -0.732901L40.7912 1.1497L31.8251 23.9576ZM31.4323 24.5942L12.4844 40.1967L-2.61701 -0.164039L31.4323 24.5942ZM32.6377 96.2956L40.1275 116.313H32.6377V96.2956ZM40.1275 117.099L32.6377 137.117V117.099H40.1275ZM40.7912 117.519L80.8946 172.724L32.6242 207.802V139.325L40.7912 117.519ZM31.5949 207.762L12.823 192.322L31.5949 142.142V207.762V207.762ZM100.466 230.448L121.797 229.5L119.481 236.624L100.466 230.448ZM122.556 229.689L139.391 243.098L120.226 236.868L122.556 229.689ZM123.097 229.256L188.013 208.155L206.447 264.876L141.233 243.694L123.097 229.256ZM206.216 265.906L185.657 279.03L143.589 245.549L206.216 265.906ZM206.948 266.366L219.95 306.321L186.293 279.531L206.948 266.366ZM207.963 266.177L232.275 264.7L220.857 305.914L207.963 266.177ZM248.988 207.383L254.717 186.701L260.798 191.13L248.988 207.383ZM254.961 186.186L273.11 174.187L261.137 190.669L254.961 186.186ZM254.852 185.536V117.234H314.5L274.139 172.791L254.852 185.536ZM315.285 117.912L321.407 141.505L276.604 171.139L315.285 117.912ZM316.193 116.178L322.328 92.5168L358.125 116.205L316.193 116.178ZM31.4323 208.818L-2.61701 233.576L12.4844 193.216L31.4323 208.818ZM31.8251 209.455L40.7912 232.263L-2.1836 234.145L31.8251 209.455ZM316.193 117.234L358.125 117.221L322.328 140.896L316.193 117.234ZM330.901 -8.66962L261.651 41.673L248.202 23.1585L233.44 -30.1909L301.349 -26.1141L330.901 -8.66962ZM233.128 -31.2473L221.521 -73.2063L299.439 -27.2383L233.128 -31.2473ZM92.6914 -85.5854L119.156 -4.21367L97.4724 2.82915L42.1591 0.391245L67.0257 -62.9129L92.6914 -85.5854ZM41.1162 0.337079L-2.38677 -1.58615L65.4411 -61.5043L41.1162 0.337079ZM11.8343 40.725L-39.5512 83.0226L-3.47029 -0.123409L11.8343 40.725ZM12.1729 41.6189L31.5949 93.492V116.3L-53.9755 116.273L-40.3097 84.7968L12.1729 41.6189ZM41.1162 233.075L65.4275 294.917L-2.40031 234.999L41.1162 233.075ZM42.1727 233.021L97.4859 230.583L119.17 237.626L92.7049 318.998L67.0393 296.325L42.1727 233.021ZM233.128 264.66L299.425 260.651L221.507 306.619L233.128 264.66ZM233.426 263.603L248.189 210.254L261.638 191.739L330.888 242.082L301.322 259.527L233.426 263.603ZM322.491 91.8803L339.19 27.479L358.87 115.921L322.491 91.8803ZM321.583 91.2708L275.602 60.8647L261.99 42.12L331.267 -8.19558L338.716 25.2985L321.583 91.2708ZM185.67 -46.5248L129.436 -82.4026L219.869 -73.7616L185.67 -46.5248ZM185.034 -46.0237L141.734 -11.5409L119.901 -4.44391L93.4769 -85.8292L127.811 -82.5516L185.034 -46.0237ZM-41.7318 85.9616L-54.612 115.636L-60.1515 101.117L-41.7318 85.9616ZM-54.612 117.776L-41.7318 147.451L-60.1515 132.295L-54.612 117.776ZM-53.989 117.126L31.5813 117.099V139.907L12.1594 191.78L-40.3232 148.602L-53.989 117.126ZM11.8343 192.687L-3.45673 233.536L-39.5377 150.39L11.8343 192.687ZM67.7164 298.045L91.8381 319.364L76.3845 320.136L67.7164 298.045ZM93.7885 320.068L126.253 316.966L105.978 329.914L93.7885 320.068ZM93.4769 319.255L119.901 237.87L141.734 244.967L185.034 279.45L127.811 315.991L93.4769 319.255ZM185.67 279.937L219.869 307.174L129.436 315.815L185.67 279.937ZM303.191 259.405L330.888 243.071L326.852 257.983L303.191 259.405ZM332.161 241.378L339.163 209.875L345.15 232.899L332.161 241.378ZM331.254 241.594L261.977 191.279L275.588 172.534L321.57 142.128L338.703 208.087L331.254 241.594ZM322.491 141.532L358.856 117.478L339.177 205.92L322.491 141.532ZM339.177 23.5378L332.175 -7.96534L345.163 0.499599L339.177 23.5378ZM330.888 -9.65832L303.191 -25.9923L326.852 -24.5701L330.888 -9.65832ZM126.253 -83.5538L93.7885 -86.6554L105.978 -96.4882L126.253 -83.5538ZM91.8246 -85.9511L67.7029 -64.633L76.371 -86.7231L91.8246 -85.9511ZM-55.0454 116.706L-60.8016 131.767L-79.0994 116.706L-60.788 101.645L-55.0454 116.706ZM331.958 242.326L345.339 233.604L351.285 256.506L327.746 257.915L331.958 242.326ZM331.958 -8.9134L327.759 -24.516L351.299 -23.1074L345.353 -0.20469L331.958 -8.9134ZM76.7096 320.975L92.881 320.149L92.8946 320.136L105.423 330.253L85.3777 343.052L76.7096 320.975ZM105.436 -96.8404L92.9081 -86.7231L92.8946 -86.7366L76.7231 -87.5628L85.3912 -109.639L105.436 -96.8404ZM386.309 66.5667L359.642 115.609L339.651 25.7048L346.03 1.082L365.967 14.0841L386.309 66.5667ZM181.499 -115.111L219.909 -74.5877L127.892 -83.3913L106.601 -96.9758L125.21 -111.982L181.499 -115.111ZM-61.1266 100.792L-78.9504 115.46L-69.3613 79.2303L-61.1266 100.792ZM-61.1266 132.62L-69.3613 154.182L-78.9369 117.966L-61.1266 132.62ZM-55.7904 209.279L-84.3273 195.694L-69.6051 157.094L-55.7904 209.279ZM-69.0092 155.537L-60.4765 133.162L-40.9598 149.225L-4.22874 233.834L-54.6391 209.834L-69.0092 155.537ZM75.7073 321.029L84.1316 342.442L52.7369 322.194L75.7073 321.029ZM106.046 330.74L124.127 345.341L86.4612 343.241L106.046 330.74ZM125.21 345.395L106.601 330.388L127.892 316.804L219.909 308L181.499 348.524L125.21 345.395ZM327.475 258.944L350.459 257.549L321.488 281.156L327.475 258.944ZM346.22 233.035L365.533 220.452L352.003 255.355L346.22 233.035ZM365.967 219.328L346.03 232.33L339.651 207.708L359.642 117.803L386.309 166.846L365.967 219.328ZM346.22 0.377709L352.003 -21.9426L365.533 12.96L346.22 0.377709ZM327.475 -25.5318L321.488 -47.7437L350.445 -24.1367L327.475 -25.5318ZM319.917 -50.2494L278.121 -84.3123L309.163 -90.082L319.917 -50.2494ZM276.022 -84.7998L221.534 -74.6284L234.469 -114.488L242.988 -111.725L276.022 -84.7998ZM233.575 -114.786L220.586 -74.8451L182.42 -115.165L225.096 -117.535L233.575 -114.786ZM106.046 -97.3279L86.4612 -109.829L124.127 -111.928L106.046 -97.3279ZM75.7073 -87.617L52.7369 -88.7817L84.1316 -109.03L75.7073 -87.617ZM49.8114 -88.0639L4.53416 -58.8633L8.63796 -90.1361L49.8114 -88.0639ZM3.39648 -56.9807L-3.78179 -1.89768L-37.7499 -26.5611L-32.4271 -33.8883L3.39648 -56.9807ZM-38.1426 -25.9923L-4.14748 -1.27465L-54.3818 22.6032L-43.4654 -18.665L-38.1426 -25.9923ZM-69.6051 76.3183L-84.3273 37.7182L-55.7904 24.1337L-69.6051 76.3183ZM-54.3818 210.823L-4.14748 234.701L-38.1426 259.418L-43.4654 252.091L-54.3818 210.823ZM-37.7363 259.974L-3.76825 235.31L3.41001 290.393L-32.4 267.301L-37.7363 259.974ZM126.524 346.451L180.618 349.458L158.813 372.456L158.745 372.428L126.524 346.451ZM182.42 348.578L220.573 308.258L233.561 348.198L225.083 350.948L182.42 348.578ZM234.482 347.914L221.548 308.054L276.035 318.226L243.015 345.151L234.482 347.914ZM278.107 317.725L319.904 283.662L309.136 323.494L278.107 317.725ZM367.389 218.394L386.919 167.983L402.047 195.789L367.389 218.394ZM402.115 116.219L360.17 116.205L386.689 67.5148L402.115 107.32V116.219V116.219ZM386.932 65.429L367.402 15.0187L402.061 37.6234L386.932 65.429ZM158.813 -139.057L180.618 -116.046L126.524 -113.039L158.745 -139.03L158.813 -139.057ZM4.53416 292.262L49.8114 321.463L8.62442 323.535L4.53416 292.262ZM386.675 165.898L360.156 117.207L402.102 117.194V126.092L386.675 165.898ZM387.298 66.3771L402.115 39.181V104.612L387.298 66.3771ZM321.069 -49.3148L310.626 -88.0639L350.093 -25.6672L321.069 -49.3148ZM277.24 -85.0301L245.467 -110.926L307.674 -90.7185L277.24 -85.0301ZM234.753 -115.355L235.552 -117.806L241.065 -113.31L234.753 -115.355ZM233.846 -115.653L227.589 -117.684L234.631 -118.077L233.846 -115.653ZM181.539 -116.1L160.221 -138.623L222.523 -118.375L181.539 -116.1ZM51.071 -88.8766L11.1978 -90.9081L82.3709 -109.057L51.071 -88.8766ZM3.559 -58.2267L-30.856 -36.0283L7.55444 -88.8901L3.559 -58.2267ZM-38.4677 -27.0893L-40.5806 -28.6198L-34.5129 -32.534L-38.4677 -27.0893ZM-55.533 23.145L-83.5147 36.4451L-45.05 -16.498L-55.533 23.145ZM-69.9573 77.6727L-79.4786 113.645L-84.2054 40.3864L-69.9573 77.6727ZM-80.1423 116.611H-80.1016L-80.0475 116.706L-80.1016 116.801H-80.1423L-80.2371 116.706L-80.1423 116.611ZM-69.9573 155.74L-84.2054 193.026L-79.4786 119.767L-69.9573 155.74ZM-38.874 259.933L-40.9869 261.463L-42.8288 254.488L-38.874 259.933ZM-38.4677 260.502L-34.4993 265.96L-40.5806 262.046L-38.4677 260.502ZM3.559 291.639L7.55444 322.316L-30.856 269.441L3.559 291.639ZM51.071 322.289L82.3709 342.469L11.1978 324.321L51.071 322.289ZM125.427 346.397L156.713 371.656L87.9781 344.325L125.427 346.397ZM233.859 349.065L234.645 351.49L227.589 351.097L233.859 349.065ZM234.753 348.767L241.065 346.722L235.552 351.219L234.753 348.767ZM277.24 318.443L307.674 324.131L245.467 344.338L277.24 318.443ZM321.069 282.727L350.093 259.08L310.626 321.476L321.069 282.727ZM366.955 219.518L400.693 197.536L353.384 254.529L366.955 219.518ZM403.009 117.194H405.555L403.009 123.763V117.194ZM403.009 116.219V109.65L405.555 116.219H403.009ZM366.955 13.8945L353.384 -21.1164L400.68 35.8763L366.955 13.8945ZM352.192 -23.6492L352.179 -23.6627L352.084 -23.7982L352.125 -23.8388L352.274 -23.7033L352.192 -23.6492ZM125.441 -112.985L88.0052 -110.899L156.74 -138.244L125.441 -112.985ZM85.0932 -110.655L85.0391 -110.547L84.9443 -110.493L84.9307 -110.533L85.0932 -110.709V-110.655ZM-38.874 -26.5205L-42.8288 -21.0894L-40.9869 -28.0645L-38.874 -26.5205ZM-55.533 210.267L-45.0365 249.91L-83.5012 196.967L-55.533 210.267ZM84.9307 343.905L85.0255 343.959L85.0932 344.068L85.0797 344.122L84.9172 343.946L84.9307 343.905ZM181.539 349.512L222.523 351.788L160.221 372.036L181.539 349.512ZM352.084 257.211L352.179 257.075L352.192 257.062L352.274 257.102L352.125 257.238L352.084 257.211ZM387.298 167.035L402.115 128.801V194.231L387.298 167.035ZM243.53 -112.497L237.774 -117.183L291.895 -96.7726L243.53 -112.497ZM225.029 -118.511L177.178 -134.059L232.37 -118.917L225.029 -118.511ZM-32.9553 -34.6874L-39.3345 -30.5701L-2.44094 -76.6871L-32.9553 -34.6874ZM-44.3999 -18.9223L-74.2642 22.1698L-42.5038 -26.1006L-44.3999 -18.9223ZM-80.2777 116.706L-84.3951 181.595V51.8174L-80.2777 116.706ZM-44.3999 252.335L-42.5038 259.513L-74.2642 211.243L-44.3999 252.335ZM-32.9553 268.086L-2.41386 310.113L-39.3345 263.969L-32.9553 268.086ZM85.0797 344.149L85.1068 344.162H85.1203L145.987 368.298L21.6807 327.91L85.0797 344.149ZM225.015 351.923L232.342 352.329L177.138 367.485L225.015 351.923ZM243.53 345.91L291.895 330.199L237.774 350.609L243.53 345.91ZM352.152 257.387L352.233 257.319L352.206 257.305L352.328 257.129L352.382 257.156L352.45 256.994L394.476 206.258L316.856 313.093L352.152 257.387ZM403.009 106.941V56.9912L405.637 113.74L403.009 106.941ZM352.436 -23.5814L352.368 -23.744L352.314 -23.7169L352.206 -23.8929L352.233 -23.92L352.152 -23.9878L316.87 -79.6532L394.476 27.154L352.436 -23.5814ZM85.1203 -110.75H85.0662V-110.736L21.6672 -94.4973L145.96 -134.885L85.1203 -110.75ZM403.009 126.471L405.637 119.672L403.009 176.421V126.471ZM-41.5828 262.249L-41.5015 262.357L-41.5151 262.411L-41.7047 262.249H-41.5828ZM235.309 352.411L235.336 352.424L235.485 352.275L235.512 352.289L235.309 352.492L235.281 352.465L235.309 352.411ZM235.512 -118.876L235.485 -118.863L235.336 -119.012L235.309 -118.998L235.295 -119.052L235.322 -119.079L235.512 -118.876ZM-41.5151 -28.999L-41.5015 -28.9448L-41.5828 -28.8365H-41.7047L-41.5151 -28.999ZM406.612 116.815L406.598 116.801L406.68 116.706L406.598 116.611L406.612 116.598L406.72 116.706L406.612 116.815Z" fill="url(#paint0_radial)"/>
<path d="M118.939 4.31919C118.939 6.35078 120.47 8.00314 122.339 8.00314C124.222 8.00314 125.738 6.35078 125.738 4.31919C125.738 2.28761 124.208 0.635254 122.339 0.635254C120.456 0.648798 118.939 2.28761 118.939 4.31919Z" fill="#C3C7C6"/>
<path d="M118.939 229.093C118.939 231.125 120.47 232.764 122.339 232.764C124.222 232.764 125.738 231.125 125.738 229.093C125.738 227.062 124.208 225.423 122.339 225.423C120.456 225.409 118.939 227.062 118.939 229.093Z" fill="#C3C7C6"/>
<path d="M251.047 47.2533C251.047 49.2849 252.577 50.9372 254.446 50.9372C256.329 50.9372 257.846 49.2849 257.846 47.2533C257.846 45.2217 256.315 43.5693 254.446 43.5693C252.577 43.5693 251.047 45.2217 251.047 47.2533Z" fill="#C3C7C6"/>
<path d="M37.2832 116.706C37.2832 118.738 38.8137 120.376 40.6827 120.376C42.5518 120.376 44.0822 118.738 44.0822 116.706C44.0822 114.674 42.5518 113.036 40.6827 113.036C38.8137 113.036 37.2832 114.674 37.2832 116.706Z" fill="#C3C7C6"/>
<path d="M251.047 186.16C251.047 188.191 252.577 189.843 254.446 189.843C256.329 189.843 257.846 188.191 257.846 186.16C257.846 184.128 256.315 182.476 254.446 182.476C252.577 182.476 251.047 184.128 251.047 186.16Z" fill="#C3C7C6"/>
<path d="M-7.11377 -1.20729C-7.11377 0.973272 -5.47496 2.74752 -3.44338 2.74752C-1.41179 2.74752 0.22703 0.973272 0.22703 -1.20729C0.22703 -3.38786 -1.41179 -5.16211 -3.44338 -5.16211C-5.47496 -5.16211 -7.11377 -3.38786 -7.11377 -1.20729Z" fill="#C3C7C6"/>
<path d="M-7.11377 234.619C-7.11377 236.8 -5.47496 238.574 -3.44338 238.574C-1.41179 238.574 0.22703 236.8 0.22703 234.619C0.22703 232.439 -1.41179 230.665 -3.44338 230.665C-5.47496 230.665 -7.11377 232.439 -7.11377 234.619Z" fill="#C3C7C6"/>
<path d="M217.173 307.499C217.173 309.68 218.812 311.454 220.844 311.454C222.875 311.454 224.514 309.68 224.514 307.499C224.514 305.319 222.875 303.544 220.844 303.544C218.826 303.544 217.173 305.319 217.173 307.499Z" fill="#C3C7C6"/>
<path d="M355.795 116.706C355.795 118.887 357.434 120.661 359.466 120.661C361.497 120.661 363.136 118.887 363.136 116.706C363.136 114.526 361.497 112.751 359.466 112.751C357.434 112.751 355.795 114.526 355.795 116.706Z" fill="#C3C7C6"/>
<path d="M327.827 242.177C327.827 244.399 329.493 246.2 331.565 246.2C333.624 246.2 335.303 244.399 335.303 242.177C335.303 239.956 333.637 238.155 331.565 238.155C329.493 238.155 327.827 239.956 327.827 242.177Z" fill="#C3C7C6"/>
<path d="M89.1565 319.73C89.1565 321.951 90.8224 323.752 92.8946 323.752C94.9533 323.752 96.6327 321.951 96.6327 319.73C96.6327 317.508 94.9668 315.707 92.8946 315.707C90.8224 315.707 89.1565 317.508 89.1565 319.73Z" fill="#C3C7C6"/>
<path d="M4.08716 324.009C4.08716 326.474 5.94267 328.465 8.23159 328.465C10.5205 328.465 12.376 326.474 12.376 324.009C12.376 321.544 10.5205 319.553 8.23159 319.553C5.94267 319.553 4.08716 321.558 4.08716 324.009Z" fill="#C3C7C6"/>
<path d="M398.337 37.5288C398.337 39.9937 400.233 41.9847 402.576 41.9847C404.919 41.9847 406.815 39.9937 406.815 37.5288C406.815 35.0638 404.919 33.0728 402.576 33.0728C400.233 33.0593 398.337 35.0638 398.337 37.5288Z" fill="#C3C7C6"/>
<path d="M154.709 372.957C154.709 375.422 156.564 377.413 158.853 377.413C161.142 377.413 162.998 375.422 162.998 372.957C162.998 370.492 161.142 368.501 158.853 368.501C156.564 368.488 154.709 370.492 154.709 372.957Z" fill="#C3C7C6"/>
<path d="M305.317 324.009C305.317 326.474 307.172 328.465 309.461 328.465C311.75 328.465 313.606 326.474 313.606 324.009C313.606 321.544 311.75 319.553 309.461 319.553C307.186 319.553 305.317 321.558 305.317 324.009Z" fill="#C3C7C6"/>
<path d="M398.337 195.884C398.337 198.349 400.233 200.34 402.576 200.34C404.919 200.34 406.815 198.349 406.815 195.884C406.815 193.419 404.919 191.428 402.576 191.428C400.233 191.428 398.337 193.433 398.337 195.884Z" fill="#C3C7C6"/>
<path d="M230.677 352.004C230.677 354.754 232.749 356.975 235.309 356.975C237.868 356.975 239.941 354.754 239.941 352.004C239.941 349.255 237.868 347.034 235.309 347.034C232.749 347.034 230.677 349.268 230.677 352.004Z" fill="#C3C7C6"/>
<path d="M401.546 116.706C401.546 119.456 403.659 121.677 406.273 121.677C408.887 121.677 411 119.456 411 116.706C411 113.957 408.887 111.736 406.273 111.736C403.659 111.736 401.546 113.957 401.546 116.706Z" fill="#C3C7C6"/>
<path d="M347.195 256.967C347.195 259.77 349.308 262.032 351.922 262.032C354.536 262.032 356.648 259.77 356.648 256.967C356.648 254.163 354.536 251.901 351.922 251.901C349.308 251.901 347.195 254.177 347.195 256.967Z" fill="#C3C7C6"/>
<path d="M85.107 348.727C87.7175 348.727 89.8338 346.459 89.8338 343.661C89.8338 340.864 87.7175 338.596 85.107 338.596C82.4964 338.596 80.3801 340.864 80.3801 343.661C80.3801 346.459 82.4964 348.727 85.107 348.727Z" fill="#C3C7C6"/>
<path d="M315.515 122.205C318.35 122.205 320.649 119.743 320.649 116.706C320.649 113.669 318.35 111.208 315.515 111.208C312.681 111.208 310.382 113.669 310.382 116.706C310.382 119.743 312.681 122.205 315.515 122.205Z" fill="#C3C7C6"/>
<path d="M202.126 265.703C202.126 268.737 204.428 271.202 207.259 271.202C210.09 271.202 212.392 268.737 212.392 265.703C212.392 262.669 210.09 260.204 207.259 260.204C204.428 260.204 202.126 262.669 202.126 265.703Z" fill="#C3C7C6"/>
<path d="M26.9763 208.791C26.9763 211.825 29.2788 214.29 32.1094 214.29C34.9401 214.29 37.2426 211.825 37.2426 208.791C37.2426 205.757 34.9401 203.292 32.1094 203.292C29.2788 203.292 26.9763 205.757 26.9763 208.791Z" fill="#C3C7C6"/>
<path d="M26.9763 24.6209C26.9763 27.6547 29.2788 30.1197 32.1094 30.1197C34.9401 30.1197 37.2426 27.6547 37.2426 24.6209C37.2426 21.5871 34.9401 19.1221 32.1094 19.1221C29.2788 19.1221 26.9763 21.5871 26.9763 24.6209Z" fill="#C3C7C6"/>
<path d="M153.503 116.707C153.503 119.862 155.901 122.422 158.853 122.422C161.806 122.422 164.203 119.862 164.203 116.707C164.203 113.551 161.806 110.991 158.853 110.991C155.901 110.991 153.503 113.551 153.503 116.707Z" fill="#C3C7C6"/>
</g>
<g opacity="0.4">
<path d="M2014.14 893.823V893.779L2008.09 765.735V765.692H2008.05L2008.01 765.648L2008.07 765.582L2007.87 765.341L2007.96 765.275L1857.35 557.968L1857.17 558.078L1856.93 557.859L1856.97 557.706L1855.75 557.311L1736.75 512.343L1736.78 512.322L1613.77 478.684L1613.29 478.53V478.552L1613.07 478.486L1612.87 478.574L1612.85 478.53L1369.1 557.706L1369.15 557.859L1369.12 557.881L1368.9 558.078L1368.73 557.968L1366.98 560.379L1288.98 657.699L1288.74 657.853L1288.76 657.962L1288.46 658.335H1288.37V658.357L1218.82 764.267L1218.11 765.253L1218.16 765.297L1218 765.538L1218.07 765.626L1218.03 765.67H1217.98V765.713V765.823V1021.76V1021.87V1021.91H1218.03L1218.07 1021.95L1217.98 1022.04L1218.14 1022.28L1218.09 1022.33L1218.79 1023.29L1288.37 1129.22V1129.27H1288.46L1288.76 1129.64L1288.74 1129.75L1288.98 1129.9L1366.98 1227.24L1368.71 1229.63L1368.88 1229.52L1369.1 1229.72L1369.12 1229.74L1369.08 1229.9L1612.79 1309.07L1612.81 1309.03L1613 1309.12L1613.22 1309.05V1309.07L1613.71 1308.92L1736.71 1275.28L1736.69 1275.26L1855.66 1230.29L1856.91 1229.9L1856.86 1229.74L1857.11 1229.52L1857.28 1229.63L2007.9 1022.33L2007.81 1022.26L2008.01 1022.02L2007.94 1021.95L2007.98 1021.91H2008.03V1021.87L2014.08 893.823H2014.14ZM1804.03 1218.72L1715.21 1202.2L1843.5 1126.53L1884.41 1124.05L1874.31 1161.44L1804.03 1218.72ZM1363.08 1175.86L1351.33 1086.29L1462.96 1184.93L1477.95 1223.04L1439.27 1224.99L1363.08 1175.86ZM1267.6 743.142L1349.16 704.31L1289.73 841.207L1258.15 867.197L1244.35 830.995L1267.6 743.142ZM1439.27 562.636L1477.95 564.587L1462.96 602.695L1351.33 701.33L1363.08 611.789L1439.27 562.636ZM1874.31 626.209L1884.41 663.594L1843.47 661.118L1715.21 585.449L1804.03 568.926L1874.31 626.209ZM1611.73 891.873L1488.88 802.639L1553.73 713.383L1611.73 891.873ZM1610.77 893.187L1423.1 893.165L1487.94 803.91L1610.77 893.187ZM1766.36 781.689L1614.54 892.004L1661.46 747.591L1766.36 781.689ZM1612.9 891.412L1554.93 712.988L1659.81 747.065L1612.9 891.412ZM1610.77 894.458L1487.94 983.714L1423.1 894.458H1610.77ZM1611.73 895.773L1553.73 1074.26L1488.88 985.007L1611.73 895.773ZM1612.9 896.233L1659.81 1040.58L1554.93 1074.66L1612.9 896.233ZM1614.54 895.642L1766.36 1005.96L1661.43 1040.06L1614.54 895.642ZM1615.22 894.699L1767.06 894.678V1004.99L1615.22 894.699ZM1615.22 892.946L1767.06 782.653V892.968L1615.22 892.946ZM1691.57 652.243L1691.7 652.484L1691.57 652.571L1691.39 652.44H1691.3L1691.26 652.308L1691.39 652.089L1691.44 652.111L1691.57 652.243ZM1407.78 744.369L1407.82 744.545L1407.69 744.786H1407.54L1407.47 744.654L1407.65 744.413L1407.78 744.369ZM1691.37 1135.58L1691.24 1135.36L1691.28 1135.23H1691.37L1691.54 1135.1L1691.68 1135.18L1691.54 1135.43L1691.39 1135.56L1691.37 1135.58ZM1866.77 893.976L1866.81 893.823L1866.77 893.669L1866.86 893.582L1867.12 893.801L1866.86 894.02L1866.77 893.976ZM1766.78 780.462L1661.83 746.363L1691.63 654.587L1756.7 744.128L1766.78 780.462ZM1693.1 653.711L1732.3 656.078L1755.42 739.482L1693.1 653.711ZM1692.49 651.98L1713.35 587.684L1731.82 654.368L1692.49 651.98ZM1552.72 712.572L1487.83 801.872L1409.73 745.136L1515.05 710.906L1552.72 712.572ZM1409.36 743.493L1423.71 706.94L1510.21 710.731L1409.36 743.493ZM1407.12 746.495V852.69L1376.75 771.477L1407.12 746.495ZM1408.81 746.429L1486.91 803.186L1422.02 892.508L1408.83 857.226V746.429H1408.81ZM1407.47 1042.97L1407.56 1042.84H1407.71L1407.85 1043.08L1407.8 1043.25L1407.67 1043.19L1407.47 1042.97ZM1409.36 1044.15L1510.21 1076.91L1423.71 1080.71L1409.36 1044.15ZM1409.75 1042.51L1487.85 985.774L1552.74 1075.07L1515.07 1076.72L1409.75 1042.51ZM1693.1 1133.93L1755.42 1048.16L1732.3 1131.57L1693.1 1133.93ZM1691.65 1133.06L1661.85 1041.28L1766.8 1007.18L1756.74 1043.52L1691.65 1133.06ZM1866.13 891.873L1803.57 805.75L1876.06 853.698L1866.13 891.873ZM1864.84 892.968H1768.33V782.456L1799.52 803.099L1864.84 892.968ZM1768.53 781.404L1778.52 774.15L1797.89 800.82L1768.53 781.404ZM1768.13 780.571L1758.86 747.108L1777.97 773.405L1768.13 780.571ZM1690.84 651.673L1657.42 630.351L1711.88 587.026L1690.84 651.673ZM1689.66 652.418L1588.33 685.333L1656.39 631.161L1689.66 652.418ZM1690.03 654.061L1660.21 745.837L1555.17 711.717L1584.54 688.357L1690.03 654.061ZM1554.28 711.016L1550.51 699.402L1581.51 689.321L1554.28 711.016ZM1553.07 711.301L1518.56 709.767L1549.32 699.774L1553.07 711.301ZM1407.5 743.756L1352.47 703.806L1422 706.852L1407.5 743.756ZM1406.86 744.786L1376.2 770.031L1351.77 704.727L1406.86 744.786ZM1408.81 860.798L1420.93 893.187H1408.81V860.798ZM1420.93 894.458L1408.81 926.847V894.458H1420.93ZM1422 895.138L1486.89 984.459L1408.79 1041.22V930.419L1422 895.138ZM1407.12 1041.15L1376.75 1016.17L1407.12 934.977V1041.15ZM1518.56 1077.86L1553.07 1076.32L1549.32 1087.85L1518.56 1077.86ZM1554.3 1076.63L1581.54 1098.32L1550.53 1088.24L1554.3 1076.63ZM1555.17 1075.93L1660.21 1041.79L1690.03 1133.56L1584.52 1099.29L1555.17 1075.93ZM1689.66 1135.23L1656.39 1156.46L1588.33 1102.29L1689.66 1135.23ZM1690.84 1135.97L1711.88 1200.62L1657.42 1157.27L1690.84 1135.97ZM1692.49 1135.67L1731.82 1133.28L1713.35 1199.96L1692.49 1135.67ZM1758.86 1040.54L1768.13 1007.07L1777.97 1014.24L1758.86 1040.54ZM1768.53 1006.24L1797.89 986.826L1778.52 1013.5L1768.53 1006.24ZM1768.35 1005.19V894.678H1864.86L1799.56 984.569L1768.35 1005.19ZM1866.13 895.773L1876.04 933.947L1803.55 981.895L1866.13 895.773ZM1867.6 892.968L1877.53 854.684L1935.45 893.012L1867.6 892.968ZM1406.86 1042.86L1351.77 1082.92L1376.2 1017.62L1406.86 1042.86ZM1407.5 1043.89L1422 1080.79L1352.47 1083.84L1407.5 1043.89ZM1867.6 894.678L1935.45 894.656L1877.53 932.961L1867.6 894.678ZM1891.4 690.965L1779.35 772.419L1757.59 742.463L1733.71 656.143L1843.58 662.739L1891.4 690.965ZM1733.2 654.434L1714.42 586.544L1840.49 660.921L1733.2 654.434ZM1505.98 566.515L1548.8 698.174L1513.71 709.57L1424.22 705.625L1464.45 603.199L1505.98 566.515ZM1422.53 705.538L1352.14 702.426L1461.89 605.478L1422.53 705.538ZM1375.15 770.885L1292.01 839.323L1350.39 704.792L1375.15 770.885ZM1375.7 772.332L1407.12 856.262V893.165L1268.67 893.122L1290.78 842.193L1375.7 772.332ZM1422.53 1082.11L1461.86 1182.17L1352.12 1085.22L1422.53 1082.11ZM1424.24 1082.02L1513.73 1078.08L1548.82 1089.47L1506 1221.13L1464.47 1184.45L1424.24 1082.02ZM1733.2 1133.21L1840.47 1126.73L1714.4 1201.1L1733.2 1133.21ZM1733.69 1131.5L1757.57 1045.18L1779.33 1015.23L1891.38 1096.68L1843.54 1124.91L1733.69 1131.5ZM1877.79 853.654L1904.81 749.453L1936.65 892.552L1877.79 853.654ZM1876.32 852.668L1801.93 803.471L1779.9 773.142L1891.99 691.732L1904.04 745.925L1876.32 852.668ZM1656.42 629.715L1565.43 571.665L1711.75 585.646L1656.42 629.715ZM1655.39 630.526L1585.33 686.319L1550 697.802L1507.25 566.121L1562.8 571.424L1655.39 630.526ZM1288.48 844.078L1267.64 892.092L1258.68 868.6L1288.48 844.078ZM1267.64 895.554L1288.48 943.568L1258.68 919.046L1267.64 895.554ZM1268.65 894.502L1407.1 894.458V931.362L1375.68 1015.29L1290.76 945.43L1268.65 894.502ZM1375.15 1016.76L1350.41 1082.85L1292.03 948.323L1375.15 1016.76ZM1465.57 1187.23L1504.6 1221.72L1479.59 1222.97L1465.57 1187.23ZM1507.75 1222.86L1560.28 1217.84L1527.47 1238.79L1507.75 1222.86ZM1507.25 1221.55L1550 1089.87L1585.33 1101.35L1655.39 1157.14L1562.8 1216.27L1507.25 1221.55ZM1656.42 1157.93L1711.75 1202L1565.43 1215.98L1656.42 1157.93ZM1846.56 1124.71L1891.38 1098.28L1884.85 1122.41L1846.56 1124.71ZM1893.44 1095.54L1904.77 1044.57L1914.45 1081.82L1893.44 1095.54ZM1891.97 1095.89L1779.88 1014.48L1801.9 984.152L1876.3 934.955L1904.02 1041.68L1891.97 1095.89ZM1877.79 933.991L1936.63 895.072L1904.79 1038.17L1877.79 933.991ZM1904.79 743.076L1893.46 692.104L1914.48 705.801L1904.79 743.076ZM1891.38 689.365L1846.56 662.937L1884.85 665.238L1891.38 689.365ZM1560.28 569.802L1507.75 564.784L1527.47 548.874L1560.28 569.802ZM1504.57 565.923L1465.55 600.416L1479.57 564.674L1504.57 565.923ZM1266.94 893.823L1257.63 918.191L1228.02 893.823L1257.65 869.454L1266.94 893.823ZM1893.11 1097.08L1914.76 1082.96L1924.38 1120.02L1886.29 1122.3L1893.11 1097.08ZM1893.11 690.57L1886.32 665.325L1924.4 667.604L1914.78 704.661L1893.11 690.57ZM1480.12 1224.33L1506.28 1222.99L1506.31 1222.97L1526.58 1239.34L1494.14 1260.05L1480.12 1224.33ZM1526.6 548.304L1506.33 564.674L1506.31 564.652L1480.14 563.316L1494.17 527.596L1526.6 548.304ZM1981.05 812.697L1937.9 892.048L1905.56 746.583L1915.88 706.743L1948.14 727.78L1981.05 812.697ZM1649.67 518.742L1711.82 584.309L1562.93 570.065L1528.48 548.085L1558.59 523.805L1649.67 518.742ZM1257.1 868.074L1228.26 891.807L1243.78 833.187L1257.1 868.074ZM1257.1 919.572L1243.78 954.459L1228.28 895.861L1257.1 919.572ZM1265.73 1043.61L1219.56 1021.63L1243.38 959.171L1265.73 1043.61ZM1244.35 956.65L1258.15 920.448L1289.73 946.438L1349.16 1083.34L1267.6 1044.5L1244.35 956.65ZM1478.5 1224.42L1492.13 1259.06L1441.33 1226.3L1478.5 1224.42ZM1527.58 1240.13L1556.84 1263.75L1495.9 1260.36L1527.58 1240.13ZM1558.59 1263.84L1528.48 1239.56L1562.93 1217.58L1711.82 1203.34L1649.67 1268.9L1558.59 1263.84ZM1885.86 1123.96L1923.04 1121.71L1876.17 1159.9L1885.86 1123.96ZM1916.19 1082.04L1947.43 1061.68L1925.54 1118.16L1916.19 1082.04ZM1948.14 1059.87L1915.88 1080.9L1905.56 1041.06L1937.9 895.598L1981.05 974.949L1948.14 1059.87ZM1916.19 705.603L1925.54 669.489L1947.43 725.961L1916.19 705.603ZM1885.86 663.682L1876.17 627.743L1923.02 665.939L1885.86 663.682ZM1873.63 623.689L1806 568.575L1856.23 559.24L1873.63 623.689ZM1802.6 567.786L1714.44 584.243L1735.37 519.75L1749.16 524.221L1802.6 567.786ZM1733.93 519.268L1712.91 583.893L1651.16 518.655L1720.21 514.82L1733.93 519.268ZM1527.58 547.516L1495.9 527.289L1556.84 523.892L1527.58 547.516ZM1478.5 563.228L1441.33 561.343L1492.13 528.582L1478.5 563.228ZM1436.6 562.505L1363.34 609.751L1369.98 559.152L1436.6 562.505ZM1361.5 612.797L1349.88 701.922L1294.92 662.016L1303.53 650.161L1361.5 612.797ZM1294.29 662.937L1349.29 702.93L1268.01 741.564L1285.67 674.792L1294.29 662.937ZM1243.38 828.475L1219.56 766.02L1265.73 744.04L1243.38 828.475ZM1268.01 1046.1L1349.29 1084.74L1294.29 1124.73L1285.67 1112.88L1268.01 1046.1ZM1294.94 1125.63L1349.9 1085.72L1361.52 1174.85L1303.58 1137.48L1294.94 1125.63ZM1560.72 1265.55L1648.24 1270.42L1612.96 1307.63L1612.85 1307.58L1560.72 1265.55ZM1651.16 1268.99L1712.89 1203.75L1733.9 1268.38L1720.19 1272.83L1651.16 1268.99ZM1735.39 1267.92L1714.47 1203.42L1802.63 1219.88L1749.2 1263.45L1735.39 1267.92ZM1805.98 1219.07L1873.61 1163.96L1856.18 1228.41L1805.98 1219.07ZM1950.44 1058.35L1982.04 976.789L2006.52 1021.78L1950.44 1058.35ZM2006.62 893.034L1938.76 893.012L1981.66 814.231L2006.62 878.636V893.034ZM1982.06 810.856L1950.46 729.292L2006.54 765.867L1982.06 810.856ZM1612.96 479.998L1648.24 517.23L1560.72 522.095L1612.85 480.042L1612.96 479.998ZM1363.34 1177.87L1436.6 1225.12L1369.96 1228.47L1363.34 1177.87ZM1981.64 973.415L1938.73 894.634L2006.6 894.612V909.009L1981.64 973.415ZM1982.65 812.39L2006.62 768.387V874.254L1982.65 812.39ZM1875.49 625.201L1858.6 562.505L1922.45 663.463L1875.49 625.201ZM1804.58 567.413L1753.17 525.514L1853.82 558.21L1804.58 567.413ZM1735.83 518.348L1737.13 514.381L1746.04 521.657L1735.83 518.348ZM1734.36 517.866L1724.24 514.579L1735.64 513.943L1734.36 517.866ZM1649.73 517.143L1615.24 480.7L1716.04 513.461L1649.73 517.143ZM1438.63 561.19L1374.12 557.903L1489.28 528.538L1438.63 561.19ZM1361.76 610.781L1306.08 646.698L1368.23 561.168L1361.76 610.781ZM1293.76 661.162L1290.34 658.685L1300.16 652.352L1293.76 661.162ZM1266.15 742.441L1220.88 763.96L1283.11 678.298L1266.15 742.441ZM1242.81 830.667L1227.41 888.87L1219.76 770.337L1242.81 830.667ZM1226.33 893.669H1226.4L1226.49 893.823L1226.4 893.976H1226.33L1226.18 893.823L1226.33 893.669ZM1242.81 956.979L1219.76 1017.31L1227.41 898.775L1242.81 956.979ZM1293.1 1125.56L1289.69 1128.04L1286.7 1116.75L1293.1 1125.56ZM1293.76 1126.48L1300.18 1135.32L1290.34 1128.98L1293.76 1126.48ZM1361.76 1176.86L1368.23 1226.5L1306.08 1140.95L1361.76 1176.86ZM1438.63 1226.46L1489.28 1259.11L1374.12 1229.74L1438.63 1226.46ZM1558.94 1265.46L1609.56 1306.33L1498.35 1262.11L1558.94 1265.46ZM1734.39 1269.78L1735.66 1273.7L1724.24 1273.07L1734.39 1269.78ZM1735.83 1269.3L1746.04 1265.99L1737.13 1273.26L1735.83 1269.3ZM1804.58 1220.23L1853.82 1229.44L1753.17 1262.13L1804.58 1220.23ZM1875.49 1162.45L1922.45 1124.18L1858.6 1225.14L1875.49 1162.45ZM1949.74 1060.17L2004.32 1024.61L1927.78 1116.82L1949.74 1060.17ZM2008.07 894.612H2012.19L2008.07 905.24V894.612ZM2008.07 893.034V882.406L2012.19 893.034H2008.07ZM1949.74 727.473L1927.78 670.826L2004.3 763.04L1949.74 727.473ZM1925.85 666.728L1925.83 666.706L1925.67 666.487L1925.74 666.421L1925.98 666.64L1925.85 666.728ZM1558.96 522.183L1498.39 525.558L1609.61 481.313L1558.96 522.183ZM1493.68 525.952L1493.6 526.127L1493.44 526.215L1493.42 526.149L1493.68 525.864V525.952ZM1293.1 662.082L1286.7 670.87L1289.69 659.584L1293.1 662.082ZM1266.15 1045.2L1283.13 1109.35L1220.9 1023.69L1266.15 1045.2ZM1493.42 1261.43L1493.57 1261.52L1493.68 1261.69L1493.66 1261.78L1493.4 1261.5L1493.42 1261.43ZM1649.73 1270.5L1716.04 1274.18L1615.24 1306.95L1649.73 1270.5ZM1925.67 1121.16L1925.83 1120.94L1925.85 1120.92L1925.98 1120.98L1925.74 1121.2L1925.67 1121.16ZM1982.65 975.255L2006.62 913.392V1019.26L1982.65 975.255ZM1750.03 522.972L1740.72 515.39L1828.29 548.414L1750.03 522.972ZM1720.1 513.242L1642.68 488.085L1731.98 512.585L1720.1 513.242ZM1302.68 648.868L1292.36 655.53L1352.05 580.912L1302.68 648.868ZM1284.16 674.376L1235.84 740.863L1287.23 662.761L1284.16 674.376ZM1226.11 893.823L1219.45 998.813V788.833L1226.11 893.823ZM1284.16 1113.27L1287.23 1124.88L1235.84 1046.78L1284.16 1113.27ZM1302.68 1138.76L1352.1 1206.76L1292.36 1132.09L1302.68 1138.76ZM1493.66 1261.83L1493.7 1261.85H1493.73L1592.21 1300.9L1391.08 1235.55L1493.66 1261.83ZM1720.08 1274.4L1731.93 1275.06L1642.61 1299.58L1720.08 1274.4ZM1750.03 1264.67L1828.29 1239.25L1740.72 1272.28L1750.03 1264.67ZM1925.78 1121.44L1925.92 1121.33L1925.87 1121.31L1926.07 1121.03L1926.16 1121.07L1926.27 1120.81L1994.27 1038.72L1868.68 1211.58L1925.78 1121.44ZM2008.07 878.023V797.204L2012.32 889.024L2008.07 878.023ZM1926.24 666.837L1926.13 666.574L1926.05 666.618L1925.87 666.333L1925.92 666.29L1925.78 666.18L1868.7 576.113L1994.27 748.927L1926.24 666.837ZM1493.73 525.799H1493.64V525.821L1391.06 552.096L1592.16 486.748L1493.73 525.799ZM2008.07 909.623L2012.32 898.622L2008.07 990.442V909.623ZM1288.72 1129.31L1288.85 1129.49L1288.83 1129.57L1288.52 1129.31H1288.72ZM1736.73 1275.19L1736.78 1275.21L1737.02 1274.97L1737.06 1275L1736.73 1275.32L1736.69 1275.28L1736.73 1275.19ZM1737.06 512.65L1737.02 512.672L1736.78 512.431L1736.73 512.453L1736.71 512.365L1736.75 512.322L1737.06 512.65ZM1288.83 658.072L1288.85 658.159L1288.72 658.335H1288.52L1288.83 658.072ZM2013.9 893.998L2013.88 893.976L2014.01 893.823L2013.88 893.669L2013.9 893.648L2014.08 893.823L2013.9 893.998Z" fill="url(#paint1_radial)"/>
<path d="M1548.45 711.981C1548.45 715.268 1550.92 717.941 1553.95 717.941C1556.99 717.941 1559.45 715.268 1559.45 711.981C1559.45 708.694 1556.97 706.02 1553.95 706.02C1550.9 706.042 1548.45 708.694 1548.45 711.981Z" fill="#C3C7C6"/>
<path d="M1548.45 1075.67C1548.45 1078.95 1550.92 1081.6 1553.95 1081.6C1556.99 1081.6 1559.45 1078.95 1559.45 1075.67C1559.45 1072.38 1556.97 1069.73 1553.95 1069.73C1550.9 1069.7 1548.45 1072.38 1548.45 1075.67Z" fill="#C3C7C6"/>
<path d="M1762.2 781.448C1762.2 784.735 1764.67 787.409 1767.7 787.409C1770.74 787.409 1773.2 784.735 1773.2 781.448C1773.2 778.161 1770.72 775.487 1767.7 775.487C1764.67 775.487 1762.2 778.161 1762.2 781.448Z" fill="#C3C7C6"/>
<path d="M1416.33 893.823C1416.33 897.11 1418.8 899.761 1421.83 899.761C1424.85 899.761 1427.33 897.11 1427.33 893.823C1427.33 890.535 1424.85 887.884 1421.83 887.884C1418.8 887.884 1416.33 890.535 1416.33 893.823Z" fill="#C3C7C6"/>
<path d="M1762.2 1006.2C1762.2 1009.48 1764.67 1012.16 1767.7 1012.16C1770.74 1012.16 1773.2 1009.48 1773.2 1006.2C1773.2 1002.91 1770.72 1000.24 1767.7 1000.24C1764.67 1000.24 1762.2 1002.91 1762.2 1006.2Z" fill="#C3C7C6"/>
<path d="M1344.49 703.039C1344.49 706.567 1347.14 709.437 1350.43 709.437C1353.72 709.437 1356.37 706.567 1356.37 703.039C1356.37 699.51 1353.72 696.64 1350.43 696.64C1347.14 696.64 1344.49 699.51 1344.49 703.039Z" fill="#C3C7C6"/>
<path d="M1344.49 1084.61C1344.49 1088.13 1347.14 1091.01 1350.43 1091.01C1353.72 1091.01 1356.37 1088.13 1356.37 1084.61C1356.37 1081.08 1353.72 1078.21 1350.43 1078.21C1347.14 1078.21 1344.49 1081.08 1344.49 1084.61Z" fill="#C3C7C6"/>
<path d="M1707.39 585.121C1707.39 588.649 1710.04 591.519 1713.33 591.519C1716.61 591.519 1719.27 588.649 1719.27 585.121C1719.27 581.592 1716.61 578.722 1713.33 578.722C1710.06 578.722 1707.39 581.592 1707.39 585.121Z" fill="#C3C7C6"/>
<path d="M1500.26 565.332C1500.26 568.926 1502.95 571.841 1506.31 571.841C1509.64 571.841 1512.35 568.926 1512.35 565.332C1512.35 561.738 1509.66 558.824 1506.31 558.824C1502.95 558.824 1500.26 561.738 1500.26 565.332Z" fill="#C3C7C6"/>
<path d="M1261.59 893.823C1261.59 897.417 1264.29 900.332 1267.64 900.332C1270.97 900.332 1273.69 897.417 1273.69 893.823C1273.69 890.23 1270.99 887.315 1267.64 887.315C1264.29 887.315 1261.59 890.23 1261.59 893.823Z" fill="#C3C7C6"/>
<path d="M1886.43 690.811C1886.43 694.405 1889.12 697.32 1892.47 697.32C1895.81 697.32 1898.52 694.405 1898.52 690.811C1898.52 687.217 1895.83 684.303 1892.47 684.303C1889.12 684.281 1886.43 687.196 1886.43 690.811Z" fill="#C3C7C6"/>
<path d="M1606.32 479.21C1606.32 483.198 1609.32 486.419 1613.03 486.419C1616.73 486.419 1619.73 483.176 1619.73 479.21C1619.73 475.221 1616.73 472 1613.03 472C1609.32 472 1606.32 475.221 1606.32 479.21Z" fill="#C3C7C6"/>
<path d="M1212 1021.93C1212 1025.92 1215 1029.14 1218.71 1029.14C1222.41 1029.14 1225.41 1025.92 1225.41 1021.93C1225.41 1017.94 1222.41 1014.72 1218.71 1014.72C1215 1014.72 1212 1017.97 1212 1021.93Z" fill="#C3C7C6"/>
<path d="M1850 558.408C1850 562.396 1853.01 565.618 1856.71 565.618C1860.41 565.618 1863.42 562.396 1863.42 558.408C1863.42 554.42 1860.41 551.198 1856.71 551.198C1853.03 551.176 1850 554.42 1850 558.408Z" fill="#C3C7C6"/>
<path d="M1362.61 558.408C1362.61 562.396 1365.62 565.618 1369.32 565.618C1373.02 565.618 1376.03 562.396 1376.03 558.408C1376.03 554.42 1373.02 551.198 1369.32 551.198C1365.62 551.176 1362.61 554.42 1362.61 558.408Z" fill="#C3C7C6"/>
<path d="M1212 765.714C1212 769.702 1215 772.923 1218.71 772.923C1222.41 772.923 1225.41 769.702 1225.41 765.714C1225.41 761.725 1222.41 758.504 1218.71 758.504C1215 758.482 1212 761.725 1212 765.714Z" fill="#C3C7C6"/>
<path d="M1729.24 513.11C1729.24 517.559 1732.59 521.153 1736.73 521.153C1740.87 521.153 1744.23 517.559 1744.23 513.11C1744.23 508.662 1740.87 505.068 1736.73 505.068C1732.59 505.068 1729.24 508.662 1729.24 513.11Z" fill="#C3C7C6"/>
<path d="M1281.66 658.534C1281.66 662.982 1285.02 666.576 1289.16 666.576C1293.3 666.576 1296.65 662.982 1296.65 658.534C1296.65 654.085 1293.3 650.491 1289.16 650.491C1285.02 650.491 1281.66 654.085 1281.66 658.534Z" fill="#C3C7C6"/>
<path d="M1226.92 902.019C1231.15 902.019 1234.57 898.35 1234.57 893.823C1234.57 889.297 1231.15 885.627 1226.92 885.627C1222.7 885.627 1219.28 889.297 1219.28 893.823C1219.28 898.35 1222.7 902.019 1226.92 902.019Z" fill="#C3C7C6"/>
<path d="M1486.08 526.611C1486.08 531.147 1489.5 534.807 1493.73 534.807C1497.96 534.807 1501.37 531.147 1501.37 526.611C1501.37 522.075 1497.96 518.415 1493.73 518.415C1489.5 518.415 1486.08 522.075 1486.08 526.611Z" fill="#C3C7C6"/>
<path d="M1917.76 666.881C1917.76 671.418 1921.18 675.077 1925.41 675.077C1929.64 675.077 1933.06 671.418 1933.06 666.881C1933.06 662.345 1929.64 658.686 1925.41 658.686C1921.18 658.686 1917.76 662.345 1917.76 666.881Z" fill="#C3C7C6"/>
<path d="M1866.51 902.72C1871.09 902.72 1874.81 898.737 1874.81 893.823C1874.81 888.909 1871.09 884.926 1866.51 884.926C1861.92 884.926 1858.2 888.909 1858.2 893.823C1858.2 898.737 1861.92 902.72 1866.51 902.72Z" fill="#C3C7C6"/>
<path d="M1691.37 661.643C1695.96 661.643 1699.67 657.66 1699.67 652.746C1699.67 647.833 1695.96 643.849 1691.37 643.849C1686.78 643.849 1683.06 647.833 1683.06 652.746C1683.06 657.66 1686.78 661.643 1691.37 661.643Z" fill="#C3C7C6"/>
<path d="M1399.65 1042.82C1399.65 1047.73 1403.38 1051.71 1407.96 1051.71C1412.54 1051.71 1416.26 1047.73 1416.26 1042.82C1416.26 1037.91 1412.54 1033.92 1407.96 1033.92C1403.38 1033.92 1399.65 1037.91 1399.65 1042.82Z" fill="#C3C7C6"/>
<path d="M1399.65 744.829C1399.65 749.737 1403.38 753.726 1407.96 753.726C1412.54 753.726 1416.26 749.737 1416.26 744.829C1416.26 739.92 1412.54 735.932 1407.96 735.932C1403.38 735.932 1399.65 739.92 1399.65 744.829Z" fill="#C3C7C6"/>
<path d="M1604.37 893.823C1604.37 898.929 1608.25 903.071 1613.03 903.071C1617.8 903.071 1621.68 898.929 1621.68 893.823C1621.68 888.717 1617.8 884.575 1613.03 884.575C1608.25 884.575 1604.37 888.717 1604.37 893.823Z" fill="#C3C7C6"/>
</g>
</g>
<defs>
<radialGradient id="paint0_radial" cx="0" cy="0" r="1" gradientUnits="userSpaceOnUse" gradientTransform="translate(160.727 116.706) scale(251.422)">
<stop stop-color="#E6EAEA"/>
<stop offset="1" stop-color="#C3C7C6"/>
</radialGradient>
<radialGradient id="paint1_radial" cx="0" cy="0" r="1" gradientUnits="userSpaceOnUse" gradientTransform="translate(1616.06 893.822) scale(406.801)">
<stop stop-color="#E6EAEA"/>
<stop offset="1" stop-color="#C3C7C6"/>
</radialGradient>
<clipPath id="clip0">
<rect width="1920" height="1080" fill="white"/>
</clipPath>
</defs>
</svg>
