<svg width="32" height="32" viewBox="0 0 32 32" fill="none" xmlns="http://www.w3.org/2000/svg">
<path d="M24.3871 8.28125H14.0646C13.1613 8.28125 12.4517 9.00313 12.4517 9.92188V24.3594C12.4517 25.2781 13.1613 26 14.0646 26H21.0968C22 26 22.7097 25.2781 22.7097 24.3594V22.5875H24.3871C25.2904 22.5875 26 21.8656 26 20.9469V9.92188C26 9.00313 25.2904 8.28125 24.3871 8.28125ZM20.0646 20.75H15.6775C15.2904 20.75 15.0323 20.4875 15.0323 20.0938C15.0323 19.7 15.2904 19.4375 15.6775 19.4375H20.0646C20.4517 19.4375 20.7097 19.7 20.7097 20.0938C20.7097 20.4875 20.3871 20.75 20.0646 20.75ZM22.7742 18.125H15.6775C15.2904 18.125 15.0323 17.8625 15.0323 17.4688C15.0323 17.075 15.2904 16.8125 15.6775 16.8125H22.7742C23.1613 16.8125 23.4194 17.075 23.4194 17.4688C23.4194 17.8625 23.1613 18.125 22.7742 18.125ZM22.7742 15.5H15.6775C15.2904 15.5 15.0323 15.2375 15.0323 14.8438C15.0323 14.45 15.2904 14.1875 15.6775 14.1875H22.7742C23.1613 14.1875 23.4194 14.45 23.4194 14.8438C23.4194 15.2375 23.1613 15.5 22.7742 15.5ZM22.7742 12.875H15.6775C15.2904 12.875 15.0323 12.6125 15.0323 12.2188C15.0323 11.825 15.2904 11.5625 15.6775 11.5625H22.7742C23.1613 11.5625 23.4194 11.825 23.4194 12.2188C23.4194 12.6125 23.1613 12.875 22.7742 12.875Z" fill="#ED1C24"/>
<path d="M17.9355 5H7.6129C6.70968 5 6 5.72188 6 6.64063V21.0781C6 21.9969 6.70968 22.7188 7.6129 22.7188H11.1613V18.7813H9.22581C8.90323 18.7813 8.58065 18.5188 8.58065 18.125C8.58065 17.7969 8.90323 17.4688 9.22581 17.4688H11.1613V16.1563H9.22581C8.90323 16.1563 8.58065 15.8938 8.58065 15.5C8.58065 15.1719 8.90323 14.8438 9.22581 14.8438H11.1613V13.5313H9.22581C8.90323 13.5313 8.58065 13.2688 8.58065 12.875C8.58065 12.5469 8.90323 12.2188 9.22581 12.2188H11.1613V10.9063H9.22581C8.90323 10.9063 8.58065 10.5781 8.58065 10.25C8.58065 9.92188 8.90323 9.59375 9.22581 9.59375H11.1613C11.3548 8.08438 12.5161 6.96875 14.0645 6.96875H19.5484V6.64063C19.5484 5.72188 18.8387 5 17.9355 5Z" fill="#ED1C24"/>
</svg>
