<svg width="16" height="16" viewBox="0 0 16 16" fill="none" xmlns="http://www.w3.org/2000/svg">
<path d="M15.2 9.9C14.2 9.6 12.6 9.1 12.1 9C12 9 12 8.9 12 8.8V2.6C12 2.4 12 2.3 11.8 2.2C11.8 2.2 9.4 0.7 8.6 0.2C8.6 0.2 8.4 0 8 0C7.7 0 7.5 0.1 7.4 0.2C6.7 0.8 4.2 2.3 4.2 2.3C4.1 2.4 4 2.5 4 2.7V8.9C4 9 4 9 3.9 9.1C3.5 9.2 2 9.6 1 9.9C0.1 10.1 0 10.6 0 11V14.4C0 15.1 0.4 15.4 1 15.4H15C16 15.4 16 14.6 16 14V11C16 10.4 15.6 10.1 15.2 9.9ZM8 14C8 14.2 7.8 14.4 7.6 14.4H5.4C5.2 14.4 5 14.2 5 14V2.9C5 2.8 5.1 2.7 5.2 2.6L7.6 1.3C7.7 1.2 8.1 1.3 8.1 1.5V14H8ZM15 13.8C15 14 14.9 14.2 14.6 14.1L12.5 13.5C12.1 13.4 12 13.3 12 13V12.5C12 12.2 12.2 12.1 12.5 12.2L14.7 12.9C14.9 13 15 13.1 15 13.5V13.8ZM15 11.6C15 11.8 14.9 12 14.6 11.9L12.4 11.4C12.1 11.3 12 11.2 12 10.9V10.4C12 10.1 12.2 10 12.5 10.1L14.7 10.8C14.9 10.9 15 11 15 11.4V11.6Z" fill="#202121"/>
</svg>
