<svg width="24" height="25" viewBox="0 0 24 25" fill="none" xmlns="http://www.w3.org/2000/svg">
<path d="M2.44954 24.7951H8.11133V21.2613H2.44954V24.7951ZM9.51679 24.7951H15.1787V17.6874H9.51679V24.7951ZM16.6244 24.7951H22.3263V14.1536H16.6244V24.7951ZM11.0025 17.0047L11.2434 16.8843L11.4845 16.7638L11.4041 16.4827C11.3238 16.1213 11.2836 15.7197 11.2836 15.3181C11.2836 13.6717 12.1269 12.2261 13.4119 11.3426L13.0103 10.7403C11.5647 11.7442 10.6011 13.3906 10.6011 15.3181C10.6011 15.4788 10.6011 15.6394 10.6011 15.8C9.99873 15.4386 9.31609 15.2378 8.5933 15.2378C6.54538 15.2378 4.85881 16.7236 4.53757 18.6512C4.05571 18.3299 3.49347 18.2094 2.97145 18.2094C2.2085 18.2094 1.4456 18.4905 0.883422 19.0929C0.321247 19.6551 0 20.4181 0 21.1811C0 21.944 0.281092 22.707 0.883422 23.2692L1.36527 22.7873C0.923558 22.3456 0.722766 21.7834 0.722766 21.1811C0.722766 20.6189 0.963713 20.0165 1.36527 19.5747C1.80697 19.133 2.36912 18.9322 2.97145 18.9322C3.53363 18.9322 4.13606 19.133 4.57777 19.5747L4.69823 19.6952H4.89895H5.26034V19.3338C5.26034 17.4866 6.78622 15.9607 8.63337 15.9607C9.47663 15.9607 10.2797 16.2819 10.8821 16.8039L11.0025 17.0047ZM20.5194 2.62861C21.2422 2.74908 21.9248 2.26718 22.0452 1.54436C22.1255 0.982168 21.8847 0.179076 20.9611 0.0184487C20.2383 -0.102021 19.5556 0.379876 19.4352 1.1027C19.3147 1.82552 19.7966 2.50814 20.5194 2.62861ZM23.5311 6.76475L21.724 5.88129C21.724 5.88129 21.2021 4.43565 20.8808 3.5522C20.7202 3.03016 19.7966 2.74911 19.0738 2.78927L17.1062 3.0302C17.1062 3.0302 16.8652 3.07035 16.6644 3.15067C16.5038 3.23098 16.2629 3.47193 16.2629 3.47193L14.8976 5.27897C14.6567 5.56006 14.6968 6.00177 15.0181 6.20255C15.2991 6.44349 15.7811 6.28288 15.9819 5.96162L17.2267 4.39552C17.2267 4.39552 17.5479 4.35534 17.9896 4.31518C17.6684 6.20255 17.0258 9.33477 17.0258 9.33477L15.0181 9.97729C14.5763 10.0576 14.2551 10.5395 14.3756 10.9812C14.496 11.4229 14.8575 11.6237 15.3394 11.5434C15.3795 11.5434 15.3794 11.5434 15.3794 11.5434L18.4313 10.4994L18.7927 8.57178L20.2784 9.65603L19.8367 12.3465C19.7564 12.8284 20.0777 13.23 20.5194 13.3103C21.0013 13.3906 21.3626 13.0693 21.4027 12.5875V12.5473L21.9248 9.33477C21.9649 9.13399 21.8847 8.9734 21.7642 8.81278L19.2745 6.76475L19.6761 4.43565L20.3588 6.36322C20.3588 6.36322 20.4793 6.64432 20.6399 6.80494C20.8407 6.96557 21.0413 7.04587 21.0413 7.04587L23.009 7.96946C23.3303 8.13009 23.7318 8.00961 23.9325 7.6482C24.1333 7.32694 23.8523 6.88522 23.5311 6.76475Z" fill="#ED1C24"/>
</svg>
