<svg width="16" height="16" viewBox="0 0 16 16" fill="none" xmlns="http://www.w3.org/2000/svg">
<path d="M13.9435 7.44365L8.54435 3.88851C8.18885 3.66631 7.63338 3.66631 7.3001 3.88851L2.10091 7.31033C1.76763 7.53253 1.47878 8.06577 1.47878 8.46572V14.265C1.47878 14.665 1.81206 15.0205 2.23422 15.0205H4.63382C5.03376 15.0205 5.38925 14.6872 5.38925 14.265V10.2433C5.38925 9.82112 5.72259 9.48784 6.14475 9.48784H9.96639C10.3663 9.48784 10.6996 9.82112 10.6996 10.2433V14.265C10.6996 14.665 11.0329 15.0205 11.455 15.0205H13.8324C14.2324 15.0205 14.5879 14.6872 14.5879 14.265V8.62128C14.5657 8.19911 14.2768 7.66584 13.9435 7.44365ZM15.6322 6.08825L15.1878 5.79939C14.8545 5.57719 14.5656 5.04395 14.5656 4.644V3.46633C14.5656 3.04416 14.2324 2.71088 13.8102 2.71088H13.6769C13.2547 2.71088 12.9215 3.04416 12.9215 3.46633V3.57744C12.9215 3.97739 12.6326 4.13295 12.2993 3.91075L8.56659 1.42214C8.23331 1.19995 7.92225 1 7.87781 1C7.83338 1 7.52232 1.17774 7.18904 1.39993L0.367844 5.91049C0.034562 6.13269 -0.0987616 6.55487 0.0789888 6.8215C0.256739 7.08814 0.701099 7.13256 1.03438 6.91037L7.25569 2.79978C7.61119 2.57758 8.16666 2.57758 8.49994 2.79978L14.9656 7.08813C15.2989 7.31032 15.7433 7.2659 15.921 6.99926C16.0988 6.73263 15.9654 6.31045 15.6322 6.08825Z" fill="white"/>
</svg>
