<svg width="32" height="32" viewBox="0 0 32 32" fill="none" xmlns="http://www.w3.org/2000/svg">
<path d="M24.8871 8.28125H14.5646C13.6613 8.28125 12.9517 9.00313 12.9517 9.92188V24.3594C12.9517 25.2781 13.6613 26 14.5646 26H21.5968C22.5 26 23.2097 25.2781 23.2097 24.3594V22.5875H24.8871C25.7904 22.5875 26.5 21.8656 26.5 20.9469V9.92188C26.5 9.00313 25.7904 8.28125 24.8871 8.28125ZM20.5646 20.75H16.1775C15.7904 20.75 15.5323 20.4875 15.5323 20.0938C15.5323 19.7 15.7904 19.4375 16.1775 19.4375H20.5646C20.9517 19.4375 21.2097 19.7 21.2097 20.0938C21.2097 20.4875 20.8871 20.75 20.5646 20.75ZM23.2742 18.125H16.1775C15.7904 18.125 15.5323 17.8625 15.5323 17.4688C15.5323 17.075 15.7904 16.8125 16.1775 16.8125H23.2742C23.6613 16.8125 23.9194 17.075 23.9194 17.4688C23.9194 17.8625 23.6613 18.125 23.2742 18.125ZM23.2742 15.5H16.1775C15.7904 15.5 15.5323 15.2375 15.5323 14.8438C15.5323 14.45 15.7904 14.1875 16.1775 14.1875H23.2742C23.6613 14.1875 23.9194 14.45 23.9194 14.8438C23.9194 15.2375 23.6613 15.5 23.2742 15.5ZM23.2742 12.875H16.1775C15.7904 12.875 15.5323 12.6125 15.5323 12.2188C15.5323 11.825 15.7904 11.5625 16.1775 11.5625H23.2742C23.6613 11.5625 23.9194 11.825 23.9194 12.2188C23.9194 12.6125 23.6613 12.875 23.2742 12.875Z" fill="#202121"/>
<path d="M18.4355 5H8.1129C7.20968 5 6.5 5.72188 6.5 6.64063V21.0781C6.5 21.9969 7.20968 22.7188 8.1129 22.7188H11.6613V18.7813H9.72581C9.40323 18.7813 9.08065 18.5188 9.08065 18.125C9.08065 17.7969 9.40323 17.4688 9.72581 17.4688H11.6613V16.1563H9.72581C9.40323 16.1563 9.08065 15.8938 9.08065 15.5C9.08065 15.1719 9.40323 14.8438 9.72581 14.8438H11.6613V13.5313H9.72581C9.40323 13.5313 9.08065 13.2688 9.08065 12.875C9.08065 12.5469 9.40323 12.2188 9.72581 12.2188H11.6613V10.9063H9.72581C9.40323 10.9063 9.08065 10.5781 9.08065 10.25C9.08065 9.92188 9.40323 9.59375 9.72581 9.59375H11.6613C11.8548 8.08438 13.0161 6.96875 14.5645 6.96875H20.0484V6.64063C20.0484 5.72188 19.3387 5 18.4355 5Z" fill="#202121"/>
</svg>
