<svg width="25" height="24" viewBox="0 0 25 24" fill="none" xmlns="http://www.w3.org/2000/svg">
<path d="M12.2685 17.0649C12.2342 16.9619 12.1999 16.8589 12.1655 16.7559C12.0969 16.4812 11.9595 16.2408 11.8565 16.0005C11.6505 15.6571 11.4445 15.3481 11.1699 15.0735C11.0325 14.9361 10.8951 14.8331 10.7578 14.7301C10.0711 14.215 9.21277 13.906 8.32007 13.906H4.81791C2.55182 13.906 0.697754 15.7602 0.697754 18.0263V23.5201H3.10118V17.8203H3.92523V23.5201H9.10975V17.8203H9.93381V23.5201H12.4402V18.0263C12.4402 17.786 12.4059 17.5456 12.3715 17.3396C12.3372 17.2709 12.3029 17.168 12.2685 17.0649ZM6.53465 13.3567C8.04538 13.3567 9.28144 12.1206 9.28144 10.6098C9.28144 9.099 8.04538 7.89721 6.53465 7.89721C5.02392 7.89721 3.82223 9.099 3.82223 10.6098C3.78789 12.1549 5.02392 13.3567 6.53465 13.3567ZM12.9209 16.0349C13.1956 16.6529 13.3673 17.3396 13.3673 18.0607V21.5973H18.1741L24.6978 16.0349H12.9209ZM15.8394 5.15038C17.2471 5.15038 18.4145 4.0173 18.4145 2.57519C18.4145 1.16742 17.2814 0 15.8394 0C14.4317 0 13.2643 1.13308 13.2643 2.57519C13.2643 3.98296 14.4317 5.15038 15.8394 5.15038ZM13.3673 15.1078H18.2428V9.33937H19.0325V15.1078H21.3673V9.54537C21.3673 7.41655 19.6505 5.6654 17.4874 5.6654H16.5261L16.6634 5.76841C16.7664 5.83708 16.8351 6.00876 16.8008 6.1461L16.4574 7.0045L17.0754 12.0176L15.908 13.0476L14.775 12.0176L15.393 7.0045L15.0496 6.1461C14.981 6.00876 15.0497 5.83708 15.187 5.76841L15.3243 5.6654H14.2256C12.0969 5.6654 10.3458 7.38221 10.3458 9.54537V13.4597C11.1698 13.8374 11.8909 14.3867 12.4059 15.1078H12.6119V9.33937H13.4016V15.1078H13.3673Z" fill="#FCFCFC"/>
</svg>
