<svg width="16" height="16" viewBox="0 0 16 16" fill="none" xmlns="http://www.w3.org/2000/svg">
<path d="M8 1C5.23988 1 3 3.40181 3 6.34086C3 7.51016 3.34682 8.61625 3.99711 9.53273L7.62428 14.7946C7.71098 14.921 7.85549 15 8 15C8.14451 15 8.28902 14.921 8.37572 14.7946L12.0029 9.53273C12.6532 8.60045 13 7.49436 13 6.34086C13 3.386 10.7601 1 8 1ZM8 8.93228C6.61272 8.93228 5.4711 7.69977 5.4711 6.16704C5.4711 4.65011 6.59827 3.40181 8 3.40181C9.38728 3.40181 10.5289 4.63431 10.5289 6.16704C10.5289 7.68397 9.38728 8.93228 8 8.93228Z" fill="#202121"/>
</svg>
