<svg width="16" height="16" viewBox="0 0 16 16" fill="none" xmlns="http://www.w3.org/2000/svg">
<path d="M13.5393 15H2.46067C1.65567 15 1 14.3449 1 13.5393V3.62792C1 2.82233 1.65567 2.16667 2.46125 2.16667H13.5388C14.3443 2.16667 15 2.82233 15 3.62792V13.5393C15 14.3449 14.3449 15 13.5393 15ZM2.46125 3.33333C2.29908 3.33333 2.16667 3.46575 2.16667 3.62792V13.5393C2.16667 13.7015 2.2985 13.8333 2.46067 13.8333H13.5393C13.7015 13.8333 13.8333 13.7015 13.8333 13.5393V3.62792C13.8333 3.46575 13.7009 3.33333 13.5388 3.33333H2.46125ZM14.4167 5.66667H1.58333C1.26133 5.66667 1 5.40533 1 5.08333C1 4.76133 1.26133 4.5 1.58333 4.5H14.4167C14.7392 4.5 15 4.76133 15 5.08333C15 5.40533 14.7392 5.66667 14.4167 5.66667ZM3.91667 3.91667C3.59467 3.91667 3.33333 3.65533 3.33333 3.33333V1.58333C3.33333 1.26133 3.59467 1 3.91667 1C4.23867 1 4.5 1.26133 4.5 1.58333V3.33333C4.5 3.65533 4.23867 3.91667 3.91667 3.91667ZM12.0833 3.91667C11.7607 3.91667 11.5 3.65533 11.5 3.33333V1.58333C11.5 1.26133 11.7607 1 12.0833 1C12.4059 1 12.6667 1.26133 12.6667 1.58333V3.33333C12.6667 3.65533 12.4059 3.91667 12.0833 3.91667Z" fill="#202121"/>
<path d="M4.5 12.6667C4.82217 12.6667 5.08333 12.4055 5.08333 12.0833C5.08333 11.7612 4.82217 11.5 4.5 11.5C4.17783 11.5 3.91667 11.7612 3.91667 12.0833C3.91667 12.4055 4.17783 12.6667 4.5 12.6667Z" fill="#202121"/>
<path d="M4.5 10.3333C4.82217 10.3333 5.08333 10.0722 5.08333 9.75C5.08333 9.42783 4.82217 9.16667 4.5 9.16667C4.17783 9.16667 3.91667 9.42783 3.91667 9.75C3.91667 10.0722 4.17783 10.3333 4.5 10.3333Z" fill="#202121"/>
<path d="M6.25 12.6667C6.57217 12.6667 6.83333 12.4055 6.83333 12.0833C6.83333 11.7612 6.57217 11.5 6.25 11.5C5.92783 11.5 5.66667 11.7612 5.66667 12.0833C5.66667 12.4055 5.92783 12.6667 6.25 12.6667Z" fill="#202121"/>
<path d="M6.25 10.3333C6.57217 10.3333 6.83333 10.0722 6.83333 9.75C6.83333 9.42783 6.57217 9.16667 6.25 9.16667C5.92783 9.16667 5.66667 9.42783 5.66667 9.75C5.66667 10.0722 5.92783 10.3333 6.25 10.3333Z" fill="#202121"/>
<path d="M6.25 8C6.57217 8 6.83333 7.73883 6.83333 7.41667C6.83333 7.0945 6.57217 6.83333 6.25 6.83333C5.92783 6.83333 5.66667 7.0945 5.66667 7.41667C5.66667 7.73883 5.92783 8 6.25 8Z" fill="#202121"/>
<path d="M9.75 12.6667C10.0722 12.6667 10.3333 12.4055 10.3333 12.0833C10.3333 11.7612 10.0722 11.5 9.75 11.5C9.42783 11.5 9.16667 11.7612 9.16667 12.0833C9.16667 12.4055 9.42783 12.6667 9.75 12.6667Z" fill="#202121"/>
<path d="M9.75 10.3333C10.0722 10.3333 10.3333 10.0722 10.3333 9.75C10.3333 9.42783 10.0722 9.16667 9.75 9.16667C9.42783 9.16667 9.16667 9.42783 9.16667 9.75C9.16667 10.0722 9.42783 10.3333 9.75 10.3333Z" fill="#202121"/>
<path d="M9.75 8C10.0722 8 10.3333 7.73883 10.3333 7.41667C10.3333 7.0945 10.0722 6.83333 9.75 6.83333C9.42783 6.83333 9.16667 7.0945 9.16667 7.41667C9.16667 7.73883 9.42783 8 9.75 8Z" fill="#202121"/>
<path d="M11.5 10.3333C11.8222 10.3333 12.0833 10.0722 12.0833 9.75C12.0833 9.42783 11.8222 9.16667 11.5 9.16667C11.1778 9.16667 10.9167 9.42783 10.9167 9.75C10.9167 10.0722 11.1778 10.3333 11.5 10.3333Z" fill="#202121"/>
<path d="M11.5 8C11.8222 8 12.0833 7.73883 12.0833 7.41667C12.0833 7.0945 11.8222 6.83333 11.5 6.83333C11.1778 6.83333 10.9167 7.0945 10.9167 7.41667C10.9167 7.73883 11.1778 8 11.5 8Z" fill="#202121"/>
<path d="M8 12.6667C8.32217 12.6667 8.58333 12.4055 8.58333 12.0833C8.58333 11.7612 8.32217 11.5 8 11.5C7.67783 11.5 7.41667 11.7612 7.41667 12.0833C7.41667 12.4055 7.67783 12.6667 8 12.6667Z" fill="#202121"/>
<path d="M8 10.3333C8.32217 10.3333 8.58333 10.0722 8.58333 9.75C8.58333 9.42783 8.32217 9.16667 8 9.16667C7.67783 9.16667 7.41667 9.42783 7.41667 9.75C7.41667 10.0722 7.67783 10.3333 8 10.3333Z" fill="#202121"/>
<path d="M8 8C8.32217 8 8.58333 7.73883 8.58333 7.41667C8.58333 7.0945 8.32217 6.83333 8 6.83333C7.67783 6.83333 7.41667 7.0945 7.41667 7.41667C7.41667 7.73883 7.67783 8 8 8Z" fill="#202121"/>
</svg>
