<svg width="25" height="16" viewBox="0 0 25 16" fill="none" xmlns="http://www.w3.org/2000/svg">
<path d="M0.697754 10.6052H2.67323V4.71327H0.697754V10.6052ZM14.7685 5.85694V0.138374L3.64362 4.71327V10.6052L8.14904 12.4767L9.08474 12.858L14.7339 15.18V9.39214C15.1151 9.35748 15.4963 9.18421 15.7736 8.87229C16.4667 8.17913 16.4667 7.03537 15.7736 6.34221C15.531 6.06494 15.1497 5.8916 14.7685 5.85694ZM19.7938 2.39113C19.5512 2.14852 19.17 2.14852 18.9274 2.39113C18.6848 2.63374 18.6848 3.01498 18.9274 3.25758C21.3187 5.68365 21.3187 9.60009 18.9274 11.9915C18.6848 12.2341 18.6848 12.6153 18.9274 12.858C19.17 13.1006 19.5512 13.1006 19.7938 12.858C22.6703 9.94667 22.6703 5.26776 19.7938 2.39113ZM21.7346 0.450285C21.492 0.207678 21.1107 0.207678 20.9028 0.450285C20.6602 0.692892 20.6602 1.0742 20.9028 1.28215C24.4032 4.78262 24.4032 10.4319 20.9028 13.9323C20.6602 14.175 20.6602 14.5562 20.9028 14.7641C21.1454 15.0067 21.5266 15.0067 21.7346 14.7641C25.6855 10.8131 25.6855 4.40131 21.7346 0.450285ZM17.8183 4.36667C17.5757 4.12406 17.1945 4.12406 16.9865 4.36667C16.7439 4.60928 16.7439 4.99059 16.9865 5.19854C18.3382 6.5502 18.3382 8.69899 16.9865 10.0507C16.7439 10.2933 16.7439 10.6745 16.9865 10.8824C17.2291 11.125 17.5757 11.125 17.8183 10.8824C19.6205 9.08019 19.6205 6.16889 17.8183 4.36667ZM6.48547 14.1403C5.54973 14.1403 4.78731 13.3778 4.78731 12.4421C4.78731 12.2341 4.82194 11.9914 4.92591 11.8181L4.02485 11.437C3.88622 11.7489 3.81692 12.0955 3.81692 12.4421C3.81692 13.9324 4.99522 15.1107 6.48547 15.1107C7.59449 15.1107 8.56491 14.4175 8.94614 13.4471L8.04502 13.0659C7.80242 13.7244 7.17861 14.1403 6.48547 14.1403Z" fill="#FCFCFC"/>
</svg>
