<svg width="16" height="16" viewBox="0 0 16 16" fill="none" xmlns="http://www.w3.org/2000/svg">
<path d="M2.30968 11.1696H1.43656C1.19844 11.1696 1 11.3778 1 11.6058V12.4783C1 12.7162 1.20836 12.9145 1.43656 12.9145H2.30968C2.5478 12.9145 2.74624 12.7063 2.74624 12.4783V11.6058C2.74624 11.3678 2.5478 11.1696 2.30968 11.1696Z" fill="#202121"/>
<path d="M2.30968 7.08472H1.43656C1.19844 7.08472 1 7.29292 1 7.52095V8.39343C1 8.63137 1.20836 8.82966 1.43656 8.82966H2.30968C2.5478 8.82966 2.74624 8.62146 2.74624 8.39343V7.52095C2.74624 7.28301 2.5478 7.08472 2.30968 7.08472Z" fill="#202121"/>
<path d="M4.35355 8.82966H13.4022C13.6404 8.82966 13.8388 8.62146 13.8388 8.39343V7.52095C13.8388 7.28301 13.6304 7.08472 13.4022 7.08472H4.35355C4.11543 7.08472 3.91699 7.29292 3.91699 7.52095V8.39343C3.91699 8.63137 4.12535 8.82966 4.35355 8.82966Z" fill="#202121"/>
<path d="M2.30968 3H1.43656C1.20836 3 1 3.2082 1 3.43624V4.30871C1 4.54666 1.20836 4.74495 1.43656 4.74495H2.30968C2.5478 4.74495 2.74624 4.53674 2.74624 4.30871V3.43624C2.74624 3.2082 2.5478 3 2.30968 3Z" fill="#202121"/>
<path d="M14.573 11.1696H4.35355C4.11543 11.1696 3.91699 11.3778 3.91699 11.6058V12.4783C3.91699 12.7162 4.12535 12.9145 4.35355 12.9145H14.5631C14.8012 12.9145 14.9996 12.7063 14.9996 12.4783V11.6058C15.0096 11.3678 14.8012 11.1696 14.573 11.1696Z" fill="#202121"/>
<path d="M14.573 3H4.35355C4.11543 3 3.91699 3.2082 3.91699 3.43624V4.30871C3.91699 4.54666 4.12535 4.74495 4.35355 4.74495H14.5631C14.8012 4.74495 14.9996 4.53674 14.9996 4.30871V3.43624C15.0096 3.2082 14.8012 3 14.573 3Z" fill="#202121"/>
</svg>
