<svg width="10" height="10" viewBox="0 0 10 10" fill="none" xmlns="http://www.w3.org/2000/svg">
<path d="M4.99989 0C3.70681 0 2.65614 0.908678 2.65614 2.02701V5.27022C2.65614 6.38855 3.70681 7.29723 4.99989 7.29723C6.29297 7.29723 7.34364 6.38855 7.34364 5.27022V2.02701C7.34364 0.908678 6.29297 0 4.99989 0V0ZM1.56742 3.64861C1.40055 3.64635 1.24741 3.77879 1.25003 3.9231V5.27444C1.25003 6.97607 2.76097 8.36852 4.68753 8.50511V9.45951H3.4375C3.26486 9.45951 3.12503 9.58054 3.12503 9.72976C3.12503 9.87907 3.26498 10 3.4375 10H6.5625C6.73514 10 6.87497 9.87897 6.87497 9.72976C6.87497 9.58045 6.73503 9.45951 6.5625 9.45951H5.31248V8.50511C7.23901 8.36862 8.74997 6.97619 8.74997 5.27444V3.9231C8.75226 3.7803 8.60262 3.649 8.4375 3.649C8.27238 3.649 8.12263 3.78031 8.12503 3.9231V5.27444C8.12503 6.77641 6.73669 7.97712 5.00003 7.97712C3.26337 7.97712 1.87503 6.77641 1.87503 5.27444V3.9231C1.87765 3.78162 1.73105 3.65079 1.56747 3.64861H1.56742Z" fill="white"/>
</svg>
