<svg width="16" height="16" viewBox="0 0 16 16" fill="none" xmlns="http://www.w3.org/2000/svg">
<path d="M8 1C6.61553 1 5.26215 1.41054 4.11101 2.17971C2.95987 2.94888 2.06266 4.04213 1.53285 5.32122C1.00303 6.6003 0.86441 8.00776 1.13451 9.36563C1.4046 10.7235 2.07129 11.9708 3.05026 12.9497C4.02922 13.9287 5.2765 14.5954 6.63437 14.8655C7.99224 15.1356 9.3997 14.997 10.6788 14.4672C11.9579 13.9373 13.0511 13.0401 13.8203 11.889C14.5895 10.7378 15 9.38447 15 8C15 6.14348 14.2625 4.36301 12.9497 3.05025C11.637 1.7375 9.85652 1 8 1V1ZM8.02484 12.542C7.24292 12.9199 6.03399 12.5948 6.24495 11.8075L7.38526 7.55184C7.78414 6.06315 6.68713 6.55127 6.19577 6.76693C6.49627 6.31518 6.91229 5.95217 7.40057 5.71562C8.18248 5.33771 9.39142 5.66282 9.18049 6.45012L8.04018 10.7058C7.64127 12.1945 8.73828 11.7064 9.22963 11.4907C8.92915 11.9425 8.51313 12.3055 8.02484 12.542ZM9.78088 4.2107C9.7438 4.34908 9.66652 4.47335 9.55881 4.56781C9.45111 4.66227 9.31781 4.72267 9.17577 4.74138C9.03374 4.76008 8.88935 4.73624 8.76086 4.67288C8.63237 4.60952 8.52556 4.50948 8.45393 4.38542C8.38229 4.26135 8.34906 4.11883 8.35843 3.97587C8.36779 3.83292 8.41934 3.69595 8.50655 3.5823C8.59376 3.46864 8.71271 3.38339 8.84837 3.33734C8.98403 3.29129 9.13029 3.2865 9.26867 3.32357C9.45423 3.3733 9.61244 3.4947 9.70849 3.66106C9.80455 3.82743 9.83059 4.02514 9.78088 4.2107V4.2107Z" fill="#818285"/>
</svg>
