<svg width="32" height="32" viewBox="0 0 32 32" fill="none" xmlns="http://www.w3.org/2000/svg">
<path d="M25.496 28H6.504C5.124 28 4 26.877 4 25.496V8.505C4 7.124 5.124 6 6.505 6H25.495C26.876 6 28 7.124 28 8.505V25.496C28 26.877 26.877 28 25.496 28ZM6.505 8C6.227 8 6 8.227 6 8.505V25.496C6 25.774 6.226 26 6.504 26H25.496C25.774 26 26 25.774 26 25.496V8.505C26 8.227 25.773 8 25.495 8H6.505ZM27 12H5C4.448 12 4 11.552 4 11C4 10.448 4.448 10 5 10H27C27.553 10 28 10.448 28 11C28 11.552 27.553 12 27 12ZM9 9C8.448 9 8 8.552 8 8V5C8 4.448 8.448 4 9 4C9.552 4 10 4.448 10 5V8C10 8.552 9.552 9 9 9ZM23 9C22.447 9 22 8.552 22 8V5C22 4.448 22.447 4 23 4C23.553 4 24 4.448 24 5V8C24 8.552 23.553 9 23 9Z" fill="#202121"/>
<path d="M10 24C10.5523 24 11 23.5523 11 23C11 22.4477 10.5523 22 10 22C9.44772 22 9 22.4477 9 23C9 23.5523 9.44772 24 10 24Z" fill="#202121"/>
<path d="M10 20C10.5523 20 11 19.5523 11 19C11 18.4477 10.5523 18 10 18C9.44772 18 9 18.4477 9 19C9 19.5523 9.44772 20 10 20Z" fill="#202121"/>
<path d="M13 24C13.5523 24 14 23.5523 14 23C14 22.4477 13.5523 22 13 22C12.4477 22 12 22.4477 12 23C12 23.5523 12.4477 24 13 24Z" fill="#202121"/>
<path d="M13 20C13.5523 20 14 19.5523 14 19C14 18.4477 13.5523 18 13 18C12.4477 18 12 18.4477 12 19C12 19.5523 12.4477 20 13 20Z" fill="#202121"/>
<path d="M13 16C13.5523 16 14 15.5523 14 15C14 14.4477 13.5523 14 13 14C12.4477 14 12 14.4477 12 15C12 15.5523 12.4477 16 13 16Z" fill="#202121"/>
<path d="M19 24C19.5523 24 20 23.5523 20 23C20 22.4477 19.5523 22 19 22C18.4477 22 18 22.4477 18 23C18 23.5523 18.4477 24 19 24Z" fill="#202121"/>
<path d="M19 20C19.5523 20 20 19.5523 20 19C20 18.4477 19.5523 18 19 18C18.4477 18 18 18.4477 18 19C18 19.5523 18.4477 20 19 20Z" fill="#202121"/>
<path d="M19 16C19.5523 16 20 15.5523 20 15C20 14.4477 19.5523 14 19 14C18.4477 14 18 14.4477 18 15C18 15.5523 18.4477 16 19 16Z" fill="#202121"/>
<path d="M22 20C22.5523 20 23 19.5523 23 19C23 18.4477 22.5523 18 22 18C21.4477 18 21 18.4477 21 19C21 19.5523 21.4477 20 22 20Z" fill="#202121"/>
<path d="M22 16C22.5523 16 23 15.5523 23 15C23 14.4477 22.5523 14 22 14C21.4477 14 21 14.4477 21 15C21 15.5523 21.4477 16 22 16Z" fill="#202121"/>
<path d="M16 24C16.5523 24 17 23.5523 17 23C17 22.4477 16.5523 22 16 22C15.4477 22 15 22.4477 15 23C15 23.5523 15.4477 24 16 24Z" fill="#202121"/>
<path d="M16 20C16.5523 20 17 19.5523 17 19C17 18.4477 16.5523 18 16 18C15.4477 18 15 18.4477 15 19C15 19.5523 15.4477 20 16 20Z" fill="#202121"/>
<path d="M16 16C16.5523 16 17 15.5523 17 15C17 14.4477 16.5523 14 16 14C15.4477 14 15 14.4477 15 15C15 15.5523 15.4477 16 16 16Z" fill="#202121"/>
</svg>
