<svg width="32" height="32" viewBox="0 0 32 32" fill="none" xmlns="http://www.w3.org/2000/svg">
<path d="M25.9998 9.4821C26 9.40179 25.9821 9.32227 25.9472 9.24834C25.9123 9.17441 25.8612 9.10759 25.7969 9.05191L22.5042 6.17446C22.4231 6.10248 22.323 6.0502 22.2133 6.02251C22.1036 5.99482 21.9879 5.99264 21.8771 6.01616C21.7662 6.03968 21.6638 6.08814 21.5794 6.157C21.495 6.22585 21.4314 6.31285 21.3946 6.40985C21.3901 6.42608 20.7902 7.99265 19.0852 7.89119C18.5623 7.85843 18.0585 7.70092 17.6256 7.43486C17.1928 7.1688 16.8465 6.80379 16.6225 6.37738C16.5724 6.26692 16.4868 6.1724 16.3768 6.10589C16.2667 6.03938 16.1371 6.00391 16.0045 6.004H16C15.8676 6.00439 15.7381 6.03955 15.6276 6.10515C15.517 6.17075 15.4301 6.26395 15.3775 6.37332C15.1547 6.80092 14.8089 7.16713 14.3759 7.43401C13.9429 7.7009 13.4384 7.85874 12.9148 7.89119C11.2369 7.99265 10.628 6.47073 10.6054 6.40985C10.5686 6.31285 10.505 6.22585 10.4206 6.157C10.3362 6.08814 10.2338 6.03968 10.1229 6.01616C10.0121 5.99264 9.89637 5.99482 9.78668 6.02251C9.677 6.0502 9.57692 6.10248 9.49582 6.17446L6.20314 9.05191C6.13881 9.10759 6.08767 9.17441 6.05278 9.24834C6.0179 9.32227 6 9.40179 6.00017 9.4821C5.99812 9.5629 6.0147 9.64319 6.04886 9.71793C6.08302 9.79267 6.13401 9.86023 6.19863 9.91636C7.62847 11.207 7.44805 13.0048 6.56849 16.0812C5.69345 19.1453 6.58654 23.3458 15.797 25.9716C15.9291 26.0095 16.0709 26.0095 16.203 25.9716C25.4135 23.3458 26.3065 19.1453 25.4315 16.0812C24.552 13.0048 24.3715 11.207 25.8014 9.91636C25.866 9.86023 25.917 9.79267 25.9511 9.71793C25.9853 9.64319 26.0019 9.5629 25.9998 9.4821V9.4821ZM16.6766 16.5438V19.0317C16.6766 19.1931 16.6053 19.348 16.4784 19.4621C16.3515 19.5763 16.1794 19.6404 16 19.6404C15.8206 19.6404 15.6485 19.5763 15.5216 19.4621C15.3947 19.348 15.3234 19.1931 15.3234 19.0317V16.5438C14.8997 16.4012 14.5452 16.1292 14.3217 15.7753C14.0981 15.4214 14.0198 15.0082 14.1004 14.6076C14.1809 14.2071 14.4152 13.8448 14.7624 13.5838C15.1096 13.3229 15.5476 13.18 16 13.18C16.4524 13.18 16.8904 13.3229 17.2376 13.5838C17.5848 13.8448 17.8191 14.2071 17.8996 14.6076C17.9802 15.0082 17.9019 15.4214 17.6783 15.7753C17.4548 16.1292 17.1003 16.4012 16.6766 16.5438ZM16.5773 14.9204C16.5765 15.023 16.5418 15.123 16.4779 15.2079C16.4139 15.2928 16.3234 15.3588 16.2178 15.3975C16.1123 15.4362 15.9963 15.4459 15.8846 15.4254C15.7729 15.4049 15.6705 15.3551 15.5902 15.2823C15.5099 15.2095 15.4554 15.1169 15.4334 15.0162C15.4115 14.9156 15.4232 14.8113 15.467 14.7167C15.5109 14.622 15.5849 14.5411 15.6797 14.4842C15.7746 14.4273 15.886 14.3969 16 14.3969C16.0762 14.397 16.1515 14.4107 16.2218 14.4371C16.2921 14.4635 16.3559 14.5021 16.4095 14.5508C16.4632 14.5994 16.5056 14.6571 16.5344 14.7206C16.5632 14.784 16.5778 14.8519 16.5773 14.9204V14.9204Z" fill="#ED1C24"/>
</svg>
