<svg width="16" height="16" viewBox="0 0 16 16" fill="none" xmlns="http://www.w3.org/2000/svg">
<path d="M7.89639 1C13.0152 1.00152 15.9388 5.38866 14.7274 9.08361C14.2808 10.4455 13.3038 11.4488 12.2287 11.6998C11.3511 11.9046 10.5933 11.5668 10.1992 10.8613C9.57124 11.3883 8.76465 11.7049 7.88532 11.7049C5.87265 11.7049 4.24106 10.0461 4.24106 7.99991C4.24106 5.95369 5.87265 4.2949 7.88532 4.2949C8.70614 4.2949 9.46358 4.57079 10.0728 5.03634C10.219 4.83623 10.4545 4.70657 10.7198 4.70657C11.1351 4.70657 11.4774 5.02441 11.5241 5.43388L11.5296 5.5299V9.64658C11.5296 10.089 11.608 10.1551 11.8663 10.0948C12.3563 9.98047 12.9137 9.40806 13.1908 8.56288C14.0601 5.91169 11.885 2.64785 7.89615 2.64667C7.43468 2.64667 6.97435 2.70761 6.52291 2.83058C3.71478 3.59556 2.04831 6.53009 2.80075 9.38503C3.55318 12.24 6.4396 13.9342 9.24773 13.1692C9.64013 13.0623 10.0143 12.9121 10.3659 12.7217C10.7606 12.5079 11.2511 12.6599 11.4614 13.0612C11.6717 13.4625 11.5222 13.9612 11.1275 14.175C10.6675 14.4241 10.1784 14.6205 9.66693 14.7598C5.99476 15.7602 2.22022 13.5446 1.23626 9.81122C0.252306 6.07783 2.43154 2.24038 6.10371 1.24002C6.69263 1.07959 7.2939 1 7.89639 1ZM7.88532 5.94157C6.76717 5.94157 5.86073 6.86312 5.86073 7.99991C5.86073 9.1367 6.76717 10.0582 7.88532 10.0582C9.00347 10.0582 9.90991 9.1367 9.90991 7.99991C9.90991 6.86312 9.00347 5.94157 7.88532 5.94157Z" fill="#202121"/>
</svg>
