<svg width="10" height="10" viewBox="0 0 10 10" fill="none" xmlns="http://www.w3.org/2000/svg">
<g clip-path="url(#clip0_836_3314)">
<path d="M6.71023 9.9726C6.84607 9.9726 6.95471 9.86291 6.95471 9.72577C6.95471 9.58862 6.84607 9.47893 6.71023 9.47893H5.94961L5.84096 8.73828L5.56929 7.06506H4.42819L4.15651 8.76574L4.07506 9.5064L3.3143 9.50626C3.17847 9.50626 3.06982 9.61595 3.06982 9.7531C3.06982 9.89024 3.17847 9.99993 3.3143 9.99993L6.71024 10.0001L6.71023 9.9726Z" fill="#202121"/>
<path d="M9.53589 1.25H2.68968H2.66249H2.63529H1.68443H1.63004H1.60285H0.488947C0.217272 1.25 0 1.46938 0 1.74366V7.94265C0 8.21694 0.217286 8.43631 0.488947 8.43631H3.64041L3.91208 6.73563C3.93928 6.59848 4.04792 6.48879 4.18376 6.48879H5.81381C5.94965 6.48879 6.05829 6.59848 6.08548 6.73563L6.35716 8.43631H9.50862C9.78029 8.43631 9.99757 8.21693 9.99757 7.94265L9.9977 1.74366C10.0249 1.46936 9.80747 1.25 9.53578 1.25H9.53589ZM5.10759 5.25466C4.4556 5.25466 3.93945 4.73354 3.93945 4.07527C3.93945 3.41701 4.4556 2.89589 5.10759 2.89589C5.75957 2.89589 6.27572 3.41701 6.27572 4.07527C6.27572 4.70608 5.75957 5.25466 5.10759 5.25466Z" fill="#202121"/>
</g>
<defs>
<clipPath id="clip0_836_3314">
<rect width="10" height="10" fill="white"/>
</clipPath>
</defs>
</svg>
