<svg width="230" height="243" viewBox="0 0 230 243" fill="none" xmlns="http://www.w3.org/2000/svg">
<path fill-rule="evenodd" clip-rule="evenodd" d="M227.026 10.351L20.2126 0.0102538C28.4958 15.3435 32.9999 31.8303 32.9999 49C32.9999 76.7023 21.2748 102.627 0.870114 124.797L146.935 242.046C199.136 188.067 230 121.29 230 49C230 35.9222 228.99 23.0248 227.026 10.351Z" fill="#E6EAEA"/>
<path d="M152.329 38.3384L145.101 48.9554L140.131 41.275L129.966 61.1537L124.77 53.9251L116.186 69.06L111.216 63.8644L102.181 80.1288" stroke="#3D4451" stroke-miterlimit="10"/>
<path d="M123.794 106.529C140.801 106.529 154.588 104.918 154.588 102.931C154.588 100.943 140.801 99.332 123.794 99.332C106.787 99.332 93 100.943 93 102.931C93 104.918 106.787 106.529 123.794 106.529Z" fill="#7EB9C7"/>
<path d="M149.844 54.3767H139.227V100.685H149.844V54.3767Z" fill="#FDC345" stroke="#3D4451" stroke-miterlimit="10"/>
<path d="M134.656 66.123H125.101V100.685H134.656V66.123Z" fill="#F04F4C" stroke="#3D4451" stroke-miterlimit="10"/>
<path d="M107.685 86.4536H99.9209V100.685H107.685V86.4536Z" fill="#C7DDEB" stroke="#3D4451" stroke-miterlimit="10"/>
<path d="M120.94 75.6035H112.234V100.687H120.94V75.6035Z" fill="#7EB9C7" stroke="#3D4451" stroke-miterlimit="10"/>
<path d="M160.668 30.9585C147.39 17.6805 125.863 17.6805 112.585 30.9585C99.3065 44.2366 99.3065 65.7643 112.585 79.0424C125.863 92.3204 147.39 92.3204 160.668 79.0424C173.946 65.7643 173.946 44.2343 160.668 30.9585ZM156.724 75.0983C145.624 86.1987 127.627 86.1987 116.526 75.0983C105.426 63.9979 105.426 46.0009 116.526 34.9004C127.627 23.8 145.624 23.8 156.724 34.9004C167.825 46.0009 167.825 63.9979 156.724 75.0983Z" fill="#C7DDEB"/>
<path d="M187.022 100.855C188.339 102.172 188.524 104.245 187.358 105.409L184.271 108.497C183.105 109.662 181.033 109.477 179.716 108.16L167.965 96.409C166.649 95.092 166.527 93.0816 167.69 91.916L170.78 88.828C171.946 87.6624 173.956 87.7867 175.273 89.1036L187.022 100.855Z" fill="#C7DDEB"/>
<path d="M112.047 79.0587C98.7694 65.7806 98.7694 44.253 112.047 30.9749C125.325 17.6968 146.853 17.6968 160.131 30.9749C173.409 44.253 173.409 65.7806 160.131 79.0587C146.855 92.3368 125.325 92.3368 112.047 79.0587Z" stroke="#3D4451" stroke-miterlimit="10"/>
<path d="M115.955 75.1503C104.834 64.0295 104.834 46.0009 115.955 34.8801C127.076 23.7594 145.104 23.7594 156.225 34.8801C167.343 46.0009 167.346 64.0295 156.225 75.1503C145.104 86.271 127.076 86.271 115.955 75.1503Z" stroke="#3D4451" stroke-miterlimit="10"/>
<path d="M164.2 75.6224L159.034 80.7881L167.62 89.3736L172.785 84.2079L164.2 75.6224Z" stroke="#3D4451" stroke-miterlimit="10" stroke-linecap="round"/>
<path d="M187.943 96.872C189.26 98.189 189.375 100.333 188.123 101.582L184.807 104.898C183.556 106.149 181.414 106.032 180.097 104.717L168.346 92.9663C167.029 91.6493 166.975 89.5688 168.227 88.3196L171.543 85.0035C172.794 83.7521 174.875 83.8063 176.189 85.1232L187.943 96.872Z" stroke="#3D4451" stroke-miterlimit="10"/>
<path d="M187.943 96.872C189.26 98.189 189.375 100.333 188.123 101.582L184.807 104.898C183.556 106.149 181.414 106.032 180.097 104.717L168.346 92.9663C167.029 91.6493 166.975 89.5688 168.227 88.3196L171.543 85.0035C172.794 83.7521 174.875 83.8063 176.189 85.1232L187.943 96.872Z" stroke="#3D4451" stroke-miterlimit="10"/>
<path d="M170.985 91.0938L182.007 102.115" stroke="#3D4451" stroke-miterlimit="10" stroke-linecap="round"/>
<path d="M151.425 42.6303C152.798 42.6303 153.91 41.5178 153.91 40.1455C153.91 38.7731 152.798 37.6606 151.425 37.6606C150.053 37.6606 148.94 38.7731 148.94 40.1455C148.94 41.5178 150.053 42.6303 151.425 42.6303Z" fill="#F04F4C" stroke="#3D4451" stroke-miterlimit="10"/>
<path d="M102.745 82.5004C104.117 82.5004 105.229 81.3879 105.229 80.0156C105.229 78.6433 104.117 77.5308 102.745 77.5308C101.372 77.5308 100.26 78.6433 100.26 80.0156C100.26 81.3879 101.372 82.5004 102.745 82.5004Z" fill="#F04F4C" stroke="#3D4451" stroke-miterlimit="10"/>
<path d="M39.448 117.824C39.832 118.528 40.2693 119.403 40.76 120.448C41.272 121.472 41.7947 122.592 42.328 123.808C42.8827 125.003 43.4267 126.229 43.96 127.488C44.4933 128.747 44.9947 129.931 45.464 131.04C45.9333 129.931 46.4347 128.747 46.968 127.488C47.5013 126.229 48.0347 125.003 48.568 123.808C49.1227 122.592 49.6453 121.472 50.136 120.448C50.648 119.403 51.096 118.528 51.48 117.824H56.024C56.2373 119.296 56.4293 120.949 56.6 122.784C56.792 124.597 56.952 126.496 57.08 128.48C57.2293 130.443 57.3573 132.416 57.464 134.4C57.592 136.384 57.6987 138.251 57.784 140H52.92C52.856 137.845 52.7707 135.499 52.664 132.96C52.5573 130.421 52.3973 127.861 52.184 125.28C51.8 126.176 51.3733 127.168 50.904 128.256C50.4347 129.344 49.9653 130.432 49.496 131.52C49.048 132.608 48.6107 133.653 48.184 134.656C47.7573 135.637 47.3947 136.48 47.096 137.184H43.608C43.3093 136.48 42.9467 135.637 42.52 134.656C42.0933 133.653 41.6453 132.608 41.176 131.52C40.728 130.432 40.2693 129.344 39.8 128.256C39.3307 127.168 38.904 126.176 38.52 125.28C38.3067 127.861 38.1467 130.421 38.04 132.96C37.9333 135.499 37.848 137.845 37.784 140H32.92C33.0053 138.251 33.1013 136.384 33.208 134.4C33.336 132.416 33.464 130.443 33.592 128.48C33.7413 126.496 33.9013 124.597 34.072 122.784C34.264 120.949 34.4667 119.296 34.68 117.824H39.448ZM68.9348 117.568C72.2414 117.568 74.7801 118.155 76.5508 119.328C78.3214 120.48 79.2068 122.379 79.2068 125.024C79.2068 127.691 78.3108 129.621 76.5188 130.816C74.7268 131.989 72.1668 132.576 68.8388 132.576H67.2708V140H62.2788V118.144C63.3668 117.931 64.5188 117.781 65.7348 117.696C66.9508 117.611 68.0174 117.568 68.9348 117.568ZM69.2548 121.824C68.8921 121.824 68.5294 121.835 68.1667 121.856C67.8254 121.877 67.5268 121.899 67.2708 121.92V128.32H68.8388C70.5668 128.32 71.8681 128.085 72.7428 127.616C73.6174 127.147 74.0548 126.272 74.0548 124.992C74.0548 124.373 73.9374 123.861 73.7028 123.456C73.4894 123.051 73.1694 122.731 72.7428 122.496C72.3374 122.24 71.8361 122.069 71.2388 121.984C70.6414 121.877 69.9801 121.824 69.2548 121.824ZM88.9205 136.192C89.6245 136.192 90.2005 136.139 90.6485 136.032C91.1178 135.904 91.4912 135.744 91.7685 135.552C92.0458 135.339 92.2378 135.093 92.3445 134.816C92.4512 134.539 92.5045 134.229 92.5045 133.888C92.5045 133.163 92.1632 132.565 91.4805 132.096C90.7978 131.605 89.6245 131.083 87.9605 130.528C87.2352 130.272 86.5098 129.984 85.7845 129.664C85.0592 129.323 84.4085 128.907 83.8325 128.416C83.2565 127.904 82.7872 127.296 82.4245 126.592C82.0618 125.867 81.8805 124.992 81.8805 123.968C81.8805 122.944 82.0725 122.027 82.4565 121.216C82.8405 120.384 83.3845 119.68 84.0885 119.104C84.7925 118.528 85.6458 118.091 86.6485 117.792C87.6512 117.472 88.7818 117.312 90.0405 117.312C91.5338 117.312 92.8245 117.472 93.9125 117.792C95.0005 118.112 95.8965 118.464 96.6005 118.848L95.1605 122.784C94.5418 122.464 93.8485 122.187 93.0805 121.952C92.3338 121.696 91.4272 121.568 90.3605 121.568C89.1658 121.568 88.3018 121.739 87.7685 122.08C87.2565 122.4 87.0005 122.901 87.0005 123.584C87.0005 123.989 87.0965 124.331 87.2885 124.608C87.4805 124.885 87.7472 125.141 88.0885 125.376C88.4512 125.589 88.8565 125.792 89.3045 125.984C89.7738 126.155 90.2858 126.336 90.8405 126.528C91.9925 126.955 92.9952 127.381 93.8485 127.808C94.7018 128.213 95.4058 128.693 95.9605 129.248C96.5365 129.803 96.9632 130.453 97.2405 131.2C97.5178 131.947 97.6565 132.853 97.6565 133.92C97.6565 135.989 96.9312 137.6 95.4805 138.752C94.0298 139.883 91.8432 140.448 88.9205 140.448C87.9392 140.448 87.0538 140.384 86.2645 140.256C85.4752 140.149 84.7712 140.011 84.1525 139.84C83.5552 139.669 83.0325 139.488 82.5845 139.296C82.1578 139.104 81.7952 138.923 81.4965 138.752L82.9045 134.784C83.5658 135.147 84.3765 135.477 85.3365 135.776C86.3178 136.053 87.5125 136.192 88.9205 136.192ZM100.506 128.448H105.85V122.528H110.202V128.448H115.546V132.448H110.202V138.368H105.85V132.448H100.506V128.448ZM134.533 140C134.298 139.232 134.032 138.443 133.733 137.632C133.456 136.821 133.178 136.011 132.901 135.2H124.261C123.984 136.011 123.696 136.821 123.397 137.632C123.12 138.443 122.864 139.232 122.629 140H117.445C118.277 137.611 119.066 135.403 119.813 133.376C120.56 131.349 121.285 129.44 121.989 127.648C122.714 125.856 123.418 124.16 124.101 122.56C124.805 120.939 125.53 119.36 126.277 117.824H131.045C131.77 119.36 132.485 120.939 133.189 122.56C133.893 124.16 134.597 125.856 135.301 127.648C136.026 129.44 136.762 131.349 137.509 133.376C138.256 135.403 139.045 137.611 139.877 140H134.533ZM128.549 122.848C128.442 123.168 128.282 123.605 128.069 124.16C127.856 124.715 127.61 125.355 127.333 126.08C127.056 126.805 126.746 127.605 126.405 128.48C126.085 129.355 125.754 130.272 125.413 131.232H131.717C131.376 130.272 131.045 129.355 130.725 128.48C130.405 127.605 130.096 126.805 129.797 126.08C129.52 125.355 129.274 124.715 129.061 124.16C128.848 123.605 128.677 123.168 128.549 122.848ZM149.404 117.568C152.71 117.568 155.249 118.155 157.02 119.328C158.79 120.48 159.676 122.379 159.676 125.024C159.676 127.691 158.78 129.621 156.988 130.816C155.196 131.989 152.636 132.576 149.308 132.576H147.74V140H142.748V118.144C143.836 117.931 144.988 117.781 146.204 117.696C147.42 117.611 148.486 117.568 149.404 117.568ZM149.724 121.824C149.361 121.824 148.998 121.835 148.635 121.856C148.294 121.877 147.996 121.899 147.74 121.92V128.32H149.308C151.036 128.32 152.337 128.085 153.212 127.616C154.086 127.147 154.524 126.272 154.524 124.992C154.524 124.373 154.406 123.861 154.172 123.456C153.958 123.051 153.638 122.731 153.212 122.496C152.806 122.24 152.305 122.069 151.708 121.984C151.11 121.877 150.449 121.824 149.724 121.824ZM169.389 136.192C170.093 136.192 170.669 136.139 171.117 136.032C171.587 135.904 171.96 135.744 172.237 135.552C172.515 135.339 172.707 135.093 172.813 134.816C172.92 134.539 172.973 134.229 172.973 133.888C172.973 133.163 172.632 132.565 171.949 132.096C171.267 131.605 170.093 131.083 168.429 130.528C167.704 130.272 166.979 129.984 166.253 129.664C165.528 129.323 164.877 128.907 164.301 128.416C163.725 127.904 163.256 127.296 162.893 126.592C162.531 125.867 162.349 124.992 162.349 123.968C162.349 122.944 162.541 122.027 162.925 121.216C163.309 120.384 163.853 119.68 164.557 119.104C165.261 118.528 166.115 118.091 167.117 117.792C168.12 117.472 169.251 117.312 170.509 117.312C172.003 117.312 173.293 117.472 174.381 117.792C175.469 118.112 176.365 118.464 177.069 118.848L175.629 122.784C175.011 122.464 174.317 122.187 173.549 121.952C172.803 121.696 171.896 121.568 170.829 121.568C169.635 121.568 168.771 121.739 168.237 122.08C167.725 122.4 167.469 122.901 167.469 123.584C167.469 123.989 167.565 124.331 167.757 124.608C167.949 124.885 168.216 125.141 168.557 125.376C168.92 125.589 169.325 125.792 169.773 125.984C170.243 126.155 170.755 126.336 171.309 126.528C172.461 126.955 173.464 127.381 174.317 127.808C175.171 128.213 175.875 128.693 176.429 129.248C177.005 129.803 177.432 130.453 177.709 131.2C177.987 131.947 178.125 132.853 178.125 133.92C178.125 135.989 177.4 137.6 175.949 138.752C174.499 139.883 172.312 140.448 169.389 140.448C168.408 140.448 167.523 140.384 166.733 140.256C165.944 140.149 165.24 140.011 164.621 139.84C164.024 139.669 163.501 139.488 163.053 139.296C162.627 139.104 162.264 138.923 161.965 138.752L163.373 134.784C164.035 135.147 164.845 135.477 165.805 135.776C166.787 136.053 167.981 136.192 169.389 136.192Z" fill="#818285"/>
</svg>
