<svg width="267" height="196" viewBox="0 0 267 196" fill="none" xmlns="http://www.w3.org/2000/svg">
<path fill-rule="evenodd" clip-rule="evenodd" d="M0.363289 71.2891L156.366 195.202C188.897 183.599 226.261 177 266 177C266.166 177 266.333 177 266.499 177C266.499 162.638 266.499 97.5333 266.499 0.000282927C266.484 0.000269335 266.469 0.000256374 266.453 0.000244044C237.557 0.0881472 210.735 2.2346 186.125 5.73085C116.756 15.8183 53.3603 38.799 0.363289 71.2891Z" fill="#E6EAEA"/>
<g clip-path="url(#clip0_1717_19954)">
<path d="M214.354 77.9998H168.148C166.88 77.9998 165.853 76.9725 165.853 75.7049V39.4981C165.853 38.2305 166.88 37.2031 168.148 37.2031H216.982C218.249 37.2031 219.277 38.2305 219.277 39.4981V73.0768C219.277 75.7963 217.073 77.9998 214.354 77.9998Z" fill="#C7DDEB"/>
<path d="M214.277 37.2031H205.998V73.7799H214.277V37.2031Z" fill="#7EB9C7"/>
<path d="M214.338 32.3215H161.027V73.8582H214.338V32.3215Z" stroke="#3D4451" stroke-miterlimit="10"/>
<path d="M217.134 73.9967H211.474C210.262 73.9967 209.271 73.0061 209.271 71.7945V30.0073C209.271 28.7957 210.262 27.8052 211.474 27.8052H217.134C218.345 27.8052 219.336 28.7957 219.336 30.0073V71.7945C219.336 73.0061 218.345 73.9967 217.134 73.9967Z" fill="#C7DDEB" stroke="#3D4451" stroke-miterlimit="10"/>
<path d="M214.27 73.9965C217.068 73.9965 219.337 71.8662 219.337 69.2385C219.337 66.6107 217.068 64.4805 214.27 64.4805C211.471 64.4805 209.202 66.6107 209.202 69.2385C209.202 71.8662 211.471 73.9965 214.27 73.9965Z" fill="#C7DDEB" stroke="#3D4451" stroke-miterlimit="10"/>
<path d="M214.216 65.6113C214.198 65.6113 214.182 65.6099 214.164 65.6099C212.07 65.6099 210.373 67.2032 210.373 69.1695C210.373 71.1358 212.071 72.7292 214.164 72.7292C214.182 72.7292 214.198 72.7277 214.216 72.7277V65.6113Z" fill="#7EB9C7"/>
<path d="M188.104 61.3897V51.8516" stroke="#3D4451" stroke-miterlimit="10"/>
<path d="M188.36 54.9146H200.978V61.9705" stroke="#3D4451" stroke-miterlimit="10"/>
<path d="M201 66.1211C202.294 66.1211 203.343 65.0712 203.343 63.776C203.343 62.4808 202.294 61.4309 201 61.4309C199.706 61.4309 198.656 62.4808 198.656 63.776C198.656 65.0712 199.706 66.1211 201 66.1211Z" fill="#FDC345" stroke="#3D4451" stroke-miterlimit="10"/>
<path d="M179.421 59.5593H175.825L174.026 62.6753L175.825 65.7913H179.421L181.219 62.6753L179.421 59.5593Z" fill="#7EB9C7" stroke="#3D4451" stroke-miterlimit="10"/>
<path d="M188.174 50.3145V51.8444H186.644" stroke="#1E3033" stroke-miterlimit="10"/>
<path d="M185.126 51.8445H172.233" stroke="#1E3033" stroke-miterlimit="10"/>
<path d="M171.474 51.8444H169.944V50.3145" stroke="#1E3033" stroke-miterlimit="10"/>
<path d="M169.944 49.0322V41.9807" stroke="#1E3033" stroke-miterlimit="10"/>
<path d="M169.944 41.341V39.811H171.474" stroke="#1E3033" stroke-miterlimit="10"/>
<path d="M172.991 39.8108H185.884" stroke="#1E3033" stroke-miterlimit="10"/>
<path d="M186.644 39.8108H188.174V41.3408" stroke="#1E3033" stroke-miterlimit="10"/>
<path d="M188.173 42.6218V49.6733" stroke="#1E3033" stroke-miterlimit="10"/>
<path d="M192.105 65.6186H186.508C185.926 65.6186 185.448 65.1425 185.448 64.5588V62.4392C185.448 61.857 185.924 61.3794 186.508 61.3794H192.105C192.687 61.3794 193.165 61.8555 193.165 62.4392V64.5588C193.163 65.141 192.687 65.6186 192.105 65.6186Z" fill="#50CE42" stroke="#3D4451" stroke-miterlimit="10"/>
<path d="M177.848 59.559V52.0417" stroke="#3D4451" stroke-miterlimit="10"/>
<path d="M197.513 40L199.202 43.2939L203 43.8333L200.242 46.3845L200.878 50L197.484 48.2836L194.079 49.9781L194.741 46.367L192 43.7982L195.803 43.2836L197.513 40Z" fill="#F04F4C" stroke="#3D4451" stroke-miterlimit="10"/>
<path d="M185 43H174V49H185V43Z" fill="#7EB9C7"/>
<path d="M195.806 29.1746L205.218 32.0768L195.806 34.9791" fill="#F2F2F2"/>
<path d="M195.806 29.1746L205.218 32.0768L195.806 34.9791" stroke="#3D4451" stroke-miterlimit="10" stroke-linejoin="round"/>
<path d="M195.742 31.0669H157.35V35.2412H195.742V31.0669Z" fill="#7EB9C7"/>
<path d="M196.043 34.9448H157.896C157.64 34.5675 156.984 33.493 157 31.9748C157.015 30.52 157.639 29.4926 157.896 29.1108C170.612 29.1108 183.327 29.1108 196.043 29.1108C195.776 29.5678 195.297 30.5288 195.253 31.8347C195.203 33.3618 195.776 34.4864 196.043 34.9448Z" stroke="#3D4451" stroke-miterlimit="10" stroke-linejoin="round"/>
<path d="M200.183 30.7871C200.071 30.9537 199.81 31.387 199.791 32.0031C199.77 32.7003 200.074 33.1941 200.183 33.3548C201.402 32.9273 202.62 32.4984 203.839 32.0709L200.183 30.7871Z" fill="#3D4451"/>
<circle cx="141" cy="90" r="39" fill="#E6EAEA"/>
<path d="M105.589 111.629C108.717 111.79 111.288 109.221 111.132 106.094C110.999 103.414 108.825 101.236 106.146 101.097C103.016 100.935 100.443 103.505 100.601 106.634C100.735 109.313 102.911 111.491 105.589 111.629Z" fill="#C7DDEB"/>
<path d="M113.556 123C114.654 123.001 115.472 121.996 115.257 120.92C114.348 116.345 110.619 112.248 106.15 112.244C101.681 112.239 97.9435 116.328 97.0252 120.902C96.8087 121.978 97.625 122.984 98.7228 122.985L113.556 123Z" fill="#C7DDEB"/>
<path d="M103.251 110.289C106.379 110.45 108.95 107.882 108.794 104.754C108.661 102.074 106.487 99.8962 103.808 99.7573C100.678 99.5952 98.1052 102.165 98.2627 105.295C98.397 107.973 100.572 110.151 103.251 110.289Z" stroke="#3D4451" stroke-miterlimit="10"/>
<path d="M111.218 121.66C112.316 121.661 113.134 120.656 112.919 119.58C112.01 115.005 108.281 110.908 103.812 110.904C99.3447 110.899 95.6056 114.988 94.6873 119.562C94.4708 120.638 95.2871 121.644 96.3849 121.645L111.218 121.66Z" stroke="#3D4451" stroke-miterlimit="10"/>
<path d="M178.589 111.629C181.717 111.79 184.288 109.221 184.132 106.094C183.999 103.414 181.825 101.236 179.146 101.097C176.016 100.935 173.443 103.505 173.601 106.634C173.735 109.313 175.911 111.491 178.589 111.629Z" fill="#C7DDEB"/>
<path d="M186.556 123C187.654 123.001 188.472 121.996 188.257 120.92C187.348 116.345 183.619 112.248 179.15 112.244C174.681 112.239 170.943 116.328 170.025 120.902C169.809 121.978 170.625 122.984 171.723 122.985L186.556 123Z" fill="#C7DDEB"/>
<path d="M176.251 110.289C179.379 110.45 181.95 107.882 181.794 104.754C181.661 102.074 179.487 99.8962 176.808 99.7573C173.678 99.5952 171.105 102.165 171.263 105.295C171.397 107.973 173.572 110.151 176.251 110.289Z" stroke="#3D4451" stroke-miterlimit="10"/>
<path d="M184.218 121.66C185.316 121.661 186.134 120.656 185.919 119.58C185.01 115.005 181.281 110.908 176.812 110.904C172.345 110.899 168.606 114.988 167.687 119.562C167.471 120.638 168.287 121.644 169.385 121.645L184.218 121.66Z" stroke="#3D4451" stroke-miterlimit="10"/>
<path d="M143.589 53.6288C146.717 53.7898 149.288 51.2214 149.132 48.0937C148.999 45.4142 146.825 43.2361 144.146 43.0971C141.016 42.935 138.443 45.5045 138.601 48.6345C138.735 51.3129 140.911 53.491 143.589 53.6288Z" fill="#C7DDEB"/>
<path d="M151.556 65C152.654 65.0012 153.472 63.996 153.257 62.9203C152.348 58.3452 148.619 54.2483 144.15 54.2437C139.681 54.239 135.943 58.3278 135.025 62.9018C134.809 63.9775 135.625 64.9838 136.723 64.985L151.556 65Z" fill="#C7DDEB"/>
<path d="M141.251 52.289C144.379 52.4499 146.95 49.8816 146.794 46.7539C146.661 44.0744 144.487 41.8962 141.808 41.7573C138.678 41.5952 136.105 44.1647 136.263 47.2947C136.397 49.9731 138.572 52.1512 141.251 52.289Z" stroke="#3D4451" stroke-miterlimit="10"/>
<path d="M149.218 63.6602C150.316 63.6613 151.134 62.6562 150.919 61.5805C150.01 57.0053 146.281 52.9084 141.812 52.9038C137.345 52.8992 133.606 56.988 132.687 61.5619C132.471 62.6377 133.287 63.644 134.385 63.6451L149.218 63.6602Z" stroke="#3D4451" stroke-miterlimit="10"/>
<path d="M117.725 122.672C118.925 123.551 120.189 124.374 121.514 125.128C135.246 132.95 151.754 131.495 163.911 122.765" stroke="#7EB9C7" stroke-width="2" stroke-miterlimit="10" stroke-linecap="round"/>
<path d="M122.148 56.4391C115.965 59.7463 110.648 64.7358 106.961 71.2097C103.27 77.6891 101.692 84.8105 102.003 91.8213" stroke="#F04F4C" stroke-width="2" stroke-miterlimit="10" stroke-linecap="round"/>
<path d="M180.413 92.7073C181.311 78.2314 174.271 63.9312 161.025 56.3871" stroke="#FDC345" stroke-width="2" stroke-miterlimit="10" stroke-linecap="round"/>
<path d="M132.402 79.207V97.207H149.402V79.207H132.402Z" fill="#C7DDEB"/>
<path d="M134.261 80.5208H130.402V99.2071H147.55V96.2088" stroke="#3D4451" stroke-miterlimit="10"/>
<path d="M135.303 75.0823V95.0234H152.695V75.0823H135.303Z" stroke="#3D4451" stroke-miterlimit="10"/>
<path d="M150.402 82.207H138.402V83.207H150.402V82.207Z" fill="#3D4451"/>
<path d="M150.402 84.207H138.402V85.207H150.402V84.207Z" fill="#3D4451"/>
<path d="M150.402 87.207H138.402V88.207H150.402V87.207Z" fill="#3D4451"/>
<path d="M152.402 75.207H148.402V80.207H152.402V75.207Z" fill="#F04F4C" stroke="#3D4451" stroke-miterlimit="10"/>
</g>
<path d="M159.216 139.568C162.523 139.568 165.061 140.155 166.832 141.328C168.603 142.48 169.488 144.379 169.488 147.024C169.488 149.691 168.592 151.621 166.8 152.816C165.008 153.989 162.448 154.576 159.12 154.576H157.552V162H152.56V140.144C153.648 139.931 154.8 139.781 156.016 139.696C157.232 139.611 158.299 139.568 159.216 139.568ZM159.536 143.824C159.173 143.824 158.811 143.835 158.448 143.856C158.107 143.877 157.808 143.899 157.552 143.92V150.32H159.12C160.848 150.32 162.149 150.085 163.024 149.616C163.899 149.147 164.336 148.272 164.336 146.992C164.336 146.373 164.219 145.861 163.984 145.456C163.771 145.051 163.451 144.731 163.024 144.496C162.619 144.24 162.117 144.069 161.52 143.984C160.923 143.877 160.261 143.824 159.536 143.824ZM178.146 157.936C178.38 157.957 178.647 157.979 178.946 158C179.266 158 179.639 158 180.066 158C182.562 158 184.407 157.371 185.602 156.112C186.818 154.853 187.426 153.115 187.426 150.896C187.426 148.571 186.85 146.811 185.698 145.616C184.546 144.421 182.722 143.824 180.226 143.824C179.884 143.824 179.532 143.835 179.17 143.856C178.807 143.856 178.466 143.877 178.146 143.92V157.936ZM192.578 150.896C192.578 152.816 192.279 154.491 191.682 155.92C191.084 157.349 190.231 158.533 189.122 159.472C188.034 160.411 186.7 161.115 185.122 161.584C183.543 162.053 181.772 162.288 179.81 162.288C178.914 162.288 177.868 162.245 176.674 162.16C175.479 162.096 174.306 161.947 173.154 161.712V140.112C174.306 139.899 175.5 139.76 176.738 139.696C177.996 139.611 179.074 139.568 179.97 139.568C181.868 139.568 183.586 139.781 185.122 140.208C186.679 140.635 188.012 141.307 189.122 142.224C190.231 143.141 191.084 144.315 191.682 145.744C192.279 147.173 192.578 148.891 192.578 150.896ZM202.635 139.824C203.02 140.528 203.457 141.403 203.948 142.448C204.46 143.472 204.982 144.592 205.516 145.808C206.07 147.003 206.614 148.229 207.148 149.488C207.681 150.747 208.182 151.931 208.652 153.04C209.121 151.931 209.622 150.747 210.156 149.488C210.689 148.229 211.222 147.003 211.756 145.808C212.31 144.592 212.833 143.472 213.324 142.448C213.836 141.403 214.284 140.528 214.668 139.824H219.212C219.425 141.296 219.617 142.949 219.788 144.784C219.98 146.597 220.14 148.496 220.268 150.48C220.417 152.443 220.545 154.416 220.652 156.4C220.78 158.384 220.886 160.251 220.972 162H216.108C216.044 159.845 215.958 157.499 215.852 154.96C215.745 152.421 215.585 149.861 215.372 147.28C214.988 148.176 214.561 149.168 214.092 150.256C213.622 151.344 213.153 152.432 212.684 153.52C212.236 154.608 211.798 155.653 211.372 156.656C210.945 157.637 210.582 158.48 210.284 159.184H206.796C206.497 158.48 206.134 157.637 205.708 156.656C205.281 155.653 204.833 154.608 204.364 153.52C203.916 152.432 203.457 151.344 202.988 150.256C202.518 149.168 202.092 148.176 201.708 147.28C201.494 149.861 201.334 152.421 201.228 154.96C201.121 157.499 201.036 159.845 200.972 162H196.108C196.193 160.251 196.289 158.384 196.396 156.4C196.524 154.416 196.652 152.443 196.78 150.48C196.929 148.496 197.089 146.597 197.26 144.784C197.452 142.949 197.654 141.296 197.868 139.824H202.635Z" fill="#818285"/>
<defs>
<clipPath id="clip0_1717_19954">
<rect width="128" height="128" fill="white" transform="translate(93 17)"/>
</clipPath>
</defs>
</svg>
