<svg width="135" height="97" viewBox="0 0 135 97" fill="none" xmlns="http://www.w3.org/2000/svg">
<mask id="mask0_1717_19991" style="mask-type:alpha" maskUnits="userSpaceOnUse" x="0" y="0" width="135" height="97">
<path d="M49.501 5.5C49.501 5.5 48.7405 0.184975 48.501 0H37.501L37.001 8L36.5009 9.75684L30.001 9.5L32.001 21.5L30.001 29.5L31.501 39.7568L29.501 47.5L31.501 52.7568L32.001 59.7568L30.501 66.5L32.001 73.7568L31.001 79.7568L30.001 85.5C30.0019 86.6598 35.001 87 37.501 87C38.3206 87.8205 36.1517 96.2478 37.3114 96.2487H47.3114C48.4712 96.2478 49.6814 95.5774 50.5009 94.7568C50.0986 93.048 47.8156 87.383 50.001 86.5L50.0009 66.7568V53.2568V39.2568V26.7568L49.501 5.5Z" fill="#C7DDEB"/>
<path d="M19.501 61H0.500977L1.00098 70L6.75098 70.25L8.00098 79C13.001 79.5 21.001 78.5 21.001 78.5C21.001 78.5 24.3412 78.4991 25.501 78.5H32.001V70.7568L31.001 67.7568L32.001 62.7568L31.501 52L23.501 51.5C22.3412 51.5009 20.8205 53.1795 20.001 54C19.1805 54.8196 21.501 60 19.501 61Z" fill="#C7DDEB"/>
<path d="M90.5 69.5L92.5 74L90.5 78.5L91.5 87L93.0005 96L105.5 96.5L104 87.5L109 87L109.5 35.5L126.5 35L127 26.5H134L134.5 18L122.5 17.5L122 9.5L109.5 8.5L108.5 0L97.5005 1V8.5L90.5005 10L92.0005 22L90.5005 30.5L92.5005 40L90.5005 48.5L92.0005 57.5L90.5 69.5Z" fill="#C7DDEB"/>
<path d="M73.0005 9V0.5L61.0005 0V9L61.5 26.5L61 61L49 61.5V79H61.5005L61.0005 87H67.5005V96H80.0005L80.5005 90.5L78.5 83L80 74L78 65.5L80.0005 55.5L77.5005 48L80.0005 39.5L78.5005 33L79.5 26L92 26.5V9.5L73.0005 9Z" fill="#C7DDEB"/>
</mask>
<g mask="url(#mask0_1717_19991)">
<path d="M43.667 91.2472C43.667 93.4265 42.7899 94.9213 40.9894 94.9213C39.1683 94.9213 38.3659 93.2848 38.3548 91.2901C38.3548 89.2525 39.2224 87.6367 41.0435 87.6367C42.9299 87.6383 43.667 89.3178 43.667 91.2472ZM40.0136 91.2901C40.0024 92.9059 40.3924 93.6749 41.0324 93.6749C41.6723 93.6749 42.0194 92.8725 42.0194 91.2679C42.0194 89.7078 41.6835 88.8832 41.0228 88.8832C40.4147 88.8848 40.0024 89.6536 40.0136 91.2901Z" fill="#6B968B"/>
<path d="M46.5833 89.2208L46.561 89.2208L45.2174 89.8607L44.9468 88.6254L46.8109 87.7578L48.1768 87.7578L48.1768 94.8036L46.5833 94.8036L46.5833 89.2208Z" fill="#6B968B"/>
<path d="M55.7002 91.2472C55.7002 93.4265 54.823 94.9213 53.0226 94.9213C51.2014 94.9213 50.3991 93.2848 50.388 91.2901C50.388 89.2525 51.2556 87.6367 53.0767 87.6367C54.9631 87.6383 55.7002 89.3178 55.7002 91.2472ZM52.0467 91.2901C52.0356 92.9059 52.4256 93.6749 53.0656 93.6749C53.7055 93.6749 54.0526 92.8725 54.0526 91.2679C54.0526 89.7078 53.7167 88.8832 53.056 88.8832C52.4479 88.8848 52.0356 89.6536 52.0467 91.2901Z" fill="#6B968B"/>
<path d="M58.6145 89.2208L58.5922 89.2208L57.2487 89.8607L56.978 88.6254L58.8422 87.7578L60.208 87.7578L60.208 94.8036L58.6145 94.8036L58.6145 89.2208Z" fill="#6B968B"/>
<path d="M91.5732 91.2472C91.5732 93.4265 90.6961 94.9213 88.8957 94.9213C87.0745 94.9213 86.2722 93.2848 86.261 91.2901C86.261 89.2525 87.1286 87.6367 88.9498 87.6367C90.8362 87.6383 91.5732 89.3178 91.5732 91.2472ZM87.9198 91.2901C87.9087 92.9059 88.2987 93.6749 88.9386 93.6749C89.5786 93.6749 89.9256 92.8725 89.9256 91.2679C89.9256 89.7078 89.5897 88.8832 88.9291 88.8832C88.321 88.8848 87.9087 89.6536 87.9198 91.2901Z" fill="#6B968B"/>
<path d="M94.4905 89.2208L94.4682 89.2208L93.1246 89.8607L92.854 88.6254L94.7181 87.7578L96.084 87.7578L96.084 94.8036L94.4905 94.8036L94.4905 89.2208Z" fill="#6B968B"/>
<path d="M103.607 91.2472C103.607 93.4265 102.73 94.9213 100.93 94.9213C99.1087 94.9213 98.3064 93.2848 98.2952 91.2901C98.2952 89.2525 99.1628 87.6367 100.984 87.6367C102.87 87.6383 103.607 89.3178 103.607 91.2472ZM99.954 91.2901C99.9428 92.9059 100.333 93.6749 100.973 93.6749C101.613 93.6749 101.96 92.8725 101.96 91.2679C101.96 89.7078 101.624 88.8832 100.963 88.8832C100.355 88.8848 99.9428 89.6536 99.954 91.2901Z" fill="#6B968B"/>
<path d="M106.519 89.2208L106.497 89.2208L105.153 89.8607L104.882 88.6254L106.746 87.7578L108.112 87.7578L108.112 94.8036L106.519 94.8036L106.519 89.2208Z" fill="#6B968B"/>
<path d="M6.77637 91.2472C6.77637 93.4265 5.89921 94.9213 4.09876 94.9213C2.27762 94.9213 1.47531 93.2848 1.46416 91.2901C1.46416 89.2525 2.33174 87.6367 4.15288 87.6367C6.0393 87.6383 6.77637 89.3178 6.77637 91.2472ZM3.12292 91.2901C3.11178 92.9059 3.5018 93.6749 4.14175 93.6749C4.7817 93.6749 5.12872 92.8725 5.12872 91.2679C5.12872 89.7078 4.79283 88.8832 4.13219 88.8832C3.52408 88.8848 3.11178 89.6536 3.12292 91.2901Z" fill="#6B968B"/>
<path d="M9.6897 89.2208L9.66741 89.2208L8.32385 89.8607L8.05321 88.6254L9.91735 87.7578L11.2832 87.7578L11.2832 94.8036L9.6897 94.8036L9.6897 89.2208Z" fill="#6B968B"/>
<path d="M116.034 91.2472C116.034 93.4265 115.157 94.9213 113.357 94.9213C111.535 94.9213 110.733 93.2848 110.722 91.2901C110.722 89.2525 111.59 87.6367 113.411 87.6367C115.297 87.6383 116.034 89.3178 116.034 91.2472ZM112.381 91.2901C112.37 92.9059 112.76 93.6749 113.4 93.6749C114.04 93.6749 114.387 92.8725 114.387 91.2679C114.387 89.7078 114.051 88.8832 113.39 88.8832C112.782 88.8848 112.37 89.6536 112.381 91.2901Z" fill="#6B968B"/>
<path d="M118.95 89.2208L118.928 89.2208L117.585 89.8607L117.314 88.6254L119.178 87.7578L120.544 87.7578L120.544 94.8036L118.95 94.8036L118.95 89.2208Z" fill="#6B968B"/>
<path d="M128.068 91.2472C128.068 93.4265 127.191 94.9213 125.391 94.9213C123.57 94.9213 122.767 93.2848 122.756 91.2901C122.756 89.2525 123.624 87.6367 125.445 87.6367C127.331 87.6383 128.068 89.3178 128.068 91.2472ZM124.415 91.2901C124.404 92.9059 124.794 93.6749 125.434 93.6749C126.074 93.6749 126.421 92.8725 126.421 91.2679C126.421 89.7078 126.085 88.8832 125.424 88.8832C124.816 88.8848 124.404 89.6536 124.415 91.2901Z" fill="#6B968B"/>
<path d="M130.98 89.2208L130.957 89.2208L129.614 89.8607L129.343 88.6254L131.207 87.7578L132.573 87.7578L132.573 94.8036L130.98 94.8036L130.98 89.2208Z" fill="#6B968B"/>
<path d="M19.2041 91.2472C19.2041 93.4265 18.327 94.9213 16.5265 94.9213C14.7054 94.9213 13.903 93.2848 13.8919 91.2901C13.8919 89.2525 14.7595 87.6367 16.5806 87.6367C18.4671 87.6383 19.2041 89.3178 19.2041 91.2472ZM15.5507 91.2901C15.5395 92.9059 15.9296 93.6749 16.5695 93.6749C17.2094 93.6749 17.5565 92.8725 17.5565 91.2679C17.5565 89.7078 17.2206 88.8832 16.5599 88.8832C15.9518 88.8848 15.5395 89.6536 15.5507 91.2901Z" fill="#6B968B"/>
<path d="M22.1194 89.2208L22.0971 89.2208L20.7535 89.8607L20.4829 88.6254L22.347 87.7578L23.7129 87.7578L23.7129 94.8036L22.1194 94.8036L22.1194 89.2208Z" fill="#6B968B"/>
<path d="M31.2383 91.2472C31.2383 93.4265 30.3611 94.9213 28.5607 94.9213C26.7395 94.9213 25.9372 93.2848 25.9261 91.2901C25.9261 89.2525 26.7937 87.6367 28.6148 87.6367C30.5012 87.6383 31.2383 89.3178 31.2383 91.2472ZM27.5848 91.2901C27.5737 92.9059 27.9637 93.6749 28.6037 93.6749C29.2436 93.6749 29.5906 92.8725 29.5906 91.2679C29.5906 89.7078 29.2547 88.8832 28.5941 88.8832C27.986 88.8848 27.5737 89.6536 27.5848 91.2901Z" fill="#6B968B"/>
<path d="M34.1497 89.2208L34.1274 89.2208L32.7838 89.8607L32.5132 88.6254L34.3773 87.7578L35.7432 87.7578L35.7432 94.8036L34.1497 94.8036L34.1497 89.2208Z" fill="#6B968B"/>
<path d="M67.1123 91.2472C67.1123 93.4265 66.2352 94.9213 64.4347 94.9213C62.6136 94.9213 61.8112 93.2848 61.8001 91.2901C61.8001 89.2525 62.6677 87.6367 64.4888 87.6367C66.3753 87.6383 67.1123 89.3178 67.1123 91.2472ZM63.4589 91.2901C63.4477 92.9059 63.8378 93.6749 64.4777 93.6749C65.1177 93.6749 65.4647 92.8725 65.4647 91.2679C65.4647 89.7078 65.1288 88.8832 64.4681 88.8832C63.86 88.8848 63.4477 89.6536 63.4589 91.2901Z" fill="#6B968B"/>
<path d="M70.0276 89.2208L70.0053 89.2208L68.6617 89.8607L68.3911 88.6254L70.2552 87.7578L71.6211 87.7578L71.6211 94.8036L70.0276 94.8036L70.0276 89.2208Z" fill="#6B968B"/>
<path d="M79.1455 91.2472C79.1455 93.4265 78.2684 94.9213 76.4679 94.9213C74.6468 94.9213 73.8444 93.2848 73.8333 91.2901C73.8333 89.2525 74.7009 87.6367 76.522 87.6367C78.4084 87.6383 79.1455 89.3178 79.1455 91.2472ZM75.4921 91.2901C75.4809 92.9059 75.8709 93.6749 76.5109 93.6749C77.1508 93.6749 77.4979 92.8725 77.4979 91.2679C77.4979 89.7078 77.162 88.8832 76.5013 88.8832C75.8932 88.8848 75.4809 89.6536 75.4921 91.2901Z" fill="#6B968B"/>
<path d="M82.0579 89.2208L82.0356 89.2208L80.692 89.8607L80.4214 88.6254L82.2855 87.7578L83.6514 87.7578L83.6514 94.8036L82.0579 94.8036L82.0579 89.2208Z" fill="#6B968B"/>
<path d="M43.667 21.9362C43.667 24.1155 42.7899 25.6102 40.9894 25.6102C39.1683 25.6102 38.3659 23.9737 38.3548 21.9791C38.3548 19.9414 39.2224 18.3257 41.0435 18.3257C42.9299 18.3273 43.667 20.0068 43.667 21.9362ZM40.0136 21.9791C40.0024 23.5949 40.3924 24.3638 41.0324 24.3638C41.6723 24.3638 42.0194 23.5615 42.0194 21.9568C42.0194 20.3968 41.6835 19.5722 41.0228 19.5722C40.4147 19.5738 40.0024 20.3426 40.0136 21.9791Z" fill="#6B968B"/>
<path d="M46.5833 19.9092L46.561 19.9092L45.2174 20.5492L44.9468 19.3139L46.8109 18.4463L48.1768 18.4463L48.1768 25.4921L46.5833 25.4921L46.5833 19.9092Z" fill="#6B968B"/>
<path d="M55.7002 21.9362C55.7002 24.1155 54.823 25.6102 53.0226 25.6102C51.2014 25.6102 50.3991 23.9737 50.388 21.9791C50.388 19.9414 51.2556 18.3257 53.0767 18.3257C54.9631 18.3273 55.7002 20.0068 55.7002 21.9362ZM52.0467 21.9791C52.0356 23.5949 52.4256 24.3638 53.0656 24.3638C53.7055 24.3638 54.0526 23.5615 54.0526 21.9568C54.0526 20.3968 53.7167 19.5722 53.056 19.5722C52.4479 19.5738 52.0356 20.3426 52.0467 21.9791Z" fill="#6B968B"/>
<path d="M58.6145 19.9092L58.5922 19.9092L57.2487 20.5492L56.978 19.3139L58.8422 18.4463L60.208 18.4463L60.208 25.4921L58.6145 25.4921L58.6145 19.9092Z" fill="#6B968B"/>
<path d="M48.8535 30.9049C48.8535 33.0826 47.9764 34.5791 46.1759 34.5791C44.3548 34.5791 43.5525 32.9426 43.5413 30.9479C43.5413 28.9103 44.4089 27.2944 46.23 27.2944C48.1164 27.296 48.8535 28.9755 48.8535 30.9049ZM45.2001 30.9479C45.1889 32.5637 45.5789 33.3326 46.2189 33.3326C46.8588 33.3326 47.2059 32.5302 47.2059 30.9256C47.2059 29.3655 46.87 28.5409 46.2094 28.5409C45.6012 28.5425 45.1889 29.3114 45.2001 30.9479Z" fill="#6B968B"/>
<path d="M51.7698 28.878L51.7475 28.878L50.4039 29.5179L50.1333 28.2826L51.9974 27.415L53.3633 27.415L53.3633 34.4608L51.7698 34.4608L51.7698 28.878Z" fill="#6B968B"/>
<path d="M60.8809 30.9049C60.8809 33.0826 60.0037 34.5791 58.2033 34.5791C56.3821 34.5791 55.5798 32.9426 55.5687 30.9479C55.5687 28.9103 56.4362 27.2944 58.2574 27.2944C60.1438 27.296 60.8809 28.9755 60.8809 30.9049ZM57.229 30.9479C57.2179 32.5637 57.6079 33.3326 58.2478 33.3326C58.8878 33.3326 59.2348 32.5302 59.2348 30.9256C59.2348 29.3655 58.8989 28.5409 58.2383 28.5409C57.6302 28.5425 57.2179 29.3114 57.229 30.9479Z" fill="#6B968B"/>
<path d="M66.8965 30.9049C66.8965 33.0826 66.0193 34.5791 64.2189 34.5791C62.3977 34.5791 61.5954 32.9426 61.5843 30.9479C61.5843 28.9103 62.4519 27.2944 64.273 27.2944C66.1594 27.296 66.8965 28.9755 66.8965 30.9049ZM63.243 30.9479C63.2319 32.5637 63.6219 33.3326 64.2619 33.3326C64.9018 33.3326 65.2489 32.5302 65.2489 30.9256C65.2489 29.3655 64.913 28.5409 64.2523 28.5409C63.6442 28.5425 63.2335 29.3114 63.243 30.9479Z" fill="#6B968B"/>
<path d="M91.5732 21.9362C91.5732 24.1155 90.6961 25.6102 88.8957 25.6102C87.0745 25.6102 86.2722 23.9737 86.261 21.9791C86.261 19.9414 87.1286 18.3257 88.9498 18.3257C90.8362 18.3273 91.5732 20.0068 91.5732 21.9362ZM87.9198 21.9791C87.9087 23.5949 88.2987 24.3638 88.9386 24.3638C89.5786 24.3638 89.9256 23.5615 89.9256 21.9568C89.9256 20.3968 89.5897 19.5722 88.9291 19.5722C88.321 19.5738 87.9087 20.3426 87.9198 21.9791Z" fill="#6B968B"/>
<path d="M94.4905 19.9097L94.4682 19.9097L93.1246 20.5497L92.854 19.3144L94.7181 18.4468L96.084 18.4468L96.084 25.4926L94.4905 25.4926L94.4905 19.9097Z" fill="#6B968B"/>
<path d="M103.607 21.9362C103.607 24.1155 102.73 25.6102 100.93 25.6102C99.1087 25.6102 98.3064 23.9737 98.2952 21.9791C98.2952 19.9414 99.1628 18.3257 100.984 18.3257C102.87 18.3273 103.607 20.0068 103.607 21.9362ZM99.954 21.9791C99.9428 23.5949 100.333 24.3638 100.973 24.3638C101.613 24.3638 101.96 23.5615 101.96 21.9568C101.96 20.3968 101.624 19.5722 100.963 19.5722C100.355 19.5738 99.9428 20.3426 99.954 21.9791Z" fill="#6B968B"/>
<path d="M106.519 19.9097L106.497 19.9097L105.153 20.5497L104.882 19.3144L106.746 18.4468L108.112 18.4468L108.112 25.4926L106.519 25.4926L106.519 19.9097Z" fill="#6B968B"/>
<path d="M96.7598 30.9049C96.7598 33.0826 95.8826 34.5791 94.0822 34.5791C92.261 34.5791 91.4587 32.9426 91.4476 30.9479C91.4476 28.9103 92.3151 27.2944 94.1363 27.2944C96.0227 27.296 96.7598 28.9755 96.7598 30.9049ZM93.1063 30.9479C93.0952 32.5637 93.4852 33.3326 94.1251 33.3326C94.7651 33.3326 95.1121 32.5302 95.1121 30.9256C95.1121 29.3655 94.7762 28.5409 94.1156 28.5409C93.5075 28.5425 93.0952 29.3114 93.1063 30.9479Z" fill="#6B968B"/>
<path d="M99.677 28.878L99.6547 28.878L98.3112 29.5179L98.0405 28.2826L99.9047 27.415L101.271 27.415L101.271 34.4608L99.677 34.4608L99.677 28.878Z" fill="#6B968B"/>
<path d="M108.788 30.9049C108.788 33.0826 107.911 34.5791 106.111 34.5791C104.289 34.5791 103.487 32.9426 103.476 30.9479C103.476 28.9103 104.343 27.2944 106.165 27.2944C108.051 27.296 108.788 28.9755 108.788 30.9049ZM105.136 30.9479C105.125 32.5637 105.515 33.3326 106.155 33.3326C106.795 33.3326 107.142 32.5302 107.142 30.9256C107.142 29.3655 106.806 28.5409 106.146 28.5409C105.537 28.5425 105.125 29.3114 105.136 30.9479Z" fill="#6B968B"/>
<path d="M114.804 30.9049C114.804 33.0826 113.927 34.5791 112.126 34.5791C110.305 34.5791 109.503 32.9426 109.492 30.9479C109.492 28.9103 110.359 27.2944 112.18 27.2944C114.067 27.296 114.804 28.9755 114.804 30.9049ZM111.15 30.9479C111.139 32.5637 111.529 33.3326 112.169 33.3326C112.809 33.3326 113.156 32.5302 113.156 30.9256C113.156 29.3655 112.82 28.5409 112.16 28.5409C111.551 28.5425 111.141 29.3114 111.15 30.9479Z" fill="#6B968B"/>
<path d="M6.77637 21.9362C6.77637 24.1155 5.89921 25.6102 4.09876 25.6102C2.27762 25.6102 1.47531 23.9737 1.46416 21.9791C1.46416 19.9414 2.33174 18.3257 4.15288 18.3257C6.0393 18.3273 6.77637 20.0068 6.77637 21.9362ZM3.12292 21.9791C3.11178 23.5949 3.5018 24.3638 4.14175 24.3638C4.7817 24.3638 5.12872 23.5615 5.12872 21.9568C5.12872 20.3968 4.79283 19.5722 4.13219 19.5722C3.52408 19.5738 3.11178 20.3426 3.12292 21.9791Z" fill="#6B968B"/>
<path d="M9.6897 19.9097L9.66741 19.9097L8.32385 20.5497L8.05321 19.3144L9.91735 18.4468L11.2832 18.4468L11.2832 25.4926L9.6897 25.4926L9.6897 19.9097Z" fill="#6B968B"/>
<path d="M2.84595 28.878L2.82366 28.878L1.4801 29.5179L1.20946 28.2826L3.0736 27.415L4.43945 27.415L4.43945 34.4608L2.84595 34.4608L2.84595 28.878Z" fill="#6B968B"/>
<path d="M11.957 30.9049C11.957 33.0826 11.0799 34.5791 9.27945 34.5791C7.4583 34.5791 6.65597 32.9426 6.64483 30.9479C6.64483 28.9103 7.51242 27.2944 9.33357 27.2944C11.22 27.296 11.957 28.9755 11.957 30.9049ZM8.3052 30.9479C8.29405 32.5637 8.68406 33.3326 9.32401 33.3326C9.96395 33.3326 10.311 32.5302 10.311 30.9256C10.311 29.3655 9.97511 28.5409 9.31446 28.5409C8.70635 28.5425 8.29405 29.3114 8.3052 30.9479Z" fill="#6B968B"/>
<path d="M17.9727 30.9049C17.9727 33.0826 17.0955 34.5791 15.2951 34.5791C13.4739 34.5791 12.6716 32.9426 12.6605 30.9479C12.6605 28.9103 13.528 27.2944 15.3492 27.2944C17.2356 27.296 17.9727 28.9755 17.9727 30.9049ZM14.3192 30.9479C14.3081 32.5637 14.6981 33.3326 15.338 33.3326C15.978 33.3326 16.325 32.5302 16.325 30.9256C16.325 29.3655 15.9891 28.5409 15.3285 28.5409C14.7204 28.5425 14.3097 29.3114 14.3192 30.9479Z" fill="#6B968B"/>
<path d="M116.034 21.9362C116.034 24.1155 115.157 25.6102 113.357 25.6102C111.535 25.6102 110.733 23.9737 110.722 21.9791C110.722 19.9414 111.59 18.3257 113.411 18.3257C115.297 18.3273 116.034 20.0068 116.034 21.9362ZM112.381 21.9791C112.37 23.5949 112.76 24.3638 113.4 24.3638C114.04 24.3638 114.387 23.5615 114.387 21.9568C114.387 20.3968 114.051 19.5722 113.39 19.5722C112.782 19.5738 112.37 20.3426 112.381 21.9791Z" fill="#6B968B"/>
<path d="M118.95 19.9092L118.928 19.9092L117.585 20.5492L117.314 19.3139L119.178 18.4463L120.544 18.4463L120.544 25.4921L118.95 25.4921L118.95 19.9092Z" fill="#6B968B"/>
<path d="M128.068 21.9362C128.068 24.1155 127.191 25.6102 125.391 25.6102C123.57 25.6102 122.767 23.9737 122.756 21.9791C122.756 19.9414 123.624 18.3257 125.445 18.3257C127.331 18.3273 128.068 20.0068 128.068 21.9362ZM124.415 21.9791C124.404 23.5949 124.794 24.3638 125.434 24.3638C126.074 24.3638 126.421 23.5615 126.421 21.9568C126.421 20.3968 126.085 19.5722 125.424 19.5722C124.816 19.5738 124.404 20.3426 124.415 21.9791Z" fill="#6B968B"/>
<path d="M130.98 19.9092L130.957 19.9092L129.614 20.5492L129.343 19.3139L131.207 18.4463L132.573 18.4463L132.573 25.4921L130.98 25.4921L130.98 19.9092Z" fill="#6B968B"/>
<path d="M121.22 30.9049C121.22 33.0826 120.343 34.5791 118.542 34.5791C116.721 34.5791 115.919 32.9426 115.908 30.9479C115.908 28.9103 116.775 27.2944 118.596 27.2944C120.483 27.296 121.22 28.9755 121.22 30.9049ZM117.566 30.9479C117.555 32.5637 117.945 33.3326 118.585 33.3326C119.225 33.3326 119.572 32.5302 119.572 30.9256C119.572 29.3655 119.236 28.5409 118.576 28.5409C117.967 28.5425 117.555 29.3114 117.566 30.9479Z" fill="#6B968B"/>
<path d="M124.137 28.878L124.115 28.878L122.771 29.5179L122.5 28.2826L124.365 27.415L125.73 27.415L125.73 34.4608L124.137 34.4608L124.137 28.878Z" fill="#6B968B"/>
<path d="M133.25 30.9049C133.25 33.0826 132.373 34.5791 130.572 34.5791C128.751 34.5791 127.949 32.9426 127.938 30.9479C127.938 28.9103 128.805 27.2944 130.627 27.2944C132.513 27.296 133.25 28.9755 133.25 30.9049ZM129.598 30.9479C129.587 32.5637 129.977 33.3326 130.617 33.3326C131.257 33.3326 131.604 32.5302 131.604 30.9256C131.604 29.3655 131.268 28.5409 130.607 28.5409C129.999 28.5425 129.587 29.3114 129.598 30.9479Z" fill="#6B968B"/>
<path d="M139.265 30.9049C139.265 33.0826 138.387 34.5791 136.587 34.5791C134.766 34.5791 133.964 32.9426 133.952 30.9479C133.952 28.9103 134.82 27.2944 136.641 27.2944C138.528 27.296 139.265 28.9755 139.265 30.9049ZM135.611 30.9479C135.6 32.5637 135.99 33.3326 136.63 33.3326C137.27 33.3326 137.617 32.5302 137.617 30.9256C137.617 29.3655 137.281 28.5409 136.62 28.5409C136.012 28.5425 135.602 29.3114 135.611 30.9479Z" fill="#6B968B"/>
<path d="M19.2051 21.9362C19.2051 24.1155 18.3279 25.6102 16.5275 25.6102C14.7063 25.6102 13.904 23.9737 13.8929 21.9791C13.8929 19.9414 14.7605 18.3257 16.5816 18.3257C18.468 18.3273 19.2051 20.0068 19.2051 21.9362ZM15.5517 21.9791C15.5405 23.5949 15.9305 24.3638 16.5705 24.3638C17.2104 24.3638 17.5575 23.5615 17.5575 21.9568C17.5575 20.3968 17.2216 19.5722 16.5609 19.5722C15.9528 19.5738 15.5405 20.3426 15.5517 21.9791Z" fill="#6B968B"/>
<path d="M22.1204 19.9097L22.0981 19.9097L20.7545 20.5497L20.4839 19.3144L22.348 18.4468L23.7139 18.4468L23.7139 25.4926L22.1204 25.4926L22.1204 19.9097Z" fill="#6B968B"/>
<path d="M31.2393 21.9362C31.2393 24.1155 30.3621 25.6102 28.5617 25.6102C26.7405 25.6102 25.9382 23.9737 25.9271 21.9791C25.9271 19.9414 26.7946 18.3257 28.6158 18.3257C30.5022 18.3273 31.2393 20.0068 31.2393 21.9362ZM27.5858 21.9791C27.5747 23.5949 27.9647 24.3638 28.6046 24.3638C29.2446 24.3638 29.5916 23.5615 29.5916 21.9568C29.5916 20.3968 29.2557 19.5722 28.5951 19.5722C27.987 19.5738 27.5747 20.3426 27.5858 21.9791Z" fill="#6B968B"/>
<path d="M34.1506 19.9097L34.1283 19.9097L32.7848 20.5497L32.5141 19.3144L34.3783 18.4468L35.7441 18.4468L35.7441 25.4926L34.1506 25.4926L34.1506 19.9097Z" fill="#6B968B"/>
<path d="M24.3906 30.9049C24.3906 33.0826 23.5135 34.5791 21.713 34.5791C19.8919 34.5791 19.0896 32.9426 19.0784 30.9479C19.0784 28.9103 19.946 27.2944 21.7671 27.2944C23.6536 27.296 24.3906 28.9755 24.3906 30.9049ZM20.7372 30.9479C20.726 32.5637 21.1161 33.3326 21.756 33.3326C22.396 33.3326 22.743 32.5302 22.743 30.9256C22.743 29.3655 22.4071 28.5409 21.7465 28.5409C21.1384 28.5425 20.726 29.3114 20.7372 30.9479Z" fill="#6B968B"/>
<path d="M27.3069 28.878L27.2846 28.878L25.941 29.5179L25.6704 28.2826L27.5345 27.415L28.9004 27.415L28.9004 34.4608L27.3069 34.4608L27.3069 28.878Z" fill="#6B968B"/>
<path d="M36.4199 30.9049C36.4199 33.0826 35.5428 34.5791 33.7423 34.5791C31.9212 34.5791 31.1189 32.9426 31.1077 30.9479C31.1077 28.9103 31.9753 27.2944 33.7965 27.2944C35.6829 27.296 36.4199 28.9755 36.4199 30.9049ZM32.7681 30.9479C32.7569 32.5637 33.1469 33.3326 33.7869 33.3326C34.4268 33.3326 34.7739 32.5302 34.7739 30.9256C34.7739 29.3655 34.438 28.5409 33.7774 28.5409C33.1692 28.5425 32.7569 29.3114 32.7681 30.9479Z" fill="#6B968B"/>
<path d="M42.4355 30.9049C42.4355 33.0826 41.5584 34.5791 39.7579 34.5791C37.9368 34.5791 37.1345 32.9426 37.1233 30.9479C37.1233 28.9103 37.9909 27.2944 39.8121 27.2944C41.6985 27.296 42.4355 28.9755 42.4355 30.9049ZM38.7821 30.9479C38.771 32.5637 39.161 33.3326 39.8009 33.3326C40.4409 33.3326 40.7879 32.5302 40.7879 30.9256C40.7879 29.3655 40.452 28.5409 39.7914 28.5409C39.1833 28.5425 38.7725 29.3114 38.7821 30.9479Z" fill="#6B968B"/>
<path d="M67.1123 21.9362C67.1123 24.1155 66.2352 25.6102 64.4347 25.6102C62.6136 25.6102 61.8112 23.9737 61.8001 21.9791C61.8001 19.9414 62.6677 18.3257 64.4888 18.3257C66.3753 18.3273 67.1123 20.0068 67.1123 21.9362ZM63.4589 21.9791C63.4477 23.5949 63.8378 24.3638 64.4777 24.3638C65.1177 24.3638 65.4647 23.5615 65.4647 21.9568C65.4647 20.3968 65.1288 19.5722 64.4681 19.5722C63.86 19.5738 63.4477 20.3426 63.4589 21.9791Z" fill="#6B968B"/>
<path d="M70.0276 19.9092L70.0053 19.9092L68.6617 20.5492L68.3911 19.3139L70.2552 18.4463L71.6211 18.4463L71.6211 25.4921L70.0276 25.4921L70.0276 19.9092Z" fill="#6B968B"/>
<path d="M79.1455 21.9362C79.1455 24.1155 78.2684 25.6102 76.4679 25.6102C74.6468 25.6102 73.8444 23.9737 73.8333 21.9791C73.8333 19.9414 74.7009 18.3257 76.522 18.3257C78.4084 18.3273 79.1455 20.0068 79.1455 21.9362ZM75.4921 21.9791C75.4809 23.5949 75.8709 24.3638 76.5109 24.3638C77.1508 24.3638 77.4979 23.5615 77.4979 21.9568C77.4979 20.3968 77.162 19.5722 76.5013 19.5722C75.8932 19.5738 75.4809 20.3426 75.4921 21.9791Z" fill="#6B968B"/>
<path d="M82.0579 19.9092L82.0356 19.9092L80.692 20.5492L80.4214 19.3139L82.2855 18.4463L83.6514 18.4463L83.6514 25.4921L82.0579 25.4921L82.0579 19.9092Z" fill="#6B968B"/>
<path d="M72.2979 30.9049C72.2979 33.0826 71.4207 34.5791 69.6202 34.5791C67.7991 34.5791 66.9968 32.9426 66.9856 30.9479C66.9856 28.9103 67.8532 27.2944 69.6744 27.2944C71.5608 27.296 72.2979 28.9755 72.2979 30.9049ZM68.6444 30.9479C68.6333 32.5637 69.0233 33.3326 69.6632 33.3326C70.3032 33.3326 70.6502 32.5302 70.6502 30.9256C70.6502 29.3655 70.3143 28.5409 69.6537 28.5409C69.0456 28.5425 68.6333 29.3114 68.6444 30.9479Z" fill="#6B968B"/>
<path d="M75.2151 28.878L75.1928 28.878L73.8492 29.5179L73.5786 28.2826L75.4427 27.415L76.8086 27.415L76.8086 34.4608L75.2151 34.4608L75.2151 28.878Z" fill="#6B968B"/>
<path d="M84.3271 30.9049C84.3271 33.0826 83.45 34.5791 81.6496 34.5791C79.8284 34.5791 79.0261 32.9426 79.0149 30.9479C79.0149 28.9103 79.8825 27.2944 81.7037 27.2944C83.5901 27.296 84.3271 28.9755 84.3271 30.9049ZM80.6753 30.9479C80.6642 32.5637 81.0542 33.3326 81.6941 33.3326C82.3341 33.3326 82.6811 32.5302 82.6811 30.9256C82.6811 29.3655 82.3452 28.5409 81.6846 28.5409C81.0765 28.5425 80.6642 29.3114 80.6753 30.9479Z" fill="#6B968B"/>
<path d="M90.3428 30.9049C90.3428 33.0826 89.4656 34.5791 87.6652 34.5791C85.844 34.5791 85.0417 32.9426 85.0306 30.9479C85.0306 28.9103 85.8982 27.2944 87.7193 27.2944C89.6057 27.296 90.3428 28.9755 90.3428 30.9049ZM86.6893 30.9479C86.6782 32.5637 87.0682 33.3326 87.7082 33.3326C88.3481 33.3326 88.6951 32.5302 88.6951 30.9256C88.6952 29.3655 88.3593 28.5409 87.6986 28.5409C87.0905 28.5425 86.6798 29.3114 86.6893 30.9479Z" fill="#6B968B"/>
<path d="M43.667 56.5914C43.667 58.7708 42.7899 60.2655 40.9894 60.2655C39.1683 60.2655 38.3659 58.629 38.3548 56.6343C38.3548 54.5967 39.2224 52.981 41.0435 52.981C42.9299 52.9825 43.667 54.662 43.667 56.5914ZM40.0136 56.6343C40.0024 58.2501 40.3924 59.0191 41.0324 59.0191C41.6723 59.0191 42.0194 58.2168 42.0194 56.6121C42.0194 55.052 41.6835 54.2274 41.0228 54.2274C40.4147 54.229 40.0024 54.9979 40.0136 56.6343Z" fill="#6B968B"/>
<path d="M46.5833 54.5645L46.561 54.5645L45.2174 55.2045L44.9468 53.9692L46.8109 53.1016L48.1768 53.1016L48.1768 60.1474L46.5833 60.1474L46.5833 54.5645Z" fill="#6B968B"/>
<path d="M55.7002 56.5914C55.7002 58.7708 54.823 60.2655 53.0226 60.2655C51.2014 60.2655 50.3991 58.629 50.388 56.6343C50.388 54.5967 51.2556 52.981 53.0767 52.981C54.9631 52.9825 55.7002 54.662 55.7002 56.5914ZM52.0467 56.6343C52.0356 58.2501 52.4256 59.0191 53.0656 59.0191C53.7055 59.0191 54.0526 58.2168 54.0526 56.6121C54.0526 55.052 53.7167 54.2274 53.056 54.2274C52.4479 54.229 52.0356 54.9979 52.0467 56.6343Z" fill="#6B968B"/>
<path d="M58.6145 54.5645L58.5922 54.5645L57.2487 55.2045L56.978 53.9692L58.8422 53.1016L60.208 53.1016L60.208 60.1474L58.6145 60.1474L58.6145 54.5645Z" fill="#6B968B"/>
<path d="M48.8535 65.5602C48.8535 67.7379 47.9764 69.2343 46.1759 69.2343C44.3548 69.2343 43.5525 67.5978 43.5413 65.6032C43.5413 63.5655 44.4089 61.9497 46.23 61.9497C48.1164 61.9513 48.8535 63.6308 48.8535 65.5602ZM45.2001 65.6032C45.1889 67.219 45.5789 67.9879 46.2189 67.9879C46.8588 67.9879 47.2059 67.1855 47.2059 65.5809C47.2059 64.0208 46.87 63.1962 46.2094 63.1962C45.6012 63.1978 45.1889 63.9667 45.2001 65.6032Z" fill="#6B968B"/>
<path d="M51.7698 63.5333L51.7475 63.5333L50.4039 64.1732L50.1333 62.9379L51.9974 62.0703L53.3633 62.0703L53.3633 69.1161L51.7698 69.1161L51.7698 63.5333Z" fill="#6B968B"/>
<path d="M60.8809 65.5602C60.8809 67.7379 60.0037 69.2343 58.2033 69.2343C56.3821 69.2343 55.5798 67.5978 55.5687 65.6032C55.5687 63.5655 56.4362 61.9497 58.2574 61.9497C60.1438 61.9513 60.8809 63.6308 60.8809 65.5602ZM57.229 65.6032C57.2179 67.219 57.6079 67.9879 58.2478 67.9879C58.8878 67.9879 59.2348 67.1855 59.2348 65.5809C59.2348 64.0208 58.8989 63.1962 58.2383 63.1962C57.6302 63.1978 57.2179 63.9667 57.229 65.6032Z" fill="#6B968B"/>
<path d="M66.8965 65.5602C66.8965 67.7379 66.0193 69.2343 64.2189 69.2343C62.3977 69.2343 61.5954 67.5978 61.5843 65.6032C61.5843 63.5655 62.4519 61.9497 64.273 61.9497C66.1594 61.9513 66.8965 63.6308 66.8965 65.5602ZM63.243 65.6032C63.2319 67.219 63.6219 67.9879 64.2619 67.9879C64.9018 67.9879 65.2489 67.1855 65.2489 65.5809C65.2489 64.0208 64.913 63.1962 64.2523 63.1962C63.6442 63.1978 63.2335 63.9667 63.243 65.6032Z" fill="#6B968B"/>
<path d="M91.5732 56.5914C91.5732 58.7708 90.6961 60.2655 88.8957 60.2655C87.0745 60.2655 86.2722 58.629 86.261 56.6343C86.261 54.5967 87.1286 52.981 88.9498 52.981C90.8362 52.9825 91.5732 54.662 91.5732 56.5914ZM87.9198 56.6343C87.9087 58.2501 88.2987 59.0191 88.9386 59.0191C89.5786 59.0191 89.9256 58.2168 89.9256 56.6121C89.9256 55.052 89.5897 54.2274 88.9291 54.2274C88.321 54.229 87.9087 54.9979 87.9198 56.6343Z" fill="#6B968B"/>
<path d="M94.4905 54.5645L94.4682 54.5645L93.1246 55.2045L92.854 53.9692L94.7181 53.1016L96.084 53.1016L96.084 60.1474L94.4905 60.1474L94.4905 54.5645Z" fill="#6B968B"/>
<path d="M103.607 56.5914C103.607 58.7708 102.73 60.2655 100.93 60.2655C99.1087 60.2655 98.3064 58.629 98.2952 56.6343C98.2952 54.5967 99.1628 52.981 100.984 52.981C102.87 52.9825 103.607 54.662 103.607 56.5914ZM99.954 56.6343C99.9428 58.2501 100.333 59.0191 100.973 59.0191C101.613 59.0191 101.96 58.2168 101.96 56.6121C101.96 55.052 101.624 54.2274 100.963 54.2274C100.355 54.229 99.9428 54.9979 99.954 56.6343Z" fill="#6B968B"/>
<path d="M106.519 54.5645L106.497 54.5645L105.153 55.2045L104.882 53.9692L106.746 53.1016L108.112 53.1016L108.112 60.1474L106.519 60.1474L106.519 54.5645Z" fill="#6B968B"/>
<path d="M96.7598 65.5602C96.7598 67.7379 95.8826 69.2343 94.0822 69.2343C92.261 69.2343 91.4587 67.5978 91.4476 65.6032C91.4476 63.5655 92.3151 61.9497 94.1363 61.9497C96.0227 61.9513 96.7598 63.6308 96.7598 65.5602ZM93.1063 65.6032C93.0952 67.219 93.4852 67.9879 94.1251 67.9879C94.7651 67.9879 95.1121 67.1855 95.1121 65.5809C95.1121 64.0208 94.7762 63.1962 94.1156 63.1962C93.5075 63.1978 93.0952 63.9667 93.1063 65.6032Z" fill="#6B968B"/>
<path d="M99.677 63.5333L99.6547 63.5333L98.3112 64.1732L98.0405 62.9379L99.9047 62.0703L101.271 62.0703L101.271 69.1161L99.677 69.1161L99.677 63.5333Z" fill="#6B968B"/>
<path d="M108.788 65.5602C108.788 67.7379 107.911 69.2343 106.111 69.2343C104.289 69.2343 103.487 67.5978 103.476 65.6032C103.476 63.5655 104.343 61.9497 106.165 61.9497C108.051 61.9513 108.788 63.6308 108.788 65.5602ZM105.136 65.6032C105.125 67.219 105.515 67.9879 106.155 67.9879C106.795 67.9879 107.142 67.1855 107.142 65.5809C107.142 64.0208 106.806 63.1962 106.146 63.1962C105.537 63.1978 105.125 63.9667 105.136 65.6032Z" fill="#6B968B"/>
<path d="M114.804 65.5602C114.804 67.7379 113.927 69.2343 112.126 69.2343C110.305 69.2343 109.503 67.5978 109.492 65.6032C109.492 63.5655 110.359 61.9497 112.18 61.9497C114.067 61.9513 114.804 63.6308 114.804 65.5602ZM111.15 65.6032C111.139 67.219 111.529 67.9879 112.169 67.9879C112.809 67.9879 113.156 67.1855 113.156 65.5809C113.156 64.0208 112.82 63.1962 112.16 63.1962C111.551 63.1978 111.141 63.9667 111.15 65.6032Z" fill="#6B968B"/>
<path d="M6.77637 56.5914C6.77637 58.7708 5.89921 60.2655 4.09876 60.2655C2.27762 60.2655 1.47531 58.629 1.46416 56.6343C1.46416 54.5967 2.33174 52.981 4.15288 52.981C6.0393 52.9825 6.77637 54.662 6.77637 56.5914ZM3.12292 56.6343C3.11178 58.2501 3.5018 59.0191 4.14175 59.0191C4.7817 59.0191 5.12872 58.2168 5.12872 56.6121C5.12872 55.052 4.79283 54.2274 4.13219 54.2274C3.52408 54.229 3.11178 54.9979 3.12292 56.6343Z" fill="#6B968B"/>
<path d="M9.6897 54.5645L9.66741 54.5645L8.32385 55.2045L8.05321 53.9692L9.91735 53.1016L11.2832 53.1016L11.2832 60.1474L9.6897 60.1474L9.6897 54.5645Z" fill="#6B968B"/>
<path d="M2.84595 63.5333L2.82366 63.5333L1.4801 64.1732L1.20946 62.9379L3.0736 62.0703L4.43945 62.0703L4.43945 69.1161L2.84595 69.1161L2.84595 63.5333Z" fill="#6B968B"/>
<path d="M11.957 65.5602C11.957 67.7379 11.0799 69.2343 9.27945 69.2343C7.4583 69.2343 6.65597 67.5978 6.64483 65.6032C6.64483 63.5655 7.51242 61.9497 9.33357 61.9497C11.22 61.9513 11.957 63.6308 11.957 65.5602ZM8.3052 65.6032C8.29405 67.219 8.68406 67.9879 9.32401 67.9879C9.96395 67.9879 10.311 67.1855 10.311 65.5809C10.311 64.0208 9.97511 63.1962 9.31446 63.1962C8.70635 63.1978 8.29405 63.9667 8.3052 65.6032Z" fill="#6B968B"/>
<path d="M17.9727 65.5602C17.9727 67.7379 17.0955 69.2343 15.2951 69.2343C13.4739 69.2343 12.6716 67.5978 12.6605 65.6032C12.6605 63.5655 13.528 61.9497 15.3492 61.9497C17.2356 61.9513 17.9727 63.6308 17.9727 65.5602ZM14.3192 65.6032C14.3081 67.219 14.6981 67.9879 15.338 67.9879C15.978 67.9879 16.325 67.1855 16.325 65.5809C16.325 64.0208 15.9891 63.1962 15.3285 63.1962C14.7204 63.1978 14.3097 63.9667 14.3192 65.6032Z" fill="#6B968B"/>
<path d="M116.034 56.5914C116.034 58.7708 115.157 60.2655 113.357 60.2655C111.535 60.2655 110.733 58.629 110.722 56.6343C110.722 54.5967 111.59 52.981 113.411 52.981C115.297 52.9825 116.034 54.662 116.034 56.5914ZM112.381 56.6343C112.37 58.2501 112.76 59.0191 113.4 59.0191C114.04 59.0191 114.387 58.2168 114.387 56.6121C114.387 55.052 114.051 54.2274 113.39 54.2274C112.782 54.229 112.37 54.9979 112.381 56.6343Z" fill="#6B968B"/>
<path d="M118.95 54.5645L118.928 54.5645L117.585 55.2045L117.314 53.9692L119.178 53.1016L120.544 53.1016L120.544 60.1474L118.95 60.1474L118.95 54.5645Z" fill="#6B968B"/>
<path d="M128.068 56.5914C128.068 58.7708 127.191 60.2655 125.391 60.2655C123.57 60.2655 122.767 58.629 122.756 56.6343C122.756 54.5967 123.624 52.981 125.445 52.981C127.331 52.9825 128.068 54.662 128.068 56.5914ZM124.415 56.6343C124.404 58.2501 124.794 59.0191 125.434 59.0191C126.074 59.0191 126.421 58.2168 126.421 56.6121C126.421 55.052 126.085 54.2274 125.424 54.2274C124.816 54.229 124.404 54.9979 124.415 56.6343Z" fill="#6B968B"/>
<path d="M130.98 54.5645L130.957 54.5645L129.614 55.2045L129.343 53.9692L131.207 53.1016L132.573 53.1016L132.573 60.1474L130.98 60.1474L130.98 54.5645Z" fill="#6B968B"/>
<path d="M121.22 65.5602C121.22 67.7379 120.343 69.2343 118.542 69.2343C116.721 69.2343 115.919 67.5978 115.908 65.6032C115.908 63.5655 116.775 61.9497 118.596 61.9497C120.483 61.9513 121.22 63.6308 121.22 65.5602ZM117.566 65.6032C117.555 67.219 117.945 67.9879 118.585 67.9879C119.225 67.9879 119.572 67.1855 119.572 65.5809C119.572 64.0208 119.236 63.1962 118.576 63.1962C117.967 63.1978 117.555 63.9667 117.566 65.6032Z" fill="#6B968B"/>
<path d="M124.137 63.5333L124.115 63.5333L122.771 64.1732L122.5 62.9379L124.365 62.0703L125.73 62.0703L125.73 69.1161L124.137 69.1161L124.137 63.5333Z" fill="#6B968B"/>
<path d="M133.25 65.5602C133.25 67.7379 132.373 69.2343 130.572 69.2343C128.751 69.2343 127.949 67.5978 127.938 65.6032C127.938 63.5655 128.805 61.9497 130.627 61.9497C132.513 61.9513 133.25 63.6308 133.25 65.5602ZM129.598 65.6032C129.587 67.219 129.977 67.9879 130.617 67.9879C131.257 67.9879 131.604 67.1855 131.604 65.5809C131.604 64.0208 131.268 63.1962 130.607 63.1962C129.999 63.1978 129.587 63.9667 129.598 65.6032Z" fill="#6B968B"/>
<path d="M139.265 65.5602C139.265 67.7379 138.387 69.2343 136.587 69.2343C134.766 69.2343 133.964 67.5978 133.952 65.6032C133.952 63.5655 134.82 61.9497 136.641 61.9497C138.528 61.9513 139.265 63.6308 139.265 65.5602ZM135.611 65.6032C135.6 67.219 135.99 67.9879 136.63 67.9879C137.27 67.9879 137.617 67.1855 137.617 65.5809C137.617 64.0208 137.281 63.1962 136.62 63.1962C136.012 63.1978 135.602 63.9667 135.611 65.6032Z" fill="#6B968B"/>
<path d="M19.2041 56.5914C19.2041 58.7708 18.327 60.2655 16.5265 60.2655C14.7054 60.2655 13.903 58.629 13.8919 56.6343C13.8919 54.5967 14.7595 52.981 16.5806 52.981C18.4671 52.9825 19.2041 54.662 19.2041 56.5914ZM15.5507 56.6343C15.5395 58.2501 15.9296 59.0191 16.5695 59.0191C17.2094 59.0191 17.5565 58.2168 17.5565 56.6121C17.5565 55.052 17.2206 54.2274 16.5599 54.2274C15.9518 54.229 15.5395 54.9979 15.5507 56.6343Z" fill="#6B968B"/>
<path d="M22.1194 54.5645L22.0971 54.5645L20.7535 55.2045L20.4829 53.9692L22.347 53.1016L23.7129 53.1016L23.7129 60.1474L22.1194 60.1474L22.1194 54.5645Z" fill="#6B968B"/>
<path d="M31.2383 56.5914C31.2383 58.7708 30.3611 60.2655 28.5607 60.2655C26.7395 60.2655 25.9372 58.629 25.9261 56.6343C25.9261 54.5967 26.7937 52.981 28.6148 52.981C30.5012 52.9825 31.2383 54.662 31.2383 56.5914ZM27.5848 56.6343C27.5737 58.2501 27.9637 59.0191 28.6037 59.0191C29.2436 59.0191 29.5906 58.2168 29.5906 56.6121C29.5906 55.052 29.2547 54.2274 28.5941 54.2274C27.986 54.229 27.5737 54.9979 27.5848 56.6343Z" fill="#6B968B"/>
<path d="M34.1497 54.5645L34.1274 54.5645L32.7838 55.2045L32.5132 53.9692L34.3773 53.1016L35.7432 53.1016L35.7432 60.1474L34.1497 60.1474L34.1497 54.5645Z" fill="#6B968B"/>
<path d="M24.3896 65.5602C24.3896 67.7379 23.5125 69.2343 21.712 69.2343C19.8909 69.2343 19.0886 67.5978 19.0774 65.6032C19.0774 63.5655 19.945 61.9497 21.7662 61.9497C23.6526 61.9513 24.3896 63.6308 24.3896 65.5602ZM20.7362 65.6032C20.7251 67.219 21.1151 67.9879 21.755 67.9879C22.395 67.9879 22.742 67.1855 22.742 65.5809C22.742 64.0208 22.4061 63.1962 21.7455 63.1962C21.1374 63.1978 20.7251 63.9667 20.7362 65.6032Z" fill="#6B968B"/>
<path d="M27.3059 63.5333L27.2836 63.5333L25.9401 64.1732L25.6694 62.9379L27.5336 62.0703L28.8994 62.0703L28.8994 69.1161L27.3059 69.1161L27.3059 63.5333Z" fill="#6B968B"/>
<path d="M36.4189 65.5602C36.4189 67.7379 35.5418 69.2343 33.7414 69.2343C31.9202 69.2343 31.1179 67.5978 31.1067 65.6032C31.1067 63.5655 31.9743 61.9497 33.7955 61.9497C35.6819 61.9513 36.4189 63.6308 36.4189 65.5602ZM32.7671 65.6032C32.756 67.219 33.146 67.9879 33.7859 67.9879C34.4259 67.9879 34.7729 67.1855 34.7729 65.5809C34.7729 64.0208 34.437 63.1962 33.7764 63.1962C33.1683 63.1978 32.756 63.9667 32.7671 65.6032Z" fill="#6B968B"/>
<path d="M42.4346 65.5602C42.4346 67.7379 41.5574 69.2343 39.757 69.2343C37.9358 69.2343 37.1335 67.5978 37.1224 65.6032C37.1224 63.5655 37.99 61.9497 39.8111 61.9497C41.6975 61.9513 42.4346 63.6308 42.4346 65.5602ZM38.7811 65.6032C38.77 67.219 39.16 67.9879 39.8 67.9879C40.4399 67.9879 40.7869 67.1855 40.7869 65.5809C40.7869 64.0208 40.4511 63.1962 39.7904 63.1962C39.1823 63.1978 38.7716 63.9667 38.7811 65.6032Z" fill="#6B968B"/>
<path d="M67.1123 56.5914C67.1123 58.7708 66.2352 60.2655 64.4347 60.2655C62.6136 60.2655 61.8112 58.629 61.8001 56.6343C61.8001 54.5967 62.6677 52.981 64.4888 52.981C66.3753 52.9825 67.1123 54.662 67.1123 56.5914ZM63.4589 56.6343C63.4477 58.2501 63.8378 59.0191 64.4777 59.0191C65.1177 59.0191 65.4647 58.2168 65.4647 56.6121C65.4647 55.052 65.1288 54.2274 64.4681 54.2274C63.86 54.229 63.4477 54.9979 63.4589 56.6343Z" fill="#6B968B"/>
<path d="M70.0276 54.565L70.0053 54.565L68.6617 55.205L68.3911 53.9697L70.2552 53.1021L71.6211 53.1021L71.6211 60.1479L70.0276 60.1479L70.0276 54.565Z" fill="#6B968B"/>
<path d="M79.1455 56.5914C79.1455 58.7708 78.2684 60.2655 76.4679 60.2655C74.6468 60.2655 73.8444 58.629 73.8333 56.6343C73.8333 54.5967 74.7009 52.981 76.522 52.981C78.4084 52.9825 79.1455 54.662 79.1455 56.5914ZM75.4921 56.6343C75.4809 58.2501 75.8709 59.0191 76.5109 59.0191C77.1508 59.0191 77.4979 58.2168 77.4979 56.6121C77.4979 55.052 77.162 54.2274 76.5013 54.2274C75.8932 54.229 75.4809 54.9979 75.4921 56.6343Z" fill="#6B968B"/>
<path d="M82.0579 54.565L82.0356 54.565L80.692 55.205L80.4214 53.9697L82.2855 53.1021L83.6514 53.1021L83.6514 60.1479L82.0579 60.1479L82.0579 54.565Z" fill="#6B968B"/>
<path d="M72.2979 65.5602C72.2979 67.7379 71.4207 69.2343 69.6202 69.2343C67.7991 69.2343 66.9968 67.5978 66.9856 65.6032C66.9856 63.5655 67.8532 61.9497 69.6744 61.9497C71.5608 61.9513 72.2979 63.6308 72.2979 65.5602ZM68.6444 65.6032C68.6333 67.219 69.0233 67.9879 69.6632 67.9879C70.3032 67.9879 70.6502 67.1855 70.6502 65.5809C70.6502 64.0208 70.3143 63.1962 69.6537 63.1962C69.0456 63.1978 68.6333 63.9667 68.6444 65.6032Z" fill="#6B968B"/>
<path d="M75.2151 63.5338L75.1928 63.5338L73.8492 64.1737L73.5786 62.9383L75.4427 62.0708L76.8086 62.0708L76.8086 69.1166L75.2151 69.1166L75.2151 63.5338Z" fill="#6B968B"/>
<path d="M84.3271 65.5602C84.3271 67.7379 83.45 69.2343 81.6496 69.2343C79.8284 69.2343 79.0261 67.5978 79.0149 65.6032C79.0149 63.5655 79.8825 61.9497 81.7037 61.9497C83.5901 61.9513 84.3271 63.6308 84.3271 65.5602ZM80.6753 65.6032C80.6642 67.219 81.0542 67.9879 81.6941 67.9879C82.3341 67.9879 82.6811 67.1855 82.6811 65.5809C82.6811 64.0208 82.3452 63.1962 81.6846 63.1962C81.0765 63.1978 80.6642 63.9667 80.6753 65.6032Z" fill="#6B968B"/>
<path d="M90.3428 65.5602C90.3428 67.7379 89.4656 69.2343 87.6652 69.2343C85.844 69.2343 85.0417 67.5978 85.0306 65.6032C85.0306 63.5655 85.8982 61.9497 87.7193 61.9497C89.6057 61.9513 90.3428 63.6308 90.3428 65.5602ZM86.6893 65.6032C86.6782 67.219 87.0682 67.9879 87.7082 67.9879C88.3481 67.9879 88.6951 67.1855 88.6951 65.5809C88.6952 64.0208 88.3593 63.1962 87.6986 63.1962C87.0905 63.1978 86.6798 63.9667 86.6893 65.6032Z" fill="#6B968B"/>
<path d="M43.667 39.2633C43.667 41.4426 42.7899 42.9374 40.9894 42.9374C39.1683 42.9374 38.3659 41.3009 38.3548 39.3062C38.3548 37.2686 39.2224 35.6528 41.0435 35.6528C42.9299 35.6544 43.667 37.3339 43.667 39.2633ZM40.0136 39.3062C40.0024 40.922 40.3924 41.691 41.0324 41.691C41.6723 41.691 42.0194 40.8886 42.0194 39.284C42.0194 37.7239 41.6835 36.8993 41.0228 36.8993C40.4147 36.9009 40.0024 37.6697 40.0136 39.3062Z" fill="#6B968B"/>
<path d="M46.5833 37.2369L46.561 37.2369L45.2174 37.8768L44.9468 36.6415L46.8109 35.7739L48.1768 35.7739L48.1768 42.8198L46.5833 42.8198L46.5833 37.2369Z" fill="#6B968B"/>
<path d="M55.7002 39.2633C55.7002 41.4426 54.823 42.9374 53.0226 42.9374C51.2014 42.9374 50.3991 41.3009 50.388 39.3062C50.388 37.2686 51.2556 35.6528 53.0767 35.6528C54.9631 35.6544 55.7002 37.3339 55.7002 39.2633ZM52.0467 39.3062C52.0356 40.922 52.4256 41.691 53.0656 41.691C53.7055 41.691 54.0526 40.8886 54.0526 39.284C54.0526 37.7239 53.7167 36.8993 53.056 36.8993C52.4479 36.9009 52.0356 37.6697 52.0467 39.3062Z" fill="#6B968B"/>
<path d="M58.6145 37.2369L58.5922 37.2369L57.2487 37.8768L56.978 36.6415L58.8422 35.7739L60.208 35.7739L60.208 42.8198L58.6145 42.8198L58.6145 37.2369Z" fill="#6B968B"/>
<path d="M48.8535 48.2326C48.8535 50.4103 47.9764 51.9067 46.1759 51.9067C44.3548 51.9067 43.5525 50.2702 43.5413 48.2755C43.5413 46.2379 44.4089 44.6221 46.23 44.6221C48.1164 44.6237 48.8535 46.3032 48.8535 48.2326ZM45.2001 48.2755C45.1889 49.8913 45.5789 50.6602 46.2189 50.6602C46.8588 50.6602 47.2059 49.8579 47.2059 48.2532C47.2059 46.6932 46.87 45.8685 46.2094 45.8685C45.6012 45.8701 45.1889 46.6391 45.2001 48.2755Z" fill="#6B968B"/>
<path d="M51.7698 46.2051L51.7475 46.2051L50.4039 46.8451L50.1333 45.6097L51.9974 44.7422L53.3633 44.7422L53.3633 51.7879L51.7698 51.7879L51.7698 46.2051Z" fill="#6B968B"/>
<path d="M60.8809 48.2326C60.8809 50.4103 60.0037 51.9067 58.2033 51.9067C56.3821 51.9067 55.5798 50.2702 55.5687 48.2755C55.5687 46.2379 56.4362 44.6221 58.2574 44.6221C60.1438 44.6237 60.8809 46.3032 60.8809 48.2326ZM57.229 48.2755C57.2179 49.8913 57.6079 50.6602 58.2478 50.6602C58.8878 50.6602 59.2348 49.8579 59.2348 48.2532C59.2348 46.6932 58.8989 45.8685 58.2383 45.8685C57.6302 45.8701 57.2179 46.6391 57.229 48.2755Z" fill="#6B968B"/>
<path d="M66.8965 48.2326C66.8965 50.4103 66.0193 51.9067 64.2189 51.9067C62.3977 51.9067 61.5954 50.2702 61.5843 48.2755C61.5843 46.2379 62.4519 44.6221 64.273 44.6221C66.1594 44.6237 66.8965 46.3032 66.8965 48.2326ZM63.243 48.2755C63.2319 49.8913 63.6219 50.6602 64.2619 50.6602C64.9018 50.6602 65.2489 49.8579 65.2489 48.2532C65.2489 46.6932 64.913 45.8685 64.2523 45.8685C63.6442 45.8701 63.2335 46.6391 63.243 48.2755Z" fill="#6B968B"/>
<path d="M91.5732 39.2633C91.5732 41.4426 90.6961 42.9374 88.8957 42.9374C87.0745 42.9374 86.2722 41.3009 86.261 39.3062C86.261 37.2686 87.1286 35.6528 88.9498 35.6528C90.8362 35.6544 91.5732 37.3339 91.5732 39.2633ZM87.9198 39.3062C87.9087 40.922 88.2987 41.691 88.9386 41.691C89.5786 41.691 89.9256 40.8886 89.9256 39.284C89.9256 37.7239 89.5897 36.8993 88.9291 36.8993C88.321 36.9009 87.9087 37.6697 87.9198 39.3062Z" fill="#6B968B"/>
<path d="M94.4905 37.2369L94.4682 37.2369L93.1246 37.8768L92.854 36.6415L94.7181 35.7739L96.084 35.7739L96.084 42.8198L94.4905 42.8198L94.4905 37.2369Z" fill="#6B968B"/>
<path d="M103.607 39.2633C103.607 41.4426 102.73 42.9374 100.93 42.9374C99.1087 42.9374 98.3064 41.3009 98.2952 39.3062C98.2952 37.2686 99.1628 35.6528 100.984 35.6528C102.87 35.6544 103.607 37.3339 103.607 39.2633ZM99.954 39.3062C99.9428 40.922 100.333 41.691 100.973 41.691C101.613 41.691 101.96 40.8886 101.96 39.284C101.96 37.7239 101.624 36.8993 100.963 36.8993C100.355 36.9009 99.9428 37.6697 99.954 39.3062Z" fill="#6B968B"/>
<path d="M106.519 37.2369L106.497 37.2369L105.153 37.8768L104.882 36.6415L106.746 35.7739L108.112 35.7739L108.112 42.8198L106.519 42.8198L106.519 37.2369Z" fill="#6B968B"/>
<path d="M96.7598 48.2326C96.7598 50.4103 95.8826 51.9067 94.0822 51.9067C92.261 51.9067 91.4587 50.2702 91.4476 48.2755C91.4476 46.2379 92.3151 44.6221 94.1363 44.6221C96.0227 44.6237 96.7598 46.3032 96.7598 48.2326ZM93.1063 48.2755C93.0952 49.8913 93.4852 50.6602 94.1251 50.6602C94.7651 50.6602 95.1121 49.8579 95.1121 48.2532C95.1121 46.6932 94.7762 45.8685 94.1156 45.8685C93.5075 45.8701 93.0952 46.6391 93.1063 48.2755Z" fill="#6B968B"/>
<path d="M99.677 46.2056L99.6547 46.2056L98.3112 46.8456L98.0405 45.6102L99.9047 44.7427L101.271 44.7427L101.271 51.7884L99.677 51.7884L99.677 46.2056Z" fill="#6B968B"/>
<path d="M108.788 48.2326C108.788 50.4103 107.911 51.9067 106.111 51.9067C104.289 51.9067 103.487 50.2702 103.476 48.2755C103.476 46.2379 104.343 44.6221 106.165 44.6221C108.051 44.6237 108.788 46.3032 108.788 48.2326ZM105.136 48.2755C105.125 49.8913 105.515 50.6602 106.155 50.6602C106.795 50.6602 107.142 49.8579 107.142 48.2532C107.142 46.6932 106.806 45.8685 106.146 45.8685C105.537 45.8701 105.125 46.6391 105.136 48.2755Z" fill="#6B968B"/>
<path d="M114.804 48.2326C114.804 50.4103 113.927 51.9067 112.126 51.9067C110.305 51.9067 109.503 50.2702 109.492 48.2755C109.492 46.2379 110.359 44.6221 112.18 44.6221C114.067 44.6237 114.804 46.3032 114.804 48.2326ZM111.15 48.2755C111.139 49.8913 111.529 50.6602 112.169 50.6602C112.809 50.6602 113.156 49.8579 113.156 48.2532C113.156 46.6932 112.82 45.8685 112.16 45.8685C111.551 45.8701 111.141 46.6391 111.15 48.2755Z" fill="#6B968B"/>
<path d="M6.77637 39.2633C6.77637 41.4426 5.89921 42.9374 4.09876 42.9374C2.27762 42.9374 1.47531 41.3009 1.46416 39.3062C1.46416 37.2686 2.33174 35.6528 4.15288 35.6528C6.0393 35.6544 6.77637 37.3339 6.77637 39.2633ZM3.12292 39.3062C3.11178 40.922 3.5018 41.691 4.14175 41.691C4.7817 41.691 5.12872 40.8886 5.12872 39.284C5.12872 37.7239 4.79283 36.8993 4.13219 36.8993C3.52408 36.9009 3.11178 37.6697 3.12292 39.3062Z" fill="#6B968B"/>
<path d="M9.6897 37.2369L9.66741 37.2369L8.32385 37.8768L8.05321 36.6415L9.91735 35.7739L11.2832 35.7739L11.2832 42.8198L9.6897 42.8198L9.6897 37.2369Z" fill="#6B968B"/>
<path d="M2.84595 46.2051L2.82366 46.2051L1.4801 46.8451L1.20946 45.6097L3.0736 44.7422L4.43945 44.7422L4.43945 51.7879L2.84595 51.7879L2.84595 46.2051Z" fill="#6B968B"/>
<path d="M11.957 48.2326C11.957 50.4103 11.0799 51.9067 9.27945 51.9067C7.4583 51.9067 6.65597 50.2702 6.64483 48.2755C6.64483 46.2379 7.51242 44.6221 9.33357 44.6221C11.22 44.6237 11.957 46.3032 11.957 48.2326ZM8.3052 48.2755C8.29405 49.8913 8.68406 50.6602 9.32401 50.6602C9.96395 50.6602 10.311 49.8579 10.311 48.2532C10.311 46.6932 9.97511 45.8685 9.31446 45.8685C8.70635 45.8701 8.29405 46.6391 8.3052 48.2755Z" fill="#6B968B"/>
<path d="M17.9727 48.2326C17.9727 50.4103 17.0955 51.9067 15.2951 51.9067C13.4739 51.9067 12.6716 50.2702 12.6605 48.2755C12.6605 46.2379 13.528 44.6221 15.3492 44.6221C17.2356 44.6237 17.9727 46.3032 17.9727 48.2326ZM14.3192 48.2755C14.3081 49.8913 14.6981 50.6602 15.338 50.6602C15.978 50.6602 16.325 49.8579 16.325 48.2532C16.325 46.6932 15.9891 45.8685 15.3285 45.8685C14.7204 45.8701 14.3097 46.6391 14.3192 48.2755Z" fill="#6B968B"/>
<path d="M116.034 39.2633C116.034 41.4426 115.157 42.9374 113.357 42.9374C111.535 42.9374 110.733 41.3009 110.722 39.3062C110.722 37.2686 111.59 35.6528 113.411 35.6528C115.297 35.6544 116.034 37.3339 116.034 39.2633ZM112.381 39.3062C112.37 40.922 112.76 41.691 113.4 41.691C114.04 41.691 114.387 40.8886 114.387 39.284C114.387 37.7239 114.051 36.8993 113.39 36.8993C112.782 36.9009 112.37 37.6697 112.381 39.3062Z" fill="#6B968B"/>
<path d="M118.95 37.2369L118.928 37.2369L117.585 37.8768L117.314 36.6415L119.178 35.7739L120.544 35.7739L120.544 42.8198L118.95 42.8198L118.95 37.2369Z" fill="#6B968B"/>
<path d="M128.068 39.2633C128.068 41.4426 127.191 42.9374 125.391 42.9374C123.57 42.9374 122.767 41.3009 122.756 39.3062C122.756 37.2686 123.624 35.6528 125.445 35.6528C127.331 35.6544 128.068 37.3339 128.068 39.2633ZM124.415 39.3062C124.404 40.922 124.794 41.691 125.434 41.691C126.074 41.691 126.421 40.8886 126.421 39.284C126.421 37.7239 126.085 36.8993 125.424 36.8993C124.816 36.9009 124.404 37.6697 124.415 39.3062Z" fill="#6B968B"/>
<path d="M130.98 37.2369L130.957 37.2369L129.614 37.8768L129.343 36.6415L131.207 35.7739L132.573 35.7739L132.573 42.8198L130.98 42.8198L130.98 37.2369Z" fill="#6B968B"/>
<path d="M121.22 48.2326C121.22 50.4103 120.343 51.9067 118.542 51.9067C116.721 51.9067 115.919 50.2702 115.908 48.2755C115.908 46.2379 116.775 44.6221 118.596 44.6221C120.483 44.6237 121.22 46.3032 121.22 48.2326ZM117.566 48.2755C117.555 49.8913 117.945 50.6602 118.585 50.6602C119.225 50.6602 119.572 49.8579 119.572 48.2532C119.572 46.6932 119.236 45.8685 118.576 45.8685C117.967 45.8701 117.555 46.6391 117.566 48.2755Z" fill="#6B968B"/>
<path d="M124.137 46.2056L124.115 46.2056L122.771 46.8456L122.5 45.6102L124.365 44.7427L125.73 44.7427L125.73 51.7884L124.137 51.7884L124.137 46.2056Z" fill="#6B968B"/>
<path d="M133.25 48.2326C133.25 50.4103 132.373 51.9067 130.572 51.9067C128.751 51.9067 127.949 50.2702 127.938 48.2755C127.938 46.2379 128.805 44.6221 130.627 44.6221C132.513 44.6237 133.25 46.3032 133.25 48.2326ZM129.598 48.2755C129.587 49.8913 129.977 50.6602 130.617 50.6602C131.257 50.6602 131.604 49.8579 131.604 48.2532C131.604 46.6932 131.268 45.8685 130.607 45.8685C129.999 45.8701 129.587 46.6391 129.598 48.2755Z" fill="#6B968B"/>
<path d="M139.265 48.2326C139.265 50.4103 138.387 51.9067 136.587 51.9067C134.766 51.9067 133.964 50.2702 133.952 48.2755C133.952 46.2379 134.82 44.6221 136.641 44.6221C138.528 44.6237 139.265 46.3032 139.265 48.2326ZM135.611 48.2755C135.6 49.8913 135.99 50.6602 136.63 50.6602C137.27 50.6602 137.617 49.8579 137.617 48.2532C137.617 46.6932 137.281 45.8685 136.62 45.8685C136.012 45.8701 135.602 46.6391 135.611 48.2755Z" fill="#6B968B"/>
<path d="M19.2041 39.2633C19.2041 41.4426 18.327 42.9374 16.5265 42.9374C14.7054 42.9374 13.903 41.3009 13.8919 39.3062C13.8919 37.2686 14.7595 35.6528 16.5806 35.6528C18.4671 35.6544 19.2041 37.3339 19.2041 39.2633ZM15.5507 39.3062C15.5395 40.922 15.9296 41.691 16.5695 41.691C17.2094 41.691 17.5565 40.8886 17.5565 39.284C17.5565 37.7239 17.2206 36.8993 16.5599 36.8993C15.9518 36.9009 15.5395 37.6697 15.5507 39.3062Z" fill="#6B968B"/>
<path d="M22.1194 37.2369L22.0971 37.2369L20.7535 37.8768L20.4829 36.6415L22.347 35.7739L23.7129 35.7739L23.7129 42.8198L22.1194 42.8198L22.1194 37.2369Z" fill="#6B968B"/>
<path d="M31.2383 39.2633C31.2383 41.4426 30.3611 42.9374 28.5607 42.9374C26.7395 42.9374 25.9372 41.3009 25.9261 39.3062C25.9261 37.2686 26.7937 35.6528 28.6148 35.6528C30.5012 35.6544 31.2383 37.3339 31.2383 39.2633ZM27.5848 39.3062C27.5737 40.922 27.9637 41.691 28.6037 41.691C29.2436 41.691 29.5906 40.8886 29.5906 39.284C29.5906 37.7239 29.2547 36.8993 28.5941 36.8993C27.986 36.9009 27.5737 37.6697 27.5848 39.3062Z" fill="#6B968B"/>
<path d="M34.1497 37.2369L34.1274 37.2369L32.7838 37.8768L32.5132 36.6415L34.3773 35.7739L35.7432 35.7739L35.7432 42.8198L34.1497 42.8198L34.1497 37.2369Z" fill="#6B968B"/>
<path d="M24.3896 48.2326C24.3896 50.4103 23.5125 51.9067 21.712 51.9067C19.8909 51.9067 19.0886 50.2702 19.0774 48.2755C19.0774 46.2379 19.945 44.6221 21.7662 44.6221C23.6526 44.6237 24.3896 46.3032 24.3896 48.2326ZM20.7362 48.2755C20.7251 49.8913 21.1151 50.6602 21.755 50.6602C22.395 50.6602 22.742 49.8579 22.742 48.2532C22.742 46.6932 22.4061 45.8685 21.7455 45.8685C21.1374 45.8701 20.7251 46.6391 20.7362 48.2755Z" fill="#6B968B"/>
<path d="M27.3059 46.2056L27.2836 46.2056L25.9401 46.8456L25.6694 45.6102L27.5336 44.7427L28.8994 44.7427L28.8994 51.7884L27.3059 51.7884L27.3059 46.2056Z" fill="#6B968B"/>
<path d="M36.4189 48.2326C36.4189 50.4103 35.5418 51.9067 33.7414 51.9067C31.9202 51.9067 31.1179 50.2702 31.1067 48.2755C31.1067 46.2379 31.9743 44.6221 33.7955 44.6221C35.6819 44.6237 36.4189 46.3032 36.4189 48.2326ZM32.7671 48.2755C32.756 49.8913 33.146 50.6602 33.7859 50.6602C34.4259 50.6602 34.7729 49.8579 34.7729 48.2532C34.7729 46.6932 34.437 45.8685 33.7764 45.8685C33.1683 45.8701 32.756 46.6391 32.7671 48.2755Z" fill="#6B968B"/>
<path d="M42.4346 48.2326C42.4346 50.4103 41.5574 51.9067 39.757 51.9067C37.9358 51.9067 37.1335 50.2702 37.1224 48.2755C37.1224 46.2379 37.99 44.6221 39.8111 44.6221C41.6975 44.6237 42.4346 46.3032 42.4346 48.2326ZM38.7811 48.2755C38.77 49.8913 39.16 50.6602 39.8 50.6602C40.4399 50.6602 40.7869 49.8579 40.7869 48.2532C40.7869 46.6932 40.4511 45.8685 39.7904 45.8685C39.1823 45.8701 38.7716 46.6391 38.7811 48.2755Z" fill="#6B968B"/>
<path d="M67.1123 39.2633C67.1123 41.4426 66.2352 42.9374 64.4347 42.9374C62.6136 42.9374 61.8112 41.3009 61.8001 39.3062C61.8001 37.2686 62.6677 35.6528 64.4888 35.6528C66.3753 35.6544 67.1123 37.3339 67.1123 39.2633ZM63.4589 39.3062C63.4477 40.922 63.8378 41.691 64.4777 41.691C65.1177 41.691 65.4647 40.8886 65.4647 39.284C65.4647 37.7239 65.1288 36.8993 64.4681 36.8993C63.86 36.9009 63.4477 37.6697 63.4589 39.3062Z" fill="#6B968B"/>
<path d="M70.0276 37.2369L70.0053 37.2369L68.6617 37.8768L68.3911 36.6415L70.2552 35.7739L71.6211 35.7739L71.6211 42.8198L70.0276 42.8198L70.0276 37.2369Z" fill="#6B968B"/>
<path d="M79.1455 39.2633C79.1455 41.4426 78.2684 42.9374 76.4679 42.9374C74.6468 42.9374 73.8444 41.3009 73.8333 39.3062C73.8333 37.2686 74.7009 35.6528 76.522 35.6528C78.4084 35.6544 79.1455 37.3339 79.1455 39.2633ZM75.4921 39.3062C75.4809 40.922 75.8709 41.691 76.5109 41.691C77.1508 41.691 77.4979 40.8886 77.4979 39.284C77.4979 37.7239 77.162 36.8993 76.5013 36.8993C75.8932 36.9009 75.4809 37.6697 75.4921 39.3062Z" fill="#6B968B"/>
<path d="M82.0579 37.2369L82.0356 37.2369L80.692 37.8768L80.4214 36.6415L82.2855 35.7739L83.6514 35.7739L83.6514 42.8198L82.0579 42.8198L82.0579 37.2369Z" fill="#6B968B"/>
<path d="M72.2979 48.2326C72.2979 50.4103 71.4207 51.9067 69.6202 51.9067C67.7991 51.9067 66.9968 50.2702 66.9856 48.2755C66.9856 46.2379 67.8532 44.6221 69.6744 44.6221C71.5608 44.6237 72.2979 46.3032 72.2979 48.2326ZM68.6444 48.2755C68.6333 49.8913 69.0233 50.6602 69.6632 50.6602C70.3032 50.6602 70.6502 49.8579 70.6502 48.2532C70.6502 46.6932 70.3143 45.8685 69.6537 45.8685C69.0456 45.8701 68.6333 46.6391 68.6444 48.2755Z" fill="#6B968B"/>
<path d="M75.2151 46.2056L75.1928 46.2056L73.8492 46.8456L73.5786 45.6102L75.4427 44.7427L76.8086 44.7427L76.8086 51.7884L75.2151 51.7884L75.2151 46.2056Z" fill="#6B968B"/>
<path d="M84.3271 48.2326C84.3271 50.4103 83.45 51.9067 81.6496 51.9067C79.8284 51.9067 79.0261 50.2702 79.0149 48.2755C79.0149 46.2379 79.8825 44.6221 81.7037 44.6221C83.5901 44.6237 84.3271 46.3032 84.3271 48.2326ZM80.6753 48.2755C80.6642 49.8913 81.0542 50.6602 81.6941 50.6602C82.3341 50.6602 82.6811 49.8579 82.6811 48.2532C82.6811 46.6932 82.3452 45.8685 81.6846 45.8685C81.0765 45.8701 80.6642 46.6391 80.6753 48.2755Z" fill="#6B968B"/>
<path d="M90.3428 48.2326C90.3428 50.4103 89.4656 51.9067 87.6652 51.9067C85.844 51.9067 85.0417 50.2702 85.0306 48.2755C85.0306 46.2379 85.8982 44.6221 87.7193 44.6221C89.6057 44.6237 90.3428 46.3032 90.3428 48.2326ZM86.6893 48.2755C86.6782 49.8913 87.0682 50.6602 87.7082 50.6602C88.3481 50.6602 88.6951 49.8579 88.6951 48.2532C88.6952 46.6932 88.3593 45.8685 87.6986 45.8685C87.0905 45.8701 86.6798 46.6391 86.6893 48.2755Z" fill="#6B968B"/>
<path d="M43.667 4.60828C43.667 6.78761 42.7899 8.28235 40.9894 8.28235C39.1683 8.28235 38.3659 6.64586 38.3548 4.65119C38.3548 2.61355 39.2224 0.997803 41.0435 0.997803C42.9299 0.999395 43.667 2.67889 43.667 4.60828ZM40.0136 4.65119C40.0024 6.26698 40.3924 7.03595 41.0324 7.03595C41.6723 7.03595 42.0194 6.23361 42.0194 4.62896C42.0194 3.06889 41.6835 2.24428 41.0228 2.24428C40.4147 2.24587 40.0024 3.01471 40.0136 4.65119Z" fill="#6B968B"/>
<path d="M46.5833 2.58161L46.561 2.58161L45.2174 3.22156L44.9468 1.98627L46.8109 1.11865L48.1768 1.11865L48.1768 8.16449L46.5833 8.16449L46.5833 2.58161Z" fill="#6B968B"/>
<path d="M55.7002 4.60828C55.7002 6.78761 54.823 8.28235 53.0226 8.28235C51.2014 8.28235 50.3991 6.64586 50.388 4.65119C50.388 2.61355 51.2556 0.997803 53.0767 0.997803C54.9631 0.999395 55.7002 2.67889 55.7002 4.60828ZM52.0467 4.65119C52.0356 6.26698 52.4256 7.03595 53.0656 7.03595C53.7055 7.03595 54.0526 6.23361 54.0526 4.62896C54.0526 3.06889 53.7167 2.24428 53.056 2.24428C52.4479 2.24587 52.0356 3.01471 52.0467 4.65119Z" fill="#6B968B"/>
<path d="M58.6145 2.58161L58.5922 2.58161L57.2487 3.22156L56.978 1.98627L58.8422 1.11865L60.208 1.11865L60.208 8.16449L58.6145 8.16449L58.6145 2.58161Z" fill="#6B968B"/>
<path d="M48.8535 13.5768C48.8535 15.7545 47.9764 17.2509 46.1759 17.2509C44.3548 17.2509 43.5525 15.6144 43.5413 13.6198C43.5413 11.5821 44.4089 9.96631 46.23 9.96631C48.1164 9.9679 48.8535 11.6474 48.8535 13.5768ZM45.2001 13.6198C45.1889 15.2356 45.5789 16.0045 46.2189 16.0045C46.8588 16.0045 47.2059 15.2021 47.2059 13.5975C47.2059 12.0374 46.87 11.2128 46.2094 11.2128C45.6012 11.2144 45.1889 11.9833 45.2001 13.6198Z" fill="#6B968B"/>
<path d="M51.7698 11.5504L51.7475 11.5504L50.4039 12.1903L50.1333 10.9549L51.9974 10.0874L53.3633 10.0874L53.3633 17.1332L51.7698 17.1332L51.7698 11.5504Z" fill="#6B968B"/>
<path d="M60.8809 13.5768C60.8809 15.7545 60.0037 17.2509 58.2033 17.2509C56.3821 17.2509 55.5798 15.6144 55.5687 13.6198C55.5687 11.5821 56.4362 9.96631 58.2574 9.96631C60.1438 9.9679 60.8809 11.6474 60.8809 13.5768ZM57.229 13.6198C57.2179 15.2356 57.6079 16.0045 58.2478 16.0045C58.8878 16.0045 59.2348 15.2021 59.2348 13.5975C59.2348 12.0374 58.8989 11.2128 58.2383 11.2128C57.6302 11.2144 57.2179 11.9833 57.229 13.6198Z" fill="#6B968B"/>
<path d="M66.8965 13.5768C66.8965 15.7545 66.0193 17.2509 64.2189 17.2509C62.3977 17.2509 61.5954 15.6144 61.5843 13.6198C61.5843 11.5821 62.4519 9.96631 64.273 9.96631C66.1594 9.9679 66.8965 11.6474 66.8965 13.5768ZM63.243 13.6198C63.2319 15.2356 63.6219 16.0045 64.2619 16.0045C64.9018 16.0045 65.2489 15.2021 65.2489 13.5975C65.2489 12.0374 64.913 11.2128 64.2523 11.2128C63.6442 11.2144 63.2335 11.9833 63.243 13.6198Z" fill="#6B968B"/>
<path d="M91.5732 4.60828C91.5732 6.78761 90.6961 8.28235 88.8957 8.28235C87.0745 8.28235 86.2722 6.64586 86.261 4.65119C86.261 2.61355 87.1286 0.997803 88.9498 0.997803C90.8362 0.999395 91.5732 2.67889 91.5732 4.60828ZM87.9198 4.65119C87.9087 6.26698 88.2987 7.03595 88.9386 7.03595C89.5786 7.03595 89.9256 6.23361 89.9256 4.62896C89.9256 3.06889 89.5897 2.24428 88.9291 2.24428C88.321 2.24587 87.9087 3.01471 87.9198 4.65119Z" fill="#6B968B"/>
<path d="M94.4905 2.58161L94.4682 2.58161L93.1246 3.22156L92.854 1.98627L94.7181 1.11865L96.084 1.11865L96.084 8.16449L94.4905 8.16449L94.4905 2.58161Z" fill="#6B968B"/>
<path d="M103.607 4.60828C103.607 6.78761 102.73 8.28235 100.93 8.28235C99.1087 8.28235 98.3064 6.64586 98.2952 4.65119C98.2952 2.61355 99.1628 0.997803 100.984 0.997803C102.87 0.999395 103.607 2.67889 103.607 4.60828ZM99.954 4.65119C99.9428 6.26698 100.333 7.03595 100.973 7.03595C101.613 7.03595 101.96 6.23361 101.96 4.62896C101.96 3.06889 101.624 2.24428 100.963 2.24428C100.355 2.24587 99.9428 3.01471 99.954 4.65119Z" fill="#6B968B"/>
<path d="M106.519 2.58161L106.497 2.58161L105.153 3.22156L104.882 1.98627L106.746 1.11865L108.112 1.11865L108.112 8.16449L106.519 8.16449L106.519 2.58161Z" fill="#6B968B"/>
<path d="M96.7598 13.5773C96.7598 15.755 95.8826 17.2514 94.0822 17.2514C92.261 17.2514 91.4587 15.6149 91.4476 13.6203C91.4476 11.5826 92.3151 9.9668 94.1363 9.9668C96.0227 9.96839 96.7598 11.6479 96.7598 13.5773ZM93.1063 13.6203C93.0952 15.2361 93.4852 16.0049 94.1251 16.0049C94.7651 16.0049 95.1121 15.2026 95.1121 13.598C95.1121 12.0379 94.7762 11.2133 94.1156 11.2133C93.5075 11.2149 93.0952 11.9838 93.1063 13.6203Z" fill="#6B968B"/>
<path d="M99.677 11.5504L99.6547 11.5504L98.3112 12.1903L98.0405 10.9549L99.9047 10.0874L101.271 10.0874L101.271 17.1332L99.677 17.1332L99.677 11.5504Z" fill="#6B968B"/>
<path d="M108.788 13.5773C108.788 15.755 107.911 17.2514 106.111 17.2514C104.289 17.2514 103.487 15.6149 103.476 13.6203C103.476 11.5826 104.343 9.9668 106.165 9.9668C108.051 9.96839 108.788 11.6479 108.788 13.5773ZM105.136 13.6203C105.125 15.2361 105.515 16.0049 106.155 16.0049C106.795 16.0049 107.142 15.2026 107.142 13.598C107.142 12.0379 106.806 11.2133 106.146 11.2133C105.537 11.2149 105.125 11.9838 105.136 13.6203Z" fill="#6B968B"/>
<path d="M114.804 13.5773C114.804 15.755 113.927 17.2514 112.126 17.2514C110.305 17.2514 109.503 15.6149 109.492 13.6203C109.492 11.5826 110.359 9.9668 112.18 9.9668C114.067 9.96839 114.804 11.6479 114.804 13.5773ZM111.15 13.6203C111.139 15.2361 111.529 16.0049 112.169 16.0049C112.809 16.0049 113.156 15.2026 113.156 13.598C113.156 12.0379 112.82 11.2133 112.16 11.2133C111.551 11.2149 111.141 11.9838 111.15 13.6203Z" fill="#6B968B"/>
<path d="M6.77637 4.60828C6.77637 6.78761 5.89921 8.28235 4.09876 8.28235C2.27762 8.28235 1.47531 6.64586 1.46416 4.65119C1.46416 2.61355 2.33174 0.997803 4.15288 0.997803C6.0393 0.999395 6.77637 2.67889 6.77637 4.60828ZM3.12292 4.65119C3.11178 6.26698 3.5018 7.03595 4.14175 7.03595C4.7817 7.03595 5.12872 6.23361 5.12872 4.62896C5.12872 3.06889 4.79283 2.24428 4.13219 2.24428C3.52408 2.24587 3.11178 3.01471 3.12292 4.65119Z" fill="#6B968B"/>
<path d="M9.6897 2.58161L9.66741 2.58161L8.32385 3.22156L8.05321 1.98627L9.91735 1.11865L11.2832 1.11865L11.2832 8.16449L9.6897 8.16449L9.6897 2.58161Z" fill="#6B968B"/>
<path d="M2.84595 11.5504L2.82366 11.5504L1.4801 12.1903L1.20946 10.9549L3.0736 10.0874L4.43945 10.0874L4.43945 17.1332L2.84595 17.1332L2.84595 11.5504Z" fill="#6B968B"/>
<path d="M11.957 13.5768C11.957 15.7545 11.0799 17.2509 9.27945 17.2509C7.4583 17.2509 6.65597 15.6144 6.64483 13.6198C6.64483 11.5821 7.51242 9.96631 9.33357 9.96631C11.22 9.9679 11.957 11.6474 11.957 13.5768ZM8.3052 13.6198C8.29405 15.2356 8.68406 16.0045 9.32401 16.0045C9.96395 16.0045 10.311 15.2021 10.311 13.5975C10.311 12.0374 9.97511 11.2128 9.31446 11.2128C8.70635 11.2144 8.29405 11.9833 8.3052 13.6198Z" fill="#6B968B"/>
<path d="M17.9727 13.5768C17.9727 15.7545 17.0955 17.2509 15.2951 17.2509C13.4739 17.2509 12.6716 15.6144 12.6605 13.6198C12.6605 11.5821 13.528 9.96631 15.3492 9.96631C17.2356 9.9679 17.9727 11.6474 17.9727 13.5768ZM14.3192 13.6198C14.3081 15.2356 14.6981 16.0045 15.338 16.0045C15.978 16.0045 16.325 15.2021 16.325 13.5975C16.325 12.0374 15.9891 11.2128 15.3285 11.2128C14.7204 11.2144 14.3097 11.9833 14.3192 13.6198Z" fill="#6B968B"/>
<path d="M116.034 4.60828C116.034 6.78761 115.157 8.28235 113.357 8.28235C111.535 8.28235 110.733 6.64586 110.722 4.65119C110.722 2.61355 111.59 0.997803 113.411 0.997803C115.297 0.999395 116.034 2.67889 116.034 4.60828ZM112.381 4.65119C112.37 6.26698 112.76 7.03595 113.4 7.03595C114.04 7.03595 114.387 6.23361 114.387 4.62896C114.387 3.06889 114.051 2.24428 113.39 2.24428C112.782 2.24587 112.37 3.01471 112.381 4.65119Z" fill="#6B968B"/>
<path d="M118.95 2.58161L118.928 2.58161L117.585 3.22156L117.314 1.98627L119.178 1.11865L120.544 1.11865L120.544 8.16449L118.95 8.16449L118.95 2.58161Z" fill="#6B968B"/>
<path d="M128.068 4.60828C128.068 6.78761 127.191 8.28235 125.391 8.28235C123.57 8.28235 122.767 6.64586 122.756 4.65119C122.756 2.61355 123.624 0.997803 125.445 0.997803C127.331 0.999395 128.068 2.67889 128.068 4.60828ZM124.415 4.65119C124.404 6.26698 124.794 7.03595 125.434 7.03595C126.074 7.03595 126.421 6.23361 126.421 4.62896C126.421 3.06889 126.085 2.24428 125.424 2.24428C124.816 2.24587 124.404 3.01471 124.415 4.65119Z" fill="#6B968B"/>
<path d="M130.98 2.58161L130.957 2.58161L129.614 3.22156L129.343 1.98627L131.207 1.11865L132.573 1.11865L132.573 8.16449L130.98 8.16449L130.98 2.58161Z" fill="#6B968B"/>
<path d="M121.22 13.5773C121.22 15.755 120.343 17.2514 118.542 17.2514C116.721 17.2514 115.919 15.6149 115.908 13.6203C115.908 11.5826 116.775 9.9668 118.596 9.9668C120.483 9.96839 121.22 11.6479 121.22 13.5773ZM117.566 13.6203C117.555 15.2361 117.945 16.0049 118.585 16.0049C119.225 16.0049 119.572 15.2026 119.572 13.598C119.572 12.0379 119.236 11.2133 118.576 11.2133C117.967 11.2149 117.555 11.9838 117.566 13.6203Z" fill="#6B968B"/>
<path d="M124.137 11.5504L124.115 11.5504L122.771 12.1903L122.5 10.9549L124.365 10.0874L125.73 10.0874L125.73 17.1332L124.137 17.1332L124.137 11.5504Z" fill="#6B968B"/>
<path d="M133.25 13.5773C133.25 15.755 132.373 17.2514 130.572 17.2514C128.751 17.2514 127.949 15.6149 127.938 13.6203C127.938 11.5826 128.805 9.9668 130.627 9.9668C132.513 9.96839 133.25 11.6479 133.25 13.5773ZM129.598 13.6203C129.587 15.2361 129.977 16.0049 130.617 16.0049C131.257 16.0049 131.604 15.2026 131.604 13.598C131.604 12.0379 131.268 11.2133 130.607 11.2133C129.999 11.2149 129.587 11.9838 129.598 13.6203Z" fill="#6B968B"/>
<path d="M139.265 13.5773C139.265 15.755 138.387 17.2514 136.587 17.2514C134.766 17.2514 133.964 15.6149 133.952 13.6203C133.952 11.5826 134.82 9.9668 136.641 9.9668C138.528 9.96839 139.265 11.6479 139.265 13.5773ZM135.611 13.6203C135.6 15.2361 135.99 16.0049 136.63 16.0049C137.27 16.0049 137.617 15.2026 137.617 13.598C137.617 12.0379 137.281 11.2133 136.62 11.2133C136.012 11.2149 135.602 11.9838 135.611 13.6203Z" fill="#6B968B"/>
<path d="M19.2041 4.60828C19.2041 6.78761 18.327 8.28235 16.5265 8.28235C14.7054 8.28235 13.903 6.64586 13.8919 4.65119C13.8919 2.61355 14.7595 0.997803 16.5806 0.997803C18.4671 0.999395 19.2041 2.67889 19.2041 4.60828ZM15.5507 4.65119C15.5395 6.26698 15.9296 7.03595 16.5695 7.03595C17.2094 7.03595 17.5565 6.23361 17.5565 4.62896C17.5565 3.06889 17.2206 2.24428 16.5599 2.24428C15.9518 2.24587 15.5395 3.01471 15.5507 4.65119Z" fill="#6B968B"/>
<path d="M22.1194 2.58161L22.0971 2.58161L20.7535 3.22156L20.4829 1.98627L22.347 1.11865L23.7129 1.11865L23.7129 8.16449L22.1194 8.16449L22.1194 2.58161Z" fill="#6B968B"/>
<path d="M31.2383 4.60828C31.2383 6.78761 30.3611 8.28235 28.5607 8.28235C26.7395 8.28235 25.9372 6.64586 25.9261 4.65119C25.9261 2.61355 26.7937 0.997803 28.6148 0.997803C30.5012 0.999395 31.2383 2.67889 31.2383 4.60828ZM27.5848 4.65119C27.5737 6.26698 27.9637 7.03595 28.6037 7.03595C29.2436 7.03595 29.5906 6.23361 29.5906 4.62896C29.5906 3.06889 29.2547 2.24428 28.5941 2.24428C27.986 2.24587 27.5737 3.01471 27.5848 4.65119Z" fill="#6B968B"/>
<path d="M34.1497 2.58161L34.1274 2.58161L32.7838 3.22156L32.5132 1.98627L34.3773 1.11865L35.7432 1.11865L35.7432 8.16449L34.1497 8.16449L34.1497 2.58161Z" fill="#6B968B"/>
<path d="M24.3896 13.5773C24.3896 15.755 23.5125 17.2514 21.712 17.2514C19.8909 17.2514 19.0886 15.6149 19.0774 13.6203C19.0774 11.5826 19.945 9.9668 21.7662 9.9668C23.6526 9.96839 24.3896 11.6479 24.3896 13.5773ZM20.7362 13.6203C20.7251 15.2361 21.1151 16.0049 21.755 16.0049C22.395 16.0049 22.742 15.2026 22.742 13.598C22.742 12.0379 22.4061 11.2133 21.7455 11.2133C21.1374 11.2149 20.7251 11.9838 20.7362 13.6203Z" fill="#6B968B"/>
<path d="M27.3059 11.5504L27.2836 11.5504L25.9401 12.1903L25.6694 10.9549L27.5336 10.0874L28.8994 10.0874L28.8994 17.1332L27.3059 17.1332L27.3059 11.5504Z" fill="#6B968B"/>
<path d="M36.4189 13.5773C36.4189 15.755 35.5418 17.2514 33.7414 17.2514C31.9202 17.2514 31.1179 15.6149 31.1067 13.6203C31.1067 11.5826 31.9743 9.9668 33.7955 9.9668C35.6819 9.96839 36.4189 11.6479 36.4189 13.5773ZM32.7671 13.6203C32.756 15.2361 33.146 16.0049 33.7859 16.0049C34.4259 16.0049 34.7729 15.2026 34.7729 13.598C34.7729 12.0379 34.437 11.2133 33.7764 11.2133C33.1683 11.2149 32.756 11.9838 32.7671 13.6203Z" fill="#6B968B"/>
<path d="M42.4346 13.5773C42.4346 15.755 41.5574 17.2514 39.757 17.2514C37.9358 17.2514 37.1335 15.6149 37.1224 13.6203C37.1224 11.5826 37.99 9.9668 39.8111 9.9668C41.6975 9.96839 42.4346 11.6479 42.4346 13.5773ZM38.7811 13.6203C38.77 15.2361 39.16 16.0049 39.8 16.0049C40.4399 16.0049 40.7869 15.2026 40.7869 13.598C40.7869 12.0379 40.4511 11.2133 39.7904 11.2133C39.1823 11.2149 38.7716 11.9838 38.7811 13.6203Z" fill="#6B968B"/>
<path d="M67.1123 4.60828C67.1123 6.78761 66.2352 8.28235 64.4347 8.28235C62.6136 8.28235 61.8112 6.64586 61.8001 4.65119C61.8001 2.61355 62.6677 0.997803 64.4888 0.997803C66.3753 0.999395 67.1123 2.67889 67.1123 4.60828ZM63.4589 4.65119C63.4477 6.26698 63.8378 7.03595 64.4777 7.03595C65.1177 7.03595 65.4647 6.23361 65.4647 4.62896C65.4647 3.06889 65.1288 2.24428 64.4681 2.24428C63.86 2.24587 63.4477 3.01471 63.4589 4.65119Z" fill="#6B968B"/>
<path d="M70.0276 2.58161L70.0053 2.58161L68.6617 3.22156L68.3911 1.98627L70.2552 1.11865L71.6211 1.11865L71.6211 8.16449L70.0276 8.16449L70.0276 2.58161Z" fill="#6B968B"/>
<path d="M79.1455 4.60828C79.1455 6.78761 78.2684 8.28235 76.4679 8.28235C74.6468 8.28235 73.8444 6.64586 73.8333 4.65119C73.8333 2.61355 74.7009 0.997803 76.522 0.997803C78.4084 0.999395 79.1455 2.67889 79.1455 4.60828ZM75.4921 4.65119C75.4809 6.26698 75.8709 7.03595 76.5109 7.03595C77.1508 7.03595 77.4979 6.23361 77.4979 4.62896C77.4979 3.06889 77.162 2.24428 76.5013 2.24428C75.8932 2.24587 75.4809 3.01471 75.4921 4.65119Z" fill="#6B968B"/>
<path d="M82.0579 2.58161L82.0356 2.58161L80.692 3.22156L80.4214 1.98627L82.2855 1.11865L83.6514 1.11865L83.6514 8.16449L82.0579 8.16449L82.0579 2.58161Z" fill="#6B968B"/>
<path d="M72.2979 13.5768C72.2979 15.7545 71.4207 17.2509 69.6202 17.2509C67.7991 17.2509 66.9968 15.6144 66.9856 13.6198C66.9856 11.5821 67.8532 9.96631 69.6744 9.96631C71.5608 9.9679 72.2979 11.6474 72.2979 13.5768ZM68.6444 13.6198C68.6333 15.2356 69.0233 16.0045 69.6632 16.0045C70.3032 16.0045 70.6502 15.2021 70.6502 13.5975C70.6502 12.0374 70.3143 11.2128 69.6537 11.2128C69.0456 11.2144 68.6333 11.9833 68.6444 13.6198Z" fill="#6B968B"/>
<path d="M75.2151 11.5504L75.1928 11.5504L73.8492 12.1903L73.5786 10.9549L75.4427 10.0874L76.8086 10.0874L76.8086 17.1332L75.2151 17.1332L75.2151 11.5504Z" fill="#6B968B"/>
<path d="M84.3271 13.5768C84.3271 15.7545 83.45 17.2509 81.6496 17.2509C79.8284 17.2509 79.0261 15.6144 79.0149 13.6198C79.0149 11.5821 79.8825 9.96631 81.7037 9.96631C83.5901 9.9679 84.3271 11.6474 84.3271 13.5768ZM80.6753 13.6198C80.6642 15.2356 81.0542 16.0045 81.6941 16.0045C82.3341 16.0045 82.6811 15.2021 82.6811 13.5975C82.6811 12.0374 82.3452 11.2128 81.6846 11.2128C81.0765 11.2144 80.6642 11.9833 80.6753 13.6198Z" fill="#6B968B"/>
<path d="M90.3428 13.5768C90.3428 15.7545 89.4656 17.2509 87.6652 17.2509C85.844 17.2509 85.0417 15.6144 85.0306 13.6198C85.0306 11.5821 85.8982 9.96631 87.7193 9.96631C89.6057 9.9679 90.3428 11.6474 90.3428 13.5768ZM86.6893 13.6198C86.6782 15.2356 87.0682 16.0045 87.7082 16.0045C88.3481 16.0045 88.6951 15.2021 88.6951 13.5975C88.6952 12.0374 88.3593 11.2128 87.6986 11.2128C87.0905 11.2144 86.6798 11.9833 86.6893 13.6198Z" fill="#6B968B"/>
<path d="M43.668 73.9191C43.668 76.0984 42.7908 77.5931 40.9904 77.5931C39.1692 77.5931 38.3669 75.9566 38.3558 73.962C38.3558 71.9243 39.2234 70.3086 41.0445 70.3086C42.9309 70.3102 43.668 71.9897 43.668 73.9191ZM40.0145 73.962C40.0034 75.5778 40.3934 76.3467 41.0334 76.3467C41.6733 76.3467 42.0203 75.5444 42.0203 73.9398C42.0203 72.3797 41.6845 71.5551 41.0238 71.5551C40.4157 71.5567 40.0034 72.3255 40.0145 73.962Z" fill="#6B968B"/>
<path d="M46.5842 71.8926L46.5619 71.8926L45.2184 72.5326L44.9477 71.2973L46.8119 70.4297L48.1777 70.4297L48.1777 77.4755L46.5842 77.4755L46.5842 71.8926Z" fill="#6B968B"/>
<path d="M55.7012 73.9191C55.7012 76.0984 54.824 77.5931 53.0236 77.5931C51.2024 77.5931 50.4001 75.9566 50.389 73.962C50.389 71.9243 51.2565 70.3086 53.0777 70.3086C54.9641 70.3102 55.7012 71.9897 55.7012 73.9191ZM52.0477 73.962C52.0366 75.5778 52.4266 76.3467 53.0666 76.3467C53.7065 76.3467 54.0535 75.5444 54.0535 73.9398C54.0535 72.3797 53.7176 71.5551 53.057 71.5551C52.4489 71.5567 52.0366 72.3255 52.0477 73.962Z" fill="#6B968B"/>
<path d="M58.6145 71.8926L58.5922 71.8926L57.2487 72.5326L56.978 71.2973L58.8422 70.4297L60.208 70.4297L60.208 77.4755L58.6145 77.4755L58.6145 71.8926Z" fill="#6B968B"/>
<path d="M48.8535 82.8888C48.8535 85.0665 47.9764 86.5629 46.1759 86.5629C44.3548 86.5629 43.5525 84.9264 43.5413 82.9318C43.5413 80.8941 44.4089 79.2783 46.23 79.2783C48.1164 79.2799 48.8535 80.9594 48.8535 82.8888ZM45.2001 82.9318C45.1889 84.5476 45.5789 85.3165 46.2189 85.3165C46.8588 85.3165 47.2059 84.5141 47.2059 82.9095C47.2059 81.3494 46.87 80.5248 46.2094 80.5248C45.6012 80.5264 45.1889 81.2953 45.2001 82.9318Z" fill="#6B968B"/>
<path d="M51.7698 80.8619L51.7475 80.8619L50.4039 81.5018L50.1333 80.2665L51.9974 79.3989L53.3633 79.3989L53.3633 86.4447L51.7698 86.4447L51.7698 80.8619Z" fill="#6B968B"/>
<path d="M60.8818 82.8888C60.8818 85.0665 60.0047 86.5629 58.2043 86.5629C56.3831 86.5629 55.5808 84.9264 55.5696 82.9318C55.5696 80.8941 56.4372 79.2783 58.2584 79.2783C60.1448 79.2799 60.8818 80.9594 60.8818 82.8888ZM57.23 82.9318C57.2189 84.5476 57.6089 85.3165 58.2488 85.3165C58.8888 85.3165 59.2358 84.5141 59.2358 82.9095C59.2358 81.3494 58.8999 80.5248 58.2393 80.5248C57.6312 80.5264 57.2189 81.2953 57.23 82.9318Z" fill="#6B968B"/>
<path d="M66.8975 82.8888C66.8975 85.0665 66.0203 86.5629 64.2199 86.5629C62.3987 86.5629 61.5964 84.9264 61.5853 82.9318C61.5853 80.8941 62.4529 79.2783 64.274 79.2783C66.1604 79.2799 66.8975 80.9594 66.8975 82.8888ZM63.244 82.9318C63.2329 84.5476 63.6229 85.3165 64.2628 85.3165C64.9028 85.3165 65.2498 84.5141 65.2498 82.9095C65.2498 81.3494 64.9139 80.5248 64.2533 80.5248C63.6452 80.5264 63.2345 81.2953 63.244 82.9318Z" fill="#6B968B"/>
<path d="M91.5742 73.9191C91.5742 76.0984 90.6971 77.5931 88.8966 77.5931C87.0755 77.5931 86.2732 75.9566 86.262 73.962C86.262 71.9243 87.1296 70.3086 88.9508 70.3086C90.8372 70.3102 91.5742 71.9897 91.5742 73.9191ZM87.9208 73.962C87.9096 75.5778 88.2997 76.3467 88.9396 76.3467C89.5796 76.3467 89.9266 75.5444 89.9266 73.9398C89.9266 72.3797 89.5907 71.5551 88.9301 71.5551C88.3219 71.5567 87.9096 72.3255 87.9208 73.962Z" fill="#6B968B"/>
<path d="M94.4915 71.8926L94.4692 71.8926L93.1256 72.5326L92.855 71.2973L94.7191 70.4297L96.085 70.4297L96.085 77.4755L94.4915 77.4755L94.4915 71.8926Z" fill="#6B968B"/>
<path d="M103.608 73.9191C103.608 76.0984 102.731 77.5931 100.931 77.5931C99.1096 77.5931 98.3073 75.9566 98.2962 73.962C98.2962 71.9243 99.1638 70.3086 100.985 70.3086C102.871 70.3102 103.608 71.9897 103.608 73.9191ZM99.955 73.962C99.9438 75.5778 100.334 76.3467 100.974 76.3467C101.614 76.3467 101.961 75.5444 101.961 73.9398C101.961 72.3797 101.625 71.5551 100.964 71.5551C100.356 71.5567 99.9438 72.3255 99.955 73.962Z" fill="#6B968B"/>
<path d="M106.52 71.8926L106.497 71.8926L105.154 72.5326L104.883 71.2973L106.747 70.4297L108.113 70.4297L108.113 77.4755L106.52 77.4755L106.52 71.8926Z" fill="#6B968B"/>
<path d="M96.7607 82.8888C96.7607 85.0665 95.8836 86.5629 94.0831 86.5629C92.262 86.5629 91.4597 84.9264 91.4485 82.9318C91.4485 80.8941 92.3161 79.2783 94.1373 79.2783C96.0237 79.2799 96.7607 80.9594 96.7607 82.8888ZM93.1073 82.9318C93.0962 84.5476 93.4862 85.3165 94.1261 85.3165C94.7661 85.3165 95.1131 84.5141 95.1131 82.9095C95.1131 81.3494 94.7772 80.5248 94.1166 80.5248C93.5085 80.5264 93.0962 81.2953 93.1073 82.9318Z" fill="#6B968B"/>
<path d="M99.678 80.8619L99.6557 80.8619L98.3121 81.5018L98.0415 80.2665L99.9056 79.3989L101.271 79.3989L101.271 86.4447L99.678 86.4447L99.678 80.8619Z" fill="#6B968B"/>
<path d="M108.79 82.8888C108.79 85.0665 107.913 86.5629 106.112 86.5629C104.291 86.5629 103.489 84.9264 103.478 82.9318C103.478 80.8941 104.345 79.2783 106.167 79.2783C108.053 79.2799 108.79 80.9594 108.79 82.8888ZM105.138 82.9318C105.127 84.5476 105.517 85.3165 106.157 85.3165C106.797 85.3165 107.144 84.5141 107.144 82.9095C107.144 81.3494 106.808 80.5248 106.147 80.5248C105.539 80.5264 105.127 81.2953 105.138 82.9318Z" fill="#6B968B"/>
<path d="M114.805 82.8888C114.805 85.0665 113.928 86.5629 112.127 86.5629C110.306 86.5629 109.504 84.9264 109.492 82.9318C109.492 80.8941 110.36 79.2783 112.181 79.2783C114.068 79.2799 114.805 80.9594 114.805 82.8888ZM111.151 82.9318C111.14 84.5476 111.53 85.3165 112.17 85.3165C112.81 85.3165 113.157 84.5141 113.157 82.9095C113.157 81.3494 112.821 80.5248 112.161 80.5248C111.552 80.5264 111.142 81.2953 111.151 82.9318Z" fill="#6B968B"/>
<path d="M6.77734 73.9191C6.77734 76.0984 5.90019 77.5931 4.09974 77.5931C2.27859 77.5931 1.47628 75.9566 1.46514 73.962C1.46514 71.9243 2.33271 70.3086 4.15386 70.3086C6.04027 70.3102 6.77734 71.9897 6.77734 73.9191ZM3.1239 73.962C3.11275 75.5778 3.50278 76.3467 4.14272 76.3467C4.78267 76.3467 5.1297 75.5444 5.1297 73.9398C5.1297 72.3797 4.79381 71.5551 4.13316 71.5551C3.52505 71.5567 3.11275 72.3255 3.1239 73.962Z" fill="#6B968B"/>
<path d="M9.69068 71.8926L9.66839 71.8926L8.32482 72.5326L8.05419 71.2973L9.91833 70.4297L11.2842 70.4297L11.2842 77.4755L9.69068 77.4755L9.69068 71.8926Z" fill="#6B968B"/>
<path d="M2.84693 80.8619L2.82464 80.8619L1.48107 81.5018L1.21044 80.2665L3.07458 79.3989L4.44043 79.3989L4.44043 86.4447L2.84693 86.4447L2.84693 80.8619Z" fill="#6B968B"/>
<path d="M11.958 82.8888C11.958 85.0665 11.0809 86.5629 9.28042 86.5629C7.45928 86.5629 6.65695 84.9264 6.6458 82.9318C6.6458 80.8941 7.5134 79.2783 9.33454 79.2783C11.221 79.2799 11.958 80.9594 11.958 82.8888ZM8.30617 82.9318C8.29503 84.5476 8.68503 85.3165 9.32498 85.3165C9.96493 85.3165 10.312 84.5141 10.312 82.9095C10.312 81.3494 9.97608 80.5248 9.31544 80.5248C8.70733 80.5264 8.29503 81.2953 8.30617 82.9318Z" fill="#6B968B"/>
<path d="M17.9736 82.8888C17.9736 85.0665 17.0965 86.5629 15.296 86.5629C13.4749 86.5629 12.6726 84.9264 12.6614 82.9318C12.6614 80.8941 13.529 79.2783 15.3502 79.2783C17.2366 79.2799 17.9736 80.9594 17.9736 82.8888ZM14.3202 82.9318C14.309 84.5476 14.6991 85.3165 15.339 85.3165C15.979 85.3165 16.326 84.5141 16.326 82.9095C16.326 81.3494 15.9901 80.5248 15.3295 80.5248C14.7214 80.5264 14.3106 81.2953 14.3202 82.9318Z" fill="#6B968B"/>
<path d="M116.035 73.9191C116.035 76.0984 115.158 77.5931 113.358 77.5931C111.536 77.5931 110.734 75.9566 110.723 73.962C110.723 71.9243 111.591 70.3086 113.412 70.3086C115.298 70.3102 116.035 71.9897 116.035 73.9191ZM112.382 73.962C112.371 75.5778 112.761 76.3467 113.401 76.3467C114.041 76.3467 114.388 75.5444 114.388 73.9398C114.388 72.3797 114.052 71.5551 113.391 71.5551C112.783 71.5567 112.371 72.3255 112.382 73.962Z" fill="#6B968B"/>
<path d="M118.951 71.8926L118.929 71.8926L117.586 72.5326L117.315 71.2973L119.179 70.4297L120.545 70.4297L120.545 77.4755L118.951 77.4755L118.951 71.8926Z" fill="#6B968B"/>
<path d="M128.07 73.9191C128.07 76.0984 127.193 77.5931 125.393 77.5931C123.572 77.5931 122.769 75.9566 122.758 73.962C122.758 71.9243 123.626 70.3086 125.447 70.3086C127.333 70.3102 128.07 71.9897 128.07 73.9191ZM124.417 73.962C124.406 75.5778 124.796 76.3467 125.436 76.3467C126.076 76.3467 126.423 75.5444 126.423 73.9398C126.423 72.3797 126.087 71.5551 125.426 71.5551C124.818 71.5567 124.406 72.3255 124.417 73.962Z" fill="#6B968B"/>
<path d="M130.982 71.8926L130.959 71.8926L129.616 72.5326L129.345 71.2973L131.209 70.4297L132.575 70.4297L132.575 77.4755L130.982 77.4755L130.982 71.8926Z" fill="#6B968B"/>
<path d="M121.222 82.8883C121.222 85.066 120.345 86.5625 118.544 86.5625C116.723 86.5625 115.921 84.926 115.909 82.9313C115.909 80.8937 116.777 79.2778 118.598 79.2778C120.485 79.2794 121.222 80.9589 121.222 82.8883ZM117.568 82.9313C117.557 84.5471 117.947 85.316 118.587 85.316C119.227 85.316 119.574 84.5136 119.574 82.909C119.574 81.3489 119.238 80.5243 118.578 80.5243C117.969 80.5259 117.557 81.2948 117.568 82.9313Z" fill="#6B968B"/>
<path d="M124.139 80.8619L124.117 80.8619L122.773 81.5018L122.502 80.2665L124.367 79.3989L125.732 79.3989L125.732 86.4447L124.139 86.4447L124.139 80.8619Z" fill="#6B968B"/>
<path d="M133.252 82.8888C133.252 85.0665 132.375 86.5629 130.574 86.5629C128.753 86.5629 127.951 84.9264 127.94 82.9318C127.94 80.8941 128.807 79.2783 130.628 79.2783C132.515 79.2799 133.252 80.9594 133.252 82.8888ZM129.6 82.9318C129.589 84.5476 129.979 85.3165 130.619 85.3165C131.259 85.3165 131.606 84.5141 131.606 82.9095C131.606 81.3494 131.27 80.5248 130.609 80.5248C130.001 80.5264 129.589 81.2953 129.6 82.9318Z" fill="#6B968B"/>
<path d="M139.267 82.8888C139.267 85.0665 138.389 86.5629 136.589 86.5629C134.768 86.5629 133.966 84.9264 133.954 82.9318C133.954 80.8941 134.822 79.2783 136.643 79.2783C138.53 79.2799 139.267 80.9594 139.267 82.8888ZM135.613 82.9318C135.602 84.5476 135.992 85.3165 136.632 85.3165C137.272 85.3165 137.619 84.5141 137.619 82.9095C137.619 81.3494 137.283 80.5248 136.622 80.5248C136.014 80.5264 135.604 81.2953 135.613 82.9318Z" fill="#6B968B"/>
<path d="M19.2061 73.9191C19.2061 76.0984 18.3289 77.5931 16.5285 77.5931C14.7073 77.5931 13.905 75.9566 13.8939 73.962C13.8939 71.9243 14.7614 70.3086 16.5826 70.3086C18.469 70.3102 19.2061 71.9897 19.2061 73.9191ZM15.5526 73.962C15.5415 75.5778 15.9315 76.3467 16.5715 76.3467C17.2114 76.3467 17.5584 75.5444 17.5584 73.9398C17.5584 72.3797 17.2225 71.5551 16.5619 71.5551C15.9538 71.5567 15.5415 72.3255 15.5526 73.962Z" fill="#6B968B"/>
<path d="M22.1223 71.8926L22.1 71.8926L20.7564 72.5326L20.4858 71.2973L22.3499 70.4297L23.7158 70.4297L23.7158 77.4755L22.1223 77.4755L22.1223 71.8926Z" fill="#6B968B"/>
<path d="M31.2402 73.9191C31.2402 76.0984 30.3631 77.5931 28.5626 77.5931C26.7415 77.5931 25.9392 75.9566 25.928 73.962C25.928 71.9243 26.7956 70.3086 28.6168 70.3086C30.5032 70.3102 31.2402 71.9897 31.2402 73.9191ZM27.5868 73.962C27.5756 75.5778 27.9657 76.3467 28.6056 76.3467C29.2456 76.3467 29.5926 75.5444 29.5926 73.9398C29.5926 72.3797 29.2567 71.5551 28.5961 71.5551C27.9879 71.5567 27.5756 72.3255 27.5868 73.962Z" fill="#6B968B"/>
<path d="M34.1516 71.8926L34.1293 71.8926L32.7858 72.5326L32.5151 71.2973L34.3793 70.4297L35.7451 70.4297L35.7451 77.4755L34.1516 77.4755L34.1516 71.8926Z" fill="#6B968B"/>
<path d="M24.3916 82.8888C24.3916 85.0665 23.5144 86.5629 21.714 86.5629C19.8929 86.5629 19.0905 84.9264 19.0794 82.9318C19.0794 80.8941 19.947 79.2783 21.7681 79.2783C23.6545 79.2799 24.3916 80.9594 24.3916 82.8888ZM20.7382 82.9318C20.727 84.5476 21.117 85.3165 21.757 85.3165C22.3969 85.3165 22.744 84.5141 22.744 82.9095C22.744 81.3494 22.4081 80.5248 21.7474 80.5248C21.1393 80.5264 20.727 81.2953 20.7382 82.9318Z" fill="#6B968B"/>
<path d="M27.3079 80.8619L27.2856 80.8619L25.942 81.5018L25.6714 80.2665L27.5355 79.3989L28.9014 79.3989L28.9014 86.4447L27.3079 86.4447L27.3079 80.8619Z" fill="#6B968B"/>
<path d="M36.4219 82.8888C36.4219 85.0665 35.5447 86.5629 33.7443 86.5629C31.9231 86.5629 31.1208 84.9264 31.1097 82.9318C31.1097 80.8941 31.9773 79.2783 33.7984 79.2783C35.6848 79.2799 36.4219 80.9594 36.4219 82.8888ZM32.77 82.9318C32.7589 84.5476 33.1489 85.3165 33.7888 85.3165C34.4288 85.3165 34.7758 84.5141 34.7758 82.9095C34.7758 81.3494 34.44 80.5248 33.7793 80.5248C33.1712 80.5264 32.7589 81.2953 32.77 82.9318Z" fill="#6B968B"/>
<path d="M42.4365 82.8888C42.4365 85.0665 41.5594 86.5629 39.7589 86.5629C37.9378 86.5629 37.1355 84.9264 37.1243 82.9318C37.1243 80.8941 37.9919 79.2783 39.8131 79.2783C41.6995 79.2799 42.4365 80.9594 42.4365 82.8888ZM38.7831 82.9318C38.7719 84.5476 39.162 85.3165 39.8019 85.3165C40.4419 85.3165 40.7889 84.5141 40.7889 82.9095C40.7889 81.3494 40.453 80.5248 39.7924 80.5248C39.1843 80.5264 38.7735 81.2953 38.7831 82.9318Z" fill="#6B968B"/>
<path d="M67.1133 73.9191C67.1133 76.0984 66.2361 77.5931 64.4357 77.5931C62.6146 77.5931 61.8122 75.9566 61.8011 73.962C61.8011 71.9243 62.6687 70.3086 64.4898 70.3086C66.3762 70.3102 67.1133 71.9897 67.1133 73.9191ZM63.4599 73.962C63.4487 75.5778 63.8387 76.3467 64.4787 76.3467C65.1186 76.3467 65.4657 75.5444 65.4657 73.9398C65.4657 72.3797 65.1298 71.5551 64.4691 71.5551C63.861 71.5567 63.4487 72.3255 63.4599 73.962Z" fill="#6B968B"/>
<path d="M70.0286 71.8926L70.0063 71.8926L68.6627 72.5326L68.3921 71.2973L70.2562 70.4297L71.6221 70.4297L71.6221 77.4755L70.0286 77.4755L70.0286 71.8926Z" fill="#6B968B"/>
<path d="M79.1465 73.9191C79.1465 76.0984 78.2693 77.5931 76.4689 77.5931C74.6477 77.5931 73.8454 75.9566 73.8343 73.962C73.8343 71.9243 74.7019 70.3086 76.523 70.3086C78.4094 70.3102 79.1465 71.9897 79.1465 73.9191ZM75.493 73.962C75.4819 75.5778 75.8719 76.3467 76.5119 76.3467C77.1518 76.3467 77.4988 75.5444 77.4988 73.9398C77.4988 72.3797 77.1629 71.5551 76.5023 71.5551C75.8942 71.5567 75.4819 72.3255 75.493 73.962Z" fill="#6B968B"/>
<path d="M82.0588 71.8926L82.0366 71.8926L80.693 72.5326L80.4224 71.2973L82.2865 70.4297L83.6523 70.4297L83.6523 77.4755L82.0588 77.4755L82.0588 71.8926Z" fill="#6B968B"/>
<path d="M72.2988 82.8888C72.2988 85.0665 71.4217 86.5629 69.6212 86.5629C67.8001 86.5629 66.9978 84.9264 66.9866 82.9318C66.9866 80.8941 67.8542 79.2783 69.6753 79.2783C71.5618 79.2799 72.2988 80.9594 72.2988 82.8888ZM68.6454 82.9318C68.6342 84.5476 69.0243 85.3165 69.6642 85.3165C70.3042 85.3165 70.6512 84.5141 70.6512 82.9095C70.6512 81.3494 70.3153 80.5248 69.6547 80.5248C69.0466 80.5264 68.6342 81.2953 68.6454 82.9318Z" fill="#6B968B"/>
<path d="M75.2161 80.8619L75.1938 80.8619L73.8502 81.5018L73.5796 80.2665L75.4437 79.3989L76.8096 79.3989L76.8096 86.4447L75.2161 86.4447L75.2161 80.8619Z" fill="#6B968B"/>
<path d="M84.3281 82.8888C84.3281 85.0665 83.451 86.5629 81.6505 86.5629C79.8294 86.5629 79.0271 84.9264 79.0159 82.9318C79.0159 80.8941 79.8835 79.2783 81.7047 79.2783C83.5911 79.2799 84.3281 80.9594 84.3281 82.8888ZM80.6763 82.9318C80.6651 84.5476 81.0552 85.3165 81.6951 85.3165C82.335 85.3165 82.6821 84.5141 82.6821 82.9095C82.6821 81.3494 82.3462 80.5248 81.6856 80.5248C81.0774 80.5264 80.6651 81.2953 80.6763 82.9318Z" fill="#6B968B"/>
<path d="M90.3437 82.8888C90.3437 85.0665 89.4666 86.5629 87.6661 86.5629C85.845 86.5629 85.0427 84.9264 85.0315 82.9318C85.0315 80.8941 85.8991 79.2783 87.7203 79.2783C89.6067 79.2799 90.3437 80.9594 90.3437 82.8888ZM86.6903 82.9318C86.6792 84.5476 87.0692 85.3165 87.7091 85.3165C88.3491 85.3165 88.6961 84.5141 88.6961 82.9095C88.6961 81.3494 88.3602 80.5248 87.6996 80.5248C87.0915 80.5264 86.6808 81.2953 86.6903 82.9318Z" fill="#6B968B"/>
</g>
</svg>
