<svg width="272" height="236" viewBox="0 0 272 236" fill="none" xmlns="http://www.w3.org/2000/svg">
<path fill-rule="evenodd" clip-rule="evenodd" d="M271.153 117.821L124.924 0.739253C97.1204 30.9788 53.1741 54.2401 0.80664 65.5107L53.6287 235.802C141.742 215.166 217.676 173.219 271.153 117.821Z" fill="#E6EAEA"/>
<path d="M151.397 160.256H123.534C122.786 160.256 122.18 159.65 122.18 158.901V141.355C122.18 140.606 122.786 140 123.534 140H151.397C152.145 140 152.751 140.606 152.751 141.355V158.901C152.753 159.65 152.145 160.256 151.397 160.256Z" fill="#7EB9C7"/>
<path d="M150.733 162.979H121.477C120.683 162.979 120.041 162.336 120.041 161.542V142.751C120.041 141.957 120.683 141.314 121.477 141.314H150.733C151.527 141.314 152.169 141.957 152.169 142.751V161.542C152.169 162.334 151.527 162.979 150.733 162.979Z" stroke="#818285" stroke-miterlimit="10" stroke-linecap="round"/>
<path d="M92 166.792V168.625C92 169.269 92.5275 169.793 93.1769 169.793H99.6451C99.3317 170.479 99.1558 171.239 99.1558 172.041C99.1558 175.044 101.611 177.48 104.638 177.48C107.666 177.48 110.121 175.044 110.121 172.041C110.121 171.24 109.945 170.479 109.632 169.793H133.932C133.631 170.483 133.464 171.242 133.464 172.041C133.464 175.166 136.018 177.701 139.169 177.701C142.32 177.701 144.875 175.168 144.875 172.041C144.875 171.242 144.707 170.483 144.406 169.793H154.823C155.472 169.793 156 169.271 156 168.625V166.792C156 166.148 155.472 165.624 154.823 165.624H116.281V147.422C116.281 146.061 114.958 144.957 113.325 144.957H103.733C102.626 144.957 101.585 145.394 100.926 146.137L93.8682 154.096C93.4172 154.606 93.1717 155.222 93.1717 155.856V165.624C92.5223 165.629 92 166.149 92 166.792ZM136.934 172.116C136.934 170.848 137.97 169.821 139.247 169.821C140.525 169.821 141.561 170.848 141.561 172.116C141.561 173.383 140.525 174.411 139.247 174.411C137.97 174.411 136.934 173.383 136.934 172.116ZM102.342 172.114C102.342 170.896 103.338 169.908 104.565 169.908C105.793 169.908 106.789 170.896 106.789 172.114C106.789 173.333 105.793 174.32 104.565 174.32C103.336 174.318 102.342 173.331 102.342 172.114ZM98.4872 154.763C98.4872 154.415 98.6056 154.077 98.8198 153.814L102.211 149.649C102.481 149.317 102.873 149.127 103.284 149.127H109.313C109.964 149.127 110.492 149.693 110.492 150.393V157.414H98.4872V154.763Z" fill="#818285"/>
<path d="M147.617 146.166H125.387" stroke="#818285" stroke-miterlimit="10" stroke-linecap="round"/>
<path d="M147.617 152.339H125.387" stroke="#818285" stroke-miterlimit="10" stroke-linecap="round"/>
<path d="M147.617 157.926H125.387" stroke="#818285" stroke-miterlimit="10" stroke-linecap="round"/>
<path d="M128.884 98.1264C132.483 98.3071 135.439 95.3506 135.257 91.7506C135.1 88.6673 132.596 86.1633 129.513 86.008C125.911 85.8258 122.953 88.7853 123.137 92.3868C123.297 95.4687 125.802 97.9711 128.884 98.1264Z" fill="#C7DDEB"/>
<path d="M131.806 110.307V118.965H127.398V132.155C130.401 132.367 131.853 135.966 131.853 135.966H122.069V118.859H118C118 118.859 118 110.982 118 106.113C118 101.244 122.117 98.8086 122.117 98.8086" fill="#C7DDEB"/>
<path d="M169.442 98.1264C165.844 98.3071 162.887 95.3506 163.07 91.7506C163.226 88.6673 165.73 86.1633 168.814 86.008C172.415 85.8258 175.373 88.7853 175.188 92.3868C175.031 95.4687 172.526 97.9711 169.442 98.1264Z" fill="#C7DDEB"/>
<path d="M175.883 98.8086C175.883 98.8086 180 101.244 180 106.113C180 110.982 180 118.859 180 118.859H175.931V135.966H166.146C166.146 135.966 167.599 132.366 170.602 132.155V118.965H166.194V110.307" fill="#C7DDEB"/>
<path d="M135.018 100.427L140.492 105.901L144.348 105.855C144.331 106.177 144.366 106.504 144.459 106.824C144.759 107.86 145.657 108.684 146.49 109.397C146.729 109.601 146.965 109.809 147.199 110.019H137.441L131.604 104.183" fill="#C7DDEB"/>
<path d="M164.131 100.427L158.657 105.901L154.801 105.855C154.819 106.177 154.783 106.504 154.69 106.824C154.39 107.86 153.493 108.684 152.659 109.397C152.421 109.601 152.185 109.809 151.95 110.019H161.708L167.545 104.183" fill="#C7DDEB"/>
<path d="M128.884 98.1264C132.483 98.3071 135.439 95.3506 135.257 91.7506C135.1 88.6673 132.596 86.1633 129.513 86.008C125.911 85.8258 122.953 88.7853 123.137 92.3868C123.297 95.4687 125.802 97.9711 128.884 98.1264Z" stroke="#3D4451" stroke-miterlimit="10" stroke-linecap="round"/>
<path d="M131.806 110.307V118.965H127.398V132.155C130.401 132.367 131.853 135.966 131.853 135.966H122.069V118.859H118C118 118.859 118 110.982 118 106.113C118 101.244 122.117 98.8086 122.117 98.8086" stroke="#3D4451" stroke-miterlimit="10" stroke-linecap="round"/>
<path d="M169.442 98.1264C165.844 98.3071 162.887 95.3506 163.07 91.7506C163.226 88.6673 165.73 86.1633 168.814 86.008C172.415 85.8258 175.373 88.7853 175.188 92.3868C175.031 95.4687 172.526 97.9711 169.442 98.1264Z" stroke="#3D4451" stroke-miterlimit="10" stroke-linecap="round"/>
<path d="M175.883 98.8086C175.883 98.8086 180 101.244 180 106.113C180 110.982 180 118.859 180 118.859H175.931V135.966H166.146C166.146 135.966 167.599 132.366 170.602 132.155V118.965H166.194V110.307" stroke="#3D4451" stroke-miterlimit="10" stroke-linecap="round"/>
<path d="M135.018 100.427L140.492 105.901L144.348 105.855C144.331 106.177 144.366 106.504 144.459 106.824C144.759 107.86 145.657 108.684 146.49 109.397C146.729 109.601 146.965 109.809 147.199 110.019H137.441L131.604 104.183" stroke="#3D4451" stroke-miterlimit="10" stroke-linecap="round"/>
<path d="M164.131 100.427L158.657 105.901L154.801 105.855C154.819 106.177 154.783 106.504 154.69 106.824C154.39 107.86 153.493 108.684 152.659 109.397C152.421 109.601 152.185 109.809 151.95 110.019H161.708L167.545 104.183" stroke="#3D4451" stroke-miterlimit="10" stroke-linecap="round"/>
<path d="M152.603 111.477C152.981 111.095 153.314 110.656 153.588 110.169L155.4 110.423L156.059 107.921L154.422 107.14C154.44 106.55 154.378 105.969 154.244 105.41L155.643 104.266L154.443 101.994L152.825 102.648C152.442 102.212 151.998 101.83 151.502 101.521L151.719 99.711L149.363 99L148.671 100.651C148.09 100.632 147.517 100.706 146.97 100.862L145.927 99.4255L143.795 100.692L144.412 102.4C144.01 102.812 143.661 103.288 143.379 103.818L141.659 103.577L141 106.079L142.618 106.851C142.613 107.44 142.687 108.02 142.832 108.574L141.415 109.734L142.615 112.006L144.322 111.317C144.689 111.713 145.108 112.062 145.571 112.347L145.339 114.289L147.695 115L148.449 113.2C148.976 113.209 149.495 113.143 149.994 113.008L151.131 114.575L153.263 113.308L152.603 111.477ZM146.563 109.293C145.323 108.115 145.212 106.097 146.314 104.784C147.416 103.471 149.314 103.361 150.555 104.538C151.795 105.716 151.906 107.734 150.804 109.047C149.702 110.36 147.803 110.47 146.563 109.293Z" fill="#F04F4C" stroke="#3D4451" stroke-miterlimit="10" stroke-linejoin="round"/>
<path d="M154.778 130.476L149.043 133.711L143.309 130.476V124.006L149.043 120.771L154.778 124.006V130.476Z" fill="#FDC345"/>
<path d="M156.507 130.98L149.084 134.974L141.662 130.98V122.993L149.084 119L156.507 122.993V130.98Z" stroke="#3D4451" stroke-miterlimit="10"/>
<path d="M148.976 126.784V135" stroke="#3D4451" stroke-miterlimit="10"/>
<path d="M149.077 126.789L156.547 122.994" stroke="#3D4451" stroke-miterlimit="10"/>
<path d="M141.678 122.994L149.077 126.789" stroke="#3D4451" stroke-miterlimit="10"/>
<path d="M145.597 120.904L152.972 124.834" stroke="#3D4451" stroke-miterlimit="10"/>
<path d="M78.448 56.824C78.832 57.528 79.2693 58.4027 79.76 59.448C80.272 60.472 80.7947 61.592 81.328 62.808C81.8827 64.0027 82.4267 65.2293 82.96 66.488C83.4933 67.7467 83.9947 68.9307 84.464 70.04C84.9333 68.9307 85.4347 67.7467 85.968 66.488C86.5013 65.2293 87.0347 64.0027 87.568 62.808C88.1227 61.592 88.6453 60.472 89.136 59.448C89.648 58.4027 90.096 57.528 90.48 56.824H95.024C95.2373 58.296 95.4293 59.9493 95.6 61.784C95.792 63.5973 95.952 65.496 96.08 67.48C96.2293 69.4427 96.3573 71.416 96.464 73.4C96.592 75.384 96.6987 77.2507 96.784 79H91.92C91.856 76.8453 91.7707 74.4987 91.664 71.96C91.5573 69.4213 91.3973 66.8613 91.184 64.28C90.8 65.176 90.3733 66.168 89.904 67.256C89.4347 68.344 88.9653 69.432 88.496 70.52C88.048 71.608 87.6107 72.6533 87.184 73.656C86.7573 74.6373 86.3947 75.48 86.096 76.184H82.608C82.3093 75.48 81.9467 74.6373 81.52 73.656C81.0933 72.6533 80.6453 71.608 80.176 70.52C79.728 69.432 79.2693 68.344 78.8 67.256C78.3307 66.168 77.904 65.176 77.52 64.28C77.3067 66.8613 77.1467 69.4213 77.04 71.96C76.9333 74.4987 76.848 76.8453 76.784 79H71.92C72.0053 77.2507 72.1013 75.384 72.208 73.4C72.336 71.416 72.464 69.4427 72.592 67.48C72.7413 65.496 72.9013 63.5973 73.072 61.784C73.264 59.9493 73.4667 58.296 73.68 56.824H78.448ZM107.775 56.568C111.103 56.568 113.652 57.1653 115.423 58.36C117.193 59.5333 118.079 61.368 118.079 63.864C118.079 65.4213 117.716 66.6907 116.991 67.672C116.287 68.632 115.263 69.3893 113.919 69.944C114.367 70.4987 114.836 71.1387 115.327 71.864C115.817 72.568 116.297 73.3147 116.767 74.104C117.257 74.872 117.727 75.6827 118.175 76.536C118.623 77.368 119.039 78.1893 119.423 79H113.823C113.417 78.2747 113.001 77.5387 112.575 76.792C112.169 76.0453 111.743 75.32 111.295 74.616C110.868 73.912 110.441 73.2507 110.015 72.632C109.588 71.992 109.161 71.416 108.735 70.904H106.271V79H101.279V57.144C102.367 56.9307 103.487 56.7813 104.639 56.696C105.812 56.6107 106.857 56.568 107.775 56.568ZM108.063 60.824C107.7 60.824 107.369 60.8347 107.071 60.856C106.793 60.8773 106.527 60.8987 106.271 60.92V66.936H107.679C109.556 66.936 110.9 66.7013 111.711 66.232C112.521 65.7627 112.927 64.9627 112.927 63.832C112.927 62.744 112.511 61.976 111.679 61.528C110.868 61.0587 109.663 60.824 108.063 60.824ZM129.279 56.568C132.585 56.568 135.124 57.1547 136.895 58.328C138.665 59.48 139.551 61.3787 139.551 64.024C139.551 66.6907 138.655 68.6213 136.863 69.816C135.071 70.9893 132.511 71.576 129.183 71.576H127.615V79H122.623V57.144C123.711 56.9307 124.863 56.7813 126.079 56.696C127.295 56.6107 128.361 56.568 129.279 56.568ZM129.599 60.824C129.236 60.824 128.873 60.8347 128.51 60.856C128.169 60.8773 127.871 60.8987 127.615 60.92V67.32H129.183C130.911 67.32 132.212 67.0853 133.087 66.616C133.961 66.1467 134.399 65.272 134.399 63.992C134.399 63.3733 134.281 62.8613 134.047 62.456C133.833 62.0507 133.513 61.7307 133.087 61.496C132.681 61.24 132.18 61.0693 131.583 60.984C130.985 60.8773 130.324 60.824 129.599 60.824Z" fill="#818285"/>
</svg>
