<svg width="266" height="195" viewBox="0 0 266 195" fill="none" xmlns="http://www.w3.org/2000/svg">
<path fill-rule="evenodd" clip-rule="evenodd" d="M0.998048 177C0.998922 177 0.999797 177 1.00067 177C40.1392 177 76.9745 183.401 109.157 194.679L265.359 70.5081C212.372 38.2786 149.091 15.5223 79.8963 5.58935C55.7462 2.24611 29.416 0.167992 1.00695 4.58111e-05C1.00486 4.57879e-05 1.00276 4.57764e-05 1.00067 4.57764e-05C1.00018 4.57764e-05 0.999687 4.5831e-05 0.999195 4.58322e-05C0.999278 11.134 0.998203 156.122 0.998048 177Z" fill="#E6EAEA"/>
<path d="M151.368 118.687V127.083C151.368 130.35 143.003 133 132.684 133C122.366 133 114 130.35 114 127.083V118.687" fill="#7EB9C7"/>
<path d="M151.368 118.687V127.083C151.368 130.35 143.003 133 132.684 133C122.366 133 114 130.35 114 127.083V118.687" stroke="#3D4451" stroke-miterlimit="10"/>
<path d="M132.684 124.197C143.003 124.197 151.368 121.548 151.368 118.28C151.368 115.012 143.003 112.363 132.684 112.363C122.365 112.363 114 115.012 114 118.28C114 121.548 122.365 124.197 132.684 124.197Z" fill="#7EB9C7" stroke="#3D4451" stroke-miterlimit="10"/>
<path d="M151.368 104.926V113.322C151.368 116.59 143.003 119.239 132.684 119.239C122.366 119.239 114 116.59 114 113.322V104.926" fill="#C7DDEB"/>
<path d="M151.368 104.926V113.322C151.368 116.59 143.003 119.239 132.684 119.239C122.366 119.239 114 116.59 114 113.322V104.926" stroke="#3D4451" stroke-miterlimit="10"/>
<path d="M132.684 110.441C143.003 110.441 151.368 107.992 151.368 104.971C151.368 101.95 143.003 99.5007 132.684 99.5007C122.365 99.5007 114 101.95 114 104.971C114 107.992 122.365 110.441 132.684 110.441Z" fill="#C7DDEB" stroke="#3D4451" stroke-miterlimit="10"/>
<path d="M151.368 91.166V99.5623C151.368 102.83 143.003 105.48 132.684 105.48C122.366 105.48 114 102.83 114 99.5623V91.166" fill="#FDC345"/>
<path d="M151.368 91.166V99.5623C151.368 102.83 143.003 105.48 132.684 105.48C122.366 105.48 114 102.83 114 99.5623V91.166" stroke="#3D4451" stroke-miterlimit="10"/>
<path d="M132.684 96.6801C143.003 96.6801 151.368 94.0308 151.368 90.7628C151.368 87.4948 143.003 84.8455 132.684 84.8455C122.365 84.8455 114 87.4948 114 90.7628C114 94.0308 122.365 96.6801 132.684 96.6801Z" fill="#FDC345" stroke="#3D4451" stroke-miterlimit="10"/>
<path d="M151.368 77.3196V85.7157C151.368 88.9834 143.003 91.6331 132.684 91.6331C122.366 91.6331 114 88.9834 114 85.7157V77.3196" fill="#F04F4C"/>
<path d="M151.368 77.3196V85.7157C151.368 88.9834 143.003 91.6331 132.684 91.6331C122.366 91.6331 114 88.9834 114 85.7157V77.3196" stroke="#3D4451" stroke-miterlimit="10"/>
<path d="M132.684 82.8346C143.003 82.8346 151.368 80.1853 151.368 76.9172C151.368 73.6492 143.003 71 132.684 71C122.365 71 114 73.6492 114 76.9172C114 80.1853 122.365 82.8346 132.684 82.8346Z" fill="#F04F4C" stroke="#3D4451" stroke-miterlimit="10"/>
<path d="M73.9121 89.4333V103.05H91.0006V89.4333H73.9121Z" fill="#C7DDEB"/>
<path d="M69 83.4992H90.9171V103.252H69.0405V83.2725" stroke="#3D4451" stroke-miterlimit="10"/>
<path d="M77.4824 93.4396V89.4385L80.9336 91.4386L84.3917 93.4396L80.9371 95.4397L77.4824 97.4398V93.4396Z" fill="#F04F4C" stroke="#3D4451" stroke-miterlimit="10"/>
<path d="M77.4825 85.1453H75.5713V86.7384H77.4825V85.1453Z" fill="#3D4451"/>
<path d="M81.0938 85.1453H79.2881V86.7384H81.0938V85.1453Z" fill="#3D4451"/>
<path d="M84.5987 85.1453H82.793V86.7384H84.5987V85.1453Z" fill="#3D4451"/>
<path d="M88.2091 85.1453H86.2979V86.7384H88.2091V85.1453Z" fill="#3D4451"/>
<path d="M73.8721 100.225H71.9609V101.818H73.8721V100.225Z" fill="#3D4451"/>
<path d="M77.4825 100.225H75.5713V101.818H77.4825V100.225Z" fill="#3D4451"/>
<path d="M81.0938 100.225H79.2881V101.818H81.0938V100.225Z" fill="#3D4451"/>
<path d="M84.5987 100.225H82.793V101.818H84.5987V100.225Z" fill="#3D4451"/>
<path d="M88.2091 100.225H86.2979V101.818H88.2091V100.225Z" fill="#3D4451"/>
<path d="M63.1144 69.2725H41V91.2725H63.1144V69.2725Z" fill="#FCFCFC" stroke="#3D4451" stroke-miterlimit="10"/>
<path d="M42.7275 73.2905V86.8119H61.2898V73.2905H42.7275Z" fill="#C7DDEB"/>
<path d="M60.5502 84.8307V80.4846L55.3893 76.1252L53.0811 78.5809L60.5502 84.8307Z" fill="#6B968B"/>
<path d="M60.4341 85.2447L50.2125 76.1252L43.3984 81.9875V85.2966" fill="#6B968B"/>
<path d="M60.5812 71.5759H43.5342V85.5131H60.5812V71.5759Z" stroke="#3D4451" stroke-miterlimit="10"/>
<path d="M43.5156 81.9875L50.3297 76.1252L60.5504 85.2447" stroke="#3D4451" stroke-miterlimit="10" stroke-linecap="round"/>
<path d="M53.0811 78.5809L55.3893 76.1252L60.5502 80.4846" stroke="#3D4451" stroke-miterlimit="10"/>
<path d="M76 53.207V71.207H93V53.207H76Z" fill="#C7DDEB"/>
<path d="M77.859 54.5208H74V73.2071H91.148V70.2088" stroke="#3D4451" stroke-miterlimit="10"/>
<path d="M78.9004 49.0823V69.0234H96.2927V49.0823H78.9004Z" stroke="#3D4451" stroke-miterlimit="10"/>
<path d="M94 56.207H82V57.207H94V56.207Z" fill="#3D4451"/>
<path d="M94 58.207H82V59.207H94V58.207Z" fill="#3D4451"/>
<path d="M94 61.207H82V62.207H94V61.207Z" fill="#3D4451"/>
<path d="M96 49.207H92V54.207H96V49.207Z" fill="#FDC345" stroke="#3D4451" stroke-miterlimit="10"/>
<path d="M133.354 60.3536C133.158 60.5488 132.842 60.5488 132.646 60.3536L129.464 57.1716C129.269 56.9763 129.269 56.6597 129.464 56.4645C129.66 56.2692 129.976 56.2692 130.172 56.4645L133 59.2929L135.828 56.4645C136.024 56.2692 136.34 56.2692 136.536 56.4645C136.731 56.6597 136.731 56.9763 136.536 57.1716L133.354 60.3536ZM133 27V26.5H133.5V27H133ZM67 27H66.5V26.5H67V27ZM67.5 37.5915C67.5 37.8677 67.2761 38.0915 67 38.0915C66.7239 38.0915 66.5 37.8677 66.5 37.5915H67.5ZM132.5 60V27H133.5V60H132.5ZM133 27.5H67V26.5H133V27.5ZM67.5 27V37.5915H66.5V27H67.5Z" fill="#3D4451"/>
<path d="M64.008 139.824V144.08H57.32V162H52.328V144.08H45.64V139.824H64.008ZM72.2083 157.936C72.4429 157.957 72.7096 157.979 73.0083 158C73.3283 158 73.7016 158 74.1283 158C76.6243 158 78.4696 157.371 79.6643 156.112C80.8803 154.853 81.4883 153.115 81.4883 150.896C81.4883 148.571 80.9123 146.811 79.7603 145.616C78.6083 144.421 76.7843 143.824 74.2883 143.824C73.9469 143.824 73.5949 143.835 73.2323 143.856C72.8696 143.856 72.5283 143.877 72.2083 143.92V157.936ZM86.6403 150.896C86.6403 152.816 86.3416 154.491 85.7443 155.92C85.1469 157.349 84.2936 158.533 83.1843 159.472C82.0963 160.411 80.7629 161.115 79.1843 161.584C77.6056 162.053 75.8349 162.288 73.8723 162.288C72.9763 162.288 71.9309 162.245 70.7363 162.16C69.5416 162.096 68.3683 161.947 67.2163 161.712V140.112C68.3683 139.899 69.5629 139.76 70.8003 139.696C72.0589 139.611 73.1363 139.568 74.0323 139.568C75.9309 139.568 77.6483 139.781 79.1843 140.208C80.7416 140.635 82.0749 141.307 83.1843 142.224C84.2936 143.141 85.1469 144.315 85.7443 145.744C86.3416 147.173 86.6403 148.891 86.6403 150.896ZM96.698 139.824C97.082 140.528 97.5193 141.403 98.01 142.448C98.522 143.472 99.0447 144.592 99.578 145.808C100.133 147.003 100.677 148.229 101.21 149.488C101.743 150.747 102.245 151.931 102.714 153.04C103.183 151.931 103.685 150.747 104.218 149.488C104.751 148.229 105.285 147.003 105.818 145.808C106.373 144.592 106.895 143.472 107.386 142.448C107.898 141.403 108.346 140.528 108.73 139.824H113.274C113.487 141.296 113.679 142.949 113.85 144.784C114.042 146.597 114.202 148.496 114.33 150.48C114.479 152.443 114.607 154.416 114.714 156.4C114.842 158.384 114.949 160.251 115.034 162H110.17C110.106 159.845 110.021 157.499 109.914 154.96C109.807 152.421 109.647 149.861 109.434 147.28C109.05 148.176 108.623 149.168 108.154 150.256C107.685 151.344 107.215 152.432 106.746 153.52C106.298 154.608 105.861 155.653 105.434 156.656C105.007 157.637 104.645 158.48 104.346 159.184H100.858C100.559 158.48 100.197 157.637 99.77 156.656C99.3433 155.653 98.8953 154.608 98.426 153.52C97.978 152.432 97.5193 151.344 97.05 150.256C96.5807 149.168 96.154 148.176 95.77 147.28C95.5567 149.861 95.3967 152.421 95.29 154.96C95.1833 157.499 95.098 159.845 95.034 162H90.17C90.2553 160.251 90.3513 158.384 90.458 156.4C90.586 154.416 90.714 152.443 90.842 150.48C90.9913 148.496 91.1513 146.597 91.322 144.784C91.514 142.949 91.7167 141.296 91.93 139.824H96.698Z" fill="#818285"/>
</svg>
