<svg width="256" height="236" viewBox="0 0 256 236" fill="none" xmlns="http://www.w3.org/2000/svg">
<path d="M173.203 46.7444H206.607L217.742 124.687H162.068L173.203 46.7444Z" fill="#C7DDEB"/>
<path fill-rule="evenodd" clip-rule="evenodd" d="M188.791 105.758H32.9062V207.67H188.791V105.758ZM166.522 140.275H55.1759V155.864H166.522V140.275Z" fill="#C7DDEB"/>
<path d="M186.566 118.006H231.105V201.515H186.566V118.006Z" fill="#C7DDEB"/>
<ellipse cx="187.98" cy="24.7762" rx="10.3226" ry="10.3226" fill="#C7DDEB"/>
<path d="M199.09 41.0637L211.808 113H179V102V101H178H159.147L167.397 41.0637H199.09Z" stroke="#818285" stroke-width="2"/>
<path d="M179 113H220V189H179V113Z" stroke="#818285" stroke-width="2"/>
<mask id="path-7-inside-1_1783_17298" fill="white">
<path fill-rule="evenodd" clip-rule="evenodd" d="M180 100H24V197H180.115L180 100ZM157.616 134.708H46.2699V150.297H157.616V134.708Z"/>
</mask>
<path d="M24 100V98H22V100H24ZM180 100L182 99.9976L181.998 98H180V100ZM24 197H22V199H24V197ZM180.115 197V199H182.117L182.115 196.998L180.115 197ZM46.2699 134.708V132.708H44.2699V134.708H46.2699ZM157.616 134.708H159.616V132.708H157.616V134.708ZM46.2699 150.297H44.2699V152.297H46.2699V150.297ZM157.616 150.297V152.297H159.616V150.297H157.616ZM24 102H180V98H24V102ZM26 197V100H22V197H26ZM180.115 195H24V199H180.115V195ZM178 100.002L178.115 197.003L182.115 196.998L182 99.9976L178 100.002ZM46.2699 136.708H157.616V132.708H46.2699V136.708ZM48.2699 150.297V134.708H44.2699V150.297H48.2699ZM157.616 148.297H46.2699V152.297H157.616V148.297ZM155.616 134.708V150.297H159.616V134.708H155.616Z" fill="#818285" mask="url(#path-7-inside-1_1783_17298)"/>
<path d="M191.735 20.3226C191.735 25.4713 187.561 29.6452 182.412 29.6452C177.264 29.6452 173.09 25.4713 173.09 20.3226C173.09 15.1739 177.264 11 182.412 11C187.561 11 191.735 15.1739 191.735 20.3226Z" stroke="#818285" stroke-width="2"/>
</svg>
