<svg width="230" height="243" viewBox="0 0 230 243" fill="none" xmlns="http://www.w3.org/2000/svg">
<path fill-rule="evenodd" clip-rule="evenodd" d="M83.0649 242.047L229.13 124.797C208.725 102.627 197 76.7024 197 49.0001C197 32.0297 201.4 15.7264 209.5 0.544677L3.05021 9.86182C1.03628 22.6929 0 35.754 0 49.0001C0 121.29 30.864 188.067 83.0649 242.047Z" fill="#E6EAEA"/>
<g clip-path="url(#clip0_1717_19847)">
<path d="M59.8543 109.469L60.8203 109.727L59.8543 109.469ZM105.691 109.469L106.657 109.21L105.691 109.469ZM42.1074 133.964C41.5551 133.964 41.1074 134.412 41.1074 134.964C41.1074 135.517 41.5551 135.964 42.1074 135.964V133.964ZM60.8203 109.727C62.3241 104.113 64.8353 98.4366 68.4729 94.1835C72.094 89.9496 76.8 87.1543 82.7728 87.1543V85.1543C76.0881 85.1543 70.8627 88.3123 66.953 92.8836C63.0596 97.4357 60.4403 103.416 58.8884 109.21L60.8203 109.727ZM82.7728 87.1543C88.7456 87.1543 93.4516 89.9496 97.0728 94.1835C100.71 98.4366 103.222 104.113 104.725 109.727L106.657 109.21C105.105 103.416 102.486 97.4357 98.5927 92.8836C94.6829 88.3123 89.4575 85.1543 82.7728 85.1543V87.1543ZM58.8884 109.21C57.3879 114.811 54.584 121.087 51.3834 125.944C49.7827 128.374 48.1067 130.411 46.4757 131.83C44.8231 133.268 43.3398 133.964 42.1074 133.964V135.964C44.0531 135.964 45.9952 134.9 47.7885 133.339C49.6034 131.76 51.394 129.563 53.0535 127.045C56.3734 122.006 59.265 115.533 60.8203 109.727L58.8884 109.21ZM104.725 109.727C105.97 114.375 108.718 120.842 112.089 126.161C113.775 128.822 115.643 131.238 117.59 133.001C119.518 134.746 121.65 135.964 123.85 135.964V133.964C122.383 133.964 120.716 133.133 118.932 131.518C117.168 129.921 115.411 127.668 113.779 125.091C110.512 119.936 107.848 113.655 106.657 109.21L104.725 109.727Z" fill="#7EB9C7"/>
<path d="M131 138.849L35 138.849" stroke="#3D4451"/>
<path d="M47.1973 124.894L47.1973 139.151" stroke="#3D4451"/>
<path d="M118.633 124.894L118.633 139.151" stroke="#3D4451"/>
<path d="M81.3239 112C80.9185 112.053 80.5452 112.144 80.2039 112.272C79.8732 112.389 79.5745 112.581 79.3079 112.848C79.0412 113.104 78.8172 113.445 78.6359 113.872C78.4652 114.299 78.3372 114.832 78.2519 115.472C78.4759 115.376 78.6892 115.307 78.8919 115.264C79.1052 115.221 79.3025 115.2 79.4839 115.2C80.2519 115.2 80.8439 115.504 81.2599 116.112C81.6865 116.709 81.8999 117.536 81.8999 118.592C81.8999 119.723 81.6972 120.613 81.2919 121.264C80.8972 121.915 80.2679 122.24 79.4039 122.24C78.9665 122.24 78.5825 122.155 78.2519 121.984C77.9212 121.813 77.6439 121.536 77.4199 121.152C77.2065 120.757 77.0412 120.245 76.9239 119.616C76.8172 118.976 76.7639 118.197 76.7639 117.28C76.7639 116.48 76.8385 115.701 76.9879 114.944C77.1479 114.187 77.3985 113.515 77.7399 112.928C78.0919 112.331 78.5452 111.845 79.0999 111.472C79.6652 111.099 80.3585 110.896 81.1799 110.864L81.3239 112ZM79.1479 116.32C78.9772 116.32 78.8065 116.352 78.6359 116.416C78.4652 116.469 78.3052 116.539 78.1559 116.624C78.1452 116.752 78.1399 116.885 78.1399 117.024C78.1399 117.152 78.1399 117.285 78.1399 117.424C78.1399 117.915 78.1505 118.384 78.1719 118.832C78.2039 119.269 78.2625 119.659 78.3479 120C78.4332 120.331 78.5559 120.597 78.7159 120.8C78.8865 120.992 79.1105 121.088 79.3879 121.088C79.8039 121.088 80.0919 120.869 80.2519 120.432C80.4225 119.984 80.5079 119.392 80.5079 118.656C80.5079 117.856 80.3959 117.269 80.1719 116.896C79.9585 116.512 79.6172 116.32 79.1479 116.32ZM89.1269 118.112C89.1269 118.805 89.0575 119.408 88.9189 119.92C88.7802 120.432 88.5882 120.859 88.3429 121.2C88.0975 121.531 87.7989 121.781 87.4469 121.952C87.1055 122.123 86.7215 122.208 86.2949 122.208C85.9002 122.208 85.5269 122.128 85.1749 121.968C84.8229 121.808 84.5135 121.557 84.2469 121.216C83.9909 120.875 83.7829 120.443 83.6229 119.92C83.4735 119.387 83.3989 118.757 83.3989 118.032C83.3989 117.232 83.4789 116.555 83.6389 116C83.8095 115.435 84.0442 114.976 84.3429 114.624C84.6415 114.272 84.9989 114.016 85.4149 113.856C85.8415 113.685 86.3109 113.6 86.8229 113.6H89.8629V114.784H88.0869C88.3535 115.093 88.5935 115.547 88.8069 116.144C89.0202 116.731 89.1269 117.387 89.1269 118.112ZM86.6149 114.784C86.3909 114.784 86.1722 114.832 85.9589 114.928C85.7455 115.013 85.5535 115.179 85.3829 115.424C85.2229 115.659 85.0895 115.989 84.9829 116.416C84.8762 116.832 84.8229 117.371 84.8229 118.032C84.8229 118.971 84.9455 119.696 85.1909 120.208C85.4469 120.72 85.8149 120.976 86.2949 120.976C86.7749 120.976 87.1322 120.725 87.3669 120.224C87.6015 119.712 87.7189 118.971 87.7189 118C87.7189 117.659 87.6922 117.328 87.6389 117.008C87.5962 116.677 87.5269 116.373 87.4309 116.096C87.3455 115.808 87.2389 115.552 87.1109 115.328C86.9935 115.104 86.8602 114.923 86.7109 114.784H86.6149Z" fill="#3D4451"/>
<path d="M130.904 40.6624C121.77 31.5282 106.961 31.5282 97.8272 40.6624C88.693 49.7966 88.693 64.6051 97.8272 73.7393C106.961 82.8735 121.77 82.8735 130.904 73.7393C140.038 64.6051 140.038 49.7966 130.904 40.6624ZM128.191 71.0273C120.555 78.6628 108.175 78.6628 100.539 71.0273C92.9038 63.3918 92.9038 51.0113 100.539 43.3759C108.175 35.7404 120.555 35.7404 128.191 43.3759C135.828 51.0113 135.826 63.3918 128.191 71.0273Z" fill="#C7DDEB"/>
<path d="M149.561 87.9447C150.52 88.9032 150.655 90.4141 149.807 91.2627L147.557 93.5138C146.709 94.3624 145.198 94.2265 144.239 93.268L135.679 84.7092C134.719 83.7508 134.63 82.2857 135.479 81.4371L137.73 79.1875C138.579 78.339 140.044 78.4289 141.002 79.3874L149.561 87.9447Z" fill="#C7DDEB"/>
<path d="M114.079 67.6439C121.521 67.6439 127.555 66.3176 127.555 64.6816C127.555 63.0455 121.521 61.7192 114.079 61.7192C106.636 61.7192 100.603 63.0455 100.603 64.6816C100.603 66.3176 106.636 67.6439 114.079 67.6439Z" fill="#7EB9C7"/>
<path d="M96.8506 71.9275C87.7164 62.7933 87.7164 47.9848 96.8506 38.8506C105.985 29.7164 120.793 29.7164 129.928 38.8506C139.062 47.9848 139.062 62.7933 129.928 71.9275C120.795 81.0602 105.985 81.0602 96.8506 71.9275Z" stroke="#3D4451" stroke-miterlimit="10"/>
<path d="M99.5397 69.2384C91.8904 61.5892 91.8904 49.1875 99.5397 41.5367C107.189 33.8875 119.592 33.8875 127.241 41.5367C134.891 49.1859 134.891 61.5892 127.241 69.2384C119.591 76.8876 107.189 76.8892 99.5397 69.2384Z" stroke="#3D4451" stroke-miterlimit="10"/>
<path d="M132.927 69.5577L129.164 73.3208L135.418 79.5746L139.181 75.8115L132.927 69.5577Z" stroke="#3D4451" stroke-miterlimit="10" stroke-linecap="round"/>
<path d="M150.23 85.0435C151.189 86.002 151.273 87.5632 150.363 88.4743L147.947 90.8903C147.036 91.8014 145.475 91.7174 144.516 90.7575L135.956 82.1986C134.996 81.2402 134.958 79.7247 135.869 78.8136L138.285 76.3976C139.196 75.4865 140.711 75.5262 141.67 76.4847L150.23 85.0435Z" stroke="#3D4451" stroke-miterlimit="10"/>
<path d="M150.23 85.0435C151.189 86.002 151.273 87.5632 150.363 88.4743L147.947 90.8903C147.036 91.8014 145.475 91.7174 144.516 90.7575L135.956 82.1986C134.996 81.2402 134.958 79.7247 135.869 78.8136L138.285 76.3976C139.196 75.4865 140.711 75.5262 141.67 76.4847L150.23 85.0435Z" stroke="#3D4451" stroke-miterlimit="10"/>
<path d="M137.879 80.834L145.908 88.8616" stroke="#3D4451" stroke-miterlimit="10" stroke-linecap="round"/>
<path d="M114.022 45L116.64 51.4178L123 52.2832L118.053 57.1296L119.527 64L113.973 60.7376L108.401 63.9584L110.204 56.9367L105 52.2162L111.222 51.2378L114.022 45Z" fill="#F04F4C" stroke="#3D4451" stroke-miterlimit="10"/>
<circle cx="112.5" cy="76.5" r="5.5" fill="#FCFCFC"/>
<path d="M114.589 82.6288C117.717 82.7898 120.288 80.2214 120.132 77.0937C119.999 74.4142 117.825 72.2361 115.146 72.0971C112.016 71.935 109.443 74.5045 109.601 77.6345C109.735 80.3129 111.911 82.491 114.589 82.6288Z" fill="#C7DDEB"/>
<path d="M122.556 94C123.654 94.0012 124.472 92.996 124.257 91.9203C123.348 87.3452 119.619 83.2483 115.15 83.2437C110.681 83.239 106.943 87.3278 106.025 91.9018C105.809 92.9775 106.625 93.9838 107.723 93.985L122.556 94Z" fill="#C7DDEB"/>
<path d="M112.251 81.289C115.379 81.4499 117.95 78.8816 117.794 75.7539C117.661 73.0744 115.487 70.8962 112.808 70.7573C109.678 70.5952 107.105 73.1647 107.263 76.2947C107.397 78.9731 109.572 81.1512 112.251 81.289Z" stroke="#3D4451" stroke-miterlimit="10"/>
<path d="M120.218 92.6602C121.316 92.6613 122.134 91.6562 121.919 90.5805C121.01 86.0053 117.281 81.9084 112.812 81.9038C108.345 81.8992 104.606 85.988 103.687 90.5619C103.471 91.6377 104.287 92.644 105.385 92.6451L120.218 92.6602Z" stroke="#3D4451" stroke-miterlimit="10"/>
<path d="M147 54.2829H130.729V38.6199C130.729 37.6332 131.578 36.8333 132.625 36.8333H146.955V47.5459L147 54.2829Z" fill="#C7DDEB"/>
<path d="M144.377 32.8179H127.859V51.7452H144.377V32.8179Z" fill="#FCFCFC" stroke="#3D4451" stroke-miterlimit="10"/>
<path d="M130.119 40.0601H142.168" stroke="#3D4451" stroke-miterlimit="10"/>
<path d="M130.119 43.0552H142.168" stroke="#3D4451" stroke-miterlimit="10"/>
<path d="M130.119 46.0513H139.796" stroke="#3D4451" stroke-miterlimit="10"/>
<path d="M130.119 36.7505H137.864" stroke="#3D4451" stroke-miterlimit="10"/>
<path d="M142.773 32.0227V36.8414L140.94 34.9111L139.037 36.7109V32L142.773 32.0227Z" fill="#F04F4C" stroke="#3D4451" stroke-miterlimit="10"/>
</g>
<path d="M153.752 129.896C153.752 130.984 153.88 131.965 154.136 132.84C154.413 133.715 154.797 134.472 155.288 135.112C155.8 135.731 156.419 136.211 157.144 136.552C157.869 136.893 158.701 137.064 159.64 137.064C160.557 137.064 161.379 136.893 162.104 136.552C162.851 136.211 163.469 135.731 163.96 135.112C164.472 134.472 164.856 133.715 165.112 132.84C165.389 131.965 165.528 130.984 165.528 129.896C165.528 128.808 165.389 127.827 165.112 126.952C164.856 126.056 164.472 125.299 163.96 124.68C163.469 124.04 162.851 123.549 162.104 123.208C161.379 122.867 160.557 122.696 159.64 122.696C158.701 122.696 157.869 122.877 157.144 123.24C156.419 123.581 155.8 124.072 155.288 124.712C154.797 125.331 154.413 126.088 154.136 126.984C153.88 127.859 153.752 128.829 153.752 129.896ZM170.68 129.896C170.68 131.453 170.488 132.861 170.104 134.12C169.72 135.357 169.176 136.445 168.472 137.384C167.789 138.323 166.968 139.101 166.008 139.72C165.048 140.339 163.992 140.787 162.84 141.064C162.947 141.491 163.181 141.832 163.544 142.088C163.907 142.365 164.365 142.589 164.92 142.76C165.475 142.931 166.115 143.059 166.84 143.144C167.587 143.229 168.387 143.304 169.24 143.368L168.216 147.016C166.552 146.952 165.123 146.781 163.928 146.504C162.755 146.248 161.752 145.885 160.92 145.416C160.109 144.947 159.459 144.371 158.968 143.688C158.499 143.005 158.136 142.216 157.88 141.32C156.557 141.149 155.331 140.787 154.2 140.232C153.069 139.656 152.088 138.888 151.256 137.928C150.424 136.968 149.773 135.816 149.304 134.472C148.835 133.128 148.6 131.603 148.6 129.896C148.6 127.997 148.899 126.333 149.496 124.904C150.093 123.453 150.893 122.237 151.896 121.256C152.92 120.275 154.093 119.539 155.416 119.048C156.76 118.557 158.168 118.312 159.64 118.312C161.155 118.312 162.584 118.557 163.928 119.048C165.272 119.539 166.445 120.275 167.448 121.256C168.451 122.237 169.24 123.453 169.816 124.904C170.392 126.333 170.68 127.997 170.68 129.896ZM180.729 118.824C181.113 119.528 181.551 120.403 182.041 121.448C182.553 122.472 183.076 123.592 183.609 124.808C184.164 126.003 184.708 127.229 185.241 128.488C185.775 129.747 186.276 130.931 186.745 132.04C187.215 130.931 187.716 129.747 188.249 128.488C188.783 127.229 189.316 126.003 189.849 124.808C190.404 123.592 190.927 122.472 191.417 121.448C191.929 120.403 192.377 119.528 192.761 118.824H197.305C197.519 120.296 197.711 121.949 197.881 123.784C198.073 125.597 198.233 127.496 198.361 129.48C198.511 131.443 198.639 133.416 198.745 135.4C198.873 137.384 198.98 139.251 199.065 141H194.201C194.137 138.845 194.052 136.499 193.945 133.96C193.839 131.421 193.679 128.861 193.465 126.28C193.081 127.176 192.655 128.168 192.185 129.256C191.716 130.344 191.247 131.432 190.777 132.52C190.329 133.608 189.892 134.653 189.465 135.656C189.039 136.637 188.676 137.48 188.377 138.184H184.889C184.591 137.48 184.228 136.637 183.801 135.656C183.375 134.653 182.927 133.608 182.457 132.52C182.009 131.432 181.551 130.344 181.081 129.256C180.612 128.168 180.185 127.176 179.801 126.28C179.588 128.861 179.428 131.421 179.321 133.96C179.215 136.499 179.129 138.845 179.065 141H174.201C174.287 139.251 174.383 137.384 174.489 135.4C174.617 133.416 174.745 131.443 174.873 129.48C175.023 127.496 175.183 125.597 175.353 123.784C175.545 121.949 175.748 120.296 175.961 118.824H180.729Z" fill="#818285"/>
<defs>
<clipPath id="clip0_1717_19847">
<rect width="128" height="128" fill="white" transform="translate(25 21)"/>
</clipPath>
</defs>
</svg>
