<svg width="256" height="236" viewBox="0 0 256 236" fill="none" xmlns="http://www.w3.org/2000/svg">
<path d="M101.359 34.8154C96.7145 33.2482 91.8347 32.2749 86.8284 31.9867L80.9366 16L58.4629 20.7109L59.4567 37.3819C54.7577 39.6335 50.4745 42.4976 46.6792 45.866L31.6242 38.9668L19.0454 58.0883L31.2085 68.788C29.4554 73.7147 28.3982 78.929 28.1271 84.2699L13 89.8181L17.6809 112.146L33.6305 111.164C36.0161 116.046 39.0795 120.467 42.6851 124.349L35.9618 138.787L55.1644 151.243L65.8728 139.22C70.8429 140.868 76.0931 141.823 81.4698 141.994L87.0634 157.17L109.537 152.459L108.552 135.977C113.188 133.626 117.399 130.663 121.122 127.223L136.376 134.221L148.955 115.1L136.123 103.814C137.641 99.176 138.545 94.3126 138.77 89.3229L155 83.3692L150.319 61.0418L132.924 62.114C130.71 57.7278 127.936 53.7108 124.71 50.1442L132.038 34.4099L112.836 21.9537L101.359 34.8154ZM110.504 93.5289C106.673 108.534 91.3287 117.64 76.2467 113.866C61.1647 110.092 52.0468 94.871 55.8783 79.866C59.7098 64.861 75.0538 55.7554 90.1357 59.5202C105.227 63.303 114.345 78.5239 110.504 93.5289Z" fill="#7EB9C7"/>
<rect x="160" y="165" width="24" height="18" fill="#C7DDEB"/>
<path d="M96.0396 31.7629C96.4192 31.891 96.8386 31.7801 97.1054 31.4811L108.011 19.2593L125.765 30.7757L118.803 45.722C118.633 46.0863 118.698 46.5169 118.968 46.815C122.135 50.3161 124.858 54.2592 127.031 58.5646C127.211 58.9214 127.586 59.1367 127.985 59.1121L144.518 58.0931L148.844 78.7282L133.426 84.3841C133.048 84.5229 132.79 84.8752 132.771 85.2777C132.55 90.176 131.663 94.9501 130.172 99.5034C130.048 99.8835 130.162 100.301 130.462 100.565L142.641 111.277L131.012 128.954L116.539 122.314C116.172 122.146 115.74 122.214 115.443 122.488C111.786 125.868 107.651 128.777 103.1 131.085C102.745 131.265 102.53 131.639 102.554 132.037L103.488 147.657L82.7031 152.014L77.4081 137.648C77.2673 137.266 76.9087 137.007 76.5016 136.994C71.2225 136.826 66.0675 135.889 61.1875 134.271C60.8087 134.145 60.3914 134.257 60.126 134.555L49.9885 145.937L32.2352 134.421L38.5916 120.771C38.7633 120.403 38.6946 119.967 38.4178 119.669C34.8779 115.858 31.8707 111.517 29.5289 106.725C29.3514 106.362 28.9726 106.141 28.5691 106.166L13.4822 107.094L9.15614 86.4592L23.4715 81.2087C23.848 81.0707 24.1055 80.7211 24.1259 80.3206C24.392 75.0782 25.4297 69.9597 27.1507 65.1233C27.2879 64.7377 27.1763 64.3075 26.869 64.0372L15.3586 53.9116L26.9879 36.2335L41.2626 42.7751C41.6228 42.9402 42.0466 42.877 42.343 42.614C46.0692 39.3068 50.2746 36.4948 54.8889 34.2837C55.2554 34.1081 55.4792 33.7281 55.455 33.3224L54.5124 17.5126L75.2968 13.1558L80.8901 28.3325C81.0277 28.7059 81.3737 28.9622 81.771 28.9851C86.6853 29.268 91.477 30.2235 96.0396 31.7629ZM85.3789 54.5502L85.3779 54.55C69.7663 50.653 53.8781 60.0764 49.9094 75.6186C45.9399 91.164 55.3879 106.929 71.004 110.836C86.6158 114.742 102.504 105.319 106.473 89.7769C110.452 74.2307 101.003 58.4667 85.3789 54.5502Z" stroke="#3D4451" stroke-width="2" stroke-miterlimit="10" stroke-linejoin="round"/>
<path d="M66.5822 90.5068C66.8233 89.0602 68.0749 88 69.5414 88H124.459C125.925 88 127.177 89.0602 127.418 90.5068L147 208H47L66.5822 90.5068Z" fill="#FCFCFC"/>
<path d="M72.5822 96.5068C72.8233 95.0602 74.0749 94 75.5414 94H130.459C131.925 94 133.177 95.0602 133.418 96.5068L153 214H53L72.5822 96.5068Z" fill="#FDC345"/>
<path d="M200 72H214V100H200V72Z" fill="#FCFCFC"/>
<path d="M212 72H226V100H212V72Z" fill="#FCFCFC"/>
<path d="M188 72H202V100H188V72Z" fill="#FCFCFC"/>
<path d="M193 77H207V105H193V77Z" fill="#80B9C6"/>
<path d="M205 77H219V105H205V77Z" fill="#6B968B"/>
<path d="M217 77H231V105H217V77Z" fill="#80B9C6"/>
<rect x="177" y="98" width="60" height="80" fill="#FCFCFC"/>
<path d="M65 102H129L130 107H64L65 102Z" fill="#FCFCFC"/>
<rect x="183" y="103" width="60" height="80" fill="#C7DDEB"/>
<path d="M67.5686 90.6712C67.7293 89.7068 68.5637 89 69.5414 89H124.459C125.436 89 126.271 89.7068 126.431 90.6712L145.82 207H48.1805L67.5686 90.6712Z" stroke="#3D4451" stroke-width="2"/>
<rect x="113" y="176" width="124" height="14" fill="#FCFCFC"/>
<rect x="119" y="181" width="124" height="14" fill="#C7DDEB"/>
<rect x="113" y="188" width="124" height="20" fill="#FCFCFC"/>
<rect x="119" y="193.25" width="124" height="17.75" fill="#C7DDEB"/>
<rect x="37" y="206" width="200" height="14" fill="#FCFCFC"/>
<rect x="43" y="211" width="200" height="14" fill="#80B9C6"/>
<rect x="38" y="207" width="198" height="12" stroke="#3D4451" stroke-width="2"/>
<path d="M189 73H201V99H189V73Z" stroke="#3D4451" stroke-width="2"/>
<rect x="190" y="132" width="16" height="16" fill="#FCFCFC"/>
<path d="M201 73H213V99H201V73Z" stroke="#3D4451" stroke-width="2"/>
<rect x="190" y="113" width="16" height="16" fill="#FCFCFC"/>
<path d="M213 73H225V99H213V73Z" stroke="#3D4451" stroke-width="2"/>
<rect x="190" y="151" width="16" height="16" fill="#FCFCFC"/>
<rect x="178" y="99" width="58" height="78" stroke="#3D4451" stroke-width="2"/>
<rect x="214" y="132" width="16" height="16" fill="#FCFCFC"/>
<rect x="156" y="161" width="22" height="16" stroke="#3D4451" stroke-width="2"/>
<rect x="214" y="113" width="16" height="16" fill="#FCFCFC"/>
<rect x="188" y="130" width="14" height="14" stroke="#3D4451" stroke-width="2"/>
<rect x="214" y="151" width="16" height="16" fill="#FCFCFC"/>
<rect x="188" y="111" width="14" height="14" stroke="#3D4451" stroke-width="2"/>
<rect x="188" y="149" width="14" height="14" stroke="#3D4451" stroke-width="2"/>
<rect x="212" y="130" width="14" height="14" stroke="#3D4451" stroke-width="2"/>
<rect x="212" y="111" width="14" height="14" stroke="#3D4451" stroke-width="2"/>
<rect x="212" y="149" width="14" height="14" stroke="#3D4451" stroke-width="2"/>
<rect x="114" y="177" width="122" height="12" stroke="#3D4451" stroke-width="2"/>
<path d="M50 195.75H114" stroke="#3D4451" stroke-width="2"/>
<rect x="114" y="189" width="122" height="18" stroke="#3D4451" stroke-width="2"/>
<path d="M66 102H128" stroke="#3D4451" stroke-width="2"/>
<path d="M65 107H129" stroke="#3D4451" stroke-width="2"/>
<circle cx="198.75" cy="58.75" r="7" fill="#C7DDEB"/>
<circle cx="195.75" cy="54.75" r="6" stroke="#3D4451" stroke-width="2"/>
<circle cx="222.5" cy="28.5" r="10.5" fill="#C7DDEB"/>
<circle cx="218.5" cy="24.5" r="9.5" stroke="#3D4451" stroke-width="2"/>
</svg>
