<svg width="251" height="185" viewBox="0 0 251 185" fill="none" xmlns="http://www.w3.org/2000/svg">
<path fill-rule="evenodd" clip-rule="evenodd" d="M250.774 170.769C211.319 180.021 169.42 185 126.001 185C82.4095 185 40.3512 179.982 0.759754 170.659L53.252 0.306638C76.0986 5.29609 100.563 8.00015 126.001 8.00015C151.211 8.00015 175.465 5.34421 198.136 0.439861L250.774 170.769Z" fill="#E6EAEA"/>
<path d="M91.0037 98.4146C90.4957 98.4146 90.0723 98.8206 90.0723 99.3265C90.0723 99.3286 90.0723 99.333 90.0723 99.3352C90.0723 105.343 94.9424 110.211 100.948 110.211C106.954 110.211 111.824 105.341 111.824 99.3352C111.824 99.333 111.824 99.3286 111.824 99.3265C111.824 98.8206 111.398 98.4146 110.892 98.4146H91.0037Z" fill="#C7DDEB"/>
<path d="M102.427 111.652C92.1133 111.652 83.6954 121.206 83.2069 132.846C83.1851 133.378 83.6085 133.823 84.1405 133.823H120.715C121.247 133.823 121.671 133.378 121.649 132.846C121.156 121.206 112.74 111.652 102.427 111.652Z" fill="#C7DDEB"/>
<path d="M85.8167 94.9531C85.2435 94.9531 84.7637 95.4113 84.7637 95.9845C84.7637 95.9888 84.7637 95.991 84.7637 95.9953C84.7637 102.789 90.2721 108.296 97.066 108.296C103.858 108.296 109.366 102.789 109.366 95.9953C109.366 95.991 109.366 95.9888 109.366 95.9845C109.366 95.4113 108.886 94.9531 108.313 94.9531H85.8167Z" stroke="#3D4451" stroke-miterlimit="10"/>
<path d="M97.7396 109.926C86.0757 109.926 76.5547 120.73 76.001 133.895C75.975 134.496 76.4548 135 77.0563 135H118.423C119.024 135 119.504 134.496 119.478 133.895C118.922 120.73 109.404 109.926 97.7396 109.926Z" stroke="#3D4451" stroke-miterlimit="10"/>
<path d="M110.087 85.7561H108.268V84.855C108.268 78.0264 103.117 73 96.8295 73H96.519C90.231 73 85.4738 78.0264 85.4738 84.855V85.7561H83.8844C82.5057 85.7561 81.3896 87.1609 81.3896 88.8936C81.3896 90.6262 82.5057 92.031 83.8844 92.031H85.1329H108.213H110.085C111.464 92.031 112.58 90.6262 112.58 88.8936C112.582 87.1631 111.464 85.7561 110.087 85.7561ZM96.9858 88.3985C95.1771 88.3985 93.7115 86.9329 93.7115 85.1221C93.7115 83.3134 95.1771 81.8479 96.9858 81.8479C98.7944 81.8479 100.262 83.3134 100.262 85.1221C100.26 86.9307 98.7944 88.3985 96.9858 88.3985Z" stroke="#3D4451" stroke-miterlimit="10"/>
<path d="M111.045 85.6585H109.369V84.7987C109.369 78.2762 104.625 73.4756 98.8342 73.4756H98.5476C92.7547 73.4756 88.3731 78.2762 88.3731 84.7987V85.6585H86.9097C85.6395 85.6585 84.6104 87.0003 84.6104 88.6548C84.6104 90.3093 85.6395 91.6512 86.9097 91.6512H88.0583H109.319H111.043C112.313 91.6512 113.343 90.3093 113.343 88.6548C113.345 87.0003 112.313 85.6585 111.045 85.6585ZM98.9775 88.1793C97.3122 88.1793 95.9617 86.7789 95.9617 85.0506C95.9617 83.3244 97.3122 81.9218 98.9775 81.9218C100.645 81.9218 101.996 83.3222 101.996 85.0506C101.993 86.7789 100.643 88.1793 98.9775 88.1793Z" fill="#FDC345"/>
<path d="M110.087 85.7561H108.268V84.855C108.268 78.0264 103.117 73 96.8295 73H96.519C90.231 73 85.4738 78.0264 85.4738 84.855V85.7561H83.8844C82.5057 85.7561 81.3896 87.1609 81.3896 88.8936C81.3896 90.6262 82.5057 92.031 83.8844 92.031H85.1329H108.213H110.085C111.464 92.031 112.58 90.6262 112.58 88.8936C112.582 87.1631 111.464 85.7561 110.087 85.7561ZM96.9858 88.3985C95.1771 88.3985 93.7115 86.9329 93.7115 85.1221C93.7115 83.3134 95.1771 81.8479 96.9858 81.8479C98.7944 81.8479 100.262 83.3134 100.262 85.1221C100.26 86.9307 98.7944 88.3985 96.9858 88.3985Z" stroke="#3D4451" stroke-miterlimit="10"/>
<path d="M99.2053 170.093H139.714C140.38 170.093 140.919 169.553 140.919 168.887V120.492C140.919 119.826 140.38 119.287 139.714 119.287H99.2053C98.5393 119.287 98 119.826 98 120.492V168.887C98 169.553 98.5393 170.093 99.2053 170.093Z" fill="#FCFCFC" stroke="#3D4451" stroke-miterlimit="10"/>
<path d="M103.715 173.686H143.787C144.427 173.686 144.945 173.168 144.945 172.529V127.38C144.945 126.741 144.427 126.223 143.787 126.223H103.715C103.076 126.223 102.558 126.741 102.558 127.38V172.529C102.558 173.168 103.076 173.686 103.715 173.686Z" fill="#C7DDEB"/>
<path d="M127.937 136.383C127.585 136.378 127.251 136.202 127.019 135.975L122.558 131.583C122.11 131.145 122.168 130.475 122.688 130.101C123.206 129.726 123.989 129.773 124.437 130.209L127.929 133.628L135.477 125.806C135.908 125.358 136.69 125.292 137.22 125.657C137.753 126.023 137.834 126.679 137.404 127.125L128.92 135.955C128.689 136.196 128.343 136.389 127.975 136.382C127.964 136.383 127.95 136.383 127.937 136.383Z" fill="#4ECE46" stroke="#3D4451" stroke-miterlimit="10"/>
<path d="M107.731 128.299H105.729V136.407H107.731V128.299Z" fill="#F5FAFC"/>
<path d="M107.731 142.842H105.729V150.95H107.731V142.842Z" fill="#F5FAFC"/>
<path d="M131.011 146.217L135.694 141.849C136.097 141.473 136.1 140.862 135.701 140.482C135.303 140.103 134.654 140.099 134.251 140.475L129.568 144.843L124.934 140.429C124.535 140.05 123.886 140.046 123.483 140.422C123.081 140.798 123.078 141.409 123.476 141.789L128.11 146.203L123.427 150.571C123.024 150.947 123.021 151.558 123.42 151.938C123.62 152.13 123.885 152.225 124.149 152.225C124.41 152.225 124.67 152.133 124.87 151.947L129.554 147.579L134.188 151.993C134.387 152.185 134.652 152.28 134.917 152.28C135.177 152.28 135.438 152.187 135.638 152.002C136.041 151.626 136.043 151.015 135.645 150.634L131.011 146.217Z" fill="#F04F4C" stroke="#3D4451" stroke-miterlimit="10"/>
<path d="M115.222 127.917H105.549V137.032H115.222V127.917Z" stroke="#3D4451" stroke-miterlimit="10"/>
<path d="M115.222 142.377H105.549V151.493H115.222V142.377Z" stroke="#3D4451" stroke-miterlimit="10"/>
<path d="M135.92 160.629H122.18C121.851 160.629 121.583 160.331 121.583 159.964C121.583 159.597 121.851 159.3 122.18 159.3H135.92C136.25 159.3 136.517 159.598 136.517 159.964C136.517 160.331 136.25 160.629 135.92 160.629Z" fill="#3D4451"/>
<path d="M135.92 165.104H122.18C121.851 165.104 121.583 164.805 121.583 164.439C121.583 164.072 121.851 163.774 122.18 163.774H135.92C136.25 163.774 136.517 164.073 136.517 164.439C136.517 164.805 136.25 165.104 135.92 165.104Z" fill="#3D4451"/>
<path d="M129.236 116.31H123.283C123.3 116.168 123.308 116.024 123.308 115.879C123.308 113.736 121.493 112 119.256 112C117.018 112 115.205 113.738 115.205 115.881C115.205 116.027 115.213 116.171 115.23 116.312H110.027C108.743 116.312 107.701 117.308 107.701 118.539V121.844C107.701 123.074 108.743 124.071 110.027 124.071L129.235 124.07C130.519 124.07 131.561 123.073 131.561 121.842V118.538C131.561 117.307 130.52 116.31 129.236 116.31ZM119.257 117.773C118.331 117.773 117.58 117.055 117.58 116.168C117.58 115.281 118.331 114.563 119.257 114.563C120.184 114.563 120.934 115.281 120.934 116.168C120.934 117.055 120.184 117.773 119.257 117.773Z" fill="#FDC345" stroke="#3D4451" stroke-miterlimit="10"/>
<path d="M166.769 66.1914L136.942 66.1914" stroke="#3D4451" stroke-miterlimit="10" stroke-linecap="square"/>
<path d="M191.612 79.6902L143.302 79.689" stroke="#3D4451" stroke-miterlimit="10" stroke-linecap="square"/>
<path d="M181.33 94.0317L149.482 94.0317" stroke="#3D4451" stroke-miterlimit="10" stroke-linecap="square"/>
<path d="M177.423 108.985L139.766 108.985" stroke="#3D4451" stroke-miterlimit="10" stroke-linecap="square"/>
<path d="M193.578 122.682L153.77 122.713" stroke="#3D4451" stroke-miterlimit="10" stroke-linecap="square"/>
<path d="M159.657 68.6218L159.657 64L144.967 64L144.967 68.6218L159.657 68.6218Z" fill="#F04F4C" stroke="#3D4451" stroke-miterlimit="10"/>
<path d="M183.204 82.1796L183.204 77.3618L152.527 77.3618L152.527 82.1796L183.204 82.1796Z" fill="#4ECE46" stroke="#3D4451" stroke-miterlimit="10"/>
<path d="M169.866 96.3821L169.866 91.6802L162.008 91.6802L162.008 96.3821L169.866 96.3821Z" fill="#F04F4C" stroke="#3D4451" stroke-miterlimit="10"/>
<path d="M179.822 111.405L179.822 106.563L157.643 106.563L157.643 111.405L179.822 111.405Z" fill="#F04F4C" stroke="#3D4451" stroke-miterlimit="10"/>
<path d="M185.972 125L185.972 120.517L164.658 120.517L164.658 125L185.972 125Z" fill="#4ECE46" stroke="#3D4451" stroke-miterlimit="10"/>
<path d="M100.448 22.824C100.832 23.528 101.269 24.4027 101.76 25.448C102.272 26.472 102.795 27.592 103.328 28.808C103.883 30.0027 104.427 31.2293 104.96 32.488C105.493 33.7467 105.995 34.9307 106.464 36.04C106.933 34.9307 107.435 33.7467 107.968 32.488C108.501 31.2293 109.035 30.0027 109.568 28.808C110.123 27.592 110.645 26.472 111.136 25.448C111.648 24.4027 112.096 23.528 112.48 22.824H117.024C117.237 24.296 117.429 25.9493 117.6 27.784C117.792 29.5973 117.952 31.496 118.08 33.48C118.229 35.4427 118.357 37.416 118.464 39.4C118.592 41.384 118.699 43.2507 118.784 45H113.92C113.856 42.8453 113.771 40.4987 113.664 37.96C113.557 35.4213 113.397 32.8613 113.184 30.28C112.8 31.176 112.373 32.168 111.904 33.256C111.435 34.344 110.965 35.432 110.496 36.52C110.048 37.608 109.611 38.6533 109.184 39.656C108.757 40.6373 108.395 41.48 108.096 42.184H104.608C104.309 41.48 103.947 40.6373 103.52 39.656C103.093 38.6533 102.645 37.608 102.176 36.52C101.728 35.432 101.269 34.344 100.8 33.256C100.331 32.168 99.904 31.176 99.52 30.28C99.3067 32.8613 99.1467 35.4213 99.04 37.96C98.9333 40.4987 98.848 42.8453 98.784 45H93.92C94.0053 43.2507 94.1013 41.384 94.208 39.4C94.336 37.416 94.464 35.4427 94.592 33.48C94.7413 31.496 94.9013 29.5973 95.072 27.784C95.264 25.9493 95.4667 24.296 95.68 22.824H100.448ZM123.279 45V22.824H138.255V27.016H128.271V31.368H137.135V35.464H128.271V40.808H138.991V45H123.279ZM148.733 41.192C149.437 41.192 150.013 41.1387 150.461 41.032C150.93 40.904 151.304 40.744 151.581 40.552C151.858 40.3387 152.05 40.0933 152.157 39.816C152.264 39.5387 152.317 39.2293 152.317 38.888C152.317 38.1627 151.976 37.5653 151.293 37.096C150.61 36.6053 149.437 36.0827 147.773 35.528C147.048 35.272 146.322 34.984 145.597 34.664C144.872 34.3227 144.221 33.9067 143.645 33.416C143.069 32.904 142.6 32.296 142.237 31.592C141.874 30.8667 141.693 29.992 141.693 28.968C141.693 27.944 141.885 27.0267 142.269 26.216C142.653 25.384 143.197 24.68 143.901 24.104C144.605 23.528 145.458 23.0907 146.461 22.792C147.464 22.472 148.594 22.312 149.853 22.312C151.346 22.312 152.637 22.472 153.725 22.792C154.813 23.112 155.709 23.464 156.413 23.848L154.973 27.784C154.354 27.464 153.661 27.1867 152.893 26.952C152.146 26.696 151.24 26.568 150.173 26.568C148.978 26.568 148.114 26.7387 147.581 27.08C147.069 27.4 146.813 27.9013 146.813 28.584C146.813 28.9893 146.909 29.3307 147.101 29.608C147.293 29.8853 147.56 30.1413 147.901 30.376C148.264 30.5893 148.669 30.792 149.117 30.984C149.586 31.1547 150.098 31.336 150.653 31.528C151.805 31.9547 152.808 32.3813 153.661 32.808C154.514 33.2133 155.218 33.6933 155.773 34.248C156.349 34.8027 156.776 35.4533 157.053 36.2C157.33 36.9467 157.469 37.8533 157.469 38.92C157.469 40.9893 156.744 42.6 155.293 43.752C153.842 44.8827 151.656 45.448 148.733 45.448C147.752 45.448 146.866 45.384 146.077 45.256C145.288 45.1493 144.584 45.0107 143.965 44.84C143.368 44.6693 142.845 44.488 142.397 44.296C141.97 44.104 141.608 43.9227 141.309 43.752L142.717 39.784C143.378 40.1467 144.189 40.4773 145.149 40.776C146.13 41.0533 147.325 41.192 148.733 41.192Z" fill="#818285"/>
</svg>
