<svg width="314" height="216" viewBox="0 0 314 216" fill="none" xmlns="http://www.w3.org/2000/svg">
<path fill-rule="evenodd" clip-rule="evenodd" d="M0.971677 215.366L207.241 206.034C225.789 170.869 264.166 141.677 313.712 124.079L157.719 0.0712942C72.7463 52.0504 14.4337 128.452 0.971677 215.366Z" fill="#E6EAEA"/>
<mask id="mask0_1717_19824" style="mask-type:alpha" maskUnits="userSpaceOnUse" x="76" y="56" width="102" height="102">
<path d="M177.131 106.736C177.131 134.37 154.729 156.772 127.095 156.772C99.4613 156.772 77.0596 134.37 77.0596 106.736C77.0596 79.1021 99.4613 56.7004 127.095 56.7004C154.729 56.7004 177.131 79.1021 177.131 106.736Z" stroke="#3D4451"/>
</mask>
<g mask="url(#mask0_1717_19824)">
<rect x="158" y="63" width="24" height="55" fill="#3D4451"/>
<rect x="88" y="132" width="62" height="34" fill="#3D4451"/>
<rect x="72" y="50" width="52" height="42" fill="#3D4451"/>
</g>
<path d="M120.217 60.9751L123.608 56.7242L119 53.6638" stroke="#3D4451" stroke-miterlimit="10" stroke-linecap="round"/>
<path d="M173.163 113L175.483 117.918L180.262 115.132" stroke="#3D4451" stroke-miterlimit="10" stroke-linecap="round"/>
<path d="M93.2168 138.009L87.8101 137.429L87.7009 142.96" stroke="#3D4451" stroke-miterlimit="10" stroke-linecap="round"/>
<ellipse cx="1.68452" cy="1.68452" rx="1.68452" ry="1.68452" transform="matrix(1 0 0 -1 157 69.3691)" fill="#3D4451"/>
<ellipse cx="1.68452" cy="1.68452" rx="1.68452" ry="1.68452" transform="matrix(1 0 0 -1 78 92.3691)" fill="#3D4451"/>
<ellipse cx="1.68452" cy="1.68452" rx="1.68452" ry="1.68452" transform="matrix(1 0 0 -1 148 153.369)" fill="#3D4451"/>
<path d="M177.424 132.053C178.033 131.857 178.924 131.684 180.096 132.78C181.268 133.876 180.939 135.388 180.611 135.745C180.283 136.103 171.236 147.561 171.236 147.561C171.236 147.561 169.924 149.407 168.236 149.776C166.549 150.145 165.096 148.708 165.096 148.708C165.096 148.708 164.111 147.561 164.674 145.53C165.236 143.499 165.986 142.945 165.986 142.945C165.986 142.945 176.814 132.249 177.424 132.053Z" fill="#C7DDEB"/>
<path d="M174.947 127.665C175.538 127.552 176.386 127.495 177.34 128.664C178.293 129.832 177.801 131.213 177.452 131.511C177.104 131.808 167.287 141.503 167.287 141.503C167.287 141.503 165.841 143.082 164.228 143.229C162.615 143.377 161.443 141.854 161.443 141.854C161.443 141.854 160.67 140.66 161.443 138.819C162.216 136.977 162.981 136.546 162.981 136.546C162.981 136.546 174.357 127.777 174.947 127.665Z" fill="#C7DDEB"/>
<ellipse cx="160.562" cy="145.939" rx="2.8125" ry="3.32308" fill="#7EB9C7"/>
<ellipse cx="167.875" cy="145.939" rx="3" ry="3.32308" fill="#7EB9C7"/>
<ellipse cx="164.125" cy="139.661" rx="3" ry="3.32308" fill="#7EB9C7"/>
<path d="M178.237 131.353C178.24 131.325 178.24 131.298 178.237 131.27C178.237 128.975 176.562 127.108 174.501 127.108C174.387 127.108 174.277 127.145 174.186 127.214L162.658 135.952C161.984 136.323 161.425 136.871 161.04 137.535C160.656 138.2 160.46 138.957 160.475 139.725C160.473 140.399 160.623 141.066 160.913 141.676H160.73C158.675 141.676 157 143.543 157 145.838C157 148.132 158.675 150 160.736 150C162.562 150 164.093 148.52 164.409 146.577C164.724 148.52 166.248 150 168.082 150C169.199 149.983 170.244 149.447 170.907 148.551L170.928 148.53L180.89 135.692C180.963 135.599 181.001 135.485 181 135.367C181 133.447 179.826 131.832 178.237 131.353L178.237 131.353ZM174.676 128.148C176.022 128.245 177.105 129.496 177.196 131.054L167.917 140.219C167.939 140.055 167.953 139.89 167.956 139.725C167.956 137.643 166.595 135.942 164.826 135.622L174.676 128.148ZM161.518 139.725C161.506 138.787 161.895 137.888 162.588 137.253C162.663 137.239 162.733 137.207 162.794 137.16L163.222 136.837V136.837C163.531 136.693 163.869 136.617 164.21 136.616C165.695 136.616 166.902 138.016 166.902 139.738C166.902 141.46 165.695 142.859 164.21 142.859C163.735 142.857 163.271 142.714 162.877 142.448C162.815 142.399 162.752 142.352 162.684 142.308V142.308C161.924 141.667 161.496 140.717 161.518 139.725L161.518 139.725ZM164.826 143.827C164.628 144.229 164.492 144.657 164.422 145.099C164.355 144.675 164.226 144.264 164.041 143.876H164.223C164.425 143.879 164.627 143.862 164.826 143.827L164.826 143.827ZM160.736 148.96C159.251 148.96 158.043 147.56 158.043 145.838C158.043 144.116 159.251 142.716 160.736 142.716C161.211 142.719 161.675 142.862 162.069 143.127C162.131 143.177 162.194 143.224 162.262 143.268V143.268C163.018 143.906 163.446 144.85 163.428 145.838C163.428 147.56 162.217 148.96 160.736 148.96L160.736 148.96ZM168.082 148.96C166.597 148.96 165.39 147.56 165.39 145.838C165.39 144.116 166.597 142.716 168.082 142.716C169.566 142.716 170.774 144.116 170.774 145.838C170.774 147.56 169.566 148.96 168.082 148.96ZM171.81 145.692C171.742 143.497 170.127 141.71 168.134 141.676L177.473 132.253C178.811 132.373 179.878 133.632 179.951 135.193L171.81 145.692Z" fill="#3D4451"/>
<path d="M140.49 38.6327C138.661 38.1102 137.66 39.9388 137.388 40.9184C131.673 44.347 134.612 47.7755 136.082 48.7551C135.755 52.1837 138.041 51.8572 139.837 51.5306C142.286 55.2857 145.551 52.1837 146.531 51.8572C150.123 52.347 149.959 49.4082 150.449 48.7551C154.204 43.6939 149.47 41.4082 148.327 40.7551C148 38.7959 146.204 38.6327 144.898 38.6327C142.939 36.8368 141.306 38.1429 140.49 38.6327Z" fill="#6B968B"/>
<path d="M133.306 57.0817C132 55.645 132.762 54.5239 133.306 54.1429C133.306 53.3266 134.123 53.8164 135.755 53.8164C139.412 53.5552 138.476 55.8844 137.551 57.0817C137.497 57.2994 137.323 57.9633 137.061 58.8776C134.612 60.347 133.959 58.7143 133.306 57.0817Z" fill="#6B968B"/>
<path d="M148.394 57.0641C147.088 55.6274 147.85 54.5063 148.394 54.1253C148.394 53.309 149.21 53.7988 150.843 53.7988C154.5 53.5376 153.564 55.8668 152.639 57.0641C152.585 57.2818 152.41 57.9457 152.149 58.86C149.7 60.3294 149.047 58.6968 148.394 57.0641Z" fill="#6B968B"/>
<path d="M141.959 60.1834V53.816L144.082 53.4895L144.245 60.1834L147.673 56.9181L148.49 57.2446V58.714L144.245 62.9589V66.2242L145.224 68.3466H140.816L141.469 66.2242V62.9589L137.388 58.714L137.551 57.7344L138.204 56.9181L141.959 60.1834Z" fill="#C7DDEB"/>
<path d="M151.392 53C151.049 53.0005 150.711 53.0724 150.397 53.211C149.77 52.9335 149.057 52.9291 148.427 53.1989C147.796 53.4686 147.305 53.9882 147.069 54.6349C146.833 55.2815 146.873 55.9976 147.18 56.6134L144.431 59.3815V53.7076C145.16 53.4132 145.786 52.9063 146.227 52.252C147.149 52.6545 148.21 52.5629 149.051 52.0083C149.891 51.4538 150.397 50.5107 150.397 49.5V49.4986C151.379 48.7582 152.053 47.679 152.291 46.4688C152.53 45.2583 152.314 44.0023 151.687 42.9417C151.059 41.8815 150.064 41.0917 148.893 40.7245C148.814 39.8583 148.365 39.0689 147.662 38.5618C146.959 38.0547 146.072 37.8796 145.231 38.0826C144.665 37.3969 143.825 37 142.939 37C142.053 37 141.213 37.3969 140.647 38.0826C139.806 37.8797 138.918 38.0547 138.215 38.5618C137.512 39.0689 137.063 39.8583 136.985 40.7245C135.813 41.0917 134.818 41.8815 134.191 42.9417C133.563 44.0023 133.348 45.2583 133.586 46.4688C133.824 47.679 134.499 48.7582 135.48 49.4986V49.5C135.48 50.5107 135.986 51.4537 136.827 52.0083C137.667 52.5629 138.729 52.6545 139.651 52.252C140.092 52.9062 140.717 53.4132 141.447 53.7076V59.3815L138.697 56.6127C139.004 55.9971 139.044 55.2813 138.808 54.6346C138.572 53.9882 138.081 53.4686 137.451 53.1989C136.82 52.9293 136.107 52.9337 135.48 53.211C134.73 52.8802 133.865 52.9433 133.169 53.3795C132.474 53.8154 132.037 54.5686 132.002 55.392C131.967 56.2154 132.338 57.0034 132.994 57.4976V57.5001C132.994 58.1532 133.248 58.7804 133.702 59.2476C134.156 59.7148 134.774 59.9846 135.423 59.9994C136.073 60.0143 136.702 59.773 137.177 59.327L141.336 63.5049C141.107 66.4509 140.591 67.8054 140.176 68.0842V68.0844C139.994 68.2067 139.913 68.4344 139.977 68.6451C140.04 68.856 140.233 69 140.453 69H145.425C145.644 69 145.837 68.8558 145.9 68.6451C145.964 68.4346 145.883 68.2069 145.701 68.0844C145.286 67.8056 144.77 66.4514 144.542 63.5049L148.701 59.3268V59.327C149.175 59.7728 149.805 60.0143 150.454 59.9994C151.104 59.9846 151.721 59.7148 152.175 59.2476C152.629 58.7804 152.883 58.1532 152.883 57.5001V57.4976C153.443 57.0755 153.8 56.4351 153.866 55.7345C153.933 55.0335 153.702 54.3374 153.23 53.8168C152.759 53.296 152.092 52.9996 151.391 53.0001L151.392 53ZM140.279 51.359L140.278 51.3572L140.278 51.3558V51.3561C140.065 50.9362 139.954 50.4713 139.955 50.0001C139.955 49.7239 139.733 49.5001 139.458 49.5001C139.184 49.5001 138.961 49.7239 138.961 50.0001C138.961 50.4614 139.041 50.9193 139.197 51.3534C138.585 51.6037 137.89 51.5307 137.343 51.1583C136.796 50.7862 136.471 50.1639 136.475 49.5001C136.475 49.4378 136.478 49.3755 136.486 49.3134C136.486 49.3105 136.485 49.3076 136.486 49.3047L136.487 49.2994C136.535 48.8056 136.763 48.3476 137.129 48.0148C137.495 47.682 137.971 47.4983 138.464 47.5001C138.738 47.5001 138.961 47.2762 138.961 47.0001C138.961 46.724 138.738 46.5001 138.464 46.5001C137.871 46.4994 137.291 46.678 136.801 47.0124C136.31 47.3467 135.93 47.8217 135.711 48.3757C135.016 47.7072 134.586 46.8077 134.501 45.8443C134.416 44.8811 134.682 43.9197 135.249 43.1384C135.816 42.3574 136.646 41.8099 137.584 41.5976H137.584C137.873 41.534 138.168 41.5011 138.464 41.5C138.738 41.5 138.961 41.2761 138.961 41C138.961 40.7239 138.738 40.5 138.464 40.5C138.321 40.5 138.175 40.5114 138.03 40.5244C138.135 40.0904 138.382 39.7045 138.731 39.4281C139.08 39.152 139.511 39.0011 139.955 39C140.013 39 140.07 39.0109 140.127 39.0159C140.015 39.3319 139.957 39.6645 139.955 40C139.955 40.2761 140.178 40.5 140.453 40.5C140.727 40.5 140.95 40.2761 140.95 40C140.948 39.6235 141.055 39.2543 141.257 38.9375L141.258 38.9351L141.261 38.9313C141.624 38.3518 142.258 38 142.939 38C143.62 38 144.253 38.3518 144.616 38.9313L144.619 38.9351L144.62 38.9377C144.823 39.2545 144.93 39.6235 144.928 40C144.928 40.2761 145.15 40.5 145.425 40.5C145.699 40.5 145.922 40.2761 145.922 40C145.921 39.6645 145.862 39.332 145.75 39.0159C145.808 39.0109 145.864 39 145.922 39C146.365 39.0018 146.795 39.1529 147.143 39.4292C147.49 39.7054 147.736 40.0908 147.84 40.5239C147.697 40.5114 147.554 40.5 147.414 40.5C147.139 40.5 146.916 40.7239 146.916 41C146.916 41.2761 147.139 41.5 147.414 41.5C147.709 41.5011 148.004 41.5337 148.293 41.5973H148.293C149.231 41.8096 150.061 42.3571 150.628 43.1382C151.195 43.9192 151.461 44.8808 151.376 45.844C151.291 46.8074 150.861 47.7067 150.167 48.3755C149.947 47.8214 149.568 47.3467 149.077 47.0123C148.586 46.6779 148.007 46.4994 147.414 46.5C147.139 46.5 146.916 46.7239 146.916 47C146.916 47.2762 147.139 47.5 147.414 47.5C147.907 47.4983 148.383 47.6817 148.749 48.0148C149.114 48.3476 149.343 48.8056 149.39 49.2993L149.392 49.3047C149.392 49.3076 149.391 49.3105 149.392 49.3134C149.399 49.3755 149.403 49.4377 149.403 49.5C149.407 50.1638 149.081 50.7862 148.534 51.1583C147.987 51.5306 147.292 51.6036 146.681 51.3534C146.836 50.9192 146.916 50.4614 146.916 50C146.916 49.7239 146.694 49.5 146.419 49.5C146.145 49.5 145.922 49.7239 145.922 50C145.923 50.4712 145.813 50.9362 145.6 51.356L145.599 51.3574L145.598 51.3591V51.3589C145.264 52.0205 144.698 52.5341 144.009 52.8002C143.32 53.0665 142.557 53.0665 141.869 52.8002C141.18 52.5342 140.614 52.0205 140.279 51.3589L140.279 51.359ZM135.48 59.0001C135.085 58.9996 134.706 58.8414 134.426 58.5604C134.147 58.2791 133.989 57.8978 133.989 57.5001C133.988 57.4425 133.992 57.3851 134.001 57.3282C134.038 57.1184 133.939 56.9077 133.754 56.8039C133.407 56.6083 133.153 56.282 133.047 55.8972C132.941 55.5121 132.992 55.1006 133.189 54.7539C133.386 54.407 133.713 54.1539 134.097 54.0505C134.48 53.9469 134.889 54.0021 135.232 54.2032C135.386 54.292 135.575 54.292 135.729 54.2032C136.127 53.9699 136.611 53.9355 137.039 54.1105C137.466 54.2853 137.789 54.6496 137.912 55.0967C138.036 55.5436 137.946 56.0231 137.67 56.3947C137.547 56.5623 137.39 56.7014 137.209 56.8023C137.023 56.9059 136.923 57.1173 136.96 57.3282C136.969 57.3851 136.973 57.4425 136.972 57.5001C136.971 57.8976 136.814 58.2784 136.534 58.5594C136.254 58.8407 135.876 58.9989 135.48 59.0001L135.48 59.0001ZM137.777 58.4396C137.825 58.3217 137.863 58.2005 137.893 58.0766C137.903 58.036 137.912 57.9958 137.92 57.9545V57.9548C137.949 57.805 137.965 57.6528 137.966 57.5001V57.4981C138.005 57.4688 138.043 57.4385 138.08 57.4072L141.447 60.7969V61.0572C141.447 61.119 141.445 61.2306 141.442 61.3835L141.442 61.4041C141.438 61.5623 141.433 61.7617 141.424 61.9916L141.423 62.0282C141.421 62.0739 141.419 62.1253 141.417 62.1733L137.759 58.4985C137.767 58.4793 137.769 58.4585 137.777 58.4395L137.777 58.4396ZM141.451 68.0001C141.799 67.2564 142.166 65.899 142.346 63.3517C142.441 62.0532 142.441 61.0426 142.441 61.0002V54.0002H143.436V61.0002C143.436 61.0107 143.436 61.0819 143.437 61.2028C143.442 61.5658 143.461 62.3778 143.532 63.3517V63.3524C143.712 65.8992 144.078 67.2566 144.427 68.0001L141.451 68.0001ZM144.461 62.1727C144.459 62.1238 144.456 62.0716 144.455 62.025L144.453 61.9926C144.445 61.7618 144.439 61.5618 144.436 61.4031L144.435 61.383C144.432 61.2301 144.431 61.1185 144.431 61.0567V61.0362L144.43 61V60.7969L147.797 57.4072C147.834 57.4384 147.872 57.4688 147.911 57.498V57.5C147.912 57.6529 147.928 57.8051 147.958 57.9549C147.965 57.9958 147.975 58.0357 147.984 58.0759V58.0761C148.014 58.2009 148.053 58.3232 148.101 58.442C148.108 58.4603 148.111 58.4799 148.119 58.498L144.461 62.1727ZM152.124 56.8038C151.939 56.9076 151.839 57.1183 151.876 57.3281C151.885 57.385 151.89 57.4424 151.889 57.5C151.889 58.0359 151.604 58.531 151.143 58.7991C150.681 59.0669 150.113 59.0669 149.651 58.7991C149.19 58.531 148.905 58.0359 148.905 57.5C148.904 57.4424 148.908 57.385 148.917 57.3281C148.955 57.1172 148.854 56.9058 148.668 56.8022C148.485 56.7 148.326 56.5587 148.203 56.3881C148.012 56.1317 147.91 55.8201 147.911 55.5C147.91 55.1471 148.034 54.8054 148.259 54.5348C148.485 54.2645 148.798 54.083 149.144 54.0223C149.489 53.9616 149.846 54.0256 150.149 54.2031C150.302 54.2919 150.491 54.2919 150.645 54.2031C150.988 54.002 151.397 53.9468 151.781 54.0504C152.164 54.1538 152.491 54.4069 152.688 54.7538C152.885 55.1004 152.937 55.5121 152.831 55.8971C152.725 56.2819 152.47 56.6082 152.124 56.8038H152.124Z" fill="#3D4451"/>
<path d="M72.7876 124.553H84.0964C84.117 124.553 84.1424 124.557 84.1693 124.568C84.1962 124.579 84.2186 124.594 84.2343 124.609C84.2435 124.618 84.2488 124.625 84.2516 124.629L82.8147 133.093C82.8147 133.093 82.8147 133.093 82.8147 133.093C82.798 133.191 82.7604 133.258 82.7284 133.293C82.7033 133.32 82.6845 133.326 82.6578 133.326H74.2259C74.1992 133.326 74.1804 133.32 74.1553 133.293C74.1233 133.258 74.0857 133.191 74.069 133.093L72.6322 124.629C72.635 124.625 72.6403 124.618 72.6497 124.609C72.6655 124.594 72.6879 124.579 72.7149 124.568C72.7417 124.557 72.7671 124.553 72.7876 124.553ZM84.2533 124.619L84.2533 124.619L84.2533 124.619Z" fill="#FDC345" stroke="#3D4451"/>
<path d="M71.4619 121.901C71.4619 121.235 72.0018 120.695 72.6677 120.695H84.7245C85.3904 120.695 85.9302 121.235 85.9302 121.901C85.9302 122.567 85.3904 123.106 84.7245 123.106H72.6677C72.0018 123.106 71.4619 122.567 71.4619 121.901Z" fill="#FDC345" stroke="#3D4451"/>
<path d="M79.9866 112.249L79.7701 112.422L79.8011 112.697C79.8574 113.196 79.8619 113.721 79.8255 114.263L79.7619 115.209L80.5787 114.727C81.6868 114.072 82.8763 113.509 84.0408 113.202L84.3793 113.113L84.4114 112.764C84.5021 111.78 84.955 110.907 85.7059 110.499L85.7059 110.499C86.5247 110.054 87.5025 110.047 88.5517 110.372C89.6022 110.697 90.6791 111.344 91.6334 112.13C92.5867 112.916 93.3913 113.819 93.9062 114.631C94.164 115.037 94.3394 115.406 94.4298 115.713C94.4555 115.8 94.4731 115.878 94.4842 115.948C94.3374 115.858 94.1777 115.751 93.9962 115.628C93.8332 115.518 93.6527 115.397 93.4482 115.266C92.9972 114.977 92.466 114.669 91.9295 114.507C91.3902 114.343 90.7652 114.304 90.2108 114.672L90.2107 114.672C89.8522 114.909 89.4523 115.158 89.0329 115.378C89.3506 115.085 89.5524 114.562 89.3041 114.063L88.9315 113.313L88.4482 113.997C88.4176 114.04 88.3805 114.059 88.3604 114.063C88.3523 114.065 88.3457 114.065 88.3381 114.063C88.3306 114.061 88.311 114.055 88.2808 114.03L88.2804 114.03C87.066 113.044 85.5487 113.005 84.0853 113.384C82.6228 113.762 81.1293 114.575 79.847 115.426L79.6704 115.543L79.6318 115.751C79.4859 116.537 79.4205 117.25 79.3626 117.881C79.3453 118.07 79.3287 118.251 79.3107 118.425C79.2442 119.071 79.1596 119.625 78.9734 120.146H78.0132C78.159 119.84 78.3093 119.499 78.5081 118.965L78.6455 118.597L78.3194 118.376C77.0266 117.503 75.5044 116.653 74.0104 116.248C72.5168 115.843 70.9604 115.862 69.7195 116.869L69.7194 116.869C69.6893 116.894 69.6697 116.9 69.6621 116.902C69.6544 116.904 69.6477 116.904 69.6394 116.902C69.619 116.898 69.582 116.879 69.5517 116.836L69.0683 116.153L68.6958 116.902C68.4475 117.402 68.6496 117.924 68.9671 118.217C68.5476 117.997 68.1477 117.749 67.7892 117.511L67.7892 117.511C67.2348 117.144 66.6098 117.183 66.0705 117.346C65.5339 117.508 65.0027 117.816 64.5517 118.105C64.3473 118.236 64.1668 118.358 64.0038 118.467C63.8224 118.59 63.6626 118.698 63.5158 118.787C63.5269 118.718 63.5445 118.639 63.5703 118.552C63.6607 118.245 63.8362 117.877 64.094 117.47C64.6089 116.658 65.4136 115.755 66.3669 114.969C67.3211 114.183 68.398 113.536 69.4485 113.211C70.4976 112.886 71.4753 112.893 72.2941 113.338L72.2941 113.338C73.0447 113.746 73.4978 114.618 73.5885 115.604L73.6206 115.952L73.9591 116.041C75.2918 116.392 76.6545 117.079 77.887 117.849L77.8884 117.861L77.9087 117.863C77.9679 117.9 78.0267 117.937 78.0852 117.975L78.1423 117.886L78.8603 117.955C79.3269 116.517 79.6936 114.908 79.66 113.442C79.6264 111.972 79.1859 110.567 77.9518 109.673L77.9509 109.672C77.9321 109.658 77.9197 109.645 77.9108 109.634L77.6119 109.246L77.2178 109.537C76.9575 109.729 76.7725 110.035 76.7419 110.373C76.7091 110.735 76.8574 111.103 77.2039 111.354C77.7904 111.778 78.1527 112.376 78.3407 113.109C77.8703 113.251 77.3967 113.314 76.9568 113.29L76.9568 113.29C76.0164 113.238 75.3729 112.965 74.9247 112.584C74.4733 112.2 74.1784 111.672 74.0004 111.043C73.6383 109.764 73.7893 108.177 73.9881 106.912L73.9882 106.912C74.1094 106.14 73.7641 105.485 73.309 104.97C72.8559 104.457 72.2403 104.019 71.6769 103.657C71.4275 103.497 71.1965 103.356 70.9861 103.227C70.6914 103.047 70.4372 102.892 70.2291 102.743C70.2017 102.723 70.1769 102.705 70.1544 102.688C70.2896 102.626 70.4701 102.572 70.7048 102.538C71.1175 102.479 71.6416 102.488 72.2473 102.57C73.4571 102.736 74.9207 103.186 76.3248 103.868C77.73 104.55 79.0449 105.449 79.9788 106.493C80.9117 107.536 81.435 108.687 81.3524 109.898L81.3472 109.975C81.262 110.849 80.7468 111.645 79.9866 112.249ZM87.5856 115.42C87.8562 115.639 88.1521 115.705 88.4229 115.668C88.0348 115.833 87.6394 115.959 87.2526 116.019C86.7519 116.097 86.2927 116.058 85.8875 115.869C85.5222 115.699 85.1603 115.387 84.8409 114.843C85.9086 114.667 86.8455 114.819 87.5854 115.42L87.5856 115.42ZM70.4146 118.258C71.1545 117.658 72.0914 117.506 73.1588 117.683C72.8396 118.226 72.4777 118.538 72.1125 118.708C71.7073 118.897 71.2482 118.936 70.7474 118.858C70.3607 118.798 69.9654 118.672 69.5773 118.507C69.8482 118.544 70.144 118.478 70.4146 118.258ZM63.53 119.164L63.5299 119.164L63.53 119.164ZM69.9645 102.517C69.964 102.516 69.9641 102.516 69.9647 102.517L69.9645 102.517Z" fill="#6B968B" stroke="#3D4451"/>
<path d="M154.805 118.489C154.805 119.893 153.577 121.03 152.06 121.03H109.525C108.009 121.03 106.779 119.892 106.779 118.489V94.3533C106.779 92.9494 108.008 91.8123 109.525 91.8123H152.06C153.576 91.8123 154.805 92.9506 154.805 94.3533V118.489Z" fill="#C7DDEB"/>
<path d="M146.378 114.619C146.378 114.907 146.139 115.142 145.844 115.142H104.545C104.251 115.142 104.012 114.909 104.012 114.619V88.3806C104.012 88.0922 104.251 87.8572 104.545 87.8572H145.844C146.139 87.8572 146.378 88.091 146.378 88.3806V114.619Z" stroke="#3D4451" stroke-miterlimit="10"/>
<path d="M149.787 84.7571H101V117.663H149.787V84.7571Z" stroke="#3D4451" stroke-miterlimit="10"/>
<path d="M147.902 114.086C156.929 114.086 164.246 106.65 164.246 97.4771C164.246 88.3041 156.929 80.8679 147.902 80.8679C138.876 80.8679 131.559 88.3041 131.559 97.4771C131.559 106.65 138.876 114.086 147.902 114.086Z" fill="#7EB9C7"/>
<path d="M147.881 80.1245L147.699 98.5353L164.993 96.5038C164.992 96.5025 162.131 83.2385 147.881 80.1245Z" fill="#F04F4C"/>
<path d="M148.14 114.163C157.451 113.918 164.801 106.171 164.556 96.8597C164.311 87.5484 156.564 80.1987 147.253 80.4437C137.942 80.6886 130.592 88.4355 130.837 97.7468C131.082 107.058 138.829 114.408 148.14 114.163Z" stroke="#3D4451" stroke-miterlimit="10"/>
<path d="M147.326 80.3413V98.7547L163.998 97.1652C163.998 97.1652 164.371 104.382 160.763 107.118L147.326 98.9071" fill="#FDC345"/>
<path d="M147.326 80.3413V98.7547L163.998 97.1652C163.998 97.1652 164.371 104.382 160.763 107.118L147.326 98.9071" stroke="#3D4451" stroke-miterlimit="10"/>
<path d="M147.666 98.9148L164.531 97.2224" stroke="#3D4451" stroke-miterlimit="10"/>
<path d="M118.221 104.498C121.565 104.665 124.311 101.919 124.142 98.5735C123.997 95.7098 121.669 93.3822 118.806 93.2374C115.459 93.0684 112.711 95.8178 112.883 99.1643C113.029 102.028 115.358 104.354 118.221 104.498Z" fill="#3D4451"/>
<path d="M113.578 116.964L111.185 122.867C110.778 124.024 109.379 124.558 108.255 124.159C107.624 123.934 107.104 123.422 106.849 122.805C106.564 122.119 106.847 121.344 107.059 120.668C107.828 118.222 108.596 115.776 109.364 113.331C110.015 111.261 110.699 108.885 112.282 107.31C113.756 105.842 115.715 104.78 117.835 104.78C118.73 104.78 122.345 104.769 124.378 104.896C124.378 104.896 135.041 102.169 135.67 102.065C136.299 101.961 136.977 102.018 137.518 102.355C137.929 102.609 138.171 102.972 138.272 103.372C138.44 104.038 138.215 104.807 137.723 105.349C136.775 106.394 135.219 106.802 133.943 107.275C132.429 107.837 130.916 108.4 129.401 108.961C128.485 109.302 127.569 109.505 126.917 110.278C126.396 110.895 126.065 111.665 125.859 112.441C125.591 113.451 125.533 114.503 125.474 115.546C125.294 118.81 125.024 122.083 125.026 125.348C125.027 126.902 125.075 128.455 125.075 130.007C125.075 131.177 124.235 132.205 123.078 132.377C121.631 132.59 120.374 131.461 120.374 130.053V121.922H118.214V129.748C118.214 130.917 117.38 131.949 116.224 132.123C114.773 132.341 113.514 131.21 113.514 129.799V116.967" fill="#3D4451"/>
<path d="M137.739 104.513L152.137 93.5992L151.333 92.5701L136.129 102.161" fill="#3D4451"/>
<path d="M82.216 168.568C85.5227 168.568 88.0613 169.155 89.832 170.328C91.6027 171.48 92.488 173.379 92.488 176.024C92.488 178.691 91.592 180.621 89.8 181.816C88.008 182.989 85.448 183.576 82.12 183.576H80.552V191H75.56V169.144C76.648 168.931 77.8 168.781 79.016 168.696C80.232 168.611 81.2987 168.568 82.216 168.568ZM82.536 172.824C82.1733 172.824 81.8107 172.835 81.448 172.856C81.1067 172.877 80.808 172.899 80.552 172.92V179.32H82.12C83.848 179.32 85.1493 179.085 86.024 178.616C86.8987 178.147 87.336 177.272 87.336 175.992C87.336 175.373 87.2187 174.861 86.984 174.456C86.7707 174.051 86.4507 173.731 86.024 173.496C85.6187 173.24 85.1173 173.069 84.52 172.984C83.9227 172.877 83.2613 172.824 82.536 172.824ZM110.97 186.712V191H96.1538V168.824H101.146V186.712H110.97ZM120.385 168.824C120.77 169.528 121.207 170.403 121.698 171.448C122.21 172.472 122.732 173.592 123.266 174.808C123.82 176.003 124.364 177.229 124.898 178.488C125.431 179.747 125.932 180.931 126.402 182.04C126.871 180.931 127.372 179.747 127.906 178.488C128.439 177.229 128.972 176.003 129.506 174.808C130.06 173.592 130.583 172.472 131.074 171.448C131.586 170.403 132.034 169.528 132.418 168.824H136.962C137.175 170.296 137.367 171.949 137.538 173.784C137.73 175.597 137.89 177.496 138.018 179.48C138.167 181.443 138.295 183.416 138.402 185.4C138.53 187.384 138.636 189.251 138.722 191H133.858C133.794 188.845 133.708 186.499 133.602 183.96C133.495 181.421 133.335 178.861 133.122 176.28C132.738 177.176 132.311 178.168 131.842 179.256C131.372 180.344 130.903 181.432 130.434 182.52C129.986 183.608 129.548 184.653 129.122 185.656C128.695 186.637 128.332 187.48 128.034 188.184H124.546C124.247 187.48 123.884 186.637 123.458 185.656C123.031 184.653 122.583 183.608 122.114 182.52C121.666 181.432 121.207 180.344 120.738 179.256C120.268 178.168 119.842 177.176 119.458 176.28C119.244 178.861 119.084 181.421 118.978 183.96C118.871 186.499 118.786 188.845 118.722 191H113.858C113.943 189.251 114.039 187.384 114.146 185.4C114.274 183.416 114.402 181.443 114.53 179.48C114.679 177.496 114.839 175.597 115.01 173.784C115.202 171.949 115.404 170.296 115.618 168.824H120.385ZM142.224 179.448H147.568V173.528H151.92V179.448H157.264V183.448H151.92V189.368H147.568V183.448H142.224V179.448ZM168.796 191.288C167.58 191.288 166.364 191.245 165.148 191.16C163.953 191.096 162.705 190.925 161.404 190.648V169.144C162.428 168.952 163.548 168.813 164.764 168.728C165.98 168.621 167.11 168.568 168.156 168.568C169.564 168.568 170.854 168.675 172.028 168.888C173.222 169.08 174.246 169.421 175.1 169.912C175.953 170.403 176.614 171.053 177.084 171.864C177.574 172.653 177.82 173.635 177.82 174.808C177.82 176.579 176.966 177.976 175.26 179C176.668 179.533 177.628 180.259 178.14 181.176C178.652 182.093 178.908 183.128 178.908 184.28C178.908 186.605 178.054 188.355 176.348 189.528C174.662 190.701 172.145 191.288 168.796 191.288ZM166.268 181.336V187.064C166.63 187.107 167.025 187.139 167.452 187.16C167.878 187.181 168.348 187.192 168.86 187.192C170.353 187.192 171.558 186.979 172.476 186.552C173.393 186.125 173.852 185.336 173.852 184.184C173.852 183.16 173.468 182.435 172.7 182.008C171.932 181.56 170.833 181.336 169.404 181.336H166.268ZM166.268 177.528H168.7C170.236 177.528 171.334 177.336 171.996 176.952C172.657 176.547 172.988 175.907 172.988 175.032C172.988 174.136 172.646 173.507 171.964 173.144C171.281 172.781 170.278 172.6 168.956 172.6C168.529 172.6 168.07 172.611 167.58 172.632C167.089 172.632 166.652 172.653 166.268 172.696V177.528ZM182.904 168.824H187.896V191H182.904V168.824Z" fill="#818285"/>
</svg>
