<svg width="271" height="236" viewBox="0 0 271 236" fill="none" xmlns="http://www.w3.org/2000/svg">
<path fill-rule="evenodd" clip-rule="evenodd" d="M217.903 235.692L270.396 65.338C218.248 53.9747 174.516 30.7069 146.866 0.509176L0.792867 117.765C54.1775 173.092 129.959 215.01 217.903 235.692Z" fill="#E6EAEA"/>
<path d="M158.806 136.749H104.855V101.225H158.806V136.749Z" fill="#C7DDEB"/>
<path d="M158.338 147.245H109.292V156.726H158.338V147.245Z" fill="#C7DDEB"/>
<path d="M156.105 145.51H107.059V154.991H156.105V145.51Z" stroke="#3D4451" stroke-miterlimit="10"/>
<path d="M161.211 136.017H101.955V97H161.211V136.017Z" stroke="#3D4451" stroke-miterlimit="10"/>
<path d="M161.211 159H101.955V140.95H161.211V159Z" stroke="#3D4451" stroke-miterlimit="10"/>
<path d="M106.877 150.066H151.364" stroke="#3D4451" stroke-miterlimit="10"/>
<path d="M112.898 145.51V155.538" stroke="#3D4451" stroke-miterlimit="10"/>
<path d="M119.096 145.51V155.538" stroke="#3D4451" stroke-miterlimit="10"/>
<path d="M125.202 145.51V150.796" stroke="#3D4451" stroke-miterlimit="10"/>
<path d="M131.399 145.51V150.796" stroke="#3D4451" stroke-miterlimit="10"/>
<path d="M137.873 145.51V155.538" stroke="#3D4451" stroke-miterlimit="10"/>
<path d="M144.071 145.51V155.538" stroke="#3D4451" stroke-miterlimit="10"/>
<path d="M150.273 145.51V150.432" stroke="#3D4451" stroke-miterlimit="10"/>
<path d="M156.104 131.641H149.905V133.1H156.104V131.641Z" fill="#3D4451"/>
<rect x="105.361" y="101.375" width="50.3439" height="26.1251" fill="#80B9C6" stroke="#3D4451"/>
<path d="M140.281 121.456L139.325 120.487C142.451 117.3 142.462 112.17 139.357 108.968L140.314 108C143.947 111.737 143.936 117.731 140.281 121.456Z" fill="#3D4451"/>
<path d="M138.372 119.522L137.416 118.554C139.488 116.433 139.499 113.034 137.448 110.9L138.404 109.932C140.983 112.603 140.973 116.867 138.372 119.522Z" fill="#3D4451"/>
<path d="M136.463 117.589L135.506 116.621C136.521 115.57 136.532 113.897 135.539 112.833L136.495 111.865C138.016 113.466 138.006 116.004 136.463 117.589Z" fill="#3D4451"/>
<path d="M132.508 119.424L123.66 117.716C122.888 117.567 122.312 116.073 122.312 114.92V113.788C122.312 112.636 122.888 111.142 123.66 110.992L132.508 109.285C133.435 109.106 134.257 110.176 134.257 111.56V117.147C134.255 118.534 133.434 119.603 132.508 119.424Z" fill="#F5FAFC"/>
<path d="M122.675 111.975C121.198 111.975 120 113.132 120 114.561C120 115.989 121.198 117.147 122.675 117.147" fill="#F04F4C"/>
<path d="M122.675 111.975C121.198 111.975 120 113.132 120 114.561C120 115.989 121.198 117.147 122.675 117.147" stroke="#3D4451" stroke-miterlimit="10"/>
<path d="M127.027 118.117C127.027 118.117 124.938 120.295 126.634 122.548C126.773 122.734 126.638 123 126.407 123H124.235C123.963 123 123.744 122.778 123.744 122.503V117.577" fill="#FDC345"/>
<path d="M127.027 118.117C127.027 118.117 124.938 120.295 126.634 122.548C126.773 122.734 126.638 123 126.407 123H124.235C123.963 123 123.744 122.778 123.744 122.503V117.577" stroke="#3D4451" stroke-miterlimit="10"/>
<path d="M131.864 119.074L123.484 117.885C122.753 117.781 122.206 116.74 122.206 115.937V115.149C122.206 114.345 122.752 113.305 123.484 113.202L131.864 112.012C132.742 111.887 133.52 112.633 133.52 113.597V117.489C133.52 118.454 132.742 119.199 131.864 119.074Z" fill="#FDC345"/>
<path d="M132.508 119.424L123.66 117.716C122.888 117.567 122.312 116.073 122.312 114.92V113.788C122.312 112.636 122.888 111.142 123.66 110.992L132.508 109.285C133.435 109.106 134.257 110.176 134.257 111.56V117.147C134.255 118.534 133.434 119.603 132.508 119.424Z" stroke="#3D4451" stroke-miterlimit="10"/>
<path d="M132.499 109.14V119.085" stroke="#3D4451" stroke-miterlimit="10"/>
<path d="M92.0157 84.0102C92.515 83.5357 92.9546 82.9917 93.3161 82.3868L95.7094 82.7011L96.5789 79.5948L94.419 78.626C94.4413 77.8945 94.3606 77.1716 94.1843 76.4798L96.0311 75.0589L94.445 72.2396L92.3088 73.0519C91.8033 72.5103 91.217 72.0371 90.5625 71.652L90.8481 69.4052L87.7369 68.5234L86.824 70.5728C86.0552 70.5492 85.3001 70.641 84.5772 70.836L83.1998 69.0525L80.3854 70.6249L81.2001 72.745C80.6698 73.2555 80.209 73.8467 79.8364 74.5049L77.5647 74.2069L76.6953 77.3132L78.8316 78.2708C78.8253 79.0011 78.9235 79.7202 79.1148 80.4095L77.243 81.849L78.8291 84.6684L81.0821 83.8127C81.5665 84.3058 82.1192 84.738 82.7316 85.092L82.4248 87.5028L85.536 88.3845L86.5321 86.1489C87.2276 86.1601 87.9133 86.0782 88.5716 85.9118L90.0732 87.8567L92.8876 86.2844L92.0157 84.0102ZM84.0406 81.2988C82.4036 79.837 82.2558 77.3318 83.7115 75.701C85.1671 74.0714 87.6735 73.9349 89.3105 75.3968C90.9475 76.8586 91.0953 79.3637 89.6397 80.9945C88.184 82.624 85.6776 82.7607 84.0406 81.2988Z" fill="#F04F4C" stroke="#3D4451" stroke-miterlimit="10" stroke-linejoin="round"/>
<path d="M106.626 79.591C106.119 79.4184 105.585 79.3128 105.038 79.2805L104.395 77.5293L101.94 78.046L102.049 79.873C101.536 80.1202 101.068 80.4343 100.653 80.802L99.0084 80.0456L97.6335 82.1421L98.9612 83.3147C98.7699 83.8549 98.6544 84.4263 98.6246 85.0125L96.9727 85.621L97.4844 88.069L99.2269 87.9611C99.4877 88.4952 99.8219 88.9808 100.217 89.4055L99.4816 90.9878L101.579 92.3528L102.749 91.0351C103.292 91.2152 103.866 91.3194 104.453 91.3393L105.064 93.0024L107.52 92.4857L107.412 90.6786C107.917 90.4203 108.378 90.0961 108.784 89.7185L110.451 90.4848L111.826 88.3883L110.425 87.1512C110.59 86.6432 110.69 86.1092 110.714 85.5627L112.488 84.9106L111.976 82.4626L110.076 82.5806C109.834 82.0999 109.531 81.6589 109.178 81.269L109.979 79.5438L107.881 78.1788L106.626 79.591ZM107.624 86.026C107.206 87.6704 105.53 88.6689 103.882 88.2553C102.234 87.8417 101.238 86.1737 101.658 84.5281C102.077 82.8824 103.752 81.885 105.4 82.2986C107.048 82.7134 108.044 84.3816 107.624 86.026Z" fill="#7EB9C7" stroke="#3D4451" stroke-miterlimit="10" stroke-linejoin="round"/>
<path d="M102.465 102.242C102.537 101.302 102.485 100.347 102.299 99.4005L105.017 97.5263L103.053 93.573L99.9698 94.569C99.3215 93.8039 98.5775 93.1456 97.7628 92.6029L98.3365 89.4668L94.1397 88.0547L92.7139 90.838C91.7041 90.751 90.6745 90.8082 89.6573 91.0169L87.8887 88.4719L83.9191 90.4281L84.8705 93.3481C84.0682 94.0287 83.3851 94.815 82.8286 95.6745L79.7944 95.1243L78.376 99.3024L81.1482 100.711C81.0774 101.716 81.1507 102.739 81.3767 103.749L78.7946 105.529L80.7594 109.482L83.8086 108.497C84.4731 109.245 85.232 109.886 86.0579 110.41L85.4766 113.588L89.6734 115L91.1776 112.064C92.1215 112.121 93.0791 112.053 94.0268 111.852L95.9245 114.583L99.894 112.627L98.8569 109.442C99.5748 108.816 100.196 108.105 100.711 107.331L104.02 107.931L105.438 103.753L102.465 102.242ZM91.8755 106.798C88.8723 106.814 86.4243 104.402 86.4094 101.413C86.3933 98.4218 88.8152 95.9849 91.8184 95.97C94.8216 95.9539 97.2697 98.366 97.2846 101.356C97.2995 104.345 94.8787 106.783 91.8755 106.798Z" fill="#FDC345" stroke="#3D4451" stroke-miterlimit="10" stroke-linecap="round" stroke-linejoin="round"/>
<path d="M169.631 148.677L173.323 144.985C165.25 143.606 164.708 149.661 165.446 152.861C162.903 155.323 157.176 160.886 154.616 163.446C146.542 162.067 146.165 168.123 146.985 171.323L150.923 167.63L154.616 171.323C153.795 172.225 151.81 174.277 150.431 175.261C154.616 176 156.093 174.523 157.57 173.046C158.751 171.864 158.554 168.615 158.308 167.138L169.139 156.554C170.534 156.8 173.865 156.849 176.031 155.077C178.197 153.304 177.59 150.072 177.016 148.677L173.077 152.369L169.631 148.677Z" fill="#7EB9C7"/>
<path d="M163.23 158.03H164.707H166.184L176.769 169.107C177.343 170.338 177.999 173.144 176.03 174.522C174.061 175.901 171.763 175.097 170.861 174.522L160.276 163.446V160.984L163.23 158.03Z" fill="#FDC345"/>
<path d="M146.739 145.97L147.97 144.739L150.185 145.477L150.924 147.446L162.247 158.769L160.77 160.246L149.201 148.677L147.232 147.939L146.739 145.97Z" fill="#C7DDEB"/>
<path d="M173.52 176C172.324 176 171.199 175.534 170.354 174.688L159.716 164.05C159.636 163.97 159.585 163.865 159.573 163.752L159.283 161.13C159.267 160.979 159.319 160.829 159.427 160.721L162.72 157.427C162.828 157.32 162.978 157.267 163.129 157.284L165.751 157.573C165.864 157.585 165.969 157.636 166.049 157.716L176.687 168.354C177.533 169.2 177.999 170.325 177.999 171.521C177.999 172.717 177.533 173.842 176.687 174.688C175.841 175.534 174.717 176 173.52 176L173.52 176ZM160.548 163.468L171.061 173.981C172.417 175.338 174.624 175.338 175.981 173.981C177.337 172.625 177.337 170.418 175.981 169.062L165.467 158.548L163.258 158.304L160.304 161.259L160.548 163.468Z" fill="#3D4451"/>
<path d="M172.823 173.143C172.695 173.143 172.567 173.094 172.469 172.996L162.766 163.293C162.571 163.098 162.571 162.781 162.766 162.586C162.962 162.391 163.278 162.391 163.474 162.586L173.176 172.288C173.371 172.483 173.371 172.8 173.176 172.995C173.079 173.093 172.951 173.142 172.823 173.142L172.823 173.143Z" fill="#3D4451"/>
<path d="M174.643 171.323C174.515 171.323 174.387 171.274 174.289 171.176L164.587 161.474C164.392 161.278 164.392 160.962 164.587 160.766C164.782 160.571 165.099 160.571 165.294 160.766L174.996 170.469C175.192 170.664 175.192 170.981 174.996 171.176C174.899 171.274 174.771 171.323 174.643 171.323H174.643Z" fill="#3D4451"/>
<path d="M160.714 160.642C160.586 160.642 160.458 160.593 160.36 160.495L149.008 149.142L147.271 148.403C147.168 148.359 147.083 148.282 147.029 148.185L146.064 146.442C145.955 146.247 145.99 146.004 146.147 145.846L147.846 144.147C148.004 143.989 148.247 143.955 148.442 144.063L150.185 145.029C150.283 145.083 150.36 145.168 150.403 145.27L151.143 147.008L162.496 158.361C162.691 158.556 162.691 158.872 162.496 159.068L161.068 160.495C160.97 160.593 160.842 160.642 160.714 160.642L160.714 160.642ZM147.82 147.55L149.488 148.26C149.547 148.285 149.601 148.321 149.646 148.367L160.714 159.435L161.434 158.714L150.367 147.646C150.322 147.601 150.285 147.547 150.26 147.488L149.55 145.82L148.287 145.121L147.121 146.287L147.82 147.55Z" fill="#3D4451"/>
<path d="M166.668 159.542C166.54 159.542 166.412 159.494 166.314 159.396C166.119 159.201 166.119 158.884 166.314 158.689L168.905 156.097C169.042 155.96 169.246 155.914 169.428 155.98C171.48 156.716 173.801 156.197 175.342 154.656C176.688 153.31 177.255 151.368 176.885 149.531L173.551 152.865C173.356 153.06 173.039 153.06 172.844 152.865L169.134 149.155C169.04 149.061 168.987 148.934 168.987 148.801C168.987 148.669 169.04 148.541 169.134 148.448L172.468 145.114C170.631 144.744 168.689 145.311 167.343 146.657C165.802 148.198 165.283 150.519 166.019 152.571C166.085 152.753 166.039 152.956 165.902 153.093L161.211 157.785C161.016 157.98 160.699 157.98 160.504 157.785C160.309 157.589 160.309 157.273 160.504 157.077L164.977 152.604C164.646 151.52 164.596 150.369 164.835 149.255C165.104 148.002 165.727 146.859 166.636 145.95C167.545 145.04 168.688 144.418 169.941 144.149C171.16 143.887 172.424 143.971 173.595 144.392C173.756 144.449 173.876 144.586 173.913 144.753C173.951 144.92 173.9 145.094 173.779 145.216L170.194 148.801L173.198 151.804L176.783 148.219C176.904 148.098 177.079 148.047 177.246 148.085C177.413 148.122 177.549 148.243 177.607 148.404C178.027 149.575 178.111 150.838 177.85 152.058C177.581 153.31 176.958 154.453 176.049 155.363C175.139 156.272 173.997 156.895 172.744 157.164C171.63 157.403 170.479 157.353 169.395 157.022L167.021 159.396C166.924 159.494 166.796 159.542 166.668 159.542L166.668 159.542Z" fill="#3D4451"/>
<path d="M152.655 176C151.891 176 151.129 175.868 150.404 175.608C150.243 175.55 150.122 175.414 150.085 175.247C150.048 175.08 150.098 174.905 150.219 174.784L153.804 171.199L150.801 168.195L147.216 171.78C147.095 171.901 146.92 171.952 146.753 171.914C146.586 171.877 146.449 171.756 146.392 171.595C145.971 170.424 145.887 169.161 146.149 167.941C146.418 166.689 147.041 165.546 147.95 164.637C148.86 163.727 150.002 163.104 151.255 162.836C152.369 162.596 153.52 162.646 154.604 162.977L159.077 158.504C159.272 158.309 159.589 158.309 159.784 158.504C159.98 158.699 159.98 159.016 159.784 159.211L155.093 163.903C154.956 164.039 154.753 164.085 154.57 164.02C152.519 163.283 150.198 163.803 148.657 165.344C147.311 166.69 146.744 168.631 147.113 170.468L150.447 167.134C150.541 167.041 150.668 166.988 150.801 166.988C150.933 166.988 151.061 167.041 151.154 167.134L154.865 170.845C155.06 171.04 155.06 171.357 154.865 171.552L151.531 174.886C153.368 175.255 155.31 174.689 156.656 173.343C158.197 171.802 158.716 169.481 157.98 167.429C157.914 167.247 157.96 167.044 158.097 166.906L160.689 164.315C160.884 164.12 161.2 164.12 161.396 164.315C161.591 164.51 161.591 164.827 161.396 165.022L159.022 167.395C159.353 168.479 159.403 169.63 159.164 170.745C158.895 171.997 158.272 173.14 157.363 174.05C156.453 174.959 155.31 175.582 154.058 175.851C153.594 175.95 153.124 176 152.655 176L152.655 176Z" fill="#3D4451"/>
<path d="M137.56 79V56.824H152.536V61.016H142.552V65.368H151.416V69.464H142.552V74.808H153.272V79H137.56ZM171.814 79C171.58 78.232 171.313 77.4427 171.014 76.632C170.737 75.8213 170.46 75.0107 170.182 74.2H161.542C161.265 75.0107 160.977 75.8213 160.678 76.632C160.401 77.4427 160.145 78.232 159.91 79H154.726C155.558 76.6107 156.348 74.4027 157.094 72.376C157.841 70.3493 158.566 68.44 159.27 66.648C159.996 64.856 160.7 63.16 161.382 61.56C162.086 59.9387 162.812 58.36 163.558 56.824H168.326C169.052 58.36 169.766 59.9387 170.47 61.56C171.174 63.16 171.878 64.856 172.582 66.648C173.308 68.44 174.044 70.3493 174.79 72.376C175.537 74.4027 176.326 76.6107 177.158 79H171.814ZM165.83 61.848C165.724 62.168 165.564 62.6053 165.35 63.16C165.137 63.7147 164.892 64.3547 164.614 65.08C164.337 65.8053 164.028 66.6053 163.686 67.48C163.366 68.3547 163.036 69.272 162.694 70.232H168.998C168.657 69.272 168.326 68.3547 168.006 67.48C167.686 66.6053 167.377 65.8053 167.078 65.08C166.801 64.3547 166.556 63.7147 166.342 63.16C166.129 62.6053 165.958 62.168 165.83 61.848ZM185.917 56.824C186.301 57.528 186.738 58.4027 187.229 59.448C187.741 60.472 188.263 61.592 188.797 62.808C189.351 64.0027 189.895 65.2293 190.429 66.488C190.962 67.7467 191.463 68.9307 191.933 70.04C192.402 68.9307 192.903 67.7467 193.437 66.488C193.97 65.2293 194.503 64.0027 195.037 62.808C195.591 61.592 196.114 60.472 196.605 59.448C197.117 58.4027 197.565 57.528 197.949 56.824H202.493C202.706 58.296 202.898 59.9493 203.069 61.784C203.261 63.5973 203.421 65.496 203.549 67.48C203.698 69.4427 203.826 71.416 203.933 73.4C204.061 75.384 204.167 77.2507 204.253 79H199.389C199.325 76.8453 199.239 74.4987 199.133 71.96C199.026 69.4213 198.866 66.8613 198.653 64.28C198.269 65.176 197.842 66.168 197.373 67.256C196.903 68.344 196.434 69.432 195.965 70.52C195.517 71.608 195.079 72.6533 194.653 73.656C194.226 74.6373 193.863 75.48 193.565 76.184H190.077C189.778 75.48 189.415 74.6373 188.989 73.656C188.562 72.6533 188.114 71.608 187.645 70.52C187.197 69.432 186.738 68.344 186.269 67.256C185.799 66.168 185.373 65.176 184.989 64.28C184.775 66.8613 184.615 69.4213 184.509 71.96C184.402 74.4987 184.317 76.8453 184.253 79H179.389C179.474 77.2507 179.57 75.384 179.677 73.4C179.805 71.416 179.933 69.4427 180.061 67.48C180.21 65.496 180.37 63.5973 180.541 61.784C180.733 59.9493 180.935 58.296 181.149 56.824H185.917Z" fill="#818285"/>
</svg>
