<svg width="129" height="97" viewBox="0 0 129 97" fill="none" xmlns="http://www.w3.org/2000/svg">
<path d="M45.2941 7.66107C44.6967 7.34098 43.9726 7.37598 43.4086 7.75202L29.806 16.8123C28.614 17.6098 27.9021 18.9514 27.9082 20.3847V92.5349C27.9091 93.6709 28.3612 94.7606 29.165 95.5633C29.9678 96.367 31.0574 96.8192 32.1934 96.82H41.9882C43.1242 96.8192 44.2139 96.367 45.0166 95.5633C45.8203 94.7605 46.2725 93.6708 46.2733 92.5349V9.27799C46.2725 8.59847 45.8955 7.97581 45.2939 7.65922L45.2941 7.66107Z" fill="#C7DDEB"/>
<path d="M3.42383 71.7218V76.6192C3.4247 77.7552 3.87683 78.8449 4.68054 79.6476C5.48335 80.4513 6.57303 80.9034 7.70898 80.9043H11.9943V67.4365H7.70898C6.57296 67.4374 5.48329 67.8895 4.68054 68.6932C3.87685 69.496 3.4247 70.5857 3.42383 71.7217V71.7218Z" fill="#C7DDEB"/>
<path d="M15.667 65.6005V82.7413C15.6679 83.8773 16.12 84.967 16.9237 85.7697C17.7265 86.5734 18.8162 87.0255 19.9521 87.0264H24.2374V61.3159H19.9521C18.8161 61.3168 17.7265 61.7689 16.9237 62.5726C16.12 63.3754 15.6679 64.4651 15.667 65.6011V65.6005Z" fill="#C7DDEB"/>
<path d="M100.025 7.44336H90.2305C89.0945 7.44423 88.0048 7.89636 87.202 8.70007C86.3983 9.50289 85.9462 10.5926 85.9453 11.7285V94.9854C85.9453 95.6623 86.3179 96.285 86.9152 96.6042C87.5125 96.9243 88.2366 96.8893 88.8007 96.5132L102.403 87.453C103.599 86.658 104.315 85.3165 104.311 83.8805V11.7304C104.31 10.5943 103.858 9.50467 103.054 8.70192C102.251 7.89823 101.161 7.44608 100.025 7.44521L100.025 7.44336Z" fill="#C7DDEB"/>
<path d="M124.513 23.3589H120.228V36.8267H124.513C125.649 36.8258 126.739 36.3737 127.541 35.57C128.345 34.7672 128.797 33.6775 128.798 32.5415V27.6441C128.797 26.5081 128.345 25.4184 127.541 24.6157C126.738 23.812 125.649 23.3598 124.513 23.359V23.3589Z" fill="#C7DDEB"/>
<path d="M112.268 17.2379H107.982V42.9484H112.268C113.404 42.9475 114.493 42.4954 115.296 41.6917C116.1 40.8889 116.552 39.7992 116.553 38.6632V21.5225C116.552 20.3864 116.1 19.2968 115.296 18.494C114.493 17.6903 113.404 17.2382 112.268 17.2373V17.2379Z" fill="#C7DDEB"/>
<path d="M75.2941 11.7285C75.2932 10.5925 74.8411 9.50282 74.0374 8.70007C73.2346 7.89638 72.1449 7.44423 71.009 7.44336H61.2142C60.0781 7.44423 58.9885 7.89636 58.1857 8.70007C57.382 9.50289 56.9299 10.5926 56.929 11.7285V17.238H49.9502V30.7058H56.929V92.535C56.9299 93.6711 57.382 94.7607 58.1857 95.5635C58.9885 96.3672 60.0782 96.8193 61.2142 96.8202H71.009C72.145 96.8193 73.2347 96.3672 74.0374 95.5635C74.8411 94.7607 75.2932 93.671 75.2941 92.535V87.0256H82.2729V73.5578H75.2941V11.7285Z" fill="#C7DDEB"/>
<path d="M42.6681 1.21771C42.0708 0.897623 41.3467 0.932616 40.7826 1.30866L27.18 10.3689C25.988 11.1665 25.2762 12.508 25.2823 13.9414V86.0915C25.2831 87.2275 25.7353 88.3172 26.539 89.12C27.3418 89.9236 28.4315 90.3758 29.5674 90.3767H39.3622C40.4982 90.3758 41.5879 89.9237 42.3907 89.12C43.1943 88.3171 43.6465 87.2275 43.6474 86.0915V2.83463C43.6465 2.15511 43.2696 1.53245 42.6679 1.21586L42.6681 1.21771Z" stroke="#3D4451"/>
<path d="M0.798828 65.2784V70.1758C0.799703 71.3118 1.25183 72.4015 2.05554 73.2042C2.85835 74.0079 3.94803 74.4601 5.08398 74.461H9.36929V60.9932H5.08398C3.94796 60.994 2.85829 61.4462 2.05554 62.2499C1.25185 63.0527 0.799701 64.1424 0.798828 65.2783V65.2784Z" stroke="#3D4451"/>
<path d="M13.041 59.1576V76.2984C13.0419 77.4344 13.494 78.5241 14.2977 79.3268C15.1005 80.1305 16.1902 80.5827 17.3262 80.5835H21.6115V54.873H17.3262C16.1902 54.8739 15.1005 55.326 14.2977 56.1298C13.494 56.9326 13.0419 58.0222 13.041 59.1582V59.1576Z" stroke="#3D4451"/>
<path d="M97.3993 1.00049H87.6045C86.4685 1.00136 85.3788 1.45349 84.5761 2.2572C83.7724 3.06002 83.3202 4.14969 83.3193 5.28564V88.5425C83.3193 89.2194 83.6919 89.8421 84.2892 90.1613C84.8865 90.4814 85.6106 90.4464 86.1747 90.0704L99.7773 81.0101C100.973 80.2152 101.689 78.8736 101.685 77.4377V5.28749C101.684 4.15147 101.232 3.0618 100.428 2.25905C99.6251 1.45536 98.5354 1.00321 97.3995 1.00233L97.3993 1.00049Z" stroke="#3D4451"/>
<path d="M121.888 16.9155H117.603V30.3833H121.888C123.024 30.3824 124.114 29.9303 124.916 29.1266C125.72 28.3238 126.172 27.2341 126.173 26.0982V21.2008C126.172 20.0648 125.72 18.9751 124.916 18.1723C124.113 17.3686 123.024 16.9165 121.888 16.9156V16.9155Z" stroke="#3D4451"/>
<path d="M109.642 10.7945H105.356V36.505H109.642C110.778 36.5042 111.867 36.052 112.67 35.2483C113.474 34.4455 113.926 33.3558 113.927 32.2199V15.0791C113.926 13.9431 113.474 12.8534 112.67 12.0507C111.867 11.247 110.778 10.7948 109.642 10.7939V10.7945Z" stroke="#3D4451"/>
<path d="M72.6681 5.28515C72.6673 4.14913 72.2151 3.05946 71.4114 2.25671C70.6086 1.45302 69.5189 1.00087 68.383 1H58.5882C57.4522 1.00087 56.3625 1.453 55.5597 2.25671C54.7561 3.05953 54.3039 4.1492 54.303 5.28515V10.7946H47.3242V24.2624H54.303V86.0917C54.3039 87.2277 54.756 88.3174 55.5597 89.1201C56.3626 89.9238 57.4522 90.376 58.5882 90.3768H68.383C69.519 90.376 70.6087 89.9238 71.4114 89.1201C72.2151 88.3173 72.6673 87.2276 72.6681 86.0917V80.5822H79.647V67.1144H72.6681V5.28515Z" stroke="#3D4451"/>
</svg>
