<svg width="316" height="217" viewBox="0 0 316 217" fill="none" xmlns="http://www.w3.org/2000/svg">
<path fill-rule="evenodd" clip-rule="evenodd" d="M315.028 216.359C301.496 129.011 242.664 52.2809 156.998 0.28907C143.715 10.7873 14.6805 113.425 0.722649 124.528C50.7839 141.98 89.6419 171.218 108.489 206.523L315.028 216.359Z" fill="#E6EAEA"/>
<path d="M192.354 105H146.148C144.88 105 143.853 103.972 143.853 102.705V66.4981C143.853 65.2305 144.88 64.2031 146.148 64.2031H194.982C196.249 64.2031 197.277 65.2305 197.277 66.4981V100.077C197.277 102.796 195.073 105 192.354 105Z" fill="#C7DDEB"/>
<path d="M192.277 64.2031H183.998V100.78H192.277V64.2031Z" fill="#7EB9C7"/>
<path d="M192.338 59.3215H139.027V100.858H192.338V59.3215Z" stroke="#3D4451" stroke-miterlimit="10"/>
<path d="M195.134 100.997H189.474C188.262 100.997 187.271 100.006 187.271 98.7945V57.0073C187.271 55.7957 188.262 54.8052 189.474 54.8052H195.134C196.345 54.8052 197.336 55.7957 197.336 57.0073V98.7945C197.336 100.006 196.345 100.997 195.134 100.997Z" fill="#C7DDEB" stroke="#3D4451" stroke-miterlimit="10"/>
<path d="M192.27 100.996C195.068 100.996 197.337 98.8662 197.337 96.2385C197.337 93.6107 195.068 91.4805 192.27 91.4805C189.471 91.4805 187.202 93.6107 187.202 96.2385C187.202 98.8662 189.471 100.996 192.27 100.996Z" fill="#C7DDEB" stroke="#3D4451" stroke-miterlimit="10"/>
<path d="M192.216 92.6113C192.198 92.6113 192.182 92.6099 192.164 92.6099C190.07 92.6099 188.373 94.2032 188.373 96.1695C188.373 98.1358 190.071 99.7292 192.164 99.7292C192.182 99.7292 192.198 99.7277 192.216 99.7277V92.6113Z" fill="#7EB9C7"/>
<path d="M166.104 88.3897V78.8516" stroke="#3D4451" stroke-miterlimit="10"/>
<path d="M166.36 81.9146H178.978V88.9705" stroke="#3D4451" stroke-miterlimit="10"/>
<path d="M179 93.1211C180.294 93.1211 181.343 92.0712 181.343 90.776C181.343 89.4808 180.294 88.4309 179 88.4309C177.706 88.4309 176.656 89.4808 176.656 90.776C176.656 92.0712 177.706 93.1211 179 93.1211Z" fill="#FDC345" stroke="#3D4451" stroke-miterlimit="10"/>
<path d="M157.421 86.5593H153.825L152.026 89.6753L153.825 92.7913H157.421L159.219 89.6753L157.421 86.5593Z" fill="#7EB9C7" stroke="#3D4451" stroke-miterlimit="10"/>
<path d="M166.174 77.3145V78.8444H164.644" stroke="#1E3033" stroke-miterlimit="10"/>
<path d="M163.126 78.8445H150.233" stroke="#1E3033" stroke-miterlimit="10"/>
<path d="M149.474 78.8444H147.944V77.3145" stroke="#1E3033" stroke-miterlimit="10"/>
<path d="M147.944 76.0322V68.9807" stroke="#1E3033" stroke-miterlimit="10"/>
<path d="M147.944 68.341V66.811H149.474" stroke="#1E3033" stroke-miterlimit="10"/>
<path d="M150.991 66.8108H163.884" stroke="#1E3033" stroke-miterlimit="10"/>
<path d="M164.644 66.8108H166.174V68.3408" stroke="#1E3033" stroke-miterlimit="10"/>
<path d="M166.173 69.6218V76.6733" stroke="#1E3033" stroke-miterlimit="10"/>
<path d="M170.105 92.6186H164.508C163.926 92.6186 163.448 92.1425 163.448 91.5588V89.4392C163.448 88.857 163.924 88.3794 164.508 88.3794H170.105C170.687 88.3794 171.165 88.8555 171.165 89.4392V91.5588C171.163 92.141 170.687 92.6186 170.105 92.6186Z" fill="#50CE42" stroke="#3D4451" stroke-miterlimit="10"/>
<path d="M155.848 86.559V79.0417" stroke="#3D4451" stroke-miterlimit="10"/>
<path d="M175.513 67L177.202 70.2939L181 70.8333L178.242 73.3845L178.878 77L175.484 75.2836L172.079 76.9781L172.741 73.367L170 70.7982L173.803 70.2836L175.513 67Z" fill="#F04F4C" stroke="#3D4451" stroke-miterlimit="10"/>
<path d="M163 70H152V76H163V70Z" fill="#7EB9C7"/>
<path d="M173.806 56.1746L183.218 59.0768L173.806 61.9791" fill="#F2F2F2"/>
<path d="M173.806 56.1746L183.218 59.0768L173.806 61.9791" stroke="#3D4451" stroke-miterlimit="10" stroke-linejoin="round"/>
<path d="M173.742 58.0669H135.35V62.2412H173.742V58.0669Z" fill="#7EB9C7"/>
<path d="M174.043 61.9448H135.896C135.64 61.5675 134.984 60.493 135 58.9748C135.015 57.52 135.639 56.4926 135.896 56.1108C148.612 56.1108 161.327 56.1108 174.043 56.1108C173.776 56.5678 173.297 57.5288 173.253 58.8347C173.203 60.3618 173.776 61.4864 174.043 61.9448Z" stroke="#3D4451" stroke-miterlimit="10" stroke-linejoin="round"/>
<path d="M178.183 57.7871C178.071 57.9537 177.81 58.387 177.791 59.0031C177.77 59.7003 178.074 60.1941 178.183 60.3548C179.402 59.9273 180.62 59.4984 181.839 59.0709L178.183 57.7871Z" fill="#3D4451"/>
<path d="M158 130.207V148.207H175V130.207H158Z" fill="#C7DDEB"/>
<path d="M159.859 131.521H156V150.207H173.148V147.209" stroke="#3D4451" stroke-miterlimit="10"/>
<path d="M160.9 126.082V146.023H178.293V126.082H160.9Z" stroke="#3D4451" stroke-miterlimit="10"/>
<path d="M176 133.207H164V134.207H176V133.207Z" fill="#3D4451"/>
<path d="M176 135.207H164V136.207H176V135.207Z" fill="#3D4451"/>
<path d="M176 138.207H164V139.207H176V138.207Z" fill="#3D4451"/>
<path d="M178 126.207H174V131.207H178V126.207Z" fill="#3C4FFA" stroke="#3D4451" stroke-miterlimit="10"/>
<path d="M205 130.207V148.207H222V130.207H205Z" fill="#C7DDEB"/>
<path d="M206.859 131.521H203V150.207H220.148V147.209" stroke="#3D4451" stroke-miterlimit="10"/>
<path d="M207.9 126.082V146.023H225.293V126.082H207.9Z" stroke="#3D4451" stroke-miterlimit="10"/>
<path d="M223 133.207H211V134.207H223V133.207Z" fill="#3D4451"/>
<path d="M223 135.207H211V136.207H223V135.207Z" fill="#3D4451"/>
<path d="M223 138.207H211V139.207H223V138.207Z" fill="#3D4451"/>
<path d="M225 126.207H221V131.207H225V126.207Z" fill="#FDC345" stroke="#3D4451" stroke-miterlimit="10"/>
<path d="M110 130.207V148.207H127V130.207H110Z" fill="#C7DDEB"/>
<path d="M111.859 131.521H108V150.207H125.148V147.209" stroke="#3D4451" stroke-miterlimit="10"/>
<path d="M112.9 126.082V146.023H130.293V126.082H112.9Z" stroke="#3D4451" stroke-miterlimit="10"/>
<path d="M128 133.207H116V134.207H128V133.207Z" fill="#3D4451"/>
<path d="M128 135.207H116V136.207H128V135.207Z" fill="#3D4451"/>
<path d="M128 138.207H116V139.207H128V138.207Z" fill="#3D4451"/>
<path d="M130 126.207H126V131.207H130V126.207Z" fill="#F04F4C" stroke="#3D4451" stroke-miterlimit="10"/>
<path d="M167.904 101.5C167.904 101.224 167.68 101 167.404 101C167.128 101 166.904 101.224 166.904 101.5L167.904 101.5ZM166.904 101.5L166.904 125.5L167.904 125.5L167.904 101.5L166.904 101.5Z" fill="#3D4450"/>
<path d="M214 125.5C214 125.776 214.224 126 214.5 126C214.776 126 215 125.776 215 125.5H214ZM123.5 113.5L123.5 113H123L123 113.5L123.5 113.5ZM214.5 113.5H215V113L214.5 113V113.5ZM124 125.5L124 113.5L123 113.5L123 125.5H124ZM123.5 114L214.5 114V113L123.5 113L123.5 114ZM214 113.5V125.5H215V113.5H214Z" fill="#3D4450"/>
<path d="M139.672 192.448C136.067 192.448 133.315 191.445 131.416 189.44C129.539 187.435 128.6 184.587 128.6 180.896C128.6 179.061 128.888 177.429 129.464 176C130.04 174.549 130.829 173.333 131.832 172.352C132.835 171.349 134.029 170.592 135.416 170.08C136.803 169.568 138.307 169.312 139.928 169.312C140.867 169.312 141.72 169.387 142.488 169.536C143.256 169.664 143.928 169.824 144.504 170.016C145.08 170.187 145.56 170.368 145.944 170.56C146.328 170.752 146.605 170.901 146.776 171.008L145.336 175.04C144.653 174.677 143.853 174.368 142.936 174.112C142.04 173.856 141.016 173.728 139.864 173.728C139.096 173.728 138.339 173.856 137.592 174.112C136.867 174.368 136.216 174.784 135.64 175.36C135.085 175.915 134.637 176.64 134.296 177.536C133.955 178.432 133.784 179.52 133.784 180.8C133.784 181.824 133.891 182.784 134.104 183.68C134.339 184.555 134.701 185.312 135.192 185.952C135.704 186.592 136.365 187.104 137.176 187.488C137.987 187.851 138.968 188.032 140.12 188.032C140.845 188.032 141.496 187.989 142.072 187.904C142.648 187.819 143.16 187.723 143.608 187.616C144.056 187.488 144.451 187.349 144.792 187.2C145.133 187.051 145.443 186.912 145.72 186.784L147.096 190.784C146.392 191.211 145.4 191.595 144.12 191.936C142.84 192.277 141.357 192.448 139.672 192.448ZM166.064 192C165.83 191.232 165.563 190.443 165.264 189.632C164.987 188.821 164.71 188.011 164.432 187.2H155.792C155.515 188.011 155.227 188.821 154.928 189.632C154.651 190.443 154.395 191.232 154.16 192H148.976C149.808 189.611 150.598 187.403 151.344 185.376C152.091 183.349 152.816 181.44 153.52 179.648C154.246 177.856 154.95 176.16 155.632 174.56C156.336 172.939 157.062 171.36 157.808 169.824H162.576C163.302 171.36 164.016 172.939 164.72 174.56C165.424 176.16 166.128 177.856 166.832 179.648C167.558 181.44 168.294 183.349 169.04 185.376C169.787 187.403 170.576 189.611 171.408 192H166.064ZM160.08 174.848C159.974 175.168 159.814 175.605 159.6 176.16C159.387 176.715 159.142 177.355 158.864 178.08C158.587 178.805 158.278 179.605 157.936 180.48C157.616 181.355 157.286 182.272 156.944 183.232H163.248C162.907 182.272 162.576 181.355 162.256 180.48C161.936 179.605 161.627 178.805 161.328 178.08C161.051 177.355 160.806 176.715 160.592 176.16C160.379 175.605 160.208 175.168 160.08 174.848ZM180.935 169.568C184.241 169.568 186.78 170.155 188.551 171.328C190.321 172.48 191.207 174.379 191.207 177.024C191.207 179.691 190.311 181.621 188.519 182.816C186.727 183.989 184.167 184.576 180.839 184.576H179.271V192H174.279V170.144C175.367 169.931 176.519 169.781 177.735 169.696C178.951 169.611 180.017 169.568 180.935 169.568ZM181.255 173.824C180.892 173.824 180.529 173.835 180.167 173.856C179.825 173.877 179.527 173.899 179.271 173.92V180.32H180.839C182.567 180.32 183.868 180.085 184.743 179.616C185.617 179.147 186.055 178.272 186.055 176.992C186.055 176.373 185.937 175.861 185.703 175.456C185.489 175.051 185.169 174.731 184.743 174.496C184.337 174.24 183.836 174.069 183.239 173.984C182.641 173.877 181.98 173.824 181.255 173.824ZM201.529 169.568C204.835 169.568 207.374 170.155 209.145 171.328C210.915 172.48 211.801 174.379 211.801 177.024C211.801 179.691 210.905 181.621 209.113 182.816C207.321 183.989 204.761 184.576 201.433 184.576H199.865V192H194.873V170.144C195.961 169.931 197.113 169.781 198.329 169.696C199.545 169.611 200.611 169.568 201.529 169.568ZM201.849 173.824C201.486 173.824 201.123 173.835 200.76 173.856C200.419 173.877 200.121 173.899 199.865 173.92V180.32H201.433C203.161 180.32 204.462 180.085 205.337 179.616C206.211 179.147 206.649 178.272 206.649 176.992C206.649 176.373 206.531 175.861 206.297 175.456C206.083 175.051 205.763 174.731 205.337 174.496C204.931 174.24 204.43 174.069 203.833 173.984C203.235 173.877 202.574 173.824 201.849 173.824Z" fill="#818285"/>
</svg>
