<svg width="128" height="123" viewBox="0 0 128 123" fill="none" xmlns="http://www.w3.org/2000/svg">
<path d="M92.2147 22.7097H112.86L119.742 70.8818H85.333L92.2147 22.7097Z" fill="#C7DDEB"/>
<path fill-rule="evenodd" clip-rule="evenodd" d="M101.849 59.1829H5.50488V122.169H101.849V59.1829ZM88.0857 80.516H19.2684V90.1505H88.0857V80.516Z" fill="#C7DDEB"/>
<path d="M100.474 66.7524H128.001V118.365H100.474V66.7524Z" fill="#C7DDEB"/>
<ellipse cx="101.348" cy="9.13229" rx="6.37985" ry="6.37985" fill="#C7DDEB"/>
<path d="M108.313 19.0808L116.168 63.5H95.9307V56.5V56H95.4307H83.0108L88.5178 19.0808H108.313Z" stroke="#3D4451"/>
<path d="M95.9297 63.5H120.93V110.5H95.9297V63.5Z" stroke="#3D4451"/>
<mask id="path-7-inside-1_1717_21597" fill="white">
<path fill-rule="evenodd" clip-rule="evenodd" d="M83.2689 55.7419H0V115.287H96.3442V55.7419H83.2689ZM82.5811 77.0753H13.7638V86.7098H82.5811V77.0753Z"/>
</mask>
<path d="M0 55.7419V54.7419H-1V55.7419H0ZM0 115.287H-1V116.287H0V115.287ZM96.3442 115.287V116.287H97.3442V115.287H96.3442ZM96.3442 55.7419H97.3442V54.7419H96.3442V55.7419ZM13.7638 77.0753V76.0753H12.7638V77.0753H13.7638ZM82.5811 77.0753H83.5811V76.0753H82.5811V77.0753ZM13.7638 86.7098H12.7638V87.7098H13.7638V86.7098ZM82.5811 86.7098V87.7098H83.5811V86.7098H82.5811ZM0 56.7419H83.2689V54.7419H0V56.7419ZM1 115.287V55.7419H-1V115.287H1ZM96.3442 114.287H0V116.287H96.3442V114.287ZM95.3442 55.7419V115.287H97.3442V55.7419H95.3442ZM83.2689 56.7419H96.3442V54.7419H83.2689V56.7419ZM13.7638 78.0753H82.5811V76.0753H13.7638V78.0753ZM14.7638 86.7098V77.0753H12.7638V86.7098H14.7638ZM82.5811 85.7098H13.7638V87.7098H82.5811V85.7098ZM81.5811 77.0753V86.7098H83.5811V77.0753H81.5811Z" fill="#3D4451" mask="url(#path-7-inside-1_1717_21597)"/>
<path d="M103.786 6.37985C103.786 9.6272 101.154 12.2597 97.9062 12.2597C94.6589 12.2597 92.0264 9.6272 92.0264 6.37985C92.0264 3.1325 94.6589 0.5 97.9062 0.5C101.154 0.5 103.786 3.1325 103.786 6.37985Z" stroke="#3D4451"/>
</svg>
