<svg width="41" height="15" viewBox="0 0 41 15" fill="none" xmlns="http://www.w3.org/2000/svg">
<path d="M3.58712 6.16862C4.14551 5.40841 5.03354 4.92403 6.02922 4.92403L6.25795 4.93075H6.25123C8.11475 4.93075 9.5679 6.2359 9.5679 8.40216V14.5377H6.5876V9.45166C6.5876 8.34834 6.01576 7.73614 5.10755 7.73614C4.28006 7.73614 3.58712 8.30798 3.58712 9.51221V14.5377H0.600098V0.800049H3.58712V6.16862ZM20.9711 14.5444H18.1051V13.5285C17.5131 14.3022 16.5914 14.7933 15.5554 14.7933H15.4074H15.4141C12.9182 14.7933 11.0681 12.6203 11.0681 9.85531C11.0681 7.09029 12.9182 4.93748 15.4276 4.93748H15.5554C16.5914 4.93748 17.5198 5.42859 18.1051 6.19553L18.1119 6.20226V5.19313H20.9778V14.5444H20.9711ZM14.0955 9.86204C14.0955 10.9721 14.9903 11.8668 16.1003 11.8668C17.2104 11.8668 18.1051 10.9721 18.1051 9.86204C18.1051 8.752 17.2104 7.85723 16.1003 7.85723C14.9903 7.85723 14.0955 8.752 14.0955 9.86204ZM32.9192 9.85531C32.9192 12.6136 31.0624 14.7933 28.5665 14.7933L28.4185 14.8C27.3891 14.8 26.4742 14.3157 25.8956 13.5555L25.8889 13.5487V14.5511H23.023V0.800049H26.0033V6.08789C26.5886 5.3815 27.4699 4.93748 28.4454 4.93748H28.5866H28.5799C31.0624 4.93748 32.9192 7.09702 32.9192 9.85531ZM25.862 9.85531C25.862 10.9654 26.7568 11.8601 27.8668 11.8601C28.9768 11.8601 29.8716 10.9654 29.8716 9.85531C29.8716 8.74527 28.9768 7.8505 27.8668 7.8505C26.7568 7.8505 25.862 8.74527 25.862 9.85531ZM40.9384 5.07876L40.6828 8.05233C40.2387 7.90432 39.7274 7.81014 39.1892 7.80341H39.1825C39.1152 7.79669 39.0412 7.78996 38.9672 7.78996C38.133 7.78996 37.4535 8.46944 37.4535 9.30365C37.4535 9.37093 37.4603 9.43147 37.467 9.49875V9.49202V14.5511H34.48V5.19986H37.3459V6.27626C37.837 5.46896 38.7116 4.93748 39.714 4.93748L39.9091 4.94421H39.9024H39.9091C40.2791 4.94421 40.6289 4.99803 40.9653 5.09222L40.9384 5.07876Z" fill="#ED1C24"/>
</svg>
