<svg width="46" height="15" viewBox="0 0 46 15" fill="none" xmlns="http://www.w3.org/2000/svg">
<path d="M8.43496 14.3576C7.99255 14.0579 7.67859 13.6013 7.49306 12.9733C7.30754 12.3454 7.22191 11.5177 7.22191 10.4759V9.06304C7.22191 8.02125 7.32181 7.16498 7.53588 6.53705C7.74995 5.89485 8.07818 5.43817 8.53486 5.15275C8.99154 4.86733 9.57665 4.71034 10.3045 4.71034C11.018 4.71034 11.6032 4.85306 12.0313 5.15275C12.4594 5.45244 12.7877 5.90912 12.9875 6.53705C13.1873 7.16498 13.2871 8.00698 13.2871 9.04877V10.4616C13.2871 11.5034 13.1873 12.3311 12.9875 12.9591C12.7877 13.587 12.4737 14.0437 12.0313 14.3434C11.5889 14.6288 10.9895 14.7858 10.2474 14.7858C9.47675 14.8 8.87736 14.6431 8.43496 14.3576ZM10.9039 12.8306C11.0323 12.5167 11.0894 11.9886 11.0894 11.2751V8.23532C11.0894 7.53603 11.0323 7.02227 10.9039 6.7083C10.7754 6.38007 10.5614 6.22309 10.2617 6.22309C9.96197 6.22309 9.76218 6.38007 9.63374 6.7083C9.5053 7.03654 9.44821 7.53603 9.44821 8.23532V11.2751C9.44821 11.9886 9.50529 12.5167 9.61946 12.8306C9.73363 13.1446 9.9477 13.3016 10.2617 13.3016C10.5614 13.3016 10.7754 13.1446 10.9039 12.8306ZM42.1862 11.0039L42.2433 12.4168C42.2861 12.7307 42.3575 12.9591 42.4717 13.1018C42.5858 13.2445 42.7714 13.3158 43.014 13.3158C43.3422 13.3158 43.5705 13.1874 43.6847 12.9305C43.8131 12.6736 43.8702 12.2455 43.8845 11.6604L45.7826 11.7746C45.7968 11.8602 45.7968 11.9744 45.7968 12.1171C45.7968 13.0162 45.5542 13.6869 45.0547 14.1293C44.5552 14.5717 43.8702 14.8 42.9711 14.8C41.8865 14.8 41.1302 14.4575 40.702 13.7868C40.2739 13.1161 40.0456 12.06 40.0456 10.6471V8.92033C40.0941 6.49424 40.5208 4.71748 43.0282 4.71034C43.7846 4.71034 44.3554 4.85306 44.755 5.12421C45.1546 5.39536 45.4401 5.82349 45.6113 6.40861C45.7826 6.99373 45.8539 7.79291 45.8539 8.82044V10.4902H42.1862V11.0039ZM42.4717 6.39434C42.3575 6.53705 42.2861 6.75112 42.2433 7.06508C42.2005 7.37905 42.1862 8.4922 42.1862 8.4922V9.19149H43.7846V8.4922C43.7846 9.19149 43.7703 7.39332 43.7275 7.06508C43.6847 6.73685 43.6133 6.50851 43.4992 6.38007C43.385 6.25163 43.2138 6.18027 42.9854 6.18027C42.7428 6.19454 42.5716 6.2659 42.4717 6.39434ZM3.09755 10.3189L0.600098 1.29954H2.78358C2.78358 1.29954 3.80397 5.82349 4.15361 7.94989H4.2107C4.60744 5.6922 5.60927 1.29954 5.60927 1.29954H7.79276L5.26676 10.3046V14.6288H3.11182V10.3189H3.09755Z" fill="#202121"/>
<path d="M20.3656 4.89587V14.6431H18.6531L18.4676 13.4443H18.4248C17.9538 14.3434 17.2545 14.8 16.3269 14.8C14.6472 14.7958 14.4602 13.3729 14.4431 12.1742V4.89587H16.6409V12.0457C16.6409 12.4739 16.6837 12.7878 16.7836 12.9733C16.9862 13.3701 17.5114 13.2688 17.7968 13.0732C17.9616 12.9619 18.0944 12.8093 18.1822 12.6308V4.89587H20.3656Z" fill="#202121"/>
<path d="M31.6399 4.89587V14.6431H29.9273L29.7418 13.4443H29.699C29.228 14.3434 28.5287 14.8 27.6011 14.8C25.9214 14.7958 25.7344 13.3729 25.7173 12.1742V4.89587H27.9151V12.0457C27.9151 12.4739 27.9579 12.7878 28.0578 12.9733C28.2604 13.3701 28.7856 13.2688 29.071 13.0732C29.2358 12.9619 29.3687 12.8093 29.4564 12.6308V4.89587H31.6399Z" fill="#202121"/>
<path d="M26.331 3.06916H24.1475V14.6431H22.0068V3.06916H19.8233V1.29954H26.3167V3.06916H26.331ZM38.8753 6.45142C38.7469 5.83776 38.5328 5.39536 38.2331 5.10994C37.9334 4.83878 37.5338 4.69607 37.0058 4.69607C36.6042 4.69519 36.2116 4.81447 35.8784 5.03858C35.5216 5.26692 35.2647 5.56661 35.0649 5.93766H35.0507V0.800049H32.9385V14.6288H34.751L34.9793 13.7012H35.0221C35.1966 14.0279 35.4585 14.2996 35.7785 14.4861C36.121 14.6716 36.492 14.7715 36.9059 14.7715C37.648 14.7715 38.1903 14.429 38.5471 13.744C38.8896 13.059 39.0751 11.9886 39.0751 10.5472V9.00596C39.0751 7.92135 39.0038 7.06508 38.8753 6.45142ZM36.8631 10.4331C36.8631 11.1466 36.8345 11.7032 36.7775 12.1028C36.7204 12.5024 36.6205 12.7878 36.4778 12.9591C36.3351 13.1303 36.1495 13.216 35.9212 13.216C35.4788 13.2017 35.2276 13.0019 35.0507 12.7022V7.16498C35.122 6.89383 35.2505 6.67976 35.436 6.50851C35.7499 6.15601 36.2865 6.15173 36.5349 6.50851C36.6633 6.67976 36.7347 6.97946 36.7917 7.39332C36.8345 7.80718 36.8631 8.3923 36.8631 9.16294V10.4331Z" fill="#202121"/>
</svg>
