<svg width="60" height="60" viewBox="0 0 60 60" fill="none" xmlns="http://www.w3.org/2000/svg">
<g clip-path="url(#clip0_715:2969)">
<path opacity="0.75" d="M4.13574 10H3.59082V6.3877L2.49805 6.78906V6.29688L4.05078 5.71387H4.13574V10ZM20.3984 8.18066C20.3984 8.81543 20.29 9.28711 20.0732 9.5957C19.8564 9.9043 19.5176 10.0586 19.0566 10.0586C18.6016 10.0586 18.2646 9.9082 18.0459 9.60742C17.8271 9.30469 17.7139 8.85352 17.7061 8.25391V7.53027C17.7061 6.90332 17.8145 6.4375 18.0312 6.13281C18.248 5.82812 18.5879 5.67578 19.0508 5.67578C19.5098 5.67578 19.8477 5.82324 20.0645 6.11816C20.2812 6.41113 20.3926 6.86426 20.3984 7.47754V8.18066ZM19.8564 7.43945C19.8564 6.98047 19.792 6.64648 19.6631 6.4375C19.5342 6.22656 19.3301 6.12109 19.0508 6.12109C18.7734 6.12109 18.5713 6.22559 18.4443 6.43457C18.3174 6.64355 18.252 6.96484 18.248 7.39844V8.26562C18.248 8.72656 18.3145 9.06738 18.4473 9.28809C18.582 9.50684 18.7852 9.61621 19.0566 9.61621C19.3242 9.61621 19.5225 9.5127 19.6514 9.30566C19.7822 9.09863 19.8506 8.77246 19.8564 8.32715V7.43945ZM35.7676 8.18066C35.7676 8.81543 35.6592 9.28711 35.4424 9.5957C35.2256 9.9043 34.8867 10.0586 34.4258 10.0586C33.9707 10.0586 33.6338 9.9082 33.415 9.60742C33.1963 9.30469 33.083 8.85352 33.0752 8.25391V7.53027C33.0752 6.90332 33.1836 6.4375 33.4004 6.13281C33.6172 5.82812 33.957 5.67578 34.4199 5.67578C34.8789 5.67578 35.2168 5.82324 35.4336 6.11816C35.6504 6.41113 35.7617 6.86426 35.7676 7.47754V8.18066ZM35.2256 7.43945C35.2256 6.98047 35.1611 6.64648 35.0322 6.4375C34.9033 6.22656 34.6992 6.12109 34.4199 6.12109C34.1426 6.12109 33.9404 6.22559 33.8135 6.43457C33.6865 6.64355 33.6211 6.96484 33.6172 7.39844V8.26562C33.6172 8.72656 33.6836 9.06738 33.8164 9.28809C33.9512 9.50684 34.1543 9.61621 34.4258 9.61621C34.6934 9.61621 34.8916 9.5127 35.0205 9.30566C35.1514 9.09863 35.2197 8.77246 35.2256 8.32715V7.43945ZM50.2432 10H49.6982V6.3877L48.6055 6.78906V6.29688L50.1582 5.71387H50.2432V10ZM66.5059 8.18066C66.5059 8.81543 66.3975 9.28711 66.1807 9.5957C65.9639 9.9043 65.625 10.0586 65.1641 10.0586C64.709 10.0586 64.3721 9.9082 64.1533 9.60742C63.9346 9.30469 63.8213 8.85352 63.8135 8.25391V7.53027C63.8135 6.90332 63.9219 6.4375 64.1387 6.13281C64.3555 5.82812 64.6953 5.67578 65.1582 5.67578C65.6172 5.67578 65.9551 5.82324 66.1719 6.11816C66.3887 6.41113 66.5 6.86426 66.5059 7.47754V8.18066ZM65.9639 7.43945C65.9639 6.98047 65.8994 6.64648 65.7705 6.4375C65.6416 6.22656 65.4375 6.12109 65.1582 6.12109C64.8809 6.12109 64.6787 6.22559 64.5518 6.43457C64.4248 6.64355 64.3594 6.96484 64.3555 7.39844V8.26562C64.3555 8.72656 64.4219 9.06738 64.5547 9.28809C64.6895 9.50684 64.8926 9.61621 65.1641 9.61621C65.4316 9.61621 65.6299 9.5127 65.7588 9.30566C65.8896 9.09863 65.958 8.77246 65.9639 8.32715V7.43945ZM80.9814 10H80.4365V6.3877L79.3438 6.78906V6.29688L80.8965 5.71387H80.9814V10ZM96.3506 10H95.8057V6.3877L94.7129 6.78906V6.29688L96.2656 5.71387H96.3506V10ZM111.72 10H111.175V6.3877L110.082 6.78906V6.29688L111.635 5.71387H111.72V10ZM127.982 8.18066C127.982 8.81543 127.874 9.28711 127.657 9.5957C127.44 9.9043 127.102 10.0586 126.641 10.0586C126.186 10.0586 125.849 9.9082 125.63 9.60742C125.411 9.30469 125.298 8.85352 125.29 8.25391V7.53027C125.29 6.90332 125.398 6.4375 125.615 6.13281C125.832 5.82812 126.172 5.67578 126.635 5.67578C127.094 5.67578 127.432 5.82324 127.648 6.11816C127.865 6.41113 127.977 6.86426 127.982 7.47754V8.18066ZM127.44 7.43945C127.44 6.98047 127.376 6.64648 127.247 6.4375C127.118 6.22656 126.914 6.12109 126.635 6.12109C126.357 6.12109 126.155 6.22559 126.028 6.43457C125.901 6.64355 125.836 6.96484 125.832 7.39844V8.26562C125.832 8.72656 125.898 9.06738 126.031 9.28809C126.166 9.50684 126.369 9.61621 126.641 9.61621C126.908 9.61621 127.106 9.5127 127.235 9.30566C127.366 9.09863 127.435 8.77246 127.44 8.32715V7.43945ZM5.0293 23.1807C5.0293 23.8154 4.9209 24.2871 4.7041 24.5957C4.4873 24.9043 4.14844 25.0586 3.6875 25.0586C3.23242 25.0586 2.89551 24.9082 2.67676 24.6074C2.45801 24.3047 2.34473 23.8535 2.33691 23.2539V22.5303C2.33691 21.9033 2.44531 21.4375 2.66211 21.1328C2.87891 20.8281 3.21875 20.6758 3.68164 20.6758C4.14062 20.6758 4.47852 20.8232 4.69531 21.1182C4.91211 21.4111 5.02344 21.8643 5.0293 22.4775V23.1807ZM4.4873 22.4395C4.4873 21.9805 4.42285 21.6465 4.29395 21.4375C4.16504 21.2266 3.96094 21.1211 3.68164 21.1211C3.4043 21.1211 3.20215 21.2256 3.0752 21.4346C2.94824 21.6436 2.88281 21.9648 2.87891 22.3984V23.2656C2.87891 23.7266 2.94531 24.0674 3.07812 24.2881C3.21289 24.5068 3.41602 24.6162 3.6875 24.6162C3.95508 24.6162 4.15332 24.5127 4.28223 24.3057C4.41309 24.0986 4.48145 23.7725 4.4873 23.3271V22.4395ZM19.5049 25H18.96V21.3877L17.8672 21.7891V21.2969L19.4199 20.7139H19.5049V25ZM35.7676 23.1807C35.7676 23.8154 35.6592 24.2871 35.4424 24.5957C35.2256 24.9043 34.8867 25.0586 34.4258 25.0586C33.9707 25.0586 33.6338 24.9082 33.415 24.6074C33.1963 24.3047 33.083 23.8535 33.0752 23.2539V22.5303C33.0752 21.9033 33.1836 21.4375 33.4004 21.1328C33.6172 20.8281 33.957 20.6758 34.4199 20.6758C34.8789 20.6758 35.2168 20.8232 35.4336 21.1182C35.6504 21.4111 35.7617 21.8643 35.7676 22.4775V23.1807ZM35.2256 22.4395C35.2256 21.9805 35.1611 21.6465 35.0322 21.4375C34.9033 21.2266 34.6992 21.1211 34.4199 21.1211C34.1426 21.1211 33.9404 21.2256 33.8135 21.4346C33.6865 21.6436 33.6211 21.9648 33.6172 22.3984V23.2656C33.6172 23.7266 33.6836 24.0674 33.8164 24.2881C33.9512 24.5068 34.1543 24.6162 34.4258 24.6162C34.6934 24.6162 34.8916 24.5127 35.0205 24.3057C35.1514 24.0986 35.2197 23.7725 35.2256 23.3271V22.4395ZM51.1367 23.1807C51.1367 23.8154 51.0283 24.2871 50.8115 24.5957C50.5947 24.9043 50.2559 25.0586 49.7949 25.0586C49.3398 25.0586 49.0029 24.9082 48.7842 24.6074C48.5654 24.3047 48.4521 23.8535 48.4443 23.2539V22.5303C48.4443 21.9033 48.5527 21.4375 48.7695 21.1328C48.9863 20.8281 49.3262 20.6758 49.7891 20.6758C50.248 20.6758 50.5859 20.8232 50.8027 21.1182C51.0195 21.4111 51.1309 21.8643 51.1367 22.4775V23.1807ZM50.5947 22.4395C50.5947 21.9805 50.5303 21.6465 50.4014 21.4375C50.2725 21.2266 50.0684 21.1211 49.7891 21.1211C49.5117 21.1211 49.3096 21.2256 49.1826 21.4346C49.0557 21.6436 48.9902 21.9648 48.9863 22.3984V23.2656C48.9863 23.7266 49.0527 24.0674 49.1855 24.2881C49.3203 24.5068 49.5234 24.6162 49.7949 24.6162C50.0625 24.6162 50.2607 24.5127 50.3896 24.3057C50.5205 24.0986 50.5889 23.7725 50.5947 23.3271V22.4395ZM65.6123 25H65.0674V21.3877L63.9746 21.7891V21.2969L65.5273 20.7139H65.6123V25ZM81.875 23.1807C81.875 23.8154 81.7666 24.2871 81.5498 24.5957C81.333 24.9043 80.9941 25.0586 80.5332 25.0586C80.0781 25.0586 79.7412 24.9082 79.5225 24.6074C79.3037 24.3047 79.1904 23.8535 79.1826 23.2539V22.5303C79.1826 21.9033 79.291 21.4375 79.5078 21.1328C79.7246 20.8281 80.0645 20.6758 80.5273 20.6758C80.9863 20.6758 81.3242 20.8232 81.541 21.1182C81.7578 21.4111 81.8691 21.8643 81.875 22.4775V23.1807ZM81.333 22.4395C81.333 21.9805 81.2686 21.6465 81.1396 21.4375C81.0107 21.2266 80.8066 21.1211 80.5273 21.1211C80.25 21.1211 80.0479 21.2256 79.9209 21.4346C79.7939 21.6436 79.7285 21.9648 79.7246 22.3984V23.2656C79.7246 23.7266 79.791 24.0674 79.9238 24.2881C80.0586 24.5068 80.2617 24.6162 80.5332 24.6162C80.8008 24.6162 80.999 24.5127 81.1279 24.3057C81.2588 24.0986 81.3271 23.7725 81.333 23.3271V22.4395ZM96.3506 25H95.8057V21.3877L94.7129 21.7891V21.2969L96.2656 20.7139H96.3506V25ZM112.613 23.1807C112.613 23.8154 112.505 24.2871 112.288 24.5957C112.071 24.9043 111.732 25.0586 111.271 25.0586C110.816 25.0586 110.479 24.9082 110.261 24.6074C110.042 24.3047 109.929 23.8535 109.921 23.2539V22.5303C109.921 21.9033 110.029 21.4375 110.246 21.1328C110.463 20.8281 110.803 20.6758 111.266 20.6758C111.725 20.6758 112.062 20.8232 112.279 21.1182C112.496 21.4111 112.607 21.8643 112.613 22.4775V23.1807ZM112.071 22.4395C112.071 21.9805 112.007 21.6465 111.878 21.4375C111.749 21.2266 111.545 21.1211 111.266 21.1211C110.988 21.1211 110.786 21.2256 110.659 21.4346C110.532 21.6436 110.467 21.9648 110.463 22.3984V23.2656C110.463 23.7266 110.529 24.0674 110.662 24.2881C110.797 24.5068 111 24.6162 111.271 24.6162C111.539 24.6162 111.737 24.5127 111.866 24.3057C111.997 24.0986 112.065 23.7725 112.071 23.3271V22.4395ZM127.089 25H126.544V21.3877L125.451 21.7891V21.2969L127.004 20.7139H127.089V25ZM4.13574 40H3.59082V36.3877L2.49805 36.7891V36.2969L4.05078 35.7139H4.13574V40ZM20.3984 38.1807C20.3984 38.8154 20.29 39.2871 20.0732 39.5957C19.8564 39.9043 19.5176 40.0586 19.0566 40.0586C18.6016 40.0586 18.2646 39.9082 18.0459 39.6074C17.8271 39.3047 17.7139 38.8535 17.7061 38.2539V37.5303C17.7061 36.9033 17.8145 36.4375 18.0312 36.1328C18.248 35.8281 18.5879 35.6758 19.0508 35.6758C19.5098 35.6758 19.8477 35.8232 20.0645 36.1182C20.2812 36.4111 20.3926 36.8643 20.3984 37.4775V38.1807ZM19.8564 37.4395C19.8564 36.9805 19.792 36.6465 19.6631 36.4375C19.5342 36.2266 19.3301 36.1211 19.0508 36.1211C18.7734 36.1211 18.5713 36.2256 18.4443 36.4346C18.3174 36.6436 18.252 36.9648 18.248 37.3984V38.2656C18.248 38.7266 18.3145 39.0674 18.4473 39.2881C18.582 39.5068 18.7852 39.6162 19.0566 39.6162C19.3242 39.6162 19.5225 39.5127 19.6514 39.3057C19.7822 39.0986 19.8506 38.7725 19.8564 38.3271V37.4395ZM35.7676 38.1807C35.7676 38.8154 35.6592 39.2871 35.4424 39.5957C35.2256 39.9043 34.8867 40.0586 34.4258 40.0586C33.9707 40.0586 33.6338 39.9082 33.415 39.6074C33.1963 39.3047 33.083 38.8535 33.0752 38.2539V37.5303C33.0752 36.9033 33.1836 36.4375 33.4004 36.1328C33.6172 35.8281 33.957 35.6758 34.4199 35.6758C34.8789 35.6758 35.2168 35.8232 35.4336 36.1182C35.6504 36.4111 35.7617 36.8643 35.7676 37.4775V38.1807ZM35.2256 37.4395C35.2256 36.9805 35.1611 36.6465 35.0322 36.4375C34.9033 36.2266 34.6992 36.1211 34.4199 36.1211C34.1426 36.1211 33.9404 36.2256 33.8135 36.4346C33.6865 36.6436 33.6211 36.9648 33.6172 37.3984V38.2656C33.6172 38.7266 33.6836 39.0674 33.8164 39.2881C33.9512 39.5068 34.1543 39.6162 34.4258 39.6162C34.6934 39.6162 34.8916 39.5127 35.0205 39.3057C35.1514 39.0986 35.2197 38.7725 35.2256 38.3271V37.4395ZM50.2432 40H49.6982V36.3877L48.6055 36.7891V36.2969L50.1582 35.7139H50.2432V40ZM66.5059 38.1807C66.5059 38.8154 66.3975 39.2871 66.1807 39.5957C65.9639 39.9043 65.625 40.0586 65.1641 40.0586C64.709 40.0586 64.3721 39.9082 64.1533 39.6074C63.9346 39.3047 63.8213 38.8535 63.8135 38.2539V37.5303C63.8135 36.9033 63.9219 36.4375 64.1387 36.1328C64.3555 35.8281 64.6953 35.6758 65.1582 35.6758C65.6172 35.6758 65.9551 35.8232 66.1719 36.1182C66.3887 36.4111 66.5 36.8643 66.5059 37.4775V38.1807ZM65.9639 37.4395C65.9639 36.9805 65.8994 36.6465 65.7705 36.4375C65.6416 36.2266 65.4375 36.1211 65.1582 36.1211C64.8809 36.1211 64.6787 36.2256 64.5518 36.4346C64.4248 36.6436 64.3594 36.9648 64.3555 37.3984V38.2656C64.3555 38.7266 64.4219 39.0674 64.5547 39.2881C64.6895 39.5068 64.8926 39.6162 65.1641 39.6162C65.4316 39.6162 65.6299 39.5127 65.7588 39.3057C65.8896 39.0986 65.958 38.7725 65.9639 38.3271V37.4395ZM80.9814 40H80.4365V36.3877L79.3438 36.7891V36.2969L80.8965 35.7139H80.9814V40ZM96.3506 40H95.8057V36.3877L94.7129 36.7891V36.2969L96.2656 35.7139H96.3506V40ZM111.72 40H111.175V36.3877L110.082 36.7891V36.2969L111.635 35.7139H111.72V40ZM127.982 38.1807C127.982 38.8154 127.874 39.2871 127.657 39.5957C127.44 39.9043 127.102 40.0586 126.641 40.0586C126.186 40.0586 125.849 39.9082 125.63 39.6074C125.411 39.3047 125.298 38.8535 125.29 38.2539V37.5303C125.29 36.9033 125.398 36.4375 125.615 36.1328C125.832 35.8281 126.172 35.6758 126.635 35.6758C127.094 35.6758 127.432 35.8232 127.648 36.1182C127.865 36.4111 127.977 36.8643 127.982 37.4775V38.1807ZM127.44 37.4395C127.44 36.9805 127.376 36.6465 127.247 36.4375C127.118 36.2266 126.914 36.1211 126.635 36.1211C126.357 36.1211 126.155 36.2256 126.028 36.4346C125.901 36.6436 125.836 36.9648 125.832 37.3984V38.2656C125.832 38.7266 125.898 39.0674 126.031 39.2881C126.166 39.5068 126.369 39.6162 126.641 39.6162C126.908 39.6162 127.106 39.5127 127.235 39.3057C127.366 39.0986 127.435 38.7725 127.44 38.3271V37.4395ZM4.13574 55H3.59082V51.3877L2.49805 51.7891V51.2969L4.05078 50.7139H4.13574V55ZM19.5049 55H18.96V51.3877L17.8672 51.7891V51.2969L19.4199 50.7139H19.5049V55ZM35.7676 53.1807C35.7676 53.8154 35.6592 54.2871 35.4424 54.5957C35.2256 54.9043 34.8867 55.0586 34.4258 55.0586C33.9707 55.0586 33.6338 54.9082 33.415 54.6074C33.1963 54.3047 33.083 53.8535 33.0752 53.2539V52.5303C33.0752 51.9033 33.1836 51.4375 33.4004 51.1328C33.6172 50.8281 33.957 50.6758 34.4199 50.6758C34.8789 50.6758 35.2168 50.8232 35.4336 51.1182C35.6504 51.4111 35.7617 51.8643 35.7676 52.4775V53.1807ZM35.2256 52.4395C35.2256 51.9805 35.1611 51.6465 35.0322 51.4375C34.9033 51.2266 34.6992 51.1211 34.4199 51.1211C34.1426 51.1211 33.9404 51.2256 33.8135 51.4346C33.6865 51.6436 33.6211 51.9648 33.6172 52.3984V53.2656C33.6172 53.7266 33.6836 54.0674 33.8164 54.2881C33.9512 54.5068 34.1543 54.6162 34.4258 54.6162C34.6934 54.6162 34.8916 54.5127 35.0205 54.3057C35.1514 54.0986 35.2197 53.7725 35.2256 53.3271V52.4395ZM51.1367 53.1807C51.1367 53.8154 51.0283 54.2871 50.8115 54.5957C50.5947 54.9043 50.2559 55.0586 49.7949 55.0586C49.3398 55.0586 49.0029 54.9082 48.7842 54.6074C48.5654 54.3047 48.4521 53.8535 48.4443 53.2539V52.5303C48.4443 51.9033 48.5527 51.4375 48.7695 51.1328C48.9863 50.8281 49.3262 50.6758 49.7891 50.6758C50.248 50.6758 50.5859 50.8232 50.8027 51.1182C51.0195 51.4111 51.1309 51.8643 51.1367 52.4775V53.1807ZM50.5947 52.4395C50.5947 51.9805 50.5303 51.6465 50.4014 51.4375C50.2725 51.2266 50.0684 51.1211 49.7891 51.1211C49.5117 51.1211 49.3096 51.2256 49.1826 51.4346C49.0557 51.6436 48.9902 51.9648 48.9863 52.3984V53.2656C48.9863 53.7266 49.0527 54.0674 49.1855 54.2881C49.3203 54.5068 49.5234 54.6162 49.7949 54.6162C50.0625 54.6162 50.2607 54.5127 50.3896 54.3057C50.5205 54.0986 50.5889 53.7725 50.5947 53.3271V52.4395ZM66.5059 53.1807C66.5059 53.8154 66.3975 54.2871 66.1807 54.5957C65.9639 54.9043 65.625 55.0586 65.1641 55.0586C64.709 55.0586 64.3721 54.9082 64.1533 54.6074C63.9346 54.3047 63.8213 53.8535 63.8135 53.2539V52.5303C63.8135 51.9033 63.9219 51.4375 64.1387 51.1328C64.3555 50.8281 64.6953 50.6758 65.1582 50.6758C65.6172 50.6758 65.9551 50.8232 66.1719 51.1182C66.3887 51.4111 66.5 51.8643 66.5059 52.4775V53.1807ZM65.9639 52.4395C65.9639 51.9805 65.8994 51.6465 65.7705 51.4375C65.6416 51.2266 65.4375 51.1211 65.1582 51.1211C64.8809 51.1211 64.6787 51.2256 64.5518 51.4346C64.4248 51.6436 64.3594 51.9648 64.3555 52.3984V53.2656C64.3555 53.7266 64.4219 54.0674 64.5547 54.2881C64.6895 54.5068 64.8926 54.6162 65.1641 54.6162C65.4316 54.6162 65.6299 54.5127 65.7588 54.3057C65.8896 54.0986 65.958 53.7725 65.9639 53.3271V52.4395ZM80.9814 55H80.4365V51.3877L79.3438 51.7891V51.2969L80.8965 50.7139H80.9814V55ZM96.3506 55H95.8057V51.3877L94.7129 51.7891V51.2969L96.2656 50.7139H96.3506V55ZM112.613 53.1807C112.613 53.8154 112.505 54.2871 112.288 54.5957C112.071 54.9043 111.732 55.0586 111.271 55.0586C110.816 55.0586 110.479 54.9082 110.261 54.6074C110.042 54.3047 109.929 53.8535 109.921 53.2539V52.5303C109.921 51.9033 110.029 51.4375 110.246 51.1328C110.463 50.8281 110.803 50.6758 111.266 50.6758C111.725 50.6758 112.062 50.8232 112.279 51.1182C112.496 51.4111 112.607 51.8643 112.613 52.4775V53.1807ZM112.071 52.4395C112.071 51.9805 112.007 51.6465 111.878 51.4375C111.749 51.2266 111.545 51.1211 111.266 51.1211C110.988 51.1211 110.786 51.2256 110.659 51.4346C110.532 51.6436 110.467 51.9648 110.463 52.3984V53.2656C110.463 53.7266 110.529 54.0674 110.662 54.2881C110.797 54.5068 111 54.6162 111.271 54.6162C111.539 54.6162 111.737 54.5127 111.866 54.3057C111.997 54.0986 112.065 53.7725 112.071 53.3271V52.4395ZM127.982 53.1807C127.982 53.8154 127.874 54.2871 127.657 54.5957C127.44 54.9043 127.102 55.0586 126.641 55.0586C126.186 55.0586 125.849 54.9082 125.63 54.6074C125.411 54.3047 125.298 53.8535 125.29 53.2539V52.5303C125.29 51.9033 125.398 51.4375 125.615 51.1328C125.832 50.8281 126.172 50.6758 126.635 50.6758C127.094 50.6758 127.432 50.8232 127.648 51.1182C127.865 51.4111 127.977 51.8643 127.982 52.4775V53.1807ZM127.44 52.4395C127.44 51.9805 127.376 51.6465 127.247 51.4375C127.118 51.2266 126.914 51.1211 126.635 51.1211C126.357 51.1211 126.155 51.2256 126.028 51.4346C125.901 51.6436 125.836 51.9648 125.832 52.3984V53.2656C125.832 53.7266 125.898 54.0674 126.031 54.2881C126.166 54.5068 126.369 54.6162 126.641 54.6162C126.908 54.6162 127.106 54.5127 127.235 54.3057C127.366 54.0986 127.435 53.7725 127.44 53.3271V52.4395ZM4.13574 70H3.59082V66.3877L2.49805 66.7891V66.2969L4.05078 65.7139H4.13574V70ZM20.3984 68.1807C20.3984 68.8154 20.29 69.2871 20.0732 69.5957C19.8564 69.9043 19.5176 70.0586 19.0566 70.0586C18.6016 70.0586 18.2646 69.9082 18.0459 69.6074C17.8271 69.3047 17.7139 68.8535 17.7061 68.2539V67.5303C17.7061 66.9033 17.8145 66.4375 18.0312 66.1328C18.248 65.8281 18.5879 65.6758 19.0508 65.6758C19.5098 65.6758 19.8477 65.8232 20.0645 66.1182C20.2812 66.4111 20.3926 66.8643 20.3984 67.4775V68.1807ZM19.8564 67.4395C19.8564 66.9805 19.792 66.6465 19.6631 66.4375C19.5342 66.2266 19.3301 66.1211 19.0508 66.1211C18.7734 66.1211 18.5713 66.2256 18.4443 66.4346C18.3174 66.6436 18.252 66.9648 18.248 67.3984V68.2656C18.248 68.7266 18.3145 69.0674 18.4473 69.2881C18.582 69.5068 18.7852 69.6162 19.0566 69.6162C19.3242 69.6162 19.5225 69.5127 19.6514 69.3057C19.7822 69.0986 19.8506 68.7725 19.8564 68.3271V67.4395ZM35.7676 68.1807C35.7676 68.8154 35.6592 69.2871 35.4424 69.5957C35.2256 69.9043 34.8867 70.0586 34.4258 70.0586C33.9707 70.0586 33.6338 69.9082 33.415 69.6074C33.1963 69.3047 33.083 68.8535 33.0752 68.2539V67.5303C33.0752 66.9033 33.1836 66.4375 33.4004 66.1328C33.6172 65.8281 33.957 65.6758 34.4199 65.6758C34.8789 65.6758 35.2168 65.8232 35.4336 66.1182C35.6504 66.4111 35.7617 66.8643 35.7676 67.4775V68.1807ZM35.2256 67.4395C35.2256 66.9805 35.1611 66.6465 35.0322 66.4375C34.9033 66.2266 34.6992 66.1211 34.4199 66.1211C34.1426 66.1211 33.9404 66.2256 33.8135 66.4346C33.6865 66.6436 33.6211 66.9648 33.6172 67.3984V68.2656C33.6172 68.7266 33.6836 69.0674 33.8164 69.2881C33.9512 69.5068 34.1543 69.6162 34.4258 69.6162C34.6934 69.6162 34.8916 69.5127 35.0205 69.3057C35.1514 69.0986 35.2197 68.7725 35.2256 68.3271V67.4395ZM50.2432 70H49.6982V66.3877L48.6055 66.7891V66.2969L50.1582 65.7139H50.2432V70ZM66.5059 68.1807C66.5059 68.8154 66.3975 69.2871 66.1807 69.5957C65.9639 69.9043 65.625 70.0586 65.1641 70.0586C64.709 70.0586 64.3721 69.9082 64.1533 69.6074C63.9346 69.3047 63.8213 68.8535 63.8135 68.2539V67.5303C63.8135 66.9033 63.9219 66.4375 64.1387 66.1328C64.3555 65.8281 64.6953 65.6758 65.1582 65.6758C65.6172 65.6758 65.9551 65.8232 66.1719 66.1182C66.3887 66.4111 66.5 66.8643 66.5059 67.4775V68.1807ZM65.9639 67.4395C65.9639 66.9805 65.8994 66.6465 65.7705 66.4375C65.6416 66.2266 65.4375 66.1211 65.1582 66.1211C64.8809 66.1211 64.6787 66.2256 64.5518 66.4346C64.4248 66.6436 64.3594 66.9648 64.3555 67.3984V68.2656C64.3555 68.7266 64.4219 69.0674 64.5547 69.2881C64.6895 69.5068 64.8926 69.6162 65.1641 69.6162C65.4316 69.6162 65.6299 69.5127 65.7588 69.3057C65.8896 69.0986 65.958 68.7725 65.9639 68.3271V67.4395ZM80.9814 70H80.4365V66.3877L79.3438 66.7891V66.2969L80.8965 65.7139H80.9814V70ZM96.3506 70H95.8057V66.3877L94.7129 66.7891V66.2969L96.2656 65.7139H96.3506V70ZM111.72 70H111.175V66.3877L110.082 66.7891V66.2969L111.635 65.7139H111.72V70ZM127.982 68.1807C127.982 68.8154 127.874 69.2871 127.657 69.5957C127.44 69.9043 127.102 70.0586 126.641 70.0586C126.186 70.0586 125.849 69.9082 125.63 69.6074C125.411 69.3047 125.298 68.8535 125.29 68.2539V67.5303C125.29 66.9033 125.398 66.4375 125.615 66.1328C125.832 65.8281 126.172 65.6758 126.635 65.6758C127.094 65.6758 127.432 65.8232 127.648 66.1182C127.865 66.4111 127.977 66.8643 127.982 67.4775V68.1807ZM127.44 67.4395C127.44 66.9805 127.376 66.6465 127.247 66.4375C127.118 66.2266 126.914 66.1211 126.635 66.1211C126.357 66.1211 126.155 66.2256 126.028 66.4346C125.901 66.6436 125.836 66.9648 125.832 67.3984V68.2656C125.832 68.7266 125.898 69.0674 126.031 69.2881C126.166 69.5068 126.369 69.6162 126.641 69.6162C126.908 69.6162 127.106 69.5127 127.235 69.3057C127.366 69.0986 127.435 68.7725 127.44 68.3271V67.4395ZM5.0293 83.1807C5.0293 83.8154 4.9209 84.2871 4.7041 84.5957C4.4873 84.9043 4.14844 85.0586 3.6875 85.0586C3.23242 85.0586 2.89551 84.9082 2.67676 84.6074C2.45801 84.3047 2.34473 83.8535 2.33691 83.2539V82.5303C2.33691 81.9033 2.44531 81.4375 2.66211 81.1328C2.87891 80.8281 3.21875 80.6758 3.68164 80.6758C4.14062 80.6758 4.47852 80.8232 4.69531 81.1182C4.91211 81.4111 5.02344 81.8643 5.0293 82.4775V83.1807ZM4.4873 82.4395C4.4873 81.9805 4.42285 81.6465 4.29395 81.4375C4.16504 81.2266 3.96094 81.1211 3.68164 81.1211C3.4043 81.1211 3.20215 81.2256 3.0752 81.4346C2.94824 81.6436 2.88281 81.9648 2.87891 82.3984V83.2656C2.87891 83.7266 2.94531 84.0674 3.07812 84.2881C3.21289 84.5068 3.41602 84.6162 3.6875 84.6162C3.95508 84.6162 4.15332 84.5127 4.28223 84.3057C4.41309 84.0986 4.48145 83.7725 4.4873 83.3271V82.4395ZM19.8008 83.125C19.6875 83.2598 19.5518 83.3682 19.3936 83.4502C19.2373 83.5322 19.0654 83.5732 18.8779 83.5732C18.6318 83.5732 18.417 83.5127 18.2334 83.3916C18.0518 83.2705 17.9111 83.1006 17.8115 82.8818C17.7119 82.6611 17.6621 82.418 17.6621 82.1523C17.6621 81.8672 17.7158 81.6104 17.8232 81.3818C17.9326 81.1533 18.0869 80.9785 18.2861 80.8574C18.4854 80.7363 18.7178 80.6758 18.9834 80.6758C19.4053 80.6758 19.7373 80.834 19.9795 81.1504C20.2236 81.4648 20.3457 81.8945 20.3457 82.4395V82.5977C20.3457 83.4277 20.1816 84.0342 19.8535 84.417C19.5254 84.7979 19.0303 84.9932 18.3682 85.0029H18.2627V84.5459H18.377C18.8242 84.5381 19.168 84.4219 19.4082 84.1973C19.6484 83.9707 19.7793 83.6133 19.8008 83.125ZM18.9658 83.125C19.1475 83.125 19.3145 83.0693 19.4668 82.958C19.6211 82.8467 19.7334 82.709 19.8037 82.5449V82.3281C19.8037 81.9727 19.7266 81.6836 19.5723 81.4609C19.418 81.2383 19.2227 81.127 18.9863 81.127C18.748 81.127 18.5566 81.2188 18.4121 81.4023C18.2676 81.584 18.1953 81.8242 18.1953 82.123C18.1953 82.4141 18.2646 82.6543 18.4033 82.8438C18.5439 83.0312 18.7314 83.125 18.9658 83.125ZM34.874 85H34.3291V81.3877L33.2363 81.7891V81.2969L34.7891 80.7139H34.874V85ZM51.1367 83.1807C51.1367 83.8154 51.0283 84.2871 50.8115 84.5957C50.5947 84.9043 50.2559 85.0586 49.7949 85.0586C49.3398 85.0586 49.0029 84.9082 48.7842 84.6074C48.5654 84.3047 48.4521 83.8535 48.4443 83.2539V82.5303C48.4443 81.9033 48.5527 81.4375 48.7695 81.1328C48.9863 80.8281 49.3262 80.6758 49.7891 80.6758C50.248 80.6758 50.5859 80.8232 50.8027 81.1182C51.0195 81.4111 51.1309 81.8643 51.1367 82.4775V83.1807ZM50.5947 82.4395C50.5947 81.9805 50.5303 81.6465 50.4014 81.4375C50.2725 81.2266 50.0684 81.1211 49.7891 81.1211C49.5117 81.1211 49.3096 81.2256 49.1826 81.4346C49.0557 81.6436 48.9902 81.9648 48.9863 82.3984V83.2656C48.9863 83.7266 49.0527 84.0674 49.1855 84.2881C49.3203 84.5068 49.5234 84.6162 49.7949 84.6162C50.0625 84.6162 50.2607 84.5127 50.3896 84.3057C50.5205 84.0986 50.5889 83.7725 50.5947 83.3271V82.4395ZM66.5059 83.1807C66.5059 83.8154 66.3975 84.2871 66.1807 84.5957C65.9639 84.9043 65.625 85.0586 65.1641 85.0586C64.709 85.0586 64.3721 84.9082 64.1533 84.6074C63.9346 84.3047 63.8213 83.8535 63.8135 83.2539V82.5303C63.8135 81.9033 63.9219 81.4375 64.1387 81.1328C64.3555 80.8281 64.6953 80.6758 65.1582 80.6758C65.6172 80.6758 65.9551 80.8232 66.1719 81.1182C66.3887 81.4111 66.5 81.8643 66.5059 82.4775V83.1807ZM65.9639 82.4395C65.9639 81.9805 65.8994 81.6465 65.7705 81.4375C65.6416 81.2266 65.4375 81.1211 65.1582 81.1211C64.8809 81.1211 64.6787 81.2256 64.5518 81.4346C64.4248 81.6436 64.3594 81.9648 64.3555 82.3984V83.2656C64.3555 83.7266 64.4219 84.0674 64.5547 84.2881C64.6895 84.5068 64.8926 84.6162 65.1641 84.6162C65.4316 84.6162 65.6299 84.5127 65.7588 84.3057C65.8896 84.0986 65.958 83.7725 65.9639 83.3271V82.4395ZM80.9814 85H80.4365V81.3877L79.3438 81.7891V81.2969L80.8965 80.7139H80.9814V85ZM97.2441 83.1807C97.2441 83.8154 97.1357 84.2871 96.9189 84.5957C96.7021 84.9043 96.3633 85.0586 95.9023 85.0586C95.4473 85.0586 95.1104 84.9082 94.8916 84.6074C94.6729 84.3047 94.5596 83.8535 94.5518 83.2539V82.5303C94.5518 81.9033 94.6602 81.4375 94.877 81.1328C95.0938 80.8281 95.4336 80.6758 95.8965 80.6758C96.3555 80.6758 96.6934 80.8232 96.9102 81.1182C97.127 81.4111 97.2383 81.8643 97.2441 82.4775V83.1807ZM96.7021 82.4395C96.7021 81.9805 96.6377 81.6465 96.5088 81.4375C96.3799 81.2266 96.1758 81.1211 95.8965 81.1211C95.6191 81.1211 95.417 81.2256 95.29 81.4346C95.1631 81.6436 95.0977 81.9648 95.0938 82.3984V83.2656C95.0938 83.7266 95.1602 84.0674 95.293 84.2881C95.4277 84.5068 95.6309 84.6162 95.9023 84.6162C96.1699 84.6162 96.3682 84.5127 96.4971 84.3057C96.6279 84.0986 96.6963 83.7725 96.7021 83.3271V82.4395ZM111.72 85H111.175V81.3877L110.082 81.7891V81.2969L111.635 80.7139H111.72V85ZM127.089 85H126.544V81.3877L125.451 81.7891V81.2969L127.004 80.7139H127.089V85ZM4.13574 100H3.59082V96.3877L2.49805 96.7891V96.2969L4.05078 95.7139H4.13574V100ZM20.3984 98.1807C20.3984 98.8154 20.29 99.2871 20.0732 99.5957C19.8564 99.9043 19.5176 100.059 19.0566 100.059C18.6016 100.059 18.2646 99.9082 18.0459 99.6074C17.8271 99.3047 17.7139 98.8535 17.7061 98.2539V97.5303C17.7061 96.9033 17.8145 96.4375 18.0312 96.1328C18.248 95.8281 18.5879 95.6758 19.0508 95.6758C19.5098 95.6758 19.8477 95.8232 20.0645 96.1182C20.2812 96.4111 20.3926 96.8643 20.3984 97.4775V98.1807ZM19.8564 97.4395C19.8564 96.9805 19.792 96.6465 19.6631 96.4375C19.5342 96.2266 19.3301 96.1211 19.0508 96.1211C18.7734 96.1211 18.5713 96.2256 18.4443 96.4346C18.3174 96.6436 18.252 96.9648 18.248 97.3984V98.2656C18.248 98.7266 18.3145 99.0674 18.4473 99.2881C18.582 99.5068 18.7852 99.6162 19.0566 99.6162C19.3242 99.6162 19.5225 99.5127 19.6514 99.3057C19.7822 99.0986 19.8506 98.7725 19.8564 98.3271V97.4395ZM35.7676 98.1807C35.7676 98.8154 35.6592 99.2871 35.4424 99.5957C35.2256 99.9043 34.8867 100.059 34.4258 100.059C33.9707 100.059 33.6338 99.9082 33.415 99.6074C33.1963 99.3047 33.083 98.8535 33.0752 98.2539V97.5303C33.0752 96.9033 33.1836 96.4375 33.4004 96.1328C33.6172 95.8281 33.957 95.6758 34.4199 95.6758C34.8789 95.6758 35.2168 95.8232 35.4336 96.1182C35.6504 96.4111 35.7617 96.8643 35.7676 97.4775V98.1807ZM35.2256 97.4395C35.2256 96.9805 35.1611 96.6465 35.0322 96.4375C34.9033 96.2266 34.6992 96.1211 34.4199 96.1211C34.1426 96.1211 33.9404 96.2256 33.8135 96.4346C33.6865 96.6436 33.6211 96.9648 33.6172 97.3984V98.2656C33.6172 98.7266 33.6836 99.0674 33.8164 99.2881C33.9512 99.5068 34.1543 99.6162 34.4258 99.6162C34.6934 99.6162 34.8916 99.5127 35.0205 99.3057C35.1514 99.0986 35.2197 98.7725 35.2256 98.3271V97.4395ZM50.2432 100H49.6982V96.3877L48.6055 96.7891V96.2969L50.1582 95.7139H50.2432V100ZM66.5059 98.1807C66.5059 98.8154 66.3975 99.2871 66.1807 99.5957C65.9639 99.9043 65.625 100.059 65.1641 100.059C64.709 100.059 64.3721 99.9082 64.1533 99.6074C63.9346 99.3047 63.8213 98.8535 63.8135 98.2539V97.5303C63.8135 96.9033 63.9219 96.4375 64.1387 96.1328C64.3555 95.8281 64.6953 95.6758 65.1582 95.6758C65.6172 95.6758 65.9551 95.8232 66.1719 96.1182C66.3887 96.4111 66.5 96.8643 66.5059 97.4775V98.1807ZM65.9639 97.4395C65.9639 96.9805 65.8994 96.6465 65.7705 96.4375C65.6416 96.2266 65.4375 96.1211 65.1582 96.1211C64.8809 96.1211 64.6787 96.2256 64.5518 96.4346C64.4248 96.6436 64.3594 96.9648 64.3555 97.3984V98.2656C64.3555 98.7266 64.4219 99.0674 64.5547 99.2881C64.6895 99.5068 64.8926 99.6162 65.1641 99.6162C65.4316 99.6162 65.6299 99.5127 65.7588 99.3057C65.8896 99.0986 65.958 98.7725 65.9639 98.3271V97.4395ZM80.9814 100H80.4365V96.3877L79.3438 96.7891V96.2969L80.8965 95.7139H80.9814V100ZM96.3506 100H95.8057V96.3877L94.7129 96.7891V96.2969L96.2656 95.7139H96.3506V100ZM111.72 100H111.175V96.3877L110.082 96.7891V96.2969L111.635 95.7139H111.72V100ZM127.982 98.1807C127.982 98.8154 127.874 99.2871 127.657 99.5957C127.44 99.9043 127.102 100.059 126.641 100.059C126.186 100.059 125.849 99.9082 125.63 99.6074C125.411 99.3047 125.298 98.8535 125.29 98.2539V97.5303C125.29 96.9033 125.398 96.4375 125.615 96.1328C125.832 95.8281 126.172 95.6758 126.635 95.6758C127.094 95.6758 127.432 95.8232 127.648 96.1182C127.865 96.4111 127.977 96.8643 127.982 97.4775V98.1807ZM127.44 97.4395C127.44 96.9805 127.376 96.6465 127.247 96.4375C127.118 96.2266 126.914 96.1211 126.635 96.1211C126.357 96.1211 126.155 96.2256 126.028 96.4346C125.901 96.6436 125.836 96.9648 125.832 97.3984V98.2656C125.832 98.7266 125.898 99.0674 126.031 99.2881C126.166 99.5068 126.369 99.6162 126.641 99.6162C126.908 99.6162 127.106 99.5127 127.235 99.3057C127.366 99.0986 127.435 98.7725 127.44 98.3271V97.4395ZM5.0293 113.181C5.0293 113.815 4.9209 114.287 4.7041 114.596C4.4873 114.904 4.14844 115.059 3.6875 115.059C3.23242 115.059 2.89551 114.908 2.67676 114.607C2.45801 114.305 2.34473 113.854 2.33691 113.254V112.53C2.33691 111.903 2.44531 111.438 2.66211 111.133C2.87891 110.828 3.21875 110.676 3.68164 110.676C4.14062 110.676 4.47852 110.823 4.69531 111.118C4.91211 111.411 5.02344 111.864 5.0293 112.478V113.181ZM4.4873 112.439C4.4873 111.98 4.42285 111.646 4.29395 111.438C4.16504 111.227 3.96094 111.121 3.68164 111.121C3.4043 111.121 3.20215 111.226 3.0752 111.435C2.94824 111.644 2.88281 111.965 2.87891 112.398V113.266C2.87891 113.727 2.94531 114.067 3.07812 114.288C3.21289 114.507 3.41602 114.616 3.6875 114.616C3.95508 114.616 4.15332 114.513 4.28223 114.306C4.41309 114.099 4.48145 113.772 4.4873 113.327V112.439ZM20.3984 113.181C20.3984 113.815 20.29 114.287 20.0732 114.596C19.8564 114.904 19.5176 115.059 19.0566 115.059C18.6016 115.059 18.2646 114.908 18.0459 114.607C17.8271 114.305 17.7139 113.854 17.7061 113.254V112.53C17.7061 111.903 17.8145 111.438 18.0312 111.133C18.248 110.828 18.5879 110.676 19.0508 110.676C19.5098 110.676 19.8477 110.823 20.0645 111.118C20.2812 111.411 20.3926 111.864 20.3984 112.478V113.181ZM19.8564 112.439C19.8564 111.98 19.792 111.646 19.6631 111.438C19.5342 111.227 19.3301 111.121 19.0508 111.121C18.7734 111.121 18.5713 111.226 18.4443 111.435C18.3174 111.644 18.252 111.965 18.248 112.398V113.266C18.248 113.727 18.3145 114.067 18.4473 114.288C18.582 114.507 18.7852 114.616 19.0566 114.616C19.3242 114.616 19.5225 114.513 19.6514 114.306C19.7822 114.099 19.8506 113.772 19.8564 113.327V112.439ZM35.7676 113.181C35.7676 113.815 35.6592 114.287 35.4424 114.596C35.2256 114.904 34.8867 115.059 34.4258 115.059C33.9707 115.059 33.6338 114.908 33.415 114.607C33.1963 114.305 33.083 113.854 33.0752 113.254V112.53C33.0752 111.903 33.1836 111.438 33.4004 111.133C33.6172 110.828 33.957 110.676 34.4199 110.676C34.8789 110.676 35.2168 110.823 35.4336 111.118C35.6504 111.411 35.7617 111.864 35.7676 112.478V113.181ZM35.2256 112.439C35.2256 111.98 35.1611 111.646 35.0322 111.438C34.9033 111.227 34.6992 111.121 34.4199 111.121C34.1426 111.121 33.9404 111.226 33.8135 111.435C33.6865 111.644 33.6211 111.965 33.6172 112.398V113.266C33.6172 113.727 33.6836 114.067 33.8164 114.288C33.9512 114.507 34.1543 114.616 34.4258 114.616C34.6934 114.616 34.8916 114.513 35.0205 114.306C35.1514 114.099 35.2197 113.772 35.2256 113.327V112.439ZM50.2432 115H49.6982V111.388L48.6055 111.789V111.297L50.1582 110.714H50.2432V115ZM66.5059 113.181C66.5059 113.815 66.3975 114.287 66.1807 114.596C65.9639 114.904 65.625 115.059 65.1641 115.059C64.709 115.059 64.3721 114.908 64.1533 114.607C63.9346 114.305 63.8213 113.854 63.8135 113.254V112.53C63.8135 111.903 63.9219 111.438 64.1387 111.133C64.3555 110.828 64.6953 110.676 65.1582 110.676C65.6172 110.676 65.9551 110.823 66.1719 111.118C66.3887 111.411 66.5 111.864 66.5059 112.478V113.181ZM65.9639 112.439C65.9639 111.98 65.8994 111.646 65.7705 111.438C65.6416 111.227 65.4375 111.121 65.1582 111.121C64.8809 111.121 64.6787 111.226 64.5518 111.435C64.4248 111.644 64.3594 111.965 64.3555 112.398V113.266C64.3555 113.727 64.4219 114.067 64.5547 114.288C64.6895 114.507 64.8926 114.616 65.1641 114.616C65.4316 114.616 65.6299 114.513 65.7588 114.306C65.8896 114.099 65.958 113.772 65.9639 113.327V112.439ZM81.875 113.181C81.875 113.815 81.7666 114.287 81.5498 114.596C81.333 114.904 80.9941 115.059 80.5332 115.059C80.0781 115.059 79.7412 114.908 79.5225 114.607C79.3037 114.305 79.1904 113.854 79.1826 113.254V112.53C79.1826 111.903 79.291 111.438 79.5078 111.133C79.7246 110.828 80.0645 110.676 80.5273 110.676C80.9863 110.676 81.3242 110.823 81.541 111.118C81.7578 111.411 81.8691 111.864 81.875 112.478V113.181ZM81.333 112.439C81.333 111.98 81.2686 111.646 81.1396 111.438C81.0107 111.227 80.8066 111.121 80.5273 111.121C80.25 111.121 80.0479 111.226 79.9209 111.435C79.7939 111.644 79.7285 111.965 79.7246 112.398V113.266C79.7246 113.727 79.791 114.067 79.9238 114.288C80.0586 114.507 80.2617 114.616 80.5332 114.616C80.8008 114.616 80.999 114.513 81.1279 114.306C81.2588 114.099 81.3271 113.772 81.333 113.327V112.439ZM96.3506 115H95.8057V111.388L94.7129 111.789V111.297L96.2656 110.714H96.3506V115ZM112.613 113.181C112.613 113.815 112.505 114.287 112.288 114.596C112.071 114.904 111.732 115.059 111.271 115.059C110.816 115.059 110.479 114.908 110.261 114.607C110.042 114.305 109.929 113.854 109.921 113.254V112.53C109.921 111.903 110.029 111.438 110.246 111.133C110.463 110.828 110.803 110.676 111.266 110.676C111.725 110.676 112.062 110.823 112.279 111.118C112.496 111.411 112.607 111.864 112.613 112.478V113.181ZM112.071 112.439C112.071 111.98 112.007 111.646 111.878 111.438C111.749 111.227 111.545 111.121 111.266 111.121C110.988 111.121 110.786 111.226 110.659 111.435C110.532 111.644 110.467 111.965 110.463 112.398V113.266C110.463 113.727 110.529 114.067 110.662 114.288C110.797 114.507 111 114.616 111.271 114.616C111.539 114.616 111.737 114.513 111.866 114.306C111.997 114.099 112.065 113.772 112.071 113.327V112.439ZM127.982 113.181C127.982 113.815 127.874 114.287 127.657 114.596C127.44 114.904 127.102 115.059 126.641 115.059C126.186 115.059 125.849 114.908 125.63 114.607C125.411 114.305 125.298 113.854 125.29 113.254V112.53C125.29 111.903 125.398 111.438 125.615 111.133C125.832 110.828 126.172 110.676 126.635 110.676C127.094 110.676 127.432 110.823 127.648 111.118C127.865 111.411 127.977 111.864 127.982 112.478V113.181ZM127.44 112.439C127.44 111.98 127.376 111.646 127.247 111.438C127.118 111.227 126.914 111.121 126.635 111.121C126.357 111.121 126.155 111.226 126.028 111.435C125.901 111.644 125.836 111.965 125.832 112.398V113.266C125.832 113.727 125.898 114.067 126.031 114.288C126.166 114.507 126.369 114.616 126.641 114.616C126.908 114.616 127.106 114.513 127.235 114.306C127.366 114.099 127.435 113.772 127.44 113.327V112.439ZM4.13574 130H3.59082V126.388L2.49805 126.789V126.297L4.05078 125.714H4.13574V130ZM20.3984 128.181C20.3984 128.815 20.29 129.287 20.0732 129.596C19.8564 129.904 19.5176 130.059 19.0566 130.059C18.6016 130.059 18.2646 129.908 18.0459 129.607C17.8271 129.305 17.7139 128.854 17.7061 128.254V127.53C17.7061 126.903 17.8145 126.438 18.0312 126.133C18.248 125.828 18.5879 125.676 19.0508 125.676C19.5098 125.676 19.8477 125.823 20.0645 126.118C20.2812 126.411 20.3926 126.864 20.3984 127.478V128.181ZM19.8564 127.439C19.8564 126.98 19.792 126.646 19.6631 126.438C19.5342 126.227 19.3301 126.121 19.0508 126.121C18.7734 126.121 18.5713 126.226 18.4443 126.435C18.3174 126.644 18.252 126.965 18.248 127.398V128.266C18.248 128.727 18.3145 129.067 18.4473 129.288C18.582 129.507 18.7852 129.616 19.0566 129.616C19.3242 129.616 19.5225 129.513 19.6514 129.306C19.7822 129.099 19.8506 128.772 19.8564 128.327V127.439ZM35.7676 128.181C35.7676 128.815 35.6592 129.287 35.4424 129.596C35.2256 129.904 34.8867 130.059 34.4258 130.059C33.9707 130.059 33.6338 129.908 33.415 129.607C33.1963 129.305 33.083 128.854 33.0752 128.254V127.53C33.0752 126.903 33.1836 126.438 33.4004 126.133C33.6172 125.828 33.957 125.676 34.4199 125.676C34.8789 125.676 35.2168 125.823 35.4336 126.118C35.6504 126.411 35.7617 126.864 35.7676 127.478V128.181ZM35.2256 127.439C35.2256 126.98 35.1611 126.646 35.0322 126.438C34.9033 126.227 34.6992 126.121 34.4199 126.121C34.1426 126.121 33.9404 126.226 33.8135 126.435C33.6865 126.644 33.6211 126.965 33.6172 127.398V128.266C33.6172 128.727 33.6836 129.067 33.8164 129.288C33.9512 129.507 34.1543 129.616 34.4258 129.616C34.6934 129.616 34.8916 129.513 35.0205 129.306C35.1514 129.099 35.2197 128.772 35.2256 128.327V127.439ZM50.2432 130H49.6982V126.388L48.6055 126.789V126.297L50.1582 125.714H50.2432V130ZM66.5059 128.181C66.5059 128.815 66.3975 129.287 66.1807 129.596C65.9639 129.904 65.625 130.059 65.1641 130.059C64.709 130.059 64.3721 129.908 64.1533 129.607C63.9346 129.305 63.8213 128.854 63.8135 128.254V127.53C63.8135 126.903 63.9219 126.438 64.1387 126.133C64.3555 125.828 64.6953 125.676 65.1582 125.676C65.6172 125.676 65.9551 125.823 66.1719 126.118C66.3887 126.411 66.5 126.864 66.5059 127.478V128.181ZM65.9639 127.439C65.9639 126.98 65.8994 126.646 65.7705 126.438C65.6416 126.227 65.4375 126.121 65.1582 126.121C64.8809 126.121 64.6787 126.226 64.5518 126.435C64.4248 126.644 64.3594 126.965 64.3555 127.398V128.266C64.3555 128.727 64.4219 129.067 64.5547 129.288C64.6895 129.507 64.8926 129.616 65.1641 129.616C65.4316 129.616 65.6299 129.513 65.7588 129.306C65.8896 129.099 65.958 128.772 65.9639 128.327V127.439ZM80.9814 130H80.4365V126.388L79.3438 126.789V126.297L80.8965 125.714H80.9814V130ZM96.3506 130H95.8057V126.388L94.7129 126.789V126.297L96.2656 125.714H96.3506V130ZM111.72 130H111.175V126.388L110.082 126.789V126.297L111.635 125.714H111.72V130ZM127.982 128.181C127.982 128.815 127.874 129.287 127.657 129.596C127.44 129.904 127.102 130.059 126.641 130.059C126.186 130.059 125.849 129.908 125.63 129.607C125.411 129.305 125.298 128.854 125.29 128.254V127.53C125.29 126.903 125.398 126.438 125.615 126.133C125.832 125.828 126.172 125.676 126.635 125.676C127.094 125.676 127.432 125.823 127.648 126.118C127.865 126.411 127.977 126.864 127.982 127.478V128.181ZM127.44 127.439C127.44 126.98 127.376 126.646 127.247 126.438C127.118 126.227 126.914 126.121 126.635 126.121C126.357 126.121 126.155 126.226 126.028 126.435C125.901 126.644 125.836 126.965 125.832 127.398V128.266C125.832 128.727 125.898 129.067 126.031 129.288C126.166 129.507 126.369 129.616 126.641 129.616C126.908 129.616 127.106 129.513 127.235 129.306C127.366 129.099 127.435 128.772 127.44 128.327V127.439ZM5.0293 143.181C5.0293 143.815 4.9209 144.287 4.7041 144.596C4.4873 144.904 4.14844 145.059 3.6875 145.059C3.23242 145.059 2.89551 144.908 2.67676 144.607C2.45801 144.305 2.34473 143.854 2.33691 143.254V142.53C2.33691 141.903 2.44531 141.438 2.66211 141.133C2.87891 140.828 3.21875 140.676 3.68164 140.676C4.14062 140.676 4.47852 140.823 4.69531 141.118C4.91211 141.411 5.02344 141.864 5.0293 142.478V143.181ZM4.4873 142.439C4.4873 141.98 4.42285 141.646 4.29395 141.438C4.16504 141.227 3.96094 141.121 3.68164 141.121C3.4043 141.121 3.20215 141.226 3.0752 141.435C2.94824 141.644 2.88281 141.965 2.87891 142.398V143.266C2.87891 143.727 2.94531 144.067 3.07812 144.288C3.21289 144.507 3.41602 144.616 3.6875 144.616C3.95508 144.616 4.15332 144.513 4.28223 144.306C4.41309 144.099 4.48145 143.772 4.4873 143.327V142.439ZM19.5049 145H18.96V141.388L17.8672 141.789V141.297L19.4199 140.714H19.5049V145ZM35.7676 143.181C35.7676 143.815 35.6592 144.287 35.4424 144.596C35.2256 144.904 34.8867 145.059 34.4258 145.059C33.9707 145.059 33.6338 144.908 33.415 144.607C33.1963 144.305 33.083 143.854 33.0752 143.254V142.53C33.0752 141.903 33.1836 141.438 33.4004 141.133C33.6172 140.828 33.957 140.676 34.4199 140.676C34.8789 140.676 35.2168 140.823 35.4336 141.118C35.6504 141.411 35.7617 141.864 35.7676 142.478V143.181ZM35.2256 142.439C35.2256 141.98 35.1611 141.646 35.0322 141.438C34.9033 141.227 34.6992 141.121 34.4199 141.121C34.1426 141.121 33.9404 141.226 33.8135 141.435C33.6865 141.644 33.6211 141.965 33.6172 142.398V143.266C33.6172 143.727 33.6836 144.067 33.8164 144.288C33.9512 144.507 34.1543 144.616 34.4258 144.616C34.6934 144.616 34.8916 144.513 35.0205 144.306C35.1514 144.099 35.2197 143.772 35.2256 143.327V142.439ZM51.1367 143.181C51.1367 143.815 51.0283 144.287 50.8115 144.596C50.5947 144.904 50.2559 145.059 49.7949 145.059C49.3398 145.059 49.0029 144.908 48.7842 144.607C48.5654 144.305 48.4521 143.854 48.4443 143.254V142.53C48.4443 141.903 48.5527 141.438 48.7695 141.133C48.9863 140.828 49.3262 140.676 49.7891 140.676C50.248 140.676 50.5859 140.823 50.8027 141.118C51.0195 141.411 51.1309 141.864 51.1367 142.478V143.181ZM50.5947 142.439C50.5947 141.98 50.5303 141.646 50.4014 141.438C50.2725 141.227 50.0684 141.121 49.7891 141.121C49.5117 141.121 49.3096 141.226 49.1826 141.435C49.0557 141.644 48.9902 141.965 48.9863 142.398V143.266C48.9863 143.727 49.0527 144.067 49.1855 144.288C49.3203 144.507 49.5234 144.616 49.7949 144.616C50.0625 144.616 50.2607 144.513 50.3896 144.306C50.5205 144.099 50.5889 143.772 50.5947 143.327V142.439ZM65.6123 145H65.0674V141.388L63.9746 141.789V141.297L65.5273 140.714H65.6123V145ZM81.875 143.181C81.875 143.815 81.7666 144.287 81.5498 144.596C81.333 144.904 80.9941 145.059 80.5332 145.059C80.0781 145.059 79.7412 144.908 79.5225 144.607C79.3037 144.305 79.1904 143.854 79.1826 143.254V142.53C79.1826 141.903 79.291 141.438 79.5078 141.133C79.7246 140.828 80.0645 140.676 80.5273 140.676C80.9863 140.676 81.3242 140.823 81.541 141.118C81.7578 141.411 81.8691 141.864 81.875 142.478V143.181ZM81.333 142.439C81.333 141.98 81.2686 141.646 81.1396 141.438C81.0107 141.227 80.8066 141.121 80.5273 141.121C80.25 141.121 80.0479 141.226 79.9209 141.435C79.7939 141.644 79.7285 141.965 79.7246 142.398V143.266C79.7246 143.727 79.791 144.067 79.9238 144.288C80.0586 144.507 80.2617 144.616 80.5332 144.616C80.8008 144.616 80.999 144.513 81.1279 144.306C81.2588 144.099 81.3271 143.772 81.333 143.327V142.439ZM96.3506 145H95.8057V141.388L94.7129 141.789V141.297L96.2656 140.714H96.3506V145ZM112.613 143.181C112.613 143.815 112.505 144.287 112.288 144.596C112.071 144.904 111.732 145.059 111.271 145.059C110.816 145.059 110.479 144.908 110.261 144.607C110.042 144.305 109.929 143.854 109.921 143.254V142.53C109.921 141.903 110.029 141.438 110.246 141.133C110.463 140.828 110.803 140.676 111.266 140.676C111.725 140.676 112.062 140.823 112.279 141.118C112.496 141.411 112.607 141.864 112.613 142.478V143.181ZM112.071 142.439C112.071 141.98 112.007 141.646 111.878 141.438C111.749 141.227 111.545 141.121 111.266 141.121C110.988 141.121 110.786 141.226 110.659 141.435C110.532 141.644 110.467 141.965 110.463 142.398V143.266C110.463 143.727 110.529 144.067 110.662 144.288C110.797 144.507 111 144.616 111.271 144.616C111.539 144.616 111.737 144.513 111.866 144.306C111.997 144.099 112.065 143.772 112.071 143.327V142.439ZM127.089 145H126.544V141.388L125.451 141.789V141.297L127.004 140.714H127.089V145ZM4.13574 160H3.59082V156.388L2.49805 156.789V156.297L4.05078 155.714H4.13574V160ZM20.3984 158.181C20.3984 158.815 20.29 159.287 20.0732 159.596C19.8564 159.904 19.5176 160.059 19.0566 160.059C18.6016 160.059 18.2646 159.908 18.0459 159.607C17.8271 159.305 17.7139 158.854 17.7061 158.254V157.53C17.7061 156.903 17.8145 156.438 18.0312 156.133C18.248 155.828 18.5879 155.676 19.0508 155.676C19.5098 155.676 19.8477 155.823 20.0645 156.118C20.2812 156.411 20.3926 156.864 20.3984 157.478V158.181ZM19.8564 157.439C19.8564 156.98 19.792 156.646 19.6631 156.438C19.5342 156.227 19.3301 156.121 19.0508 156.121C18.7734 156.121 18.5713 156.226 18.4443 156.435C18.3174 156.644 18.252 156.965 18.248 157.398V158.266C18.248 158.727 18.3145 159.067 18.4473 159.288C18.582 159.507 18.7852 159.616 19.0566 159.616C19.3242 159.616 19.5225 159.513 19.6514 159.306C19.7822 159.099 19.8506 158.772 19.8564 158.327V157.439ZM35.7676 158.181C35.7676 158.815 35.6592 159.287 35.4424 159.596C35.2256 159.904 34.8867 160.059 34.4258 160.059C33.9707 160.059 33.6338 159.908 33.415 159.607C33.1963 159.305 33.083 158.854 33.0752 158.254V157.53C33.0752 156.903 33.1836 156.438 33.4004 156.133C33.6172 155.828 33.957 155.676 34.4199 155.676C34.8789 155.676 35.2168 155.823 35.4336 156.118C35.6504 156.411 35.7617 156.864 35.7676 157.478V158.181ZM35.2256 157.439C35.2256 156.98 35.1611 156.646 35.0322 156.438C34.9033 156.227 34.6992 156.121 34.4199 156.121C34.1426 156.121 33.9404 156.226 33.8135 156.435C33.6865 156.644 33.6211 156.965 33.6172 157.398V158.266C33.6172 158.727 33.6836 159.067 33.8164 159.288C33.9512 159.507 34.1543 159.616 34.4258 159.616C34.6934 159.616 34.8916 159.513 35.0205 159.306C35.1514 159.099 35.2197 158.772 35.2256 158.327V157.439ZM50.2432 160H49.6982V156.388L48.6055 156.789V156.297L50.1582 155.714H50.2432V160ZM66.5059 158.181C66.5059 158.815 66.3975 159.287 66.1807 159.596C65.9639 159.904 65.625 160.059 65.1641 160.059C64.709 160.059 64.3721 159.908 64.1533 159.607C63.9346 159.305 63.8213 158.854 63.8135 158.254V157.53C63.8135 156.903 63.9219 156.438 64.1387 156.133C64.3555 155.828 64.6953 155.676 65.1582 155.676C65.6172 155.676 65.9551 155.823 66.1719 156.118C66.3887 156.411 66.5 156.864 66.5059 157.478V158.181ZM65.9639 157.439C65.9639 156.98 65.8994 156.646 65.7705 156.438C65.6416 156.227 65.4375 156.121 65.1582 156.121C64.8809 156.121 64.6787 156.226 64.5518 156.435C64.4248 156.644 64.3594 156.965 64.3555 157.398V158.266C64.3555 158.727 64.4219 159.067 64.5547 159.288C64.6895 159.507 64.8926 159.616 65.1641 159.616C65.4316 159.616 65.6299 159.513 65.7588 159.306C65.8896 159.099 65.958 158.772 65.9639 158.327V157.439ZM80.9814 160H80.4365V156.388L79.3438 156.789V156.297L80.8965 155.714H80.9814V160ZM96.3506 160H95.8057V156.388L94.7129 156.789V156.297L96.2656 155.714H96.3506V160ZM111.72 160H111.175V156.388L110.082 156.789V156.297L111.635 155.714H111.72V160ZM127.982 158.181C127.982 158.815 127.874 159.287 127.657 159.596C127.44 159.904 127.102 160.059 126.641 160.059C126.186 160.059 125.849 159.908 125.63 159.607C125.411 159.305 125.298 158.854 125.29 158.254V157.53C125.29 156.903 125.398 156.438 125.615 156.133C125.832 155.828 126.172 155.676 126.635 155.676C127.094 155.676 127.432 155.823 127.648 156.118C127.865 156.411 127.977 156.864 127.982 157.478V158.181ZM127.44 157.439C127.44 156.98 127.376 156.646 127.247 156.438C127.118 156.227 126.914 156.121 126.635 156.121C126.357 156.121 126.155 156.226 126.028 156.435C125.901 156.644 125.836 156.965 125.832 157.398V158.266C125.832 158.727 125.898 159.067 126.031 159.288C126.166 159.507 126.369 159.616 126.641 159.616C126.908 159.616 127.106 159.513 127.235 159.306C127.366 159.099 127.435 158.772 127.44 158.327V157.439ZM4.13574 175H3.59082V171.388L2.49805 171.789V171.297L4.05078 170.714H4.13574V175ZM19.5049 175H18.96V171.388L17.8672 171.789V171.297L19.4199 170.714H19.5049V175ZM35.7676 173.181C35.7676 173.815 35.6592 174.287 35.4424 174.596C35.2256 174.904 34.8867 175.059 34.4258 175.059C33.9707 175.059 33.6338 174.908 33.415 174.607C33.1963 174.305 33.083 173.854 33.0752 173.254V172.53C33.0752 171.903 33.1836 171.438 33.4004 171.133C33.6172 170.828 33.957 170.676 34.4199 170.676C34.8789 170.676 35.2168 170.823 35.4336 171.118C35.6504 171.411 35.7617 171.864 35.7676 172.478V173.181ZM35.2256 172.439C35.2256 171.98 35.1611 171.646 35.0322 171.438C34.9033 171.227 34.6992 171.121 34.4199 171.121C34.1426 171.121 33.9404 171.226 33.8135 171.435C33.6865 171.644 33.6211 171.965 33.6172 172.398V173.266C33.6172 173.727 33.6836 174.067 33.8164 174.288C33.9512 174.507 34.1543 174.616 34.4258 174.616C34.6934 174.616 34.8916 174.513 35.0205 174.306C35.1514 174.099 35.2197 173.772 35.2256 173.327V172.439ZM51.1367 173.181C51.1367 173.815 51.0283 174.287 50.8115 174.596C50.5947 174.904 50.2559 175.059 49.7949 175.059C49.3398 175.059 49.0029 174.908 48.7842 174.607C48.5654 174.305 48.4521 173.854 48.4443 173.254V172.53C48.4443 171.903 48.5527 171.438 48.7695 171.133C48.9863 170.828 49.3262 170.676 49.7891 170.676C50.248 170.676 50.5859 170.823 50.8027 171.118C51.0195 171.411 51.1309 171.864 51.1367 172.478V173.181ZM50.5947 172.439C50.5947 171.98 50.5303 171.646 50.4014 171.438C50.2725 171.227 50.0684 171.121 49.7891 171.121C49.5117 171.121 49.3096 171.226 49.1826 171.435C49.0557 171.644 48.9902 171.965 48.9863 172.398V173.266C48.9863 173.727 49.0527 174.067 49.1855 174.288C49.3203 174.507 49.5234 174.616 49.7949 174.616C50.0625 174.616 50.2607 174.513 50.3896 174.306C50.5205 174.099 50.5889 173.772 50.5947 173.327V172.439ZM66.5059 173.181C66.5059 173.815 66.3975 174.287 66.1807 174.596C65.9639 174.904 65.625 175.059 65.1641 175.059C64.709 175.059 64.3721 174.908 64.1533 174.607C63.9346 174.305 63.8213 173.854 63.8135 173.254V172.53C63.8135 171.903 63.9219 171.438 64.1387 171.133C64.3555 170.828 64.6953 170.676 65.1582 170.676C65.6172 170.676 65.9551 170.823 66.1719 171.118C66.3887 171.411 66.5 171.864 66.5059 172.478V173.181ZM65.9639 172.439C65.9639 171.98 65.8994 171.646 65.7705 171.438C65.6416 171.227 65.4375 171.121 65.1582 171.121C64.8809 171.121 64.6787 171.226 64.5518 171.435C64.4248 171.644 64.3594 171.965 64.3555 172.398V173.266C64.3555 173.727 64.4219 174.067 64.5547 174.288C64.6895 174.507 64.8926 174.616 65.1641 174.616C65.4316 174.616 65.6299 174.513 65.7588 174.306C65.8896 174.099 65.958 173.772 65.9639 173.327V172.439ZM80.9814 175H80.4365V171.388L79.3438 171.789V171.297L80.8965 170.714H80.9814V175ZM96.3506 175H95.8057V171.388L94.7129 171.789V171.297L96.2656 170.714H96.3506V175ZM112.613 173.181C112.613 173.815 112.505 174.287 112.288 174.596C112.071 174.904 111.732 175.059 111.271 175.059C110.816 175.059 110.479 174.908 110.261 174.607C110.042 174.305 109.929 173.854 109.921 173.254V172.53C109.921 171.903 110.029 171.438 110.246 171.133C110.463 170.828 110.803 170.676 111.266 170.676C111.725 170.676 112.062 170.823 112.279 171.118C112.496 171.411 112.607 171.864 112.613 172.478V173.181ZM112.071 172.439C112.071 171.98 112.007 171.646 111.878 171.438C111.749 171.227 111.545 171.121 111.266 171.121C110.988 171.121 110.786 171.226 110.659 171.435C110.532 171.644 110.467 171.965 110.463 172.398V173.266C110.463 173.727 110.529 174.067 110.662 174.288C110.797 174.507 111 174.616 111.271 174.616C111.539 174.616 111.737 174.513 111.866 174.306C111.997 174.099 112.065 173.772 112.071 173.327V172.439ZM127.982 173.181C127.982 173.815 127.874 174.287 127.657 174.596C127.44 174.904 127.102 175.059 126.641 175.059C126.186 175.059 125.849 174.908 125.63 174.607C125.411 174.305 125.298 173.854 125.29 173.254V172.53C125.29 171.903 125.398 171.438 125.615 171.133C125.832 170.828 126.172 170.676 126.635 170.676C127.094 170.676 127.432 170.823 127.648 171.118C127.865 171.411 127.977 171.864 127.982 172.478V173.181ZM127.44 172.439C127.44 171.98 127.376 171.646 127.247 171.438C127.118 171.227 126.914 171.121 126.635 171.121C126.357 171.121 126.155 171.226 126.028 171.435C125.901 171.644 125.836 171.965 125.832 172.398V173.266C125.832 173.727 125.898 174.067 126.031 174.288C126.166 174.507 126.369 174.616 126.641 174.616C126.908 174.616 127.106 174.513 127.235 174.306C127.366 174.099 127.435 173.772 127.44 173.327V172.439Z" fill="#202121"/>
</g>
<defs>
<clipPath id="clip0_715:2969">
<rect width="60" height="60" fill="white"/>
</clipPath>
</defs>
</svg>
