<svg width="10" height="10" viewBox="0 0 10 10" fill="none" xmlns="http://www.w3.org/2000/svg">
<path d="M6.3115 2.31011C6.22868 2.22482 6.11589 2.17516 5.99705 2.17166C5.87822 2.16816 5.7627 2.21111 5.67501 2.29138C5.63231 2.33244 5.59824 2.38161 5.57477 2.43601C5.55131 2.4904 5.53893 2.54893 5.53836 2.60816C5.53779 2.6674 5.54904 2.72616 5.57145 2.78099C5.59386 2.83583 5.62698 2.88565 5.66888 2.92753L7.35121 4.60986C7.38613 4.64467 7.40993 4.68906 7.4196 4.73741C7.42926 4.78576 7.42436 4.83589 7.4055 4.88145C7.38664 4.927 7.35468 4.96594 7.31367 4.99331C7.27266 5.02068 7.22445 5.03527 7.17514 5.03521L1.64457 5.03521C1.52565 5.03351 1.41075 5.07823 1.32428 5.15988C1.2378 5.24152 1.18655 5.35366 1.18142 5.47248C1.18014 5.53173 1.19079 5.59063 1.21273 5.64568C1.23466 5.70073 1.26745 5.75081 1.30912 5.79294L1.31185 5.79566C1.35318 5.83715 1.40234 5.87002 1.45647 5.89235C1.51061 5.91468 1.56864 5.92604 1.6272 5.92575L7.17514 5.9261C7.22455 5.9259 7.2729 5.94041 7.31403 5.96777C7.35517 5.99514 7.38723 6.03412 7.40614 6.07976C7.42506 6.12541 7.42997 6.17564 7.42025 6.22408C7.41052 6.27252 7.38661 6.31698 7.35155 6.35179L5.66956 8.03378C5.62751 8.07549 5.59429 8.12523 5.57189 8.18006C5.54948 8.23488 5.53834 8.29365 5.53913 8.35287C5.53916 8.41214 5.55125 8.47079 5.57467 8.52524C5.59809 8.57969 5.63234 8.6288 5.67535 8.66959C5.76307 8.74989 5.87862 8.79288 5.99749 8.78945C6.11637 8.78601 6.22924 8.73643 6.31218 8.6512L9.1667 5.79669C9.25007 5.71295 9.29694 5.59964 9.29706 5.48147C9.29719 5.36331 9.25057 5.24989 9.16738 5.16598L6.3115 2.31011Z" fill="white"/>
</svg>
