<svg width="16" height="16" viewBox="0 0 16 16" fill="none" xmlns="http://www.w3.org/2000/svg">
<path d="M7.99998 1C4.98192 1 2.53271 3.40181 2.53271 6.34086C2.53271 7.51016 2.91195 8.61625 3.62301 9.53273L7.58915 14.7946C7.68396 14.921 7.84197 15 7.99998 15C8.158 15 8.31601 14.921 8.41082 14.7946L12.377 9.53273C13.088 8.60045 13.4673 7.49436 13.4673 6.34086C13.4673 3.386 11.018 1 7.99998 1ZM7.99998 8.93228C6.48305 8.93228 5.23475 7.69977 5.23475 6.16704C5.23475 4.65011 6.46725 3.40181 7.99998 3.40181C9.51691 3.40181 10.7652 4.63431 10.7652 6.16704C10.7652 7.68397 9.51691 8.93228 7.99998 8.93228Z" fill="#ED1C24"/>
</svg>
