<svg width="11" height="11" viewBox="0 0 11 11" fill="none" xmlns="http://www.w3.org/2000/svg">
<path d="M7.06883 3.0689C6.986 2.98361 6.87321 2.93395 6.75438 2.93045C6.63555 2.92695 6.52003 2.96989 6.43233 3.05017C6.38964 3.09123 6.35556 3.1404 6.3321 3.19479C6.30863 3.24919 6.29625 3.30772 6.29568 3.36695C6.29511 3.42619 6.30636 3.48495 6.32877 3.53978C6.35118 3.59462 6.38431 3.64444 6.4262 3.68632L8.10853 5.36865C8.14346 5.40345 8.16726 5.44785 8.17692 5.4962C8.18659 5.54455 8.18168 5.59468 8.16282 5.64023C8.14396 5.68579 8.11201 5.72473 8.071 5.7521C8.02999 5.77947 7.98177 5.79406 7.93247 5.794L2.40189 5.794C2.28297 5.7923 2.16808 5.83702 2.0816 5.91867C1.99512 6.00031 1.94388 6.11245 1.93874 6.23127C1.93746 6.29052 1.94811 6.34942 1.97005 6.40447C1.99199 6.45952 2.02477 6.5096 2.06645 6.55173L2.06917 6.55445C2.1105 6.59594 2.15966 6.6288 2.2138 6.65114C2.26793 6.67347 2.32596 6.68482 2.38452 6.68454L7.93247 6.68488C7.98187 6.68469 8.03022 6.6992 8.07135 6.72656C8.11249 6.75393 8.14455 6.79291 8.16347 6.83855C8.18238 6.8842 8.18729 6.93443 8.17757 6.98287C8.16785 7.03131 8.14393 7.07577 8.10887 7.11057L6.42688 8.79256C6.38484 8.83427 6.35162 8.88402 6.32921 8.93885C6.3068 8.99367 6.29566 9.05244 6.29645 9.11166C6.29648 9.17093 6.30858 9.22958 6.332 9.28403C6.35541 9.33848 6.38967 9.38759 6.43267 9.42838C6.5204 9.50868 6.63594 9.55167 6.75482 9.54824C6.8737 9.5448 6.98657 9.49522 7.06951 9.40999L9.92402 6.55547C10.0074 6.47174 10.0543 6.35843 10.0544 6.24026C10.0545 6.1221 10.0079 6.00868 9.9247 5.92477L7.06883 3.0689Z" fill="#202121"/>
</svg>
