<svg width="16" height="16" viewBox="0 0 16 16" fill="none" xmlns="http://www.w3.org/2000/svg">
<path d="M8.55193 7.54809V4.83854H6.77501V8.45127C6.77501 8.69081 6.86861 8.92054 7.03523 9.08992C7.20185 9.2593 7.42783 9.35446 7.66347 9.35446H10.7731V7.54809H8.55193Z" fill="#202121"/>
<path d="M11.4394 14.0962C12.0528 14.0962 12.55 13.5907 12.55 12.9672C12.55 12.3437 12.0528 11.8382 11.4394 11.8382C10.8261 11.8382 10.3289 12.3437 10.3289 12.9672C10.3289 13.5907 10.8261 14.0962 11.4394 14.0962Z" fill="#202121"/>
<path d="M8.1077 13.193C7.2237 13.1924 6.35498 12.9587 5.58645 12.5146C4.81792 12.0706 4.1759 11.4314 3.72314 10.6596C3.24707 10.9869 2.68533 11.1615 2.11058 11.1608C2.06171 11.1608 2.01285 11.1608 1.96398 11.1608C2.62698 12.4973 3.69483 13.5819 5.01011 14.2547C6.32539 14.9275 7.81851 15.1529 9.26936 14.8978C8.8499 14.4178 8.59775 13.8107 8.55193 13.1704C8.412 13.193 8.26096 13.193 8.1077 13.193Z" fill="#202121"/>
<path d="M8.1077 1C6.74693 0.999965 5.41665 1.40981 4.28484 2.17779C3.15304 2.94577 2.27045 4.03744 1.74853 5.31497C2.36844 5.23054 2.99835 5.35845 3.53878 5.6785C3.82856 5.0519 4.23867 4.49052 4.745 4.0274C5.25132 3.56428 5.84363 3.20876 6.48709 2.98175C7.13055 2.75475 7.81217 2.66083 8.49186 2.70554C9.17155 2.75024 9.83558 2.93266 10.4449 3.24207C11.0542 3.55148 11.5965 3.98163 12.0399 4.50721C12.4833 5.0328 12.8189 5.64321 13.0268 6.30255C13.2347 6.96189 13.3109 7.65684 13.2507 8.34653C13.1906 9.03623 12.9954 9.70673 12.6766 10.3186C13.248 10.5925 13.7159 11.0483 14.0093 11.6169C14.6401 10.5546 14.9818 9.34095 14.9993 8.10024C15.0168 6.85952 14.7096 5.63637 14.1091 4.55608C13.5086 3.47578 12.6364 2.57718 11.5819 1.95232C10.5273 1.32745 9.32831 0.998793 8.1077 1Z" fill="#202121"/>
<path d="M2.11058 9.35446C2.72393 9.35446 3.22116 8.849 3.22116 8.22548C3.22116 7.60196 2.72393 7.0965 2.11058 7.0965C1.49722 7.0965 1 7.60196 1 8.22548C1 8.849 1.49722 9.35446 2.11058 9.35446Z" fill="#202121"/>
</svg>
