<svg width="20" height="16" viewBox="0 0 20 16" fill="none" xmlns="http://www.w3.org/2000/svg">
<g clip-path="url(#clip0)">
<path d="M16.3817 1H3.15097C2.25332 1 1.39243 1.36055 0.757688 2.00235C0.12295 2.64414 -0.233643 3.51459 -0.233643 4.42222V11.5778C-0.233643 12.4854 0.12295 13.3559 0.757688 13.9977C1.39243 14.6394 2.25332 15 3.15097 15H16.3817C17.2794 15 18.1403 14.6394 18.775 13.9977C19.4098 13.3559 19.7664 12.4854 19.7664 11.5778V4.42222C19.7664 3.51459 19.4098 2.64414 18.775 2.00235C18.1403 1.36055 17.2794 1 16.3817 1ZM10.6125 9.55556L7.61251 11.1111V4.88889L10.6125 6.44444L13.6125 8L10.6125 9.55556Z" fill="#ED1C24"/>
</g>
<defs>
<clipPath id="clip0">
<rect width="20" height="16" fill="white"/>
</clipPath>
</defs>
</svg>
