<svg width="16" height="16" viewBox="0 0 16 16" fill="none" xmlns="http://www.w3.org/2000/svg">
<path d="M14.4129 5.6712C13.3309 3.20047 10.8653 1.46826 8 1.46826C5.13469 1.46826 2.66906 3.20047 1.58711 5.6712C1.5861 5.67349 1.5849 5.67547 1.58393 5.6778C1.21024 6.53357 1 7.47635 1 8.46826C1 9.46017 1.21024 10.4029 1.58393 11.2587C1.5849 11.2611 1.5861 11.263 1.58711 11.2653C2.66906 13.7361 5.13469 15.4683 8 15.4683C10.8653 15.4683 13.3309 13.7361 14.4129 11.2653C14.4139 11.263 14.4151 11.2611 14.4161 11.2587C14.7898 10.4029 15 9.46017 15 8.46826C15 7.47635 14.7898 6.53357 14.4161 5.6778C14.4151 5.67547 14.4139 5.67349 14.4129 5.6712ZM8 14.1955C7.49632 14.1955 6.84671 13.257 6.4498 11.6501H9.5502C9.15329 13.257 8.50368 14.1955 8 14.1955ZM6.2124 10.3774C6.136 9.79424 6.09091 9.1569 6.09091 8.46826C6.09091 7.77962 6.136 7.14228 6.2124 6.55917H9.7876C9.864 7.14228 9.90909 7.77962 9.90909 8.46826C9.90909 9.1569 9.864 9.79424 9.7876 10.3774H6.2124ZM2.27273 8.46826C2.27273 7.79815 2.39445 7.15735 2.60691 6.55917H4.93513C4.85757 7.18621 4.81818 7.83097 4.81818 8.46826C4.81818 9.10556 4.85757 9.75031 4.93513 10.3774H2.60691C2.39445 9.77917 2.27273 9.13838 2.27273 8.46826ZM8 2.74099C8.50368 2.74099 9.15329 3.67957 9.5502 5.28644H6.4498C6.84671 3.67957 7.49632 2.74099 8 2.74099ZM11.0649 6.55917H13.3931C13.6055 7.15735 13.7273 7.79815 13.7273 8.46826C13.7273 9.13838 13.6055 9.77917 13.3931 10.3774H11.0649C11.1424 9.75031 11.1818 9.10556 11.1818 8.46826C11.1818 7.83097 11.1424 7.18621 11.0649 6.55917ZM12.7588 5.28644H10.8469C10.6707 4.48811 10.4252 3.75663 10.1144 3.15048C11.1963 3.58228 12.118 4.33128 12.7588 5.28644ZM5.88556 3.15048C5.57476 3.75663 5.32932 4.48811 5.1531 5.28644H3.24122C3.88201 4.33128 4.80366 3.58228 5.88556 3.15048ZM3.24122 11.6501H5.1531C5.32932 12.4484 5.57476 13.1799 5.88556 13.786C4.80366 13.3542 3.88201 12.6052 3.24122 11.6501ZM10.1144 13.786C10.4252 13.1799 10.6707 12.4484 10.8469 11.6501H12.7588C12.118 12.6052 11.1963 13.3542 10.1144 13.786Z" fill="#ED1C24"/>
</svg>
