<svg width="24" height="24" viewBox="0 0 24 24" fill="none" xmlns="http://www.w3.org/2000/svg">
<path d="M22.9276 7.36712L17.4712 1.91053C16.8273 1.26658 15.7767 0.859887 14.726 0.859887C14.3871 0.859887 14.0482 0.893756 13.7432 0.995432L13.5059 1.06323C12.9637 1.23269 12.3197 1.5377 11.7097 1.9444C10.6252 1.46991 9.64237 0.96153 9.20179 0.825962L8.96453 0.758216C8.11725 0.487081 6.86329 0.792097 6.21936 1.43604L0.762954 6.89264C0.119024 7.53658 -0.186004 8.75668 0.119015 9.63787L0.220684 9.97681C0.491813 10.8241 1.23742 12.0781 1.91524 12.722L3.0336 13.8405C2.79636 14.62 2.93197 15.4334 3.50812 15.9756C3.77925 16.2468 4.11808 16.4162 4.49089 16.5179C3.44026 17.5686 3.30471 19.0598 4.18588 19.941C4.55868 20.3138 5.06709 20.5172 5.60935 20.5172C5.88048 20.5172 6.15154 20.4833 6.38878 20.3816C6.38878 20.9239 6.59217 21.4322 6.96497 21.805C7.33777 22.1779 7.84618 22.3812 8.38844 22.3812C8.8968 22.3812 9.439 22.2117 9.91347 21.9067C9.98126 22.3134 10.1507 22.6863 10.4557 22.9574C10.8285 23.3302 11.3031 23.5336 11.8792 23.5336C12.5909 23.5336 13.3026 23.2285 13.8788 22.6523L14.1838 22.3473C14.5227 22.4151 14.8955 22.3812 15.2344 22.1779L15.4377 22.0423C16.0139 21.7034 16.2511 21.0256 16.0817 20.4155L16.2173 20.2799C16.6917 20.6527 17.3356 20.6866 17.844 20.3816L18.0473 20.246C18.7251 19.8393 18.9624 18.9581 18.5558 18.2464L18.454 18.043L18.5896 17.8736C19.0302 18.1787 19.6402 18.2125 20.1147 17.9075L20.3181 17.7719C20.9959 17.3652 21.2331 16.484 20.8264 15.7723L20.7587 15.6706L20.962 15.4673C21.4026 15.7045 21.9448 15.7045 22.3854 15.4334L22.5887 15.2978C23.2665 14.8911 23.5038 14.0099 23.0971 13.2982L22.9615 13.0949C23.3005 12.5187 23.6054 11.9086 23.7749 11.4003L23.8766 11.0952C24.2155 9.90903 23.8427 8.2822 22.9276 7.36712ZM22.8938 10.8241L22.7921 11.163C22.6905 11.468 22.521 11.8408 22.3176 12.1798L21.877 11.4341C21.4703 10.7563 20.5553 10.5191 19.8775 10.9258L19.6741 11.0613C18.9963 11.468 18.7591 12.3831 19.1658 13.0609L20.1825 14.7895L20.1485 14.8233L19.2335 13.2643C18.8268 12.5865 17.9118 12.3492 17.234 12.7559L17.0306 12.8915C16.3528 13.2982 16.1156 14.2133 16.5223 14.8911L17.844 17.0941L17.8101 17.128L17.3017 16.2807C16.895 15.6029 16.0139 15.3656 15.3021 15.7723L15.0988 15.9079C14.421 16.3146 14.1838 17.1958 14.5905 17.8736L15.5055 19.3988L15.4717 19.4326L15.3021 19.1615C14.8954 18.4836 14.0143 18.2464 13.3026 18.6531L13.0992 18.7887C12.4214 19.1954 12.1842 20.1104 12.5909 20.7883L13.0992 21.6017C13.1331 21.6356 13.167 21.6695 13.2009 21.7034L13.0653 21.839C12.6925 22.2118 12.2181 22.4151 11.7775 22.4151C11.5064 22.4151 11.2352 22.3134 11.0658 22.144C10.8285 21.9067 10.7607 21.5678 10.8285 21.1611C10.8624 20.9916 10.9302 20.7883 10.998 20.6189C10.998 20.585 11.0319 20.585 11.0319 20.5511C11.0658 20.4833 11.0996 20.4155 11.1674 20.3477C11.2352 20.246 11.303 20.1782 11.3708 20.1105L14.421 17.0602L13.8109 16.4501L9.60847 20.6527C9.23567 21.0255 8.76117 21.2289 8.32059 21.2289C8.04946 21.2289 7.77836 21.1272 7.60891 20.9577C7.13443 20.4833 7.26999 19.5682 7.91391 18.9243L8.04951 18.7887L8.15118 18.687L12.1164 14.7217L11.5064 14.1116L6.82938 18.7887C6.45658 19.1615 5.94819 19.3648 5.5415 19.3648C5.27037 19.3648 4.99927 19.2631 4.82982 19.0937C4.35534 18.6192 4.49089 17.7041 5.13482 17.0941L9.81181 12.417L9.20179 11.807L6.15162 14.8572C5.77882 15.23 5.30432 15.4334 4.86374 15.4334C4.59261 15.4334 4.32151 15.3317 4.15206 15.1623C4.01649 15.0267 3.91476 14.8233 3.88087 14.62C3.84698 14.4505 3.8809 14.2811 3.9148 14.1116C3.9148 14.0777 3.9148 14.0777 3.9148 14.0438C3.9148 14.0099 3.94862 13.9421 3.94862 13.9082C3.98251 13.8404 4.01639 13.7727 4.05029 13.7049C4.05029 13.671 4.08421 13.6371 4.08421 13.6032C4.1181 13.5354 4.15199 13.5015 4.18588 13.4337C4.21977 13.3999 4.21984 13.3999 4.25373 13.366C4.32151 13.2982 4.38928 13.2304 4.45707 13.1626L7.50724 10.1124L7.20223 9.80734C7.03278 9.63788 6.93108 9.46839 6.8633 9.29893L5.03315 10.3496C4.76203 10.5191 4.42319 10.5868 4.15206 10.5868C3.6098 10.5868 3.10135 10.3496 2.79633 9.87514C2.35575 9.16341 2.62696 8.24833 3.40645 7.80773L8.82894 4.75743C8.99839 4.96078 9.20182 5.16413 9.43905 5.33359L12.9636 7.67214C14.0143 8.38387 15.4039 8.1805 16.0139 7.23153C16.624 6.28255 16.285 4.96081 15.2344 4.24908L12.6248 2.52056C13.0315 2.28331 13.4381 2.08 13.8109 1.97833L14.0482 1.91053C14.2515 1.84274 14.4887 1.80886 14.7599 1.80886C15.5055 1.80886 16.3189 2.11387 16.7934 2.58835L22.2499 8.04495C22.8938 8.72279 23.1649 9.94292 22.8938 10.8241Z" fill="#FCFCFC"/>
</svg>
