<svg width="16" height="16" viewBox="0 0 16 16" fill="none" xmlns="http://www.w3.org/2000/svg">
<path d="M4.2055 6.76555C4.19136 6.76527 4.17742 6.769 4.16532 6.77632C4.15321 6.78364 4.14344 6.79424 4.13712 6.8069C4.13014 6.81899 4.12646 6.8327 4.12646 6.84665C4.12646 6.86061 4.13014 6.87432 4.13712 6.88641L7.78203 12.357C7.78941 12.3671 7.79909 12.3754 7.81028 12.3812C7.82148 12.3869 7.83387 12.3898 7.84644 12.3898C7.85901 12.3898 7.8714 12.3869 7.8826 12.3812C7.89379 12.3754 7.90347 12.3671 7.91085 12.357L11.5558 6.88641C11.5627 6.87432 11.5664 6.86061 11.5664 6.84665C11.5664 6.8327 11.5627 6.81899 11.5558 6.8069C11.5494 6.79424 11.5397 6.78364 11.5276 6.77632C11.5155 6.769 11.5015 6.76527 11.4874 6.76555H10.1285C10.023 6.76555 9.92192 6.72366 9.84736 6.64911C9.77281 6.57455 9.73092 6.47342 9.73092 6.36798V1.07951C9.73092 1.05843 9.72254 1.0382 9.70763 1.02329C9.69272 1.00838 9.67249 1 9.6514 1H6.04625C6.02516 1 6.00493 1.00838 5.99002 1.02329C5.97511 1.0382 5.96673 1.05843 5.96673 1.07951V6.36957C5.96673 6.47501 5.92485 6.57614 5.85029 6.6507C5.77573 6.72525 5.6746 6.76714 5.56916 6.76714L4.2055 6.76555Z" fill="#ED1C24"/>
<path d="M3.48822 14.0236C3.35873 14.0236 3.23455 14.075 3.14299 14.1666C3.05144 14.2581 3 14.3823 3 14.5118C3 14.6413 3.05144 14.7654 3.14299 14.857C3.23455 14.9486 3.35873 15 3.48822 15H12.2125C12.342 15 12.4661 14.9486 12.5577 14.857C12.6493 14.7654 12.7007 14.6413 12.7007 14.5118C12.7007 14.3823 12.6493 14.2581 12.5577 14.1666C12.4661 14.075 12.342 14.0236 12.2125 14.0236H3.48822Z" fill="#ED1C24"/>
</svg>
