<svg width="16" height="16" viewBox="0 0 16 16" fill="none" xmlns="http://www.w3.org/2000/svg">
<g clip-path="url(#clip0)">
<path d="M10.878 12.3936C10.6487 11.9578 10.0754 11.7743 9.61672 11.9578L9.525 11.9808C9.06634 12.1642 8.51594 11.9808 8.26368 11.545L5.51173 6.68306C5.2824 6.24732 5.39706 5.674 5.78692 5.37586L5.85571 5.32998C6.24557 5.03185 6.38319 4.45852 6.13093 4.02278L4.64027 1.38539C4.41094 0.972586 3.97524 0.949677 3.70004 1.33955L2.36993 3.22009C2.09473 3.60996 1.93418 4.34383 2.02591 4.82544C2.02591 4.82544 2.36991 6.61427 4.57147 10.4901C6.77304 14.3658 8.05729 15.4896 8.05729 15.4896C8.42422 15.8107 9.13513 16.04 9.61672 15.9942L11.933 15.8107C12.4146 15.7648 12.621 15.3979 12.3687 14.9621L10.878 12.3936ZM14.1345 14.4117L12.4145 11.3615C12.2999 11.1551 12.0247 11.0634 11.7954 11.1552L11.4514 11.3157C11.245 11.4074 11.1532 11.6597 11.2679 11.8661L13.0337 15.008C13.1484 15.2144 13.4236 15.2832 13.63 15.1685L13.951 14.9851C14.1804 14.8933 14.2492 14.6181 14.1345 14.4117ZM6.79597 3.95399C6.91064 4.16039 7.1629 4.22918 7.3693 4.09158L7.66744 3.88515C7.87383 3.74755 7.94263 3.47237 7.80503 3.26597L6.08506 0.215788C5.97039 0.00938488 5.69521 -0.0594329 5.48881 0.0552354L5.16775 0.238709C4.96135 0.353377 4.89254 0.628603 5.0072 0.835006L6.79597 3.95399Z" fill="#202121"/>
</g>
<defs>
<clipPath id="clip0">
<rect width="16" height="16" fill="white"/>
</clipPath>
</defs>
</svg>
