<svg width="25" height="16" viewBox="0 0 25 16" fill="none" xmlns="http://www.w3.org/2000/svg">
<path d="M2.95205 13.128C2.74938 13.128 2.53071 13.1067 2.29605 13.064C2.07205 13.0213 1.84805 12.9467 1.62405 12.84V15.96H0.248047V3.60798C0.248047 2.59465 0.49338 1.83732 0.984047 1.33598C1.47471 0.834651 2.12005 0.583984 2.92005 0.583984C3.78405 0.583984 4.44538 0.850651 4.90405 1.38398C5.36271 1.90665 5.59205 2.59998 5.59205 3.46398C5.59205 4.07198 5.45338 4.60532 5.17605 5.06398C4.90938 5.52265 4.56271 5.86398 4.13605 6.08798C4.75471 6.30132 5.24538 6.69065 5.60805 7.25598C5.97071 7.82132 6.15205 8.53598 6.15205 9.39998C6.15205 9.97598 6.07205 10.4933 5.91205 10.952C5.76271 11.4107 5.54938 11.8053 5.27205 12.136C4.99471 12.456 4.65871 12.7013 4.26405 12.872C3.86938 13.0427 3.43205 13.128 2.95205 13.128ZM1.62405 11.656C1.79471 11.7413 1.97605 11.8053 2.16805 11.848C2.36005 11.8907 2.53071 11.912 2.68005 11.912C3.35205 11.912 3.85871 11.6987 4.20005 11.272C4.55205 10.8453 4.72805 10.2213 4.72805 9.39998C4.72805 9.02665 4.69071 8.67998 4.61605 8.35998C4.54138 8.03998 4.41871 7.76265 4.24805 7.52798C4.07738 7.29332 3.85871 7.11198 3.59205 6.98398C3.33605 6.84532 3.02138 6.77598 2.64805 6.77598V5.63998C3.07471 5.63998 3.43738 5.47465 3.73605 5.14398C4.04538 4.80265 4.20005 4.26932 4.20005 3.54398C4.20005 2.99998 4.09338 2.56798 3.88005 2.24798C3.67738 1.91732 3.35738 1.75198 2.92005 1.75198C2.51471 1.75198 2.19471 1.90132 1.96005 2.19998C1.73605 2.49865 1.62405 2.96798 1.62405 3.60798V11.656Z" fill="#FCFCFC"/>
<path d="M9.11392 9.20798C9.12459 9.61332 9.16192 9.98665 9.22592 10.328C9.28992 10.6587 9.39125 10.952 9.52992 11.208C9.67925 11.4533 9.87125 11.6453 10.1059 11.784C10.3513 11.9227 10.6606 11.992 11.0339 11.992C11.3433 11.992 11.6259 11.9493 11.8819 11.864C12.1486 11.768 12.3406 11.688 12.4579 11.624L12.7139 12.728C12.5753 12.824 12.3406 12.9253 12.0099 13.032C11.6899 13.1493 11.3059 13.208 10.8579 13.208C10.2713 13.208 9.77526 13.1013 9.36992 12.888C8.97525 12.6747 8.64992 12.376 8.39392 11.992C8.14859 11.608 7.97259 11.1493 7.86592 10.616C7.75926 10.0827 7.70592 9.49598 7.70592 8.85598C7.70592 7.30932 7.96192 6.17865 8.47392 5.46398C8.98592 4.74932 9.66326 4.39198 10.5059 4.39198C11.4553 4.39198 12.1273 4.74932 12.5219 5.46398C12.9166 6.17865 13.1139 7.18132 13.1139 8.47198C13.1139 8.58932 13.1139 8.71198 13.1139 8.83998C13.1139 8.95732 13.1086 9.07998 13.0979 9.20798H9.11392ZM10.5059 5.55998C10.0473 5.55998 9.71126 5.78932 9.49792 6.24798C9.29526 6.70665 9.17259 7.31998 9.12992 8.08798H11.6739C11.6739 7.30932 11.5939 6.69598 11.4339 6.24798C11.2739 5.78932 10.9646 5.55998 10.5059 5.55998Z" fill="#FCFCFC"/>
<path d="M16.4187 4.59998H18.5307V5.78398H16.4187V10.408C16.4187 10.984 16.52 11.3893 16.7227 11.624C16.936 11.848 17.2187 11.96 17.5707 11.96C17.752 11.96 17.9227 11.9333 18.0827 11.88C18.2533 11.8267 18.3973 11.7627 18.5147 11.688L18.7867 12.792C18.3493 13.048 17.8853 13.176 17.3947 13.176C16.6053 13.176 16.0133 12.9573 15.6187 12.52C15.2347 12.072 15.0427 11.336 15.0427 10.312V2.34398L16.4187 2.10398V4.59998Z" fill="#FCFCFC"/>
<path d="M20.4073 4.77598C20.6846 4.65865 20.978 4.56798 21.2873 4.50398C21.5966 4.42932 21.9326 4.39198 22.2953 4.39198C23.042 4.39198 23.65 4.62665 24.1193 5.09598C24.5886 5.55465 24.8233 6.27465 24.8233 7.25598V12.824C24.4393 12.9307 24.0446 13.016 23.6393 13.08C23.2446 13.144 22.8553 13.176 22.4713 13.176C22.0873 13.176 21.7246 13.128 21.3833 13.032C21.0526 12.936 20.7593 12.7813 20.5033 12.568C20.258 12.3547 20.0606 12.088 19.9113 11.768C19.762 11.4373 19.6873 11.0373 19.6873 10.568C19.6873 10.1307 19.7513 9.75198 19.8793 9.43198C20.018 9.10132 20.2046 8.82932 20.4393 8.61598C20.674 8.39198 20.9513 8.22665 21.2713 8.11998C21.5913 8.00265 21.938 7.94398 22.3113 7.94398C22.6633 7.94398 23.0526 7.98665 23.4793 8.07198V7.30398C23.4793 6.68532 23.3566 6.25332 23.1113 6.00798C22.8766 5.76265 22.5353 5.63998 22.0873 5.63998C21.842 5.63998 21.6073 5.66665 21.3833 5.71998C21.17 5.76265 20.9406 5.83732 20.6953 5.94398L20.4073 4.77598ZM21.0633 10.552C21.0633 11.0427 21.1913 11.4053 21.4473 11.64C21.7033 11.8747 22.066 11.992 22.5353 11.992C22.8233 11.992 23.138 11.9547 23.4793 11.88V9.20798C23.1593 9.12265 22.8446 9.07998 22.5353 9.07998C22.3326 9.07998 22.1406 9.10665 21.9593 9.15998C21.778 9.20265 21.618 9.28265 21.4793 9.39998C21.3513 9.50665 21.25 9.65598 21.1753 9.84798C21.1006 10.0293 21.0633 10.264 21.0633 10.552Z" fill="#FCFCFC"/>
</svg>
