<svg width="59" height="24" viewBox="0 0 59 24" fill="none" xmlns="http://www.w3.org/2000/svg">
<path d="M38.5538 15.5956C38.5538 16.8497 38.4423 17.9925 38.2194 19.0241C37.9964 20.0355 37.6519 20.9053 37.1858 21.6335C36.7399 22.3617 36.1623 22.9281 35.4529 23.3326C34.7638 23.7372 33.943 23.9395 32.9905 23.9395C32.0379 23.9395 31.207 23.7372 30.4976 23.3326C29.7883 22.9281 29.2005 22.3617 28.7344 21.6335C28.2885 20.9053 27.9541 20.0355 27.7311 19.0241C27.5082 17.9925 27.3967 16.8497 27.3967 15.5956C27.3967 14.3617 27.5082 13.2289 27.7311 12.1973C27.9541 11.1657 28.2885 10.2858 28.7344 9.55759C29.2005 8.80916 29.7883 8.23267 30.4976 7.82812C31.207 7.42356 32.0379 7.22129 32.9905 7.22129C33.943 7.22129 34.7638 7.42356 35.4529 7.82812C36.1623 8.23267 36.7399 8.80916 37.1858 9.55759C37.6519 10.2858 37.9964 11.1657 38.2194 12.1973C38.4423 13.2289 38.5538 14.3617 38.5538 15.5956ZM35.8177 15.5956C35.8177 14.7055 35.7671 13.8964 35.6657 13.1682C35.5644 12.4198 35.4022 11.7826 35.1793 11.2567C34.9564 10.7106 34.6625 10.2959 34.2977 10.0127C33.9329 9.70929 33.4971 9.55759 32.9905 9.55759C32.4635 9.55759 32.0176 9.70929 31.6528 10.0127C31.3083 10.2959 31.0144 10.7106 30.7712 11.2567C30.5483 11.7826 30.3861 12.4198 30.2848 13.1682C30.1835 13.8964 30.1328 14.7055 30.1328 15.5956C30.1328 16.4856 30.1835 17.3048 30.2848 18.0532C30.3861 18.7814 30.5483 19.4085 30.7712 19.9344C31.0144 20.4603 31.3083 20.875 31.6528 21.1784C32.0176 21.4616 32.4635 21.6032 32.9905 21.6032C33.4971 21.6032 33.9329 21.4616 34.2977 21.1784C34.6625 20.875 34.9564 20.4603 35.1793 19.9344C35.4022 19.4085 35.5644 18.7814 35.6657 18.0532C35.7671 17.3048 35.8177 16.4856 35.8177 15.5956Z" fill="#818285"/>
<path d="M47.0323 0C47.62 0 48.1368 0.0606829 48.5827 0.182049C49.0286 0.303415 49.3934 0.434895 49.6771 0.576489L49.1299 2.63971C48.8462 2.49812 48.5523 2.39698 48.2483 2.3363C47.9443 2.25539 47.62 2.21493 47.2755 2.21493C46.8093 2.21493 46.4242 2.29584 46.1202 2.45766C45.8162 2.61949 45.5832 2.84199 45.421 3.12518C45.2589 3.40837 45.1474 3.75224 45.0866 4.15679C45.0258 4.54112 44.9954 4.95579 44.9954 5.40079V7.61573H49.0995V9.861H44.9954V23.545H42.381V5.40079C42.381 3.68144 42.766 2.35653 43.5362 1.42605C44.3063 0.475351 45.4717 0 47.0323 0Z" fill="#818285"/>
<path d="M54.1054 7.61573H58.1183V9.861H54.1054V18.6297C54.1054 19.722 54.2979 20.4907 54.683 20.9357C55.0884 21.3604 55.6255 21.5728 56.2943 21.5728C56.6388 21.5728 56.9631 21.5223 57.2671 21.4211C57.5914 21.32 57.865 21.1986 58.0879 21.057L58.6047 23.1506C57.7738 23.6361 56.8921 23.8788 55.9599 23.8788C54.4601 23.8788 53.3353 23.4641 52.5854 22.6348C51.8558 21.7852 51.491 20.3895 51.491 18.4477V3.33757L54.1054 2.88245V7.61573Z" fill="#818285"/>
<path d="M7.66098 24.0001C5.18839 24.0001 3.29341 23.0797 1.97605 21.239C0.658682 19.3983 0 16.5563 0 12.713C0 10.7509 0.182404 9.09224 0.547213 7.73699C0.932288 6.38173 1.45923 5.27932 2.12805 4.42976C2.79686 3.58019 3.58728 2.97336 4.4993 2.60926C5.41133 2.22494 6.40442 2.03278 7.47857 2.03278C8.37033 2.03278 9.20128 2.15414 9.97143 2.39688C10.7416 2.61938 11.3699 2.90257 11.8563 3.24644L11.0355 5.52205C10.549 5.19841 10.0221 4.93545 9.45462 4.73317C8.90741 4.5309 8.26899 4.42976 7.53937 4.42976C5.918 4.42976 4.74251 5.10739 4.01289 6.46264C3.28328 7.79767 2.91847 9.88112 2.91847 12.713C2.91847 15.5651 3.30354 17.7598 4.07369 19.2971C4.84385 20.8344 6.10041 21.6031 7.84338 21.6031C8.67433 21.6031 9.34315 21.5019 9.84983 21.2997C10.3768 21.0974 10.8835 20.8344 11.3699 20.5108L12.1299 22.665C11.6637 23.0291 11.0456 23.3427 10.2754 23.6056C9.52555 23.8686 8.65407 24.0001 7.66098 24.0001Z" fill="#ED1C24"/>
<path d="M18.3402 21.6638C19.4346 21.6638 20.2757 21.3603 20.8634 20.7535C21.4714 20.1467 21.7755 19.3275 21.7755 18.2958C21.7755 17.7497 21.6843 17.2642 21.5018 16.8395C21.3194 16.4147 21.0762 16.0303 20.7722 15.6865C20.4885 15.3426 20.1541 15.0291 19.769 14.7459C19.3839 14.4627 18.9887 14.1795 18.5834 13.8963C18.1172 13.5727 17.6308 13.2288 17.1241 12.8647C16.6175 12.5006 16.1513 12.0758 15.7257 11.5904C15.3204 11.1049 14.986 10.5385 14.7225 9.89124C14.459 9.24395 14.3273 8.48541 14.3273 7.61562C14.3273 6.76606 14.4692 5.99741 14.7529 5.30966C15.0569 4.62192 15.4622 4.03532 15.9689 3.54985C16.4959 3.06439 17.114 2.69018 17.8234 2.42722C18.553 2.16426 19.3333 2.03278 20.1642 2.03278C20.9749 2.03278 21.7248 2.13391 22.4139 2.33619C23.103 2.53847 23.6806 2.7812 24.1467 3.06439L23.2955 5.21864C22.8699 4.93545 22.4037 4.72306 21.8971 4.58147C21.4106 4.41965 20.8938 4.33873 20.3466 4.33873C19.3535 4.33873 18.553 4.61181 17.945 5.15796C17.3572 5.68388 17.0633 6.46264 17.0633 7.49425C17.0633 8.06063 17.1545 8.55621 17.337 8.98099C17.5396 9.40577 17.793 9.7901 18.097 10.134C18.4212 10.4778 18.7861 10.7914 19.1914 11.0746C19.617 11.3577 20.0629 11.651 20.529 11.9545C20.9952 12.2579 21.4714 12.5916 21.9579 12.9557C22.4443 13.3198 22.88 13.7446 23.2651 14.2301C23.6704 14.6953 23.9947 15.2516 24.2379 15.8989C24.5014 16.5259 24.6331 17.2743 24.6331 18.1441C24.6331 18.933 24.5115 19.6814 24.2683 20.3894C24.0251 21.0974 23.64 21.7244 23.1131 22.2706C22.6064 22.7965 21.9579 23.2213 21.1674 23.5449C20.3973 23.8483 19.4853 24.0001 18.4314 24.0001C17.4586 24.0001 16.6073 23.8888 15.8777 23.6663C15.1481 23.4438 14.4996 23.1505 13.9321 22.7864L14.7833 20.6018C15.3102 20.9254 15.8473 21.1884 16.3945 21.3907C16.962 21.5727 17.6106 21.6638 18.3402 21.6638Z" fill="#ED1C24"/>
</svg>
