<svg width="80" height="49" viewBox="0 0 80 49" fill="none" xmlns="http://www.w3.org/2000/svg">
<path d="M52.426 21.1706C52.426 22.8731 52.2747 24.4245 51.972 25.8249C51.6694 27.1978 51.2017 28.3785 50.5689 29.3671C49.9636 30.3556 49.1795 31.1244 48.2166 31.6736C47.2812 32.2228 46.167 32.4973 44.8739 32.4973C43.5808 32.4973 42.4528 32.2228 41.4899 31.6736C40.527 31.1244 39.7291 30.3556 39.0963 29.3671C38.4911 28.3785 38.0371 27.1978 37.7345 25.8249C37.4318 24.4245 37.2805 22.8731 37.2805 21.1706C37.2805 19.4957 37.4318 17.958 37.7345 16.5576C38.0371 15.1572 38.4911 13.9627 39.0963 12.9742C39.7291 11.9583 40.527 11.1757 41.4899 10.6265C42.4528 10.0773 43.5808 9.80274 44.8739 9.80274C46.167 9.80274 47.2812 10.0773 48.2166 10.6265C49.1795 11.1757 49.9636 11.9583 50.5689 12.9742C51.2017 13.9627 51.6694 15.1572 51.972 16.5576C52.2747 17.958 52.426 19.4957 52.426 21.1706ZM48.7118 21.1706C48.7118 19.9625 48.6431 18.8641 48.5055 17.8756C48.3679 16.8596 48.1478 15.9947 47.8452 15.2808C47.5426 14.5394 47.1436 13.9765 46.6484 13.592C46.1532 13.1802 45.5617 12.9742 44.8739 12.9742C44.1586 12.9742 43.5533 13.1802 43.0581 13.592C42.5904 13.9765 42.1914 14.5394 41.8613 15.2808C41.5587 15.9947 41.3386 16.8596 41.201 17.8756C41.0634 18.8641 40.9947 19.9625 40.9947 21.1706C40.9947 22.3788 41.0634 23.4909 41.201 24.5069C41.3386 25.4954 41.5587 26.3466 41.8613 27.0605C42.1914 27.7744 42.5904 28.3373 43.0581 28.7492C43.5533 29.1336 44.1586 29.3259 44.8739 29.3259C45.5617 29.3259 46.1532 29.1336 46.6484 28.7492C47.1436 28.3373 47.5426 27.7744 47.8452 27.0605C48.1478 26.3466 48.3679 25.4954 48.5055 24.5069C48.6431 23.4909 48.7118 22.3788 48.7118 21.1706Z" fill="#818285"/>
<path d="M63.9353 0C64.7332 0 65.4347 0.0823758 66.04 0.247127C66.6453 0.411879 67.1405 0.59036 67.5257 0.782572L66.7829 3.58336C66.3977 3.39115 65.9987 3.25385 65.5861 3.17147C65.1734 3.06164 64.7332 3.00673 64.2655 3.00673C63.6327 3.00673 63.11 3.11656 62.6973 3.33623C62.2846 3.5559 61.9682 3.85794 61.7481 4.24236C61.528 4.62679 61.3767 5.09358 61.2942 5.64276C61.2116 6.16447 61.1704 6.72737 61.1704 7.33146V10.3382H66.7416V13.3861H61.1704V31.9619H57.6213V7.33146C57.6213 4.99748 58.144 3.19893 59.1895 1.93584C60.2349 0.645279 61.8169 0 63.9353 0Z" fill="#818285"/>
<path d="M73.537 10.3382H78.9844V13.3861H73.537V25.2894C73.537 26.7722 73.7984 27.8156 74.3211 28.4197C74.8713 28.9964 75.6004 29.2847 76.5083 29.2847C76.976 29.2847 77.4162 29.216 77.8289 29.0787C78.2691 28.9414 78.6405 28.7767 78.9431 28.5845L79.6447 31.4264C78.5167 32.0855 77.3199 32.415 76.0544 32.415C74.0185 32.415 72.4915 31.8521 71.4736 30.7263C70.4831 29.573 69.9879 27.6783 69.9879 25.0423V4.53068L73.537 3.91286V10.3382Z" fill="#818285"/>
<path d="M10.489 32.5797C7.13254 32.5797 4.56015 31.3303 2.77186 28.8316C0.983563 26.3329 0.0894165 22.4749 0.0894165 17.2578C0.0894165 14.5943 0.337027 12.3427 0.832246 10.5029C1.35498 8.6632 2.0703 7.1667 2.9782 6.01343C3.8861 4.86017 4.95908 4.03641 6.19713 3.54215C7.43518 3.02044 8.78327 2.75958 10.2414 2.75958C11.452 2.75958 12.58 2.92433 13.6254 3.25384C14.6709 3.55588 15.5238 3.94031 16.1841 4.4071L15.0698 7.4962C14.4095 7.05687 13.6942 6.6999 12.9239 6.42532C12.181 6.15073 11.3144 6.01343 10.324 6.01343C8.12298 6.01343 6.52727 6.9333 5.53683 8.77303C4.54639 10.5853 4.05117 13.4135 4.05117 17.2578C4.05117 21.1294 4.57391 24.1087 5.61937 26.1956C6.66484 28.2824 8.37059 29.3258 10.7366 29.3258C11.8646 29.3258 12.7725 29.1886 13.4604 28.914C14.1757 28.6394 14.8635 28.2824 15.5238 27.8431L16.5555 30.7674C15.9227 31.2617 15.0836 31.6873 14.0381 32.0443C13.0202 32.4012 11.8371 32.5797 10.489 32.5797Z" fill="#ED1C24"/>
<path d="M24.9858 29.4082C26.4715 29.4082 27.6132 28.9963 28.4111 28.1726C29.2365 27.3488 29.6491 26.2367 29.6491 24.8364C29.6491 24.095 29.5253 23.436 29.2777 22.8593C29.0301 22.2827 28.7 21.761 28.2873 21.2942C27.9021 20.8274 27.4482 20.4018 26.9254 20.0174C26.4027 19.6329 25.8662 19.2485 25.316 18.8641C24.6832 18.4248 24.0229 17.958 23.3351 17.4637C22.6473 16.9694 22.0145 16.3928 21.4367 15.7338C20.8865 15.0748 20.4325 14.306 20.0749 13.4273C19.7172 12.5486 19.5384 11.5189 19.5384 10.3382C19.5384 9.18491 19.731 8.14148 20.1162 7.20789C20.5288 6.27429 21.0791 5.47799 21.7669 4.81898C22.4822 4.15998 23.3213 3.65199 24.2843 3.29503C25.2747 2.93806 26.3339 2.75958 27.4619 2.75958C28.5624 2.75958 29.5804 2.89688 30.5158 3.17146C31.4512 3.44605 32.2353 3.77555 32.8681 4.15998L31.7126 7.08432C31.1348 6.6999 30.502 6.41159 29.8142 6.21938C29.1539 5.99971 28.4524 5.88987 27.7095 5.88987C26.3614 5.88987 25.2747 6.26056 24.4493 7.00195C23.6515 7.71587 23.2525 8.77303 23.2525 10.1734C23.2525 10.9423 23.3764 11.615 23.624 12.1916C23.8991 12.7683 24.243 13.29 24.6557 13.7568C25.0959 14.2236 25.5911 14.6492 26.1413 15.0336C26.7191 15.418 27.3244 15.8162 27.9571 16.2281C28.5899 16.6399 29.2365 17.093 29.8967 17.5873C30.557 18.0815 31.1486 18.6582 31.6713 19.3172C32.2215 19.9487 32.6617 20.7038 32.9919 21.5825C33.3495 22.4337 33.5284 23.4497 33.5284 24.6304C33.5284 25.7013 33.3633 26.7173 33.0331 27.6783C32.703 28.6394 32.1803 29.4906 31.4649 30.232C30.7771 30.9459 29.8967 31.5225 28.8238 31.9619C27.7783 32.3738 26.5403 32.5797 25.1096 32.5797C23.789 32.5797 22.6335 32.4287 21.6431 32.1266C20.6526 31.8246 19.7723 31.4264 19.0019 30.9322L20.1574 27.9666C20.8727 28.406 21.6018 28.7629 22.3446 29.0375C23.115 29.2847 23.9954 29.4082 24.9858 29.4082Z" fill="#ED1C24"/>
<path d="M2.46578 42.4202H0.887269V47.0642H0V41.6582H2.46578V42.4202Z" fill="#202121"/>
<path d="M5.22101 46.2507C5.42047 46.3605 5.63369 46.4155 5.86066 46.4155C6.03262 46.4155 6.18393 46.3811 6.31462 46.3125C6.4453 46.2438 6.55535 46.1306 6.64476 45.9727C6.74106 45.8148 6.81328 45.6054 6.86142 45.3446C6.90957 45.0837 6.93364 44.7611 6.93364 44.3767C6.93364 43.6353 6.83735 43.1067 6.64476 42.7909C6.45906 42.4683 6.15986 42.3069 5.74718 42.3069C5.67152 42.3069 5.58898 42.3138 5.49957 42.3275C5.41015 42.3344 5.3173 42.3516 5.22101 42.379V46.2507ZM5.22101 48.9691H4.33374V41.8024C4.52632 41.72 4.74298 41.6548 4.98371 41.6068C5.23132 41.5518 5.48237 41.5244 5.73686 41.5244C6.11515 41.5244 6.43842 41.5896 6.70667 41.72C6.98179 41.8504 7.20188 42.0392 7.36696 42.2864C7.53891 42.5266 7.66271 42.8252 7.73837 43.1822C7.82091 43.5323 7.86218 43.9339 7.86218 44.3869C7.86218 45.2999 7.7143 45.9967 7.41854 46.4772C7.12967 46.9578 6.65508 47.198 5.99479 47.198C5.83659 47.198 5.69559 47.1809 5.57179 47.1465C5.44798 47.1191 5.33105 47.0779 5.22101 47.023V48.9691Z" fill="#202121"/>
<path d="M11.2866 45.9418C11.486 45.2553 11.6683 44.5654 11.8334 43.8721C11.9984 43.1788 12.1566 42.4408 12.308 41.6582H13.1849C13.0817 42.1594 12.9682 42.6536 12.8444 43.141C12.7275 43.6284 12.6037 44.0986 12.473 44.5517C12.3492 45.0048 12.222 45.4338 12.0913 45.8388C11.9675 46.237 11.8506 46.6008 11.7405 46.9303C11.6098 47.3147 11.4826 47.6374 11.3588 47.8982C11.2419 48.1659 11.1112 48.3787 10.9667 48.5366C10.8292 48.7014 10.6779 48.8181 10.5128 48.8867C10.3477 48.9622 10.1517 49 9.92471 49C9.8009 49 9.6771 48.9828 9.55329 48.9485C9.42949 48.9211 9.32632 48.8902 9.24378 48.8558L9.40885 48.1351C9.58768 48.2106 9.75619 48.2483 9.91439 48.2483C10.1139 48.2483 10.2755 48.1762 10.3993 48.0321C10.5231 47.8879 10.6435 47.6717 10.7604 47.3834L10.8636 47.1259C10.7329 46.769 10.5988 46.3743 10.4612 45.9418C10.3305 45.5025 10.1998 45.046 10.0691 44.5723C9.94534 44.0986 9.82498 43.6147 9.70805 43.1204C9.59112 42.6193 9.48451 42.1319 9.38822 41.6582H10.3271C10.3821 41.9809 10.4474 42.3344 10.5231 42.7188C10.5988 43.1033 10.6779 43.4877 10.7604 43.8721C10.8498 44.2565 10.9392 44.6306 11.0286 44.9945C11.118 45.3514 11.204 45.6672 11.2866 45.9418Z" fill="#202121"/>
<path d="M18.3897 47.0642H17.5024V42.4202H15.9446V47.0642H15.0573V41.6582H18.3897V47.0642Z" fill="#202121"/>
<path d="M24.2551 47.0642H23.3679V42.4202H21.81V47.0642H20.9227V41.6582H24.2551V47.0642Z" fill="#202121"/>
<path d="M26.8707 41.7715C27.0495 41.696 27.2386 41.6376 27.4381 41.5965C27.6376 41.5484 27.8542 41.5244 28.0881 41.5244C28.5695 41.5244 28.9616 41.6754 29.2642 41.9774C29.5669 42.2726 29.7182 42.736 29.7182 43.3675V46.9509C29.4706 47.0195 29.2161 47.0745 28.9547 47.1157C28.7002 47.1568 28.4492 47.1774 28.2016 47.1774C27.954 47.1774 27.7201 47.1465 27.5 47.0848C27.2868 47.023 27.0976 46.9234 26.9326 46.7861C26.7744 46.6489 26.6471 46.4772 26.5508 46.2713C26.4545 46.0585 26.4064 45.8011 26.4064 45.499C26.4064 45.2176 26.4477 44.9739 26.5302 44.7679C26.6196 44.5551 26.74 44.3801 26.8913 44.2428C27.0426 44.0986 27.2215 43.9922 27.4278 43.9236C27.6341 43.8481 27.8577 43.8103 28.0984 43.8103C28.3254 43.8103 28.5764 43.8378 28.8515 43.8927V43.3984C28.8515 43.0003 28.7725 42.7223 28.6143 42.5644C28.4629 42.4065 28.2428 42.3275 27.954 42.3275C27.7958 42.3275 27.6445 42.3447 27.5 42.379C27.3624 42.4065 27.2146 42.4545 27.0564 42.5232L26.8707 41.7715ZM27.2937 45.4887C27.2937 45.8045 27.3762 46.0379 27.5413 46.1889C27.7064 46.3399 27.9402 46.4155 28.2428 46.4155C28.4285 46.4155 28.6315 46.3914 28.8515 46.3434V44.6238C28.6452 44.5689 28.4423 44.5414 28.2428 44.5414C28.1122 44.5414 27.9884 44.5586 27.8714 44.5929C27.7545 44.6203 27.6513 44.6718 27.5619 44.7473C27.4794 44.816 27.414 44.9121 27.3659 45.0357C27.3177 45.1524 27.2937 45.3034 27.2937 45.4887Z" fill="#202121"/>
<path d="M38.4867 41.6582C38.1979 42.1525 37.9193 42.6056 37.6511 43.0174C37.3897 43.4225 37.1283 43.8034 36.867 44.1604C37.032 44.3526 37.2005 44.5689 37.3725 44.8091C37.5444 45.0494 37.7095 45.2999 37.8677 45.5608C38.0259 45.8148 38.1738 46.0722 38.3113 46.3331C38.4489 46.5871 38.5658 46.8308 38.6621 47.0642H37.6923C37.5891 46.8376 37.4688 46.6008 37.3312 46.3537C37.1937 46.1065 37.0492 45.8663 36.8979 45.6329C36.7466 45.3926 36.5953 45.1661 36.444 44.9533C36.2926 44.7405 36.1516 44.562 36.021 44.4178V47.0642H35.1337V41.6582H36.021V43.9854C36.1448 43.8206 36.2754 43.6353 36.413 43.4293C36.5574 43.2234 36.6984 43.0174 36.836 42.8115C36.9736 42.5987 37.1042 42.3928 37.2281 42.1937C37.3519 41.9946 37.455 41.8161 37.5376 41.6582H38.4867Z" fill="#202121"/>
<path d="M43.8412 44.3663C43.8412 44.792 43.8034 45.1798 43.7277 45.5299C43.6521 45.8731 43.5351 46.1683 43.3769 46.4155C43.2256 46.6626 43.0296 46.8548 42.7889 46.9921C42.555 47.1294 42.2765 47.198 41.9532 47.198C41.6299 47.198 41.3479 47.1294 41.1072 46.9921C40.8665 46.8548 40.667 46.6626 40.5088 46.4155C40.3575 46.1683 40.244 45.8731 40.1683 45.5299C40.0927 45.1798 40.0548 44.792 40.0548 44.3663C40.0548 43.9476 40.0927 43.5632 40.1683 43.2131C40.244 42.863 40.3575 42.5644 40.5088 42.3172C40.667 42.0633 40.8665 41.8676 41.1072 41.7303C41.3479 41.593 41.6299 41.5244 41.9532 41.5244C42.2765 41.5244 42.555 41.593 42.7889 41.7303C43.0296 41.8676 43.2256 42.0633 43.3769 42.3172C43.5351 42.5644 43.6521 42.863 43.7277 43.2131C43.8034 43.5632 43.8412 43.9476 43.8412 44.3663ZM42.9127 44.3663C42.9127 44.0643 42.8955 43.7897 42.8611 43.5426C42.8267 43.2886 42.7717 43.0724 42.696 42.8939C42.6204 42.7085 42.5206 42.5678 42.3968 42.4717C42.273 42.3687 42.1251 42.3172 41.9532 42.3172C41.7744 42.3172 41.623 42.3687 41.4992 42.4717C41.3823 42.5678 41.2826 42.7085 41.2 42.8939C41.1244 43.0724 41.0694 43.2886 41.035 43.5426C41.0006 43.7897 40.9834 44.0643 40.9834 44.3663C40.9834 44.6684 41.0006 44.9464 41.035 45.2004C41.0694 45.4475 41.1244 45.6603 41.2 45.8388C41.2826 46.0173 41.3823 46.158 41.4992 46.261C41.623 46.3571 41.7744 46.4052 41.9532 46.4052C42.1251 46.4052 42.273 46.3571 42.3968 46.261C42.5206 46.158 42.6204 46.0173 42.696 45.8388C42.7717 45.6603 42.8267 45.4475 42.8611 45.2004C42.8955 44.9464 42.9127 44.6684 42.9127 44.3663Z" fill="#202121"/>
<path d="M48.0598 46.3434C47.991 46.0825 47.9085 45.7908 47.8122 45.4681C47.7228 45.1455 47.6299 44.8229 47.5336 44.5002C47.4373 44.1776 47.341 43.8652 47.2447 43.5632C47.1484 43.2611 47.059 43.0003 46.9765 42.7806C46.9558 43.0895 46.9387 43.4362 46.9249 43.8206C46.9111 44.1982 46.8974 44.5826 46.8836 44.9739C46.8767 45.3652 46.8699 45.7461 46.863 46.1168C46.863 46.4807 46.8596 46.7964 46.8527 47.0642H46.017C46.0239 46.6454 46.0376 46.2061 46.0583 45.7461C46.0789 45.2862 46.0995 44.8228 46.1202 44.3561C46.1477 43.8893 46.1752 43.4259 46.2027 42.966C46.2371 42.506 46.2715 42.0701 46.3059 41.6582H47.2757C47.482 42.1937 47.678 42.7532 47.8638 43.3367C48.0563 43.9201 48.2386 44.5208 48.4106 45.1386C48.5825 44.5208 48.7613 43.9201 48.947 43.3367C49.1396 42.7532 49.3391 42.1937 49.5454 41.6582H50.5152C50.5496 42.0701 50.5806 42.506 50.6081 42.966C50.6425 43.4259 50.67 43.8893 50.6906 44.3561C50.7181 44.8228 50.7388 45.2862 50.7525 45.7461C50.7732 46.2061 50.7904 46.6454 50.8041 47.0642H49.9684C49.9616 46.7964 49.9547 46.4807 49.9478 46.1168C49.9478 45.7461 49.9409 45.3652 49.9272 44.9739C49.9203 44.5826 49.91 44.1982 49.8962 43.8206C49.8825 43.4362 49.8653 43.0895 49.8446 42.7806C49.7621 43.0003 49.6727 43.2611 49.5764 43.5632C49.4801 43.8652 49.3838 44.1776 49.2875 44.5002C49.1912 44.8229 49.0949 45.1455 48.9986 45.4681C48.9092 45.7908 48.8301 46.0825 48.7613 46.3434H48.0598Z" fill="#202121"/>
<path d="M56.6266 47.0642H55.7393V42.4202H54.1814V47.0642H53.2942V41.6582H56.6266V47.0642Z" fill="#202121"/>
<path d="M59.2421 41.7715C59.4209 41.696 59.6101 41.6376 59.8096 41.5965C60.009 41.5484 60.2257 41.5244 60.4595 41.5244C60.941 41.5244 61.333 41.6754 61.6357 41.9774C61.9383 42.2726 62.0896 42.736 62.0896 43.3675V46.9509C61.842 47.0195 61.5875 47.0745 61.3262 47.1157C61.0717 47.1568 60.8206 47.1774 60.573 47.1774C60.3254 47.1774 60.0916 47.1465 59.8715 47.0848C59.6582 47.023 59.4691 46.9234 59.304 46.7861C59.1458 46.6489 59.0186 46.4772 58.9223 46.2713C58.826 46.0585 58.7778 45.8011 58.7778 45.499C58.7778 45.2176 58.8191 44.9739 58.9016 44.7679C58.9911 44.5551 59.1114 44.3801 59.2627 44.2428C59.4141 44.0986 59.5929 43.9922 59.7992 43.9236C60.0056 43.8481 60.2291 43.8103 60.4698 43.8103C60.6968 43.8103 60.9479 43.8378 61.223 43.8927V43.3984C61.223 43.0003 61.1439 42.7223 60.9857 42.5644C60.8344 42.4065 60.6143 42.3275 60.3254 42.3275C60.1672 42.3275 60.0159 42.3447 59.8715 42.379C59.7339 42.4065 59.586 42.4545 59.4278 42.5232L59.2421 41.7715ZM59.6651 45.4887C59.6651 45.8045 59.7477 46.0379 59.9127 46.1889C60.0778 46.3399 60.3116 46.4155 60.6143 46.4155C60.8 46.4155 61.0029 46.3914 61.223 46.3434V44.6238C61.0167 44.5689 60.8137 44.5414 60.6143 44.5414C60.4836 44.5414 60.3598 44.5586 60.2429 44.5929C60.1259 44.6203 60.0228 44.6718 59.9334 44.7473C59.8508 44.816 59.7855 44.9121 59.7373 45.0357C59.6892 45.1524 59.6651 45.3034 59.6651 45.4887Z" fill="#202121"/>
<path d="M68.0487 41.6582V47.0642H67.1614V44.6547H65.4488V47.0642H64.5615V41.6582H65.4488V43.8927H67.1614V41.6582H68.0487Z" fill="#202121"/>
<path d="M74.0238 41.6273V47.0642H73.1881V43.1513C73.0436 43.419 72.882 43.7245 72.7032 44.0677C72.5243 44.411 72.3455 44.7611 72.1667 45.118C71.9947 45.475 71.8297 45.8251 71.6715 46.1683C71.5201 46.5047 71.3929 46.8033 71.2897 47.0642H70.5882V41.6273H71.4135V45.1901C71.5373 44.9087 71.6818 44.6066 71.8468 44.284C72.0119 43.9545 72.1804 43.6318 72.3524 43.3161C72.5243 42.9934 72.6929 42.6879 72.8579 42.3996C73.0299 42.1044 73.1881 41.847 73.3325 41.6273H74.0238Z" fill="#202121"/>
<path d="M80 41.6273V47.0642H79.1643V43.1513C79.0199 43.419 78.8582 43.7245 78.6794 44.0677C78.5006 44.411 78.3218 44.7611 78.1429 45.118C77.971 45.475 77.8059 45.8251 77.6477 46.1683C77.4964 46.5047 77.3691 46.8033 77.266 47.0642H76.5644V41.6273H77.3898V45.1901C77.5136 44.9087 77.658 44.6066 77.8231 44.284C77.9882 43.9545 78.1567 43.6318 78.3286 43.3161C78.5006 42.9934 78.6691 42.6879 78.8342 42.3996C79.0061 42.1044 79.1643 41.847 79.3088 41.6273H80ZM78.2874 40.1446C78.4731 40.1446 78.6175 40.0862 78.7207 39.9695C78.8239 39.8528 78.8961 39.6641 78.9373 39.4032L79.5873 39.5474C79.5185 39.9936 79.3672 40.3128 79.1334 40.505C78.8995 40.6972 78.6175 40.7933 78.2874 40.7933C77.9572 40.7933 77.6752 40.6972 77.4414 40.505C77.2075 40.3128 77.0562 39.9936 76.9874 39.5474L77.6374 39.4032C77.6786 39.6641 77.7509 39.8528 77.854 39.9695C77.9572 40.0862 78.1017 40.1446 78.2874 40.1446Z" fill="#202121"/>
</svg>
