<?xml version="1.0" encoding="utf-8"?>
<!-- Generator: Adobe Illustrator 25.4.1, SVG Export Plug-In . SVG Version: 6.00 Build 0)  -->
<svg version="1.1" id="Layer_1" xmlns="http://www.w3.org/2000/svg" xmlns:xlink="http://www.w3.org/1999/xlink" x="0px" y="0px"
	 width="1749px" height="663px" viewBox="0 0 1749 663" style="enable-background:new 0 0 1749 663;" xml:space="preserve">
<style type="text/css">
	.st0{fill:#FDFDFD;}
	.st1{fill:url(#SVGID_1_);}
	.st2{fill:url(#SVGID_00000052105224380525904680000004002926031269450667_);}
	.st3{fill:url(#SVGID_00000028296470426136896710000007042515340842932910_);}
	.st4{fill:url(#SVGID_00000044154062668226118890000012477220976223931066_);}
	.st5{fill:url(#SVGID_00000076592882417458283580000011022701497913516672_);}
	.st6{fill:url(#SVGID_00000038412943504326669520000013817595988568948130_);}
	.st7{fill:url(#SVGID_00000049199061711785017600000004117310146278295213_);}
	.st8{fill:url(#SVGID_00000016779094737695308140000014069320086103093637_);}
</style>
<g>
	<path class="st0" d="M1742.3,351.5c1-0.6,2.9-1.1,1.1-2.9s-3.7-1.3-3-2.9c0.7-1.6,1.7-5.9,0.2-7.3c-1.6-1.4-2.6-0.5-2.9-1.8
		c-0.3-1.3-1.9-3.7-2.1-4.3c-0.2-0.6-3.5-2.4-5-2.6c-1.6-0.1-3.1-0.8-3.5-1.3c-0.3-0.5-4.5-0.2-4.8-1.3c-0.3-1.1-1.6-2.1,0.2-2.6
		c1.7-0.5,3.5,0.6,3.6-0.9c0.2-1.5-0.3-2.8,0-3.8c0.3-1.1,0-1.2,1.7-3c1.7-1.9,2.4-2.9,4.7-3c2.2-0.1,4-0.8,4-0.8s-7.4-4-8.4-3.7
		c-1.1,0.2-7.6-0.5-9.7-4.5c-2.1-4.1-3.5-5.9-3.3-8.3c0.2-2.3,0.3-2.8,1-4.3c0.7-1.5,1.2-1.3,2.4-1.6c1.2-0.4,2.1-2,2.2-2.6
		c0.2-0.6,1.7-1.6,1-4c-0.7-2.3-2.2-3.5-3.1-4c-0.9-0.5-7.6-1.5-9.7-2.3c-2.1-0.8-5.2-2.9-5.7-3.4c-0.5-0.5-2.9-3.3-3.6-4.3
		c-0.7-1.1-3.3-4.1-3.6-4.9c-0.3-0.8-0.9-2.2-1.6-2.6c-0.7-0.4-1.6-1.1-1-1.8c0.5-0.7,0.7-1.8,1.2-2c0.5-0.2,1.6,1.5,2.2,2.2
		c0.7,0.7,1.2,0.9,2.8,1.8c1.6,0.8,1.7,0.8,2.9,1.1c1.2,0.2,2.1,0.7,2.2-0.7c0.2-1.4,0.7-3.8-0.3-5.1c-1-1.3-2.8-2.2-3.8-1.9
		c-1,0.4-4-0.8-5.4-2.1c-1.4-1.3-1-4-3.5-2.8c-2.4,1.2-3.8,2.9-3.8,3.4c0,0.5,0.5,2.3-0.9,1.1c-1.4-1.3-5-3.7-6.9-4.6
		c-1.9-0.9-3.6-1.8-4.7-3.3c-1-1.5,0-4.1-2.2-4.3c-2.2-0.2-3.8,0.8-5,0.7c-1.2-0.1-2.2-0.1-2.8,0.6c-0.5,0.7-0.7,0.7-0.5,1.8
		c0.2,1.1,0.9,2.4,1.4,3c0.5,0.6,1.4,1.4,0.3,1.2c-1-0.2-2.2-1.4-2.2-1.4s-2.2,0.9-3.1,1.3c-0.9,0.4-1.4,0.8-2.1,0.6
		c-0.7-0.2-2.2,0.7-4.1-2.1c-1.9-2.8-3.3-7.1-3.6-7.6c-0.3-0.5-1.6-4.6-2.9-5.7c-1.4-1.1-3.5-2.9-4.3-2.9c-0.9,0-2.2-1.5-2.2-1.5
		s1.9-1.3,1.4-2c-0.5-0.7-2.2-1.8-2.2-1.8s-2.2,0.6-3-0.2c-0.7-0.8-1.2-3.5-1.2-3.5s-3.6-1.2-3.5-2.6c0.2-1.4,1-2.3,0.2-2.9
		c-0.9-0.6-0.2-2,0.3-1.8c0.5,0.2,2.8,0.9,2.8,0.9s2.6-0.4,2.6-1.1c0-0.7-1.2-2.1-1.7-2.3c-0.5-0.2,0.9-1.1,2.1-1.2
		c1.2-0.1,2.6,0.9,3.3-0.4c0.7-1.3,1.7-1.1,0.9-2.6c-0.9-1.5-0.5-0.8-1.6-2.9c-1.1-2.1-1.4-2.8-1.2-4.3c0.2-1.5-0.7-2.4,0.8-3
		c1.6-0.6,2.8-0.4,3.3,0.9c0.5,1.3,0.7,3.8,2.9,4.2c2.2,0.4,3.1,0.8,3.8-0.2c0.7-1.1,2.2-1.5,1.6-3c-0.7-1.5-1.7-4.5-3.3-5.2
		c-1.6-0.7-1.6-0.8-2.9-2.2c-1.4-1.4,0.2-0.9,0.8-2.4c0.7-1.5,0.7-3.6,0.9-5.5c0.2-1.8,2.1-2.9,2.8-4.3c0.7-1.4,1.2-1.8,3.6-3
		c2.4-1.3,3.1-2.2,6.2-2.6c3.1-0.4,6.9-0.7,8.8-0.6c1.9,0.1,3.8,0,4.8-0.6c1-0.6,3.8-0.2,2.4-1.8c-1.4-1.5-2.2-2-2.9-2
		s-2.4-0.2-2.9-0.8c-0.5-0.6-1-0.2-1.9-2.2c-0.9-2-1.9-3.1-1.9-5c0-1.9,0.7-2.6-1-3.4c-1.7-0.8-1.9,0.5-1.7-0.8
		c0.2-1.3,1-1.5,1.4-2.6c0.3-1.1,0.9-1.5,0.3-2.6c-0.5-1.1-1-1.9-1.6-2.3c-0.5-0.5-0.9-1.5-1.4-1.9c-0.5-0.4-2.1-1.8-1.6-2.7
		c0.5-0.9-0.3-2.3-1-2.4c-0.7-0.1-2.1,1.1-2.1,0c0-1.1-0.2-1.3,0-2.3c0.2-1.1-2.4-1.5-2.8-2.9c-0.3-1.4-0.9-2.7,0-3.7
		c0.9-1.1,2.1-2,2.4-2.8c0.3-0.8,1.4-8.3,1.2-10.1c-0.2-1.9-2.2-10.8-2.2-11.3c0-0.5-2.6-4.6-2.6-4.6l-3.6-0.9c0,0,5.9-0.2,6.4-0.7
		c0.5-0.5,5-3.1,5.5-4.1s5.9-4,5.9-4s-0.8-2.8-1.4-3c-0.5-0.2-1.9-1.1-2.4-2c-0.5-0.9-2.2-2.8-2.8-3c-0.5-0.2-2.6,0.1-3.5,0
		c-0.9-0.1-5-0.1-5-0.1s-1.6-0.9-2.1-0.9c-0.5,0-2.9,0.9-2.9,0.9l-2.9,2.1l-2.2,0.2c0,0-1.7,0.4-1.9,0.7c-0.2,0.4-1.9,1.4-2.8,1.3
		c-0.9-0.1-1.9-1.5-1.6-2c0.3-0.5,0.5-0.9-0.2-1.3c-0.7-0.4-2.8-1.1-2.8-1.1l-1.9-0.9l-2.8,1.4l-1.7-0.2l-1.2-1.9l-5.2,0.6l-3.3,0.9
		l-1.7,2.1c0,0-1.4,1.4-2.1,1.2c-0.7-0.2-2.8-0.8-2.8-0.8l-1.7,1.6l-0.7,1.7l-2.6,2.9l-1.6,1.4c0,0-2.2,0.1-2.6-0.2
		c-0.3-0.4-2.9-1.4-2.9-1.4s1.4-1.9,1.9-1.9c0.5,0,1.4-0.7,1.4-0.7s1.1-0.5,1.2-1.1c0.2-0.6,1.2-1.5,0.3-1.8
		c-0.9-0.2-1.9-0.1-2.2-0.5c-0.3-0.4-1.1-0.9-0.3-1.2c0.7-0.2,1.7-0.4,2.6-0.1c0.9,0.2,2.1,0.8,2.8,0.6c0.7-0.2,2.1-0.5,2.2-0.9
		c0.2-0.5,0.7-1.3,0.7-1.3s0.7-0.6,1.4-0.4c0.7,0.2,1.9,0.1,1.9,0.1l1.7-1.1c0,0,0.5-0.9,0.3-2c-0.2-1.1-2.8-10.8-3.3-11.3
		c-0.5-0.5-7.3-6.6-7.3-6.6s-5.7-1.9-6.7-1.6c-1,0.2-4.5,2-5.9,1.3c-1.4-0.7-3.5-1.9-3.6-2.2c-0.2-0.4-1-2.7-1.7-3.1
		c-0.7-0.5-1.4-0.8-1.9-1.3c-0.5-0.5-0.2-2-0.2-2l0.8-2c0,0,3.1,0.5,3.3,1.3c0.2,0.8,5.2,4.4,8.1,3.8c2.9-0.6,5.9-1.2,6.9-1.2
		c1,0,1.9-0.1,2.8-0.8c0.9-0.7,2.1-1.3,2.2-2.2c0.2-0.9,0.5-1.9,0.3-3.4c-0.2-1.5-0.7-3.8,1.4-5.5c2.1-1.6,3.5-2.2,4.3-2.2
		c0.9,0,8.6,0.9,10.2,0c1.6-0.9,9-2.1,12.3-5.6c3.3-3.5,6.2-4.1,7.3-4.4c1-0.4,5.2-0.9,5.2-1.9c0-0.9-0.2-2.1-0.3-3
		c-0.2-0.9,0.2-1.6,0-2.4c-0.2-0.8,1-1.6,0.9-2.1c-0.2-0.5-1.4-2-2.1-2.1c-0.7-0.1-3.5,0.8-4.7,1.9c-1.2,1.1-2.9,1.9-3.6,1.9
		c-0.7,0-4.3-0.7-4.6-1.5c-0.3-0.8,1.2-3.3,0.7-3.8c-0.5-0.6-1-0.8-3.3-0.9c-2.2-0.1-2.6,1.1-3.8,0c-1.2-1.1-1.7-2-1.7-2
		s-4-0.6-4.8,0c-0.9,0.6-2.8,2.1-1.9,0.7c0.9-1.4,2.4-2.7,3.3-3c0.8-0.4,3.1-3.7,3.6-5s2.2-2.1,0.9-2.2c-1.4-0.1-4,0.7-4.8,1.2
		c-0.8,0.5-2.2,1.5-2.4,0.9c-0.2-0.6,3.3-3.6,3.5-4.5c0.2-0.9-0.3-1.5-1.7-2.1c-1.4-0.6-3.3-1.9-3.6-2.2c-0.3-0.4-1.2-3.1-2.8-3.7
		c-1.6-0.6-2.4-0.8-3.3-0.6c-0.9,0.2-3.8,2.8-3.8,2.8s-2.6,1.3-3.3,1.5c-0.7,0.2-4.8,2-4.8,2s-7.1,3.8-8.6,4.4
		c-1.6,0.6-4.5,2.6-4.8,3.1c-0.3,0.6-2.1,3.1-2.1,3.1s1.7,0,2.4-0.5c0.7-0.5,1.6-2.3,2.2-1.6c0.7,0.7,1.1,1.4,0.5,1.8
		c-0.5,0.4-2.1,1.2-2.1,1.6v2c0,0,0.3,0.7-0.3,0.7c-0.7,0-2.6-1.3-2.6-1.3s0.2-1.8-1.4-0.7c-1.6,1.1-1.7,2.9-1.7,2.9l-0.7,2.3
		c0,0-1,1.3-0.7,1.8c0.3,0.5,0.2,1.2,0.9,1.3c0.7,0.1-0.2-0.4,2.8-0.7c2.9-0.4,3.8-0.1,4.5,0.9c0.7,1.1,0.2,1.6,2.4,1.4
		c2.2-0.2,1.7-0.1,3.1-0.4c1.4-0.2,0.3-0.5,1.4-0.2c1,0.2,1.7,0.9,0.7,1.8c-1.1,0.8-0.3,1.6-2.2,1.6c-1.9,0,0,0.1-1.9,0
		c-1.9-0.1-1.7,0.2-3.3-0.1c-1.6-0.4-3.6-1.3-4.5-1.6c-0.9-0.4,0-0.9-1.9-0.6c-1.9,0.4-3.5,1.1-4.3,0.6c-0.8-0.5-1.2-2.2-2.8-1.9
		c-1.6,0.4-3.1,0.9-3.1,0.9l-1.2,1.1c0,0-4.1,0.7-5.4,0.6c-1.2-0.1-4,0.4-4.5,0.5c-0.5,0.1-1.6,1.1-1.6,1.1l-0.2,1.3
		c0,0,0.9-0.7,1.4,0.1c0.5,0.8-1.7,1.5-1.7,1.5s-7.4,0.2-8.4,0.4c-1,0.1-3.8,1.2-4.5,1.8c-0.7,0.6-1.9,1.9-1.9,1.9s2.1,0.9,1.6,1.2
		c-0.5,0.2-2.9,1.2-2.9,1.2l-2.4,0.2h-2.2c0,0-4.5,1.9-5.4,2c-0.8,0.1-4.8,1.3-5.5,1.5c-0.7,0.2-4.8,1.9-5,2.2
		c-0.2,0.4-0.3,2.4-1.6,2.8c-1.2,0.4-4.3,1.1-5,1.1c-0.7,0-13,4.5-13,5.1c0,0.6-7.9,4.9-7.9,4.9l-5.2,2.1c0,0-1,2.6-1,3
		c0,0.5-1.9,2.2-2.8,2.4c-0.9,0.2-3.6,1.4-4.7,2.8c-1,1.4-2.2,4.8-2.4,5.1c-0.2,0.4,0.2,2.7-0.2,3.3c-0.3,0.6-2.1,0.8-3.5,1.4
		c-1.4,0.6-7.8,4.8-7.8,4.8s-2.8,1.8-3.8,2.4c-1,0.7-3.1,1.5-3.1,2c0,0.5,1.6,2.1,2.9,2.1s1.9,0.7,2.9,1.4c1.1,0.7,2.4,2,2.6,1.4
		c0.2-0.6,1.2-1.3,2.1-1.3c0.8,0,2.1,1.9,2.1,1.9s0.2,1.1,0.7,1.1c0.5,0,2.8,0.2,2.8,0.2s2.1-0.9,3.5-0.9c1.4,0,5,0.5,5.5,0.7
		c0.5,0.2,2.9,1.2,3.3,2.8c0.3,1.6-0.5,3.7-0.5,3.7s-1.9,3.6-3.8,3.4c-1.9-0.2-6.2,0.1-6.2,0.1l-6.9,0.8c0,0-3.3,1.5-4.1,1.3
		c-0.8-0.2-3.6-1.1-5.2-1.1c-1.6,0-4,0.5-4,0.5s-1.6,0.1-1.6,0.9c0,0.8,1.6,3.3,1.7,3.7c0.2,0.5-1,2.8-1.6,2.9
		c-0.5,0.1-8.6,6.8-9.7,7.1c-1,0.4-4.3,1.6-5,2.1c-0.7,0.5-2.9,2.8-2.9,2.8l-6.6,5.7l-2.8,3.8c0,0,0.5,1.8,0.5,2.2
		c0,0.5-2.8,1.4-2.8,1.4l-2.8-0.7c0,0-0.3-0.7-1-0.5c-0.7,0.2-2.4,1.9-2.4,1.9l-0.9,0.4c0,0-6.9-0.2-7.9-0.6
		c-1.1-0.4-2.2-3.5-3.3-4.2c-1-0.7-3.5-1.9-4.3-1.9s-15.4,2-15.4,2l-6.9,4.3l-12.6,9.3l-4.1,5.1l0.5,2l-3.6,1.1l-10,5.7
		c0,0-1-0.5-1-0.9c0-0.5,1.4-1.3,1.7-1.9c0.3-0.6-0.3-1.4-1.4-1.4s-5,0.8-5,0.8l-6,0.4l-3.1,1.9l-2.2-1.8l-4.1,0.1l-5.5,0.9
		c0,0-1.6,1.1-2.2,0.4c-0.7-0.7-1-2.2-1-2.2s0.5-1.5,1.2-1.2c0.7,0.4,2.1,0.6,2.6,0.4c0.5-0.2,0.9-1.4,0.3-1.8
		c-0.5-0.4-4.5-1.2-4.5-1.2l-8.1,0.9l-8.3,4l-0.3,3.3c0,0,0.8,3,0.8,3.6c0,0.6-0.7,5.2-0.7,5.2s-3.1,2.4-3.5,3
		c-0.3,0.6-1.7-0.4-1.7-1.1s0.5-6,0.5-6l1.9,2.8c0,0,1.6-0.5,1.6-1.3c0-0.8-0.2-5-0.2-5s-0.2-2.2-1-1.5c-0.8,0.7-2.6,2.1-2.6,2.1
		s-4.5,3-5.2,3.4c-0.7,0.4-4.3,4.2-4.8,3.7c-0.5-0.5-0.2-3.3-0.2-3.3l7.3-3.5l3.6-2.7h-4.8c0,0-4.8,0.6-6.4,0.7
		c-1.6,0.1-12.6,2.7-12.6,2.7l-6.4,3.6c0,0-7.8,2.3-8.6,2.3s-2.4,0.8-2.2,1.3c0.2,0.5,2.1,2.6,2.1,2.6l-1.4,3c0,0-2.9,2.2-2.9,3.3
		c0,1.1,0.3,3.8,0.3,3.8s0.2,1.3,0.8,0.7c0.7-0.6,1.6-2.7,2.2-3.1c0.7-0.5,2.8-1.5,2.8-0.5c0,1.1-0.3,3.1-0.3,3.8s-1,2.1,0.5,2.4
		c1.6,0.4,3.5,1.2,4.1,1.8c0.7,0.6,2.1,3.4,2.1,4.1s-1,2.1-1.9,1.6c-0.9-0.5-2.6-1.5-3.3-1.9c-0.7-0.4-2.8-0.5-3.1,0.1
		c-0.3,0.6-1.6,1.9-1.2,2.9c0.3,1.1,2.4,2.3,2.6,2.7c0.2,0.4,0.2,1.3,0.2,1.3l0.8,2c0,0-1,0.9-2.1,0.8c-1-0.1-7.6-3-11.2-2.4
		c-3.6,0.6-6-1.2-8.1,0.4c-2.1,1.5-3.8,2.8-4,3.8c-0.2,1.1,1.4,3.3-0.2,3.3c-1.6,0-6,2.9-9.7,2.3c-3.6-0.6-7.3-0.2-8.5-0.9
		c-1.2-0.7-4-3.4-4.5-2.8c-0.5,0.6-1.9,0.1-0.7,2.2c1.2,2.1,3.6,5.8,3.8,6.6c0.2,0.8,1.9,1.9,2.6,3.4c0.7,1.5,0.8,3.5,0.8,5
		c0,1.5,1.2,3.4-0.5,3.4s-4.8-1.3-5.5-2c-0.7-0.7-1.2-1.6-2.2-0.8c-1.1,0.8-3.3,1.3-5,0.5c-1.7-0.8-4.7-2.2-6.6-2.3
		c-1.9-0.1-4.1-0.6-5.2-1.3c-1.1-0.7-2.4-0.7-2.4-1.8c0-1.1,1.4-1.4,2.4-1.9c1-0.5,4-0.8,2.1-1.9c-1.9-1.1-0.8-0.5-1.9-1.1
		c-1-0.6-2.1-0.6-2.2-1.4c-0.2-0.8-0.2-1.9-0.7-1.9s-3.8,1.5-3.8,1.5s-2.8,0.8-4,0.8s-4-1.1-2.6-1.4c1.4-0.4,4.5-1.2,4.5-1.2
		l1.2-1.8l-0.2-2.2c0,0,0.2-0.5-1.9,0.2c-2.1,0.7-0.5,0.6-2.1,0.7c-1.6,0.1-0.9,1.2-1.6,0.1c-0.7-1.1,0-2.2,0.7-2
		c0.7,0.2,2.1-0.1,2.1-0.1s0.2-1.4,0.3-2.3c0.2-0.9,0.2-1.8,0.2-2.4c0-0.7-0.3-1.4-1.2-1.1c-0.9,0.4,0.7-0.1-0.9,0.4
		c-1.6,0.5-1.7-0.4-1.7-0.8c0-0.5,0.5-0.7,1-1.2c0.5-0.5,0.7-2.6,0.7-2.6l-1.6-1.1c0,0-1-0.6-1.6,0.1c-0.5,0.7-0.9,1.8-0.9,1.8
		s-1.9-1.5-3.1-2.2c-1.2-0.7-4-1.1-6.2-1.1c-2.2,0-7.4,1.5-7.4,1.5l-2.9,1.5c0,0,1.6,1.6,0.9,1.9c-0.7,0.2-1.7-0.9-2.2-1.2
		c-0.5-0.2-1.6-1.1-2.4-1.1s-1.2-0.7-2.2,0c-1.1,0.7-1.9,2-1.9,2s0.3,1.8-0.3,1.3c-0.7-0.5-2.8-1.9-3.5-2.1
		c-0.7-0.2-1.9-1.4-3.8-1.1c-1.9,0.4-3.6,0.8-3.6,0.8l0.3,1.8h-1.7l-1.4-0.2l-0.2,1.2l0.5,1.3l1,0.8l0.2,1.5l-0.2,1.1
		c0,0,1,1.2,1.7,1.5c0.7,0.4,1.6,0.7,2.1,1.3c0.5,0.6-0.2,1.6-0.2,1.6s-0.2,0.2-2.4,0.5c-2.2,0.2-4.3,1.3-4.8,1.5s-4.5,1.4-5,1.4
		c-0.5,0-6.7-0.5-7.9-0.4l-1.2,0.1c0,0-2.9-0.1-3.1-0.5c-0.2-0.4-2.1-1.3-2.1-1.3l-2.1,1.9c0,0,0.8,1.8,0,1.8c-0.9,0-9-0.2-9.5-0.4
		c-0.5-0.1-3.8-2.3-3.6-2.7c0.2-0.4,2.6-0.6,2.6-0.6s1.7-0.1,1.9-0.7c0.2-0.6,0.3-2.2-0.3-2.2c-0.7,0-14.2-0.1-14.2-0.1l-8.1,0.2
		c0,0-2.9,2.1-3.5,2.2c-0.5,0.1-3.8,0.9-3.8,0.9l-3,1.9l-1,1.3c0,0,1.2,1.1,1.2,1.4c0,0.4-0.7,2.7-0.8,3c-0.2,0.4-0.3,1.5-0.9,1.1
		c-0.5-0.5-1.4-2.7-1.4-3c0-0.4-0.8-1.6-1.4-2.1c-0.5-0.5-1.6-2.6-1.6-3.3c0-0.7-2.4-3.7-2.4-3.7s-1.6-0.6-1.9-0.2
		c-0.3,0.4,1.6,4.2,1.6,4.2s-5.4,0.4-6.6,0.4c-0.6,0-1.5-0.5-2.2-0.9c-0.8-0.5-1.4-1-1.4-1s-0.9-1.4-1.4-1.5
		c-0.5-0.1-1.9-0.9-3.1-0.8c-1.2,0.1-4.5,2-4.5,2l-0.9,1.5l-0.3,2c0,0,1.6,0.2,2.4,0.4c0.9,0.1,1,1.9,1,1.9s-1.2,2.9-2.2,3.3
		c-1,0.4-2.6-1.4-3.6-0.7c-1,0.7-2.6,2.1-2.8,2.8c-0.2,0.7-2.8,2.8-2.8,2.8s-5.2,1.4-6.7,1.3c-1.6-0.1-4.3,0.1-4.3,0.1
		s-3.5,1.6-3.6,2.4c-0.2,0.8-4.7,4.6-4.7,4.6s-4.8,2.2-5.2,1.8c-0.3-0.5,0.5-1.5,1-2.4s4.8-4.1,5-4.5c0.2-0.5,1.4-2,1.7-2.9
		c0.3-0.9,0.7-2.1,1.6-2.1c0.8,0,2.9-0.8,2.9-0.8s1.6-1.1,2.1-1.3c0.5-0.2,2.1-1.5,3.5-2.8s2.9-3.3,2.9-3.3l2.6-2.6l6.7-3.7
		c0,0-1.9-0.9-2.2-2.2c-0.3-1.3,1.4-2,2.9-1.9c1.6,0.1,5.4-1.3,6.2-2.1c0.9-0.8,4-2.7,4-2.7s2.6-3.1,4.7-5.1c2.1-2,4.5-2.9,4.7-4.1
		c0.1-1.2,0.5-2.9,0.1-4c-0.3-1.1-1.4-2.2-1.4-2.2s-2.8,0.1-3.3-0.9c-0.5-1.1,2.4-1.2,3.3-1.6c0.8-0.5,1.4-1.9,0.5-2.7
		c-0.9-0.8-2.6-2.8-2.9-3.8c-0.3-1.1-1.1-2.6-1.9-2.9c-0.9-0.4-0.9,2.2-1.7,2.3c-0.8,0.1-1.7-1.6-1.7-1.6l-1.4-0.7
		c0,0-3.1-1.8-3.8-1.5c-0.7,0.2-1.2,0.5-1.4-0.4c-0.2-0.8-0.9-3.3-1.6-3.5c-0.7-0.2-0.9-0.8-3.3-0.7c-2.4,0.1-6.4,1.3-7.1,1.5
		c-0.7,0.2-2.8,1.9-5,1.5c-2.2-0.4-1.9-0.9-3.8-0.7c-1.9,0.2-3.1,1.4-3.6,2c-0.5,0.6-1.9,2.9-4,2.7c-2.1-0.2-4.3-0.4-4.7-1.1
		c-0.3-0.7,2.1-1.2,2.8-1.5c0.7-0.4,2.2-2,2.6-2.4c0.3-0.5,1.6-2.3,0.5-3.6c-1-1.3-1.6-2.8-3.5-2.3c-1.9,0.5-4.5,2.2-4.5,2.2
		s-3.6-0.4-3.6-1.2c0-0.8-2.8-1.1-2.8-1.1s-4.1,1.6-3.8,0.4c0.3-1.3,3.1-1.9,4.1-1.9c1,0,2.9-0.7,3.5-1.1c0.5-0.4,2.2-0.5,1.7-2
		c-0.5-1.5-1.9-3.3-1.9-3.3l-2.6-0.2c0,0-1.7-0.4-2.6-1.1c-0.9-0.7-2.9-1.1-4-0.9c-1,0.1-3.3,0.6-5.4,1.9c-2.1,1.3-3.3,3.1-3.8,3.6
		c-0.5,0.5-2.4,1.6-3.1,2.4c-0.7,0.8-1.7,2.9-2.1,3.4c-0.3,0.5-1.6,1.1-1.9,1.8c-0.3,0.7-0.5,2.1-0.2,2.8c0.3,0.7-0.2,2.1-0.2,2.4
		c0,0.4-0.3,0.9,0.9,1.5c1.2,0.6,2.6,1.2,4.7,1.6c2.1,0.5,3.6,0,3.3,0.9c-0.3,0.9-2.6,1.1-3.3,0.7c-0.7-0.4-7.3-0.5-7.8-0.9
		c-0.5-0.5-4.3-1.4-5.2-1.4c-0.9,0-2.6-0.7-3.3-0.4c-0.7,0.4-1,2.3-1,2.3s2.8,1.2,3.6,1.9c0.9,0.7,1,2.3,1,2.9s-0.5,3.1-0.5,3.1
		s-0.9,0.7-1.4,0.7s-0.7-1.5-0.7-2s0.2-2.1-0.7-2.3c-0.9-0.2-1.9-0.8-3.1-1.1c-1.2-0.2-2.2-0.6-2.2-0.6s-1,0.4-1.9,0.7
		c-0.9,0.4-3.5,3-3.5,3s-2.1-1.3-2.8-0.8c-0.7,0.5-2.8,1.4-2.8,1.4s-4.3,0.9-5.2,0.8c-0.9-0.1-3.5-0.1-1.9-0.9
		c1.6-0.8,2.9-0.9,2.4-1.8c-0.5-0.8-4.8-2.2-6-2.2h-6.9c0,0-0.7-2.2-1.6-2.3c-0.9-0.1-4.3,2.3-4.3,2.3s-3.8,1.9-2.2,2.3
		c1.6,0.5,3.6,0.5,4.3,0.7c0.7,0.2,2.9,0.8,0.9,1.4c-2.1,0.6-2.8,0.5-4,0.6c-1.2,0.1-5.4-0.1-5.4-0.1s-2.4,1.9-3.3,1.3
		c-0.9-0.6-4-1.7-4.7-1.9c-0.7-0.1-5.9,1.3-5.9,1.3s-0.9,2-1.9,2c-1,0-2.9-0.2-2.9-0.2s-1.2,1.1-2.6,1.6c-1.4,0.6-4,1.6-4,1.6h-5.4
		c-0.9,0-3.5,0.7-1.9,1.1c1.6,0.4,4,1.4,2.8,1.8c-1.2,0.4-4.8,1.4-4.8,1.4s-1,2-1.2,2.3c-0.2,0.4-2.1,0.2-2.4-0.1
		c-0.3-0.4-2.2-0.9-2.2-0.9l-0.7,2.1c0,0,0.9,1.8,1.2,2.6c0.3,0.8-2.8,2.7-2.8,2.7s2.2,2.4,2.6,3.5c0.3,1.1,1,4.3,0.7,5.3
		c-0.3,1.1-1.2,2.7-1.9,2.8c-0.7,0.1-2.9,1.1-2.4,0.2c0.5-0.8,2.1-0.9,2.1-1.8c0-0.8-0.2-1.9-0.9-1.9c-0.7,0-2.8,0.1-3.5,0
		c-0.7-0.1-7.9-2.1-8.8-2.1c-0.9,0-5,0.5-5.9,0.8c-0.9,0.4-7.8,1.4-9.2,0.9c-1.4-0.5-1.7-2.2-5-2c-3.3,0.2-6.6,0.5-7.3,0.5
		c-0.7,0-2.4-0.9-2.6,0.9c-0.2,1.9-1.7,6.3-1.9,7.8c-0.2,1.5-1.7,3.6-2.1,4.5c-0.3,0.9-0.9,2.9-0.7,3.4c0.2,0.5,0,1.8,1,2
		c1,0.2,2.6,1.1,3.3,1.5c0.7,0.5,1.7,0.8,2.2,1.9c0.5,1.1,1.6,3.5,1.6,3.5s-0.3,1.2,0.5,2c0.9,0.8,2.8,2.1,3.5,2.3
		c0.7,0.2,3.6,1.4,3.5,1.9c-0.2,0.5-0.5,4.4-1.2,4.5c-0.7,0.1-3.8,2.3-3.8,2.3l-1.6,4.4l0.2,4.4c0,0,1.9,2.2-0.7,1.4
		c-2.6-0.8-4-2.7-5.5-2.9c-1.6-0.2-1.7,1.3-2.8,0.8c-1-0.5-1-2.6-0.7-3.7c0.3-1.2-0.7-3,0.3-3.8c1-0.8,2.8-1.4,4.7-1.9
		c1.9-0.5,4-2.2,4.1-2.6c0.2-0.4,2.4-1.8,1.9-2.3c-0.5-0.6-1.6-2-2.8-2c-1.2,0-2.8,0.5-4.3,0.5c-1.6,0-3.5,1.1-4.1-0.2
		c-0.7-1.3-1.6-1.3-1.9-2.1c-0.3-0.8,0.9-5.7-1.2-6.9c-2-1.2-4.3-0.7-6-2.6s-2.6-2.7-3.5-3.4c-0.4-0.4-1.6-0.5-2.8-0.7
		c-1.3-0.1-2.6-0.2-3.4-0.3c-1.6-0.2-2.8,0-3.5,0.5c-0.7,0.5-4.8,0-4.5,1.1c0.3,1.1,1.9,1.3,2.6,1.7c0.7,0.5,2.6-0.2,2.1,1.9
		c-0.5,2.1-2.4,2.7-2.4,2.7s-1.7,0.4-2.8-1.8c-1-2.1-2.8-2.8-3.8-3.4c-1-0.6-0.7-2.6-2.9-1.1c-2.2,1.5-2.2,1.1-3.6,2.4
		c-1.4,1.4-0.7,1.5-0.7,3.3c0,1.8-0.9,2.2,0.3,3.6c1.2,1.4,2.2,2.6,3.6,3.5c1.4,0.9,0,0.2,1.4,0.9c1.4,0.7,1.6-1.3,2.6,0
		c1,1.3,1,3.4,1,4.2c0,0.8,1.7,2.3,1.7,2.8c0,0.5-0.7,0.8-1.9,0.4c-1.2-0.5-4.7-3.8-4.7-4.3s0.5-2.3-1.7-2.6c-2.2-0.2-1,1.9-4.1,0
		c-3.1-1.9-4-2.2-4.7-3c-0.7-0.8-2.2-1.9-1.2-2.9c1-1.1,2.2-0.6,2.2-2.1v-3.8c0-0.5-0.9-2,0.5-3.1s5-4.3,5.4-4.8
		c0.3-0.5,2.2-2.7,2.6-4.2c0.3-1.5,0.3-2.6,0.3-3c0-0.5,1.7-0.1,1.7-0.1l-1.4-2.1c0,0,0-2.1-1.6-0.9c-1.6,1.2-4,4.7-4,4.7
		s-2.8,3.7-3.1,4.3c-0.3,0.6-2.9,4-2.9,4s-1.9,1.2-2.9,1.1c-1-0.1-4.8-0.4-5.5-0.2c-0.7,0.1-3.8,2.9-5,3.8c-1.2,0.9-4.5,1.1-4.1,2.7
		c0.3,1.6,0.5,4.3,0.3,5.8c-0.2,1.5,0.7,2.3,0.7,4.8c0,2.4-0.7,5.7-2.4,6.1c-1.7,0.4-4.7,0.9-5.4,2.3c-0.7,1.4-4.1,3.5-4.8,7.2
		c-0.7,3.7-0.9,4.3-1.7,5.8c-0.9,1.5-2.9,3.1-1.6,3.1c1.4,0,2.8,0,4,0.5s0.9,1.8,3.3,2.2c2.4,0.5,0.7,0.1,3.8-0.5
		c3.1-0.6,0.5-1.5,3.1-0.6c2.6,0.9,5.5,1.1,6.7,2.6c1.2,1.5,0,2.7,1.4,3.8c1.4,1.2,2.4,0.5,3.1,2.6c0.7,2.1,0.3,5.2,0.3,5.2
		s-0.5,3.3-0.5,4s2.2,2.4,0.2,2.6c-2.1,0.1-4-0.7-4.5,0.8c-0.5,1.5-0.3,1.3-0.5,3c-0.2,1.8-1.6,2,0.2,3c1.7,1.1,4.7,3.6,5.9,4
		c1.2,0.4,3.3,1.1,4.1,2.6c0.9,1.5,2.2,3.7,1.6,4c-0.7,0.2-2.4-0.1-3.8-1.6c-1.4-1.5-1.4-3.3-2.9-4.2c-1.6-0.9-1.7-1.8-4.1-2.2
		c-2.4-0.5-3.5,0.1-4-2c-0.5-2.1-0.2-3.3,0.2-4.1c0.3-0.8,1-3.1,1.7-4.2c0.7-1.1,1.4-2.3,1.9-2.8c0.5-0.5,0.9-1.8,0.7-3.3
		c-0.2-1.5-0.2-2-1-3.4c-0.9-1.4,0.9-2-1-3.3c-1.9-1.3-8.6-1.9-9.3-1.9s-5.2-0.1-5.2-0.1s-6.7,1.9-6.9,2.9c-0.2,1.1-2.8,3.3-2.8,3.3
		s0.2,1.1,0.3,3c0.2,2,0.7,4.2,0.2,5c-0.5,0.8-2.1,2.9-2.8,3.4c-0.7,0.5-4.3,2-4.3,2l-0.9,0.5c0,0-3.8,4.1-5.5,4.8s-4.5,2.4-6.2,2.6
		c-1.7,0.1-4.7,0.9-5.5,0.6l-0.9-0.4h-6.4c0,0-1.9,3.5-2.9,3.3c-1-0.2-4-1.5-4.8-2c-0.9-0.5-4.8-2.3-6.4-2.4
		c-1.6-0.1-2.2,0.5-3.6-0.6c-1.4-1.1-0.3,0.5-1.4-1.1c-1-1.5-0.7-3.6,1.6-2.8c2.2,0.8,3.8,1.8,4.5,2.1c0.7,0.4,2.9,0.8,2.9,0.8
		s4.5,0.8,4.8-0.1c0.3-0.9,0.7-2.7,0.7-3.5c0-0.8,1.6-1.8,2.4-1.6c0.9,0.1,3.3-0.4,4-0.4c0.7,0,2.4-0.6,3.1-1.3
		c0.7-0.7,1.4-1.5,3.3-2.2c1.9-0.7,7.1-2.9,8.5-3c1.4-0.1,5.4-2.3,4.5-3.8c-0.9-1.5-0.2-2.6,0.5-3.3c0.7-0.7,1.6-2.2,2.8-2.3
		c1.2-0.1,2.2,1.2,3.3-0.5c1-1.6,1.9-4.8,0.2-6.1c-1.7-1.3-4.7-2.3-3.1-4.9c1.6-2.6,4-3,5.4-5.5s1.2-4.3,1.4-5
		c0.2-0.7,5.2-4.1,5-5.1c-0.2-1.1-1-2.6-0.3-3.6c0.7-1.1,2.6-2,2.6-2s2.6-1.8,2.6-2.4c0-0.7,4.1-4.6,4.5-5.7
		c0.3-1.1,0.5-4.3,0.2-5.6c-0.3-1.3-1.2-2.6-1.4-3.4c-0.2-0.8,2.4-3.1,3.1-3.6c0.7-0.5,10-5.3,11.1-7.7c1-2.3,2.1-5.2,1.9-6.1
		c-0.2-0.8,0-2.9,0-2.9s-4.3-2.4-6-3.5c-1.7-1.1-9.3-2.9-9.3-2.9s0.5-2.3-0.2-2.3c-0.7,0-5.2,1.3-5.7,1.8c-0.5,0.5-7.6,8.6-9.3,9.9
		c-1.7,1.3-7.7,5.7-8.5,5.7c-0.7,0-14.9,2.2-15.5,2.4c-0.7,0.2-3.3,1.4-3.8,2.1c-0.5,0.7,0.3,2,0.3,2s1.7,0.2,0.3,1.2
		c-1.4,0.9-3.1,2-1.9,2c1.2,0,2.6-0.5,2.6,0.2s-0.5,1.3-1.9,2.2c-1.4,0.9-2.4,1.3-2.8,2.1c-0.3,0.8,0.9,1.8,0.7,2.6
		c-0.2,0.8-1.6,2-1.6,2s-1.2,0.6-1,1.3c0.2,0.7,2.8,0.7,0.2,0.7c-2.6,0-4.5-0.8-4.5-0.8s-1.6,1.1-2.6,2.3c-1,1.3-0.5,0.2-1,1.3
		c-0.5,1.1-1.9,1.5-1.2,2c0.7,0.5,3.1,0.1,3.8,0.2c0.7,0.1,1.6,0.4,1.4,1.3c-0.2,0.9,0.5,2.6,0.5,2.6s-0.7,0.9,0.9,1.3
		c1.6,0.4,3.3,0.5,3.1,0.9c-0.2,0.5-1.2,0.6-2.1,1.5c-0.9,0.9-1.2,1.5-1.2,2c0,0.5-0.9,4.8-0.2,5.2c0.7,0.5,1.7,0.1,1.7,1.4
		s-0.2,3.4-0.9,3.6c-0.7,0.2-7.1,3.4-7.6,3.8s-1.7,2.1-2.1,0.7c-0.3-1.4-0.5-3.8-0.3-4.5c0.2-0.7,0.5-3-0.5-4.1
		c-1-1.1-6.2-8.7-7.3-9.7c-1-0.9-0.7-4-1.9-4.7c-0.6-0.4-1.2-0.7-1.8-0.9c-0.6-0.2-1.1-0.4-1.6-0.4c-1,0-2.9-0.1-1.9-0.8
		c1-0.7,2.2-1.2,2.4-1.6c0.2-0.5-2.9-5.2-4.3-6.8c-1.4-1.5-4.7-3.8-5.2-4.3c-0.5-0.5-5.7-4.8-7.4-5.6c-1.7-0.8-3.8-1.1-5.4-0.8
		c-1.6,0.2-4.1,0.5-5.2,1.4c-1,0.9-2.6,2.2-2.6,3.3c0,1.1,0.5,2.9-0.3,5c-0.9,2.1-0.7,1.6-3.6,2.8c-2.9,1.2-6.2,0.4-6.9,0.7
		c-0.7,0.4-2.9,2.3-4.8,1.8c-1.9-0.6-2.6,0-2.8-1.8c-0.2-1.8,2.1-3.6,2.8-4.2c0.7-0.6,1.9-2,2.6-2.2c0.7-0.2,2.4,0.1,1.4-0.9
		c-1-1.1-4.5-2.8-4.5-2.8s-6.4-0.2-7.9,0.1c-1.6,0.4-2.8,1.3-5,1.4c-2.2,0.1-6.6-1.1-7.1-2.1c-0.5-1.1-3.1-2.9-4.3-3.8
		c-1.2-0.9-5-0.6-6.6-0.5c-1.6,0.1-5,1.3-6,1.8c-1,0.5-3.3,0.4-4.8-1.1c-1.6-1.4-2.8-1.3-3.8-2.6c-1-1.3-2.8-2.2-2.1-3
		c0.7-0.8,2.2-0.7,2.9-0.2c0.7,0.5,0.5,1.2,2.1,0.5c1.6-0.7,4.3-2.3,4.5-3.1c0.2-0.8,2.8-1.8,2.8-1.8l0.3-1.5c0,0,2.6,0.8,3.5,1.3
		c0.9,0.5,3.1,2.2,2.8,0.7c-0.3-1.5-1.2-2.7-2.2-2.8c-1-0.1-10.7-0.8-13-1.1c-2.2-0.2-4.8-1.2-5.4-0.1c-0.5,1.1-0.7,4.1-0.7,4.1
		s-1.9,1.2-2.9,0.7c-1-0.5-2.2-1.3-1.7-1.9c0.5-0.6,2.9-1.1,2.6-1.8c-0.3-0.7-1.6-1.6-1.6-1.6s-6.2,0.2-7.4,0.1
		c-1.2-0.1-4.3-1.5-4.5-1.9c-0.2-0.4-2.2-0.9-4.8-0.9c-2.6,0-8.1,1.4-8.8,0.9c-0.7-0.5-2.8-0.6-2.8-1.2c0-0.6,1.7-2.3-0.2-2.1
		c-1.9,0.2-1.9,1.2-2.4,1.5c-0.5,0.4-1,2-3.3,1.6c-2.2-0.4-0.7-1.9-3.1-2.1c-2.4-0.2-4,0-5,0.7c-1,0.7-6,2.4-6.9,2.8
		c-0.9,0.4-3.5,1.6-4,1.4c-0.5-0.2-7.6-2.8-8.8-3.4c-1.2-0.6-4-2.2-4.1-3.6c-0.2-1.4,0.5-2.1,1.2-2.6c0.7-0.5,1.4-1.4,0.7-2.7
		c-0.7-1.3-1.9-1.9-0.9-2.8c1-0.9,1.2-2.3,2.9-2.1c1.7,0.2,2.1,0.2,5.2,0c3.1-0.2,4.8-0.2,5.7,0.7c0.9,0.9,2.6,2.4,4.8,2.6
		c2.2,0.1,3.6-0.4,3.6-1.5s0.5-3.3,1.6-3.3c1,0,1,1.5,1,0c0-1.5-0.7-2.8-1-3.6c-0.3-0.8,0.3-1.6,0.9-2.1c0.5-0.5,1.9-0.6,0.7-2
		c-1.2-1.4-1.4-2-3.3-2.9s-4.8-2-5-3c-0.2-1.1-1.9-4-2.4-4.6c-0.5-0.7-1.4-1.1-2.1-0.6c-0.7,0.5-1.7,3.3-1.7,4.5
		c0,1.3,0.5,2.2,0.2,2.8c-0.3,0.6-2.8,3.1-3.3,3.1c-0.5,0-1.7,0.9-2.4,1.3c-0.7,0.4-4.1,1.1-4.1,1.1l-1,0.1l-3.1,0.9
		c0,0-4.5,1.3-5.5,2c-1,0.7-1.6,2.3-1.4,3c0.2,0.7,0.7,2.1,0,2.8c-0.7,0.7-2.2,1.2-2.9,1.6c-0.7,0.5-1.6,1.9-1.7,2.3
		c-0.2,0.5-2.8,1.5-2.8,1.5s-3.5,1.6-5.4,2.3c-1.9,0.7-4.3,2.2-4.3,2.2s-0.9-1.6-1.4-2.1c-0.5-0.5-2.8-0.5-3.8-0.5h-1
		c0,0-2.8-0.8-0.5-1.8c2.2-0.9,3.6-1.5,4.5-1.1c0.9,0.5,2.4,0.1,1.2-1.4c-1.2-1.5-1.6-2-2.6-2.7c-1-0.7-1-0.6-1-2
		c0-1.4,1.2-1.8-0.3-2.1c-1.6-0.4-4.8,0-6.6-0.2c-1.7-0.2-11.1-2-11.1-2s-3.8,0.8-5.7-0.1c-1.9-0.9-4.5-2.2-6-1.6
		c-1.6,0.6-5.2,1.6-6.2,2.1c-1,0.5-1.4-0.1-2.1,2.4c-0.7,2.6-0.7,5.3-1.4,5.5c-0.7,0.1-1.2-3-3.1-2.4c-1.9,0.6-3.8,1.6-4,2.4
		s-1,2.4-2.1,2c-1-0.5-4.5-2.1-4.7-3.8c-0.2-1.8,0.7-2.1,0.7-3.5c0-1.4,1-2.8-0.7-2.9c-1.7-0.1-3.8-0.1-4.5-0.2
		c-0.7-0.1-1.6-0.1-1.6-0.8c0-0.7,2.8-1.8,2.9-2.6c0.2-0.8-1.4-2.9-1.4-3.8c0-0.9,0.5-3.1,0.5-3.6c0-0.5-1.4-1.9-1.4-1.9
		s-9.5,0.6-10,1.9c-0.5,1.3-1,3.3-1.7,4c-0.7,0.7-2.2,0.9-2.1,2c0.2,1.1-0.3,1.6,1.2,2c1.6,0.4,3.5-0.6,3.3,1.3
		c-0.2,1.9-0.9,3.7-1.9,4.2c-1,0.5-3.1,1.2-3.1,1.2c-0.3,1.1-0.7,2.1-0.7,2.1s-2.4-1.4-3.1-1.9c-0.7-0.5-4.1-2.2-4.1-2.2
		s-0.9-4.9-0.5-5.7s2.4-0.6,2.1-3.7c-0.3-3.1-1.2-4.8-1.2-4.8s0.5-3.4-0.3-4c-0.9-0.6-3.1-3-2.6-3.3c0.5-0.2,3.5,0.1,4.3,0.2
		c0.9,0.1,2.9-2.8,2.9-2.8s4-2.9,4.3-4.3c0.3-1.4,0.5-2.3,2.6-2.8c2.1-0.5,1.7-0.5,3.5,0c1.7,0.5,5-0.6,5-0.6s0.7-1.6,1.4-1.5
		c0.7,0.1,4.1,0,4.1,0s2.4-2.2,1.7-4.3c-0.7-2.1-0.9-2.8-1.6-3.8c-0.7-1.1-3.6-1.5-1.9-2.6c1.7-1.1,3.3,0,3.8,0.4
		c0.5,0.4,2.1,0.4,2.1,0.4s3.1,1.9,0.9-1.4c-2.2-3.3-0.7-3.4-0.7-3.4s0-1.5,1.6-0.7c1.6,0.8,1.4-4.9,1.9-5.7
		c0.5-0.8,2.8-2.8,2.8-2.8s1.4-0.1,1.4,0.7c0,0.8,0.7,1.9-0.3,2.6c-1,0.7-1.6,1.9-2.1,3.1c-0.5,1.3-2.4,2.6-1,3.6
		c1.4,1.1,2.9-0.2,2.8,0.9c-0.2,1.2-0.9,0.7-0.7,2.2c0.2,1.5-0.2,2.4,0.9,2.4c1,0,2.8,1.1,2.6,2.4c-0.2,1.4-2.9,10.8,1.4,13.2
		c4.3,2.3,4.8,1.3,4.3,3c-0.5,1.8-2.8,1.1-0.3,3.8c2.4,2.8,3.3,8.3,8.5,8.8c5.2,0.6,15.4,3.1,20.2,2.4c4.8-0.7,11.6-1.9,12.1-2.2
		c0.5-0.4,5.4-3.7,5.4-3.7s4.5-2.9,4.7-3.4c0.2-0.5-0.7-3-0.3-4.2c0.3-1.2,1.6-2.2,2.2-2.9c0.7-0.7,1.9-2.3,1.7-4.1
		c-0.2-1.8-1.6-1.5-2.2-1.1c-0.7,0.5-2.4,0.9-2.4,0.9l-0.3-7.5c0,0-3.1,0.6-2.8-0.2c0.3-0.8,2.2-3,3.1-3.3c0.9-0.2,2.2-2.7,1.9-4.1
		c-0.3-1.4,0.3-2.2,0.3-4.1c0-1.9-0.9-5.3-0.9-6.9c0-1.5,0.5-4.1-0.9-4.9c-1.4-0.8-5.2-2.8-5.2-2.8s-2.4-4.8-2.8-5.7s-0.9-2.1-1.2-3
		c-0.3-0.9-2.1-4.2-1.7-5.2c0.3-1.1,0.5-2.1,1.9-2.6c1.4-0.5,0.5,0.4,1.7,1.5c1.2,1.2,0.7,3.1,3.6,2.2c2.9-0.9,3.8-0.4,3.1-2.2
		c-0.7-1.9-0.7-3.6-1.9-4.2c-1.2-0.6-4.5-0.7-6.4-1.2c-1.9-0.5-5.5-0.5-4.3-1.2c1.2-0.7,5.4-1.6,4.1-2.3c-1.2-0.7-3.5-0.7-3.5-0.7
		l-4.3-1.9l-1.6-1.1c0,0-7.1,0.6-8.6,0.7c-1.6,0.1-3.8,0.5-5,0.1c-1.2-0.4-3.8-1.6-4.5-2c-0.7-0.4-2.2-1.1-2.2-1.1s-3.5,2.4-6.2,2.2
		c-2.8-0.2-6-0.1-6.4,0.5c-0.3,0.6-0.9,1.4-0.3,2.1c0.5,0.7,2.2,1.6,1.4,3c-0.9,1.4-1.2,2.2-2.4,3.3c-1.2,1.1-3.6,1.8-4.3,3
		c-0.7,1.3,1,1.9-1.7,2.6c-2.8,0.7-2.6,0.6-3.8,0.8c-1.2,0.2,0,0.7-1.2,0.2c-1.2-0.5-2.8-1.9-6.4-0.9c-3.6,0.9-4.7,1.6-6.4,2.8
		c-1.7,1.2-3.8,3.5-5.7,5c-1.9,1.5-2.8,4.3-4.1,5.3c-1.4,1.1-2.9,3.1-5.7,4c-2.8,0.8-3.8,1.5-5,1.3c-1.2-0.2-4.7-1.2-5.4-1.2
		c-0.7,0-2.9,1.6-4.7,1.9c-1.7,0.2-2.4,0.2-3.3,0.4c-0.9,0.1-1.9,2.1-3.1,1.6c-1.2-0.5-3.1-1.1-3.1-1.1s2.1,3.6-0.3,5.5
		c-2.4,1.9-4.1,1.5-5.2,2.2c-1,0.7-2.6,1.6-2.8,2.3c-0.2,0.7-1.6,1.5-2.2,1.9c-0.7,0.4-0.9,1.5-2.1,1.2c-1.2-0.4-3.8-0.2-4.5-0.5
		c-0.7-0.2-4,2.2-4,2.2s-2.8,1.3-3.5,5.5c-0.7,4.2-2.6,6.3-3.1,6.5c-0.5,0.2-2.6,2.2-4.7,2.1c-2.1-0.1-6.7,1.6-8.6,1.2
		c-1.9-0.5-16-0.1-17.8-1.1c-1.7-0.9-10.2-1.4-10.2-1.4l-14-1.6c0,0-11.7-1.3-12.1-1.6c-0.3-0.4-14.9-2.2-14.9-2.2l8.6,2.8l4.7,1.8
		l-5.2,1.4c0,0-1.6,1.8-1.7,2.4c-0.2,0.7,0,2.1,0,2.6c0,0.5,0,1.4,0.9,2c0.9,0.6,3.1,2.7,3.1,2.7l-1.4,3.3l-0.5,3.1
		c0,0,1.2,0.9-0.3,0.7c-1.6-0.2-2.8-0.1-3.8-0.9c-1-0.8-0.7-1.4-1.2-1.9c-0.5-0.5-1.6-1.4-1.2-2.2c0.3-0.8,1.6-1.1,0.2-1.6
		c-1.4-0.6-2.6-1.3-4.1-1.2c-1.6,0.1-2.6,1.9-2.9-0.2c-0.3-2.1,1.7-2-0.2-3c-1.9-1.1-3.1-1.2-3.8-1.3c-0.7-0.1,1-1.3-1.6-1.1
		c-2.6,0.2-3.3,0.7-3.5,1.3c-0.2,0.6-3.6,2.4-3.1,3.1c0.5,0.7,0.9,1.3-0.2,1.7c-1,0.5-3.6,0-4.1-1.1c-0.5-1.1-3.5-1.3-4.1-1.9
		c-0.7-0.6-1.9-0.8-1.9-0.8s-6.7,2.2-7.3,3c-0.5,0.8-3.3,2.9-3.8,2.4c-0.5-0.5-2.6-1.4-3.3-1.3c-0.7,0.1-1.6,0-1.7,1.1
		c-0.2,1.1,0.7,2.7,0.5,3.4c-0.2,0.7,0,1.5-1.7,1.9c-1.7,0.4-11.7-0.8-13.1-0.1c-1.4,0.7-1.7,1.6-3.1,2.6c-1.4,0.9-3.1,0.8-5,1.2
		c-1.9,0.4-2.1-0.2-3.3,1.1c-1.2,1.3-3.5,3.8-3.6,4.4c-0.2,0.6-3.8,2.2-4.7,2.9c-0.9,0.7-4,1.4-4,2.9c0,1.5-0.3,0.6-0.5,3.5
		c-0.2,2.9,1,2.7,0.3,5.1c-0.7,2.4-2.2,3.4-2.4,3.8c-0.2,0.5-2.1,0.9,0.5,1.4c2.6,0.5,2.6-0.6,5,1.1c2.4,1.6,2.9,2,2.8,4.1
		c-0.2,2.1,0.5,3.3-0.9,4.5c-1.4,1.3-4.3,2.3-4.8,3s-3.5,3.1-3.5,3.1s-4.5,0.2-5.4,1.3c-0.9,1.1-4.7,3.8-5.2,4.3
		c-0.5,0.5-1.2,2.8-2.4,3.3c-1.2,0.5-2.8-0.5-3.5,2.1c-0.7,2.6-1.9,2.9-1.2,4.2c0.7,1.3,2.1,1.1,0.7,2.7c-1.4,1.6-1.6-0.1-2.6,2.6
		c-1,2.7,0,3.1-0.5,3.7c-0.5,0.6-0.3,1.5-1.6,1.5c-1.2,0-1.4,0.7-3.1,1.5c-1.7,0.8-2.4,2.1-3.5,1.9c-1-0.2-3.5-0.6-4.5-2.6
		c-1-2,0.7-2.3-1.7-4.1c-2.4-1.8-2.2-2.6-4.3-2.2c-2.1,0.4-2.4,0.7-3.8,2.1c-1.4,1.4-3.3,3.3-5.2,4c-1.9,0.7-2.6,2-3.5,2.7
		c-0.9,0.7-1.2,0.9-1.6,2c-0.3,1.1-1.4,1.5-2.4,2.6c-1,1.1-2.6,1.4,0.2,2.3c2.8,0.9,3.6,1.2,5.2,2c1.6,0.8,2.8,1.1,4.3,1.9
		c1.6,0.8,4.5,1.9,5.4,3.1c0.9,1.3,2.6,0.5,2.8,3.6c0.2,3.1-1.6,7-1.6,7s-8.6,5.2-10.4,6.2c-1.7,0.9-3.5,0.1-3.3,2
		c0.2,1.9,0.7,2.2,0.7,3.6c0,1.4,3.1,5.3,1.9,7.5c-1.2,2.1,0.3,2.2-2.6,4.3c-2.9,2.1-2.4,1.5-4.7,2.7c-2.2,1.2-3.6,0.2-2.8,2.2
		c0.9,2,1.7,0.6,2.8,3.3c1,2.7,0.3,4.1,0.7,5.1c0.3,1.1,1,2.7,3.6,3.7c2.6,1.1,4.5,0.8,5.7,2.6c1.2,1.8,0.7,1.9,0,4.7
		c-0.7,2.8-1.4,4.1-1.2,5.1c0.2,1-0.3,1.7,1.6,3c1.9,1.3,5.9,2.3,5.7,4.4c-0.2,2.1,2.4,4.9,2.6,6.2c0.2,1.3,0.3,3.7,0.7,4.5
		c0.3,0.8,1,2.6-0.3,3.3s-2.6-0.2-3.6,0.8c-1,1.1-0.2,1.2-2.4,2.1c-2.2,0.9-2.2,0.5-3.8,1.6c-1.6,1.2-1.2,1.5-3.5,2.7
		c-2.2,1.2-4,0.2-4.5,2.7c-0.5,2.4,1,3.4-0.9,4c-1.9,0.6-3.3,1.2-4.5,1.2c-1.2,0-4.7-0.8-5.7-0.2c-1,0.6-0.9,2.6-2.8,2.9
		c-1.9,0.4-2.8,0.1-3.3-1.4c-0.5-1.5-1.9-4-4.5-6.1c-2.6-2.1-2.9-2.8-4.5-2.8c-1.6,0-3.6-0.6-6.2-0.8c-2.6-0.2-3.3-1.5-4.3-0.9
		c-1,0.6-3.1,0.7-3.6,2.3c-0.5,1.6-1.2,2.4-1.9,2.3l-0.7-0.1c0,0,0.7,1.3,1.2,1.9c0.5,0.6,1.4,1.3,2.4,1.5c1,0.2,0.7,0.2,2.6,0.6
		c1.9,0.4,3.1,0.6,3.5,1.8c0.3,1.2,0.3,0.5-0.3,1.9c-0.7,1.4-2.1,1.7-3.5,1.2c-1.4-0.5-2.2-1.7-2.8-2.1c-0.5-0.5-2.6-0.5-3.1-0.7
		c-0.5-0.2-1.4-1.8-2.1-2.1c-0.7-0.4-3.5-0.5-3.5-0.5s-1,0.2-1.6,0.6c-0.5,0.4-0.3,2.4-0.3,2.4s0.2,1.5-1.6,0.2
		c-1.7-1.3-2.1-1.5-2.4-3.3c-0.3-1.8-1.2-2.4-2.1-3.7c-0.9-1.3-0.3-3.1-2.1-2c-1.7,1.2-2.9,2.3-3.1,2.7c-0.2,0.4-0.5-1.4-1,0.6
		c-0.5,2-1.2,2.1,0,3.7c1.2,1.6,2.2,1.9,1.6,2.7c-0.6,0.7-1.8,1.3-1.7,1.9c-0.4-0.4-1-0.6-2.1-0.5c-3.5,0.2-5,0.8-5.5,1.3
		c-0.5,0.5-0.9,2.2-2.2,1.4c-1.4-0.8-1.6-1.6-1-2.1c0.5-0.5,1.9-1.9,2.8-1.9c0.9,0,1,0,2.2-0.4c1.2-0.4,2.2-0.9,1.2-1.3
		c-1-0.4-4.1,0.5-4.1,0.5s-6.4,2.4-7.1,2.5c-0.7,0.1-0.3-1.7-1.7-1c-1.4,0.7-2.8,2.2-4.3,1c-1.6-1.3-3.5-1.4-3.8-2.2
		c-0.3-0.8-1.6-2.3-2.1-1.9c-0.5,0.5-2.2,0.6-2.2,0.6l-0.9-1.9l-0.9-0.8l-2.6,1.1l-2.2,0.4v5.9l-1.9,1.7l-1.4,2l1.6,2l1.6,2.2v9.8
		l2.5,5.3v5.8l-1.6,5.9l2.8,4l5.3,3.3l4.1,8.1l5.9,8.1l3.8,6.2l6.7,5.6l1.9,3.6v5.1c0,0,0.4,3.1,3.7,4.5c3.2,1.4,10.1,7.9,10.8,7.9
		c0.7,0,4.1,6.1,4.1,6.1l6,5.8l-4.6,3.7l-4.6,2.6l6.9,16.4l2.3,11.2c0,0,0.4,4.3,3.9,4c3.5-0.3,15.6,0,15.6,0l2.3-2.3
		c0,0-0.9-4.8,0-5.4c0.9-0.6,3-4.2,3-5.6s-0.7-4,0-4.8c0.7-0.8,2.3-2,2.3-3.4v-3.6c0,0,5.3-1.4,6.4-2.5c1.2-1.1,5.7-2.8,5.5-4
		c-0.2-1.3,2.1-2.6,2.1-3.1v-2.5c0,0,4.4-2.5,4.4-3.7c0-1.2-3.7-6.5-2.8-7.5c0.9-0.9,7.4-0.5,10.1-0.9c2.8-0.5,13.6-3.9,13.6-3.9
		s3.9-1.7,4.6-1.6c0.7,0.2,3.7,1.7,3.7,1.7l4.1-0.5l2.8,1.7l5.1-0.9l2.5,1.2l3.9-0.5l0.9-2.8c0,0,2.5-0.3,2.3,0.9
		c-0.2,1.3,1.6,2,1.6,2l1.4,0.6l3.2-1.4l1.2,1.6l-0.9-3.9c0,0-2.1-2.2-2.1-2.9c0-0.8,1.4-1.7,2.1-1.3c0.7,0.5,1.4,2.5,3,1.7
		c1.6-0.8,6.7-4.6,7.1-6.2c0.4-1.6,2.1-7.3,1.9-9.7c-0.2-2.4-1.2-6.2-1.2-6.2s-2.3-1.7-3.2-1.2c-0.9,0.5-3.9,1.4-3.9,0.8
		s-1.6-2.5,0.7-4.2c2.3-1.7,5.5-3.9,5.5-3.9s0.4-3.3-0.4-3.7c-0.9-0.5-3-1.4-2.8-2.6c0.2-1.3,1.8-3.3,1.8-3.3s3.9-0.8,5.1-0.6
		c1.2,0.1,5.8-0.3,5.8-0.3s6.2,0.6,7.1,0c0.9-0.6,1.8-4.6,1.8-5.3s1.6-2.6,5.1-3.4c2.6-0.6,6.5-0.4,8.5-0.7c0.6-0.1,1.1-0.3,1.2-0.5
		c0.4-1.1,3.7-4.5,6.9-3.9c3.2,0.6,3.9,1.4,4.1,3.4c0.2,2-1.9,6.5-1.9,6.5l-1.8,3.6l0.7,2.3c0,0,4.6-0.6,6-0.3
		c1.4,0.3,5.8-0.3,6.2-0.9c0.4-0.6,0.9-3.9,1.2-5.3c0.2-1.4-0.2-2.6,1.4-2.8c1.6-0.1,4.8,2.9,7.6,2.9c2.8,0,8.5-0.1,8.5-0.1
		s2.3-1.6,3.7-1.4c1.4,0.2,4.1,2,6.2,2c2.1,0,11.3-0.9,11.3-0.9l4.4,0.3c0,0,2.1-1.9,3.5-0.9c1.4,0.9,3.2,2.3,2.8,3.3
		c-0.4,0.9-3.2,2.3-3.2,2.3s-0.7,1.7,0.4,1.9c1.2,0.2,3.8-0.4,4.3-0.1c0.5,0.3,0.8,2,1.3,2c0.5,0,7.3-0.5,8.2-0.2
		c0.9,0.2,2.2,0.6,2.3,2.7c0.1,2.1-0.7,2.8,0,3.3c0.7,0.5,2.9,0.8,3.1,1.5c0.2,0.7-0.8,0.9,0,1.3c0.8,0.5,5.2,2.3,5.9,3.4
		c0.7,1.1-0.9,3.3-1.1,3.7c-0.2,0.4-1.4,2.7,0.5,4.5c1.9,1.9,2,2.7,2.1,3.6c0.1,0.9-0.4,2.4,0,2.7c0.4,0.4,0,1.1,0,1.1
		s-2.6,2.3-2.5,2.7c0.1,0.4,0.8,2.2,2.2,1.5c1.4-0.7,5.8-3.9,6.1-5.5c0.3-1.6,1-1.8,2.1-1.2c1,0.5,3.5,0.9,3.6,1.5
		c0.1,0.6-0.3,1.4-0.8,2c-0.4,0.6-1.2,1.8-1.1,2.7c0.1,1-0.8,4.8,2.8,6.1s10.4,0.4,10.4,0.4s0.9-1.2,1.8-1.4
		c0.9-0.2,4.7,1.6,4.8,1.8c0.2,0.2,2.1,1.6,3.5,1.9c1.4,0.3,2.2,1.1,2.7,1.6c0.5,0.6,1.5,2.6,1.5,2.8c0,0.2,0.7,1.2,2.4,1.2
		c1.7,0,4.6-0.2,5.2-0.6c0.6-0.4,1.2-0.8,1.7-0.6c0.5,0.2,3.5,1.2,3.8,2.1c0.3,0.9,0.2,1.1-0.5,1.8c-0.7,0.7-1.4,1.2-0.8,2.8
		c0.6,1.6,3.6,7.5,6.8,9.5c3.2,2,6.6,3.4,8.2,2.8c1.6-0.6,2.7-1.4,3.7-1.2c1,0.2,1.3,3.5,2.2,3.9c0.9,0.4,8.8,5.2,15.6,2.7
		c6.8-2.5,9.2-3.7,8.6-4.9c-0.6-1.2-5.5-2.5-5.8-6c-0.3-3.5,1-1.7,0.6-2.4c-0.4-0.7-4.2-4.9-5-6.5c-0.8-1.6-1-2-0.1-2.8
		c1-0.8,4.1-1.5,6.2-0.7c2.2,0.8,5.5,2.6,7.3,2c1.8-0.6,2.9-0.1,3.5-1.7c0.5-1.6,0.3-2.9,0-4.2c-0.3-1.4-0.3-2,1.6-2.4
		c1.9-0.5,5.1,0,6.4-0.2c1.3-0.2,7.9,0,7.9,0s5,4.1,7.1,3.7c2.1-0.5,3.8-0.2,3.5-1.1c-0.3-0.8-7.8-5.5-7.8-5.5s-3.5-2.1-3.1-2.9
		c0.3-0.8,1.7-1.8,3.3-1.4c1.6,0.4,2.8,1.4,3.5,0.8c0.7-0.6,1.6-1.4,0.7-2.1c-0.9-0.7-2.6-1.2-2.1-2.7c0.5-1.5,1.2-2,1.9-2.8
		c0.7-0.8,4.3-1.6,5.2-1.3c0.9,0.4,4.5,2.4,5,2.4c0.5,0,6,3,6,3l-1.2,2.2l1.2,0.7l3.8-1.4c0,0,3.6,1.4,5.9,1.3
		c2.2-0.1,10.9,1.9,10.9,1.9l8.5,2.7c0,0,7.9,2,8.5,2s2.9,0.4,4.1-0.5c1.2-0.8,6.4-0.4,7.6,0.2c1.2,0.6,4.3,2.4,5.5,2.9
		c1.2,0.5,5.4,1.4,5.4,1.4h6.4c0,0,9.3,0.7,9.8,0.7c0.5,0,3.5,0,4-0.4c0.5-0.4,1.4-0.6,2.2-1.3c0.9-0.7,3.5,0.2,4,0.4
		c0.5,0.1,2.6-0.1,4-0.4l1.4-0.2v0.7l4-0.5c0,0,3.3,0.2,3.6,0.7c0.3,0.5,4.1,3.1,5.4,4.3c1.2,1.2,2.9,3.1,4.1,3
		c1.2-0.1,4.7,0.1,4.7,0.1l0.3,0l2.5,0.4c0,0,0.3,1.6,0,2.7c-0.3,1.1-0.2,3-0.9,3.6c-0.7,0.6-0.7,1.4-0.7,1.4s-0.7,0-0.2,1.3
		c0.5,1.3,0,4.1-0.5,4.5c-0.5,0.5-0.7,1.6-2.2,1.7c-1.6,0.1-2.4,0.1-2.4,1.2c0,1.1,1.4,2.1,2.9,2.4c1.6,0.4,7.8,1.1,7.8,1.1
		s2.6,0.1,3.5,0.1c0.9,0,1.9,0.1,2.1,0.6c0.2,0.5,0.2,2.6,0,3.6c-0.2,1.1-1.1,2.9,0.1,2.8c1.3-0.1,2.8,0.2,3.2-0.1
		c0.3-0.4,0.2-2.2,1.4-1.9l1.2,0.4c0,0,0.9,1.4,1.9,1.9c1,0.5,7.1,3.5,7.8,3.4c0.7-0.1,2.1,0.2,1.4,0.7c-0.7,0.5-6.9,1.6-6.9,1.6
		s-3.3,0.6-3.3,0.9c0,0.4-0.9,2.4-0.9,2.4h4.8c0,0,2.8-0.7,3.6-0.7c0.9,0,4.5,2,4.5,2.4c0,0.5-1.2,1.4,0,1.3
		c1.2-0.1,3.3-1.5,3.3-1.5s3.5,0.1,4,0.1s4.7,0.4,5.7-0.1c1-0.5,5.2-1.2,5.9-1.5c0.7-0.4,6-1.9,7.6-2.1c1.6-0.2,7.1-1.1,7.6-1.1
		c0.5,0,7.3-0.6,7.3-0.2c0,0.4,0.2,2-0.9,2.9c-1,0.9-5,2.1-5.7,1.8c-0.7-0.4-2.6-1.2-2.2-0.2c0.3,0.9,1.4,2.2,1.9,3
		c0.5,0.8,0.7,1.2,2.6,2.6c1.9,1.4,7.4,3.1,8.3,6.6c0.9,3.5,4.3,15.6,4.3,15.6l4.7,17.4l2.1,10l1.6,5.8c0,0,2.2,1.1,2.9,0.7
		c0.7-0.4,4.1-3.3,4.3-3.7c0.2-0.5-0.2-1.4,1.7-1.4s3.3,0.2,4.1,0.9c0.9,0.7,4.1,3.6,6.2,4.3c2.1,0.6,2.6,1.3,3.6,2.5
		c1,1.2,0.7,2.6,2.8,2.9c2.1,0.4,6.2,1.9,6.2,1.9h4c0,0,2.4-1.5,3.6-1.6c1.2-0.1,7.4,0.5,9.2,1.6c1.7,1.2,3.3,2.6,4.3,4.4
		c1,1.9,2.9,5.2,2.9,5.2s0.5,3.1,1.9,3.4c1.4,0.2,4.5,0.6,5.2,2c0.7,1.4,1,2.1,1,2.1s-0.5,2.3,0,2.8c0.5,0.5,0,4.5,2.1,5.9
		c2.1,1.4,9.2,2.9,9.2,2.9s4.5-0.1,5.2,0c0.7,0.1,5.2-1.8,6-2.1c0.9-0.4,1.6-2.4,3.1-0.9c1.6,1.5,0.7,2.9,0,3
		c-0.7,0.1-2.4,0.9-2.1,1.4c0.3,0.5,5.2,3,5.2,3s2.2,1.9,2.4,3.1c0.2,1.3-0.9,1.9,0,1.9c0.9,0,3.6,1.2,5.7,0
		c2.1-1.2,5.4-2.9,6.7-3.7s3.6-0.4,5.9-0.2c2.2,0.1,13.1,0.4,14.9-1.4c1.7-1.8,4.7-3.6,7.1-5c2.4-1.4,9.2-1.9,13.3-2.9
		c4.1-1.1,10-3.1,12.1-3.7c2.1-0.6,3.3-2.1,6.2-1.6c2.9,0.5,6.6,0.2,6.7-0.4c0.2-0.6,1-2.3,2.1-1.8c1,0.6,0.9,3.4,3.3,2.9
		c2.4-0.5,4.5-1.8,5.7-0.7c1.2,1.1,1.9,2.4,4.1,2.2c2.2-0.2,11.1,0.9,11.1,0.9l5.9,0.4c0,0,1.2,0.1,2.4,2.4c1.2,2.3,0,3.7,0.9,4.4
		c0.9,0.7,7.3,5.3,7.9,5.2c0.7-0.1,3.1,2.4,5.4,1.9c2.2-0.6,4.8-3.3,7.1-3.4c2.2-0.1,4.8,4.4,7.8,4.2c2.9-0.2,4.1-1.8,5.5-1.5
		c1.4,0.2,6.4,3,10.5,2.3c4.1-0.8,11.1-4.6,10.7-7.2c-0.3-2.6-5.9-9.9-5.9-13.2c0-3.3,6.2-2.2,7.3-3.7c1-1.5,0.9-3.3,3.8-6.8
		c2.9-3.5,5.7-5.9,5.7-5.9s2.1-0.7,4.5,0.6c2.4,1.3,11.2,5.8,20.6,6.9c9.3,1.1,22.5,2.9,23.3,3.4c0.9,0.5,2.1,2.7,2.1,3.8
		c0,1.2,0,5.7,1.2,7.3c1.2,1.6,11.9,7.8,12.6,7.9c0.7,0.1,6.6,2.6,14.5,0.2c7.9-2.3,16.6-4.6,18.1-5c1.6-0.4,8.8-0.8,10.5-0.7
		c1.7,0.1,6.5,2.1,6.5,2.1s5.5-0.1,6.4-0.1s6,2.2,6.2,2.6c0.2,0.4,2.8,2.2,2.8,2.2s4.3-0.9,5.7-0.4c1.4,0.6,7.6,5.5,9.7,6.8
		c2.1,1.3,8.4,2.1,14.5,1.8c6-0.4,16.4,0.1,21.9,0.1c5.5,0,8.6-1,10.9-1.7c2.2-0.7,3.1-4.1,10.2-5.5c7.1-1.4,16-1.6,18.3-4.2
		c2.2-2.6,3.6-6.9,7.4-9.2c3.8-2.3,11.7-5.2,14-5.6c2.2-0.4,9.8,4.4,13.5,3.8c3.6-0.6,6.2-3.5,9-4c2.8-0.5,9.8,3.7,13.8,3.6
		c4-0.1,11.1-0.1,13,0.6c1.9,0.7,3.5-0.6,3.5-0.6s4-4.7,5.2-6.1c1.2-1.4,6.7-5.1,7.8-5.8c1-0.7,0-2.1-0.9-3.3
		c-0.8-1.2,1.3-3.7,1.3-3.7s1.3-1.6,1.4-3.3c0.2-1.6-0.2-3.8,0-4.9c0.2-1.1,1-3.1,1.2-4.5c0.2-1.4,0.3-2.4,0-2.9
		c-0.3-0.5,0.3-2.8,1.2-3.8c0.9-1.1,2.4-2,2.9-2.4c0.5-0.5,4-5.7,2.8-7c-1.2-1.3-3.6-2.4-3.8-3.3c-0.2-0.8-0.7-2.3-1.9-3.1
		c-1.2-0.8-2.9-0.9-3.6-1.1c-0.7-0.1-2.1,0.7-2.4-1.5c-0.3-2.2,1.6-7.6,6.2-9.8c3.6-1.7,12.5-5.7,17.5-7.6c1.5-0.6,2.5-1,3.1-1.1
		c2.4-0.6,11.1-2.4,11.7-2.8c0.7-0.4,11.4-0.4,11.4-0.4s11.7-0.6,14.2-0.8c2.4-0.2,7.8-1.6,8.5-1.5c0.7,0.1,3.1,2.4,4.8,2.7
		c1.7,0.2,2.9,0.4,4.3,1.7c1.4,1.4,2.1,3.1,4.3,3.6c2.2,0.5,3.1-0.9,4.1,0.5c1,1.4,0.8,2.7,3.5,3.7c2.6,1.1,5.7,2.8,7.8,4.1
		c2.1,1.3,3.6,0.2,4.1,2.7c0.5,2.4,0.7,4,1.6,4c0.9,0,6.6,2.4,7.9,3.1s2.1,1.4,2.1,1.4s4.1,3.8,4.7,4.8c0.5,0.9,5.7,5.6,6.4,6.1
		c0.7,0.5,5.5,4.2,7.8,4.5c2.2,0.4,6.7-0.5,7.8-1.1c1-0.6,2.9-1.5,5-1.5c2.1,0,11.4,0.1,13.1,0.1c1.7,0,15.2,0.8,16,0.8
		c0.8,0,6.9,1.5,6.9,1.5c0.2,1.1-0.9,4,2.1,4.6c2.9,0.7,3.8,0.2,5,2.4c1.2,2.2,0.9,4.8,2.2,5.3c1.4,0.6,10,2,18.8-2.3
		c8.8-4.3,11.4-7.2,12.6-9c1.2-1.8,5.9-5.7,7.4-6.9c1.6-1.2,4.8-5,7.1-6.1c2.2-1.1,4.3-3,4.3-3s0,1.2,1.6,1.6
		c1.6,0.5,3.8-0.5,3.8-0.5s1,4.4,1.6,5c0.5,0.6,5,2.8,5,4.9c0,2.1,2.1,2.9,0,4.1c-2.1,1.2-4.1,0.4-3.6,2.7c0.5,2.3,1.2,3.6,1.9,5.1
		c0.7,1.5,1.5,8.7,2.7,9.7c1.2,0.9,1.7,4.9,1.7,5.2c0,0.4-0.7,2.2,0,3.5c0.7,1.3,1.7,2.3,1.9,4c0.2,1.6,0.2,3.1,0,4.2
		c-0.2,1.1,0.3,1.7,0.1,3.5c-0.1,1.8-1.3,5-2.2,5.3c-0.8,0.4-4,1.4-4.8,1.3c-0.8-0.1-5.7-0.8-6.9-0.5c-1.2,0.4-4.8,1.2-4.8,1.2
		s-2.2,1.9-2.2,2.2c0,0.4-0.2,2.2-0.7,2.8c-0.5,0.6-1.2,3.1-2.8,4.2c-1.6,1.1-3.1,2.1-2.9,2.6c0.2,0.5,2.8,3.1,6.4,5.5
		c3.6,2.3,5.7,6.1,7.1,7.7c1.4,1.6,6.7,8.7,7.9,10.3c1.2,1.6,1.6,2.2,0.5,3.7c-1,1.5-2.4,2-4,2.3c-1.6,0.4-3.5,0.8-4.1,1.3
		c-0.7,0.5-0.3,2.1,0.2,2.6c0.5,0.5,2.4,2.7,3.1,4.1c0.7,1.4-0.5,2.7-0.3,3.3c0.2,0.6,0.3,1.3,0,2.3c-0.3,1.1-0.5,1.9,0.3,1.9
		c0.8,0,1.2-1.8,1.4-2.2c0.2-0.5,1.1-3,0.9-3.5c-0.2-0.5,1.9,1.4,2.2,0.4c0.3-1.1,2.6-2.4,0.5-3.7c-2.1-1.3-3.1-1.4-2.2-2
		c0.9-0.6,3.1-0.9,5.2-1.1c2.1-0.1,4.5,0.7,4.5-0.4c0-1.1-0.5-2.2-0.8-3.3c-0.3-1.1,0.8-2.6,0.8-3.6c0-1.1,0.7-1.4,0-2.3
		c-0.7-0.9-1.4-1.4-1.2-2.4c0.2-1.1-0.3-0.9,1.5-1.4c1.8-0.5,8.5,0.1,9.5,0.6c1,0.5,1.9,3.1,4.8,1.9c3-1.3,5.2-2.1,6.6-2.3
		c1.4-0.2,2.6,2.2,4.5,1.8c1.9-0.5,2.8-1.1,4-2.2c1.2-1.2,1.9-1.4,2.4-2.1c0.5-0.7,7.4-4.4,7.4-4.4s1.6-1.7,1.4-3.3
		c-0.2-1.5-1.5-2.2,0-2.8c1.5-0.6,4.7-1.3,5.7-2.3c1-1.1,4.1-4.5,4.5-6.1c0.3-1.5,0-2.8,0-3.3c-0.2-1.6,0.2-3.1,0.2-3.1
		s1.6-2,1.4-3.5c-0.2-1.5-1.2-5-1.2-6.3s1.4-1.8,1.2-2.8c-0.2-1.1,1.5-3.8,1.9-5.7c0.3-1.9,0.9-4.1,1.2-6c0.3-1.9-1-5.1,0-6.8
		c1-1.6,3.8-3.6,4-7c0.1-3.4-0.3-6.2,0-7.9c0.3-1.8,0.5-3.6,1-4.1c0.5-0.5-0.3-4.5-1.4-6.6c-1-2.1-0.2-4-0.3-5.3
		c-0.2-1.4-1-5.6-1.9-6.6c-0.9-1.1-4-3.8-2.6-6.4c1.4-2.6,3.3-4.4,3.3-5.7c0-1.3,1.6-10.4,1.6-11c0-0.7-0.2-5.6-0.2-5.6
		s-0.3-0.4-0.7-1.2c-0.3-0.8,0.3-2-0.2-3.1c-0.5-1.2-1.6-2.4-2.2-2.3c-0.7,0.1-2.4,1.4-2.8,1.1c-0.3-0.4-1-4.2-1.4-4.6
		c-0.3-0.5-5.7-8.2-6.2-8.5c-0.5-0.4-0.7-3.4-2.1-4c-1.4-0.6-2.6-0.4-3.3-0.8c-0.7-0.5-9.2-7.5-9.2-7.8c0-0.4-0.9-4.1-0.9-4.1
		s-1.6-4-1.6-4.6c0-0.7-1.9-2.1-2.4-2.4c-0.5-0.4,0.2-6,0-6.8c-0.2-0.8-1.2-2.6-1.7-3.1c-0.5-0.6-0.5-2.7-0.5-2.7s-1.6-0.9-2.2-0.6
		c-0.7,0.4-4.8,0.7-5.2,0.2c-0.3-0.5-1.6-2.8-1.6-2.8s-4.3-1.5-5-2.7c-0.7-1.2-1.2-3.4-1.2-3.4s-0.2-2.8-0.7-3.6
		c-0.5-0.8-1.2-1.8-1.7-1.9c-0.5-0.1-4,0.8-4,0.8s-10.3,0.7-11.1,0.4c-0.7-0.4-4-2-4.3-2.3c-0.3-0.4-3.3-1.2-5.9-1.5
		s-4.1-0.9-4.5-1.4c-0.3-0.5-1.2-1.8-1.7-0.9c-0.5,0.8-1.4,2.8-1.4,3.1c0,0.4-3.5,2.8-4.5,2.8c-1.1,0-5.7-1.8-6.6-0.9
		c-0.8,0.8-0.3,2.8,0.3,3.1c0.7,0.4,2.4,2,4,2.6c1.6,0.6,2.1,1.2,2.6,2.2c0.5,1.1,1,2.1,1,2.6c0,0.5,0.9,1.2-0.2,1.2
		c-1.1,0-2.6-0.2-2.6-0.9s0.5-1.8-0.3-2.2c-0.8-0.5-1.6-0.6-2.1-0.1c-0.5,0.5-1.4,2.3-1.7,2.8c-0.3,0.5-2.8,4.6-4.7,5.1
		c-1.9,0.5-3.1,2-3.5,0.9c-0.3-1.1,0.8-2.8,1-3.6c0.2-0.8,0.9-1.9-0.7-2c-1.6-0.1-5.7,0.7-5.7-0.4c0-1.1,1.2-3.4,1.1-4.1
		c-0.2-0.7,0.3-1.6-1.9-1.4c-2.2,0.2-3.6,1.5-4.1,2c-0.5,0.5-1.2,1.8-1.2,1.8s0.7,1.9,1.6,2.2c0.9,0.4,2.1,1.9,2.9,2.4
		c0.9,0.6,1.9,0.7,0.2,1.6c-1.7,0.9-2.8,2-3.6,2.1c-0.8,0.1-1.9-0.2-2.8-1.3c-0.9-1.1-0.3-5-1.6-5.9c-1.2-0.9-3.3-2.2-4.1-3
		c-0.9-0.8-2.4-1.5-2.8-1.1c-0.3,0.5-2.2,1.4-4,2.6l-1.7,1.2c0,0-2.9,1.3-3.8,1.3s-4.3,1.1-6.4-0.1c-2.1-1.2-3.8-1.5-3.1-3.3
		c0.7-1.8,4.7-4,5.2-6c0.5-2,0.9-4.2,1-5.5c0.2-1.3,2.2-2.9,2.9-5c0.7-2.1,1-4.2,1-5.7c0-1.5-0.2-3.5,1.4-5.1
		c1.6-1.6,2.6-1.9,2.6-3.5s-0.2-2.9-0.9-4.4c-0.7-1.5-0.1-2.3,1.1-4.3c1.2-2,0.7-3.1,1-5.9c0.3-2.8,0.7-4.4,1.2-5.7
		c0.5-1.3,1.4-3.1,0.7-4.6c-0.7-1.5,0.2-4.5,0.7-5c0.5-0.5,1.9-0.6,1.7-1.8c-0.2-1.2-2.9-5.8-2.2-7.2c0.7-1.4,1.2-3.1,1.9-4.5
		c0.7-1.4,0.2-1.2,0-5.3c-0.2-4.1-0.2-9.5-0.2-9.5s1.2-4.1,2.6-5.8c1.4-1.8,1.9-1.4,3.5-1.5c1.6-0.1,3.3-0.9,4.1-1.8
		c0.9-0.8,3.5-3,5.5-4.1c2.1-1.1,4.8-2.7,5.7-3.4c0.9-0.7,1.2-2.1,1.7-2.3c0.5-0.2,2.2-0.5,4.5-1.4c2.2-0.9,2.4-1.8,3.3-0.7
		c0.8,1.1,0.2,2.1,2.1,2c1.9-0.1,3.3,0,3.8-1.3c0.5-1.3-0.3-1.6-0.5-2.9c-0.2-1.3-2.8-1.9,0.7-2.8c3.5-0.9,5.2-0.7,6.7-1.3
		c1.6-0.6,3.6-1.5,4.6-3c1-1.5-1-2.4,2.4-2.9c3.5-0.5,4.1,1.1,6.4,0c2.2-1.1,3.6-2,3.5-2.8c-0.2-0.8-0.2-0.7-1.2-1.3
		c-1.1-0.6-2.1,0.4-2.9-0.9c-0.9-1.3-0.3-1.4,1.2-1.6c1.6-0.2,1.2-2.1,1.2-2.1c-1.1-1.3-3.3-1.5-1.2-2.9c2.1-1.4,6.9-2.4,6.9-2.4
		l4.5-2.4c0,0,1.2,2.3,2.4,1.5c1.2-0.8,2.9-2.2,2.9-3.3c0-1.1,4-2.9,4.7-2.9s6.7,0.7,7.4,0c0.7-0.7,2.2-1.9,1.6,0
		c-0.7,1.9-2.2,2.1-3.6,3c-1.4,0.9-2.8,0.9-3.1,2.4c-0.3,1.5,1.9,4.1,5.2,4.1c3.3,0,5.5-1.8,7.1-2.9c1.6-1.2,1.9-3.1,1.9-3.1
		c-1.1-0.7-3.1-2.3-1.9-2.9c1.2-0.6,2.9,1.4,4.7-0.2c1.7-1.6,2.1-2.8,2.2-4.9c0.2-2.1,1-2.3,2.8-3.1c1.7-0.8,6.4,1.4,6.9-1.2
		c0.5-2.6-0.5-3.6,1-4.3c1.6-0.7,3.1-0.1,4.3-1.4c1.2-1.3,2.6-4.1,0.9-5c-1.7-0.9-5.2-1.9-6.4-1.2c-1.2,0.7-2.1,1.6-3.3,1.9
		c-1.2,0.2-2.4,0.5-3.1,0.8c-0.7,0.4,0.8,1.5-1.2,2c-2.1,0.5-3.1,1.2-3.3-0.1c-0.2-1.3-2.8-2.7-2.6-3.1c0.2-0.5,2.4-0.4,2.1-2.6
		c-0.3-2.2-3.1-7.6-3.1-8.7c0-1.2-0.5-6.1-0.7-6.8c-0.2-0.7-2.9-5.6-2.9-6.6c0-1.1,0.3-3-0.5-4.9c-0.9-1.9-1.2-4.1-1.9-5.9
		c-0.7-1.9-0.2-4.4,1.6-6.2c1.7-1.8,3.6-3.8,4.8-4.9c1.2-1.1,3.5-4.2,3.5-4.2s0.7-0.8,2.8-0.7c2.1,0.1,3.8,0.9,4.8,0.5
		c1.1-0.5,0.9-1.6,1.6-2.2c0.7-0.6-1.7-3-1.7-3.5c0-0.5-0.8-2,0.5-1.2c1.4,0.8,3.8,3.1,4.5,4.1c0.7,0.9,0.5,2.6,0.9,3.5
		c0.3,0.9,0,1.3,2.8,2.9c2.8,1.6,1.9,2.8,3.5,2.9c1.6,0.1,2.6-0.1,3.1-1.4c0.5-1.3,0.3-2.3,0.7-3c0.3-0.7-1.2-2.3,0.3-0.7
		c1.6,1.6,3.8,5.5,5.4,5.2c1.6-0.2,2.9-0.7,3.1-2.4c0.2-1.8-0.3-4,0-4.9c0.3-0.9-2.8-3.7-2.6-5.8c0.2-2.1,0.7-6.2,0.7-6.2
		s-1.9-1.4-1.9-3.3s-0.2-2.6,1-2.9c1.2-0.4,1.8,0.4,2.8,0c1-0.4,4.1-1.4,1.7-2.4c-2.4-1.1-4.1-1.2-5.4-1.2s-2.1,0.7-2.2-0.6
		c-0.2-1.3-5.4-4.5-5.7-5.1c-0.3-0.6-3.5-1.1-3.3-2.7c0.2-1.6,0.8-3,1.4-4.5c0.5-1.5,1-2.7,1.6-3.1c0.5-0.5,9.2-3.8,9.2-3.8
		s2.1-0.2,1.4,0.8c-0.7,1.1-1.6,1.2-2.9,2.3c-1.4,1.2-2.1,1.6-1.9,2.9c0.2,1.3-0.9,1.4,1,2.9c1.9,1.5,4.1,2.6,6,3.6
		c1.9,1.1,2.4,0.6,2.8,1.8c0.3,1.2-1.1,0.9,0,2.4c1,1.5,1.6,2.8,3.1,2.7c1.6-0.1,1.2-0.8,2.4-0.7c1.2,0.1,2.1-0.4,2.4,1.6
		c0.3,2-0.5,3.5,1.6,3.5c2.1,0,3.8-0.9,4,0.6c0.2,1.5,1.9,2.4,0,3.3c-1.9,0.8-3.1,0.9-3.3,2c-0.2,1.1,0,0.6,0.2,2.6
		c0.2,2,0,3-0.2,4.1c-0.2,1.1-1.6,2.6-0.2,3.8c1.4,1.3,2.4,1.2,3.6,2.1c1.2,0.9-0.1,0.8,0.7,2.9c0.9,2.1,1,2,2.2,3.5
		c1.2,1.5,1.7,1.3,1.9,3.1c0.2,1.9-0.7,4.4-1,5.5c-0.3,1.1-1.2,1.5-0.7,2.6c0.5,1.1,0.3,2.1,1,2.6c0.7,0.5,0,1.4,0.7,2.4
		c0.7,1.1,0,2.3,0,2.3s-0.5,0.2,1.2,0.9c1.7,0.7,4.6,0.1,4.8,2.4c0.2,2.3-0.9,3.6,0,5.1c0.9,1.5,0.5,2.8,1.4,5.1
		c0.8,2.3,1,3.5,1.4,4.5c0.3,1.1,0.5,2.2,0,2.8c-0.5,0.6-1.2,1.4-1.9,1.5c-0.7,0.1-2.6-0.1-2.8,0.9c-0.2,1.1-0.2,2.3,0.5,3.6
		c0.7,1.3,1.7,1.4,0.3,2.2c-1.4,0.8-1.6,1.3-2.8,1.5c-1.2,0.2-2.6,0.8-1.9,1.5c0.7,0.7,0.5,1.8,2.4,1.4c1.9-0.4,0.3-1.6,3.1-0.4
		c2.8,1.3,2.8,1.4,4,3.3c1.2,1.9,1.7,2.6,1.6,3.6c-0.2,1.1-0.7,1.2-0.7,1.8c0,0.6,0.1,0.6,0.7,1.9c0.7,1.3,0.7,2,0.8,3.3
		c0.2,1.3,0,2.8,1,4c1.1,1.2,2.9,3.6,6,5.5c3.1,1.9,4,3.4,6.2,5.5c2.2,2.1,3.5,4.2,5.9,5.3s6.2,3.5,9.5,4.8
		c3.3,1.3,13.1,6.2,13.6,6.5c0.5,0.4,9.2,3.6,9.7,3.7c0.5,0.1,9.5,3.7,9.5,3.7l9,4.4l10.5,4.9l6.4,2.9l5,2.1c0,0,3.3,1.2,3.3,1.5
		c0,0.4,3.8,3.8,3.8,3.8l4,1.1l3.1,0.1c0,0,3.1,1.2,3.8,0.9c0.7-0.2,1.9-1.5,1.6-2.8c-0.3-1.3-0.9-3.3-1.6-4.8
		C1741.1,352.3,1741.2,352.1,1742.3,351.5z"/>
	
		<radialGradient id="SVGID_1_" cx="-84.7223" cy="872.0533" r="1" gradientTransform="matrix(-54.0074 721.9999 1877.4348 140.4368 -1640902.625 -61298.9258)" gradientUnits="userSpaceOnUse">
		<stop  offset="0" style="stop-color:#FFFFFF"/>
		<stop  offset="1.000000e-04" style="stop-color:#DFE7EA"/>
		<stop  offset="1" style="stop-color:#E0E3E5;stop-opacity:0"/>
	</radialGradient>
	<path class="st1" d="M1742.3,351.5c1-0.6,2.9-1.1,1.1-2.9s-3.7-1.3-3-2.9c0.7-1.6,1.7-5.9,0.2-7.3c-1.6-1.4-2.6-0.5-2.9-1.8
		c-0.3-1.3-1.9-3.7-2.1-4.3c-0.2-0.6-3.5-2.4-5-2.6c-1.6-0.1-3.1-0.8-3.5-1.3c-0.3-0.5-4.5-0.2-4.8-1.3c-0.3-1.1-1.6-2.1,0.2-2.6
		c1.7-0.5,3.5,0.6,3.6-0.9c0.2-1.5-0.3-2.8,0-3.8c0.3-1.1,0-1.2,1.7-3c1.7-1.9,2.4-2.9,4.7-3c2.2-0.1,4-0.8,4-0.8s-7.4-4-8.4-3.7
		c-1.1,0.2-7.6-0.5-9.7-4.5c-2.1-4.1-3.5-5.9-3.3-8.3c0.2-2.3,0.3-2.8,1-4.3c0.7-1.5,1.2-1.3,2.4-1.6c1.2-0.4,2.1-2,2.2-2.6
		c0.2-0.6,1.7-1.6,1-4c-0.7-2.3-2.2-3.5-3.1-4c-0.9-0.5-7.6-1.5-9.7-2.3c-2.1-0.8-5.2-2.9-5.7-3.4c-0.5-0.5-2.9-3.3-3.6-4.3
		c-0.7-1.1-3.3-4.1-3.6-4.9c-0.3-0.8-0.9-2.2-1.6-2.6c-0.7-0.4-1.6-1.1-1-1.8c0.5-0.7,0.7-1.8,1.2-2c0.5-0.2,1.6,1.5,2.2,2.2
		c0.7,0.7,1.2,0.9,2.8,1.8c1.6,0.8,1.7,0.8,2.9,1.1c1.2,0.2,2.1,0.7,2.2-0.7c0.2-1.4,0.7-3.8-0.3-5.1c-1-1.3-2.8-2.2-3.8-1.9
		c-1,0.4-4-0.8-5.4-2.1c-1.4-1.3-1-4-3.5-2.8c-2.4,1.2-3.8,2.9-3.8,3.4c0,0.5,0.5,2.3-0.9,1.1c-1.4-1.3-5-3.7-6.9-4.6
		c-1.9-0.9-3.6-1.8-4.7-3.3c-1-1.5,0-4.1-2.2-4.3c-2.2-0.2-3.8,0.8-5,0.7c-1.2-0.1-2.2-0.1-2.8,0.6c-0.5,0.7-0.7,0.7-0.5,1.8
		c0.2,1.1,0.9,2.4,1.4,3c0.5,0.6,1.4,1.4,0.3,1.2c-1-0.2-2.2-1.4-2.2-1.4s-2.2,0.9-3.1,1.3c-0.9,0.4-1.4,0.8-2.1,0.6
		c-0.7-0.2-2.2,0.7-4.1-2.1c-1.9-2.8-3.3-7.1-3.6-7.6c-0.3-0.5-1.6-4.6-2.9-5.7c-1.4-1.1-3.5-2.9-4.3-2.9c-0.9,0-2.2-1.5-2.2-1.5
		s1.9-1.3,1.4-2c-0.5-0.7-2.2-1.8-2.2-1.8s-2.2,0.6-3-0.2c-0.7-0.8-1.2-3.5-1.2-3.5s-3.6-1.2-3.5-2.6c0.2-1.4,1-2.3,0.2-2.9
		c-0.9-0.6-0.2-2,0.3-1.8c0.5,0.2,2.8,0.9,2.8,0.9s2.6-0.4,2.6-1.1c0-0.7-1.2-2.1-1.7-2.3c-0.5-0.2,0.9-1.1,2.1-1.2
		c1.2-0.1,2.6,0.9,3.3-0.4c0.7-1.3,1.7-1.1,0.9-2.6c-0.9-1.5-0.5-0.8-1.6-2.9c-1.1-2.1-1.4-2.8-1.2-4.3c0.2-1.5-0.7-2.4,0.8-3
		c1.6-0.6,2.8-0.4,3.3,0.9c0.5,1.3,0.7,3.8,2.9,4.2c2.2,0.4,3.1,0.8,3.8-0.2c0.7-1.1,2.2-1.5,1.6-3c-0.7-1.5-1.7-4.5-3.3-5.2
		c-1.6-0.7-1.6-0.8-2.9-2.2c-1.4-1.4,0.2-0.9,0.8-2.4c0.7-1.5,0.7-3.6,0.9-5.5c0.2-1.8,2.1-2.9,2.8-4.3c0.7-1.4,1.2-1.8,3.6-3
		c2.4-1.3,3.1-2.2,6.2-2.6c3.1-0.4,6.9-0.7,8.8-0.6c1.9,0.1,3.8,0,4.8-0.6c1-0.6,3.8-0.2,2.4-1.8c-1.4-1.5-2.2-2-2.9-2
		s-2.4-0.2-2.9-0.8c-0.5-0.6-1-0.2-1.9-2.2c-0.9-2-1.9-3.1-1.9-5c0-1.9,0.7-2.6-1-3.4c-1.7-0.8-1.9,0.5-1.7-0.8
		c0.2-1.3,1-1.5,1.4-2.6c0.3-1.1,0.9-1.5,0.3-2.6c-0.5-1.1-1-1.9-1.6-2.3c-0.5-0.5-0.9-1.5-1.4-1.9c-0.5-0.4-2.1-1.8-1.6-2.7
		c0.5-0.9-0.3-2.3-1-2.4c-0.7-0.1-2.1,1.1-2.1,0c0-1.1-0.2-1.3,0-2.3c0.2-1.1-2.4-1.5-2.8-2.9c-0.3-1.4-0.9-2.7,0-3.7
		c0.9-1.1,2.1-2,2.4-2.8c0.3-0.8,1.4-8.3,1.2-10.1c-0.2-1.9-2.2-10.8-2.2-11.3c0-0.5-2.6-4.6-2.6-4.6l-3.6-0.9c0,0,5.9-0.2,6.4-0.7
		c0.5-0.5,5-3.1,5.5-4.1s5.9-4,5.9-4s-0.8-2.8-1.4-3c-0.5-0.2-1.9-1.1-2.4-2c-0.5-0.9-2.2-2.8-2.8-3c-0.5-0.2-2.6,0.1-3.5,0
		c-0.9-0.1-5-0.1-5-0.1s-1.6-0.9-2.1-0.9c-0.5,0-2.9,0.9-2.9,0.9l-2.9,2.1l-2.2,0.2c0,0-1.7,0.4-1.9,0.7c-0.2,0.4-1.9,1.4-2.8,1.3
		c-0.9-0.1-1.9-1.5-1.6-2c0.3-0.5,0.5-0.9-0.2-1.3c-0.7-0.4-2.8-1.1-2.8-1.1l-1.9-0.9l-2.8,1.4l-1.7-0.2l-1.2-1.9l-5.2,0.6l-3.3,0.9
		l-1.7,2.1c0,0-1.4,1.4-2.1,1.2c-0.7-0.2-2.8-0.8-2.8-0.8l-1.7,1.6l-0.7,1.7l-2.6,2.9l-1.6,1.4c0,0-2.2,0.1-2.6-0.2
		c-0.3-0.4-2.9-1.4-2.9-1.4s1.4-1.9,1.9-1.9c0.5,0,1.4-0.7,1.4-0.7s1.1-0.5,1.2-1.1c0.2-0.6,1.2-1.5,0.3-1.8
		c-0.9-0.2-1.9-0.1-2.2-0.5c-0.3-0.4-1.1-0.9-0.3-1.2c0.7-0.2,1.7-0.4,2.6-0.1c0.9,0.2,2.1,0.8,2.8,0.6c0.7-0.2,2.1-0.5,2.2-0.9
		c0.2-0.5,0.7-1.3,0.7-1.3s0.7-0.6,1.4-0.4c0.7,0.2,1.9,0.1,1.9,0.1l1.7-1.1c0,0,0.5-0.9,0.3-2c-0.2-1.1-2.8-10.8-3.3-11.3
		c-0.5-0.5-7.3-6.6-7.3-6.6s-5.7-1.9-6.7-1.6c-1,0.2-4.5,2-5.9,1.3c-1.4-0.7-3.5-1.9-3.6-2.2c-0.2-0.4-1-2.7-1.7-3.1
		c-0.7-0.5-1.4-0.8-1.9-1.3c-0.5-0.5-0.2-2-0.2-2l0.8-2c0,0,3.1,0.5,3.3,1.3c0.2,0.8,5.2,4.4,8.1,3.8c2.9-0.6,5.9-1.2,6.9-1.2
		c1,0,1.9-0.1,2.8-0.8c0.9-0.7,2.1-1.3,2.2-2.2c0.2-0.9,0.5-1.9,0.3-3.4c-0.2-1.5-0.7-3.8,1.4-5.5c2.1-1.6,3.5-2.2,4.3-2.2
		c0.9,0,8.6,0.9,10.2,0c1.6-0.9,9-2.1,12.3-5.6c3.3-3.5,6.2-4.1,7.3-4.4c1-0.4,5.2-0.9,5.2-1.9c0-0.9-0.2-2.1-0.3-3
		c-0.2-0.9,0.2-1.6,0-2.4c-0.2-0.8,1-1.6,0.9-2.1c-0.2-0.5-1.4-2-2.1-2.1c-0.7-0.1-3.5,0.8-4.7,1.9c-1.2,1.1-2.9,1.9-3.6,1.9
		c-0.7,0-4.3-0.7-4.6-1.5c-0.3-0.8,1.2-3.3,0.7-3.8c-0.5-0.6-1-0.8-3.3-0.9c-2.2-0.1-2.6,1.1-3.8,0c-1.2-1.1-1.7-2-1.7-2
		s-4-0.6-4.8,0c-0.9,0.6-2.8,2.1-1.9,0.7c0.9-1.4,2.4-2.7,3.3-3c0.8-0.4,3.1-3.7,3.6-5s2.2-2.1,0.9-2.2c-1.4-0.1-4,0.7-4.8,1.2
		c-0.8,0.5-2.2,1.5-2.4,0.9c-0.2-0.6,3.3-3.6,3.5-4.5c0.2-0.9-0.3-1.5-1.7-2.1c-1.4-0.6-3.3-1.9-3.6-2.2c-0.3-0.4-1.2-3.1-2.8-3.7
		c-1.6-0.6-2.4-0.8-3.3-0.6c-0.9,0.2-3.8,2.8-3.8,2.8s-2.6,1.3-3.3,1.5c-0.7,0.2-4.8,2-4.8,2s-7.1,3.8-8.6,4.4
		c-1.6,0.6-4.5,2.6-4.8,3.1c-0.3,0.6-2.1,3.1-2.1,3.1s1.7,0,2.4-0.5c0.7-0.5,1.6-2.3,2.2-1.6c0.7,0.7,1.1,1.4,0.5,1.8
		c-0.5,0.4-2.1,1.2-2.1,1.6v2c0,0,0.3,0.7-0.3,0.7c-0.7,0-2.6-1.3-2.6-1.3s0.2-1.8-1.4-0.7c-1.6,1.1-1.7,2.9-1.7,2.9l-0.7,2.3
		c0,0-1,1.3-0.7,1.8c0.3,0.5,0.2,1.2,0.9,1.3c0.7,0.1-0.2-0.4,2.8-0.7c2.9-0.4,3.8-0.1,4.5,0.9c0.7,1.1,0.2,1.6,2.4,1.4
		c2.2-0.2,1.7-0.1,3.1-0.4c1.4-0.2,0.3-0.5,1.4-0.2c1,0.2,1.7,0.9,0.7,1.8c-1.1,0.8-0.3,1.6-2.2,1.6c-1.9,0,0,0.1-1.9,0
		c-1.9-0.1-1.7,0.2-3.3-0.1c-1.6-0.4-3.6-1.3-4.5-1.6c-0.9-0.4,0-0.9-1.9-0.6c-1.9,0.4-3.5,1.1-4.3,0.6c-0.8-0.5-1.2-2.2-2.8-1.9
		c-1.6,0.4-3.1,0.9-3.1,0.9l-1.2,1.1c0,0-4.1,0.7-5.4,0.6c-1.2-0.1-4,0.4-4.5,0.5c-0.5,0.1-1.6,1.1-1.6,1.1l-0.2,1.3
		c0,0,0.9-0.7,1.4,0.1c0.5,0.8-1.7,1.5-1.7,1.5s-7.4,0.2-8.4,0.4c-1,0.1-3.8,1.2-4.5,1.8c-0.7,0.6-1.9,1.9-1.9,1.9s2.1,0.9,1.6,1.2
		c-0.5,0.2-2.9,1.2-2.9,1.2l-2.4,0.2h-2.2c0,0-4.5,1.9-5.4,2c-0.8,0.1-4.8,1.3-5.5,1.5c-0.7,0.2-4.8,1.9-5,2.2
		c-0.2,0.4-0.3,2.4-1.6,2.8c-1.2,0.4-4.3,1.1-5,1.1c-0.7,0-13,4.5-13,5.1c0,0.6-7.9,4.9-7.9,4.9l-5.2,2.1c0,0-1,2.6-1,3
		c0,0.5-1.9,2.2-2.8,2.4c-0.9,0.2-3.6,1.4-4.7,2.8c-1,1.4-2.2,4.8-2.4,5.1c-0.2,0.4,0.2,2.7-0.2,3.3c-0.3,0.6-2.1,0.8-3.5,1.4
		c-1.4,0.6-7.8,4.8-7.8,4.8s-2.8,1.8-3.8,2.4c-1,0.7-3.1,1.5-3.1,2c0,0.5,1.6,2.1,2.9,2.1s1.9,0.7,2.9,1.4c1.1,0.7,2.4,2,2.6,1.4
		c0.2-0.6,1.2-1.3,2.1-1.3c0.8,0,2.1,1.9,2.1,1.9s0.2,1.1,0.7,1.1c0.5,0,2.8,0.2,2.8,0.2s2.1-0.9,3.5-0.9c1.4,0,5,0.5,5.5,0.7
		c0.5,0.2,2.9,1.2,3.3,2.8c0.3,1.6-0.5,3.7-0.5,3.7s-1.9,3.6-3.8,3.4c-1.9-0.2-6.2,0.1-6.2,0.1l-6.9,0.8c0,0-3.3,1.5-4.1,1.3
		c-0.8-0.2-3.6-1.1-5.2-1.1c-1.6,0-4,0.5-4,0.5s-1.6,0.1-1.6,0.9c0,0.8,1.6,3.3,1.7,3.7c0.2,0.5-1,2.8-1.6,2.9
		c-0.5,0.1-8.6,6.8-9.7,7.1c-1,0.4-4.3,1.6-5,2.1c-0.7,0.5-2.9,2.8-2.9,2.8l-6.6,5.7l-2.8,3.8c0,0,0.5,1.8,0.5,2.2
		c0,0.5-2.8,1.4-2.8,1.4l-2.8-0.7c0,0-0.3-0.7-1-0.5c-0.7,0.2-2.4,1.9-2.4,1.9l-0.9,0.4c0,0-6.9-0.2-7.9-0.6
		c-1.1-0.4-2.2-3.5-3.3-4.2c-1-0.7-3.5-1.9-4.3-1.9s-15.4,2-15.4,2l-6.9,4.3l-12.6,9.3l-4.1,5.1l0.5,2l-3.6,1.1l-10,5.7
		c0,0-1-0.5-1-0.9c0-0.5,1.4-1.3,1.7-1.9c0.3-0.6-0.3-1.4-1.4-1.4s-5,0.8-5,0.8l-6,0.4l-3.1,1.9l-2.2-1.8l-4.1,0.1l-5.5,0.9
		c0,0-1.6,1.1-2.2,0.4c-0.7-0.7-1-2.2-1-2.2s0.5-1.5,1.2-1.2c0.7,0.4,2.1,0.6,2.6,0.4c0.5-0.2,0.9-1.4,0.3-1.8
		c-0.5-0.4-4.5-1.2-4.5-1.2l-8.1,0.9l-8.3,4l-0.3,3.3c0,0,0.8,3,0.8,3.6c0,0.6-0.7,5.2-0.7,5.2s-3.1,2.4-3.5,3
		c-0.3,0.6-1.7-0.4-1.7-1.1s0.5-6,0.5-6l1.9,2.8c0,0,1.6-0.5,1.6-1.3c0-0.8-0.2-5-0.2-5s-0.2-2.2-1-1.5c-0.8,0.7-2.6,2.1-2.6,2.1
		s-4.5,3-5.2,3.4c-0.7,0.4-4.3,4.2-4.8,3.7c-0.5-0.5-0.2-3.3-0.2-3.3l7.3-3.5l3.6-2.7h-4.8c0,0-4.8,0.6-6.4,0.7
		c-1.6,0.1-12.6,2.7-12.6,2.7l-6.4,3.6c0,0-7.8,2.3-8.6,2.3s-2.4,0.8-2.2,1.3c0.2,0.5,2.1,2.6,2.1,2.6l-1.4,3c0,0-2.9,2.2-2.9,3.3
		c0,1.1,0.3,3.8,0.3,3.8s0.2,1.3,0.8,0.7c0.7-0.6,1.6-2.7,2.2-3.1c0.7-0.5,2.8-1.5,2.8-0.5c0,1.1-0.3,3.1-0.3,3.8s-1,2.1,0.5,2.4
		c1.6,0.4,3.5,1.2,4.1,1.8c0.7,0.6,2.1,3.4,2.1,4.1s-1,2.1-1.9,1.6c-0.9-0.5-2.6-1.5-3.3-1.9c-0.7-0.4-2.8-0.5-3.1,0.1
		c-0.3,0.6-1.6,1.9-1.2,2.9c0.3,1.1,2.4,2.3,2.6,2.7c0.2,0.4,0.2,1.3,0.2,1.3l0.8,2c0,0-1,0.9-2.1,0.8c-1-0.1-7.6-3-11.2-2.4
		c-3.6,0.6-6-1.2-8.1,0.4c-2.1,1.5-3.8,2.8-4,3.8c-0.2,1.1,1.4,3.3-0.2,3.3c-1.6,0-6,2.9-9.7,2.3c-3.6-0.6-7.3-0.2-8.5-0.9
		c-1.2-0.7-4-3.4-4.5-2.8c-0.5,0.6-1.9,0.1-0.7,2.2c1.2,2.1,3.6,5.8,3.8,6.6c0.2,0.8,1.9,1.9,2.6,3.4c0.7,1.5,0.8,3.5,0.8,5
		c0,1.5,1.2,3.4-0.5,3.4s-4.8-1.3-5.5-2c-0.7-0.7-1.2-1.6-2.2-0.8c-1.1,0.8-3.3,1.3-5,0.5c-1.7-0.8-4.7-2.2-6.6-2.3
		c-1.9-0.1-4.1-0.6-5.2-1.3c-1.1-0.7-2.4-0.7-2.4-1.8c0-1.1,1.4-1.4,2.4-1.9c1-0.5,4-0.8,2.1-1.9c-1.9-1.1-0.8-0.5-1.9-1.1
		c-1-0.6-2.1-0.6-2.2-1.4c-0.2-0.8-0.2-1.9-0.7-1.9s-3.8,1.5-3.8,1.5s-2.8,0.8-4,0.8s-4-1.1-2.6-1.4c1.4-0.4,4.5-1.2,4.5-1.2
		l1.2-1.8l-0.2-2.2c0,0,0.2-0.5-1.9,0.2c-2.1,0.7-0.5,0.6-2.1,0.7c-1.6,0.1-0.9,1.2-1.6,0.1c-0.7-1.1,0-2.2,0.7-2
		c0.7,0.2,2.1-0.1,2.1-0.1s0.2-1.4,0.3-2.3c0.2-0.9,0.2-1.8,0.2-2.4c0-0.7-0.3-1.4-1.2-1.1c-0.9,0.4,0.7-0.1-0.9,0.4
		c-1.6,0.5-1.7-0.4-1.7-0.8c0-0.5,0.5-0.7,1-1.2c0.5-0.5,0.7-2.6,0.7-2.6l-1.6-1.1c0,0-1-0.6-1.6,0.1c-0.5,0.7-0.9,1.8-0.9,1.8
		s-1.9-1.5-3.1-2.2c-1.2-0.7-4-1.1-6.2-1.1c-2.2,0-7.4,1.5-7.4,1.5l-2.9,1.5c0,0,1.6,1.6,0.9,1.9c-0.7,0.2-1.7-0.9-2.2-1.2
		c-0.5-0.2-1.6-1.1-2.4-1.1s-1.2-0.7-2.2,0c-1.1,0.7-1.9,2-1.9,2s0.3,1.8-0.3,1.3c-0.7-0.5-2.8-1.9-3.5-2.1
		c-0.7-0.2-1.9-1.4-3.8-1.1c-1.9,0.4-3.6,0.8-3.6,0.8l0.3,1.8h-1.7l-1.4-0.2l-0.2,1.2l0.5,1.3l1,0.8l0.2,1.5l-0.2,1.1
		c0,0,1,1.2,1.7,1.5c0.7,0.4,1.6,0.7,2.1,1.3c0.5,0.6-0.2,1.6-0.2,1.6s-0.2,0.2-2.4,0.5c-2.2,0.2-4.3,1.3-4.8,1.5s-4.5,1.4-5,1.4
		c-0.5,0-6.7-0.5-7.9-0.4l-1.2,0.1c0,0-2.9-0.1-3.1-0.5c-0.2-0.4-2.1-1.3-2.1-1.3l-2.1,1.9c0,0,0.8,1.8,0,1.8c-0.9,0-9-0.2-9.5-0.4
		c-0.5-0.1-3.8-2.3-3.6-2.7c0.2-0.4,2.6-0.6,2.6-0.6s1.7-0.1,1.9-0.7c0.2-0.6,0.3-2.2-0.3-2.2c-0.7,0-14.2-0.1-14.2-0.1l-8.1,0.2
		c0,0-2.9,2.1-3.5,2.2c-0.5,0.1-3.8,0.9-3.8,0.9l-3,1.9l-1,1.3c0,0,1.2,1.1,1.2,1.4c0,0.4-0.7,2.7-0.8,3c-0.2,0.4-0.3,1.5-0.9,1.1
		c-0.5-0.5-1.4-2.7-1.4-3c0-0.4-0.8-1.6-1.4-2.1c-0.5-0.5-1.6-2.6-1.6-3.3c0-0.7-2.4-3.7-2.4-3.7s-1.6-0.6-1.9-0.2
		c-0.3,0.4,1.6,4.2,1.6,4.2s-5.4,0.4-6.6,0.4c-0.6,0-1.5-0.5-2.2-0.9c-0.8-0.5-1.4-1-1.4-1s-0.9-1.4-1.4-1.5
		c-0.5-0.1-1.9-0.9-3.1-0.8c-1.2,0.1-4.5,2-4.5,2l-0.9,1.5l-0.3,2c0,0,1.6,0.2,2.4,0.4c0.9,0.1,1,1.9,1,1.9s-1.2,2.9-2.2,3.3
		c-1,0.4-2.6-1.4-3.6-0.7c-1,0.7-2.6,2.1-2.8,2.8c-0.2,0.7-2.8,2.8-2.8,2.8s-5.2,1.4-6.7,1.3c-1.6-0.1-4.3,0.1-4.3,0.1
		s-3.5,1.6-3.6,2.4c-0.2,0.8-4.7,4.6-4.7,4.6s-4.8,2.2-5.2,1.8c-0.3-0.5,0.5-1.5,1-2.4s4.8-4.1,5-4.5c0.2-0.5,1.4-2,1.7-2.9
		c0.3-0.9,0.7-2.1,1.6-2.1c0.8,0,2.9-0.8,2.9-0.8s1.6-1.1,2.1-1.3c0.5-0.2,2.1-1.5,3.5-2.8s2.9-3.3,2.9-3.3l2.6-2.6l6.7-3.7
		c0,0-1.9-0.9-2.2-2.2c-0.3-1.3,1.4-2,2.9-1.9c1.6,0.1,5.4-1.3,6.2-2.1c0.9-0.8,4-2.7,4-2.7s2.6-3.1,4.7-5.1c2.1-2,4.5-2.9,4.7-4.1
		c0.1-1.2,0.5-2.9,0.1-4c-0.3-1.1-1.4-2.2-1.4-2.2s-2.8,0.1-3.3-0.9c-0.5-1.1,2.4-1.2,3.3-1.6c0.8-0.5,1.4-1.9,0.5-2.7
		c-0.9-0.8-2.6-2.8-2.9-3.8c-0.3-1.1-1.1-2.6-1.9-2.9c-0.9-0.4-0.9,2.2-1.7,2.3c-0.8,0.1-1.7-1.6-1.7-1.6l-1.4-0.7
		c0,0-3.1-1.8-3.8-1.5c-0.7,0.2-1.2,0.5-1.4-0.4c-0.2-0.8-0.9-3.3-1.6-3.5c-0.7-0.2-0.9-0.8-3.3-0.7c-2.4,0.1-6.4,1.3-7.1,1.5
		c-0.7,0.2-2.8,1.9-5,1.5c-2.2-0.4-1.9-0.9-3.8-0.7c-1.9,0.2-3.1,1.4-3.6,2c-0.5,0.6-1.9,2.9-4,2.7c-2.1-0.2-4.3-0.4-4.7-1.1
		c-0.3-0.7,2.1-1.2,2.8-1.5c0.7-0.4,2.2-2,2.6-2.4c0.3-0.5,1.6-2.3,0.5-3.6c-1-1.3-1.6-2.8-3.5-2.3c-1.9,0.5-4.5,2.2-4.5,2.2
		s-3.6-0.4-3.6-1.2c0-0.8-2.8-1.1-2.8-1.1s-4.1,1.6-3.8,0.4c0.3-1.3,3.1-1.9,4.1-1.9c1,0,2.9-0.7,3.5-1.1c0.5-0.4,2.2-0.5,1.7-2
		c-0.5-1.5-1.9-3.3-1.9-3.3l-2.6-0.2c0,0-1.7-0.4-2.6-1.1c-0.9-0.7-2.9-1.1-4-0.9c-1,0.1-3.3,0.6-5.4,1.9c-2.1,1.3-3.3,3.1-3.8,3.6
		c-0.5,0.5-2.4,1.6-3.1,2.4c-0.7,0.8-1.7,2.9-2.1,3.4c-0.3,0.5-1.6,1.1-1.9,1.8c-0.3,0.7-0.5,2.1-0.2,2.8c0.3,0.7-0.2,2.1-0.2,2.4
		c0,0.4-0.3,0.9,0.9,1.5c1.2,0.6,2.6,1.2,4.7,1.6c2.1,0.5,3.6,0,3.3,0.9c-0.3,0.9-2.6,1.1-3.3,0.7c-0.7-0.4-7.3-0.5-7.8-0.9
		c-0.5-0.5-4.3-1.4-5.2-1.4c-0.9,0-2.6-0.7-3.3-0.4c-0.7,0.4-1,2.3-1,2.3s2.8,1.2,3.6,1.9c0.9,0.7,1,2.3,1,2.9s-0.5,3.1-0.5,3.1
		s-0.9,0.7-1.4,0.7s-0.7-1.5-0.7-2s0.2-2.1-0.7-2.3c-0.9-0.2-1.9-0.8-3.1-1.1c-1.2-0.2-2.2-0.6-2.2-0.6s-1,0.4-1.9,0.7
		c-0.9,0.4-3.5,3-3.5,3s-2.1-1.3-2.8-0.8c-0.7,0.5-2.8,1.4-2.8,1.4s-4.3,0.9-5.2,0.8c-0.9-0.1-3.5-0.1-1.9-0.9
		c1.6-0.8,2.9-0.9,2.4-1.8c-0.5-0.8-4.8-2.2-6-2.2h-6.9c0,0-0.7-2.2-1.6-2.3c-0.9-0.1-4.3,2.3-4.3,2.3s-3.8,1.9-2.2,2.3
		c1.6,0.5,3.6,0.5,4.3,0.7c0.7,0.2,2.9,0.8,0.9,1.4c-2.1,0.6-2.8,0.5-4,0.6c-1.2,0.1-5.4-0.1-5.4-0.1s-2.4,1.9-3.3,1.3
		c-0.9-0.6-4-1.7-4.7-1.9c-0.7-0.1-5.9,1.3-5.9,1.3s-0.9,2-1.9,2c-1,0-2.9-0.2-2.9-0.2s-1.2,1.1-2.6,1.6c-1.4,0.6-4,1.6-4,1.6h-5.4
		c-0.9,0-3.5,0.7-1.9,1.1c1.6,0.4,4,1.4,2.8,1.8c-1.2,0.4-4.8,1.4-4.8,1.4s-1,2-1.2,2.3c-0.2,0.4-2.1,0.2-2.4-0.1
		c-0.3-0.4-2.2-0.9-2.2-0.9l-0.7,2.1c0,0,0.9,1.8,1.2,2.6c0.3,0.8-2.8,2.7-2.8,2.7s2.2,2.4,2.6,3.5c0.3,1.1,1,4.3,0.7,5.3
		c-0.3,1.1-1.2,2.7-1.9,2.8c-0.7,0.1-2.9,1.1-2.4,0.2c0.5-0.8,2.1-0.9,2.1-1.8c0-0.8-0.2-1.9-0.9-1.9c-0.7,0-2.8,0.1-3.5,0
		c-0.7-0.1-7.9-2.1-8.8-2.1c-0.9,0-5,0.5-5.9,0.8c-0.9,0.4-7.8,1.4-9.2,0.9c-1.4-0.5-1.7-2.2-5-2c-3.3,0.2-6.6,0.5-7.3,0.5
		c-0.7,0-2.4-0.9-2.6,0.9c-0.2,1.9-1.7,6.3-1.9,7.8c-0.2,1.5-1.7,3.6-2.1,4.5c-0.3,0.9-0.9,2.9-0.7,3.4c0.2,0.5,0,1.8,1,2
		c1,0.2,2.6,1.1,3.3,1.5c0.7,0.5,1.7,0.8,2.2,1.9c0.5,1.1,1.6,3.5,1.6,3.5s-0.3,1.2,0.5,2c0.9,0.8,2.8,2.1,3.5,2.3
		c0.7,0.2,3.6,1.4,3.5,1.9c-0.2,0.5-0.5,4.4-1.2,4.5c-0.7,0.1-3.8,2.3-3.8,2.3l-1.6,4.4l0.2,4.4c0,0,1.9,2.2-0.7,1.4
		c-2.6-0.8-4-2.7-5.5-2.9c-1.6-0.2-1.7,1.3-2.8,0.8c-1-0.5-1-2.6-0.7-3.7c0.3-1.2-0.7-3,0.3-3.8c1-0.8,2.8-1.4,4.7-1.9
		c1.9-0.5,4-2.2,4.1-2.6c0.2-0.4,2.4-1.8,1.9-2.3c-0.5-0.6-1.6-2-2.8-2c-1.2,0-2.8,0.5-4.3,0.5c-1.6,0-3.5,1.1-4.1-0.2
		c-0.7-1.3-1.6-1.3-1.9-2.1c-0.3-0.8,0.9-5.7-1.2-6.9c-2-1.2-4.3-0.7-6-2.6s-2.6-2.7-3.5-3.4c-0.4-0.4-1.6-0.5-2.8-0.7
		c-1.3-0.1-2.6-0.2-3.4-0.3c-1.6-0.2-2.8,0-3.5,0.5c-0.7,0.5-4.8,0-4.5,1.1c0.3,1.1,1.9,1.3,2.6,1.7c0.7,0.5,2.6-0.2,2.1,1.9
		c-0.5,2.1-2.4,2.7-2.4,2.7s-1.7,0.4-2.8-1.8c-1-2.1-2.8-2.8-3.8-3.4c-1-0.6-0.7-2.6-2.9-1.1c-2.2,1.5-2.2,1.1-3.6,2.4
		c-1.4,1.4-0.7,1.5-0.7,3.3c0,1.8-0.9,2.2,0.3,3.6c1.2,1.4,2.2,2.6,3.6,3.5c1.4,0.9,0,0.2,1.4,0.9c1.4,0.7,1.6-1.3,2.6,0
		c1,1.3,1,3.4,1,4.2c0,0.8,1.7,2.3,1.7,2.8c0,0.5-0.7,0.8-1.9,0.4c-1.2-0.5-4.7-3.8-4.7-4.3s0.5-2.3-1.7-2.6c-2.2-0.2-1,1.9-4.1,0
		c-3.1-1.9-4-2.2-4.7-3c-0.7-0.8-2.2-1.9-1.2-2.9c1-1.1,2.2-0.6,2.2-2.1v-3.8c0-0.5-0.9-2,0.5-3.1s5-4.3,5.4-4.8
		c0.3-0.5,2.2-2.7,2.6-4.2c0.3-1.5,0.3-2.6,0.3-3c0-0.5,1.7-0.1,1.7-0.1l-1.4-2.1c0,0,0-2.1-1.6-0.9c-1.6,1.2-4,4.7-4,4.7
		s-2.8,3.7-3.1,4.3c-0.3,0.6-2.9,4-2.9,4s-1.9,1.2-2.9,1.1c-1-0.1-4.8-0.4-5.5-0.2c-0.7,0.1-3.8,2.9-5,3.8c-1.2,0.9-4.5,1.1-4.1,2.7
		c0.3,1.6,0.5,4.3,0.3,5.8c-0.2,1.5,0.7,2.3,0.7,4.8c0,2.4-0.7,5.7-2.4,6.1c-1.7,0.4-4.7,0.9-5.4,2.3c-0.7,1.4-4.1,3.5-4.8,7.2
		c-0.7,3.7-0.9,4.3-1.7,5.8c-0.9,1.5-2.9,3.1-1.6,3.1c1.4,0,2.8,0,4,0.5s0.9,1.8,3.3,2.2c2.4,0.5,0.7,0.1,3.8-0.5
		c3.1-0.6,0.5-1.5,3.1-0.6c2.6,0.9,5.5,1.1,6.7,2.6c1.2,1.5,0,2.7,1.4,3.8c1.4,1.2,2.4,0.5,3.1,2.6c0.7,2.1,0.3,5.2,0.3,5.2
		s-0.5,3.3-0.5,4s2.2,2.4,0.2,2.6c-2.1,0.1-4-0.7-4.5,0.8c-0.5,1.5-0.3,1.3-0.5,3c-0.2,1.8-1.6,2,0.2,3c1.7,1.1,4.7,3.6,5.9,4
		c1.2,0.4,3.3,1.1,4.1,2.6c0.9,1.5,2.2,3.7,1.6,4c-0.7,0.2-2.4-0.1-3.8-1.6c-1.4-1.5-1.4-3.3-2.9-4.2c-1.6-0.9-1.7-1.8-4.1-2.2
		c-2.4-0.5-3.5,0.1-4-2c-0.5-2.1-0.2-3.3,0.2-4.1c0.3-0.8,1-3.1,1.7-4.2c0.7-1.1,1.4-2.3,1.9-2.8c0.5-0.5,0.9-1.8,0.7-3.3
		c-0.2-1.5-0.2-2-1-3.4c-0.9-1.4,0.9-2-1-3.3c-1.9-1.3-8.6-1.9-9.3-1.9s-5.2-0.1-5.2-0.1s-6.7,1.9-6.9,2.9c-0.2,1.1-2.8,3.3-2.8,3.3
		s0.2,1.1,0.3,3c0.2,2,0.7,4.2,0.2,5c-0.5,0.8-2.1,2.9-2.8,3.4c-0.7,0.5-4.3,2-4.3,2l-0.9,0.5c0,0-3.8,4.1-5.5,4.8s-4.5,2.4-6.2,2.6
		c-1.7,0.1-4.7,0.9-5.5,0.6l-0.9-0.4h-6.4c0,0-1.9,3.5-2.9,3.3c-1-0.2-4-1.5-4.8-2c-0.9-0.5-4.8-2.3-6.4-2.4
		c-1.6-0.1-2.2,0.5-3.6-0.6c-1.4-1.1-0.3,0.5-1.4-1.1c-1-1.5-0.7-3.6,1.6-2.8c2.2,0.8,3.8,1.8,4.5,2.1c0.7,0.4,2.9,0.8,2.9,0.8
		s4.5,0.8,4.8-0.1c0.3-0.9,0.7-2.7,0.7-3.5c0-0.8,1.6-1.8,2.4-1.6c0.9,0.1,3.3-0.4,4-0.4c0.7,0,2.4-0.6,3.1-1.3
		c0.7-0.7,1.4-1.5,3.3-2.2c1.9-0.7,7.1-2.9,8.5-3c1.4-0.1,5.4-2.3,4.5-3.8c-0.9-1.5-0.2-2.6,0.5-3.3c0.7-0.7,1.6-2.2,2.8-2.3
		c1.2-0.1,2.2,1.2,3.3-0.5c1-1.6,1.9-4.8,0.2-6.1c-1.7-1.3-4.7-2.3-3.1-4.9c1.6-2.6,4-3,5.4-5.5s1.2-4.3,1.4-5
		c0.2-0.7,5.2-4.1,5-5.1c-0.2-1.1-1-2.6-0.3-3.6c0.7-1.1,2.6-2,2.6-2s2.6-1.8,2.6-2.4c0-0.7,4.1-4.6,4.5-5.7
		c0.3-1.1,0.5-4.3,0.2-5.6c-0.3-1.3-1.2-2.6-1.4-3.4c-0.2-0.8,2.4-3.1,3.1-3.6c0.7-0.5,10-5.3,11.1-7.7c1-2.3,2.1-5.2,1.9-6.1
		c-0.2-0.8,0-2.9,0-2.9s-4.3-2.4-6-3.5c-1.7-1.1-9.3-2.9-9.3-2.9s0.5-2.3-0.2-2.3c-0.7,0-5.2,1.3-5.7,1.8c-0.5,0.5-7.6,8.6-9.3,9.9
		c-1.7,1.3-7.7,5.7-8.5,5.7c-0.7,0-14.9,2.2-15.5,2.4c-0.7,0.2-3.3,1.4-3.8,2.1c-0.5,0.7,0.3,2,0.3,2s1.7,0.2,0.3,1.2
		c-1.4,0.9-3.1,2-1.9,2c1.2,0,2.6-0.5,2.6,0.2s-0.5,1.3-1.9,2.2c-1.4,0.9-2.4,1.3-2.8,2.1c-0.3,0.8,0.9,1.8,0.7,2.6
		c-0.2,0.8-1.6,2-1.6,2s-1.2,0.6-1,1.3c0.2,0.7,2.8,0.7,0.2,0.7c-2.6,0-4.5-0.8-4.5-0.8s-1.6,1.1-2.6,2.3c-1,1.3-0.5,0.2-1,1.3
		c-0.5,1.1-1.9,1.5-1.2,2c0.7,0.5,3.1,0.1,3.8,0.2c0.7,0.1,1.6,0.4,1.4,1.3c-0.2,0.9,0.5,2.6,0.5,2.6s-0.7,0.9,0.9,1.3
		c1.6,0.4,3.3,0.5,3.1,0.9c-0.2,0.5-1.2,0.6-2.1,1.5c-0.9,0.9-1.2,1.5-1.2,2c0,0.5-0.9,4.8-0.2,5.2c0.7,0.5,1.7,0.1,1.7,1.4
		s-0.2,3.4-0.9,3.6c-0.7,0.2-7.1,3.4-7.6,3.8s-1.7,2.1-2.1,0.7c-0.3-1.4-0.5-3.8-0.3-4.5c0.2-0.7,0.5-3-0.5-4.1
		c-1-1.1-6.2-8.7-7.3-9.7c-1-0.9-0.7-4-1.9-4.7c-0.6-0.4-1.2-0.7-1.8-0.9c-0.6-0.2-1.1-0.4-1.6-0.4c-1,0-2.9-0.1-1.9-0.8
		c1-0.7,2.2-1.2,2.4-1.6c0.2-0.5-2.9-5.2-4.3-6.8c-1.4-1.5-4.7-3.8-5.2-4.3c-0.5-0.5-5.7-4.8-7.4-5.6c-1.7-0.8-3.8-1.1-5.4-0.8
		c-1.6,0.2-4.1,0.5-5.2,1.4c-1,0.9-2.6,2.2-2.6,3.3c0,1.1,0.5,2.9-0.3,5c-0.9,2.1-0.7,1.6-3.6,2.8c-2.9,1.2-6.2,0.4-6.9,0.7
		c-0.7,0.4-2.9,2.3-4.8,1.8c-1.9-0.6-2.6,0-2.8-1.8c-0.2-1.8,2.1-3.6,2.8-4.2c0.7-0.6,1.9-2,2.6-2.2c0.7-0.2,2.4,0.1,1.4-0.9
		c-1-1.1-4.5-2.8-4.5-2.8s-6.4-0.2-7.9,0.1c-1.6,0.4-2.8,1.3-5,1.4c-2.2,0.1-6.6-1.1-7.1-2.1c-0.5-1.1-3.1-2.9-4.3-3.8
		c-1.2-0.9-5-0.6-6.6-0.5c-1.6,0.1-5,1.3-6,1.8c-1,0.5-3.3,0.4-4.8-1.1c-1.6-1.4-2.8-1.3-3.8-2.6c-1-1.3-2.8-2.2-2.1-3
		c0.7-0.8,2.2-0.7,2.9-0.2c0.7,0.5,0.5,1.2,2.1,0.5c1.6-0.7,4.3-2.3,4.5-3.1c0.2-0.8,2.8-1.8,2.8-1.8l0.3-1.5c0,0,2.6,0.8,3.5,1.3
		c0.9,0.5,3.1,2.2,2.8,0.7c-0.3-1.5-1.2-2.7-2.2-2.8c-1-0.1-10.7-0.8-13-1.1c-2.2-0.2-4.8-1.2-5.4-0.1c-0.5,1.1-0.7,4.1-0.7,4.1
		s-1.9,1.2-2.9,0.7c-1-0.5-2.2-1.3-1.7-1.9c0.5-0.6,2.9-1.1,2.6-1.8c-0.3-0.7-1.6-1.6-1.6-1.6s-6.2,0.2-7.4,0.1
		c-1.2-0.1-4.3-1.5-4.5-1.9c-0.2-0.4-2.2-0.9-4.8-0.9c-2.6,0-8.1,1.4-8.8,0.9c-0.7-0.5-2.8-0.6-2.8-1.2c0-0.6,1.7-2.3-0.2-2.1
		c-1.9,0.2-1.9,1.2-2.4,1.5c-0.5,0.4-1,2-3.3,1.6c-2.2-0.4-0.7-1.9-3.1-2.1c-2.4-0.2-4,0-5,0.7c-1,0.7-6,2.4-6.9,2.8
		c-0.9,0.4-3.5,1.6-4,1.4c-0.5-0.2-7.6-2.8-8.8-3.4c-1.2-0.6-4-2.2-4.1-3.6c-0.2-1.4,0.5-2.1,1.2-2.6c0.7-0.5,1.4-1.4,0.7-2.7
		c-0.7-1.3-1.9-1.9-0.9-2.8c1-0.9,1.2-2.3,2.9-2.1c1.7,0.2,2.1,0.2,5.2,0c3.1-0.2,4.8-0.2,5.7,0.7c0.9,0.9,2.6,2.4,4.8,2.6
		c2.2,0.1,3.6-0.4,3.6-1.5s0.5-3.3,1.6-3.3c1,0,1,1.5,1,0c0-1.5-0.7-2.8-1-3.6c-0.3-0.8,0.3-1.6,0.9-2.1c0.5-0.5,1.9-0.6,0.7-2
		c-1.2-1.4-1.4-2-3.3-2.9s-4.8-2-5-3c-0.2-1.1-1.9-4-2.4-4.6c-0.5-0.7-1.4-1.1-2.1-0.6c-0.7,0.5-1.7,3.3-1.7,4.5
		c0,1.3,0.5,2.2,0.2,2.8c-0.3,0.6-2.8,3.1-3.3,3.1c-0.5,0-1.7,0.9-2.4,1.3c-0.7,0.4-4.1,1.1-4.1,1.1l-1,0.1l-3.1,0.9
		c0,0-4.5,1.3-5.5,2c-1,0.7-1.6,2.3-1.4,3c0.2,0.7,0.7,2.1,0,2.8c-0.7,0.7-2.2,1.2-2.9,1.6c-0.7,0.5-1.6,1.9-1.7,2.3
		c-0.2,0.5-2.8,1.5-2.8,1.5s-3.5,1.6-5.4,2.3c-1.9,0.7-4.3,2.2-4.3,2.2s-0.9-1.6-1.4-2.1c-0.5-0.5-2.8-0.5-3.8-0.5h-1
		c0,0-2.8-0.8-0.5-1.8c2.2-0.9,3.6-1.5,4.5-1.1c0.9,0.5,2.4,0.1,1.2-1.4c-1.2-1.5-1.6-2-2.6-2.7c-1-0.7-1-0.6-1-2
		c0-1.4,1.2-1.8-0.3-2.1c-1.6-0.4-4.8,0-6.6-0.2c-1.7-0.2-11.1-2-11.1-2s-3.8,0.8-5.7-0.1c-1.9-0.9-4.5-2.2-6-1.6
		c-1.6,0.6-5.2,1.6-6.2,2.1c-1,0.5-1.4-0.1-2.1,2.4c-0.7,2.6-0.7,5.3-1.4,5.5c-0.7,0.1-1.2-3-3.1-2.4c-1.9,0.6-3.8,1.6-4,2.4
		s-1,2.4-2.1,2c-1-0.5-4.5-2.1-4.7-3.8c-0.2-1.8,0.7-2.1,0.7-3.5c0-1.4,1-2.8-0.7-2.9c-1.7-0.1-3.8-0.1-4.5-0.2
		c-0.7-0.1-1.6-0.1-1.6-0.8c0-0.7,2.8-1.8,2.9-2.6c0.2-0.8-1.4-2.9-1.4-3.8c0-0.9,0.5-3.1,0.5-3.6c0-0.5-1.4-1.9-1.4-1.9
		s-9.5,0.6-10,1.9c-0.5,1.3-1,3.3-1.7,4c-0.7,0.7-2.2,0.9-2.1,2c0.2,1.1-0.3,1.6,1.2,2c1.6,0.4,3.5-0.6,3.3,1.3
		c-0.2,1.9-0.9,3.7-1.9,4.2c-1,0.5-3.1,1.2-3.1,1.2c-0.3,1.1-0.7,2.1-0.7,2.1s-2.4-1.4-3.1-1.9c-0.7-0.5-4.1-2.2-4.1-2.2
		s-0.9-4.9-0.5-5.7s2.4-0.6,2.1-3.7c-0.3-3.1-1.2-4.8-1.2-4.8s0.5-3.4-0.3-4c-0.9-0.6-3.1-3-2.6-3.3c0.5-0.2,3.5,0.1,4.3,0.2
		c0.9,0.1,2.9-2.8,2.9-2.8s4-2.9,4.3-4.3c0.3-1.4,0.5-2.3,2.6-2.8c2.1-0.5,1.7-0.5,3.5,0c1.7,0.5,5-0.6,5-0.6s0.7-1.6,1.4-1.5
		c0.7,0.1,4.1,0,4.1,0s2.4-2.2,1.7-4.3c-0.7-2.1-0.9-2.8-1.6-3.8c-0.7-1.1-3.6-1.5-1.9-2.6c1.7-1.1,3.3,0,3.8,0.4
		c0.5,0.4,2.1,0.4,2.1,0.4s3.1,1.9,0.9-1.4c-2.2-3.3-0.7-3.4-0.7-3.4s0-1.5,1.6-0.7c1.6,0.8,1.4-4.9,1.9-5.7
		c0.5-0.8,2.8-2.8,2.8-2.8s1.4-0.1,1.4,0.7c0,0.8,0.7,1.9-0.3,2.6c-1,0.7-1.6,1.9-2.1,3.1c-0.5,1.3-2.4,2.6-1,3.6
		c1.4,1.1,2.9-0.2,2.8,0.9c-0.2,1.2-0.9,0.7-0.7,2.2c0.2,1.5-0.2,2.4,0.9,2.4c1,0,2.8,1.1,2.6,2.4c-0.2,1.4-2.9,10.8,1.4,13.2
		c4.3,2.3,4.8,1.3,4.3,3c-0.5,1.8-2.8,1.1-0.3,3.8c2.4,2.8,3.3,8.3,8.5,8.8c5.2,0.6,15.4,3.1,20.2,2.4c4.8-0.7,11.6-1.9,12.1-2.2
		c0.5-0.4,5.4-3.7,5.4-3.7s4.5-2.9,4.7-3.4c0.2-0.5-0.7-3-0.3-4.2c0.3-1.2,1.6-2.2,2.2-2.9c0.7-0.7,1.9-2.3,1.7-4.1
		c-0.2-1.8-1.6-1.5-2.2-1.1c-0.7,0.5-2.4,0.9-2.4,0.9l-0.3-7.5c0,0-3.1,0.6-2.8-0.2c0.3-0.8,2.2-3,3.1-3.3c0.9-0.2,2.2-2.7,1.9-4.1
		c-0.3-1.4,0.3-2.2,0.3-4.1c0-1.9-0.9-5.3-0.9-6.9c0-1.5,0.5-4.1-0.9-4.9c-1.4-0.8-5.2-2.8-5.2-2.8s-2.4-4.8-2.8-5.7s-0.9-2.1-1.2-3
		c-0.3-0.9-2.1-4.2-1.7-5.2c0.3-1.1,0.5-2.1,1.9-2.6c1.4-0.5,0.5,0.4,1.7,1.5c1.2,1.2,0.7,3.1,3.6,2.2c2.9-0.9,3.8-0.4,3.1-2.2
		c-0.7-1.9-0.7-3.6-1.9-4.2c-1.2-0.6-4.5-0.7-6.4-1.2c-1.9-0.5-5.5-0.5-4.3-1.2c1.2-0.7,5.4-1.6,4.1-2.3c-1.2-0.7-3.5-0.7-3.5-0.7
		l-4.3-1.9l-1.6-1.1c0,0-7.1,0.6-8.6,0.7c-1.6,0.1-3.8,0.5-5,0.1c-1.2-0.4-3.8-1.6-4.5-2c-0.7-0.4-2.2-1.1-2.2-1.1s-3.5,2.4-6.2,2.2
		c-2.8-0.2-6-0.1-6.4,0.5c-0.3,0.6-0.9,1.4-0.3,2.1c0.5,0.7,2.2,1.6,1.4,3c-0.9,1.4-1.2,2.2-2.4,3.3c-1.2,1.1-3.6,1.8-4.3,3
		c-0.7,1.3,1,1.9-1.7,2.6c-2.8,0.7-2.6,0.6-3.8,0.8c-1.2,0.2,0,0.7-1.2,0.2c-1.2-0.5-2.8-1.9-6.4-0.9c-3.6,0.9-4.7,1.6-6.4,2.8
		c-1.7,1.2-3.8,3.5-5.7,5c-1.9,1.5-2.8,4.3-4.1,5.3c-1.4,1.1-2.9,3.1-5.7,4c-2.8,0.8-3.8,1.5-5,1.3c-1.2-0.2-4.7-1.2-5.4-1.2
		c-0.7,0-2.9,1.6-4.7,1.9c-1.7,0.2-2.4,0.2-3.3,0.4c-0.9,0.1-1.9,2.1-3.1,1.6c-1.2-0.5-3.1-1.1-3.1-1.1s2.1,3.6-0.3,5.5
		c-2.4,1.9-4.1,1.5-5.2,2.2c-1,0.7-2.6,1.6-2.8,2.3c-0.2,0.7-1.6,1.5-2.2,1.9c-0.7,0.4-0.9,1.5-2.1,1.2c-1.2-0.4-3.8-0.2-4.5-0.5
		c-0.7-0.2-4,2.2-4,2.2s-2.8,1.3-3.5,5.5c-0.7,4.2-2.6,6.3-3.1,6.5c-0.5,0.2-2.6,2.2-4.7,2.1c-2.1-0.1-6.7,1.6-8.6,1.2
		c-1.9-0.5-16-0.1-17.8-1.1c-1.7-0.9-10.2-1.4-10.2-1.4l-14-1.6c0,0-11.7-1.3-12.1-1.6c-0.3-0.4-14.9-2.2-14.9-2.2l8.6,2.8l4.7,1.8
		l-5.2,1.4c0,0-1.6,1.8-1.7,2.4c-0.2,0.7,0,2.1,0,2.6c0,0.5,0,1.4,0.9,2c0.9,0.6,3.1,2.7,3.1,2.7l-1.4,3.3l-0.5,3.1
		c0,0,1.2,0.9-0.3,0.7c-1.6-0.2-2.8-0.1-3.8-0.9c-1-0.8-0.7-1.4-1.2-1.9c-0.5-0.5-1.6-1.4-1.2-2.2c0.3-0.8,1.6-1.1,0.2-1.6
		c-1.4-0.6-2.6-1.3-4.1-1.2c-1.6,0.1-2.6,1.9-2.9-0.2c-0.3-2.1,1.7-2-0.2-3c-1.9-1.1-3.1-1.2-3.8-1.3c-0.7-0.1,1-1.3-1.6-1.1
		c-2.6,0.2-3.3,0.7-3.5,1.3c-0.2,0.6-3.6,2.4-3.1,3.1c0.5,0.7,0.9,1.3-0.2,1.7c-1,0.5-3.6,0-4.1-1.1c-0.5-1.1-3.5-1.3-4.1-1.9
		c-0.7-0.6-1.9-0.8-1.9-0.8s-6.7,2.2-7.3,3c-0.5,0.8-3.3,2.9-3.8,2.4c-0.5-0.5-2.6-1.4-3.3-1.3c-0.7,0.1-1.6,0-1.7,1.1
		c-0.2,1.1,0.7,2.7,0.5,3.4c-0.2,0.7,0,1.5-1.7,1.9c-1.7,0.4-11.7-0.8-13.1-0.1c-1.4,0.7-1.7,1.6-3.1,2.6c-1.4,0.9-3.1,0.8-5,1.2
		c-1.9,0.4-2.1-0.2-3.3,1.1c-1.2,1.3-3.5,3.8-3.6,4.4c-0.2,0.6-3.8,2.2-4.7,2.9c-0.9,0.7-4,1.4-4,2.9c0,1.5-0.3,0.6-0.5,3.5
		c-0.2,2.9,1,2.7,0.3,5.1c-0.7,2.4-2.2,3.4-2.4,3.8c-0.2,0.5-2.1,0.9,0.5,1.4c2.6,0.5,2.6-0.6,5,1.1c2.4,1.6,2.9,2,2.8,4.1
		c-0.2,2.1,0.5,3.3-0.9,4.5c-1.4,1.3-4.3,2.3-4.8,3s-3.5,3.1-3.5,3.1s-4.5,0.2-5.4,1.3c-0.9,1.1-4.7,3.8-5.2,4.3
		c-0.5,0.5-1.2,2.8-2.4,3.3c-1.2,0.5-2.8-0.5-3.5,2.1c-0.7,2.6-1.9,2.9-1.2,4.2c0.7,1.3,2.1,1.1,0.7,2.7c-1.4,1.6-1.6-0.1-2.6,2.6
		c-1,2.7,0,3.1-0.5,3.7c-0.5,0.6-0.3,1.5-1.6,1.5c-1.2,0-1.4,0.7-3.1,1.5c-1.7,0.8-2.4,2.1-3.5,1.9c-1-0.2-3.5-0.6-4.5-2.6
		c-1-2,0.7-2.3-1.7-4.1c-2.4-1.8-2.2-2.6-4.3-2.2c-2.1,0.4-2.4,0.7-3.8,2.1c-1.4,1.4-3.3,3.3-5.2,4c-1.9,0.7-2.6,2-3.5,2.7
		c-0.9,0.7-1.2,0.9-1.6,2c-0.3,1.1-1.4,1.5-2.4,2.6c-1,1.1-2.6,1.4,0.2,2.3c2.8,0.9,3.6,1.2,5.2,2c1.6,0.8,2.8,1.1,4.3,1.9
		c1.6,0.8,4.5,1.9,5.4,3.1c0.9,1.3,2.6,0.5,2.8,3.6c0.2,3.1-1.6,7-1.6,7s-8.6,5.2-10.4,6.2c-1.7,0.9-3.5,0.1-3.3,2
		c0.2,1.9,0.7,2.2,0.7,3.6c0,1.4,3.1,5.3,1.9,7.5c-1.2,2.1,0.3,2.2-2.6,4.3c-2.9,2.1-2.4,1.5-4.7,2.7c-2.2,1.2-3.6,0.2-2.8,2.2
		c0.9,2,1.7,0.6,2.8,3.3c1,2.7,0.3,4.1,0.7,5.1c0.3,1.1,1,2.7,3.6,3.7c2.6,1.1,4.5,0.8,5.7,2.6c1.2,1.8,0.7,1.9,0,4.7
		c-0.7,2.8-1.4,4.1-1.2,5.1c0.2,1-0.3,1.7,1.6,3c1.9,1.3,5.9,2.3,5.7,4.4c-0.2,2.1,2.4,4.9,2.6,6.2c0.2,1.3,0.3,3.7,0.7,4.5
		c0.3,0.8,1,2.6-0.3,3.3s-2.6-0.2-3.6,0.8c-1,1.1-0.2,1.2-2.4,2.1c-2.2,0.9-2.2,0.5-3.8,1.6c-1.6,1.2-1.2,1.5-3.5,2.7
		c-2.2,1.2-4,0.2-4.5,2.7c-0.5,2.4,1,3.4-0.9,4c-1.9,0.6-3.3,1.2-4.5,1.2c-1.2,0-4.7-0.8-5.7-0.2c-1,0.6-0.9,2.6-2.8,2.9
		c-1.9,0.4-2.8,0.1-3.3-1.4c-0.5-1.5-1.9-4-4.5-6.1c-2.6-2.1-2.9-2.8-4.5-2.8c-1.6,0-3.6-0.6-6.2-0.8c-2.6-0.2-3.3-1.5-4.3-0.9
		c-1,0.6-3.1,0.7-3.6,2.3c-0.5,1.6-1.2,2.4-1.9,2.3l-0.7-0.1c0,0,0.7,1.3,1.2,1.9c0.5,0.6,1.4,1.3,2.4,1.5c1,0.2,0.7,0.2,2.6,0.6
		c1.9,0.4,3.1,0.6,3.5,1.8c0.3,1.2,0.3,0.5-0.3,1.9c-0.7,1.4-2.1,1.7-3.5,1.2c-1.4-0.5-2.2-1.7-2.8-2.1c-0.5-0.5-2.6-0.5-3.1-0.7
		c-0.5-0.2-1.4-1.8-2.1-2.1c-0.7-0.4-3.5-0.5-3.5-0.5s-1,0.2-1.6,0.6c-0.5,0.4-0.3,2.4-0.3,2.4s0.2,1.5-1.6,0.2
		c-1.7-1.3-2.1-1.5-2.4-3.3c-0.3-1.8-1.2-2.4-2.1-3.7c-0.9-1.3-0.3-3.1-2.1-2c-1.7,1.2-2.9,2.3-3.1,2.7c-0.2,0.4-0.5-1.4-1,0.6
		c-0.5,2-1.2,2.1,0,3.7c1.2,1.6,2.2,1.9,1.6,2.7c-0.6,0.7-1.8,1.3-1.7,1.9c-0.4-0.4-1-0.6-2.1-0.5c-3.5,0.2-5,0.8-5.5,1.3
		c-0.5,0.5-0.9,2.2-2.2,1.4c-1.4-0.8-1.6-1.6-1-2.1c0.5-0.5,1.9-1.9,2.8-1.9c0.9,0,1,0,2.2-0.4c1.2-0.4,2.2-0.9,1.2-1.3
		c-1-0.4-4.1,0.5-4.1,0.5s-6.4,2.4-7.1,2.5c-0.7,0.1-0.3-1.7-1.7-1c-1.4,0.7-2.8,2.2-4.3,1c-1.6-1.3-3.5-1.4-3.8-2.2
		c-0.3-0.8-1.6-2.3-2.1-1.9c-0.5,0.5-2.2,0.6-2.2,0.6l-0.9-1.9l-0.9-0.8l-2.6,1.1l-2.2,0.4v5.9l-1.9,1.7l-1.4,2l1.6,2l1.6,2.2v9.8
		l2.5,5.3v5.8l-1.6,5.9l2.8,4l5.3,3.3l4.1,8.1l5.9,8.1l3.8,6.2l6.7,5.6l1.9,3.6v5.1c0,0,0.4,3.1,3.7,4.5c3.2,1.4,10.1,7.9,10.8,7.9
		c0.7,0,4.1,6.1,4.1,6.1l6,5.8l-4.6,3.7l-4.6,2.6l6.9,16.4l2.3,11.2c0,0,0.4,4.3,3.9,4c3.5-0.3,15.6,0,15.6,0l2.3-2.3
		c0,0-0.9-4.8,0-5.4c0.9-0.6,3-4.2,3-5.6s-0.7-4,0-4.8c0.7-0.8,2.3-2,2.3-3.4v-3.6c0,0,5.3-1.4,6.4-2.5c1.2-1.1,5.7-2.8,5.5-4
		c-0.2-1.3,2.1-2.6,2.1-3.1v-2.5c0,0,4.4-2.5,4.4-3.7c0-1.2-3.7-6.5-2.8-7.5c0.9-0.9,7.4-0.5,10.1-0.9c2.8-0.5,13.6-3.9,13.6-3.9
		s3.9-1.7,4.6-1.6c0.7,0.2,3.7,1.7,3.7,1.7l4.1-0.5l2.8,1.7l5.1-0.9l2.5,1.2l3.9-0.5l0.9-2.8c0,0,2.5-0.3,2.3,0.9
		c-0.2,1.3,1.6,2,1.6,2l1.4,0.6l3.2-1.4l1.2,1.6l-0.9-3.9c0,0-2.1-2.2-2.1-2.9c0-0.8,1.4-1.7,2.1-1.3c0.7,0.5,1.4,2.5,3,1.7
		c1.6-0.8,6.7-4.6,7.1-6.2c0.4-1.6,2.1-7.3,1.9-9.7c-0.2-2.4-1.2-6.2-1.2-6.2s-2.3-1.7-3.2-1.2c-0.9,0.5-3.9,1.4-3.9,0.8
		s-1.6-2.5,0.7-4.2c2.3-1.7,5.5-3.9,5.5-3.9s0.4-3.3-0.4-3.7c-0.9-0.5-3-1.4-2.8-2.6c0.2-1.3,1.8-3.3,1.8-3.3s3.9-0.8,5.1-0.6
		c1.2,0.1,5.8-0.3,5.8-0.3s6.2,0.6,7.1,0c0.9-0.6,1.8-4.6,1.8-5.3s1.6-2.6,5.1-3.4c2.6-0.6,6.5-0.4,8.5-0.7c0.6-0.1,1.1-0.3,1.2-0.5
		c0.4-1.1,3.7-4.5,6.9-3.9c3.2,0.6,3.9,1.4,4.1,3.4c0.2,2-1.9,6.5-1.9,6.5l-1.8,3.6l0.7,2.3c0,0,4.6-0.6,6-0.3
		c1.4,0.3,5.8-0.3,6.2-0.9c0.4-0.6,0.9-3.9,1.2-5.3c0.2-1.4-0.2-2.6,1.4-2.8c1.6-0.1,4.8,2.9,7.6,2.9c2.8,0,8.5-0.1,8.5-0.1
		s2.3-1.6,3.7-1.4c1.4,0.2,4.1,2,6.2,2c2.1,0,11.3-0.9,11.3-0.9l4.4,0.3c0,0,2.1-1.9,3.5-0.9c1.4,0.9,3.2,2.3,2.8,3.3
		c-0.4,0.9-3.2,2.3-3.2,2.3s-0.7,1.7,0.4,1.9c1.2,0.2,3.8-0.4,4.3-0.1c0.5,0.3,0.8,2,1.3,2c0.5,0,7.3-0.5,8.2-0.2
		c0.9,0.2,2.2,0.6,2.3,2.7c0.1,2.1-0.7,2.8,0,3.3c0.7,0.5,2.9,0.8,3.1,1.5c0.2,0.7-0.8,0.9,0,1.3c0.8,0.5,5.2,2.3,5.9,3.4
		c0.7,1.1-0.9,3.3-1.1,3.7c-0.2,0.4-1.4,2.7,0.5,4.5c1.9,1.9,2,2.7,2.1,3.6c0.1,0.9-0.4,2.4,0,2.7c0.4,0.4,0,1.1,0,1.1
		s-2.6,2.3-2.5,2.7c0.1,0.4,0.8,2.2,2.2,1.5c1.4-0.7,5.8-3.9,6.1-5.5c0.3-1.6,1-1.8,2.1-1.2c1,0.5,3.5,0.9,3.6,1.5
		c0.1,0.6-0.3,1.4-0.8,2c-0.4,0.6-1.2,1.8-1.1,2.7c0.1,1-0.8,4.8,2.8,6.1s10.4,0.4,10.4,0.4s0.9-1.2,1.8-1.4
		c0.9-0.2,4.7,1.6,4.8,1.8c0.2,0.2,2.1,1.6,3.5,1.9c1.4,0.3,2.2,1.1,2.7,1.6c0.5,0.6,1.5,2.6,1.5,2.8c0,0.2,0.7,1.2,2.4,1.2
		c1.7,0,4.6-0.2,5.2-0.6c0.6-0.4,1.2-0.8,1.7-0.6c0.5,0.2,3.5,1.2,3.8,2.1c0.3,0.9,0.2,1.1-0.5,1.8c-0.7,0.7-1.4,1.2-0.8,2.8
		c0.6,1.6,3.6,7.5,6.8,9.5c3.2,2,6.6,3.4,8.2,2.8c1.6-0.6,2.7-1.4,3.7-1.2c1,0.2,1.3,3.5,2.2,3.9c0.9,0.4,8.8,5.2,15.6,2.7
		c6.8-2.5,9.2-3.7,8.6-4.9c-0.6-1.2-5.5-2.5-5.8-6c-0.3-3.5,1-1.7,0.6-2.4c-0.4-0.7-4.2-4.9-5-6.5c-0.8-1.6-1-2-0.1-2.8
		c1-0.8,4.1-1.5,6.2-0.7c2.2,0.8,5.5,2.6,7.3,2c1.8-0.6,2.9-0.1,3.5-1.7c0.5-1.6,0.3-2.9,0-4.2c-0.3-1.4-0.3-2,1.6-2.4
		c1.9-0.5,5.1,0,6.4-0.2c1.3-0.2,7.9,0,7.9,0s5,4.1,7.1,3.7c2.1-0.5,3.8-0.2,3.5-1.1c-0.3-0.8-7.8-5.5-7.8-5.5s-3.5-2.1-3.1-2.9
		c0.3-0.8,1.7-1.8,3.3-1.4c1.6,0.4,2.8,1.4,3.5,0.8c0.7-0.6,1.6-1.4,0.7-2.1c-0.9-0.7-2.6-1.2-2.1-2.7c0.5-1.5,1.2-2,1.9-2.8
		c0.7-0.8,4.3-1.6,5.2-1.3c0.9,0.4,4.5,2.4,5,2.4c0.5,0,6,3,6,3l-1.2,2.2l1.2,0.7l3.8-1.4c0,0,3.6,1.4,5.9,1.3
		c2.2-0.1,10.9,1.9,10.9,1.9l8.5,2.7c0,0,7.9,2,8.5,2s2.9,0.4,4.1-0.5c1.2-0.8,6.4-0.4,7.6,0.2c1.2,0.6,4.3,2.4,5.5,2.9
		c1.2,0.5,5.4,1.4,5.4,1.4h6.4c0,0,9.3,0.7,9.8,0.7c0.5,0,3.5,0,4-0.4c0.5-0.4,1.4-0.6,2.2-1.3c0.9-0.7,3.5,0.2,4,0.4
		c0.5,0.1,2.6-0.1,4-0.4l1.4-0.2v0.7l4-0.5c0,0,3.3,0.2,3.6,0.7c0.3,0.5,4.1,3.1,5.4,4.3c1.2,1.2,2.9,3.1,4.1,3
		c1.2-0.1,4.7,0.1,4.7,0.1l0.3,0l2.5,0.4c0,0,0.3,1.6,0,2.7c-0.3,1.1-0.2,3-0.9,3.6c-0.7,0.6-0.7,1.4-0.7,1.4s-0.7,0-0.2,1.3
		c0.5,1.3,0,4.1-0.5,4.5c-0.5,0.5-0.7,1.6-2.2,1.7c-1.6,0.1-2.4,0.1-2.4,1.2c0,1.1,1.4,2.1,2.9,2.4c1.6,0.4,7.8,1.1,7.8,1.1
		s2.6,0.1,3.5,0.1c0.9,0,1.9,0.1,2.1,0.6c0.2,0.5,0.2,2.6,0,3.6c-0.2,1.1-1.1,2.9,0.1,2.8c1.3-0.1,2.8,0.2,3.2-0.1
		c0.3-0.4,0.2-2.2,1.4-1.9l1.2,0.4c0,0,0.9,1.4,1.9,1.9c1,0.5,7.1,3.5,7.8,3.4c0.7-0.1,2.1,0.2,1.4,0.7c-0.7,0.5-6.9,1.6-6.9,1.6
		s-3.3,0.6-3.3,0.9c0,0.4-0.9,2.4-0.9,2.4h4.8c0,0,2.8-0.7,3.6-0.7c0.9,0,4.5,2,4.5,2.4c0,0.5-1.2,1.4,0,1.3
		c1.2-0.1,3.3-1.5,3.3-1.5s3.5,0.1,4,0.1s4.7,0.4,5.7-0.1c1-0.5,5.2-1.2,5.9-1.5c0.7-0.4,6-1.9,7.6-2.1c1.6-0.2,7.1-1.1,7.6-1.1
		c0.5,0,7.3-0.6,7.3-0.2c0,0.4,0.2,2-0.9,2.9c-1,0.9-5,2.1-5.7,1.8c-0.7-0.4-2.6-1.2-2.2-0.2c0.3,0.9,1.4,2.2,1.9,3
		c0.5,0.8,0.7,1.2,2.6,2.6c1.9,1.4,7.4,3.1,8.3,6.6c0.9,3.5,4.3,15.6,4.3,15.6l4.7,17.4l2.1,10l1.6,5.8c0,0,2.2,1.1,2.9,0.7
		c0.7-0.4,4.1-3.3,4.3-3.7c0.2-0.5-0.2-1.4,1.7-1.4s3.3,0.2,4.1,0.9c0.9,0.7,4.1,3.6,6.2,4.3c2.1,0.6,2.6,1.3,3.6,2.5
		c1,1.2,0.7,2.6,2.8,2.9c2.1,0.4,6.2,1.9,6.2,1.9h4c0,0,2.4-1.5,3.6-1.6c1.2-0.1,7.4,0.5,9.2,1.6c1.7,1.2,3.3,2.6,4.3,4.4
		c1,1.9,2.9,5.2,2.9,5.2s0.5,3.1,1.9,3.4c1.4,0.2,4.5,0.6,5.2,2c0.7,1.4,1,2.1,1,2.1s-0.5,2.3,0,2.8c0.5,0.5,0,4.5,2.1,5.9
		c2.1,1.4,9.2,2.9,9.2,2.9s4.5-0.1,5.2,0c0.7,0.1,5.2-1.8,6-2.1c0.9-0.4,1.6-2.4,3.1-0.9c1.6,1.5,0.7,2.9,0,3
		c-0.7,0.1-2.4,0.9-2.1,1.4c0.3,0.5,5.2,3,5.2,3s2.2,1.9,2.4,3.1c0.2,1.3-0.9,1.9,0,1.9c0.9,0,3.6,1.2,5.7,0
		c2.1-1.2,5.4-2.9,6.7-3.7s3.6-0.4,5.9-0.2c2.2,0.1,13.1,0.4,14.9-1.4c1.7-1.8,4.7-3.6,7.1-5c2.4-1.4,9.2-1.9,13.3-2.9
		c4.1-1.1,10-3.1,12.1-3.7c2.1-0.6,3.3-2.1,6.2-1.6c2.9,0.5,6.6,0.2,6.7-0.4c0.2-0.6,1-2.3,2.1-1.8c1,0.6,0.9,3.4,3.3,2.9
		c2.4-0.5,4.5-1.8,5.7-0.7c1.2,1.1,1.9,2.4,4.1,2.2c2.2-0.2,11.1,0.9,11.1,0.9l5.9,0.4c0,0,1.2,0.1,2.4,2.4c1.2,2.3,0,3.7,0.9,4.4
		c0.9,0.7,7.3,5.3,7.9,5.2c0.7-0.1,3.1,2.4,5.4,1.9c2.2-0.6,4.8-3.3,7.1-3.4c2.2-0.1,4.8,4.4,7.8,4.2c2.9-0.2,4.1-1.8,5.5-1.5
		c1.4,0.2,6.4,3,10.5,2.3c4.1-0.8,11.1-4.6,10.7-7.2c-0.3-2.6-5.9-9.9-5.9-13.2c0-3.3,6.2-2.2,7.3-3.7c1-1.5,0.9-3.3,3.8-6.8
		c2.9-3.5,5.7-5.9,5.7-5.9s2.1-0.7,4.5,0.6c2.4,1.3,11.2,5.8,20.6,6.9c9.3,1.1,22.5,2.9,23.3,3.4c0.9,0.5,2.1,2.7,2.1,3.8
		c0,1.2,0,5.7,1.2,7.3c1.2,1.6,11.9,7.8,12.6,7.9c0.7,0.1,6.6,2.6,14.5,0.2c7.9-2.3,16.6-4.6,18.1-5c1.6-0.4,8.8-0.8,10.5-0.7
		c1.7,0.1,6.5,2.1,6.5,2.1s5.5-0.1,6.4-0.1s6,2.2,6.2,2.6c0.2,0.4,2.8,2.2,2.8,2.2s4.3-0.9,5.7-0.4c1.4,0.6,7.6,5.5,9.7,6.8
		c2.1,1.3,8.4,2.1,14.5,1.8c6-0.4,16.4,0.1,21.9,0.1c5.5,0,8.6-1,10.9-1.7c2.2-0.7,3.1-4.1,10.2-5.5c7.1-1.4,16-1.6,18.3-4.2
		c2.2-2.6,3.6-6.9,7.4-9.2c3.8-2.3,11.7-5.2,14-5.6c2.2-0.4,9.8,4.4,13.5,3.8c3.6-0.6,6.2-3.5,9-4c2.8-0.5,9.8,3.7,13.8,3.6
		c4-0.1,11.1-0.1,13,0.6c1.9,0.7,3.5-0.6,3.5-0.6s4-4.7,5.2-6.1c1.2-1.4,6.7-5.1,7.8-5.8c1-0.7,0-2.1-0.9-3.3
		c-0.8-1.2,1.3-3.7,1.3-3.7s1.3-1.6,1.4-3.3c0.2-1.6-0.2-3.8,0-4.9c0.2-1.1,1-3.1,1.2-4.5c0.2-1.4,0.3-2.4,0-2.9
		c-0.3-0.5,0.3-2.8,1.2-3.8c0.9-1.1,2.4-2,2.9-2.4c0.5-0.5,4-5.7,2.8-7c-1.2-1.3-3.6-2.4-3.8-3.3c-0.2-0.8-0.7-2.3-1.9-3.1
		c-1.2-0.8-2.9-0.9-3.6-1.1c-0.7-0.1-2.1,0.7-2.4-1.5c-0.3-2.2,1.6-7.6,6.2-9.8c3.6-1.7,12.5-5.7,17.5-7.6c1.5-0.6,2.5-1,3.1-1.1
		c2.4-0.6,11.1-2.4,11.7-2.8c0.7-0.4,11.4-0.4,11.4-0.4s11.7-0.6,14.2-0.8c2.4-0.2,7.8-1.6,8.5-1.5c0.7,0.1,3.1,2.4,4.8,2.7
		c1.7,0.2,2.9,0.4,4.3,1.7c1.4,1.4,2.1,3.1,4.3,3.6c2.2,0.5,3.1-0.9,4.1,0.5c1,1.4,0.8,2.7,3.5,3.7c2.6,1.1,5.7,2.8,7.8,4.1
		c2.1,1.3,3.6,0.2,4.1,2.7c0.5,2.4,0.7,4,1.6,4c0.9,0,6.6,2.4,7.9,3.1s2.1,1.4,2.1,1.4s4.1,3.8,4.7,4.8c0.5,0.9,5.7,5.6,6.4,6.1
		c0.7,0.5,5.5,4.2,7.8,4.5c2.2,0.4,6.7-0.5,7.8-1.1c1-0.6,2.9-1.5,5-1.5c2.1,0,11.4,0.1,13.1,0.1c1.7,0,15.2,0.8,16,0.8
		c0.8,0,6.9,1.5,6.9,1.5c0.2,1.1-0.9,4,2.1,4.6c2.9,0.7,3.8,0.2,5,2.4c1.2,2.2,0.9,4.8,2.2,5.3c1.4,0.6,10,2,18.8-2.3
		c8.8-4.3,11.4-7.2,12.6-9c1.2-1.8,5.9-5.7,7.4-6.9c1.6-1.2,4.8-5,7.1-6.1c2.2-1.1,4.3-3,4.3-3s0,1.2,1.6,1.6
		c1.6,0.5,3.8-0.5,3.8-0.5s1,4.4,1.6,5c0.5,0.6,5,2.8,5,4.9c0,2.1,2.1,2.9,0,4.1c-2.1,1.2-4.1,0.4-3.6,2.7c0.5,2.3,1.2,3.6,1.9,5.1
		c0.7,1.5,1.5,8.7,2.7,9.7c1.2,0.9,1.7,4.9,1.7,5.2c0,0.4-0.7,2.2,0,3.5c0.7,1.3,1.7,2.3,1.9,4c0.2,1.6,0.2,3.1,0,4.2
		c-0.2,1.1,0.3,1.7,0.1,3.5c-0.1,1.8-1.3,5-2.2,5.3c-0.8,0.4-4,1.4-4.8,1.3c-0.8-0.1-5.7-0.8-6.9-0.5c-1.2,0.4-4.8,1.2-4.8,1.2
		s-2.2,1.9-2.2,2.2c0,0.4-0.2,2.2-0.7,2.8c-0.5,0.6-1.2,3.1-2.8,4.2c-1.6,1.1-3.1,2.1-2.9,2.6c0.2,0.5,2.8,3.1,6.4,5.5
		c3.6,2.3,5.7,6.1,7.1,7.7c1.4,1.6,6.7,8.7,7.9,10.3c1.2,1.6,1.6,2.2,0.5,3.7c-1,1.5-2.4,2-4,2.3c-1.6,0.4-3.5,0.8-4.1,1.3
		c-0.7,0.5-0.3,2.1,0.2,2.6c0.5,0.5,2.4,2.7,3.1,4.1c0.7,1.4-0.5,2.7-0.3,3.3c0.2,0.6,0.3,1.3,0,2.3c-0.3,1.1-0.5,1.9,0.3,1.9
		c0.8,0,1.2-1.8,1.4-2.2c0.2-0.5,1.1-3,0.9-3.5c-0.2-0.5,1.9,1.4,2.2,0.4c0.3-1.1,2.6-2.4,0.5-3.7c-2.1-1.3-3.1-1.4-2.2-2
		c0.9-0.6,3.1-0.9,5.2-1.1c2.1-0.1,4.5,0.7,4.5-0.4c0-1.1-0.5-2.2-0.8-3.3c-0.3-1.1,0.8-2.6,0.8-3.6c0-1.1,0.7-1.4,0-2.3
		c-0.7-0.9-1.4-1.4-1.2-2.4c0.2-1.1-0.3-0.9,1.5-1.4c1.8-0.5,8.5,0.1,9.5,0.6c1,0.5,1.9,3.1,4.8,1.9c3-1.3,5.2-2.1,6.6-2.3
		c1.4-0.2,2.6,2.2,4.5,1.8c1.9-0.5,2.8-1.1,4-2.2c1.2-1.2,1.9-1.4,2.4-2.1c0.5-0.7,7.4-4.4,7.4-4.4s1.6-1.7,1.4-3.3
		c-0.2-1.5-1.5-2.2,0-2.8c1.5-0.6,4.7-1.3,5.7-2.3c1-1.1,4.1-4.5,4.5-6.1c0.3-1.5,0-2.8,0-3.3c-0.2-1.6,0.2-3.1,0.2-3.1
		s1.6-2,1.4-3.5c-0.2-1.5-1.2-5-1.2-6.3s1.4-1.8,1.2-2.8c-0.2-1.1,1.5-3.8,1.9-5.7c0.3-1.9,0.9-4.1,1.2-6c0.3-1.9-1-5.1,0-6.8
		c1-1.6,3.8-3.6,4-7c0.1-3.4-0.3-6.2,0-7.9c0.3-1.8,0.5-3.6,1-4.1c0.5-0.5-0.3-4.5-1.4-6.6c-1-2.1-0.2-4-0.3-5.3
		c-0.2-1.4-1-5.6-1.9-6.6c-0.9-1.1-4-3.8-2.6-6.4c1.4-2.6,3.3-4.4,3.3-5.7c0-1.3,1.6-10.4,1.6-11c0-0.7-0.2-5.6-0.2-5.6
		s-0.3-0.4-0.7-1.2c-0.3-0.8,0.3-2-0.2-3.1c-0.5-1.2-1.6-2.4-2.2-2.3c-0.7,0.1-2.4,1.4-2.8,1.1c-0.3-0.4-1-4.2-1.4-4.6
		c-0.3-0.5-5.7-8.2-6.2-8.5c-0.5-0.4-0.7-3.4-2.1-4c-1.4-0.6-2.6-0.4-3.3-0.8c-0.7-0.5-9.2-7.5-9.2-7.8c0-0.4-0.9-4.1-0.9-4.1
		s-1.6-4-1.6-4.6c0-0.7-1.9-2.1-2.4-2.4c-0.5-0.4,0.2-6,0-6.8c-0.2-0.8-1.2-2.6-1.7-3.1c-0.5-0.6-0.5-2.7-0.5-2.7s-1.6-0.9-2.2-0.6
		c-0.7,0.4-4.8,0.7-5.2,0.2c-0.3-0.5-1.6-2.8-1.6-2.8s-4.3-1.5-5-2.7c-0.7-1.2-1.2-3.4-1.2-3.4s-0.2-2.8-0.7-3.6
		c-0.5-0.8-1.2-1.8-1.7-1.9c-0.5-0.1-4,0.8-4,0.8s-10.3,0.7-11.1,0.4c-0.7-0.4-4-2-4.3-2.3c-0.3-0.4-3.3-1.2-5.9-1.5
		s-4.1-0.9-4.5-1.4c-0.3-0.5-1.2-1.8-1.7-0.9c-0.5,0.8-1.4,2.8-1.4,3.1c0,0.4-3.5,2.8-4.5,2.8c-1.1,0-5.7-1.8-6.6-0.9
		c-0.8,0.8-0.3,2.8,0.3,3.1c0.7,0.4,2.4,2,4,2.6c1.6,0.6,2.1,1.2,2.6,2.2c0.5,1.1,1,2.1,1,2.6c0,0.5,0.9,1.2-0.2,1.2
		c-1.1,0-2.6-0.2-2.6-0.9s0.5-1.8-0.3-2.2c-0.8-0.5-1.6-0.6-2.1-0.1c-0.5,0.5-1.4,2.3-1.7,2.8c-0.3,0.5-2.8,4.6-4.7,5.1
		c-1.9,0.5-3.1,2-3.5,0.9c-0.3-1.1,0.8-2.8,1-3.6c0.2-0.8,0.9-1.9-0.7-2c-1.6-0.1-5.7,0.7-5.7-0.4c0-1.1,1.2-3.4,1.1-4.1
		c-0.2-0.7,0.3-1.6-1.9-1.4c-2.2,0.2-3.6,1.5-4.1,2c-0.5,0.5-1.2,1.8-1.2,1.8s0.7,1.9,1.6,2.2c0.9,0.4,2.1,1.9,2.9,2.4
		c0.9,0.6,1.9,0.7,0.2,1.6c-1.7,0.9-2.8,2-3.6,2.1c-0.8,0.1-1.9-0.2-2.8-1.3c-0.9-1.1-0.3-5-1.6-5.9c-1.2-0.9-3.3-2.2-4.1-3
		c-0.9-0.8-2.4-1.5-2.8-1.1c-0.3,0.5-2.2,1.4-4,2.6l-1.7,1.2c0,0-2.9,1.3-3.8,1.3s-4.3,1.1-6.4-0.1c-2.1-1.2-3.8-1.5-3.1-3.3
		c0.7-1.8,4.7-4,5.2-6c0.5-2,0.9-4.2,1-5.5c0.2-1.3,2.2-2.9,2.9-5c0.7-2.1,1-4.2,1-5.7c0-1.5-0.2-3.5,1.4-5.1
		c1.6-1.6,2.6-1.9,2.6-3.5s-0.2-2.9-0.9-4.4c-0.7-1.5-0.1-2.3,1.1-4.3c1.2-2,0.7-3.1,1-5.9c0.3-2.8,0.7-4.4,1.2-5.7
		c0.5-1.3,1.4-3.1,0.7-4.6c-0.7-1.5,0.2-4.5,0.7-5c0.5-0.5,1.9-0.6,1.7-1.8c-0.2-1.2-2.9-5.8-2.2-7.2c0.7-1.4,1.2-3.1,1.9-4.5
		c0.7-1.4,0.2-1.2,0-5.3c-0.2-4.1-0.2-9.5-0.2-9.5s1.2-4.1,2.6-5.8c1.4-1.8,1.9-1.4,3.5-1.5c1.6-0.1,3.3-0.9,4.1-1.8
		c0.9-0.8,3.5-3,5.5-4.1c2.1-1.1,4.8-2.7,5.7-3.4c0.9-0.7,1.2-2.1,1.7-2.3c0.5-0.2,2.2-0.5,4.5-1.4c2.2-0.9,2.4-1.8,3.3-0.7
		c0.8,1.1,0.2,2.1,2.1,2c1.9-0.1,3.3,0,3.8-1.3c0.5-1.3-0.3-1.6-0.5-2.9c-0.2-1.3-2.8-1.9,0.7-2.8c3.5-0.9,5.2-0.7,6.7-1.3
		c1.6-0.6,3.6-1.5,4.6-3c1-1.5-1-2.4,2.4-2.9c3.5-0.5,4.1,1.1,6.4,0c2.2-1.1,3.6-2,3.5-2.8c-0.2-0.8-0.2-0.7-1.2-1.3
		c-1.1-0.6-2.1,0.4-2.9-0.9c-0.9-1.3-0.3-1.4,1.2-1.6c1.6-0.2,1.2-2.1,1.2-2.1c-1.1-1.3-3.3-1.5-1.2-2.9c2.1-1.4,6.9-2.4,6.9-2.4
		l4.5-2.4c0,0,1.2,2.3,2.4,1.5c1.2-0.8,2.9-2.2,2.9-3.3c0-1.1,4-2.9,4.7-2.9s6.7,0.7,7.4,0c0.7-0.7,2.2-1.9,1.6,0
		c-0.7,1.9-2.2,2.1-3.6,3c-1.4,0.9-2.8,0.9-3.1,2.4c-0.3,1.5,1.9,4.1,5.2,4.1c3.3,0,5.5-1.8,7.1-2.9c1.6-1.2,1.9-3.1,1.9-3.1
		c-1.1-0.7-3.1-2.3-1.9-2.9c1.2-0.6,2.9,1.4,4.7-0.2c1.7-1.6,2.1-2.8,2.2-4.9c0.2-2.1,1-2.3,2.8-3.1c1.7-0.8,6.4,1.4,6.9-1.2
		c0.5-2.6-0.5-3.6,1-4.3c1.6-0.7,3.1-0.1,4.3-1.4c1.2-1.3,2.6-4.1,0.9-5c-1.7-0.9-5.2-1.9-6.4-1.2c-1.2,0.7-2.1,1.6-3.3,1.9
		c-1.2,0.2-2.4,0.5-3.1,0.8c-0.7,0.4,0.8,1.5-1.2,2c-2.1,0.5-3.1,1.2-3.3-0.1c-0.2-1.3-2.8-2.7-2.6-3.1c0.2-0.5,2.4-0.4,2.1-2.6
		c-0.3-2.2-3.1-7.6-3.1-8.7c0-1.2-0.5-6.1-0.7-6.8c-0.2-0.7-2.9-5.6-2.9-6.6c0-1.1,0.3-3-0.5-4.9c-0.9-1.9-1.2-4.1-1.9-5.9
		c-0.7-1.9-0.2-4.4,1.6-6.2c1.7-1.8,3.6-3.8,4.8-4.9c1.2-1.1,3.5-4.2,3.5-4.2s0.7-0.8,2.8-0.7c2.1,0.1,3.8,0.9,4.8,0.5
		c1.1-0.5,0.9-1.6,1.6-2.2c0.7-0.6-1.7-3-1.7-3.5c0-0.5-0.8-2,0.5-1.2c1.4,0.8,3.8,3.1,4.5,4.1c0.7,0.9,0.5,2.6,0.9,3.5
		c0.3,0.9,0,1.3,2.8,2.9c2.8,1.6,1.9,2.8,3.5,2.9c1.6,0.1,2.6-0.1,3.1-1.4c0.5-1.3,0.3-2.3,0.7-3c0.3-0.7-1.2-2.3,0.3-0.7
		c1.6,1.6,3.8,5.5,5.4,5.2c1.6-0.2,2.9-0.7,3.1-2.4c0.2-1.8-0.3-4,0-4.9c0.3-0.9-2.8-3.7-2.6-5.8c0.2-2.1,0.7-6.2,0.7-6.2
		s-1.9-1.4-1.9-3.3s-0.2-2.6,1-2.9c1.2-0.4,1.8,0.4,2.8,0c1-0.4,4.1-1.4,1.7-2.4c-2.4-1.1-4.1-1.2-5.4-1.2s-2.1,0.7-2.2-0.6
		c-0.2-1.3-5.4-4.5-5.7-5.1c-0.3-0.6-3.5-1.1-3.3-2.7c0.2-1.6,0.8-3,1.4-4.5c0.5-1.5,1-2.7,1.6-3.1c0.5-0.5,9.2-3.8,9.2-3.8
		s2.1-0.2,1.4,0.8c-0.7,1.1-1.6,1.2-2.9,2.3c-1.4,1.2-2.1,1.6-1.9,2.9c0.2,1.3-0.9,1.4,1,2.9c1.9,1.5,4.1,2.6,6,3.6
		c1.9,1.1,2.4,0.6,2.8,1.8c0.3,1.2-1.1,0.9,0,2.4c1,1.5,1.6,2.8,3.1,2.7c1.6-0.1,1.2-0.8,2.4-0.7c1.2,0.1,2.1-0.4,2.4,1.6
		c0.3,2-0.5,3.5,1.6,3.5c2.1,0,3.8-0.9,4,0.6c0.2,1.5,1.9,2.4,0,3.3c-1.9,0.8-3.1,0.9-3.3,2c-0.2,1.1,0,0.6,0.2,2.6
		c0.2,2,0,3-0.2,4.1c-0.2,1.1-1.6,2.6-0.2,3.8c1.4,1.3,2.4,1.2,3.6,2.1c1.2,0.9-0.1,0.8,0.7,2.9c0.9,2.1,1,2,2.2,3.5
		c1.2,1.5,1.7,1.3,1.9,3.1c0.2,1.9-0.7,4.4-1,5.5c-0.3,1.1-1.2,1.5-0.7,2.6c0.5,1.1,0.3,2.1,1,2.6c0.7,0.5,0,1.4,0.7,2.4
		c0.7,1.1,0,2.3,0,2.3s-0.5,0.2,1.2,0.9c1.7,0.7,4.6,0.1,4.8,2.4c0.2,2.3-0.9,3.6,0,5.1c0.9,1.5,0.5,2.8,1.4,5.1
		c0.8,2.3,1,3.5,1.4,4.5c0.3,1.1,0.5,2.2,0,2.8c-0.5,0.6-1.2,1.4-1.9,1.5c-0.7,0.1-2.6-0.1-2.8,0.9c-0.2,1.1-0.2,2.3,0.5,3.6
		c0.7,1.3,1.7,1.4,0.3,2.2c-1.4,0.8-1.6,1.3-2.8,1.5c-1.2,0.2-2.6,0.8-1.9,1.5c0.7,0.7,0.5,1.8,2.4,1.4c1.9-0.4,0.3-1.6,3.1-0.4
		c2.8,1.3,2.8,1.4,4,3.3c1.2,1.9,1.7,2.6,1.6,3.6c-0.2,1.1-0.7,1.2-0.7,1.8c0,0.6,0.1,0.6,0.7,1.9c0.7,1.3,0.7,2,0.8,3.3
		c0.2,1.3,0,2.8,1,4c1.1,1.2,2.9,3.6,6,5.5c3.1,1.9,4,3.4,6.2,5.5c2.2,2.1,3.5,4.2,5.9,5.3s6.2,3.5,9.5,4.8
		c3.3,1.3,13.1,6.2,13.6,6.5c0.5,0.4,9.2,3.6,9.7,3.7c0.5,0.1,9.5,3.7,9.5,3.7l9,4.4l10.5,4.9l6.4,2.9l5,2.1c0,0,3.3,1.2,3.3,1.5
		c0,0.4,3.8,3.8,3.8,3.8l4,1.1l3.1,0.1c0,0,3.1,1.2,3.8,0.9c0.7-0.2,1.9-1.5,1.6-2.8c-0.3-1.3-0.9-3.3-1.6-4.8
		C1741.1,352.3,1741.2,352.1,1742.3,351.5z"/>
	<path class="st0" d="M47.8,361.5c0.7,0.1,1.9,0.4,2.6,0c0.7-0.4,2.1-0.9,2.1-0.9s1.2-1.1,1.1-1.4c-0.1-0.4,0-1.3,0-1.3
		s-0.4-0.8-0.1-1.2c0.3-0.4-0.3-1.3-0.9-1.9c-0.5-0.6-1.4-0.5-3.1-0.6c-1.7-0.1-0.6-0.2-2.9-0.9c-2.3-0.7,0.3-1.2,0-1.8
		c-0.3-0.6,0.3-1.5-0.7-1.9c-1-0.4-1.9-0.9-1.9-0.9s0.2-2,0.3-2.6c0.2-0.6,1-2.7,2.3-4c1.3-1.3,0.1-2,1.7-4.1
		c1.6-2.1,0.9-1.9,1.2-2.3c0.3-0.5-1.4,0-1.4,0s-0.9,1.3-1.5,1.9c-0.6,0.6-4,4.4-3.4,5.3c0.7,0.9-1.2,2.6-1.2,3.4
		c0,0.8-1.6,1.3-2.6,1.1c-1-0.2-0.9-0.8-1.2-1.4c-0.3-0.6,1-1.5,1.9-1.9c0.9-0.4,1.7-1.6,2.4-2.1c0.7-0.5,1.2-4,0.7-4.9
		c-0.5-0.9-1.2-2.3-1-2.9c0.2-0.6,1.2-0.9,1.7-1.5c0.5-0.6,0.2-0.7,0-1.8c-0.2-1.1-1.4-1.3-1.6-1.4s-0.5-1.3-0.1-2.4
		c0.3-1.2,0-2.2,0-3.2c0-0.9-3.1-1.1-3.1-1.1s-1.2,0.6-1.7,1.8c-0.5,1.2-1,0.1-1.7,0c-0.7-0.1-1.7-0.6-2.8-0.6c-1,0-1.9-0.4-2.4-0.9
		c-0.5-0.6-1-1.1-2.8-1.8s-2.8-0.7-4-0.7s-2.2-0.7-2.8-1.2c-0.5-0.5-2.4-1.2-4-1.4c-1.6-0.2-2.8-0.2-4.1,0c0,0-1.6,1.8,0.3,2.1
		c1.9,0.4,1.6-0.1,2.6,0.2c1,0.4,1.2,1.6,1.6,2.1s1.4,4.2,1.6,4.5c0.2,0.4-0.2,1.7-0.3,2.2c-0.2,0.5-0.5,1.3-0.5,1.8
		s-1.4,1.6-1.9,2.1c-0.5,0.5-1.7,1.2-3.3,1.8c-1.6,0.6-2.2,0.2-3.6,0.1c-1.4-0.1-1.9,0.1-2.4,0.2c-0.5,0.1-1,0.6-1,0.6
		s-1.4,0.6-1.6,1.1c-0.2,0.5-0.3,0.6,0,1.9c0.3,1.3,2.1,0.4,2.6,1c0.5,0.7,0.2,1-0.3,2c-0.5,1.1-0.3,2.3,0,2.8
		c0.3,0.5,2.9,0.1,3.5,0.1c0.5,0,8.6,0.7,8.6,0.7l3.5,0.7l2.1,0.7c2.1,0.7,0.2,1.8,1,3.5c0.9,1.8,3.8,1.2,5.7,1.9
		c1.9,0.7,2.6-1.2,4.7-1.8c2-0.6,1.4,0.6,3.1,1.9c1.7,1.3,0.3,1.9,0,3.1c-0.3,1.3,0.7,0.8,2.1,1.2c1.4,0.4,2.4,1.4,2.4,1.4
		s0.5,0.7,1.9,1.2c1.4,0.5,0,0,1.6,0.2C48.2,359.8,47.1,361.4,47.8,361.5z"/>
	
		<radialGradient id="SVGID_00000176006280573954565200000007837241660291399569_" cx="-84.7223" cy="872.0533" r="1" gradientTransform="matrix(-54.0074 721.9999 1877.4348 140.4368 -1640902.625 -61298.9258)" gradientUnits="userSpaceOnUse">
		<stop  offset="0" style="stop-color:#FFFFFF"/>
		<stop  offset="1.000000e-04" style="stop-color:#DFE7EA"/>
		<stop  offset="1" style="stop-color:#E0E3E5;stop-opacity:0"/>
	</radialGradient>
	<path style="fill:url(#SVGID_00000176006280573954565200000007837241660291399569_);" d="M47.8,361.5c0.7,0.1,1.9,0.4,2.6,0
		c0.7-0.4,2.1-0.9,2.1-0.9s1.2-1.1,1.1-1.4c-0.1-0.4,0-1.3,0-1.3s-0.4-0.8-0.1-1.2c0.3-0.4-0.3-1.3-0.9-1.9
		c-0.5-0.6-1.4-0.5-3.1-0.6c-1.7-0.1-0.6-0.2-2.9-0.9c-2.3-0.7,0.3-1.2,0-1.8c-0.3-0.6,0.3-1.5-0.7-1.9c-1-0.4-1.9-0.9-1.9-0.9
		s0.2-2,0.3-2.6c0.2-0.6,1-2.7,2.3-4c1.3-1.3,0.1-2,1.7-4.1c1.6-2.1,0.9-1.9,1.2-2.3c0.3-0.5-1.4,0-1.4,0s-0.9,1.3-1.5,1.9
		c-0.6,0.6-4,4.4-3.4,5.3c0.7,0.9-1.2,2.6-1.2,3.4c0,0.8-1.6,1.3-2.6,1.1c-1-0.2-0.9-0.8-1.2-1.4c-0.3-0.6,1-1.5,1.9-1.9
		c0.9-0.4,1.7-1.6,2.4-2.1c0.7-0.5,1.2-4,0.7-4.9c-0.5-0.9-1.2-2.3-1-2.9c0.2-0.6,1.2-0.9,1.7-1.5c0.5-0.6,0.2-0.7,0-1.8
		c-0.2-1.1-1.4-1.3-1.6-1.4s-0.5-1.3-0.1-2.4c0.3-1.2,0-2.2,0-3.2c0-0.9-3.1-1.1-3.1-1.1s-1.2,0.6-1.7,1.8c-0.5,1.2-1,0.1-1.7,0
		c-0.7-0.1-1.7-0.6-2.8-0.6c-1,0-1.9-0.4-2.4-0.9c-0.5-0.6-1-1.1-2.8-1.8s-2.8-0.7-4-0.7s-2.2-0.7-2.8-1.2c-0.5-0.5-2.4-1.2-4-1.4
		c-1.6-0.2-2.8-0.2-4.1,0c0,0-1.6,1.8,0.3,2.1c1.9,0.4,1.6-0.1,2.6,0.2c1,0.4,1.2,1.6,1.6,2.1s1.4,4.2,1.6,4.5
		c0.2,0.4-0.2,1.7-0.3,2.2c-0.2,0.5-0.5,1.3-0.5,1.8s-1.4,1.6-1.9,2.1c-0.5,0.5-1.7,1.2-3.3,1.8c-1.6,0.6-2.2,0.2-3.6,0.1
		c-1.4-0.1-1.9,0.1-2.4,0.2c-0.5,0.1-1,0.6-1,0.6s-1.4,0.6-1.6,1.1c-0.2,0.5-0.3,0.6,0,1.9c0.3,1.3,2.1,0.4,2.6,1
		c0.5,0.7,0.2,1-0.3,2c-0.5,1.1-0.3,2.3,0,2.8c0.3,0.5,2.9,0.1,3.5,0.1c0.5,0,8.6,0.7,8.6,0.7l3.5,0.7l2.1,0.7
		c2.1,0.7,0.2,1.8,1,3.5c0.9,1.8,3.8,1.2,5.7,1.9c1.9,0.7,2.6-1.2,4.7-1.8c2-0.6,1.4,0.6,3.1,1.9c1.7,1.3,0.3,1.9,0,3.1
		c-0.3,1.3,0.7,0.8,2.1,1.2c1.4,0.4,2.4,1.4,2.4,1.4s0.5,0.7,1.9,1.2c1.4,0.5,0,0,1.6,0.2C48.2,359.8,47.1,361.4,47.8,361.5z"/>
	<path class="st0" d="M26,194.7c0.5,2.1,4,5.1,4.7,6c0.7,0.8,6.7,7.5,7.3,8c0.5,0.6,1.4,4,2.1,4c0.7,0,1.2-0.4,2.8-1.4
		c1.6-1.1,1.7-0.9,1.7-0.9s4-0.7,4.7-0.9c0.7-0.2,2.4-1.3,2.4-1.3s1.2-0.4,2-0.7c0.8-0.4,0-1.5,0-1.5s-0.1-1.8,0-2.6
		c0.1-0.8-0.6-1.3-0.1-3c0.5-1.8-0.5-3-0.1-4c0.3-0.9,0-1,0-1h-1l-1.9-0.7c0,0-1.6-0.4-3.3,0.4c-1.7,0.7-2.2,0-3.5,0
		c-1.2,0-1.6-0.6-2.1-1.4c-0.5-0.8-0.2-1.8,0.9-2.4c0,0,1.6-0.8,2.4-0.9c0.9-0.1,1.7,0.1,2.6,0c0.9-0.1,2.9-0.1,3.6-0.1
		c0.7,0,1.6-0.5,2.9-1.5l-1.9,0.2c0,0-1.9-0.1-3.8-0.4c-1.9-0.2-2.6,0.5-3.5,0.4c-0.9-0.1-2.2-0.1-3.8-0.2c-1.6-0.1-1.4-0.8-1.4-0.8
		s0.2-0.8,1.4-1.9c1.2-1.1-0.3-1.1-0.3-1.1l-1.2-0.7c0,0-1.9,0.7-3.3,0.2c-1.4-0.5,0,0-1.6,0c-1.6,0-0.9,0.7-2.8,2
		c-1.9,1.3-1.6,0.8-2.1,1.4c-0.5,0.6-1.4,0.5-2.9,0.5c-1.6,0-0.5-0.7-0.5-1.2c0-0.5-1.6-2.1-1.7-2.6c-0.2-0.5-1,0.2-1.2,1.3
		c-0.2,1.1-0.2,1.9,0.9,3.7C25.2,191.5,25.4,192.6,26,194.7z"/>
	
		<radialGradient id="SVGID_00000164500648205323803470000009706348697930012064_" cx="-84.7223" cy="872.0533" r="1" gradientTransform="matrix(-54.0074 721.9999 1877.4348 140.4368 -1640902.625 -61298.9258)" gradientUnits="userSpaceOnUse">
		<stop  offset="0" style="stop-color:#FFFFFF"/>
		<stop  offset="1.000000e-04" style="stop-color:#DFE7EA"/>
		<stop  offset="1" style="stop-color:#E0E3E5;stop-opacity:0"/>
	</radialGradient>
	<path style="fill:url(#SVGID_00000164500648205323803470000009706348697930012064_);" d="M26,194.7c0.5,2.1,4,5.1,4.7,6
		c0.7,0.8,6.7,7.5,7.3,8c0.5,0.6,1.4,4,2.1,4c0.7,0,1.2-0.4,2.8-1.4c1.6-1.1,1.7-0.9,1.7-0.9s4-0.7,4.7-0.9c0.7-0.2,2.4-1.3,2.4-1.3
		s1.2-0.4,2-0.7c0.8-0.4,0-1.5,0-1.5s-0.1-1.8,0-2.6c0.1-0.8-0.6-1.3-0.1-3c0.5-1.8-0.5-3-0.1-4c0.3-0.9,0-1,0-1h-1l-1.9-0.7
		c0,0-1.6-0.4-3.3,0.4c-1.7,0.7-2.2,0-3.5,0c-1.2,0-1.6-0.6-2.1-1.4c-0.5-0.8-0.2-1.8,0.9-2.4c0,0,1.6-0.8,2.4-0.9
		c0.9-0.1,1.7,0.1,2.6,0c0.9-0.1,2.9-0.1,3.6-0.1c0.7,0,1.6-0.5,2.9-1.5l-1.9,0.2c0,0-1.9-0.1-3.8-0.4c-1.9-0.2-2.6,0.5-3.5,0.4
		c-0.9-0.1-2.2-0.1-3.8-0.2c-1.6-0.1-1.4-0.8-1.4-0.8s0.2-0.8,1.4-1.9c1.2-1.1-0.3-1.1-0.3-1.1l-1.2-0.7c0,0-1.9,0.7-3.3,0.2
		c-1.4-0.5,0,0-1.6,0c-1.6,0-0.9,0.7-2.8,2c-1.9,1.3-1.6,0.8-2.1,1.4c-0.5,0.6-1.4,0.5-2.9,0.5c-1.6,0-0.5-0.7-0.5-1.2
		c0-0.5-1.6-2.1-1.7-2.6c-0.2-0.5-1,0.2-1.2,1.3c-0.2,1.1-0.2,1.9,0.9,3.7C25.2,191.5,25.4,192.6,26,194.7z"/>
	<path class="st0" d="M667.7,217.8c0.9,1.1-0.1,1.2,2.5,2c2.6,0.8,3.4,1.9,4.5,0c1-1.9,1.6-1.2,1.6-4.2c0-3,0.9-3.1,0-5.2
		c-0.9-2.1-0.3-1.9-1.4-2.8c-1-0.9,1.4-0.8-1-0.9c-2.4-0.1-4.8,0.9-4.8,0.9c-0.5,0.9-2.8,0.7-3.3,1.2c-0.5,0.5,0,1.8,0,3
		c0,1.3-1.2,3.1,0.7,2.8c1.9-0.4,1.2-1.3,2.6-0.5c1.4,0.8,1.4,1.6,1,2.3C669.6,217.1,666.8,216.7,667.7,217.8z"/>
	
		<radialGradient id="SVGID_00000108303920094412568150000000385966993787195820_" cx="-84.7223" cy="872.0533" r="1" gradientTransform="matrix(-54.0074 721.9999 1877.4348 140.4368 -1640902.625 -61298.9258)" gradientUnits="userSpaceOnUse">
		<stop  offset="0" style="stop-color:#FFFFFF"/>
		<stop  offset="1.000000e-04" style="stop-color:#DFE7EA"/>
		<stop  offset="1" style="stop-color:#E0E3E5;stop-opacity:0"/>
	</radialGradient>
	<path style="fill:url(#SVGID_00000108303920094412568150000000385966993787195820_);" d="M667.7,217.8c0.9,1.1-0.1,1.2,2.5,2
		c2.6,0.8,3.4,1.9,4.5,0c1-1.9,1.6-1.2,1.6-4.2c0-3,0.9-3.1,0-5.2c-0.9-2.1-0.3-1.9-1.4-2.8c-1-0.9,1.4-0.8-1-0.9
		c-2.4-0.1-4.8,0.9-4.8,0.9c-0.5,0.9-2.8,0.7-3.3,1.2c-0.5,0.5,0,1.8,0,3c0,1.3-1.2,3.1,0.7,2.8c1.9-0.4,1.2-1.3,2.6-0.5
		c1.4,0.8,1.4,1.6,1,2.3C669.6,217.1,666.8,216.7,667.7,217.8z"/>
	<path class="st0" d="M647.3,171.1c1.6-0.2,2.4-0.1,4.7,0c2.2,0.1-0.5,1.2-1.4,2c-0.9,0.8,1.7,2.2,1.7,2.2s2.6-0.8,4-0.8
		c1.4,0-1.7,1.5-1.7,1.5s-1.6,1.4-2.1,2c-0.5,0.6-0.7,0.9-0.5,2c0.2,1.1,2.8,1.2,2.9,2.1c0.2,0.9-1.9,0.5-2.4,0.1
		c-0.5-0.4-1.9,0.1-3.1,0.8c-1.2,0.7-0.7,0.8-1.9,0.9c-1.2,0.1-1.2-0.4-1.7-0.8c-0.5-0.5-1.2,0.7-1.2,1.4s0.5,1.5,1.2,3
		c0.7,1.5,2.2,1.4,2.2,1.4s1-0.9,1.7-0.8c0.7,0.1-0.2,0.8,0,1.5c0.2,0.7,0,1.5,0,2.8c0,1.3,1.9,0.9,2.6,0.4c0.7-0.6,2.4-0.4,2.9,0
		c0.5,0.4,1.6,2.8,2.4,3c0.9,0.2,1.4-0.6,1.9-1.5c0.5-0.9,2.2-0.2,3.3,0c1,0.2-1,0.8-1,2.3s1.4,1.4,2.4,2.1c1,0.7,3.8,0,3.8,0
		c0.9-0.2,1.2-2.6,1.4-3.7c0.2-1.2-1.9-2.2-1.9-3.3c0-1.1-0.2-2.4-0.5-3.5c-0.3-1.1,0-1.2,0.2-2.2c0.2-1.1,1.6-0.2,3.7-0.5
		c2.2-0.2,0.4-1.3,0-3.1c-0.4-1.9,1.1-4.1,1.5-5c0.3-0.9,1.2-1.3,2.9-2.3c1.7-1.1,2.4-1.5,3.1-2.4c0.7-0.9,1.4-1.4,1.2-1.9
		c-0.2-0.5,1-0.9,1-0.9s2.2-0.1,3.5-0.2c1.2-0.1,1.7-1.9,1.7-1.9s0.9-1.1,1.4-1.9c0.5-0.8,1.2-0.2,2.2,0.1c1,0.4,1.2,0.1,2.2-0.1
		c1-0.2,0.2-1.1,0.9-2c0.7-0.9,0,0,1.4-1.3c1.4-1.3-0.5-1.3-1.2-3.6c-0.7-2.3-2.1-1.4-3.8-2c-1.7-0.6-4.5-2.8-5.4-3.5
		c-0.9-0.7-1-0.1-3.3,0c-2.2,0.1-0.7,1.3-1.9,2.5c-1.2,1.3-1.9-0.8-2.6,0c-0.7,0.8-0.9,0.5-1.6,0.8c-0.7,0.4-2.1,0.1-2.4-0.2
		c-0.3-0.4-1.7-1.2-3.8,0c-2.1,1.2,0.5,2.2,0,3.4s-6.4,3.6-8.1,4.3c-1.7,0.7-4.1-1.1-5-2.7c-0.9-1.6-1-0.1-2.8,1.1
		c-1.7,1.2-2.4,1.6-4,3.3c-1.6,1.6-2.9,2-3.6,3.8C643.9,171.7,645.8,171.3,647.3,171.1z"/>
	
		<radialGradient id="SVGID_00000070095981044051244070000005982042200638974377_" cx="-84.7223" cy="872.0533" r="1" gradientTransform="matrix(-54.0074 721.9999 1877.4348 140.4368 -1640902.625 -61298.9258)" gradientUnits="userSpaceOnUse">
		<stop  offset="0" style="stop-color:#FFFFFF"/>
		<stop  offset="1.000000e-04" style="stop-color:#DFE7EA"/>
		<stop  offset="1" style="stop-color:#E0E3E5;stop-opacity:0"/>
	</radialGradient>
	<path style="fill:url(#SVGID_00000070095981044051244070000005982042200638974377_);" d="M647.3,171.1c1.6-0.2,2.4-0.1,4.7,0
		c2.2,0.1-0.5,1.2-1.4,2c-0.9,0.8,1.7,2.2,1.7,2.2s2.6-0.8,4-0.8c1.4,0-1.7,1.5-1.7,1.5s-1.6,1.4-2.1,2c-0.5,0.6-0.7,0.9-0.5,2
		c0.2,1.1,2.8,1.2,2.9,2.1c0.2,0.9-1.9,0.5-2.4,0.1c-0.5-0.4-1.9,0.1-3.1,0.8c-1.2,0.7-0.7,0.8-1.9,0.9c-1.2,0.1-1.2-0.4-1.7-0.8
		c-0.5-0.5-1.2,0.7-1.2,1.4s0.5,1.5,1.2,3c0.7,1.5,2.2,1.4,2.2,1.4s1-0.9,1.7-0.8c0.7,0.1-0.2,0.8,0,1.5c0.2,0.7,0,1.5,0,2.8
		c0,1.3,1.9,0.9,2.6,0.4c0.7-0.6,2.4-0.4,2.9,0c0.5,0.4,1.6,2.8,2.4,3c0.9,0.2,1.4-0.6,1.9-1.5c0.5-0.9,2.2-0.2,3.3,0
		c1,0.2-1,0.8-1,2.3s1.4,1.4,2.4,2.1c1,0.7,3.8,0,3.8,0c0.9-0.2,1.2-2.6,1.4-3.7c0.2-1.2-1.9-2.2-1.9-3.3c0-1.1-0.2-2.4-0.5-3.5
		c-0.3-1.1,0-1.2,0.2-2.2c0.2-1.1,1.6-0.2,3.7-0.5c2.2-0.2,0.4-1.3,0-3.1c-0.4-1.9,1.1-4.1,1.5-5c0.3-0.9,1.2-1.3,2.9-2.3
		c1.7-1.1,2.4-1.5,3.1-2.4c0.7-0.9,1.4-1.4,1.2-1.9c-0.2-0.5,1-0.9,1-0.9s2.2-0.1,3.5-0.2c1.2-0.1,1.7-1.9,1.7-1.9s0.9-1.1,1.4-1.9
		c0.5-0.8,1.2-0.2,2.2,0.1c1,0.4,1.2,0.1,2.2-0.1c1-0.2,0.2-1.1,0.9-2c0.7-0.9,0,0,1.4-1.3c1.4-1.3-0.5-1.3-1.2-3.6
		c-0.7-2.3-2.1-1.4-3.8-2c-1.7-0.6-4.5-2.8-5.4-3.5c-0.9-0.7-1-0.1-3.3,0c-2.2,0.1-0.7,1.3-1.9,2.5c-1.2,1.3-1.9-0.8-2.6,0
		c-0.7,0.8-0.9,0.5-1.6,0.8c-0.7,0.4-2.1,0.1-2.4-0.2c-0.3-0.4-1.7-1.2-3.8,0c-2.1,1.2,0.5,2.2,0,3.4s-6.4,3.6-8.1,4.3
		c-1.7,0.7-4.1-1.1-5-2.7c-0.9-1.6-1-0.1-2.8,1.1c-1.7,1.2-2.4,1.6-4,3.3c-1.6,1.6-2.9,2-3.6,3.8
		C643.9,171.7,645.8,171.3,647.3,171.1z"/>
	<path class="st0" d="M691.3,150.9c1.7-0.2,2.2,0.1,3.1,0.2c0.9,0.1,2.8,0.2,1.4,0.7c-1.4,0.5-2.2,0.6-3.1,0.5
		c-0.9-0.1-4.7-0.1-4.7-0.1c0,1.5,0.2,2.8,1.7,3.3c1.6,0.5,1,0.5,2.8,1.6s1.6,2,2.8,2.2c1.2,0.2,1.7-1.1,1.7,0v1.1
		c0,0-2.6,1.1,0,1.4c2.6,0.4,3.8,0.7,4.5,0c0.7-0.7,2.6-0.9,2.8-1.8c0.2-0.8-0.3-1.5,1.7-1.1c2.1,0.5,3.6,0.4,3.8-0.6
		c0.2-0.9,3.8-2.8,4.8-2.8c1,0-0.3,1.6,1,1.6c1.4,0,3.5-1.7,5-2c1.6-0.2,2.6,0.2,3.1-0.2c0.5-0.5-0.3-1.6,0-2.4
		c0.3-0.8,2.6,0.7,3.3,0.6c0.7-0.1,1.4-2.2,2.6-1.9c1.2,0.4,0.3,1.5,1.2,1.9c0.9,0.3,3.1,1.7,5.5,1c2.4-0.7,2.6-1.2,2.8-2.1
		c0.2-0.9,0.3-0.4,1.6-0.9c1.2-0.4,1.2-1,1.7-1.4c0.5-0.4,1-0.8,1.6,0c0.5,0.8-0.5,1.6,3.8,1.3c4.3-0.4,10.4-0.1,13-0.2
		c2.6-0.1,6.9-2.2,8.6-1.5c1.7,0.7,6,1.2,7.9,1.2s11.6-0.5,11.6-0.5s11.2,0.3,13.1-0.8s5.4-2.1,6.4-3.7c1-1.6,1.7-2.9,1.2-4.2
		c-0.5-1.3-2.8-3.5-3.6-3.5c-0.9,0-2.1,0.8-3.6,0c-1.6-0.8-3.8-1.9-5.4-2c-1.6-0.1-4.5-0.6-4.5-0.6s-1.2,0.8-2.8,1.8
		c-1.6,0.9-1.2,1.3-3.1,1.5c-1.9,0.2-2.9,0.4-4.8,0.6s-5.4-0.2-5.4-0.2l-4.5-2.4c0,0-1.4,0.8-2.4,0.7c-1-0.1-3.5-4.1-4.1-4.2
		c-0.7-0.1-2.9-0.1-4.3,0.7c-1.4,0.8-2.8,2-3.5,2c-0.7,0-1-2.4-2.9-2.7c-1.9-0.3-4.1-0.4-5.2,0c-1,0.4-4.5,1.5-6,1.3
		c-1.6-0.1-2.4-0.4-3.1-0.1c-0.7,0.2-1.7,2-1.7,2s-2.1,0.5-4,0.6c-1.9,0.1-2.2,1.8-3.6,1.9c-1.4,0.1-5.9-2.8-7.6-2.6
		s-3.3-1.5-4.3-1.3c-1,0.2-1.7,0.7-2.1,1.5c-0.3,0.8-0.3,3-0.3,3s-1.6,0.6-2.6,0.8c-1,0.2-0.9,2-0.9,2s1.2,1.9,0.5,1.8
		c-0.7-0.1-1.9-2.4-2.8-2.6c-0.9-0.1-1.9,0.4-1.9,0.8c0,0.5,1,2.7,1.2,3.3c0.2,0.6-0.5,0.5-1.6-0.2c-1-0.7-2.2-1.9-2.8-1.4
		c-0.5,0.5-2.1,0.8-1.7,1.9c0.3,1.1,1,2,1.2,2.8c0.2,0.8,1.2,1.9,0.7,2.1c-0.5,0.2-2.6-2.6-3.1-3c-0.5-0.5-2.4-0.9-3.8-0.6
		c-1.4,0.4-2.3,0.7-4.9,0.6c-2.6-0.1-3.8-1-4.6-0.7c-0.9,0.4-1.6,1.2-1.7,1.9c-0.2,0.7-1.2,1.3,0,1.5
		C689.2,150.4,689.6,151.2,691.3,150.9z"/>
	
		<radialGradient id="SVGID_00000149356296688454401290000013402373818194485168_" cx="-84.7223" cy="872.0533" r="1" gradientTransform="matrix(-54.0074 721.9999 1877.4348 140.4368 -1640902.625 -61298.9258)" gradientUnits="userSpaceOnUse">
		<stop  offset="0" style="stop-color:#FFFFFF"/>
		<stop  offset="1.000000e-04" style="stop-color:#DFE7EA"/>
		<stop  offset="1" style="stop-color:#E0E3E5;stop-opacity:0"/>
	</radialGradient>
	<path style="fill:url(#SVGID_00000149356296688454401290000013402373818194485168_);" d="M691.3,150.9c1.7-0.2,2.2,0.1,3.1,0.2
		c0.9,0.1,2.8,0.2,1.4,0.7c-1.4,0.5-2.2,0.6-3.1,0.5c-0.9-0.1-4.7-0.1-4.7-0.1c0,1.5,0.2,2.8,1.7,3.3c1.6,0.5,1,0.5,2.8,1.6
		s1.6,2,2.8,2.2c1.2,0.2,1.7-1.1,1.7,0v1.1c0,0-2.6,1.1,0,1.4c2.6,0.4,3.8,0.7,4.5,0c0.7-0.7,2.6-0.9,2.8-1.8
		c0.2-0.8-0.3-1.5,1.7-1.1c2.1,0.5,3.6,0.4,3.8-0.6c0.2-0.9,3.8-2.8,4.8-2.8c1,0-0.3,1.6,1,1.6c1.4,0,3.5-1.7,5-2
		c1.6-0.2,2.6,0.2,3.1-0.2c0.5-0.5-0.3-1.6,0-2.4c0.3-0.8,2.6,0.7,3.3,0.6c0.7-0.1,1.4-2.2,2.6-1.9c1.2,0.4,0.3,1.5,1.2,1.9
		c0.9,0.3,3.1,1.7,5.5,1c2.4-0.7,2.6-1.2,2.8-2.1c0.2-0.9,0.3-0.4,1.6-0.9c1.2-0.4,1.2-1,1.7-1.4c0.5-0.4,1-0.8,1.6,0
		c0.5,0.8-0.5,1.6,3.8,1.3c4.3-0.4,10.4-0.1,13-0.2c2.6-0.1,6.9-2.2,8.6-1.5c1.7,0.7,6,1.2,7.9,1.2s11.6-0.5,11.6-0.5
		s11.2,0.3,13.1-0.8s5.4-2.1,6.4-3.7c1-1.6,1.7-2.9,1.2-4.2c-0.5-1.3-2.8-3.5-3.6-3.5c-0.9,0-2.1,0.8-3.6,0c-1.6-0.8-3.8-1.9-5.4-2
		c-1.6-0.1-4.5-0.6-4.5-0.6s-1.2,0.8-2.8,1.8c-1.6,0.9-1.2,1.3-3.1,1.5c-1.9,0.2-2.9,0.4-4.8,0.6s-5.4-0.2-5.4-0.2l-4.5-2.4
		c0,0-1.4,0.8-2.4,0.7c-1-0.1-3.5-4.1-4.1-4.2c-0.7-0.1-2.9-0.1-4.3,0.7c-1.4,0.8-2.8,2-3.5,2c-0.7,0-1-2.4-2.9-2.7
		c-1.9-0.3-4.1-0.4-5.2,0c-1,0.4-4.5,1.5-6,1.3c-1.6-0.1-2.4-0.4-3.1-0.1c-0.7,0.2-1.7,2-1.7,2s-2.1,0.5-4,0.6
		c-1.9,0.1-2.2,1.8-3.6,1.9c-1.4,0.1-5.9-2.8-7.6-2.6s-3.3-1.5-4.3-1.3c-1,0.2-1.7,0.7-2.1,1.5c-0.3,0.8-0.3,3-0.3,3
		s-1.6,0.6-2.6,0.8c-1,0.2-0.9,2-0.9,2s1.2,1.9,0.5,1.8c-0.7-0.1-1.9-2.4-2.8-2.6c-0.9-0.1-1.9,0.4-1.9,0.8c0,0.5,1,2.7,1.2,3.3
		c0.2,0.6-0.5,0.5-1.6-0.2c-1-0.7-2.2-1.9-2.8-1.4c-0.5,0.5-2.1,0.8-1.7,1.9c0.3,1.1,1,2,1.2,2.8c0.2,0.8,1.2,1.9,0.7,2.1
		c-0.5,0.2-2.6-2.6-3.1-3c-0.5-0.5-2.4-0.9-3.8-0.6c-1.4,0.4-2.3,0.7-4.9,0.6c-2.6-0.1-3.8-1-4.6-0.7c-0.9,0.4-1.6,1.2-1.7,1.9
		c-0.2,0.7-1.2,1.3,0,1.5C689.2,150.4,689.6,151.2,691.3,150.9z"/>
	<path class="st0" d="M644.4,180.3c0.9,1.2,1.5,0.6,3.4,0c1.9-0.6,0.7-2.1,0.7-4.2c0-2.1,0.2-1.2-0.7-2.2h-2.4c0,0-0.7,0.7-1,1.3
		c-0.3,0.6,0,1.2,0,2.3C644.4,178.5,643.5,179.1,644.4,180.3z"/>
	
		<radialGradient id="SVGID_00000152983311483861550400000016877704343165969589_" cx="-84.7223" cy="872.0533" r="1" gradientTransform="matrix(-54.0074 721.9999 1877.4348 140.4368 -1640902.625 -61298.9258)" gradientUnits="userSpaceOnUse">
		<stop  offset="0" style="stop-color:#FFFFFF"/>
		<stop  offset="1.000000e-04" style="stop-color:#DFE7EA"/>
		<stop  offset="1" style="stop-color:#E0E3E5;stop-opacity:0"/>
	</radialGradient>
	<path style="fill:url(#SVGID_00000152983311483861550400000016877704343165969589_);" d="M644.4,180.3c0.9,1.2,1.5,0.6,3.4,0
		c1.9-0.6,0.7-2.1,0.7-4.2c0-2.1,0.2-1.2-0.7-2.2h-2.4c0,0-0.7,0.7-1,1.3c-0.3,0.6,0,1.2,0,2.3C644.4,178.5,643.5,179.1,644.4,180.3
		z"/>
	<path class="st0" d="M582.8,192.4c0.7,0.9,5,0.6,5.5,0.4c0.5-0.2,3.5-0.2,4.8,0.6c1.4,0.8,2.2,0.9,4.8,1.1c2.6,0.1,0.3-2.1,0-3
		s-0.7-2.3-0.9-2.8c-0.2-0.5-1.4-2.8-2.1-3.8c0,0-2.1-2.1-3.6-2.1c-1.6,0-2.2,0.4-5.2,0.9c-2.9,0.6-2.1,1.2-3.3,2.4
		c-1.2,1.3-2.2,1.1-2.8,3.5C579.6,192,582,191.4,582.8,192.4z"/>
	
		<radialGradient id="SVGID_00000178188292504180724660000017302340684335785377_" cx="-84.7223" cy="872.0533" r="1" gradientTransform="matrix(-54.0074 721.9999 1877.4348 140.4368 -1640902.625 -61298.9258)" gradientUnits="userSpaceOnUse">
		<stop  offset="0" style="stop-color:#FFFFFF"/>
		<stop  offset="1.000000e-04" style="stop-color:#DFE7EA"/>
		<stop  offset="1" style="stop-color:#E0E3E5;stop-opacity:0"/>
	</radialGradient>
	<path style="fill:url(#SVGID_00000178188292504180724660000017302340684335785377_);" d="M582.8,192.4c0.7,0.9,5,0.6,5.5,0.4
		c0.5-0.2,3.5-0.2,4.8,0.6c1.4,0.8,2.2,0.9,4.8,1.1c2.6,0.1,0.3-2.1,0-3s-0.7-2.3-0.9-2.8c-0.2-0.5-1.4-2.8-2.1-3.8
		c0,0-2.1-2.1-3.6-2.1c-1.6,0-2.2,0.4-5.2,0.9c-2.9,0.6-2.1,1.2-3.3,2.4c-1.2,1.3-2.2,1.1-2.8,3.5C579.6,192,582,191.4,582.8,192.4z
		"/>
</g>
</svg>
