<svg width="809" height="844" viewBox="0 0 809 844" fill="none" xmlns="http://www.w3.org/2000/svg">
<g opacity="0.4">
<path d="M6.85891 421.824L6.85891 421.867L12.9072 549.911L12.9072 549.955L12.951 549.955L12.9949 549.999L12.9291 550.064L13.1263 550.305L13.0387 550.371L163.654 757.678L163.829 757.568L164.07 757.787L164.026 757.941L165.253 758.335L284.247 803.303L284.225 803.325L407.228 836.963L407.71 837.116L407.71 837.094L407.929 837.16L408.127 837.072L408.149 837.116L651.898 757.941L651.854 757.788L651.876 757.766L652.096 757.568L652.271 757.678L654.024 755.267L732.016 657.947L732.257 657.794L732.235 657.684L732.542 657.312L732.63 657.312L732.63 657.29L802.185 551.379L802.886 550.393L802.842 550.349L802.996 550.108L802.93 550.021L802.974 549.977L803.017 549.977L803.017 549.933L803.017 549.823L803.018 293.89L803.018 293.78L803.018 293.736L802.974 293.736L802.93 293.692L803.018 293.605L802.864 293.364L802.908 293.32L802.207 292.356L732.63 186.423L732.63 186.379L732.542 186.379L732.235 186.007L732.257 185.897L732.016 185.744L654.024 88.4017L652.293 86.0131L652.118 86.1226L651.898 85.9254L651.876 85.9035L651.92 85.7501L408.214 6.5747L408.193 6.61851L407.995 6.53083L407.776 6.59657L407.776 6.5747L407.294 6.72805L284.291 40.3661L284.312 40.388L165.341 85.3556L164.092 85.7501L164.136 85.9034L163.895 86.1226L163.72 86.013L13.1044 293.32L13.1921 293.385L12.9949 293.626L13.0606 293.692L13.0168 293.736L12.9729 293.736L12.9729 293.78L6.92465 421.824L6.85891 421.824ZM216.971 96.9262L305.788 113.449L177.503 189.119L136.59 191.595L146.692 154.209L216.971 96.9262ZM657.925 139.79L669.671 229.353L558.041 130.718L543.051 92.6091L581.73 90.6588L657.925 139.79ZM753.404 572.504L671.84 611.336L731.271 474.439L762.849 448.449L776.655 484.651L753.404 572.504ZM581.73 753.01L543.051 751.06L558.041 712.951L669.671 614.316L657.925 703.857L581.73 753.01ZM146.692 689.438L136.59 652.052L177.525 654.529L305.788 730.198L216.971 746.721L146.692 689.438ZM409.266 423.774L532.116 513.008L467.273 602.264L409.266 423.774ZM410.23 422.459L597.902 422.481L533.059 511.737L410.23 422.459ZM254.641 533.958L406.461 423.642L359.543 568.056L254.641 533.958ZM408.105 424.234L466.067 602.658L361.187 568.582L408.105 424.234ZM410.23 421.188L533.059 331.932L597.902 421.188L410.23 421.188ZM409.266 419.873L467.273 241.383L532.116 330.639L409.266 419.873ZM408.105 419.413L361.187 275.065L466.067 240.989L408.105 419.413ZM406.461 420.005L254.641 309.689L359.565 275.591L406.461 420.005ZM405.782 420.947L253.94 420.969L253.94 310.654L405.782 420.947ZM405.782 422.7L253.94 532.993L253.94 422.678L405.782 422.7ZM329.433 663.404L329.302 663.163L329.433 663.075L329.609 663.207L329.696 663.207L329.74 663.338L329.609 663.557L329.565 663.535L329.433 663.404ZM613.22 571.277L613.176 571.102L613.308 570.861L613.461 570.861L613.527 570.992L613.352 571.233L613.22 571.277ZM329.631 180.068L329.762 180.287L329.718 180.419L329.631 180.419L329.455 180.55L329.324 180.462L329.455 180.221L329.609 180.09L329.631 180.068ZM154.231 421.67L154.187 421.824L154.231 421.977L154.143 422.065L153.88 421.845L154.143 421.626L154.231 421.67ZM254.224 535.185L359.171 569.283L329.368 661.059L264.305 571.518L254.224 535.185ZM327.899 661.936L288.695 659.569L265.576 576.164L327.899 661.936ZM328.513 663.667L307.651 727.963L289.177 661.278L328.513 663.667ZM468.281 603.075L533.168 513.775L611.27 570.51L505.951 604.74L468.281 603.075ZM611.642 572.154L597.289 608.706L510.794 604.915L611.642 572.154ZM613.878 569.152L613.878 462.956L644.25 544.17L613.878 569.152ZM612.19 569.217L534.089 512.46L598.976 423.138L612.168 458.42L612.168 569.217L612.19 569.217ZM613.527 272.677L613.439 272.808L613.286 272.808L613.154 272.567L613.198 272.392L613.33 272.458L613.527 272.677ZM611.642 271.493L510.794 238.732L597.289 234.941L611.642 271.493ZM611.248 273.137L533.146 329.872L468.259 240.573L505.929 238.929L611.248 273.137ZM327.899 181.712L265.576 267.483L288.695 184.078L327.899 181.712ZM329.346 182.588L359.149 274.364L254.203 308.462L264.261 272.129L329.346 182.588ZM154.866 423.774L217.431 509.896L144.939 461.948L154.866 423.774ZM156.159 422.678L252.669 422.678L252.669 533.191L221.485 512.548L156.159 422.678ZM252.471 534.243L242.479 541.496L223.107 514.827L252.471 534.243ZM252.866 535.075L262.135 568.538L243.026 542.241L252.866 535.075ZM330.157 663.974L363.575 685.296L309.119 728.62L330.157 663.974ZM331.34 663.228L432.67 630.314L364.605 684.485L331.34 663.228ZM330.967 661.585L360.792 569.809L465.826 603.929L436.462 627.289L330.967 661.585ZM466.725 604.63L470.494 616.245L439.486 626.325L466.725 604.63ZM467.93 604.345L502.445 605.88L471.677 615.872L467.93 604.345ZM613.505 571.891L668.531 611.84L598.998 608.794L613.505 571.891ZM614.14 570.861L644.798 545.616L669.232 610.92L614.14 570.861ZM612.19 454.848L600.072 422.459L612.19 422.459L612.19 454.848ZM600.072 421.188L612.19 388.799L612.19 421.188L600.072 421.188ZM598.998 420.509L534.11 331.187L612.212 274.43L612.212 385.227L598.998 420.509ZM613.878 274.496L644.25 299.478L613.878 380.669L613.878 274.496V274.496ZM502.445 237.79L467.93 239.324L471.677 227.797L502.445 237.79ZM466.703 239.017L439.464 217.322L470.472 227.402L466.703 239.017ZM465.826 239.718L360.792 273.86L330.967 182.084L436.483 216.358L465.826 239.718ZM331.34 180.419L364.605 159.184L432.67 213.355L331.34 180.419ZM330.157 179.674L309.119 115.027L363.575 158.373L330.157 179.674ZM328.513 179.98L289.177 182.369L307.651 115.685L328.513 179.98ZM262.135 275.109L252.866 308.572L243.026 301.406L262.135 275.109ZM252.471 309.405L223.107 328.82L242.479 302.151L252.471 309.405ZM252.647 310.456L252.647 420.969L156.137 420.969L221.441 331.078L252.647 310.456ZM154.866 419.873L144.961 381.699L217.453 333.751L154.866 419.873ZM153.398 422.678L143.471 460.962L85.5522 422.634L153.398 422.678ZM614.14 272.786L669.232 232.727L644.798 298.031L614.14 272.786ZM613.505 271.756L598.998 234.853L668.531 231.807L613.505 271.756ZM153.398 420.969L85.5522 420.991L143.471 382.685L153.398 420.969ZM129.599 624.682L241.646 543.227L263.406 573.184L287.293 659.503L177.416 652.907L129.599 624.682ZM287.797 661.212L306.577 729.102L180.506 654.726L287.797 661.212ZM515.023 749.131L472.203 617.472L507.288 606.077L596.785 610.021L556.55 712.447L515.023 749.131ZM598.472 610.109L668.86 613.221L559.114 710.168L598.472 610.109ZM645.85 544.761L728.992 476.324L670.613 610.854L645.85 544.761ZM645.302 543.315L613.878 459.384L613.878 422.481L752.33 422.525L730.219 473.453L645.302 543.315ZM598.472 233.538L559.136 133.479L668.882 230.426L598.472 233.538ZM596.763 233.626L507.266 237.57L472.181 226.175L515.001 94.5157L556.529 131.2L596.763 233.626ZM287.797 182.435L180.528 188.921L306.599 114.545L287.797 182.435ZM287.315 184.144L263.428 270.463L241.668 300.42L129.621 218.965L177.46 190.74L287.315 184.144ZM143.208 461.992L116.188 566.193L84.3469 423.095L143.208 461.992ZM144.676 462.978L219.074 512.175L241.098 542.504L129.008 623.915L116.955 569.721L144.676 462.978ZM364.584 685.931L455.571 743.982L309.251 730.001L364.584 685.931ZM365.614 685.121L435.673 629.328L470.998 617.845L513.752 749.526L458.2 744.223L365.614 685.121ZM732.52 471.568L753.36 423.555L762.323 447.047L732.52 471.568ZM753.36 420.092L732.52 372.079L762.323 396.601L753.36 420.092ZM752.352 421.144L613.899 421.188L613.899 384.285L645.324 300.354L730.241 370.216L752.352 421.144ZM645.85 298.886L670.591 232.793L728.97 367.323L645.85 298.886ZM555.433 128.417L516.404 93.924L541.408 92.6749L555.433 128.417ZM513.248 92.7845L460.72 97.8028L493.526 76.8529L513.248 92.7845ZM513.752 94.0993L470.998 225.781L435.673 214.298L365.614 158.505L458.2 99.3806L513.752 94.0993ZM364.584 157.716L309.251 113.647L455.571 99.6655L364.584 157.716ZM174.436 190.937L129.621 217.366L136.152 193.238L174.436 190.937ZM127.561 220.105L116.232 271.077L106.546 233.823L127.561 220.105ZM129.03 219.754L241.12 301.165L219.096 331.494L144.698 380.691L116.977 273.97L129.03 219.754ZM143.208 381.655L84.3688 420.574L116.21 277.476L143.208 381.655ZM116.21 572.57L127.539 623.542L106.524 609.846L116.21 572.57ZM129.621 626.281L174.435 652.71L136.152 650.409L129.621 626.281ZM460.72 745.844L513.248 750.863L493.526 766.772L460.72 745.844ZM516.426 749.723L555.455 715.23L541.43 750.972L516.426 749.723ZM754.062 421.824L763.375 397.455L792.981 421.824L763.353 446.192L754.062 421.824ZM127.89 218.571L106.239 232.684L96.6188 195.627L134.705 193.348L127.89 218.571ZM127.89 625.076L134.683 650.321L96.5969 648.042L106.217 610.985L127.89 625.076ZM540.882 91.3162L514.717 92.653L514.695 92.6749L494.424 76.3051L526.857 55.5964L540.882 91.3162ZM494.402 767.342L514.673 750.972L514.695 750.994L540.86 752.331L526.835 788.051L494.402 767.342ZM39.9491 502.949L83.0978 423.599L115.443 569.064L105.121 608.904L72.8639 587.866L39.9491 502.949ZM371.333 796.904L309.185 731.337L458.069 745.581L492.518 767.561L462.408 791.842L371.333 796.904ZM763.901 447.573L792.74 423.84L777.225 482.46L763.901 447.573ZM763.901 396.075L777.225 361.187L792.718 419.786L763.901 396.075ZM755.267 272.041L801.44 294.021L777.619 356.476L755.267 272.041ZM776.655 358.996L762.849 395.198L731.271 369.208L671.84 232.311L753.404 271.143L776.655 358.996ZM542.504 91.2286L528.873 56.5825L579.67 89.344L542.504 91.2286ZM493.416 75.5162L464.161 51.8929L525.104 55.2896L493.416 75.5162ZM462.408 51.8052L492.518 76.086L458.069 98.0658L309.185 112.31L371.333 46.7431L462.408 51.8052ZM135.144 191.682L97.9556 193.94L144.83 155.743L135.144 191.682ZM104.815 233.604L73.5652 253.962L95.4574 197.49L104.815 233.604ZM72.864 255.781L105.121 234.744L115.443 274.583L83.0978 420.049L39.9491 340.698L72.864 255.781ZM104.815 610.043L95.4574 646.157L73.5652 589.685L104.815 610.043ZM135.144 651.965L144.83 687.904L97.9775 649.708L135.144 651.965ZM147.372 691.958L214.998 747.072L164.771 756.407L147.372 691.958ZM218.395 747.86L306.555 731.403L285.627 795.896L271.843 791.426L218.395 747.86ZM287.074 796.378L308.089 731.754L369.843 796.992L300.792 800.827L287.074 796.378ZM493.416 768.131L525.104 788.358L464.161 791.754L493.416 768.131ZM542.503 752.419L579.67 754.303L528.873 787.065L542.503 752.419ZM584.403 753.142L657.662 705.895L651.022 756.495L584.403 753.142ZM659.502 702.849L671.117 613.725L726.077 653.63L717.465 665.486L659.502 702.849ZM726.713 652.71L671.709 612.717L752.988 574.082L735.325 640.854L726.713 652.71ZM777.619 487.171L801.44 549.626L755.267 571.606L777.619 487.171ZM752.988 269.543L671.709 230.909L726.713 190.916L735.325 202.771L752.988 269.543ZM726.055 190.017L671.095 229.922L659.481 140.798L717.421 178.162L726.055 190.017ZM460.282 50.0959L372.757 45.231L408.039 8.02104L408.149 8.06484L460.282 50.0959ZM369.843 46.6554L308.111 111.894L287.096 47.269L300.814 42.8204L369.843 46.6554ZM285.605 47.7292L306.533 112.222L218.373 95.7647L271.8 52.1996L285.605 47.7292ZM215.02 96.5755L147.394 151.689L164.815 87.2402L215.02 96.5755ZM70.563 257.293L38.963 338.857L14.485 293.868L70.563 257.293ZM14.3755 422.612L82.2432 422.634L39.3355 501.415L14.3755 437.01L14.3755 422.612V422.612ZM38.9411 504.79L70.5411 586.354L14.4631 549.78L38.9411 504.79ZM408.039 835.648L372.757 798.416L460.282 793.551L408.149 835.604L408.039 835.648ZM657.662 137.774L584.403 90.5274L651.044 87.1745L657.662 137.774ZM39.3575 342.232L82.2651 421.013L14.3973 421.035L14.3973 406.637L39.3575 342.232ZM38.3493 503.256L14.3755 547.259L14.3755 441.393L38.3493 503.256ZM145.509 690.446L162.405 753.142L98.5472 652.184L145.509 690.446ZM216.423 748.233L267.833 790.133L167.182 757.437L216.423 748.233ZM285.167 797.298L283.874 801.265L274.955 793.989L285.167 797.298ZM286.635 797.781L296.76 801.068L285.364 801.703L286.635 797.781ZM371.267 798.504L405.76 834.947L304.955 802.185L371.267 798.504ZM582.365 754.457L646.88 757.744L531.722 787.109L582.365 754.457ZM659.24 704.865L714.923 668.948L652.775 754.479L659.24 704.865ZM727.239 654.485L730.657 656.961L720.84 663.294L727.239 654.485ZM754.85 573.206L800.125 551.686L737.889 637.348L754.85 573.206ZM778.189 484.98L793.594 426.776L801.242 545.309L778.189 484.98ZM794.668 421.977L794.603 421.977L794.515 421.824L794.603 421.67L794.668 421.67L794.822 421.824L794.668 421.977ZM778.189 358.667L801.242 298.338L793.594 416.871L778.189 358.667ZM727.896 190.083L731.315 187.606L734.295 198.892L727.896 190.083ZM727.239 189.162L720.818 180.331L730.657 186.664L727.239 189.162ZM659.24 138.782L652.775 89.1468L714.923 174.699L659.24 138.782ZM582.365 89.1906L531.722 56.5387L646.88 85.9035L582.365 89.1906ZM462.057 50.1836L411.436 9.31396L522.649 53.5365L462.057 50.1836ZM286.613 45.8665L285.342 41.9439L296.76 42.5794L286.613 45.8665ZM285.167 46.3486L274.955 49.6577L283.874 42.3822L285.167 46.3486ZM216.423 95.4141L167.182 86.2102L267.833 53.5145L216.423 95.4141ZM145.509 153.201L98.5472 191.463L162.405 90.5054L145.509 153.201ZM71.2643 255.474L16.6764 291.041L93.2221 198.826L71.2643 255.474ZM12.9291 421.035L8.80929 421.035L12.9291 410.406L12.9291 421.035ZM12.9291 422.612L12.9291 433.241L8.80929 422.612L12.9291 422.612ZM71.2643 588.173L93.2221 644.821L16.6983 552.606L71.2643 588.173ZM95.1505 648.919L95.1725 648.941L95.3258 649.16L95.2601 649.225L95.019 649.006L95.1505 648.919ZM462.035 793.464L522.606 790.089L411.392 834.333L462.035 793.464ZM527.317 789.694L527.405 789.519L527.558 789.431L527.58 789.497L527.317 789.782L527.317 789.694ZM727.896 653.564L734.295 644.777L731.315 656.063L727.896 653.564ZM754.85 270.442L737.867 206.299L800.103 291.961L754.85 270.442ZM527.58 54.2158L527.427 54.1281L527.317 53.9528L527.339 53.8652L527.602 54.15L527.58 54.2158ZM371.267 45.1433L304.955 41.4618L405.76 8.70037L371.267 45.1433ZM95.3259 194.487L95.1725 194.707L95.1506 194.728L95.0191 194.663L95.2601 194.444L95.3259 194.487ZM38.3494 340.391L14.3755 402.254L14.3755 296.388L38.3494 340.391ZM270.967 792.675L280.28 800.257L192.712 767.232L270.967 792.675ZM300.901 802.404L378.324 827.562L289.024 803.062L300.901 802.404ZM718.32 666.779L728.641 660.117L668.947 734.734L718.32 666.779ZM736.837 641.271L785.158 574.784L733.769 652.885L736.837 641.271ZM794.887 421.824L801.549 316.833L801.549 526.814L794.887 421.824ZM736.837 202.377L733.769 190.762L785.158 268.864L736.837 202.377ZM718.32 176.891L668.904 108.891L728.641 183.552L718.32 176.891ZM527.339 53.8214L527.295 53.7994L527.273 53.7994L428.792 14.7486L629.919 80.0963L527.339 53.8214ZM300.923 41.2426L289.068 40.5852L378.389 16.0634L300.923 41.2426ZM270.967 50.9725L192.712 76.3927L280.28 43.3683L270.967 50.9725ZM95.2163 194.203L95.0848 194.312L95.1286 194.334L94.9314 194.619L94.8437 194.575L94.7342 194.838L26.735 276.928L152.324 104.07L95.2163 194.203ZM12.9291 437.624L12.9291 518.442L8.67781 426.623L12.9291 437.624ZM94.7561 648.809L94.8656 649.072L94.9533 649.028L95.1286 649.313L95.0848 649.357L95.2163 649.466L152.302 739.533L26.7349 566.719L94.7561 648.809ZM527.273 789.848L527.361 789.848L527.361 789.826L629.94 763.551L428.835 828.899L527.273 789.848ZM12.9291 406.024L8.67781 417.024L12.9291 325.205L12.9291 406.024ZM732.279 186.335L732.148 186.16L732.169 186.073L732.476 186.335L732.279 186.335ZM284.269 40.4538L284.225 40.4318L283.984 40.6729L283.94 40.651L284.269 40.3223L284.312 40.3661L284.269 40.4538ZM283.94 802.996L283.984 802.974L284.225 803.215L284.269 803.193L284.29 803.281L284.247 803.325L283.94 802.996ZM732.169 657.575L732.148 657.487L732.279 657.312L732.476 657.312L732.169 657.575ZM7.09999 421.648L7.12186 421.67L6.99038 421.824L7.12186 421.977L7.09999 421.999L6.92465 421.824L7.09999 421.648Z" fill="white"/>
<path d="M472.554 603.666C472.554 600.379 470.078 597.705 467.054 597.705C464.007 597.705 461.553 600.379 461.553 603.666C461.553 606.953 464.029 609.626 467.054 609.626C470.1 609.605 472.554 606.953 472.554 603.666Z" fill="white"/>
<path d="M472.554 239.981C472.554 236.694 470.078 234.042 467.054 234.042C464.007 234.042 461.553 236.694 461.553 239.981C461.553 243.268 464.029 245.92 467.054 245.92C470.1 245.942 472.554 243.268 472.554 239.981Z" fill="white"/>
<path d="M258.804 534.199C258.804 530.911 256.328 528.238 253.304 528.238C250.258 528.238 247.804 530.911 247.804 534.199C247.804 537.486 250.28 540.159 253.304 540.159C256.328 540.159 258.804 537.486 258.804 534.199Z" fill="white"/>
<path d="M604.673 421.824C604.673 418.537 602.197 415.885 599.173 415.885C596.149 415.885 593.673 418.537 593.673 421.824C593.673 425.111 596.149 427.763 599.173 427.763C602.197 427.763 604.673 425.111 604.673 421.824Z" fill="white"/>
<path d="M258.804 309.449C258.804 306.162 256.328 303.488 253.304 303.488C250.258 303.488 247.804 306.162 247.804 309.449C247.804 312.736 250.28 315.41 253.304 315.41C256.328 315.41 258.804 312.736 258.804 309.449Z" fill="white"/>
<path d="M676.508 612.608C676.508 609.08 673.856 606.209 670.569 606.209C667.282 606.209 664.631 609.08 664.631 612.608C664.631 616.136 667.282 619.007 670.569 619.007C673.856 619.007 676.508 616.136 676.508 612.608Z" fill="white"/>
<path d="M676.508 231.04C676.508 227.512 673.856 224.641 670.569 224.641C667.282 224.641 664.631 227.512 664.631 231.04C664.631 234.568 667.282 237.439 670.569 237.439C673.856 237.439 676.508 234.568 676.508 231.04Z" fill="white"/>
<path d="M313.611 113.121C313.611 109.593 310.96 106.722 307.673 106.722C304.386 106.722 301.734 109.593 301.734 113.121C301.734 116.649 304.386 119.52 307.673 119.52C310.938 119.52 313.611 116.649 313.611 113.121Z" fill="white"/>
<path d="M313.611 730.526C313.611 726.998 310.96 724.127 307.673 724.127C304.386 724.127 301.734 726.998 301.734 730.526C301.734 734.054 304.386 736.925 307.673 736.925C310.938 736.925 313.611 734.054 313.611 730.526Z" fill="white"/>
<path d="M89.3213 421.824C89.3213 418.296 86.6697 415.425 83.3826 415.425C80.0955 415.425 77.4439 418.296 77.4439 421.824C77.4439 425.352 80.0955 428.223 83.3826 428.223C86.6697 428.223 89.3213 425.352 89.3213 421.824Z" fill="white"/>
<path d="M520.743 750.314C520.743 746.72 518.047 743.806 514.694 743.806C511.364 743.806 508.646 746.72 508.646 750.314C508.646 753.908 511.342 756.823 514.694 756.823C518.047 756.823 520.743 753.908 520.743 750.314Z" fill="white"/>
<path d="M134.574 218.811C134.574 215.217 131.879 212.303 128.526 212.303C125.195 212.303 122.477 215.217 122.477 218.811C122.477 222.405 125.173 225.32 128.526 225.32C131.879 225.32 134.574 222.405 134.574 218.811Z" fill="white"/>
<path d="M759.409 421.823C759.409 418.229 756.713 415.315 753.36 415.315C750.029 415.315 747.312 418.229 747.312 421.823C747.312 425.417 750.007 428.332 753.36 428.332C756.713 428.332 759.409 425.417 759.409 421.823Z" fill="white"/>
<path d="M520.743 93.3319C520.743 89.738 518.047 86.8234 514.695 86.8234C511.364 86.8234 508.646 89.738 508.646 93.3319C508.646 96.9258 511.342 99.8403 514.695 99.8403C518.047 99.8403 520.743 96.9258 520.743 93.3319Z" fill="white"/>
<path d="M134.574 624.835C134.574 621.241 131.879 618.327 128.526 618.327C125.195 618.327 122.477 621.241 122.477 624.835C122.477 628.429 125.173 631.344 128.526 631.344C131.879 631.366 134.574 628.451 134.574 624.835Z" fill="white"/>
<path d="M414.679 836.437C414.679 832.448 411.677 829.227 407.973 829.227C404.27 829.227 401.268 832.47 401.268 836.437C401.268 840.425 404.27 843.646 407.973 843.646C411.677 843.646 414.679 840.425 414.679 836.437Z" fill="white"/>
<path d="M658.385 86.4084C658.385 82.4201 655.383 79.1987 651.679 79.1987C647.976 79.1987 644.974 82.4201 644.974 86.4084C644.974 90.3968 647.976 93.6182 651.679 93.6182C655.383 93.6182 658.385 90.3749 658.385 86.4084Z" fill="white"/>
<path d="M809 293.714C809 289.725 805.998 286.504 802.294 286.504C798.591 286.504 795.589 289.725 795.589 293.714C795.589 297.702 798.591 300.923 802.294 300.923C805.998 300.923 809 297.68 809 293.714Z" fill="white"/>
<path d="M170.995 757.238C170.995 753.25 167.993 750.029 164.289 750.029C160.586 750.029 157.584 753.25 157.584 757.238C157.584 761.227 160.586 764.448 164.289 764.448C167.971 764.47 170.995 761.227 170.995 757.238Z" fill="white"/>
<path d="M20.4893 549.933C20.4893 545.944 17.4213 542.723 13.6302 542.723C9.83906 542.723 6.77115 545.944 6.77115 549.933C6.77115 553.921 9.83906 557.142 13.6302 557.142C17.4213 557.164 20.4893 553.921 20.4893 549.933Z" fill="white"/>
<path d="M414.679 7.20959C414.679 3.22124 411.677 -7.76001e-05 407.974 -7.79239e-05C404.27 -7.82476e-05 401.268 3.22124 401.268 7.20959C401.268 11.1979 404.27 14.4193 407.974 14.4193C411.677 14.4412 414.679 11.1979 414.679 7.20959Z" fill="white"/>
<path d="M170.995 86.4084C170.995 82.4201 167.993 79.1987 164.289 79.1987C160.586 79.1987 157.584 82.4201 157.584 86.4084C157.584 90.3968 160.586 93.6182 164.289 93.6182C167.971 93.6182 170.995 90.3749 170.995 86.4084Z" fill="white"/>
<path d="M658.385 757.238C658.385 753.25 655.383 750.029 651.679 750.029C647.976 750.029 644.974 753.25 644.974 757.238C644.974 761.227 647.976 764.448 651.679 764.448C655.383 764.47 658.385 761.227 658.385 757.238Z" fill="white"/>
<path d="M809 549.933C809 545.944 805.998 542.723 802.294 542.723C798.591 542.723 795.589 545.944 795.589 549.933C795.589 553.921 798.591 557.142 802.294 557.142C805.998 557.164 809 553.921 809 549.933Z" fill="white"/>
<path d="M20.4893 293.714C20.4893 289.725 17.4213 286.504 13.6302 286.504C9.83908 286.504 6.77117 289.725 6.77117 293.714C6.77117 297.702 9.83907 300.923 13.6302 300.923C17.4213 300.923 20.4893 297.68 20.4893 293.714Z" fill="white"/>
<path d="M739.335 186.533C739.335 182.085 735.982 178.491 731.841 178.491C727.699 178.491 724.346 182.085 724.346 186.533C724.346 190.982 727.699 194.576 731.841 194.576C735.982 194.576 739.335 190.96 739.335 186.533Z" fill="white"/>
<path d="M291.763 41.1118C291.763 36.6633 288.41 33.0694 284.269 33.0694C280.127 33.0694 276.774 36.6633 276.774 41.1118C276.774 45.5604 280.127 49.1543 284.269 49.1543C288.41 49.1543 291.763 45.5385 291.763 41.1118Z" fill="white"/>
<path d="M15.296 421.823C15.296 417.375 11.8774 413.781 7.64802 413.781C3.41861 413.781 -2.36558e-05 417.375 -2.40447e-05 421.823C-2.44336e-05 426.272 3.41861 429.866 7.64802 429.866C11.8774 429.866 15.296 426.272 15.296 421.823Z" fill="white"/>
<path d="M291.763 802.536C291.763 798.088 288.41 794.494 284.269 794.494C280.127 794.494 276.774 798.088 276.774 802.536C276.774 806.985 280.127 810.579 284.269 810.579C288.41 810.579 291.763 806.985 291.763 802.536Z" fill="white"/>
<path d="M739.335 657.113C739.335 652.664 735.982 649.07 731.841 649.07C727.699 649.07 724.346 652.664 724.346 657.113C724.346 661.561 727.699 665.155 731.841 665.155C735.982 665.155 739.335 661.561 739.335 657.113Z" fill="white"/>
<path d="M103.237 194.881C103.237 190.345 99.8181 186.685 95.5887 186.685C91.3592 186.685 87.9406 190.345 87.9406 194.881C87.9406 199.418 91.3592 203.077 95.5887 203.077C99.8181 203.077 103.237 199.396 103.237 194.881Z" fill="white"/>
<path d="M527.295 46.4149C523.071 46.4149 519.647 50.0843 519.647 54.6107C519.647 59.1372 523.071 62.8066 527.295 62.8066C531.519 62.8066 534.943 59.1372 534.943 54.6107C534.943 50.0843 531.519 46.4149 527.295 46.4149Z" fill="white"/>
<path d="M794.077 413.627C789.853 413.627 786.429 417.297 786.429 421.823C786.429 426.35 789.853 430.019 794.077 430.019C798.3 430.019 801.725 426.35 801.725 421.823C801.725 417.297 798.3 413.627 794.077 413.627Z" fill="white"/>
<path d="M534.921 789.036C534.921 784.499 531.503 780.84 527.273 780.84C523.044 780.84 519.625 784.499 519.625 789.036C519.625 793.572 523.044 797.231 527.273 797.231C531.503 797.231 534.921 793.572 534.921 789.036Z" fill="white"/>
<path d="M103.237 648.765C103.237 644.229 99.818 640.569 95.5886 640.569C91.3592 640.569 87.9406 644.229 87.9406 648.765C87.9406 653.301 91.3592 656.961 95.5886 656.961C99.818 656.961 103.237 653.301 103.237 648.765Z" fill="white"/>
<path d="M154.494 412.927C149.907 412.927 146.188 416.91 146.188 421.824C146.188 426.737 149.907 430.721 154.494 430.721C159.081 430.721 162.799 426.737 162.799 421.824C162.799 416.91 159.081 412.927 154.494 412.927Z" fill="white"/>
<path d="M329.631 654.003C325.044 654.003 321.325 657.986 321.325 662.9C321.325 667.813 325.044 671.797 329.631 671.797C334.217 671.797 337.936 667.813 337.936 662.9C337.936 657.986 334.217 654.003 329.631 654.003Z" fill="white"/>
<path d="M337.958 180.747C337.958 175.838 334.233 171.85 329.653 171.85C325.073 171.85 321.347 175.838 321.347 180.747C321.347 185.656 325.073 189.644 329.653 189.644C334.233 189.644 337.958 185.656 337.958 180.747Z" fill="white"/>
<path d="M621.35 272.83C621.35 267.921 617.625 263.933 613.045 263.933C608.465 263.933 604.739 267.921 604.739 272.83C604.739 277.739 608.465 281.727 613.045 281.727C617.625 281.727 621.35 277.739 621.35 272.83Z" fill="white"/>
<path d="M621.35 570.818C621.35 565.909 617.625 561.921 613.045 561.921C608.465 561.921 604.739 565.909 604.739 570.818C604.739 575.726 608.465 579.715 613.045 579.715C617.625 579.715 621.35 575.726 621.35 570.818Z" fill="white"/>
<path d="M416.629 421.824C416.629 416.718 412.75 412.576 407.973 412.576C403.196 412.576 399.317 416.718 399.317 421.824C399.317 426.93 403.196 431.071 407.973 431.071C412.75 431.071 416.629 426.93 416.629 421.824Z" fill="white"/>
</g>
</svg>
