<svg width="500" height="522" viewBox="0 0 500 522" fill="none" xmlns="http://www.w3.org/2000/svg">
<g opacity="0.7">
<path d="M4.23925 260.706L4.23925 260.733L7.97737 339.87L7.97737 339.897L8.00444 339.897L8.03156 339.924L7.99093 339.965L8.11282 340.114L8.05863 340.155L101.146 468.28L101.254 468.212L101.403 468.348L101.376 468.442L102.135 468.686L175.678 496.478L175.664 496.492L251.686 517.282L251.984 517.376L251.984 517.363L252.12 517.404L252.242 517.349L252.255 517.376L402.904 468.442L402.877 468.348L402.89 468.334L403.026 468.212L403.134 468.28L404.218 466.79L452.42 406.642L452.569 406.547L452.556 406.479L452.745 406.249L452.8 406.249L452.8 406.235L495.788 340.778L496.221 340.168L496.194 340.141L496.289 339.992L496.248 339.938L496.275 339.911L496.303 339.911L496.303 339.884L496.303 339.816L496.303 181.637L496.303 181.569L496.303 181.542L496.275 181.542L496.248 181.515L496.303 181.461L496.208 181.312L496.235 181.285L495.801 180.689L452.8 115.218L452.8 115.191L452.745 115.191L452.556 114.96L452.569 114.893L452.42 114.798L404.218 54.6358L403.148 53.1595L403.039 53.2272L402.904 53.1053L402.89 53.0918L402.917 52.997L252.296 4.06288L252.282 4.08995L252.16 4.03576L252.025 4.07639L252.025 4.06288L251.727 4.15765L175.705 24.9475L175.719 24.9611L102.189 52.7531L101.417 52.997L101.444 53.0917L101.295 53.2272L101.186 53.1595L8.09927 181.285L8.15346 181.325L8.03157 181.474L8.0722 181.515L8.04509 181.542L8.01801 181.542L8.01801 181.569L4.27988 260.706L4.23925 260.706ZM134.098 59.9043L188.992 70.1164L109.706 116.883L84.4191 118.414L90.6629 95.3081L134.098 59.9043ZM406.628 86.3962L413.888 141.75L344.895 80.789L335.631 57.2362L359.536 56.0308L406.628 86.3962ZM465.639 353.834L415.229 377.834L451.96 293.225L471.477 277.162L480.009 299.536L465.639 353.834ZM359.536 465.395L335.631 464.19L344.895 440.637L413.888 379.676L406.628 435.016L359.536 465.395ZM90.6628 426.104L84.4191 402.998L109.719 404.529L188.992 451.296L134.098 461.508L90.6628 426.104ZM252.946 261.912L328.873 317.062L288.796 372.227L252.946 261.912ZM253.542 261.099L369.532 261.112L329.455 316.277L253.542 261.099ZM157.38 330.01L251.212 261.83L222.215 351.085L157.38 330.01ZM252.228 262.196L288.052 372.47L223.23 351.41L252.228 262.196ZM253.542 260.313L329.455 205.149L369.532 260.313L253.542 260.313ZM252.946 259.501L288.797 149.186L328.873 204.35L252.946 259.501ZM252.228 259.216L223.231 170.003L288.052 148.942L252.228 259.216ZM251.212 259.582L157.38 191.402L222.228 170.328L251.212 259.582ZM250.792 260.164L156.947 260.178L156.947 191.998L250.792 260.164ZM250.792 261.248L156.947 329.414L156.947 261.234L250.792 261.248ZM203.605 410.014L203.524 409.865L203.605 409.811L203.714 409.892L203.768 409.892L203.795 409.973L203.714 410.109L203.687 410.095L203.605 410.014ZM378.999 353.075L378.972 352.967L379.053 352.818L379.148 352.818L379.188 352.899L379.08 353.048L378.999 353.075ZM203.727 111.29L203.809 111.425L203.781 111.507L203.727 111.507L203.619 111.588L203.538 111.534L203.619 111.385L203.714 111.303L203.727 111.29ZM95.3219 260.611L95.2949 260.706L95.3219 260.801L95.2678 260.855L95.1052 260.72L95.2678 260.584L95.3219 260.611ZM157.123 330.769L221.984 351.843L203.565 408.565L163.353 353.224L157.123 330.769ZM202.657 409.107L178.427 407.644L164.138 356.096L202.657 409.107ZM203.037 410.177L190.143 449.914L178.725 408.7L203.037 410.177ZM289.419 372.728L329.523 317.536L377.793 352.601L312.701 373.757L289.419 372.728ZM378.024 353.617L369.152 376.208L315.695 373.865L378.024 353.617ZM379.405 351.762L379.405 286.128L398.177 336.322L379.405 351.762ZM378.362 351.802L330.092 316.724L370.195 261.519L378.349 283.324L378.349 351.802L378.362 351.802ZM379.188 168.526L379.134 168.608L379.039 168.608L378.958 168.459L378.985 168.35L379.067 168.391L379.188 168.526ZM378.024 167.795L315.695 147.547L369.152 145.204L378.024 167.795ZM377.78 168.811L329.509 203.876L289.406 148.685L312.688 147.669L377.78 168.811ZM202.657 112.306L164.138 165.316L178.427 113.768L202.657 112.306ZM203.551 112.847L221.971 169.569L157.109 190.644L163.326 168.188L203.551 112.847ZM95.7147 261.912L134.383 315.139L89.5793 285.505L95.7147 261.912ZM96.5138 261.234L156.161 261.234L156.161 329.536L136.888 316.778L96.5138 261.234ZM156.039 330.186L149.863 334.669L137.89 318.186L156.039 330.186ZM156.283 330.701L162.012 351.382L150.202 335.13L156.283 330.701ZM204.052 410.366L224.707 423.544L191.05 450.321L204.052 410.366ZM204.784 409.906L267.411 389.563L225.343 423.043L204.784 409.906ZM204.553 408.89L222.987 352.168L287.903 373.256L269.754 387.694L204.553 408.89ZM288.458 373.689L290.787 380.868L271.623 387.098L288.458 373.689ZM289.203 373.513L310.534 374.461L291.519 380.637L289.203 373.513ZM379.175 353.455L413.184 378.145L370.209 376.263L379.175 353.455ZM379.568 352.818L398.516 337.216L413.617 377.576L379.568 352.818ZM378.362 281.117L370.873 261.099L378.362 261.099L378.362 281.117ZM370.873 260.313L378.362 240.295L378.362 260.313L370.873 260.313ZM370.209 259.893L330.105 204.689L378.376 169.61L378.376 238.088L370.209 259.893ZM379.405 169.651L398.177 185.091L379.405 235.271L379.405 169.651V169.651ZM310.534 146.964L289.203 147.913L291.519 140.788L310.534 146.964ZM288.444 147.723L271.609 134.314L290.774 140.545L288.444 147.723ZM287.903 148.156L222.987 169.258L204.553 112.536L269.767 133.719L287.903 148.156ZM204.784 111.507L225.343 98.3825L267.411 131.863L204.784 111.507ZM204.052 111.046L191.05 71.0916L224.707 97.8814L204.052 111.046ZM203.037 111.236L178.725 112.712L190.143 71.4979L203.037 111.236ZM162.012 170.03L156.283 190.711L150.202 186.282L162.012 170.03ZM156.039 191.226L137.89 203.226L149.863 186.743L156.039 191.226ZM156.148 191.876L156.148 260.178L96.5003 260.178L136.861 204.621L156.148 191.876ZM95.7147 259.501L89.5929 235.907L134.396 206.273L95.7147 259.501ZM94.8073 261.234L88.6719 284.895L52.8754 261.207L94.8073 261.234ZM379.568 168.594L413.617 143.836L398.516 184.197L379.568 168.594ZM379.175 167.958L370.209 145.15L413.184 143.267L379.175 167.958ZM94.8073 260.178L52.8754 260.191L88.6719 236.517L94.8073 260.178ZM80.0986 386.082L149.349 335.739L162.798 354.254L177.56 407.603L109.651 403.526L80.0986 386.082ZM177.872 408.66L189.479 450.619L111.561 404.651L177.872 408.66ZM318.309 462.998L291.844 381.626L313.528 374.583L368.841 377.021L343.974 440.325L318.309 462.998ZM369.884 377.075L413.387 378.998L345.559 438.917L369.884 377.075ZM399.166 336.687L450.551 294.39L414.47 377.536L399.166 336.687ZM398.827 335.793L379.405 283.92L379.405 261.112L464.975 261.14L451.31 292.616L398.827 335.793ZM369.884 144.337L345.573 82.4956L413.4 142.414L369.884 144.337ZM368.827 144.391L313.514 146.829L291.83 139.786L318.295 58.4145L343.961 81.087L368.827 144.391ZM177.872 112.753L111.575 116.762L189.493 70.7936L177.872 112.753ZM177.574 113.809L162.811 167.158L149.362 185.673L80.1122 135.33L109.678 117.886L177.574 113.809ZM88.5094 285.532L71.8098 349.933L52.1305 261.492L88.5094 285.532ZM89.4168 286.142L135.398 316.548L149.01 335.292L79.7329 385.608L72.2838 352.114L89.4168 286.142ZM225.33 423.937L281.564 459.815L191.131 451.174L225.33 423.937ZM225.966 423.436L269.266 388.953L291.099 381.856L317.523 463.242L283.189 459.964L225.966 423.436ZM452.732 291.451L465.612 261.776L471.151 276.295L452.732 291.451ZM465.612 259.636L452.732 229.961L471.152 245.117L465.612 259.636ZM464.989 260.286L379.419 260.313L379.419 237.505L398.841 185.632L451.323 228.81L464.989 260.286ZM399.166 184.725L414.457 143.876L450.538 227.022L399.166 184.725ZM343.284 79.3669L319.162 58.0488L334.616 57.2768L343.284 79.3669ZM317.212 57.3446L284.747 60.4461L305.022 47.4981L317.212 57.3446ZM317.523 58.1572L291.099 139.542L269.266 132.445L225.966 97.9627L283.189 61.4212L317.523 58.1572ZM225.33 97.4751L191.132 70.2383L281.564 61.5973L225.33 97.4751ZM107.809 118.008L80.1122 134.342L84.1482 119.43L107.809 118.008ZM78.8391 136.035L71.8368 167.538L65.8505 144.513L78.8391 136.035ZM79.7465 135.818L149.023 186.133L135.412 204.878L89.4303 235.284L72.2973 169.325L79.7465 135.818ZM88.5094 235.88L52.144 259.934L71.8233 171.492L88.5094 235.88ZM71.8233 353.875L78.8255 385.378L65.8369 376.913L71.8233 353.875ZM80.1122 387.071L107.809 403.405L84.1482 401.982L80.1122 387.071ZM284.747 460.966L317.212 464.068L305.022 473.901L284.747 460.966ZM319.175 463.363L343.297 442.045L334.629 464.135L319.175 463.363ZM466.045 260.706L471.802 245.645L490.099 260.706L471.788 275.767L466.045 260.706ZM79.0422 135.086L65.6608 143.809L59.7151 120.906L83.2543 119.497L79.0422 135.086ZM79.0422 386.326L83.2408 401.928L59.7015 400.52L65.6473 377.617L79.0422 386.326ZM334.29 56.4371L318.119 57.2633L318.105 57.2768L305.577 47.1595L325.622 34.3606L334.29 56.4371ZM305.564 474.253L318.092 464.135L318.105 464.149L334.277 464.975L325.609 487.052L305.564 474.253ZM24.6905 310.846L51.3585 261.803L71.3493 351.708L64.9701 376.33L45.0334 363.328L24.6905 310.846ZM229.501 492.523L191.091 452L283.108 460.804L304.399 474.388L285.79 489.395L229.501 492.523ZM472.127 276.62L489.95 261.952L480.361 298.182L472.127 276.62ZM472.127 244.792L480.361 223.23L489.937 259.447L472.127 244.792ZM466.79 168.134L495.327 181.718L480.605 220.318L466.79 168.134ZM480.009 221.876L471.477 244.25L451.96 228.187L415.229 143.579L465.639 167.578L480.009 221.876ZM335.293 56.383L326.868 34.97L358.263 55.2182L335.293 56.383ZM304.954 46.672L286.873 32.0716L324.539 34.1709L304.954 46.672ZM285.79 32.0175L304.399 47.0241L283.108 60.6086L191.091 69.4122L229.501 28.8888L285.79 32.0175ZM83.5252 118.468L60.5412 119.863L89.5117 96.2561L83.5252 118.468ZM64.7805 144.378L45.4669 156.96L58.9973 122.057L64.7805 144.378ZM45.0335 158.084L64.9701 145.082L71.3493 169.705L51.3585 259.609L24.6905 210.567L45.0335 158.084ZM64.7805 377.035L58.9972 399.355L45.4669 364.452L64.7805 377.035ZM83.5252 402.944L89.5116 425.156L60.5548 401.549L83.5252 402.944ZM91.0827 427.662L132.879 461.725L101.837 467.494L91.0827 427.662ZM134.978 462.212L189.466 452.041L176.531 491.9L168.012 489.137L134.978 462.212ZM177.425 492.198L190.414 452.257L228.58 492.578L185.904 494.948L177.425 492.198ZM304.954 474.74L324.539 487.241L286.873 489.341L304.954 474.74ZM335.293 465.029L358.263 466.194L326.868 486.442L335.293 465.029ZM361.189 465.476L406.466 436.276L402.362 467.548L361.189 465.476ZM407.604 434.393L414.782 379.31L448.75 403.973L443.427 411.301L407.604 434.393ZM449.143 403.405L415.147 378.687L465.382 354.809L454.465 396.077L449.143 403.405ZM480.605 301.094L495.327 339.694L466.79 353.279L480.605 301.094ZM465.382 166.59L415.148 142.712L449.143 117.994L454.465 125.321L465.382 166.59ZM448.736 117.439L414.768 142.102L407.59 87.0192L443.4 110.112L448.736 117.439ZM284.476 30.961L230.382 27.9543L252.187 4.95678L252.255 4.98385L284.476 30.961ZM228.58 28.8346L190.427 69.1548L177.439 29.2139L185.917 26.4644L228.58 28.8346ZM176.518 29.4983L189.452 69.358L134.965 59.1865L167.985 32.2612L176.518 29.4983ZM132.893 59.6876L91.0963 93.7505L101.864 53.9179L132.893 59.6876ZM43.6114 159.019L24.0811 209.429L8.95255 181.623L43.6114 159.019ZM8.88484 261.194L50.8302 261.207L24.3113 309.898L8.88484 270.092L8.88484 261.194V261.194ZM24.0675 311.983L43.5978 362.394L8.93898 339.789L24.0675 311.983ZM252.187 516.469L230.382 493.458L284.476 490.451L252.255 516.442L252.187 516.469ZM406.466 85.1502L361.189 55.9495L402.376 53.8773L406.466 85.1502ZM24.3249 211.515L50.8438 260.205L8.89835 260.219L8.89835 251.32L24.3249 211.515ZM23.7018 311.035L8.88483 338.231L8.88484 272.801L23.7018 311.035ZM89.9315 426.727L100.374 465.476L60.9069 403.08L89.9315 426.727ZM133.76 462.442L165.533 488.338L103.326 468.131L133.76 462.442ZM176.247 492.767L175.448 495.219L169.935 490.722L176.247 492.767ZM177.154 493.065L183.411 495.097L176.369 495.49L177.154 493.065ZM229.461 493.512L250.779 516.036L188.477 495.787L229.461 493.512ZM359.929 466.289L399.802 468.32L328.629 486.469L359.929 466.289ZM407.441 435.639L441.856 413.441L403.446 466.302L407.441 435.639ZM449.468 404.502L451.581 406.032L445.513 409.946L449.468 404.502ZM466.533 354.267L494.515 340.967L456.05 393.91L466.533 354.267ZM480.957 299.74L490.479 263.767L495.205 337.026L480.957 299.74ZM491.142 260.801L491.102 260.801L491.047 260.706L491.102 260.611L491.142 260.611L491.237 260.706L491.142 260.801ZM480.957 221.673L495.205 184.386L490.479 257.645L480.957 221.673ZM449.874 117.479L451.987 115.949L453.829 122.924L449.874 117.479ZM449.468 116.911L445.499 111.452L451.581 115.367L449.468 116.911ZM407.441 85.7732L403.446 55.0963L441.856 107.972L407.441 85.7732ZM359.929 55.1233L328.629 34.9429L399.802 53.0918L359.929 55.1233ZM285.573 31.0152L254.287 5.75586L323.022 33.0874L285.573 31.0152ZM177.141 28.3471L176.355 25.9227L183.411 26.3155L177.141 28.3471ZM176.247 28.645L169.935 30.6902L175.448 26.1936L176.247 28.645ZM133.76 58.9698L103.326 53.2814L165.534 33.0739L133.76 58.9698ZM89.9315 94.6851L60.9069 118.333L100.374 55.936L89.9315 94.6851ZM44.0448 157.894L10.3069 179.876L57.6158 122.883L44.0448 157.894ZM7.99093 260.219L5.44468 260.219L7.99094 253.65L7.99093 260.219ZM7.99093 261.194L7.99093 267.762L5.44468 261.194L7.99093 261.194ZM44.0448 363.518L57.6157 398.529L10.3205 341.536L44.0448 363.518ZM58.8076 401.061L58.8212 401.075L58.9159 401.21L58.8753 401.251L58.7263 401.116L58.8076 401.061ZM285.559 490.397L322.995 488.311L254.26 515.656L285.559 490.397ZM325.907 488.067L325.961 487.959L326.056 487.905L326.069 487.946L325.907 488.122L325.907 488.067ZM449.874 403.933L453.829 398.502L451.987 405.477L449.874 403.933ZM466.533 167.145L456.037 127.502L494.501 180.445L466.533 167.145ZM326.069 33.5073L325.975 33.4531L325.907 33.3448L325.92 33.2906L326.083 33.4667L326.069 33.5073ZM229.461 27.9001L188.477 25.6247L250.779 5.37664L229.461 27.9001ZM58.916 120.202L58.8212 120.337L58.8076 120.351L58.7264 120.31L58.8753 120.175L58.916 120.202ZM23.7018 210.377L8.88484 248.611L8.88484 183.181L23.7018 210.377ZM167.47 489.909L173.226 494.596L119.105 474.185L167.47 489.909ZM185.971 495.923L233.822 511.471L178.63 496.329L185.971 495.923ZM443.955 412.1L450.335 407.982L413.441 454.099L443.955 412.1ZM455.4 396.335L485.264 355.243L453.504 403.513L455.4 396.335ZM491.278 260.706L495.395 195.817L495.395 325.595L491.278 260.706ZM455.4 125.078L453.504 117.899L485.264 166.17L455.4 125.078ZM443.955 109.326L413.414 67.2993L450.335 113.443L443.955 109.326ZM325.92 33.2635L325.893 33.25L325.88 33.25L265.013 9.11472L389.319 49.5026L325.92 33.2635ZM185.985 25.4893L178.658 25.083L233.862 9.92736L185.985 25.4893ZM167.47 31.5028L119.105 47.2137L173.226 26.803L167.47 31.5028ZM58.8483 120.026L58.767 120.093L58.7941 120.107L58.6722 120.283L58.618 120.256L58.5503 120.418L16.5236 171.154L94.1437 64.3196L58.8483 120.026ZM7.99093 270.471L7.99093 320.421L5.36342 263.672L7.99093 270.471ZM58.5638 400.994L58.6315 401.156L58.6857 401.129L58.794 401.305L58.767 401.332L58.8482 401.4L94.1301 457.065L16.5236 350.258L58.5638 400.994ZM325.88 488.162L325.934 488.162L325.934 488.149L389.333 471.91L265.04 512.298L325.88 488.162ZM7.99094 250.941L5.36342 257.74L7.99094 200.991L7.99094 250.941ZM452.583 115.163L452.502 115.055L452.515 115.001L452.705 115.163L452.583 115.163ZM175.691 25.0017L175.664 24.9882L175.515 25.1372L175.488 25.1236L175.691 24.9205L175.719 24.9475L175.691 25.0017ZM175.488 496.289L175.515 496.275L175.664 496.424L175.691 496.411L175.705 496.465L175.678 496.492L175.488 496.289ZM452.515 406.411L452.502 406.357L452.583 406.249L452.705 406.249L452.515 406.411ZM4.38825 260.598L4.40177 260.611L4.32051 260.706L4.40177 260.801L4.38825 260.814L4.27988 260.706L4.38825 260.598Z" fill="white"/>
<path d="M292.06 373.093C292.06 371.062 290.53 369.409 288.661 369.409C286.778 369.409 285.261 371.062 285.261 373.093C285.261 375.125 286.792 376.777 288.661 376.777C290.544 376.764 292.06 375.125 292.06 373.093Z" fill="white"/>
<path d="M292.06 148.319C292.06 146.288 290.53 144.649 288.661 144.649C286.778 144.649 285.261 146.288 285.261 148.319C285.261 150.351 286.792 151.99 288.661 151.99C290.544 152.003 292.06 150.351 292.06 148.319Z" fill="white"/>
<path d="M159.953 330.159C159.953 328.128 158.423 326.475 156.554 326.475C154.671 326.475 153.154 328.128 153.154 330.159C153.154 332.191 154.685 333.843 156.554 333.843C158.423 333.843 159.953 332.191 159.953 330.159Z" fill="white"/>
<path d="M373.717 260.707C373.717 258.675 372.186 257.036 370.317 257.036C368.448 257.036 366.918 258.675 366.918 260.707C366.918 262.738 368.448 264.377 370.317 264.377C372.186 264.377 373.717 262.738 373.717 260.707Z" fill="white"/>
<path d="M159.953 191.253C159.953 189.221 158.423 187.569 156.554 187.569C154.671 187.569 153.154 189.221 153.154 191.253C153.154 193.285 154.685 194.937 156.554 194.937C158.423 194.937 159.953 193.285 159.953 191.253Z" fill="white"/>
<path d="M418.114 378.62C418.114 376.439 416.475 374.665 414.443 374.665C412.412 374.665 410.773 376.439 410.773 378.62C410.773 380.8 412.412 382.575 414.443 382.575C416.475 382.575 418.114 380.8 418.114 378.62Z" fill="white"/>
<path d="M418.114 142.793C418.114 140.613 416.475 138.838 414.443 138.838C412.412 138.838 410.773 140.613 410.773 142.793C410.773 144.974 412.412 146.748 414.443 146.748C416.475 146.748 418.114 144.974 418.114 142.793Z" fill="white"/>
<path d="M193.827 69.9134C193.827 67.7328 192.188 65.9585 190.156 65.9585C188.125 65.9585 186.486 67.7328 186.486 69.9134C186.486 72.0939 188.125 73.8682 190.156 73.8682C192.174 73.8682 193.827 72.0939 193.827 69.9134Z" fill="white"/>
<path d="M193.827 451.499C193.827 449.318 192.188 447.544 190.156 447.544C188.125 447.544 186.486 449.318 186.486 451.499C186.486 453.679 188.125 455.454 190.156 455.454C192.174 455.454 193.827 453.679 193.827 451.499Z" fill="white"/>
<path d="M55.2048 260.706C55.2048 258.526 53.566 256.752 51.5344 256.752C49.5028 256.752 47.864 258.526 47.864 260.706C47.864 262.887 49.5028 264.661 51.5344 264.661C53.566 264.661 55.2048 262.887 55.2048 260.706Z" fill="white"/>
<path d="M321.843 463.729C321.843 461.508 320.177 459.706 318.105 459.706C316.047 459.706 314.367 461.508 314.367 463.729C314.367 465.95 316.033 467.751 318.105 467.751C320.177 467.751 321.843 465.95 321.843 463.729Z" fill="white"/>
<path d="M83.173 135.235C83.173 133.014 81.5071 131.213 79.4349 131.213C77.3762 131.213 75.6968 133.014 75.6968 135.235C75.6968 137.456 77.3627 139.258 79.4349 139.258C81.5071 139.258 83.173 137.456 83.173 135.235Z" fill="white"/>
<path d="M469.35 260.706C469.35 258.485 467.684 256.683 465.612 256.683C463.553 256.683 461.874 258.485 461.874 260.706C461.874 262.927 463.54 264.729 465.612 264.729C467.684 264.729 469.35 262.927 469.35 260.706Z" fill="white"/>
<path d="M321.843 57.683C321.843 55.4618 320.177 53.6605 318.105 53.6605C316.047 53.6605 314.367 55.4618 314.367 57.683C314.367 59.9042 316.033 61.7056 318.105 61.7056C320.177 61.7056 321.843 59.9042 321.843 57.683Z" fill="white"/>
<path d="M83.173 386.177C83.173 383.956 81.5071 382.155 79.4349 382.155C77.3762 382.155 75.6968 383.956 75.6968 386.177C75.6968 388.398 77.3627 390.2 79.4349 390.2C81.5071 390.213 83.173 388.412 83.173 386.177Z" fill="white"/>
<path d="M256.291 516.957C256.291 514.492 254.436 512.501 252.147 512.501C249.858 512.501 248.002 514.505 248.002 516.957C248.002 519.422 249.858 521.413 252.147 521.413C254.436 521.413 256.291 519.422 256.291 516.957Z" fill="white"/>
<path d="M406.913 53.4034C406.913 50.9384 405.057 48.9475 402.768 48.9475C400.479 48.9475 398.624 50.9384 398.624 53.4034C398.624 55.8684 400.479 57.8594 402.768 57.8594C405.057 57.8594 406.913 55.8549 406.913 53.4034Z" fill="white"/>
<path d="M500 181.528C500 179.063 498.144 177.073 495.855 177.073C493.567 177.073 491.711 179.063 491.711 181.528C491.711 183.993 493.567 185.984 495.855 185.984C498.144 185.984 500 183.98 500 181.528Z" fill="white"/>
<path d="M105.683 468.008C105.683 465.543 103.827 463.552 101.538 463.552C99.2496 463.552 97.3941 465.543 97.3941 468.008C97.3941 470.473 99.2496 472.464 101.538 472.464C103.814 472.478 105.683 470.473 105.683 468.008Z" fill="white"/>
<path d="M12.6634 339.884C12.6634 337.419 10.7672 335.428 8.42415 335.428C6.08105 335.428 4.18494 337.419 4.18494 339.884C4.18494 342.349 6.08105 344.34 8.42415 344.34C10.7672 344.353 12.6634 342.349 12.6634 339.884Z" fill="white"/>
<path d="M256.291 4.4556C256.291 1.99061 254.436 -0.000311783 252.147 -0.000311983C249.858 -0.000312183 248.002 1.99061 248.002 4.4556C248.002 6.92059 249.858 8.91155 252.147 8.91155C254.436 8.9251 256.291 6.92059 256.291 4.4556Z" fill="white"/>
<path d="M105.683 53.4034C105.683 50.9384 103.827 48.9475 101.538 48.9475C99.2496 48.9475 97.3941 50.9384 97.3941 53.4034C97.3941 55.8684 99.2496 57.8594 101.538 57.8594C103.814 57.8594 105.683 55.8549 105.683 53.4034Z" fill="white"/>
<path d="M406.913 468.008C406.913 465.543 405.057 463.552 402.768 463.552C400.479 463.552 398.624 465.543 398.624 468.008C398.624 470.473 400.479 472.464 402.768 472.464C405.057 472.478 406.913 470.473 406.913 468.008Z" fill="white"/>
<path d="M500 339.884C500 337.419 498.144 335.428 495.855 335.428C493.567 335.428 491.711 337.419 491.711 339.884C491.711 342.349 493.567 344.34 495.855 344.34C498.144 344.353 500 342.349 500 339.884Z" fill="white"/>
<path d="M12.6634 181.528C12.6634 179.063 10.7672 177.073 8.42415 177.073C6.08105 177.073 4.18494 179.063 4.18494 181.528C4.18494 183.993 6.08105 185.984 8.42415 185.984C10.7672 185.984 12.6634 183.98 12.6634 181.528Z" fill="white"/>
<path d="M456.944 115.286C456.944 112.536 454.872 110.315 452.312 110.315C449.752 110.315 447.68 112.536 447.68 115.286C447.68 118.035 449.752 120.256 452.312 120.256C454.872 120.256 456.944 118.022 456.944 115.286Z" fill="white"/>
<path d="M180.323 25.4083C180.323 22.6589 178.251 20.4377 175.691 20.4377C173.132 20.4377 171.059 22.6589 171.059 25.4083C171.059 28.1577 173.132 30.3789 175.691 30.3789C178.251 30.3789 180.323 28.1441 180.323 25.4083Z" fill="white"/>
<path d="M9.45367 260.706C9.45367 257.957 7.34084 255.736 4.72687 255.736C2.1129 255.736 2.18965e-05 257.957 2.16561e-05 260.706C2.14158e-05 263.456 2.1129 265.677 4.72687 265.677C7.34084 265.677 9.45367 263.456 9.45367 260.706Z" fill="white"/>
<path d="M180.323 496.004C180.323 493.255 178.251 491.034 175.691 491.034C173.131 491.034 171.059 493.255 171.059 496.004C171.059 498.754 173.131 500.975 175.691 500.975C178.251 500.975 180.323 498.754 180.323 496.004Z" fill="white"/>
<path d="M456.944 406.126C456.944 403.377 454.872 401.155 452.312 401.155C449.752 401.155 447.68 403.377 447.68 406.126C447.68 408.875 449.752 411.097 452.312 411.097C454.872 411.097 456.944 408.875 456.944 406.126Z" fill="white"/>
<path d="M63.8052 120.445C63.8052 117.642 61.6923 115.38 59.0784 115.38C56.4644 115.38 54.3515 117.642 54.3515 120.445C54.3515 123.249 56.4644 125.511 59.0784 125.511C61.6923 125.511 63.8052 123.235 63.8052 120.445Z" fill="white"/>
<path d="M325.893 28.686C323.282 28.686 321.166 30.9539 321.166 33.7514C321.166 36.549 323.282 38.8169 325.893 38.8169C328.504 38.8169 330.62 36.549 330.62 33.7514C330.62 30.9539 328.504 28.686 325.893 28.686Z" fill="white"/>
<path d="M490.777 255.641C488.166 255.641 486.05 257.909 486.05 260.706C486.05 263.504 488.166 265.771 490.777 265.771C493.387 265.771 495.503 263.504 495.503 260.706C495.503 257.909 493.387 255.641 490.777 255.641Z" fill="white"/>
<path d="M330.606 487.661C330.606 484.857 328.493 482.595 325.88 482.595C323.266 482.595 321.153 484.857 321.153 487.661C321.153 490.464 323.266 492.726 325.88 492.726C328.493 492.726 330.606 490.464 330.606 487.661Z" fill="white"/>
<path d="M63.8051 400.967C63.8051 398.163 61.6923 395.901 59.0783 395.901C56.4643 395.901 54.3515 398.163 54.3515 400.967C54.3515 403.77 56.4643 406.032 59.0783 406.032C61.6923 406.032 63.8051 403.77 63.8051 400.967Z" fill="white"/>
<path d="M95.4843 255.207C92.6494 255.207 90.3512 257.669 90.3512 260.706C90.3512 263.743 92.6494 266.205 95.4843 266.205C98.3193 266.205 100.617 263.743 100.617 260.706C100.617 257.669 98.3193 255.207 95.4843 255.207Z" fill="white"/>
<path d="M203.727 404.204C200.892 404.204 198.594 406.666 198.594 409.703C198.594 412.74 200.892 415.202 203.727 415.202C206.562 415.202 208.86 412.74 208.86 409.703C208.86 406.666 206.562 404.204 203.727 404.204Z" fill="white"/>
<path d="M208.874 111.71C208.874 108.676 206.571 106.211 203.741 106.211C200.91 106.211 198.608 108.676 198.608 111.71C198.608 114.744 200.91 117.208 203.741 117.208C206.571 117.208 208.874 114.744 208.874 111.71Z" fill="white"/>
<path d="M384.024 168.621C384.024 165.587 381.721 163.122 378.89 163.122C376.06 163.122 373.757 165.587 373.757 168.621C373.757 171.655 376.06 174.12 378.89 174.12C381.721 174.12 384.024 171.655 384.024 168.621Z" fill="white"/>
<path d="M384.024 352.792C384.024 349.758 381.721 347.293 378.89 347.293C376.06 347.293 373.757 349.758 373.757 352.792C373.757 355.826 376.06 358.291 378.89 358.291C381.721 358.291 384.024 355.826 384.024 352.792Z" fill="white"/>
<path d="M257.496 260.706C257.496 257.55 255.099 254.99 252.147 254.99C249.194 254.99 246.797 257.55 246.797 260.706C246.797 263.862 249.194 266.421 252.147 266.421C255.099 266.421 257.496 263.862 257.496 260.706Z" fill="white"/>
</g>
</svg>
